<?xml version="1.0" standalone="no"?>
<!DOCTYPE svg PUBLIC "-//W3C//DTD SVG 1.1//EN" "http://www.w3.org/Graphics/SVG/1.1/DTD/svg11.dtd" >
<svg>
<metadata>
Created by FontForge 20090914 at Wed Sep  4 05:10:58 2019
 By www-data
Barbara Blast &#194;&#169; (Rochart Std). 2019. All Rights Reserved
</metadata>
<defs>
<font id="BarbaraBlast" horiz-adv-x="495" >
  <font-face 
    font-family="Barbara Blast"
    font-weight="400"
    font-stretch="normal"
    units-per-em="1000"
    panose-1="2 0 5 0 0 0 0 0 0 0"
    ascent="800"
    descent="-200"
    x-height="503"
    cap-height="1111"
    bbox="-929.003 -734.003 2284.99 1241"
    underline-thickness="50"
    underline-position="-50"
    unicode-range="U+0020-U+E12A"
  />
<missing-glyph horiz-adv-x="500" 
d="M49 0v700h402v-700h-402zM427 676h-354v-652h354v652zM218 222c-11.333 29.333 -17 53.3311 -17 71.998c0 24.667 13 60 39 106c26.667 46.667 40 82 40 106c0 18.667 -5.16699 33.334 -15.5 44.001s-25.166 16 -44.499 16c-12 0 -22.5 -2.16699 -31.5 -6.5
s-18.833 -11.166 -29.5 -20.499v22c14.667 13.333 28.667 22.5 42 27.5s27 7.5 41 7.5c29.333 0 53.166 -7.33301 71.499 -22s27.5 -35.667 27.5 -63c0 -16.667 -4 -33.167 -12 -49.5s-21.667 -37.166 -41 -62.499l-49 -64c-11.333 -17.333 -17 -33.333 -17 -48
c0 -6.66699 1 -15.334 3 -26.001s4.66699 -23.667 8 -39h-15zM228 103.998c-3.33301 0 -6.66699 1.66699 -10 5l-30 35c-2 2 -3 4.66699 -3 8c0 4 1.66699 7.66699 5 11l28 28c2.66699 3.33301 6 5 10 5c2 0 5.33301 -1.66699 10 -5l28 -29
c2.66699 -3.33301 4 -6.66602 4 -9.99902c0 -2.66699 -1.66699 -6.33398 -5 -11.001l-27 -30c-4.66699 -4.66699 -8 -7 -10 -7z" />
    <glyph glyph-name="a_r" unicode="ar" horiz-adv-x="1030" 
d="M1045 243c0 -3.33301 -1.83398 -15.1738 -5.50098 -35.5068s-9 -44.666 -16 -72.999s-15.667 -58.5 -26 -90.5s-22 -61.5 -35 -88.5s-27.333 -49.5 -43 -67.5s-32.5 -27 -50.5 -27c-0.666992 0 -1.33398 0.166992 -2.00098 0.5s-1.33398 0.5 -2.00098 0.5v-1
c-1.33301 0 -2.66602 0.166992 -3.99902 0.5s-2.66602 0.5 -3.99902 0.5c-33.333 2.66699 -56.666 14.5 -69.999 35.5s-20 48.167 -20 81.5c0 34 5.16699 72.5 15.5 115.5s21.833 86.333 34.5 130s24.167 85.334 34.5 125.001s15.5 73.5 15.5 101.5
c0 18.667 -3.33301 33.834 -10 45.501s-19 17.5 -37 17.5c-11.333 0 -23.833 -3.16699 -37.5 -9.5l-42.5 -20.5c-10 -44 -23.167 -91.333 -39.5 -142s-34.5 -101.167 -54.5 -151.5s-41.333 -98.833 -64 -145.5s-45.334 -87.834 -68.001 -123.501s-44.667 -64.167 -66 -85.5
s-41 -32 -59 -32c-20 0 -36.167 5 -48.5 15s-22 23 -29 39s-11.833 33.833 -14.5 53.5s-4 39.5 -4 59.5c0 29.333 2 60.666 6 93.999s9.33301 67 16 101s13.834 67.5 21.501 100.5s15.5 63.5 23.5 91.5c-1.33301 -2.66699 -2.5 -5.33398 -3.5 -8.00098
s-2.16699 -5.33398 -3.5 -8.00098l-1 -1l-28.5 -61c-11 -23.333 -23.5 -47.666 -37.5 -72.999s-29.167 -50.333 -45.5 -75s-33.333 -46.834 -51 -66.501s-35.834 -35.5 -54.501 -47.5s-37.334 -18 -56.001 -18c-30 0 -53 11.167 -69 33.5s-24 54.166 -24 95.499
c0 24.667 3 51 9 79s14.667 55.833 26 83.5s24.833 54.334 40.5 80.001s33.167 48.334 52.5 68.001s40.333 35.334 63 47.001s46.667 17.5 72 17.5c16.667 0 30.834 -5 42.501 -15s21.5 -22 29.5 -36s14.333 -28.833 19 -44.5s8 -29.167 10 -40.5l14.5 35l18.5 45.5
c6 15 11.5 28 16.5 39s8.16699 16.5 9.5 16.5h42c4.66699 0 7 -2.33301 7 -7c-20.667 -72.667 -39.334 -144 -56.001 -214c-7.33301 -30 -14.333 -61 -21 -93s-12.5 -63.667 -17.5 -95s-9.16699 -61.666 -12.5 -90.999s-5 -56 -5 -80c0 -10 0.333008 -21.167 1 -33.5
s2.5 -24 5.5 -35s7.33301 -20.167 13 -27.5s13.5 -11 23.5 -11c14.667 0 31.667 9.83301 51 29.5s39.5 46.167 60.5 79.5s42.333 71.833 64 115.5s42.5 90 62.5 139s38.333 98.833 55 149.5s30.667 99.334 42 146.001c-9.33301 -4 -18.333 -7.33301 -27 -10s-17 -4 -25 -4
h-3c-16 0.666992 -29.667 4.5 -41 11.5s-20.666 16.167 -27.999 27.5s-12.833 24.333 -16.5 39s-5.5 30 -5.5 46c0 20 2.66699 40.5 8 61.5s13.333 40.333 24 58s23.5 32.167 38.5 43.5s32.5 17 52.5 17c12.667 0 23.167 -3.33301 31.5 -10s14.833 -15.167 19.5 -25.5
s7.83398 -22.166 9.50098 -35.499s2.5 -26.333 2.5 -39c0 -43.333 -7 -95 -21 -155c14 6.66699 27.333 12.667 40 18s25 8 37 8h4c33.333 0 56.5 -10.833 69.5 -32.5s19.5 -49.167 19.5 -82.5c0 -34 -4.66699 -72.5 -14 -115.5s-19.666 -86.333 -30.999 -130
s-21.666 -85.667 -30.999 -126s-14 -74.5 -14 -102.5c0 -15.333 2.16699 -29.166 6.5 -41.499s14.166 -19.5 29.499 -21.5h10c17.333 0 33.166 9.33301 47.499 28s27.5 41.834 39.5 69.501s22.667 57.667 32 90s17.5 62.333 24.5 90s12.5 50.834 16.5 69.501s7 28 9 28
c4.66699 0 7 -2.33301 7 -7zM78.999 13.9922c17.333 0 34.832 6.00488 52.499 18.0049s35 27.667 52 47s33.333 41.166 49 65.499s30.167 48.666 43.5 72.999s25.333 47.666 36 69.999l27 57.5l-5 29.5c-2.66699 15.667 -7.5 32 -14.5 49s-16.167 32.333 -27.5 46
s-25.666 20.5 -42.999 20.5c-14.667 0 -30 -6.83301 -46 -20.5s-31.833 -31.834 -47.5 -54.501s-30.667 -48.334 -45 -77.001s-26.833 -58 -37.5 -88s-19.167 -59.5 -25.5 -88.5s-9.5 -54.833 -9.5 -77.5c0 -8 0.5 -16 1.5 -24s3 -15.333 6 -22s6.83301 -12.167 11.5 -16.5
s11 -6.83301 19 -7.5h3zM727.998 492.997c7.33301 32 12.8311 61.667 16.498 89s5.5 52 5.5 74c0 10.667 -0.666992 21.667 -2 33s-3.66602 21.666 -6.99902 30.999s-8.16602 17 -14.499 23s-14.833 9 -25.5 9c-8 0 -16 -5.66699 -24 -17s-15.167 -26.166 -21.5 -44.499
s-11.5 -38.833 -15.5 -61.5s-6 -45 -6 -67c0 -8 0.5 -17 1.5 -27s2.83301 -19.333 5.5 -28s6.5 -16 11.5 -22s11.5 -9 19.5 -9c8.66699 0 17.667 1.66699 27 5s19 7.33301 29 12z" />
    <glyph glyph-name="b_r" unicode="br" horiz-adv-x="982" 
 />
    <glyph glyph-name="c_r" unicode="cr" horiz-adv-x="830" 
 />
    <glyph glyph-name="d_r" unicode="dr" horiz-adv-x="1331" 
 />
    <glyph glyph-name="e_r" unicode="er" horiz-adv-x="841" 
 />
    <glyph glyph-name="f_r" unicode="fr" horiz-adv-x="953" 
 />
    <glyph glyph-name="g_r" unicode="gr" horiz-adv-x="1054" 
 />
    <glyph glyph-name="h_r" unicode="hr" horiz-adv-x="966" 
 />
    <glyph glyph-name="i_r" unicode="ir" horiz-adv-x="772" 
 />
    <glyph glyph-name="j_r" unicode="jr" horiz-adv-x="687" 
 />
    <glyph glyph-name="k_r" unicode="kr" horiz-adv-x="966" 
 />
    <glyph glyph-name="l_r" unicode="lr" horiz-adv-x="966" 
 />
    <glyph glyph-name="m_r" unicode="mr" horiz-adv-x="1362" 
 />
    <glyph glyph-name="n_r" unicode="nr" horiz-adv-x="1072" 
 />
    <glyph glyph-name="o_r" unicode="or" horiz-adv-x="918" 
 />
    <glyph glyph-name="p_r" unicode="pr" horiz-adv-x="945" 
 />
    <glyph glyph-name="q_r" unicode="qr" horiz-adv-x="1010" 
 />
    <glyph glyph-name="r_r" unicode="rr" horiz-adv-x="953" 
 />
    <glyph glyph-name="s_r" unicode="sr" horiz-adv-x="672" 
 />
    <glyph glyph-name="t_r" unicode="tr" horiz-adv-x="955" 
 />
    <glyph glyph-name="u_r" unicode="ur" horiz-adv-x="1063" 
 />
    <glyph glyph-name="v_r" unicode="vr" horiz-adv-x="829" 
 />
    <glyph glyph-name="w_r" unicode="wr" horiz-adv-x="1157" 
 />
    <glyph glyph-name="x_r" unicode="xr" horiz-adv-x="1091" 
 />
    <glyph glyph-name="y_r" unicode="yr" horiz-adv-x="1013" 
 />
    <glyph glyph-name="z_r" unicode="&#x7a;r" horiz-adv-x="867" 
 />
    <glyph glyph-name="B_r" unicode="Br" horiz-adv-x="1489" 
 />
    <glyph glyph-name="E_r" unicode="Er" horiz-adv-x="1240" 
 />
    <glyph glyph-name="H_r" unicode="Hr" horiz-adv-x="1755" 
 />
    <glyph glyph-name="J_r" unicode="Jr" horiz-adv-x="1365" 
 />
    <glyph glyph-name="M_r" unicode="Mr" horiz-adv-x="2834" 
 />
    <glyph glyph-name="N_r" unicode="Nr" horiz-adv-x="2008" 
 />
    <glyph glyph-name="S_r" unicode="Sr" horiz-adv-x="1688" 
 />
    <glyph glyph-name="Z_r" unicode="Zr" horiz-adv-x="1220" 
 />
    <glyph glyph-name="s_t" unicode="st" horiz-adv-x="887" 
d="M906 251c2.66699 -1.33301 4 -3.3252 4 -5.99219v-2c0 -0.666992 -3.33301 -11.167 -10 -31.5l-27 -79.5c-11.333 -32.667 -25.166 -69.834 -41.499 -111.501s-33.833 -84.167 -52.5 -127.5c-104.667 -236 -197.667 -354 -279 -354c-50.667 0 -91 20 -121 60
c-43.333 57.333 -66 153 -68 287l-1 25c0 50.667 2.83301 106.334 8.5 167.001s14.167 126 25.5 196c7.33301 50 15.5 98.333 24.5 145s18.167 90 27.5 130c-34 -62.667 -75.333 -125.334 -124 -188.001l-145 -179c19.333 -22 36.666 -46.167 51.999 -72.5
s23 -56.833 23 -91.5c0 -25.333 -5 -49.333 -15 -72s-24.333 -42.667 -43 -60c-18.667 -16.667 -39.834 -29.5 -63.501 -38.5s-48.5 -13.5 -74.5 -13.5c-47.333 0 -76.333 11.333 -87 34c-3.33301 6.66699 -5 13.667 -5 21c0 14 4.33301 30 13 48s20.5 38 35.5 60
s32.667 45.667 53 71l65.5 80l-10 10.5l-10 10.5l-36 39c-12 13.333 -22.833 27.333 -32.5 42s-17.334 30.5 -23.001 47.5s-8.5 35.5 -8.5 55.5c0 47.333 13.333 85 40 113c12 13.333 26 23.166 42 29.499s33 9.5 51 9.5c28 0 49 -7.33301 63 -22
c12.667 -14 19 -30.667 19 -50c0 -8 -1.16699 -16.333 -3.5 -25s-5.5 -16.334 -9.5 -23.001s-8.83301 -12.167 -14.5 -16.5s-11.5 -6.5 -17.5 -6.5c-4.66699 0 -7 2 -7 6c0 4.66699 2.33301 7 7 7c7.33301 0 14.333 5.83301 21 17.5s10 25.167 10 40.5
c0 5.33301 -0.833008 11.833 -2.5 19.5s-5.5 14.5 -11.5 20.5c-12 12.667 -30 19 -54 19c-5.33301 0 -12.166 -2.33301 -20.499 -7s-16.833 -12.334 -25.5 -23.001s-16 -25 -22 -43s-9 -40 -9 -66c0 -13.333 2.33301 -26 7 -38s10.834 -23.667 18.501 -35
s16.334 -22.5 26.001 -33.5l30.5 -33.5c3.33301 -3.33301 6.5 -6.83301 9.5 -10.5s6.16699 -7.16699 9.5 -10.5l80.5 97.5c27.667 33.667 54.167 67.667 79.5 102s49.166 68.833 71.499 103.5s41.166 69 56.499 103c-10 5.33301 -19.833 10.333 -29.5 15l-28.5 14
c-39.333 19.333 -76.333 36.666 -111 51.999s-67.334 23 -98.001 23c-17.333 0 -33.666 -3 -48.999 -9s-29.666 -15.667 -42.999 -29c-0.666992 -0.666992 -2.33398 -1 -5.00098 -1c-2 0 -3.33301 0.333008 -4 1c-2 2 -3 3.66699 -3 5c0 2 1 3.66699 3 5
c14.667 15.333 30.334 26.166 47.001 32.499s34.334 9.5 53.001 9.5c32.667 0 67.167 -8 103.5 -24s73.833 -33.667 112.5 -53c18.667 -8.66699 37.334 -18 56.001 -28c10.667 46 19.667 82.5 27 109.5s11 40.833 11 41.5v1c0 0.666992 0.333008 1 1 1
c0 0.666992 0.333008 1 1 1v1h1c0 0.666992 0.333008 1 1 1h53c2.66699 0 4.66699 -0.666992 6 -2c0 -0.666992 0.166992 -1.33398 0.5 -2.00098s0.5 -1.33398 0.5 -2.00098v-2c0 -0.666992 -4 -17 -12 -49s-17.667 -74 -29 -126c26 -10.667 52.167 -19.5 78.5 -26.5
s52.5 -10.5 78.5 -10.5c32.667 0 64.834 6.33301 96.501 19s63.167 34.667 94.5 66c1.33301 1.33301 3 2 5 2c0.666992 0 2.33398 -0.666992 5.00098 -2c0.666992 -0.666992 1 -2.33398 1 -5.00098c0 -2 -0.333008 -3.66699 -1 -5c-32.667 -32.667 -65.667 -55.667 -99 -69
s-67 -20 -101 -20c-27.333 0 -54.333 3.5 -81 10.5s-53.334 15.833 -80.001 26.5c-10 -44.667 -20.333 -94.167 -31 -148.5s-20.667 -110.833 -30 -169.5c-12.667 -79.333 -22 -152 -28 -218s-9 -125.667 -9 -179c0 -129.333 18 -217.333 54 -264
c19.333 -25.333 44.666 -38 75.999 -38c37.333 0 78.5 29 123.5 87s92.5 144 142.5 258c18.667 43.333 36.167 85.833 52.5 127.5s30.166 78.834 41.499 111.501l27 79c6.66699 20 10 30.333 10 31c1.33301 2.66699 3.66602 4 6.99902 4h2zM-68 -126.992
c8 -16.667 32.667 -25.002 74 -25.002c11.333 0 25.333 3.16699 42 9.5s33 16.833 49 31.5c12.667 11.333 25 26.666 37 45.999s18 43.333 18 72c0 26.667 -6 50.334 -18 71.001s-26.667 40.667 -44 60l-65 -80c-20 -25.333 -37.333 -48.666 -52 -69.999
c-30 -44 -45 -77 -45 -99c0 -3.33301 0.333008 -6.16602 1 -8.49902s1.66699 -4.83301 3 -7.5z" />
    <glyph glyph-name="t_t" unicode="tt" horiz-adv-x="855" 
 />
    <glyph glyph-name="o_o" unicode="oo" horiz-adv-x="919" 
 />
    <glyph glyph-name="t_h" unicode="th" horiz-adv-x="872" 
 />
    <glyph glyph-name="s_s" unicode="ss" horiz-adv-x="582" 
 />
    <glyph glyph-name="p_p" unicode="pp" horiz-adv-x="953" 
 />
    <glyph glyph-name="g_g" unicode="gg" horiz-adv-x="1260" 
 />
    <glyph glyph-name="m_m" unicode="mm" horiz-adv-x="1862" 
 />
    <glyph glyph-name=".notdef" horiz-adv-x="500" 
d="M49 0v700h402v-700h-402zM427 676h-354v-652h354v652zM218 222c-11.333 29.333 -17 53.3311 -17 71.998c0 24.667 13 60 39 106c26.667 46.667 40 82 40 106c0 18.667 -5.16699 33.334 -15.5 44.001s-25.166 16 -44.499 16c-12 0 -22.5 -2.16699 -31.5 -6.5
s-18.833 -11.166 -29.5 -20.499v22c14.667 13.333 28.667 22.5 42 27.5s27 7.5 41 7.5c29.333 0 53.166 -7.33301 71.499 -22s27.5 -35.667 27.5 -63c0 -16.667 -4 -33.167 -12 -49.5s-21.667 -37.166 -41 -62.499l-49 -64c-11.333 -17.333 -17 -33.333 -17 -48
c0 -6.66699 1 -15.334 3 -26.001s4.66699 -23.667 8 -39h-15zM228 103.998c-3.33301 0 -6.66699 1.66699 -10 5l-30 35c-2 2 -3 4.66699 -3 8c0 4 1.66699 7.66699 5 11l28 28c2.66699 3.33301 6 5 10 5c2 0 5.33301 -1.66699 10 -5l28 -29
c2.66699 -3.33301 4 -6.66602 4 -9.99902c0 -2.66699 -1.66699 -6.33398 -5 -11.001l-27 -30c-4.66699 -4.66699 -8 -7 -10 -7z" />
    <glyph glyph-name="space" unicode=" " horiz-adv-x="508" 
 />
    <glyph glyph-name="space" unicode="&#xa0;" horiz-adv-x="508" 
 />
    <glyph glyph-name="exclam" unicode="!" horiz-adv-x="328" 
d="M108 213c-4.66699 0 -6.99707 2.33594 -6.99707 7.00293c0 13.333 0.833008 35.833 2.5 67.5s4.16699 68.5 7.5 110.5s7.33301 87.833 12 137.5s9.83398 99.167 15.501 148.5s12.167 97 19.5 143s15 86.667 23 122s16.5 63.666 25.5 84.999s18.5 32 28.5 32h41
c3.33301 0 6.16602 -2 8.49902 -6s4.16602 -8.83301 5.49902 -14.5s2.16602 -11.334 2.49902 -17.001s0.5 -10.167 0.5 -13.5c0 -19.333 -2.66699 -45.5 -8 -78.5s-12.333 -70.167 -21 -111.5s-18.5 -85 -29.5 -131l-33.5 -137l-33.5 -130.5l-29.5 -110
c-8.66699 -31.667 -15.834 -56.834 -21.501 -75.501zM90.0029 17.0029c-16.667 0 -30.667 5.66699 -42 17s-17 25.333 -17 42c0 16 5.66699 29.833 17 41.5s25.333 17.5 42 17.5c16 0 29.833 -5.83301 41.5 -17.5s17.5 -25.5 17.5 -41.5
c0 -16.667 -5.83301 -30.667 -17.5 -42s-25.5 -17 -41.5 -17z" />
    <glyph glyph-name="quotedbl" unicode="&#x22;" horiz-adv-x="328" 
d="M39 910c-4.66699 0 -7.00098 2.3291 -7.00098 6.99609s2.33301 7 7 7c2.66699 0 6.16699 2 10.5 6s8.5 8.83301 12.5 14.5s7.5 11.834 10.5 18.501s4.5 12.667 4.5 18c0 3.33301 -0.666992 5.83301 -2 7.5s-4.66602 2.5 -9.99902 2.5c-7.33301 0 -13.166 3 -17.499 9
s-6.5 13.667 -6.5 23c0 11.333 3.5 21.333 10.5 30s16.5 13 28.5 13c13.333 0 23.5 -3.66699 30.5 -11s10.5 -17.666 10.5 -30.999c0 -11.333 -2.5 -23.666 -7.5 -36.999s-11.333 -25.666 -19 -36.999s-16.334 -20.833 -26.001 -28.5s-19.5 -11.5 -29.5 -11.5z
M162.999 909.996c-4 0 -6 2.3291 -6 6.99609s2 7 6 7c2.66699 0 6.16699 2 10.5 6s8.5 8.83301 12.5 14.5s7.5 11.834 10.5 18.501s4.5 12.667 4.5 18c0 6.66699 -3.66699 10 -11 10s-13.333 3 -18 9s-7 13.667 -7 23c0 11.333 3.5 21.333 10.5 30s16.833 13 29.5 13
c13.333 0 23.5 -3.66699 30.5 -11s10.5 -17.666 10.5 -30.999c0 -11.333 -2.5 -23.666 -7.5 -36.999s-11.5 -25.666 -19.5 -36.999s-16.833 -20.833 -26.5 -28.5s-19.5 -11.5 -29.5 -11.5z" />
    <glyph glyph-name="numbersign" unicode="#" horiz-adv-x="707" 
d="M232 304l-22.4883 -93.9971l-19 -82.5c-5.66699 -25 -10 -47 -13 -66s-4.5 -33.833 -4.5 -44.5v-6c0 -1.33301 0.333008 -2.33301 1 -3c0 -4.66699 -2.33301 -7 -7 -7h-30c-4.66699 0 -7 2.33301 -7 7c0 0.666992 1.83301 10.667 5.5 30l14 72.5l18.5 95l19 97.5h-41
c-28.667 0 -51.334 0.333008 -68.001 1s-29.334 1.5 -38.001 2.5s-14.334 2.16699 -17.001 3.5s-4.33398 3 -5.00098 5l-12 40v2c0 4.66699 3.5 7.66699 10.5 9s20.833 2 41.5 2c14 0 32.5 -0.333008 55.5 -1s51.5 -1.66699 85.5 -3
c4.66699 21.333 9.16699 43.166 13.5 65.499s8.83301 44.166 13.5 65.499h-60c-28.667 0 -51.334 0.166992 -68.001 0.5s-29.334 1 -38.001 2s-14.334 2.33301 -17.001 4s-4.33398 3.5 -5.00098 5.5l-12 39v2c0 4.66699 3.5 7.83398 10.5 9.50098s20.833 2.5 41.5 2.5
c15.333 0 35.833 -0.5 61.5 -1.5s58.5 -2.5 98.5 -4.5l10 50.5c4 20.333 8.5 41.666 13.5 63.999l15 66.5c5 22 9.83301 41.833 14.5 59.5s9.16699 32 13.5 43s8.16602 16.5 11.499 16.5h42c1.33301 0 2.33301 -0.333008 3 -1c3.33301 -2 5 -5.66699 5 -11
c0 -6 -1.5 -16.167 -4.5 -30.5l-11 -50.5c-4.33301 -19.333 -9.33301 -39.833 -15 -61.5l-16 -62c-5 -19.667 -9.66699 -37.167 -14 -52.5s-7.16602 -26.333 -8.49902 -33c33.333 -2 67.333 -3.66699 102 -5l101 -4l11.5 56l14 66.5l15 68.5c5 22.667 10 42.834 15 60.501
s9.66699 32 14 43s8.16602 16.5 11.499 16.5h41c1.33301 0 2.66602 -0.333008 3.99902 -1c1.33301 -1.33301 2.33301 -2.66602 3 -3.99902s1 -3.66602 1 -6.99902c0 -6.66699 -1.83301 -18.667 -5.5 -36s-8.66699 -39 -15 -65l-22.5 -89.5l-28 -109.5h23
c25.333 0 45.5 0.5 60.5 1.5s26.5 2.16699 34.5 3.5c9.33301 1.33301 15.666 3 18.999 5c3.33301 0 5.66602 -1.66699 6.99902 -5l8 -28c0.666992 -0.666992 1 -1.33398 1 -2.00098v-1c0 -2 -1 -3.5 -3 -4.5s-8.16699 -1.83301 -18.5 -2.5
s-26.666 -1.33398 -48.999 -2.00098s-53.5 -1.66699 -93.5 -3l-19.5 -76.5l-19.5 -76.5h53c25.333 0 45.5 0.5 60.5 1.5s26.5 2.16699 34.5 3.5c9.33301 1.33301 15.666 3 18.999 5c3.33301 0 5.66602 -1.66699 6.99902 -5l8 -29l1 -2v-1c0 -2 -1.16699 -3.33301 -3.5 -4
s-9.83301 -1.5 -22.5 -2.5s-32 -1.83301 -58 -2.5s-62.667 -2 -110 -4l-23.5 -96c-7.66699 -30.667 -14.167 -58.834 -19.5 -84.501s-9.66602 -48.334 -12.999 -68.001s-5 -34.834 -5 -45.501v-6c0 -1.33301 0.333008 -2.33301 1 -3c0 -4.66699 -2.33301 -7 -7 -7h-30
c-4 0 -6 2.33301 -6 7c0 0.666992 1.83301 10.834 5.5 30.501l14 74l19 97.5l19.5 100c-36 -1.33301 -72.833 -2.5 -110.5 -3.5s-74.5 -1.83301 -110.5 -2.5zM282.012 496.003l-17.501 -66.501l-17.5 -67.5l102.5 -4.5c37.667 -1.66699 74.834 -3.16699 111.501 -4.5
c5.33301 24.667 10.333 49.334 15 74.001s9.66699 49.667 15 75c-34 -1.33301 -68.833 -2.5 -104.5 -3.5s-70.5 -1.83301 -104.5 -2.5z" />
    <glyph glyph-name="dollar" unicode="$" 
d="M150 6c-24.667 6 -46.1729 15.1689 -64.5059 27.502s-33.666 26.333 -45.999 42s-21.666 32 -27.999 49s-9.5 33.167 -9.5 48.5s2.66699 28 8 38s10.333 15 15 15c4 0 6 -2.33301 6 -7c0 -2 -0.666992 -3.33301 -2 -4c-9.33301 -10.667 -14 -24.667 -14 -42
c0 -14 2.83301 -28.667 8.5 -44s14.167 -30.333 25.5 -45s25.5 -27.667 42.5 -39s36.833 -20 59.5 -26l26 225c8.66699 76.667 17.667 151.667 27 225c-19.333 14.667 -38.166 30 -56.499 46s-34.5 33 -48.5 51s-25.333 37.333 -34 58s-13 43.334 -13 68.001
c0 24 4.66699 46.667 14 68s21.833 40.333 37.5 57s33.834 30.667 54.501 42s42.334 19.666 65.001 24.999c6 1.33301 12 2.33301 18 3s12.667 1.33398 20 2.00098c3.33301 19.333 6.16602 34.833 8.49902 46.5s4.5 20.5 6.5 26.5s3.66699 10 5 12s3 3 5 3h42
c1.33301 0 2.33301 -0.333008 3 -1c1.33301 -0.666992 2.5 -1.83398 3.5 -3.50098s1.5 -5.5 1.5 -11.5s-0.666992 -15.167 -2 -27.5s-3.66602 -29.5 -6.99902 -51.5c23.333 -5.33301 43.666 -13.833 60.999 -25.5s31.5 -25.167 42.5 -40.5s19.167 -31.833 24.5 -49.5
s8 -35.167 8 -52.5c0 -16.667 -2 -31.834 -6 -45.501s-8.66699 -25.5 -14 -35.5s-10.666 -17.667 -15.999 -23s-9 -8 -11 -8c-4.66699 0 -7 2.33301 -7 7c0 1.33301 0.666992 2.66602 2 3.99902c26 27.333 39 60.666 39 99.999c0 34 -10.167 65.667 -30.5 95
s-51.833 49.666 -94.5 60.999l-11.5 -77c-4.33301 -28.667 -9.16602 -58.667 -14.499 -90l-16 -97.5l-16 -99.5c22.667 -17.333 45.167 -35.833 67.5 -55.5s42.333 -41.5 60 -65.5s32 -50.833 43 -80.5s16.5 -63.5 16.5 -101.5c0 -28 -6.5 -54.333 -19.5 -79
s-30.5 -46.167 -52.5 -64.5s-48 -32.833 -78 -43.5s-62 -16 -96 -16h-20l-3.5 -37.5c-1 -11 -1.5 -20.167 -1.5 -27.5v-9c0 -1.33301 0.333008 -2.33301 1 -3c0 -4.66699 -2.33301 -7 -7 -7h-30c-4.66699 0 -7 2.33301 -7 7l1.5 13c1 8.66699 2 18.334 3 29.001
s2.16699 20.334 3.5 29.001zM113.994 697.002c0 -31.333 9.49609 -58.665 28.4961 -81.998s42.833 -46.333 71.5 -69l26.5 203.5c7 52.333 13.167 94.166 18.5 125.499c-3.33301 0 -6.5 -0.166992 -9.5 -0.5s-6.16699 -0.833008 -9.5 -1.5
c-20.667 -3.33301 -38.167 -9.83301 -52.5 -19.5s-26.166 -20.834 -35.499 -33.501s-16.666 -26 -21.999 -40s-9.16602 -27 -11.499 -39s-3.66602 -22.167 -3.99902 -30.5s-0.5 -12.833 -0.5 -13.5zM253.99 431.003l-19.5 -118.999l-18 -113l-15.5 -101.5
c-4.66699 -31.667 -8.33398 -59.834 -11.001 -84.501c3.33301 0 6.33301 -0.166992 9 -0.5s5.66699 -0.5 9 -0.5c28 0 53.667 5.16699 77 15.5s43.333 24.833 60 43.5s29.5 41.167 38.5 67.5s13.5 55.5 13.5 87.5c0 22 -3.83301 42.333 -11.5 61s-18.167 36.167 -31.5 52.5
s-28.666 32 -45.999 47s-35.333 29.833 -54 44.5z" />
    <glyph glyph-name="percent" unicode="%" horiz-adv-x="498" 
d="M461 851c5.33301 0 8 -2.66406 8 -7.99707s-5.16699 -20.333 -15.5 -45s-24.166 -55.5 -41.499 -92.5l-58.5 -124.5l-67 -141.5l-67.5 -143.5l-59.5 -130.5c-17.667 -39.667 -32 -73.834 -43 -102.501s-16.833 -48.334 -17.5 -59.001c0 -4 -2.33301 -6 -7 -6h-30
c-4 0 -6 2.33301 -6 7l14.5 36.5l38.5 96.5l55 136l63.5 155l65 155l59 135c17.667 39.333 32.667 71.166 45 95.499s20.166 36.5 23.499 36.5h41zM114 668.003c-16 0 -29.667 5.83301 -41 17.5s-17 25.5 -17 41.5c0 16.667 5.66699 30.667 17 42s25 17 41 17
c16.667 0 30.667 -5.66699 42 -17s17 -25.333 17 -42c0 -16 -5.66699 -29.833 -17 -41.5s-25.333 -17.5 -42 -17.5zM319 152.003c16 0 29.833 -5.83301 41.5 -17.5s17.5 -25.5 17.5 -41.5s-5.83301 -29.833 -17.5 -41.5s-25.5 -17.5 -41.5 -17.5
c-16.667 0 -30.667 5.83301 -42 17.5s-17 25.5 -17 41.5s5.66699 29.833 17 41.5s25.333 17.5 42 17.5z" />
    <glyph glyph-name="ampersand" unicode="&#x26;" horiz-adv-x="783" 
d="M266 -2c-40 0 -75.8281 7.83008 -107.495 23.4971s-58.667 36.667 -81 63s-39.5 57 -51.5 92s-18 71.833 -18 110.5c0 32.667 4.33301 63.667 13 93s21.334 55.833 38.001 79.5s37 44 61 61s51.667 29.167 83 36.5c-30 11.333 -53 29.666 -69 54.999s-24 55 -24 89
c0 30.667 6.16699 61 18.5 91s29.666 57 51.999 81s48.833 43.333 79.5 58s64.334 22 101.001 22c28 0 53 -5.33301 75 -16s40.667 -25 56 -43s27.166 -38.667 35.499 -62s12.5 -47.333 12.5 -72v-9c-1.33301 -6.66699 -4.66602 -10 -9.99902 -10
c-6.66699 0 -10 3.66699 -10 11v3c0 1.33301 0.166992 2.33301 0.5 3s0.5 1.66699 0.5 3c0 22 -3.66699 43.333 -11 64s-18 39 -32 55s-30.833 28.667 -50.5 38s-41.834 14 -66.501 14h-8c-30 -1.33301 -56 -9.66602 -78 -24.999s-40.167 -34.166 -54.5 -56.499
s-25 -46.666 -32 -72.999s-10.5 -50.833 -10.5 -73.5c0 -16 1.66699 -32.167 5 -48.5s9 -31.166 17 -44.499s18.167 -24.166 30.5 -32.499s27.5 -12.5 45.5 -12.5c6.66699 0 10 -3.66699 10 -11c0 -6.66699 -3 -10 -9 -10c-32.667 0 -61.5 -6.83301 -86.5 -20.5
s-45.833 -32.167 -62.5 -55.5s-29.334 -50.5 -38.001 -81.5s-13 -63.833 -13 -98.5c0 -32.667 4 -65.167 12 -97.5s20 -61.166 36 -86.499s35.833 -46 59.5 -62s50.834 -24 81.501 -24c47.333 0 89.833 8.5 127.5 25.5s69.5 39.333 95.5 67s45.833 59.167 59.5 94.5
s20.5 71.666 20.5 108.999c0 21.333 -3.5 41.666 -10.5 60.999s-16.667 36.5 -29 51.5s-26.833 27 -43.5 36s-34.667 14.167 -54 15.5l-8 1c-24.667 0 -45.834 -4.66699 -63.501 -14s-32.334 -21 -44.001 -35s-20.5 -29.333 -26.5 -46s-9.33301 -32.667 -10 -48
c0 -6.66699 -3 -10 -9 -10c-6.66699 0 -10 3.66699 -10 11c0 13.333 2.83301 29.166 8.5 47.499s15 36 28 53s29.833 31.5 50.5 43.5s46 18 76 18h9c20.667 -1.33301 40 -5.83301 58 -13.5s35.167 -17.167 51.5 -28.5s32.166 -23.5 47.499 -36.5
s30.666 -24.833 45.999 -35.5s31.166 -19.667 47.499 -27s33.833 -11 52.5 -11c27.333 0 50.166 5 68.499 15s33.166 21.167 44.499 33.5s19.5 23.666 24.5 33.999l7.5 15.5c2 4.66699 5 7 9 7c6.66699 0 10 -3.66699 10 -11c0 -4.66699 -3.5 -13.167 -10.5 -25.5
s-17.333 -25.166 -31 -38.499s-30.667 -25.166 -51 -35.499s-44.166 -15.5 -71.499 -15.5c-17.333 0 -33.666 2.83301 -48.999 8.5s-30.333 13 -45 22s-28.667 19 -42 30l-40 32.5c9.33301 -15.333 16.5 -31.833 21.5 -49.5s7.5 -35.834 7.5 -54.501
c0 -40.667 -7.5 -80.167 -22.5 -118.5s-36.5 -72.166 -64.5 -101.499s-61.833 -53 -101.5 -71s-84.5 -27 -134.5 -27z" />
    <glyph glyph-name="quotesingle" unicode="'" horiz-adv-x="169" 
d="M43 910c-4.66699 0 -6.99902 2.3291 -6.99902 6.99609s2.33301 7 7 7c2.66699 0 6 2 10 6s8 8.83301 12 14.5s7.5 11.834 10.5 18.501s4.5 12.667 4.5 18c0 6.66699 -3.66699 10 -11 10s-13.166 3 -17.499 9s-6.5 13.667 -6.5 23c0 10.667 3.16699 20.5 9.5 29.5
s16.166 13.5 29.499 13.5s23.5 -3.66699 30.5 -11s10.5 -17.666 10.5 -30.999c0 -11.333 -2.5 -23.666 -7.5 -36.999s-11.333 -25.666 -19 -36.999s-16.334 -20.833 -26.001 -28.5s-19.5 -11.5 -29.5 -11.5z" />
    <glyph glyph-name="parenleft" unicode="(" horiz-adv-x="288" 
d="M310 1066c4.66699 0 7 -2.33594 7 -7.00293s-2.33301 -7 -7 -7c-18.667 0 -37.667 -13.167 -57 -39.5s-38 -61.166 -56 -104.499s-35 -93.333 -51 -150s-29.833 -115.5 -41.5 -176.5s-20.834 -121.833 -27.501 -182.5s-10 -116.667 -10 -168
c0 -16 0.666992 -36.167 2 -60.5s4.5 -47.833 9.5 -70.5s12.167 -42.167 21.5 -58.5s22 -24.5 38 -24.5h1v-13h-31c-21.333 0 -38.333 9.33301 -51 28s-22.334 41.334 -29.001 68.001s-10.834 54.667 -12.501 84s-2.5 55 -2.5 77c0 25.333 1.33301 56.333 4 93
s6.83398 76.334 12.501 119.001s12.667 87 21 133s17.833 90.833 28.5 134.5s22.834 85.167 36.501 124.5s28.334 74 44.001 104s32.667 53.667 51 71s37.833 26 58.5 26h41z" />
    <glyph glyph-name="parenright" unicode=")" horiz-adv-x="314" 
d="M297 809c0 -26 -1.50195 -57.332 -4.50195 -93.999s-7.16699 -76.334 -12.5 -119.001s-12.166 -86.834 -20.499 -132.501s-18 -90.5 -29 -134.5s-23.167 -85.667 -36.5 -125s-28 -73.833 -44 -103.5s-33 -53.167 -51 -70.5s-37.333 -26 -58 -26h-42c-4 0 -6 2.33301 -6 7
c0 4 2 6 6 6c18.667 0 37.834 13.167 57.501 39.5s38.5 61.333 56.5 105s34.833 93.834 50.5 150.501s29.5 115.334 41.5 176.001s21.333 121.334 28 182.001s10 117 10 169c0 16 -0.666992 36.167 -2 60.5s-4.5 47.833 -9.5 70.5s-12.167 42 -21.5 58s-22 24 -38 24h-1v14
h31c21.333 0 38.333 -9.33301 51 -28s22.167 -41.334 28.5 -68.001s10.5 -54.834 12.5 -84.501s3 -55.167 3 -76.5z" />
    <glyph glyph-name="asterisk" unicode="*" horiz-adv-x="387" 
d="M179 868l-34.0049 11.0029c-14 4.66699 -27.667 10.167 -41 16.5s-24.833 13.5 -34.5 21.5s-14.5 16.667 -14.5 26c0 6 2.16699 11.667 6.5 17s10.5 8 18.5 8c7.33301 0 15.5 -2.33301 24.5 -7s18 -10.5 27 -17.5s17.667 -14.667 26 -23l22.5 -22.5
c-3.33301 12 -6.5 26 -9.5 42s-4.5 30.667 -4.5 44c0 12 1.83301 23 5.5 33s11.5 15 23.5 15c11.333 0 18.833 -5 22.5 -15s5.5 -21 5.5 -33c0 -14.667 -1.66699 -30.334 -5 -47.001s-6.66602 -31 -9.99902 -43l23.5 20.5c9 7.66699 18.333 14.834 28 21.501
s19.334 12.167 29.001 16.5s18.167 6.5 25.5 6.5c9.33301 0 16 -2.83301 20 -8.5s6 -11.167 6 -16.5c0 -9.33301 -5 -17.833 -15 -25.5s-22 -14.167 -36 -19.5s-28.333 -9.83301 -43 -13.5s-26.667 -6.5 -36 -8.5c6.66699 -5.33301 14.834 -12.5 24.501 -21.5
s19 -18.5 28 -28.5s16.667 -20.167 23 -30.5s9.5 -19.833 9.5 -28.5c0 -9.33301 -4 -16.333 -12 -21c-3.33301 -2.66699 -7.66602 -4 -12.999 -4c-9.33301 0 -18 4.5 -26 13.5s-15.167 19.667 -21.5 32s-12 25.166 -17 38.499s-8.83301 24.333 -11.5 33l-13.5 -31
c-5.66699 -12.667 -12.167 -24.834 -19.5 -36.501s-15.166 -21.834 -23.499 -30.501s-16.833 -13 -25.5 -13c-6 0 -11.667 2.33301 -17 7s-8 10.667 -8 18c0 8 3.5 17 10.5 27s15.5 19.833 25.5 29.5s20.167 18.667 30.5 27z" />
    <glyph glyph-name="plus" unicode="+" 
d="M405 430c0 -4.66699 -2.33105 -7 -6.99805 -7l-52 2c-15.333 0.666992 -32.833 1.33398 -52.5 2.00098s-39.167 1.66699 -58.5 3l-16.5 -46l-16 -46.5c-5 -15 -9.5 -29.167 -13.5 -42.5s-7 -24.333 -9 -33c-1.33301 -3.33301 -3.66602 -5 -6.99902 -5h-2l-27 6
c-3.33301 1.33301 -5 3.66602 -5 6.99902l3 12c2 8 4.66699 18 8 30l10.5 38.5l10.5 38.5l8.5 30c2.33301 8 3.5 12.333 3.5 13c-30 1.33301 -56.833 2.33301 -80.5 3s-39.5 1 -47.5 1c-4 0 -6 1.66699 -6 5l-12 39v2c0 6 3.83301 9.5 11.5 10.5s15.167 1.5 22.5 1.5
c11.333 0 27.166 -0.833008 47.499 -2.5s46.5 -4.16699 78.5 -7.5l18.5 70l9.5 37c2 8 3.5 12.833 4.5 14.5s2.16699 2.5 3.5 2.5h1l42 3c6 0 9 -4.66699 9 -14c0 -8.66699 -2.5 -22 -7.5 -40s-13.5 -44.333 -25.5 -79c29.333 -3.33301 57.166 -6.33301 83.499 -9
s47.166 -4 62.499 -4c4.66699 0 7 -2.33301 7 -7v-28z" />
    <glyph glyph-name="comma" unicode="," horiz-adv-x="216" 
d="M60 -67c-4.66699 0 -6.99902 2.3291 -6.99902 6.99609c0 4 2.33301 6 7 6c2.66699 0 6 2 10 6s8 9 12 15s7.5 12.333 10.5 19s4.5 12.667 4.5 18c0 6.66699 -3.66699 10 -11 10s-13.166 2.83301 -17.499 8.5s-6.5 13.167 -6.5 22.5c0 11.333 3.16699 21.333 9.5 30
s16.166 13 29.499 13s23.5 -3.66699 30.5 -11s10.5 -17.666 10.5 -30.999c0 -11.333 -2.5 -23.666 -7.5 -36.999s-11.333 -25.666 -19 -36.999s-16.334 -20.666 -26.001 -27.999s-19.5 -11 -29.5 -11z" />
    <glyph glyph-name="hyphen" unicode="-" horiz-adv-x="412" 
d="M9 303l-0.00195312 2c0 6 4 9.5 12 10.5s15.333 1.5 22 1.5c17.333 0 41 -1.5 71 -4.5s61.167 -6.33301 93.5 -10s63.333 -7 93 -10s52.834 -4.5 69.501 -4.5c4.66699 0 7 -2.33301 7 -7v-28c0 -4.66699 -2.33301 -7 -7 -7c-57.333 2 -109.333 4 -156 6
c-20 0.666992 -40.167 1.5 -60.5 2.5s-39 1.83301 -56 2.5s-31.667 1.16699 -44 1.5s-21.166 0.5 -26.499 0.5c-2.66699 0 -4.66699 1.66699 -6 5z" />
    <glyph glyph-name="hyphen" unicode="&#xad;" horiz-adv-x="412" 
d="M9 303l-0.00195312 2c0 6 4 9.5 12 10.5s15.333 1.5 22 1.5c17.333 0 41 -1.5 71 -4.5s61.167 -6.33301 93.5 -10s63.333 -7 93 -10s52.834 -4.5 69.501 -4.5c4.66699 0 7 -2.33301 7 -7v-28c0 -4.66699 -2.33301 -7 -7 -7c-57.333 2 -109.333 4 -156 6
c-20 0.666992 -40.167 1.5 -60.5 2.5s-39 1.83301 -56 2.5s-31.667 1.16699 -44 1.5s-21.166 0.5 -26.499 0.5c-2.66699 0 -4.66699 1.66699 -6 5z" />
    <glyph glyph-name="period" unicode="." horiz-adv-x="241" 
d="M150 51c0 -11.333 -4.16699 -22 -12.5 -32s-19.5 -15 -33.5 -15c-12 0 -21.167 4.33301 -27.5 13s-9.5 18.667 -9.5 30s3.33301 21 10 29s15.667 12 27 12c15.333 0 26.833 -3.66699 34.5 -11s11.5 -16 11.5 -26z" />
    <glyph glyph-name="slash" unicode="/" horiz-adv-x="539" 
d="M31 4c-4.66699 0 -7 2.33398 -7 7.00098l18.5 45.5l49 119.5l69.5 169l80 194l81.5 193.5l73.5 168.5c22 49.333 40.5 89.166 55.5 119.499s24.167 45.5 27.5 45.5h41c4.66699 0 7 -2.66699 7 -8c0 -0.666992 -3 -8.16699 -9 -22.5l-25.5 -58.5l-38.5 -87.5l-48 -109
l-54.5 -123l-57.5 -129.5l-233 -524h-30z" />
    <glyph glyph-name="zero" unicode="0" horiz-adv-x="598" 
d="M311 1066c50.667 0 93.501 -12.665 128.501 -37.998s63.333 -58.333 85 -99s37.167 -86.834 46.5 -138.501s14 -103.5 14 -155.5c0 -39.333 -3 -82.166 -9 -128.499s-15 -92.833 -27 -139.5s-27.333 -91.834 -46 -135.501s-40.334 -82.334 -65.001 -116.001
s-52.834 -60.667 -84.501 -81s-66.5 -30.5 -104.5 -30.5c-31.333 0 -59 7 -83 21s-44.833 33 -62.5 57s-32.5 51.667 -44.5 83s-21.667 64 -29 98s-12.5 68.5 -15.5 103.5s-4.5 68.167 -4.5 99.5c0 46 2.83301 92.5 8.5 139.5s14 92.667 25 137s24.667 86 41 125
s35.5 73 57.5 102s46.833 52.167 74.5 69.5s57.834 26.333 90.501 27h4zM249.001 17.002c32 0 62 8.49805 90 25.498s54 40.333 78 70s45.5 64.334 64.5 104.001s35.333 82.5 49 128.5s24 93.667 31 143s10.5 98.333 10.5 147c0 49.333 -4.33301 98.833 -13 148.5
s-23.167 94.334 -43.5 134.001s-47.166 72 -80.499 97s-74.666 37.5 -123.999 37.5c-28 0 -53.167 -11.5 -75.5 -34.5s-41.833 -53 -58.5 -90s-30.834 -78.5 -42.501 -124.5s-21 -92.167 -28 -138.5s-12.167 -90.5 -15.5 -132.5s-5 -77 -5 -105
c0 -22.667 0.833008 -48.334 2.5 -77.001s4.66699 -58 9 -88s10.166 -59.333 17.499 -88s16.833 -54.5 28.5 -77.5s25.667 -41.667 42 -56s35.833 -22.166 58.5 -23.499h5z" />
    <glyph glyph-name="one" unicode="1" horiz-adv-x="424" 
d="M362 1066c12 0 21.6699 -4.33203 29.0029 -12.999s12.833 -19.334 16.5 -32.001s6 -26.334 7 -41.001s1.5 -28 1.5 -40c0 -32 -2.66699 -69.833 -8 -113.5s-12.333 -90.5 -21 -140.5s-18.667 -101.5 -30 -154.5s-23 -104.667 -35 -155l-35.5 -143.5
c-11.667 -45.333 -22.334 -84.833 -32.001 -118.5s-17.834 -60.5 -24.501 -80.5s-10.667 -30 -12 -30h-68c-4.66699 0 -7 2.33301 -7 7c0 0.666992 3.16699 12.834 9.5 36.501l25.5 95l36 137.5l41.5 163l41.5 172c13.333 58 25.333 112.833 36 164.5
s19.167 98.5 25.5 140.5s9.5 75.333 9.5 100c0 10 -0.5 17.333 -1.5 22s-2.16699 7.66699 -3.5 9l-1 1c-11.333 0 -22 -10.667 -32 -32s-21 -48 -33 -80l-40.5 -104c-15 -37.333 -33.167 -72 -54.5 -104s-46.5 -58.667 -75.5 -80s-63.167 -32 -102.5 -32
c-4.66699 0 -7 2.33301 -7 7c0 4 2.33301 6 7 6c38 0 70.833 10.667 98.5 32s51.667 48 72 80s37.833 66.833 52.5 104.5l40.5 104.5c12.333 32 24.166 58.667 35.499 80s24.333 32 39 32z" />
    <glyph glyph-name="two" unicode="2" horiz-adv-x="614" 
d="M368 70c-21.333 0 -42.999 -3.5 -64.999 -10.5l-70 -22.5c-24.667 -8 -50.667 -15.5 -78 -22.5s-57.333 -10.5 -90 -10.5h-52c-4.66699 0 -7 2.33301 -7 7c0 44 7.66699 85.167 23 123.5s35.666 74.666 60.999 108.999s54.166 67.166 86.499 98.499l98.5 92l98.5 89
c32.333 29.333 61.166 59.333 86.499 90s45.666 62.167 60.999 94.5s23 66.833 23 103.5c0 40.667 -6.16699 76 -18.5 106s-28.5 55 -48.5 75s-42.5 34.833 -67.5 44.5s-50.5 14.834 -76.5 15.501h-5c-27.333 0 -54.5 -7 -81.5 -21s-51.5 -32.667 -73.5 -56
s-39.833 -50.833 -53.5 -82.5s-20.5 -64.834 -20.5 -99.501c0 -4.66699 -2.33301 -7 -7 -7s-7 2.33301 -7 7c0 36.667 7.33301 71.667 22 105s33.5 62.333 56.5 87s49 44.334 78 59.001s57.833 22 86.5 22c46.667 0 87.167 -7 121.5 -21s62.833 -33.667 85.5 -59
s39.667 -55.833 51 -91.5s17 -75.167 17 -118.5c0 -37.333 -7.5 -72.5 -22.5 -105.5s-34.833 -65 -59.5 -96s-52.667 -61 -84 -90l-96.5 -87l-97 -87.5c-31.667 -29.333 -60 -59.5 -85 -90.5s-45.5 -63.167 -61.5 -96.5s-24.333 -68.666 -25 -105.999
c30.667 0.666992 59.334 4.5 86.001 11.5s51.834 14.667 75.501 23s46.5 15.833 68.5 22.5s44 10 66 10c20 0 38.833 -3.5 56.5 -10.5s33 -14.833 46 -23.5s23.167 -17 30.5 -25s11 -12.667 11 -14c0 -4.66699 -2.33301 -7 -7 -7c-2 0 -3.66699 0.666992 -5 2
c-24 24 -46.667 40.667 -68 50s-42.666 14 -63.999 14z" />
    <glyph glyph-name="three" unicode="3" horiz-adv-x="622" 
d="M613 328c0 -43.333 -7.3418 -84.501 -22.0088 -123.501s-35.5 -73.333 -62.5 -103s-59.667 -53.334 -98 -71.001s-81.5 -26.5 -129.5 -26.5c-51.333 0 -96.166 6.83301 -134.499 20.5s-70.166 32.334 -95.499 56.001s-44.166 51.334 -56.499 83.001
s-18.5 65.5 -18.5 101.5c0 4 2 6 6 6c4.66699 0 7 -2 7 -6c0 -30 5.16699 -59.833 15.5 -89.5s27 -56.167 50 -79.5s53 -42.333 90 -57s82.5 -22 136.5 -22c38.667 0 72.834 9.16699 102.501 27.5s54.5 42.5 74.5 72.5s35.167 63.667 45.5 101s15.5 75 15.5 113
c0 39.333 -5.33301 76.5 -16 111.5s-26.167 65.5 -46.5 91.5s-45.666 46.5 -75.999 61.5s-65.166 22.5 -104.499 22.5c-4.66699 0 -7 2 -7 6c0 4.66699 2.33301 7 7 7c29.333 0 56.5 8.16699 81.5 24.5s46.5 37.166 64.5 62.499s32 53.5 42 84.5s15 61.5 15 91.5
c0 48 -12.667 86.333 -38 115s-62.666 43 -111.999 43c-33.333 0 -63.166 -6.33301 -89.499 -19s-48.666 -28.834 -66.999 -48.501s-32.333 -41.834 -42 -66.501s-14.5 -49 -14.5 -73c0 -4.66699 -2 -7 -6 -7c-4.66699 0 -7 2.33301 -7 7c0 26.667 5.33301 53.334 16 80.001
s26 50.334 46 71.001s43.833 37.5 71.5 50.5s58.5 19.5 92.5 19.5c34.667 0 65.334 -5.16699 92.001 -15.5s49.167 -24.5 67.5 -42.5s32.333 -39.167 42 -63.5s14.5 -50.5 14.5 -78.5c0 -26 -4.33301 -51.667 -13 -77s-21.334 -49 -38.001 -71
s-37.334 -41.167 -62.001 -57.5s-53 -28.166 -85 -35.499c38.667 -6.66699 73.334 -19 104.001 -37s56.5 -40 77.5 -66s37 -55.667 48 -89s16.5 -68.333 16.5 -105z" />
    <glyph glyph-name="four" unicode="4" 
d="M581 750c4.66699 0 7 -2.33398 7 -7.00098s-2.33301 -7 -7 -7c-3.33301 0 -8.16602 -3.16699 -14.499 -9.5s-13.666 -20.666 -21.999 -42.999s-17.5 -54.833 -27.5 -97.5s-20.333 -100.334 -31 -173.001l11.5 -5.5c5 -2.33301 9.83301 -4.83301 14.5 -7.5
s8.66699 -5.5 12 -8.5s5 -5.83301 5 -8.5c0 -4 -2.33301 -6 -7 -6c-2.66699 0 -4.33398 0.666992 -5.00098 2c-9.33301 8.66699 -20.333 15.334 -33 20.001c-8.66699 -60 -15.667 -111.5 -21 -154.5s-9.5 -79.167 -12.5 -108.5s-5 -52.666 -6 -69.999
s-1.83301 -30.666 -2.5 -39.999s-1.66699 -15.333 -3 -18s-3.33301 -4 -6 -4h-65c-4.66699 0 -7 2.33301 -7 7c0 0.666992 1.66699 13.5 5 38.5s8.16602 56.667 14.499 95l22 128c8.33301 47 17.5 93.167 27.5 138.5c-6 0.666992 -12.167 1.16699 -18.5 1.5
s-12.833 0.5 -19.5 0.5c-22.667 0 -46.5 -1.5 -71.5 -4.5s-49.833 -6.66699 -74.5 -11s-48.667 -9.33301 -72 -15s-45 -11.167 -65 -16.5c-34 -18 -66 -27 -96 -27c-4.66699 0 -7 2 -7 6v2c0.666992 0 1 0.333008 1 1v1c0.666992 1.33301 2.5 2.5 5.5 3.5
s12.5 3.83301 28.5 8.5c18 9.33301 39.333 25 64 47s50.167 48.167 76.5 78.5s52.5 63.666 78.5 99.999s49.167 73.833 69.5 112.5s36.833 77.334 49.5 116.001s19 75.334 19 110.001c0 23.333 -3.33301 45.5 -10 66.5s-18 40.167 -34 57.5
c-4.66699 5.33301 -7 8.66602 -7 9.99902c0 4.66699 2.33301 7 7 7c2.66699 0 7.83398 -4 15.501 -12s15.667 -19.5 24 -34.5s15.666 -33.333 21.999 -55s9.5 -46.5 9.5 -74.5c0 -44.667 -8 -91.167 -24 -139.5s-37 -95 -63 -140s-55.667 -86.833 -89 -125.5
s-67.333 -70.334 -102 -95.001c38 9.33301 78.5 17.666 121.5 24.999s83.833 11 122.5 11c7.33301 0 14.5 -0.166992 21.5 -0.5s13.833 -0.833008 20.5 -1.5c48.667 217.333 98 326 148 326z" />
    <glyph glyph-name="five" unicode="5" horiz-adv-x="547" 
d="M243 19c-31.333 0 -58.667 5.99902 -82 17.999s-43.5 27 -60.5 45s-31 37.667 -42 59s-19.667 41.5 -26 60.5s-10.833 35.333 -13.5 49s-4 21.834 -4 24.501c0 4 2.33301 6 7 6c4 0 6 -2 6 -6c3.33301 -26 10.166 -53.167 20.499 -81.5s24.333 -54.333 42 -78
s39.167 -43.334 64.5 -59.001s54.666 -23.5 87.999 -23.5h7c39.333 0.666992 72.833 9.83398 100.5 27.501s50.334 40.834 68.001 69.501s30.5 61.5 38.5 98.5s12 75.167 12 114.5c0 20.667 -1.5 44 -4.5 70s-7.83301 52.167 -14.5 78.5s-14.834 52.166 -24.501 77.499
s-21 47.666 -34 66.999s-28 35 -45 47s-35.5 18 -55.5 18c-21.333 0 -41.666 -5.33301 -60.999 -16s-36.333 -24.334 -51 -41.001s-26.334 -34.667 -35.001 -54s-13 -37.666 -13 -54.999v-3l-3 -3h-1l-1 -1h-2c-7.33301 0 -13.333 2 -18 6s-8.16699 9.16699 -10.5 15.5
s-4 13.333 -5 21s-1.5 15.167 -1.5 22.5c0 22 2.66699 48.667 8 80s12 63.5 20 96.5s16.333 65 25 96l22 79.5l-45 -10c-8 -2 -15.667 -3.66699 -23 -5c-4.66699 0 -7 2.33301 -7 7c0 1.33301 0.5 2.5 1.5 3.5s4 2.66699 9 5s13 5.33301 24 9l46.5 15.5
c3.33301 12 5.83301 21.333 7.5 28s3 11.5 4 14.5s2 5 3 6s2.16699 1.5 3.5 1.5l53 9h2c4 0 6 -2.33301 6 -7v-1c0 -0.666992 -0.5 -2.5 -1.5 -5.5l-8.5 -24.5c34.667 9.33301 71.334 17.833 110.001 25.5s75 11.5 109 11.5c18 0 35 -1.33301 51 -4s30.167 -7.5 42.5 -14.5
s22.166 -16.333 29.499 -28s11 -26.5 11 -44.5c0 -4.66699 -2.33301 -7 -7 -7s-7 2.33301 -7 7c0 10.667 -4.16699 19 -12.5 25s-18.666 10.667 -30.999 14s-25.333 5.5 -39 6.5s-25.834 1.5 -36.501 1.5c-36 0 -74.667 -2.66699 -116 -8s-79.666 -11.333 -114.999 -18
l-16.5 -50l-22.5 -68.5l-24 -78.5c-8 -27.333 -15.167 -53.5 -21.5 -78.5s-11.666 -48.167 -15.999 -69.5s-6.5 -38.666 -6.5 -51.999c3.33301 17.333 10 35 20 53s22.5 34.5 37.5 49.5s32 27.333 51 37s39.5 14.5 61.5 14.5c41.333 0 77.5 -9.5 108.5 -28.5
s56.833 -44 77.5 -75s36.167 -66.333 46.5 -106s15.5 -80.167 15.5 -121.5c0 -48 -6.5 -94 -19.5 -138s-32 -82.833 -57 -116.5s-55.833 -60.5 -92.5 -80.5s-79 -30 -127 -30z" />
    <glyph glyph-name="six" unicode="6" horiz-adv-x="559" 
d="M552 318c0 -41.333 -6.66797 -81.0039 -20.001 -119.004s-32.5 -71.5 -57.5 -100.5s-55.5 -52 -91.5 -69s-76.333 -25.5 -121 -25.5c-42 0 -78.333 7.33301 -109 22s-56.167 34.834 -76.5 60.501s-36.166 56.167 -47.499 91.5s-18.333 74 -21 116
c-0.666992 3.33301 -1 7.33301 -1 12v30c0 51.333 5.33301 105 16 161s25.5 111.167 44.5 165.5s41.5 105.833 67.5 154.5s54.667 91.5 86 128.5s64.5 66.333 99.5 88s70.833 32.5 107.5 32.5c2 0 3.66699 -0.666992 5 -2c4 0.666992 8.16699 1.16699 12.5 1.5
s8.83301 0.5 13.5 0.5s7 -2.33301 7 -7s-2.33301 -7 -7 -7c-27.333 0 -54.5 -7.5 -81.5 -22.5s-52.833 -35.5 -77.5 -61.5s-48.167 -56.833 -70.5 -92.5s-42.833 -74.167 -61.5 -115.5s-35 -84.666 -49 -129.999s-25.333 -90.666 -34 -135.999
c28.667 33.333 62.167 57.333 100.5 72s79.5 22 123.5 22c38.667 0 73 -7.16699 103 -21.5s55.333 -33.666 76 -57.999s36.5 -53 47.5 -86s16.5 -67.833 16.5 -104.5zM66.999 314.996c0 -37.333 3.16602 -73.832 9.49902 -109.499s17 -67.5 32 -95.5s35 -50.5 60 -67.5
s56.167 -25.5 93.5 -25.5c45.333 0 85.166 8.66699 119.499 26s63.166 40.166 86.499 68.499s40.833 60.5 52.5 96.5s17.5 72.667 17.5 110c0 35.333 -5.16699 68.5 -15.5 99.5s-25.166 58.167 -44.499 81.5s-43.166 41.666 -71.499 54.999s-60.833 20 -97.5 20
c-101.333 0 -177.666 -36.333 -228.999 -109c-4 -26 -7.16699 -51.667 -9.5 -77s-3.5 -49.666 -3.5 -72.999z" />
    <glyph glyph-name="seven" unicode="7" 
d="M695 1054c-39.333 -37.333 -81.666 -80.9971 -126.999 -130.997s-90.5 -104 -135.5 -162s-88.333 -118.833 -130 -182.5s-78.5 -127.834 -110.5 -192.501s-57.5 -128.834 -76.5 -192.501s-28.5 -124.5 -28.5 -182.5c0 -4.66699 -2.33301 -7 -7 -7h-65
c-4.66699 0 -7 2.33301 -7 7c0 62 9.66699 125.167 29 189.5s45.5 128.333 78.5 192s71.333 126 115 187s89.834 119.5 138.501 175.5s98.5 108.833 149.5 158.5s100.167 94.5 147.5 134.5c-30.667 -6 -64.334 -11.833 -101.001 -17.5s-74 -10.834 -112 -15.501
s-75.333 -8.5 -112 -11.5s-70.667 -4.5 -102 -4.5c-14 0 -30.667 0.5 -50 1.5s-37.5 3.5 -54.5 7.5s-31.5 10 -43.5 18s-18 19 -18 33c0 4.66699 2.33301 7 7 7s7 -2.33301 7 -7c0 -11.333 5.83301 -20 17.5 -26s25.5 -10.667 41.5 -14s32.5 -5.33301 49.5 -6
s31.167 -1 42.5 -1c32 0 67.667 1.66699 107 5s79.166 7.5 119.499 12.5s79.833 10.833 118.5 17.5l106 19h3c0.666992 0 1 -0.166992 1 -0.5s0.333008 -0.5 1 -0.5c2 -1.33301 3 -3.33301 3 -6c0 -2 -0.666992 -3.66699 -2 -5z" />
    <glyph glyph-name="eight" unicode="8" horiz-adv-x="535" 
d="M324 488c23.333 0 44.9961 7.33398 64.9961 22.001s38 34.334 54 59.001c-40.667 -6.66699 -77.5 -15.334 -110.5 -26.001s-62.5 -22.334 -88.5 -35.001c20.667 -37.333 42.334 -74.166 65.001 -110.499s43.334 -71.333 62.001 -105s34 -65.334 46 -95.001
s18 -56.5 18 -80.5s-6.16699 -43.5 -18.5 -58.5s-28.166 -26.5 -47.499 -34.5s-41.333 -13.333 -66 -16s-49 -4 -73 -4c-33.333 0 -64.333 4.33301 -93 13s-53.5 21.334 -74.5 38.001s-37.333 37.167 -49 61.5s-17.5 52.5 -17.5 84.5c0 28.667 4.83301 56.5 14.5 83.5
s22.834 52.833 39.501 77.5s36 47.5 58 68.5s45.333 39.5 70 55.5c-24.667 48 -45.834 95.667 -63.501 143s-26.5 92 -26.5 134c0 44.667 6 85.5 18 122.5s29.833 68.833 53.5 95.5s52.834 47.5 87.501 62.5s75 22.5 121 22.5c28.667 0 53.167 -6.83301 73.5 -20.5
s36.666 -31.834 48.999 -54.501s21.333 -48.167 27 -76.5s8.5 -56.833 8.5 -85.5c0 -40 -4.83301 -81.5 -14.5 -124.5s-23.834 -82.167 -42.501 -117.5c19.333 2 39.333 3.66699 60 5s42.334 2 65.001 2c4 0 6 -2.33301 6 -7s-2 -7 -6 -7c-24.667 0 -48 -0.666992 -70 -2
s-43.333 -3.33301 -64 -6c-18.667 -32 -39.667 -56.333 -63 -73s-47.666 -25 -72.999 -25c-4.66699 0 -7 2.33301 -7 7s2.33301 7 7 7zM355.996 97.001c0 22 -5.3291 47.166 -15.9961 75.499s-24.334 58.833 -41.001 91.5s-35.167 66.834 -55.5 102.501l-58.5 107.5
c-24 -15.333 -46.667 -33 -68 -53s-40 -41.833 -56 -65.5s-28.667 -48.5 -38 -74.5s-14 -52.667 -14 -80c0 -28 5.16699 -53.333 15.5 -76s25.166 -42 44.499 -58s42.666 -28.333 69.999 -37s57.666 -13 90.999 -13c16.667 0 32.5 1 47.5 3s28.333 6 40 12
s21 14.167 28 24.5s10.5 23.833 10.5 40.5zM238 520c28 13.333 59.668 25.6689 95.001 37.002s75 20.333 119 27c19.333 34 34.166 72.5 44.499 115.5s15.5 86.167 15.5 129.5c0 26.667 -2.5 53.334 -7.5 80.001s-13 50.667 -24 72s-25.833 38.5 -44.5 51.5
s-41.334 19.5 -68.001 19.5c-34 0 -63 -5.33301 -87 -16s-44.167 -24.334 -60.5 -41.001s-29.166 -35.334 -38.499 -56.001s-16.5 -41.167 -21.5 -61.5s-8.16699 -39.333 -9.5 -57s-2 -31.834 -2 -42.501c0 -39.333 8.5 -81 25.5 -125s38.167 -88.333 63.5 -133z" />
    <glyph glyph-name="nine" unicode="9" horiz-adv-x="543" 
d="M243 482c-38.667 0 -73 7.16797 -103 21.501s-55.333 33.666 -76 57.999s-36.5 52.833 -47.5 85.5s-16.5 67.667 -16.5 105c0 41.333 6.66699 81 20 119s32.5 71.5 57.5 100.5s55.333 52 91 69s76.167 25.5 121.5 25.5c42 0 78.333 -7.33301 109 -22
s56.334 -35 77.001 -61s36.5 -56.667 47.5 -92s17.833 -73.666 20.5 -114.999v-1v-12c0 -4 0.166992 -8.5 0.5 -13.5s0.5 -10.5 0.5 -16.5c0 -51.333 -5.33301 -105 -16 -161s-25.5 -111 -44.5 -165s-41.5 -105.333 -67.5 -154s-54.667 -91.5 -86 -128.5
s-64.5 -66.333 -99.5 -88s-70.833 -32.5 -107.5 -32.5c-2.66699 0 -4.33398 0.666992 -5.00098 2c-4 -1.33301 -8.16699 -2 -12.5 -2h-13.5c-4.66699 0 -7 2.33301 -7 7c0 4 2.33301 6 7 6c27.333 0 54.5 7.5 81.5 22.5s52.833 35.5 77.5 61.5s48.167 56.833 70.5 92.5
s42.833 74.167 61.5 115.5s35 84.666 49 129.999s25.333 91 34 137c-28.667 -34 -62.167 -58.167 -100.5 -72.5s-79.5 -21.5 -123.5 -21.5zM290 1052c-45.333 0 -85.168 -8.66797 -119.501 -26.001s-63.166 -40 -86.499 -68s-40.833 -60 -52.5 -96s-17.5 -72.667 -17.5 -110
c0 -35.333 5 -68.5 15 -99.5s24.833 -58.167 44.5 -81.5s43.667 -41.666 72 -54.999s60.833 -20 97.5 -20c102 0 178.333 36.333 229 109c4 26 7.16699 51.667 9.5 77s3.5 49.666 3.5 72.999c0 37.333 -3.16699 73.833 -9.5 109.5s-17 67.334 -32 95.001s-35 50 -60 67
s-56.167 25.5 -93.5 25.5z" />
    <glyph glyph-name="colon" unicode=":" horiz-adv-x="0" 
d="M109 88c15.333 0 26.666 -3.66699 33.999 -11s11 -16 11 -26c0 -11.333 -4.16699 -22 -12.5 -32s-19.166 -15 -32.499 -15c-12.667 0 -22.167 4.33301 -28.5 13s-9.5 18.667 -9.5 30s3.33301 21 10 29s16 12 28 12zM131 321c15.333 0 26.833 -3.66699 34.5 -11
s11.5 -16 11.5 -26c0 -11.333 -4.33301 -22 -13 -32s-19.667 -15 -33 -15c-12.667 0 -22.167 4.33301 -28.5 13s-9.5 18.667 -9.5 30s3.5 21 10.5 29s16.167 12 27.5 12z" />
    <glyph glyph-name="semicolon" unicode=";" horiz-adv-x="272" 
d="M78 -67c-4.66699 0 -7.00098 2.3291 -7.00098 6.99609c0 4 2.33301 6 7 6c2.66699 0 6.16699 2 10.5 6s8.5 9 12.5 15s7.5 12.333 10.5 19s4.5 12.667 4.5 18c0 3.33301 -0.666992 5.83301 -2 7.5s-4.66602 2.5 -9.99902 2.5c-7.33301 0 -13.166 2.83301 -17.499 8.5
s-6.5 13.167 -6.5 22.5c0 11.333 3.5 21.333 10.5 30s16.5 13 28.5 13c13.333 0 23.5 -3.66699 30.5 -11s10.5 -17.666 10.5 -30.999c0 -11.333 -2.5 -23.666 -7.5 -36.999s-11.333 -25.666 -19 -36.999s-16.334 -20.666 -26.001 -27.999s-19.5 -11 -29.5 -11z
M149.999 236.996c-12.667 0 -22.167 4.33301 -28.5 13s-9.5 18.667 -9.5 30s3.33301 21 10 29s16 12 28 12c15.333 0 26.666 -3.66699 33.999 -11s11 -16 11 -26c0 -11.333 -4.16699 -22 -12.5 -32s-19.166 -15 -32.499 -15z" />
    <glyph glyph-name="semicolon" unicode="&#x37e;" horiz-adv-x="272" 
d="M78 -67c-4.66699 0 -7.00098 2.3291 -7.00098 6.99609c0 4 2.33301 6 7 6c2.66699 0 6.16699 2 10.5 6s8.5 9 12.5 15s7.5 12.333 10.5 19s4.5 12.667 4.5 18c0 3.33301 -0.666992 5.83301 -2 7.5s-4.66602 2.5 -9.99902 2.5c-7.33301 0 -13.166 2.83301 -17.499 8.5
s-6.5 13.167 -6.5 22.5c0 11.333 3.5 21.333 10.5 30s16.5 13 28.5 13c13.333 0 23.5 -3.66699 30.5 -11s10.5 -17.666 10.5 -30.999c0 -11.333 -2.5 -23.666 -7.5 -36.999s-11.333 -25.666 -19 -36.999s-16.334 -20.666 -26.001 -27.999s-19.5 -11 -29.5 -11z
M149.999 236.996c-12.667 0 -22.167 4.33301 -28.5 13s-9.5 18.667 -9.5 30s3.33301 21 10 29s16 12 28 12c15.333 0 26.666 -3.66699 33.999 -11s11 -16 11 -26c0 -11.333 -4.16699 -22 -12.5 -32s-19.166 -15 -32.499 -15z" />
    <glyph glyph-name="less" unicode="&#x3c;" horiz-adv-x="411" 
d="M250 122c-10 0 -22.335 5.66602 -37.002 16.999s-30.334 25.833 -47.001 43.5s-33.167 37.5 -49.5 59.5s-31.166 43.833 -44.499 65.5s-24.166 42.167 -32.499 61.5s-12.5 35 -12.5 47c0 8 6.5 21.667 19.5 41s30.167 41.333 51.5 66s45.5 50.167 72.5 76.5
s54.333 50.5 82 72.5s54.5 40 80.5 54s48.667 21 68 21c4.66699 0 7 -2.33301 7 -7c0 -1.33301 -7.83301 -7.83301 -23.5 -19.5s-35 -27 -58 -46l-75.5 -64c-27.333 -23.667 -52.5 -47.834 -75.5 -72.501s-42.333 -49.167 -58 -73.5s-23.5 -46.166 -23.5 -65.499
c0 -8.66699 3 -21.334 9 -38.001s13.667 -34.667 23 -54s19.833 -39.166 31.5 -59.499s23.334 -38.666 35.001 -54.999s22.5 -29.833 32.5 -40.5s18.333 -16 25 -16c4.66699 0 7 -2.33301 7 -7s-2.33301 -7 -7 -7z" />
    <glyph glyph-name="equal" unicode="=" 
d="M34 501c-0.666992 0.666992 -1.00293 1.33398 -1.00293 2.00098c0 7.33301 5.83301 11.666 17.5 12.999s24.834 2 39.501 2c18.667 0 40.5 -0.666992 65.5 -2l77 -4l76 -4c24.333 -1.33301 45.5 -2 63.5 -2h17c2.66699 0 4.66699 0.333008 6 1c4.66699 0 7 -2.33301 7 -7
l2 -28c0 -3.33301 -2.5 -5.66602 -7.5 -6.99902s-14.167 -2 -27.5 -2c-11.333 0 -25.666 0.166992 -42.999 0.5s-39 0.5 -65 0.5c-25.333 0 -55.166 -0.333008 -89.499 -1s-73.5 -2.33398 -117.5 -5.00098c-2.66699 0 -4.66699 1.33301 -6 4zM395.997 390
c2.66699 0 4.66406 0.332031 5.99707 0.999023c4.66699 0 7 -2.33301 7 -7l2 -28c0 -3.33301 -2.66699 -5.66602 -8 -6.99902s-14.666 -2 -27.999 -2c-10.667 0 -23.834 0.166992 -39.501 0.5s-35.167 0.5 -58.5 0.5c-26 0 -56.667 -0.333008 -92 -1
s-76.666 -2.66699 -123.999 -6c-3.33301 0 -5.66602 1.66699 -6.99902 5l-14 39v2c0 7.33301 5.83301 11.5 17.5 12.5s24.834 1.5 39.501 1.5c18.667 0 40.5 -0.5 65.5 -1.5s50.667 -2.33301 77 -4s51.833 -3 76.5 -4s45.667 -1.5 63 -1.5h17z" />
    <glyph glyph-name="greater" unicode="&#x3e;" horiz-adv-x="398" 
d="M15 122c-4.66699 0 -6.99902 2.33496 -6.99902 7.00195c0 1.33301 7.83301 7.83301 23.5 19.5s35 27 58 46l75.5 64c27.333 23.667 52.5 47.834 75.5 72.501s42.333 49.167 58 73.5s23.5 46.166 23.5 65.499c0 8.66699 -3 21.334 -9 38.001s-13.667 34.667 -23 54
s-19.833 39.166 -31.5 59.499s-23.334 38.666 -35.001 54.999s-22.5 29.833 -32.5 40.5s-18.333 16 -25 16c-4.66699 0 -7 2.33301 -7 7s2.33301 7 7 7c10 0 22.5 -5.5 37.5 -16.5s30.667 -25.5 47 -43.5s32.833 -37.833 49.5 -59.5s31.5 -43.5 44.5 -65.5
s23.667 -42.5 32 -61.5s12.5 -34.5 12.5 -46.5c0 -8 -6.5 -21.833 -19.5 -41.5s-30.167 -41.834 -51.5 -66.501s-45.5 -50.167 -72.5 -76.5s-54.333 -50.5 -82 -72.5s-54.5 -40 -80.5 -54s-48.667 -21 -68 -21z" />
    <glyph glyph-name="question" unicode="?" horiz-adv-x="560" 
d="M54 76c0 16 5.83301 29.833 17.5 41.5s25.5 17.5 41.5 17.5c16.667 0 30.667 -5.83301 42 -17.5s17 -25.5 17 -41.5c0 -16.667 -5.66699 -30.667 -17 -42s-25.333 -17 -42 -17c-16 0 -29.833 5.66699 -41.5 17s-17.5 25.333 -17.5 42zM55 695
c-2.66699 0 -6.83008 2.99902 -12.4971 8.99902s-11.5 14.5 -17.5 25.5s-11.167 23.833 -15.5 38.5s-6.5 31 -6.5 49c0 29.333 6.33301 58.833 19 88.5s30.834 56.334 54.501 80.001s52.167 43 85.5 58s71 22.5 113 22.5c89.333 0 159.166 -22.833 209.499 -68.5
s75.5 -109.5 75.5 -191.5c0 -42.667 -10.833 -79.834 -32.5 -111.501s-48.834 -61 -81.501 -88s-68 -52.833 -106 -77.5s-73.333 -50.667 -106 -78s-59.834 -57.666 -81.501 -90.999s-32.5 -72 -32.5 -116c0 -4.66699 -2.33301 -7 -7 -7s-7 2.33301 -7 7
c0 58.667 9.66699 108.5 29 149.5s43.666 76.667 72.999 107s60.833 57.5 94.5 81.5s65.167 48.333 94.5 73s53.666 51.334 72.999 80.001s29 63 29 103c0 30.667 -5.66699 59 -17 85s-27 48.5 -47 67.5s-43.667 34 -71 45s-57 16.5 -89 16.5c-39.333 0 -75 -7 -107 -21
s-59.167 -32.333 -81.5 -55s-39.666 -47.834 -51.999 -75.501s-18.5 -55.5 -18.5 -83.5c0 -44 14.667 -80.667 44 -110c1.33301 -1.33301 2 -3 2 -5c0 -4.66699 -2.33301 -7 -7 -7z" />
    <glyph glyph-name="at" unicode="@" horiz-adv-x="855" 
d="M361 -211c-54 0 -102.499 10.4961 -145.499 31.4961s-79.5 49.5 -109.5 85.5s-52.833 77.667 -68.5 125s-23.5 97 -23.5 149c0 60.667 10.333 118.167 31 172.5s50.667 101.833 90 142.5s87.333 72.834 144 96.501s121.334 35.5 194.001 35.5
c53.333 0 100.333 -7.33301 141 -22s74.667 -35.167 102 -61.5s47.833 -57.666 61.5 -93.999s20.5 -76.166 20.5 -119.499c0 -35.333 -5.16699 -72 -15.5 -110s-25 -72.833 -44 -104.5s-42.167 -57.834 -69.5 -78.501s-57.666 -31 -90.999 -31
c-17.333 0 -31.5 3.33301 -42.5 10s-20 15.834 -27 27.501s-11.833 25 -14.5 40s-4 31.167 -4 48.5v18.5c0 6.33301 0.333008 12.833 1 19.5c-10 -21.333 -21.333 -41.833 -34 -61.5s-27 -37 -43 -52s-33.833 -27.167 -53.5 -36.5s-41.167 -14 -64.5 -14
c-21.333 0 -39.666 4.33301 -54.999 13s-28 20.5 -38 35.5s-17.333 32.167 -22 51.5s-7 39.666 -7 60.999c0 35.333 5.66699 70.5 17 105.5s27.5 66.5 48.5 94.5s46.167 50.667 75.5 68s62.333 26 99 26c31.333 0 56.666 -10.333 75.999 -31s33.333 -46 42 -76
c4.66699 14.667 8 24.667 10 30s4.66699 8 8 8h1l54 -9c4 0 6 -2.33301 6 -7c-12.667 -36 -23.667 -71.667 -33 -107c-8.66699 -30 -16.334 -61.833 -23.001 -95.5s-10 -63.5 -10 -89.5c0 -7.33301 0.333008 -14.666 1 -21.999s2.33398 -14.166 5.00098 -20.499
s6 -11.5 10 -15.5s9.66699 -6 17 -6c31.333 0 59.666 10 84.999 30s47 45.333 65 76s31.833 64.167 41.5 100.5s14.5 70.833 14.5 103.5c0 11.333 -1 26 -3 44s-6.5 37.667 -13.5 59s-17.167 42.666 -30.5 63.999s-31.5 40.666 -54.5 57.999s-51.667 31.5 -86 42.5
s-75.5 16.5 -123.5 16.5c-62 0 -117 -11.833 -165 -35.5s-88.5 -55.667 -121.5 -96s-58 -87.166 -75 -140.499s-25.5 -109.666 -25.5 -168.999c0 -46 5.66699 -91.167 17 -135.5s28.5 -83.833 51.5 -118.5s51.667 -62.667 86 -84s74.5 -32 120.5 -32
c44.667 0 85.667 4.16699 123 12.5s71.333 19.166 102 32.499s58.167 28.833 82.5 46.5s45.833 35.5 64.5 53.5c43.333 42.667 77.666 91.334 102.999 146.001c4.66699 0 7 -2 7 -6c0 -4.66699 -4 -15.334 -12 -32.001s-20.5 -36.167 -37.5 -58.5
s-38.333 -45.666 -64 -69.999s-56.334 -46.833 -92.001 -67.5s-76.5 -37.667 -122.5 -51s-97.333 -20 -154 -20zM499.001 221.996c3.33301 19.333 7.16602 38.167 11.499 56.5s8.83301 34.833 13.5 49.5c-2.66699 14.667 -6.83398 29.167 -12.501 43.5s-13 27 -22 38
s-19.833 20 -32.5 27s-27 10.5 -43 10.5c-27.333 0 -51.833 -10.167 -73.5 -30.5s-40.167 -46 -55.5 -77s-27.166 -64.667 -35.499 -101s-12.5 -70.5 -12.5 -102.5c0 -12 0.833008 -24.833 2.5 -38.5s4.66699 -26.167 9 -37.5s10.333 -20.833 18 -28.5
s17.5 -11.5 29.5 -11.5c25.333 0 48.5 6 69.5 18s39.833 27.667 56.5 47s31.334 41 44.001 65s23.667 48 33 72z" />
    <glyph glyph-name="A" unicode="A" horiz-adv-x="1394" 
d="M1319 1111c16.667 0 30.167 -4.5 40.5 -13.5s18.166 -20.667 23.499 -35s9 -30.333 11 -48s3 -34.834 3 -51.501c0 -50.667 -5.66699 -110.834 -17 -180.501s-25.5 -144.334 -42.5 -224.001l-54 -246c-19 -84.333 -36.167 -166.166 -51.5 -245.499
c22.667 2 39.334 9 50.001 21c1.33301 1.33301 3 2 5 2c4.66699 0 7 -2.33301 7 -7s-6 -10.5 -18 -17.5s-27.667 -11.167 -47 -12.5c-4.66699 -24 -9.16699 -49.667 -13.5 -77s-8.33301 -55 -12 -83s-6.66699 -55.833 -9 -83.5s-3.5 -53.834 -3.5 -78.501
c0 -20 1 -40.667 3 -62s6.33301 -40.833 13 -58.5s16.167 -32 28.5 -43s28.5 -16.5 48.5 -16.5c4.66699 0 7 -2 7 -6c0 -4.66699 -2.33301 -7 -7 -7c-31.333 0 -57.166 6.83301 -77.499 20.5s-36.333 31.834 -48 54.501s-19.667 48.667 -24 78s-6.5 59.666 -6.5 90.999
c0 40.667 3 84.334 9 131.001s13.667 96 23 148c-39.333 9.33301 -82.5 24 -129.5 44l-147.5 65c-24 -78 -52 -154.667 -84 -230s-70.333 -142.833 -115 -202.5s-97.334 -107.834 -158.001 -144.501s-131.667 -55 -213 -55c-49.333 0 -93 8.33301 -131 25
s-69.833 40 -95.5 70s-45 65.5 -58 106.5s-19.5 85.833 -19.5 134.5c0 43.333 5.33301 88 16 134s26.667 90.5 48 133.5s47.333 83.5 78 121.5s66 71.167 106 99.5s84.333 50.833 133 67.5s101.667 25 159 25c4 0 6 -2.33301 6 -7s-2 -7 -6 -7
c-57.333 0 -110.166 -8.5 -158.499 -25.5s-92 -39.833 -131 -68.5s-73.333 -62 -103 -100s-54.5 -78 -74.5 -120s-35 -84.833 -45 -128.5s-15 -85.167 -15 -124.5c0 -47.333 6.33301 -90.833 19 -130.5s31.334 -73.667 56.001 -102s55 -50.5 91 -66.5s77.667 -24 125 -24h7
c46.667 1.33301 89.167 11 127.5 29s73.333 42.5 105 73.5s60.667 67.167 87 108.5s50.333 85.833 72 133.5s41.334 97.167 59.001 148.5l50.5 153l-55.5 23l-54.5 21c-30.667 10.667 -69.334 16 -116.001 16c-32 0 -63.5 -3.83301 -94.5 -11.5s-56.167 -21.167 -75.5 -40.5
c-1.33301 -1.33301 -3 -2 -5 -2c-2.66699 0 -4.33398 1 -5.00098 3l-29 35c-0.666992 0.666992 -1 2.33398 -1 5.00098s3 6.83398 9 12.501s14.833 11.5 26.5 17.5s25.667 11.167 42 15.5s34.833 6.5 55.5 6.5c32.667 0 66.5 -4.66699 101.5 -14
s68.167 -19.666 99.5 -30.999l3 -1.5c0.666992 -0.333008 1.66699 -0.5 3 -0.5c16.667 -6 33.167 -12.333 49.5 -19l50.5 -21l62.5 215c20.333 72 41.166 141.333 62.499 208s44 129 68 187s50.667 108.5 80 151.5s62 76.833 98 101.5s77 37 123 37zM1162 75
c10.667 56 23.1689 113.833 37.502 173.5l43.5 178.5l43.5 174c14.333 56.667 27.166 110.334 38.499 161.001s20.5 97 27.5 139s10.5 78.333 10.5 109c0 9.33301 -0.5 19.166 -1.5 29.499s-3 19.666 -6 27.999s-7.5 15.333 -13.5 21s-13.667 8.5 -23 8.5
c-40 0 -75.333 -12.667 -106 -38s-58.334 -60 -83.001 -104s-47.167 -95.5 -67.5 -154.5s-39.833 -122.333 -58.5 -190l-56 -211c-18.667 -73 -39 -145.167 -61 -216.5l146.5 -63.5c47.667 -20.333 90.5 -35.166 128.5 -44.499z" />
    <glyph glyph-name="B" unicode="B" horiz-adv-x="1043" 
d="M1064 250c4 0 6.00391 -2.33398 6.00391 -7.00098c0 -4 -2 -6 -6 -6c-18 0 -35.667 -0.166992 -53 -0.5s-34.666 -0.833008 -51.999 -1.5c1.33301 -8.66699 2 -17.167 2 -25.5v-25.5c0 -81.333 -16 -160.833 -48 -238.5s-78.333 -146.667 -139 -207
s-134.5 -108.833 -221.5 -145.5s-185.5 -55 -295.5 -55c-34 0 -65.333 5.83301 -94 17.5s-53.5 27.834 -74.5 48.501s-37.5 45.167 -49.5 73.5s-18 58.833 -18 91.5c0 30 4.83301 58.667 14.5 86s22.667 53.166 39 77.499s35.5 47 57.5 68s45.333 40.167 70 57.5
c6 43.333 16.167 92.666 30.5 147.999s30.5 113.5 48.5 174.5l56.5 185.5c19.667 62.667 37.5 122.5 53.5 179.5s29.167 109.667 39.5 158s15.5 88.833 15.5 121.5c0 8.66699 -0.5 17.167 -1.5 25.5s-3 16 -6 23s-7 12.667 -12 17s-11.833 6.5 -20.5 6.5
c-25.333 0 -50.5 -11.833 -75.5 -35.5s-51 -53.5 -78 -89.5l-85 -116c-29.667 -41.333 -61.667 -80 -96 -116s-71.333 -65.833 -111 -89.5s-83.167 -35.5 -130.5 -35.5c-19.333 0 -38.333 4 -57 12s-35.5 19.5 -50.5 34.5s-27.167 32.833 -36.5 53.5s-14 44 -14 70
c0 4.66699 2 7 6 7c4.66699 0 7 -2.33301 7 -7c0 -24 4.33301 -45.5 13 -64.5s20 -35.333 34 -49s29.5 -24.167 46.5 -31.5s34.167 -11 51.5 -11c46 0 88.5 11.833 127.5 35.5s75.167 53.5 108.5 89.5s64.666 74.667 93.999 116l85 116c27.333 36 54.166 65.833 80.499 89.5
s53.166 35.5 80.499 35.5c19.333 0 35.5 -3.83301 48.5 -11.5s23.333 -18 31 -31s13.167 -28.167 16.5 -45.5s5 -35.666 5 -54.999c0 -35.333 -4.16699 -75.333 -12.5 -120s-19.166 -92.167 -32.499 -142.5s-28.333 -102 -45 -155l-50.5 -158l-49 -152.5
c-15.667 -49.333 -29.167 -95 -40.5 -137c6 3.33301 12 6.33301 18 9s12.333 5.66699 19 9l33 108c13.333 43.333 29 90.833 47 142.5l59 162.5c21.333 56.667 44.166 112.5 68.499 167.5s49.833 107.167 76.5 156.5s54.167 92.833 82.5 130.5s57.166 67.5 86.499 89.5
s58.666 33 87.999 33c28 0 52.167 -5 72.5 -15s37.166 -23.833 50.499 -41.5s23.166 -38.5 29.499 -62.5s9.5 -49.667 9.5 -77c0 -40.667 -6.33301 -82.667 -19 -126s-30.667 -83.833 -54 -121.5s-51.166 -70.667 -83.499 -99s-68.166 -47.5 -107.499 -57.5
c30.667 -6.66699 57.667 -18.167 81 -34.5s43.5 -36.166 60.5 -59.499s30.667 -49.333 41 -78s17.5 -59 21.5 -91c17.333 1.33301 34.833 2 52.5 2h54.5zM855.004 1097c-28 0 -55.999 -11.002 -83.999 -33.002s-55.833 -51.5 -83.5 -88.5s-54.5 -79.833 -80.5 -128.5
s-50.833 -100 -74.5 -154s-46 -108.667 -67 -164l-58 -158.5c-17.667 -50.333 -33 -96.5 -46 -138.5l-31.5 -103c42.667 18.667 87.5 34.834 134.5 48.501s94.833 25.167 143.5 34.5s97.334 16.666 146.001 21.999s96.334 9.33301 143.001 12
c-1.33301 34 -6.33301 66.5 -15 97.5s-21.334 58.333 -38.001 82s-37.334 42.5 -62.001 56.5s-54 21 -88 21c-4.66699 0 -7 2.33301 -7 7s2.33301 7 7 7c25.333 0 49.166 6.83301 71.499 20.5s42.5 31.667 60.5 54s34 48 48 77s25.667 59.167 35 90.5s16.5 62.5 21.5 93.5
s7.5 59.833 7.5 86.5c0 16.667 -1.16699 34.334 -3.5 53.001s-6.66602 35.834 -12.999 51.501s-14.833 28.5 -25.5 38.5s-24.334 15 -41.001 15zM308.005 102.997c-6 -2.66699 -12 -5.49805 -18 -8.49805s-11.667 -6.16699 -17 -9.5
c-5.33301 -19.333 -10.5 -41.833 -15.5 -67.5s-7.5 -48.834 -7.5 -69.501c0 -16.667 1.66699 -28.334 5 -35.001l19.5 71.5zM34.0049 -231.001c0 -31.333 5.66895 -60.168 17.002 -86.501s27 -49.333 47 -69s43.5 -35 70.5 -46s56.5 -16.5 88.5 -16.5
c72.667 0 139 10.333 199 31s113.833 48.334 161.5 83.001s89 74.667 124 120s64.167 93 87.5 143s40.666 100.167 51.999 150.5s17 98.166 17 143.499v10c-116.667 -6.66699 -222.834 -20 -318.501 -40s-180.5 -47 -254.5 -81l-19 -66l-21 -72.5
c-6.66699 -23 -12.667 -42.667 -18 -59s-8.66602 -24.5 -9.99902 -24.5c-12 0 -22 2.83301 -30 8.5s-14.333 13.167 -19 22.5s-7.83398 19.833 -9.50098 31.5s-2.5 23.834 -2.5 36.501c0 7.33301 0.333008 15.333 1 24s1.66699 17.667 3 27
c-53.333 -38.667 -94.333 -81.167 -123 -127.5s-43 -93.833 -43 -142.5z" />
    <glyph glyph-name="C" unicode="C" horiz-adv-x="988" 
d="M1004 250c4.66699 0 6.99316 -2.33691 6.99316 -7.00391c0 -2.66699 -2.83301 -14.667 -8.5 -36s-14.167 -48.833 -25.5 -82.5s-25 -71.5 -41 -113.5s-34.333 -84.667 -55 -128s-43.5 -85.666 -68.5 -126.999s-51.833 -78.166 -80.5 -110.499s-59.167 -58.333 -91.5 -78
s-66.166 -29.5 -101.499 -29.5c-59.333 0 -109.166 12.833 -149.499 38.5s-72.666 60 -96.999 103s-41.666 92.333 -51.999 148s-15.5 113.5 -15.5 173.5c0 72.667 6.5 148.834 19.5 228.501s31.5 159.5 55.5 239.5c-18.667 -8.66699 -37.667 -15.5 -57 -20.5
s-38.666 -7.5 -57.999 -7.5c-26.667 0 -51.334 4.5 -74.001 13.5s-42.167 19 -58.5 30s-29.166 21.333 -38.499 31s-14 15.167 -14 16.5c0 4.66699 2.33301 7 7 7c0.666992 0 2.33398 -0.666992 5.00098 -2c54 -54.667 111.667 -82 173 -82c21.333 0 42 3 62 9
s39.667 13.667 59 23c12.667 40 28.167 83.167 46.5 129.5s39.166 92.666 62.499 138.999s49 90.833 77 133.5s58 80.5 90 113.5s65.833 59.333 101.5 79s72.834 29.5 111.501 29.5c32.667 0 60.334 -7.83301 83.001 -23.5s41 -36 55 -61s24.167 -53.667 30.5 -86
s9.5 -64.833 9.5 -97.5c0 -26 -2.16699 -53.833 -6.5 -83.5s-10.666 -59 -18.999 -88s-19 -56.667 -32 -83s-28 -49.666 -45 -69.999s-36.167 -36.5 -57.5 -48.5s-45 -18 -71 -18c-46 0 -81.333 14.167 -106 42.5s-37 65.833 -37 112.5c0 24.667 3.5 49.5 10.5 74.5
s16.833 48.167 29.5 69.5l-57.5 -55l-61 -59l-64 -59.5c-21.667 -19.667 -43.834 -37.834 -66.501 -54.501c-28.667 -93.333 -50.834 -187.666 -66.501 -282.999s-23.5 -184.666 -23.5 -267.999c0 -32 1.33301 -64.667 4 -98s7.5 -65.5 14.5 -96.5s16.333 -60.333 28 -88
s26.334 -51.667 44.001 -72s38.667 -36.5 63 -48.5s52.833 -18 85.5 -18c35.333 0 69 10 101 30s62 46.333 90 79s54.167 70 78.5 112s46.5 84.833 66.5 128.5s37.833 86.5 53.5 128.5s29 79.333 40 112s19.5 59 25.5 79s9.33301 30 10 30zM794.993 1097
c-30.667 0 -60.1689 -8.99805 -88.502 -26.998s-55.5 -42 -81.5 -72s-50.5 -64.167 -73.5 -102.5s-44.167 -77.833 -63.5 -118.5s-36.666 -81.167 -51.999 -121.5s-28.333 -76.833 -39 -109.5c26 20 51.333 41.5 76 64.5l72 69l68 66c22 21 43 39.5 63 55.5
c15.333 15.333 31.833 27.333 49.5 36s36.5 13 56.5 13c4.66699 0 7 -2.33301 7 -7s-2.33301 -7 -7 -7h-3c-18 -1.33301 -34 -11.5 -48 -30.5s-25.667 -41.667 -35 -68s-16.5 -53.333 -21.5 -81s-7.5 -50.5 -7.5 -68.5c0 -14.667 1.16699 -29.334 3.5 -44.001
s6.33301 -27.834 12 -39.501s13.334 -21.167 23.001 -28.5s21.834 -11 36.501 -11c24 0 46.167 5.83301 66.5 17.5s38.5 27.5 54.5 47.5s30 42.833 42 68.5s22 52.5 30 80.5s14 56.167 18 84.5s6 54.833 6 79.5c0 30.667 -2.83301 61.167 -8.5 91.5s-15 57.5 -28 81.5
s-29.833 43.5 -50.5 58.5s-46.334 22.5 -77.001 22.5z" />
    <glyph glyph-name="D" unicode="D" horiz-adv-x="1318" 
d="M1350 250c4.66699 0 7.00586 -2.33301 7.00586 -7c0 -4 -2.33301 -6 -7 -6c-64 0 -124.333 -2 -181 -6c-16 -56.667 -35.5 -113.334 -58.5 -170.001s-49.667 -110.667 -80 -162s-64.166 -99 -101.499 -143s-78.333 -82.167 -123 -114.5s-92.667 -57.666 -144 -75.999
s-106.333 -27.5 -165 -27.5c-40 0 -75.167 5.5 -105.5 16.5s-56 25.667 -77 44s-36.833 40 -47.5 65s-16 51.5 -16 79.5c0 56 20.333 112.333 61 169c-6 8.66699 -10.833 19 -14.5 31s-6.5 24.5 -8.5 37.5s-3.33301 26.167 -4 39.5s-1 25.333 -1 36
c0 42 3.16699 89.167 9.5 141.5s14.833 106.666 25.5 162.999s23.334 112.666 38.001 168.999s30.334 109.333 47.001 159s33.667 94.334 51 134.001s34.666 70.834 51.999 93.501c-18 -16 -36.5 -37.333 -55.5 -64s-38.167 -55.167 -57.5 -85.5l-60 -92
c-20.667 -31 -42.167 -59.167 -64.5 -84.5s-45.5 -45.833 -69.5 -61.5s-49.333 -23.5 -76 -23.5c-16 0 -31.333 3 -46 9s-27.667 12.833 -39 20.5s-20.333 15 -27 22s-10 11.5 -10 13.5c0 4.66699 2.33301 7 7 7c2 0 3.66699 -0.666992 5 -2c37.333 -37.333 74 -56 110 -56
c29.333 0 57.5 10.833 84.5 32.5s53 48.667 78 81s49.167 67.5 72.5 105.5s46.5 73.167 69.5 105.5s45.667 59.333 68 81s45.166 32.5 68.499 32.5c1.33301 0 2.33301 -0.333008 3 -1l24 -6l23 -7c-14 0 -28.833 -10.333 -44.5 -31s-31.334 -48.667 -47.001 -84
s-31.167 -76.333 -46.5 -123s-29.833 -96 -43.5 -148s-26.334 -105 -38.001 -159s-21.834 -106 -30.501 -156s-15.334 -96.333 -20.001 -139s-7 -78.667 -7 -108c0 -9.33301 0.166992 -18 0.5 -26s0.833008 -15.333 1.5 -22c4 4 6.66699 7 8 9c4 42.667 11.667 92 23 148
s26 115 44 177s38.667 125.5 62 190.5s49 128.333 77 190s57.667 119.667 89 174s63.666 102 96.999 143s67.666 73.333 102.999 97s70.666 35.5 105.999 35.5h8c52 -2 95.333 -18.167 130 -48.5s62.334 -68.833 83.001 -115.5s35.167 -98 43.5 -154
s12.5 -110.333 12.5 -163c0 -64.667 -4.66699 -129.5 -14 -194.5s-22.333 -128.5 -39 -190.5c28 1.33301 56.667 2.5 86 3.5s59.666 1.5 90.999 1.5zM346.006 -67c-1.33301 -1.33301 -2.33301 -2.66699 -3 -4l3 -9v13zM497.006 -449.001
c48 0 93.499 10.1699 136.499 30.5029s83.667 47.833 122 82.5s73.833 74.667 106.5 120s62.5 93 89.5 143s51.167 100.5 72.5 151.5s39.333 99.5 54 145.5c-61.333 -6 -125.166 -15.5 -191.499 -28.5s-131.5 -30.333 -195.5 -52s-124.5 -48.334 -181.5 -80.001
s-106.5 -69.5 -148.5 -113.5c-0.666992 -10 -1.16699 -19.5 -1.5 -28.5s-0.5 -17.5 -0.5 -25.5v-2l-1 -1v-1c-0.666992 0 -1 -0.333008 -1 -1c-1.33301 -1.33301 -3 -2 -5 -2c-12 0 -22.333 4 -31 12c-38 -53.333 -57 -106 -57 -158c0 -28.667 5.66699 -54.834 17 -78.501
s27.166 -43.834 47.499 -60.501s44.833 -29.667 73.5 -39s60.334 -14 95.001 -14zM1082 238.002c26 82 46.001 164.168 60.001 246.501s21 160.833 21 235.5c0 42 -3 85 -9 129s-16.833 84.167 -32.5 120.5s-36.834 66.333 -63.501 90s-60.667 36.167 -102 37.5h-7
c-33.333 0 -66.5 -11.167 -99.5 -33.5s-65.667 -53 -98 -92s-63.666 -84.5 -93.999 -136.5s-59 -107.667 -86 -167s-52.167 -120.5 -75.5 -183.5s-44 -125.167 -62 -186.5s-33 -119.833 -45 -175.5s-20.333 -105.834 -25 -150.501c43.333 42.667 93.666 79.5 150.999 110.5
s118 57 182 78s129 37.667 195 50s129.333 21.5 190 27.5z" />
    <glyph glyph-name="E" unicode="E" horiz-adv-x="833" 
d="M854 250c4 0 6.00586 -2.34082 6.00586 -7.00781c0 -14.667 -2.66699 -35.834 -8 -63.501s-13.333 -59.334 -24 -95.001s-24 -74 -40 -115s-35 -81.667 -57 -122s-46.833 -79.166 -74.5 -116.499s-58.334 -70.333 -92.001 -99s-70.5 -51.5 -110.5 -68.5
s-83 -25.5 -129 -25.5c-52.667 0 -98.834 10.333 -138.501 31s-72.834 48.667 -99.501 84s-46.667 76.333 -60 123s-20 96 -20 148c0 64.667 9.66699 127.5 29 188.5s47.166 116.167 83.499 165.5s80.666 90.333 132.999 123s111.5 53 177.5 61c-20 8 -37 19.167 -51 33.5
s-25.5 30.833 -34.5 49.5s-15.667 38.834 -20 60.501s-6.83301 43.167 -7.5 64.5c-22 -16.667 -44.333 -30 -67 -40s-45.667 -15 -69 -15c-19.333 0 -37.833 3.5 -55.5 10.5s-33 15 -46 24s-23.333 17.5 -31 25.5s-11.5 12.667 -11.5 14c0 4.66699 2.33301 7 7 7
c2 0 3.66699 -0.666992 5 -2c23.333 -23.333 46 -40 68 -50s43.333 -15 64 -15c23.333 0 46.333 5.16699 69 15.5s45 24.166 67 41.499c0 48 7.83301 97 23.5 147s38.167 95.667 67.5 137s65.333 75.166 108 101.499s91.667 39.5 147 39.5c25.333 0 47.166 -5 65.499 -15
s33.333 -23.5 45 -40.5s20.334 -36.833 26.001 -59.5s8.5 -46.667 8.5 -72c0 -26 -3.5 -55 -10.5 -87s-17.167 -62.167 -30.5 -90.5s-29.666 -52 -48.999 -71s-41.666 -28.5 -66.999 -28.5c-19.333 0 -36.666 3.5 -51.999 10.5s-28.333 16.5 -39 28.5
s-18.834 26.167 -24.501 42.5s-8.5 33.833 -8.5 52.5s2.83301 36.834 8.5 54.501s13.834 33.167 24.501 46.5c-30 -19.333 -59.333 -43 -88 -71l-87 -83c-1.33301 -12.667 -2.5 -25.167 -3.5 -37.5s-1.5 -24.5 -1.5 -36.5c0 -21.333 1.66699 -43.166 5 -65.499
s9.16602 -42.666 17.499 -60.999s19.333 -33.333 33 -45s31.167 -17.5 52.5 -17.5c2 0 3.66699 -0.333008 5 -1c6.66699 0.666992 13.5 1 20.5 1h21.5c4.66699 0 7 -2 7 -6c0 -4.66699 -2.33301 -7 -7 -7c-48.667 0 -93.667 -7.16699 -135 -21.5s-79 -34.166 -113 -59.499
s-64 -55.166 -90 -89.499s-48 -71.833 -66 -112.5s-31.5 -83.5 -40.5 -128.5s-13.5 -90.5 -13.5 -136.5c0 -43.333 4.83301 -86.166 14.5 -128.499s24.5 -80.166 44.5 -113.499s45.667 -60.166 77 -80.499s68.666 -30.5 111.999 -30.5c51.333 0 98.166 10 140.499 30
s80.666 46.333 114.999 79s65 69.834 92 111.501s50.5 84.5 70.5 128.5c47.333 102.667 84.333 219.334 111 350.001zM663.006 1096.99c-37.333 0 -71.332 -10.501 -101.999 -31.501s-57.667 -48 -81 -81s-42.833 -70.167 -58.5 -111.5s-26.834 -82.333 -33.501 -123
l62.5 60c21 20 42.333 38.5 64 55.5s43.667 31.333 66 43s45.166 18.5 68.499 20.5c1.33301 0 2.5 0.166992 3.5 0.5s2.16699 0.5 3.5 0.5h7c4.66699 0 7 -2.33301 7 -7s-2.33301 -7 -7 -7h-3c-14.667 -0.666992 -27.167 -5.5 -37.5 -14.5s-19 -20 -26 -33
s-12.167 -27.5 -15.5 -43.5s-5 -31.333 -5 -46c0 -13.333 1.33301 -26.833 4 -40.5s6.83398 -26.167 12.501 -37.5s13 -20.666 22 -27.999s20.167 -11.333 33.5 -12h3c22.667 0 42.834 9.16699 60.501 27.5s32.667 41 45 68s21.666 55.667 27.999 86s9.5 57.5 9.5 81.5
c0 23.333 -2.5 45.5 -7.5 66.5s-12.667 39.333 -23 55s-23.833 28.167 -40.5 37.5s-36.667 14 -60 14z" />
    <glyph glyph-name="F" unicode="F" horiz-adv-x="1159" 
d="M1119 459c0.666992 1.33301 2.33398 1.99707 5.00098 1.99707c2 0 3.33301 -0.666992 4 -2c1.33301 -0.666992 2 -2.33398 2 -5.00098c0 -2 -0.666992 -3.66699 -2 -5c-13.333 -13.333 -30.333 -22.333 -51 -27s-44.334 -7 -71.001 -7c-21.333 0 -44.166 1 -68.499 3
s-49.5 4.66699 -75.5 8l-64 6c-21.333 2 -42.666 3.66699 -63.999 5l-8 -39.5c-2.66699 -13 -5.66699 -26.167 -9 -39.5l-45 -199.5c-15.333 -66.333 -32.5 -129.833 -51.5 -190.5s-40.167 -117.167 -63.5 -169.5s-50.5 -97.833 -81.5 -136.5s-66.333 -69.167 -106 -91.5
s-84.834 -33.833 -135.501 -34.5h-6c-34 0 -65.167 7.16699 -93.5 21.5s-52.833 35.5 -73.5 63.5c-18 25.333 -32 54.833 -42 88.5s-15 69.834 -15 108.501c0 58.667 10.667 115.834 32 171.501s51.666 105.167 90.999 148.5c16 18 35.833 36.333 59.5 55
s51.334 35.667 83.001 51s67.667 27.833 108 37.5s85.833 14.5 136.5 14.5c4.66699 0 7 -2.33301 7 -7s-2.33301 -7 -7 -7c-49.333 0 -93.666 -4.66699 -132.999 -14s-74.5 -21.333 -105.5 -36s-57.833 -31.167 -80.5 -49.5s-42 -36.166 -58 -53.499
c-38 -42 -67.333 -90 -88 -144s-31 -109.667 -31 -167c0 -33.333 4.16699 -66 12.5 -98s21 -60.667 38 -86s38.833 -45.666 65.5 -60.999s58 -23 94 -23h6c58 1.33301 108.333 20 151 56s80.334 92 113.001 168c30 68.667 54.833 146.5 74.5 233.5
s38.834 178.5 57.501 274.5l15.5 79l15.5 78c-48.667 -1.33301 -95.167 -8.33301 -139.5 -21s-83.833 -36 -118.5 -70c-1.33301 -1.33301 -3 -2 -5 -2c-1.33301 0 -2.66602 0.666992 -3.99902 2c-1.33301 2.66699 -2 4.33398 -2 5.00098c0 2 0.666992 3.66699 2 5
c52.667 52.667 126 83.334 220 92.001c8.66699 0.666992 17 1.16699 25 1.5s16.333 0.833008 25 1.5c15.333 72 32.166 141.333 50.499 208s40.166 128.334 65.499 185.001c3.33301 6 6.16602 11.833 8.49902 17.5s5.16602 11.167 8.49902 16.5
c-17.333 2 -34.5 3.83301 -51.5 5.5s-33.5 3.5 -49.5 5.5l-101.5 10.5c-30.333 3 -56.166 4.5 -77.499 4.5c-67.333 0 -120.666 -18 -159.999 -54c-16 -15.333 -28.5 -33.166 -37.5 -53.499s-13.5 -41.833 -13.5 -64.5c0 -20 3.66699 -39.333 11 -58
s18.166 -35.5 32.499 -50.5s32 -27 53 -36s45.5 -13.5 73.5 -13.5c4.66699 0 7 -2.33301 7 -7s-2.33301 -7 -7 -7c-29.333 0 -55.333 4.83301 -78 14.5s-41.667 22.167 -57 37.5s-27 33 -35 53s-12.333 40.333 -13 61c-1.33301 1.33301 -2 3 -2 5c0 60 18.333 107 55 141
c44.667 42 120.667 65.333 228 70c9.33301 0.666992 19 1 29 1h30c32 0 64.333 -0.833008 97 -2.5s65.667 -3.83398 99 -6.50098c13.333 20.667 27.166 39.167 41.499 55.5s29.5 31.166 45.5 44.499c60 48.667 129.333 73 208 73c4 0 6 -1.66699 6 -5v-3c0 -4 -2 -6 -6 -6
c-48 0 -91 -13.167 -129 -39.5s-72.667 -67.833 -104 -124.5c42 -3.33301 84 -6.33301 126 -9s82.667 -4 122 -4c56.667 0 108.167 4.33301 154.5 13s83.166 25.667 110.499 51c26 24 41 54.667 45 92v1c0.666992 1.33301 1 4 1 8v1c0.666992 2 1 4.66699 1 8v10
c0 4.66699 2.33301 7 7 7s7 -2.33301 7 -7v-10c-3.33301 -57.333 -24.666 -104 -63.999 -140c-60 -54.667 -166.333 -83.334 -319 -86.001c-6.66699 0 -13.167 -0.166992 -19.5 -0.5s-12.833 -0.5 -19.5 -0.5c-30 0 -60.167 0.833008 -90.5 2.5s-60.5 3.83398 -90.5 6.50098
c-0.666992 -0.666992 -1 -1.33398 -1 -2.00098s-0.333008 -1.33398 -1 -2.00098c-25.333 -58.667 -47.666 -123.5 -66.999 -194.5s-38 -145.833 -56 -224.5c44 -3.33301 86 -7.33301 126 -12l75 -7.5c24 -2.33301 46.667 -3.5 68 -3.5c25.333 0 47.666 2.33301 66.999 7
s34.666 12.667 45.999 24z" />
    <glyph glyph-name="G" unicode="G" horiz-adv-x="833" 
d="M538 486c22 0 44.0029 6.65918 66.0029 19.9922s43.167 31.5 63.5 54.5s39.333 49.333 57 79s33 61 46 94s23.333 66.333 31 100s11.5 65.834 11.5 96.501c0 15.333 -1.5 32.666 -4.5 51.999s-9.5 37.5 -19.5 54.5s-24.333 31.333 -43 43s-43.334 17.5 -74.001 17.5
c-46.667 0 -91.667 -13.667 -135 -41s-83.833 -63.666 -121.5 -108.999s-72 -97.666 -103 -156.999s-57.667 -121 -80 -185s-39.666 -128 -51.999 -192s-18.5 -123.333 -18.5 -178c0 -31.333 2.5 -62.666 7.5 -93.999s13.5 -59.5 25.5 -84.5s28.333 -45.167 49 -60.5
s47 -23 79 -23c20.667 0 42.667 6.16699 66 18.5s46.833 28.5 70.5 48.5s47.167 42.833 70.5 68.5s45.666 52 66.999 79s41 53.5 59 79.5l47 70c2 6 4.66699 13.333 8 22s7.16602 16.834 11.499 24.501s9.16602 14.334 14.499 20.001s11 8.5 17 8.5h59c4 0 6 -2.33301 6 -7
s-2 -7 -6 -7c-7.33301 0 -15.333 -9.66699 -24 -29s-18 -45.166 -28 -77.499l-33.5 -112c-12.333 -42.333 -26 -86.5 -41 -132.5s-31.833 -92.333 -50.5 -139s-39.334 -90.334 -62.001 -131.001c-17.333 -32 -36.666 -62.333 -57.999 -91s-44.833 -54 -70.5 -76
s-54 -39.5 -85 -52.5s-64.5 -19.5 -100.5 -19.5c-35.333 0 -68.5 4.33301 -99.5 13s-58 21.834 -81 39.501s-41 39.834 -54 66.501s-19.5 58 -19.5 94c0 24 3.66699 48.167 11 72.5s17.5 46.333 30.5 66s28.667 35.834 47 48.501s38.5 19 60.5 19c4.66699 0 7 -2 7 -6
c0 -4.66699 -2.33301 -7 -7 -7c-20.667 0 -39.334 -6 -56.001 -18s-30.834 -27.5 -42.501 -46.5s-20.667 -39.833 -27 -62.5s-9.5 -44.667 -9.5 -66c0 -34 6.16699 -63.5 18.5 -88.5s29.333 -45.667 51 -62s47 -28.666 76 -36.999s60.5 -12.5 94.5 -12.5h1
c41.333 0 78.833 12.833 112.5 38.5s64.334 59.167 92.001 100.5s52.5 88.5 74.5 141.5s41.833 106.667 59.5 161s33.667 107.5 48 159.5s27.5 97.667 39.5 137l-43 -61c-16.667 -23.333 -34.834 -47.166 -54.501 -71.499s-40.667 -48.333 -63 -72s-45 -44.834 -68 -63.501
s-46 -33.667 -69 -45s-45.167 -17 -66.5 -17c-42 0 -77.667 8.5 -107 25.5s-53 40 -71 69s-31.167 62.667 -39.5 101s-12.5 78.5 -12.5 120.5c0 56.667 6.66699 116.667 20 180s32.166 126 56.499 188s53.833 121.167 88.5 177.5s73.5 106 116.5 149s89.5 77.333 139.5 103
s102.667 38.5 158 38.5c26.667 0 49.834 -4.5 69.501 -13.5s35.834 -21.5 48.501 -37.5s22 -35 28 -57s9 -46.333 9 -73c0 -30.667 -3.83301 -63.334 -11.5 -98.001s-18.167 -69 -31.5 -103s-29.166 -66.5 -47.499 -97.5s-38.333 -58.333 -60 -82s-44.167 -42.5 -67.5 -56.5
s-47 -21 -71 -21c-4.66699 0 -7 2.33301 -7 7s2.33301 7 7 7z" />
    <glyph glyph-name="H" unicode="H" horiz-adv-x="1310" 
d="M1367 971c0 -48.667 -9.99707 -101.336 -29.9971 -158.003s-50.167 -113 -90.5 -169s-90.833 -109.5 -151.5 -160.5s-131.667 -94.833 -213 -131.5c-20.667 -92 -36.834 -182.167 -48.501 -270.5s-17.5 -169.5 -17.5 -243.5c0 -16 0.5 -34.333 1.5 -55
s2.83301 -41.5 5.5 -62.5s6.5 -41.667 11.5 -62s11.5 -38.5 19.5 -54.5s17.833 -28.833 29.5 -38.5s25.5 -14.5 41.5 -14.5c22.667 0 45.834 10 69.501 30s46.834 46.333 69.501 79s44.834 70 66.501 112s42.167 84.833 61.5 128.5s37 86.5 53 128.5l42 112l28.5 79
c7 20 11.167 30 12.5 30c4.66699 0 7 -2.33301 7 -7c0 -2 -3.33301 -13.667 -10 -35s-16 -48.666 -28 -81.999s-26.333 -71.166 -43 -113.499s-34.834 -85.166 -54.501 -128.499s-40.667 -85.833 -63 -127.5s-45.333 -78.667 -69 -111s-47.5 -58.333 -71.5 -78
s-47.667 -29.5 -71 -29.5c-36.667 0 -66.334 11.833 -89.001 35.5s-40.334 53.5 -53.001 89.5s-21.167 75 -25.5 117s-6.5 81.667 -6.5 119c0 68.667 4.66699 139 14 211s21.666 142 36.999 210c-54 -20 -109.167 -36 -165.5 -48s-113.833 -21 -172.5 -27l-30.5 -133
c-11.667 -50 -25.5 -101.167 -41.5 -153.5s-34 -103.666 -54 -153.999s-42.5 -95.333 -67.5 -135s-52.667 -71.5 -83 -95.5s-63.5 -36 -99.5 -36c-4.66699 0 -7 2.33301 -7 7c0 4 2.33301 6 7 6c26 0 50.333 11.833 73 35.5s43.834 54.834 63.501 93.501
s37.667 82.667 54 132s31 99.5 44 150.5s24.667 100.667 35 149l27.5 127.5c-16.667 -1.33301 -33.334 -2 -50.001 -2h-51c-4 0 -6 2 -6 6c0 4.66699 2 7 6 7c35.333 0 69.666 1 102.999 3l45 223.5c14 72.333 28 138.666 42 198.999s28.167 112.666 42.5 156.999
s29.5 76.5 45.5 96.5c-21.333 -10 -43.333 -25.5 -66 -46.5s-46 -44.667 -70 -71l-74 -81c-25.333 -27.667 -51 -52.834 -77 -75.501s-52.333 -41.334 -79 -56.001s-53.334 -22 -80.001 -22c-14.667 0 -28.5 2.5 -41.5 7.5s-24.5 10.5 -34.5 16.5s-17.833 12 -23.5 18
s-8.5 10 -8.5 12c0 4.66699 2.33301 7 7 7c0.666992 0 2.33398 -0.666992 5.00098 -2c30 -30.667 62 -46 96 -46c28 0 56.333 9 85 27s57.167 40.333 85.5 67s56.333 55.834 84 87.501s54.834 60.834 81.501 87.501s52.5 49 77.5 67s48.833 27 71.5 27
c1.33301 0 2.33301 -0.333008 3 -1l27 -7l21 -6c-10 0 -20 -9.66699 -30 -29s-20 -45.666 -30 -78.999s-20 -72.333 -30 -117l-30.5 -142.5l-31.5 -155.5c-10.667 -53.333 -21.667 -105.666 -33 -156.999c66.667 7.33301 127.834 17.666 183.501 30.999
s107.5 28.666 155.5 45.999c9.33301 43.333 22.166 92.5 38.499 147.5s35.333 111.167 57 168.5s46 113.5 73 168.5s56.5 104 88.5 147s66.167 77.667 102.5 104s74.5 39.5 114.5 39.5c27.333 0 48.666 -12.5 63.999 -37.5s23 -59.167 23 -102.5zM1280 1097
c-24.667 0 -48.501 -7.83594 -71.501 -23.5029s-45.167 -36.667 -66.5 -63s-41.666 -57.166 -60.999 -92.499s-37.5 -72.666 -54.5 -111.999s-32.833 -79.666 -47.5 -120.999s-28 -81.333 -40 -120s-22.5 -75 -31.5 -109s-16.167 -63 -21.5 -87
c81.333 38 151.5 82.333 210.5 133s107.5 103.334 145.5 158.001s66 109 84 163s27 103.333 27 148c0 39.333 -6.5 70.166 -19.5 92.499s-30.833 33.5 -53.5 33.5z" />
    <glyph glyph-name="I" unicode="I" horiz-adv-x="592" 
d="M287 1111c54 0 98.1641 -12.335 132.497 -37.002s61.333 -57 81 -97s33.334 -85.667 41.001 -137s11.5 -103.666 11.5 -156.999c0 -55.333 -3.33301 -114 -10 -176s-15.5 -125 -26.5 -189s-23.5 -127.667 -37.5 -191s-28.5 -124 -43.5 -182s-29.667 -111.667 -44 -161
s-27.5 -92.333 -39.5 -129s-22 -65.334 -30 -86.001s-13 -31 -15 -31h-54c-4.66699 0 -7 2.33301 -7 7l10.5 32l28 88.5l40 133c15 51 30.167 106.333 45.5 166s30.5 122.334 45.5 188.001s28.333 131.5 40 197.5s21 131.333 28 196s10.5 125.667 10.5 183
c0 43.333 -2.66699 86.833 -8 130.5s-15.5 83.167 -30.5 118.5s-36 64 -63 86s-62.167 33 -105.5 33c-23.333 0 -46 -7.83301 -68 -23.5s-42.667 -36.834 -62 -63.501s-37.166 -57.834 -53.499 -93.501s-30.333 -73.5 -42 -113.5s-20.667 -80.833 -27 -122.5
s-9.5 -82.167 -9.5 -121.5c0 -48.667 5.5 -93.167 16.5 -133.5s28.5 -72.5 52.5 -96.5c1.33301 -1.33301 2 -3 2 -5c0 -4.66699 -2.33301 -7 -7 -7c-3.33301 0 -9.16602 4.83301 -17.499 14.5s-16.833 24.5 -25.5 44.5s-16.5 45.167 -23.5 75.5s-10.5 66.5 -10.5 108.5
c0 39.333 3.16699 80.333 9.5 123s15.5 84.334 27.5 125.001s26.333 79.334 43 116.001s35.167 68.834 55.5 96.501s42.333 49.667 66 66s48.167 24.5 73.5 24.5z" />
    <glyph glyph-name="J" unicode="J" horiz-adv-x="800" 
d="M829 250c4.66699 0 7.00684 -2.33301 7.00684 -7c0 -4 -2.33301 -6 -7 -6c-17.333 0 -34 -0.666992 -50 -2s-32 -3 -48 -5c-11.333 -50 -25.5 -101.833 -42.5 -155.5s-37.333 -106.167 -61 -157.5s-50.5 -100 -80.5 -146s-63.333 -86.167 -100 -120.5
s-76.834 -61.666 -120.501 -81.999s-90.834 -30.5 -141.501 -30.5c-44.667 0 -81 10 -109 30s-42 51.667 -42 95c0 28 6.83301 59.5 20.5 94.5s33.167 71 58.5 108s56.333 74.167 93 111.5s77.667 72.333 123 105s95 61.834 149 87.501s111 45.5 171 59.5
c16.667 74 29.5 148.333 38.5 223s13.5 147 13.5 217c0 26.667 -1 55.667 -3 87s-5.5 62.833 -10.5 94.5s-12 62.334 -21 92.001s-20.333 56 -34 79s-30.334 41.333 -50.001 55s-42.834 20.5 -69.501 20.5c-50.667 0 -98 -9.66699 -142 -29s-84.167 -44.833 -120.5 -76.5
s-68.5 -68 -96.5 -109s-51.833 -83 -71.5 -126s-34.5 -85.667 -44.5 -128s-15 -80.5 -15 -114.5c0 -16.667 1.33301 -33 4 -49s7.16699 -30.333 13.5 -43s15 -22.834 26 -30.501s24.833 -11.5 41.5 -11.5c4.66699 0 7 -2.33301 7 -7s-2.33301 -7 -7 -7
c-12.667 0 -24.834 2.5 -36.501 7.5s-22.167 13.333 -31.5 25s-16.833 26.834 -22.5 45.501s-8.5 42 -8.5 70c0 36 5.33301 75.667 16 119s26 87.166 46 131.499s44.667 87.333 74 129s62.666 78.667 99.999 111s78.333 58.166 123 77.499s93 29 145 29
c34.667 0 65.167 -7.83301 91.5 -23.5s49.166 -36.5 68.499 -62.5s35.5 -56.167 48.5 -90.5s23.333 -70.5 31 -108.5s13 -76.5 16 -115.5s4.5 -75.833 4.5 -110.5c0 -58.667 -3.16699 -117.834 -9.5 -177.501s-15.833 -119.167 -28.5 -178.5c30.667 4 62 6 94 6z
M185.007 -449c42 0 81 10.6689 117 32.002s69.5 49.666 100.5 84.999s59.167 76 84.5 122s48.166 93.5 68.499 142.5s37.833 97.833 52.5 146.5s27 93.667 37 135c-57.333 -14 -111.833 -33.333 -163.5 -58s-99.667 -52.834 -144 -84.501s-84.333 -65.5 -120 -101.5
s-66.167 -72.167 -91.5 -108.5s-44.833 -71.5 -58.5 -105.5s-20.5 -65 -20.5 -93c0 -39.333 12.833 -67.833 38.5 -85.5s58.834 -26.5 99.501 -26.5z" />
    <glyph glyph-name="K" unicode="K" horiz-adv-x="1155" 
d="M1231 1097c-38 0 -71.167 -13.0078 -99.5 -39.0078s-54 -60.5 -77 -103.5s-44.333 -92.167 -64 -147.5l-61.5 -172c-21.333 -59.333 -44.333 -118.333 -69 -177s-53.334 -112.5 -86.001 -161.5s-70.5 -91 -113.5 -126s-93.167 -58.5 -150.5 -70.5
c52.667 -7.33301 95.167 -20.666 127.5 -39.999s58 -42.5 77 -69.5s33 -56.667 42 -89s16.167 -64.666 21.5 -96.999l16 -94.5c5.33301 -30.667 13.833 -57.667 25.5 -81s28.167 -42.166 49.5 -56.499s51 -21.5 89 -21.5c4.66699 0 7 -2 7 -6c0 -4.66699 -2.33301 -7 -7 -7
c-50 0 -90.167 8 -120.5 24s-54.333 37 -72 63s-31.167 55.5 -40.5 88.5s-17.833 66.833 -25.5 101.5s-16.334 68.5 -26.001 101.5s-24.167 62.5 -43.5 88.5s-45 47 -77 63s-74.333 24 -127 24h-1c-8 -32 -17.5 -67.833 -28.5 -107.5s-23.833 -80.167 -38.5 -121.5
s-31.167 -81.333 -49.5 -120s-38.833 -73.334 -61.5 -104.001s-47.5 -55.167 -74.5 -73.5s-56.167 -27.5 -87.5 -27.5c-4.66699 0 -7 2.33301 -7 7c0 4 2.33301 6 7 6c33.333 0 63.666 17.167 90.999 51.5s52.333 80.333 75 138s43.334 123.834 62.001 198.501
s36.334 152.167 53.001 232.5s32.5 160.666 47.5 240.999s30 155 45 224s30.333 129.167 46 180.5s32.5 88.333 50.5 111c-20.667 -10.667 -42.334 -26.667 -65.001 -48s-46 -45 -70 -71l-73.5 -80.5c-25 -27.667 -50.333 -52.667 -76 -75s-51.667 -40.666 -78 -54.999
s-52.833 -21.5 -79.5 -21.5c-14.667 0 -28.5 2.5 -41.5 7.5s-24.5 10.5 -34.5 16.5s-17.833 12 -23.5 18s-8.5 10 -8.5 12c0 4.66699 2.33301 7 7 7c0.666992 0 2.33398 -0.666992 5.00098 -2c30 -30.667 62 -46 96 -46c28 0 56.333 9 85 27s57.167 40.333 85.5 67
s56.333 55.834 84 87.501s54.834 60.834 81.501 87.501s52.5 49 77.5 67s48.833 27 71.5 27c1.33301 0 2.33301 -0.333008 3 -1l34 -9l14 -4c-11.333 0 -22.666 -12 -33.999 -36s-22.5 -56.5 -33.5 -97.5s-22.333 -89 -34 -144l-36 -175l-39 -190
c-13.667 -65 -28.167 -128.5 -43.5 -190.5c51.333 0.666992 96.833 15.334 136.5 44.001s75.334 66.334 107.001 113.001s60.667 99.834 87 159.501s51.833 120.667 76.5 183l75 183.5c25.333 60 53.166 113.5 83.499 160.5s64.166 85.333 101.499 115
s80.333 45.167 129 46.5h6c4.66699 0 7 -2.33301 7 -7s-2.33301 -7 -7 -7z" />
    <glyph glyph-name="L" unicode="L" horiz-adv-x="1128" 
d="M988 -228c4.66699 0 6.99316 -2.00391 6.99316 -6.00391c0 -80 -20.167 -137.5 -60.5 -172.5s-99.5 -52.5 -177.5 -52.5c-38.667 0 -80.167 3.16699 -124.5 9.5s-89.166 13.5 -134.499 21.5s-90.666 15.167 -135.999 21.5s-88.333 9.5 -129 9.5
c-8 0 -16 -0.166992 -24 -0.5s-16 -0.833008 -24 -1.5c-48 -42 -100 -63 -156 -63h-2c-0.666992 0 -1 0.333008 -1 1c-0.666992 0 -1.33398 0.333008 -2.00098 1l-1 1c0 0.666992 -0.333008 1.33398 -1 2.00098v3l1 2c1.33301 2 5.33301 6.16699 12 12.5
s16 13.166 28 20.499s26.167 15 42.5 23s34.833 14.667 55.5 20c30.667 36 58.5 82.5 83.5 139.5s47.833 120.333 68.5 190s39.334 143.5 56.001 221.5s32.334 156.167 47.001 234.5l41 228c12.667 73.667 25 141 37 202s24 113.5 36 157.5s24.667 75.333 38 94
c-21.333 -8 -43.333 -22.5 -66 -43.5s-46.334 -44.667 -71.001 -71l-75.5 -82c-25.667 -28.333 -51.834 -54.333 -78.501 -78s-53.667 -43.167 -81 -58.5s-54.666 -23 -81.999 -23c-14.667 0 -28.5 2.5 -41.5 7.5s-24.5 10.5 -34.5 16.5s-17.833 12 -23.5 18
s-8.5 10 -8.5 12c0 4 2.33301 6 7 6c2.66699 0 4.33398 -0.666992 5.00098 -2c30 -30 62 -45 96 -45c28.667 0 57.334 9 86.001 27s57.167 40.333 85.5 67s56.333 55.834 84 87.501s54.667 60.834 81 87.501s52 49 77 67s48.833 27 71.5 27h72c4.66699 0 7 -2.33301 7 -7
s-2.33301 -7 -7 -7c-15.333 0 -29.666 -16.333 -42.999 -49s-26.166 -76.667 -38.499 -132s-25 -119.5 -38 -192.5l-42 -231c-15 -81 -31.5 -163.167 -49.5 -246.5s-38.667 -163.333 -62 -240s-49.666 -147 -78.999 -211s-62.333 -117 -99 -159c34 4 68 6 102 6
c37.333 0 75.5 -1.66699 114.5 -5s77.667 -7.16602 116 -11.499s75.833 -8.16602 112.5 -11.499s71 -5 103 -5c31.333 0 60 2.16699 86 6.5s48.5 12.333 67.5 24s33.667 27.667 44 48s15.5 46.5 15.5 78.5c0 4 2.33301 6 7 6zM47.9932 -447.004
c28 4 54.665 16.667 79.998 38c-15.333 -4 -29.666 -9 -42.999 -15s-25.666 -13.667 -36.999 -23z" />
    <glyph glyph-name="M" unicode="M" horiz-adv-x="2265" 
d="M2278 250c4.66699 0 6.99023 -2.33594 6.99023 -7.00293c0 -6 -1.5 -20.667 -4.5 -44s-7.66699 -52.166 -14 -86.499s-14.166 -72.333 -23.5 -114c-9.33301 -41.667 -20.166 -83.667 -32.5 -126c-12.333 -42.333 -26.333 -83.666 -42 -123.999s-32.667 -76 -51 -107
s-38.166 -56 -59.5 -75c-21.333 -19 -44 -28.5 -68 -28.5c-44.667 0 -82.5 8.66699 -113.5 26s-56.5 40.666 -76.5 69.999s-35.667 63.833 -47 103.5s-19.833 81.667 -25.5 126s-9.5 89.833 -11.5 136.5s-3.66699 92.167 -5 136.5s-3.33301 86.333 -6 126
s-7.66699 74.167 -15 103.5s-17.666 52.666 -30.999 69.999s-31.666 26 -54.999 26c-31.333 0 -60.833 -10.167 -88.5 -30.5s-53.334 -47 -77.001 -80s-45.667 -70.5 -66 -112.5s-38.5 -85 -54.5 -129c-38 -103.333 -70.667 -220.666 -98 -351.999l-53 1
c-4.66699 0 -7 2.33301 -7 7c6.66699 70 12.667 143.667 18 221c4.66699 66.667 8.83398 141.5 12.501 224.5s5.5 167.5 5.5 253.5c0 24 -0.333008 56.333 -1 97s-2.5 84.334 -5.5 131.001s-7.5 94 -13.5 142s-14.5 91.333 -25.5 130s-25 70.334 -42 95.001
s-37.5 37 -61.5 37c-30 0 -60.333 -14.5 -91 -43.5s-61 -68.5 -91 -118.5s-59.333 -108.333 -88 -175s-56.5 -137.334 -83.5 -212.001s-52.833 -151.5 -77.5 -230.5s-47.5 -155.833 -68.5 -230.5l-57.5 -212l-44.5 -175l-29.5 -118.5c-7.33301 -29 -11.333 -43.5 -12 -43.5
h-89c-4.66699 0 -7 2.33301 -7 7c32 114.667 61 229.334 87 344.001c10.667 48.667 21.167 99.834 31.5 153.501s19.666 107.667 27.999 162s15 107.833 20 160.5s7.5 102.667 7.5 150c0 31.333 -1.66699 64.666 -5 99.999s-10 67.833 -20 97.5s-24.333 54.334 -43 74.001
s-43.667 29.5 -75 29.5c-32.667 0 -63.167 -9.33301 -91.5 -28s-54.333 -43.5 -78 -74.5s-44.834 -66.333 -63.501 -106s-34.5 -80.667 -47.5 -123s-22.833 -84.166 -29.5 -125.499s-10 -79 -10 -113c0 -36 3.33301 -70.833 10 -104.5s17.834 -63.334 33.501 -89.001
s35.834 -46.167 60.501 -61.5s55 -23 91 -23c4.66699 0 7 -2.33301 7 -7s-2.33301 -7 -7 -7c-38 0 -70.333 8 -97 24s-48.167 37.5 -64.5 64.5s-28.166 58.167 -35.499 93.5s-11 72 -11 110c0 42 4 85.667 12 131s19.167 89.666 33.5 132.999s31.5 84.333 51.5 123
s42.333 72.667 67 102s51.334 52.5 80.001 69.5s58.334 25.5 89.001 25.5c44.667 0 81.167 -11.333 109.5 -34s50.5 -52.167 66.5 -88.5s27 -77.166 33 -122.499s9 -90.333 9 -135c0 -42 -1.83301 -85.5 -5.5 -130.5s-8.83398 -90.333 -15.501 -136
s-14.167 -90.834 -22.5 -135.501s-16.833 -87.334 -25.5 -128.001l32.5 121l47.5 167.5c18 61.667 38.167 126.667 60.5 195s46.166 136 71.499 203s51.833 131 79.5 192s56.167 114.667 85.5 161s59.333 83.166 90 110.499s61.334 41 92.001 41
c35.333 0 65.333 -11.667 90 -35s45.334 -54 62.001 -92s29.834 -81.167 39.501 -129.5s17 -97.166 22 -146.499s8.16699 -97.5 9.5 -144.5s2 -87.833 2 -122.5c0 -89.333 -2.83301 -180.666 -8.5 -273.999s-12.834 -183.666 -21.501 -270.999c8 32 17.833 68.5 29.5 109.5
s25.5 83 41.5 126s34 85.167 54 126.5s42 78.166 66 110.499s50.333 58.333 79 78s59.334 29.5 92.001 29.5c42 0 75.167 -13.167 99.5 -39.5s42.833 -61.333 55.5 -105s21.334 -93.167 26.001 -148.5s8.33398 -111.833 11.001 -169.5s6.33398 -114.167 11.001 -169.5
s13.5 -104.833 26.5 -148.5s31.667 -78.667 56 -105s57.833 -39.5 100.5 -39.5c24.667 0 47.334 10 68.001 30s39.834 46.333 57.5 79c17.667 32.667 33.834 70 48.5 112c14.667 42 27.834 84.833 39.5 128.5c11.667 43.667 21.834 86.5 30.5 128.5
c8.66699 42 16 79.333 22 112l14.5 79c3.66699 20 6.16699 30 7.5 30z" />
    <glyph glyph-name="N" unicode="N" horiz-adv-x="1533" 
d="M1545 250c4.66699 0 7.00098 -2.33301 7.00098 -7c0 -2 -2.83301 -13.5 -8.5 -34.5s-13.834 -48.333 -24.501 -82s-23.5 -71.5 -38.5 -113.5s-31.5 -84.833 -49.5 -128.5s-37.667 -86.167 -59 -127.5s-43.5 -78.333 -66.5 -111s-46.833 -58.834 -71.5 -78.501
s-49.334 -29.5 -74.001 -29.5c-34 0 -61.667 8.16699 -83 24.5s-38 37.666 -50 63.999s-20 56.333 -24 90s-6 67.5 -6 101.5c0 47.333 2.83301 98.333 8.5 153s12.5 111.334 20.5 170.001s17 118.334 27 179.001s19 120.334 27 179.001s14.833 115.5 20.5 170.5
s8.5 106.167 8.5 153.5c0 33.333 -1.83301 66.333 -5.5 99s-11 62 -22 88s-26.5 47 -46.5 63s-46.333 24 -79 24c-22.667 0 -45.334 -10 -68.001 -30s-44.834 -47 -66.501 -81s-42.667 -73.333 -63 -118s-39.666 -91.334 -57.999 -140.001s-35.666 -98.167 -51.999 -148.5
s-31 -98 -44 -143s-24.333 -85.833 -34 -122.5l-23.5 -88c-6 -48 -13.667 -98.333 -23 -151s-19.5 -104.5 -30.5 -155.5s-22.167 -99.5 -33.5 -145.5s-21.833 -86.5 -31.5 -121.5s-18 -62.833 -25 -83.5s-11.5 -31 -13.5 -31h-69c-4.66699 0 -7 2.33301 -7 7
c32 114.667 61 229.334 87 344.001c10.667 48.667 21.167 99.834 31.5 153.501s19.666 107.667 27.999 162s15 107.833 20 160.5s7.5 102.667 7.5 150c0 31.333 -1.5 64.666 -4.5 99.999s-9.5 67.833 -19.5 97.5s-24.5 54.334 -43.5 74.001s-44.167 29.5 -75.5 29.5
s-61.166 -9 -89.499 -27s-54.333 -42.167 -78 -72.5s-45 -65.166 -64 -104.499s-35 -80.166 -48 -122.499s-23 -84.5 -30 -126.5s-10.5 -81 -10.5 -117s3.33301 -70.833 10 -104.5s17.667 -63.334 33 -89.001s35.5 -46.167 60.5 -61.5s55.5 -23 91.5 -23
c4.66699 0 7 -2.33301 7 -7s-2.33301 -7 -7 -7c-38.667 0 -71.334 8 -98.001 24s-48.167 37.5 -64.5 64.5s-28.166 58.167 -35.499 93.5s-11 72 -11 110c0 42 4 85.667 12 131s19.167 89.666 33.5 132.999s31.666 84.333 51.999 123s42.833 72.667 67.5 102
s51.334 52.5 80.001 69.5s58.334 25.5 89.001 25.5c44.667 0 81.167 -11.333 109.5 -34s50.5 -52.167 66.5 -88.5s26.833 -77.166 32.5 -122.499s8.5 -90.333 8.5 -135c0 -42 -2 -87.333 -6 -136l23.5 85l33.5 114.5c12.667 41.667 26.667 85.334 42 131.001
s32 90.667 50 135s36.833 86.5 56.5 126.5s40 75.167 61 105.5s42.667 54.5 65 72.5s45.166 27 68.499 27c46.667 0 85 -10 115 -30s53.667 -46.667 71 -80s29.166 -71.833 35.499 -115.5s9.5 -88.834 9.5 -135.501c0 -52 -3 -107.5 -9 -166.5s-13.667 -119 -23 -180
l-29.5 -184l-29.5 -179c-9.33301 -57.667 -17 -112.5 -23 -164.5s-9 -99 -9 -141c0 -21.333 1 -42.833 3 -64.5s6.5 -41.334 13.5 -59.001s16.667 -32.167 29 -43.5s29.166 -17 50.499 -17c28 0 55.833 13.333 83.5 40s54.334 61.167 80.001 103.5
s49.834 89.666 72.501 141.999s43.334 104.166 62.001 155.499s34.834 99.5 48.501 144.5s24.167 81.167 31.5 108.5c1.33301 3.33301 3.66602 5 6.99902 5z" />
    <glyph glyph-name="O" unicode="O" horiz-adv-x="1053" 
d="M1058 775c4.66699 0 7.00098 -2.33301 7.00098 -7c0 -1.33301 -3 -10.833 -9 -28.5s-14.5 -40.5 -25.5 -68.5s-24.333 -59.833 -40 -95.5s-33.5 -71.834 -53.5 -108.501c-2.66699 -58.667 -9.83398 -122.334 -21.501 -191.001s-27.667 -137.5 -48 -206.5
s-45 -135.333 -74 -199s-62.667 -120.167 -101 -169.5s-80.833 -88.833 -127.5 -118.5s-98 -44.5 -154 -44.5c-53.333 0 -99 11.5 -137 34.5s-69.167 53.667 -93.5 92s-42.166 82.5 -53.499 132.5s-17 101.667 -17 155c0 39.333 2.66699 78.333 8 117s13 77 23 115
c-42.667 44 -74 95.833 -94 155.5s-30 120.834 -30 183.501c0 78 13.333 152.167 40 222.5s64.5 132.333 113.5 186s108.333 96.5 178 128.5s147.5 49 233.5 51h15c44 0 83 -8 117 -24s63.667 -37.833 89 -65.5s46.666 -60 63.999 -97s31.333 -76.667 42 -119
s18.334 -86.166 23.001 -131.499s7 -90 7 -134v-42c18.667 36 35 70.333 49 103s25.667 61.5 35 86.5s16.333 45 21 60l7 22.5c1.33301 3.33301 3.66602 5 6.99902 5zM411.001 -449c47.333 0 92.168 12.1699 134.501 36.5029s81.5 57.833 117.5 100.5s69 92.667 99 150
s56 119 78 185s40 134.333 54 205s23.333 141 28 211c-27.333 -47.333 -57.833 -93.333 -91.5 -138s-70.667 -84.334 -111 -119.001s-84.333 -62.5 -132 -83.5s-98.5 -31.5 -152.5 -31.5c-84.667 0 -158.667 19.667 -222 59
c-6.66699 -34.667 -11.834 -69.334 -15.501 -104.001s-5.5 -69 -5.5 -103c0 -42 3.5 -84.833 10.5 -128.5s18.833 -83.334 35.5 -119.001s39 -64.667 67 -87s63.333 -33.5 106 -33.5zM924.003 471.003c0.666992 11.333 1.16211 22.8359 1.49512 34.5029s0.5 23.167 0.5 34.5
c0 42.667 -2.16699 86 -6.5 130s-11.666 86.667 -21.999 128s-23.833 80.166 -40.5 116.499s-37.167 68 -61.5 95s-53 48.333 -86 64s-70.5 23.5 -112.5 23.5h-16c-79.333 -2 -149.666 -17.667 -210.999 -47s-113 -68.5 -155 -117.5s-74 -106 -96 -171
s-33 -134.5 -33 -208.5c0 -56.667 6.5 -110.834 19.5 -162.501s32.167 -98.5 57.5 -140.5c13.333 36 30 71.667 50 107s43 66.666 69 93.999s55.333 49.5 88 66.5s68.334 25.5 107.001 25.5c4.66699 0 7 -2 7 -6c0 -4.66699 -2.33301 -7 -7 -7
c-22.667 0 -44 -5.83301 -64 -17.5s-38.5 -27 -55.5 -46s-32.5 -40.833 -46.5 -65.5s-26.667 -50.334 -38 -77.001s-21.166 -53.334 -29.499 -80.001s-15.166 -51 -20.499 -73c23.333 -23.333 51.833 -43.833 85.5 -61.5s73.5 -27.167 119.5 -28.5h7
c54.667 0 106 11.333 154 34s92.5 52.334 133.5 89.001s78.333 78.334 112 125.001s63.5 94 89.5 142z" />
    <glyph glyph-name="P" unicode="P" horiz-adv-x="1290" 
d="M1112 1111c29.333 0 54.8311 -5.34082 76.498 -16.0078s39.667 -25.334 54 -44.001s25 -40.834 32 -66.501s10.5 -53.167 10.5 -82.5c0 -43.333 -7.16699 -89.666 -21.5 -138.999s-35.666 -98.666 -63.999 -147.999s-63.5 -97 -105.5 -143s-90.667 -87 -146 -123
s-117.333 -65.833 -186 -89.5s-143.667 -37.5 -225 -41.5c-3.33301 -11.333 -6.5 -22.666 -9.5 -33.999s-6.16699 -22.666 -9.5 -33.999c-6.66699 -39.333 -14.5 -81.666 -23.5 -126.999s-20.333 -90.666 -34 -135.999s-29.5 -89 -47.5 -131s-39.167 -79.167 -63.5 -111.5
s-52.333 -58.166 -84 -77.499s-67.167 -29 -106.5 -29c-4.66699 0 -7 2.33301 -7 7c0 4 2.33301 6 7 6c34.667 0 65.834 12.833 93.501 38.5s52 60.667 73 105s39.5 96.333 55.5 156s30 123.5 42 191.5s22.5 138.667 31.5 212s17 146 24 218l20 208
c6.33301 66.667 12.833 127.334 19.5 182.001s14.167 101.834 22.5 141.501s17.833 68.167 28.5 85.5c-21.333 -8.66699 -43.333 -23.5 -66 -44.5s-46.334 -44.667 -71.001 -71l-75 -81.5c-25.333 -28 -51.333 -53.667 -78 -77s-53.5 -42.5 -80.5 -57.5
s-53.833 -22.5 -80.5 -22.5c-15.333 0 -29.5 2.5 -42.5 7.5s-24.333 10.5 -34 16.5s-17.334 12 -23.001 18s-8.5 10 -8.5 12c0 4 2.33301 6 7 6c2 0 3.66699 -0.666992 5 -2c30 -30 62 -45 96 -45c27.333 0 55 8.66699 83 26s56 38.833 84 64.5s55.5 53.834 82.5 84.501
l79.5 86.5c26 27 51.333 49.833 76 68.5s48.334 29.334 71.001 32.001c0.666992 0.666992 2.33398 1 5.00098 1h75c4.66699 0 7 -2.33301 7 -7s-2.33301 -7 -7 -7c-12.667 0 -23.667 -11.667 -33 -35s-17.666 -55.333 -24.999 -96s-14 -88.167 -20 -142.5
s-12 -112.5 -18 -174.5l-19.5 -192.5c-7 -66.333 -14.833 -131.5 -23.5 -195.5l51.5 167.5c19.667 61.667 42.167 124 67.5 187s53.666 124.167 84.999 183.5s66 112.166 104 158.499s79.333 83.5 124 111.5s93 42 145 42zM540.998 231.992
c68 4 131.331 16.498 189.998 37.498s112.167 48.333 160.5 82s91.5 72.334 129.5 116.001s69.833 90.334 95.5 140.001s45.334 101.5 59.001 155.5s20.5 108 20.5 162c0 52.667 -7.66699 94.5 -23 125.5s-35.666 46.5 -60.999 46.5c-55.333 0 -108.333 -17.333 -159 -52
s-99.5 -87.667 -146.5 -159s-92.5 -161.333 -136.5 -270s-87 -236.667 -129 -384z" />
    <glyph glyph-name="Q" unicode="Q" horiz-adv-x="983" 
d="M1062 -467c4 0 6.00391 -2.33496 6.00391 -7.00195c0 -2 -4 -7 -12 -15s-18.5 -17 -31.5 -27s-27.5 -20.167 -43.5 -30.5s-32.333 -18.833 -49 -25.5c-48.667 -22.667 -93.667 -34 -135 -34c-28 0 -54.333 4.5 -79 13.5s-47.834 21.333 -69.501 37s-41.667 34 -60 55
s-35.166 43.5 -50.499 67.5c-40.667 -19.333 -84.334 -29 -131.001 -29c-53.333 0 -99 11.5 -137 34.5s-69.167 53.667 -93.5 92s-42.166 82.5 -53.499 132.5s-17 101.667 -17 155c0 39.333 2.66699 78.333 8 117s13 77 23 115c-42.667 44 -74 95.833 -94 155.5
s-30 120.834 -30 183.501c0 78 13.333 152.167 40 222.5s64.5 132.333 113.5 186s108.333 96.5 178 128.5s147.5 49 233.5 51h15c45.333 0 85.666 -8.33301 120.999 -25s66.166 -39.5 92.499 -68.5s48.666 -62.833 66.999 -101.5s33.166 -80 44.499 -124
s19.5 -89.667 24.5 -137s7.5 -93.666 7.5 -138.999c0 -50.667 -3 -104.5 -9 -161.5s-15.333 -114.667 -28 -173s-28.667 -116 -48 -173s-42 -111 -68 -162s-55.5 -97.667 -88.5 -140s-69.833 -77.5 -110.5 -105.5c14.667 -22 31 -43.5 49 -64.5s37.667 -39.5 59 -55.5
s44 -29 68 -39s49.333 -15 76 -15c26 0 52 5 78 15c15.333 7.33301 30.833 16.333 46.5 27l43.5 30zM407.004 -449.002c40.667 0 81.6689 9.33496 123.002 28.002c-21.333 34 -40.833 71.5 -58.5 112.5s-33.834 83.333 -48.501 127s-27.334 87.167 -38.001 130.5
s-19 84.333 -25 123c-55.333 8 -105.666 26 -150.999 54c-6.66699 -34.667 -11.834 -69.334 -15.501 -104.001s-5.5 -69 -5.5 -103c0 -42 3.5 -84.833 10.5 -128.5s18.833 -83.334 35.5 -119.001s39 -64.667 67 -87s63.333 -33.5 106 -33.5zM437.006 74
c0 -28 3.49414 -60.9961 10.4941 -98.9961s17.167 -77.667 30.5 -119s29.333 -83 48 -125s40 -81.333 64 -118c37.333 26 71.833 58.667 103.5 98s60.334 83.166 86.001 131.499s48.334 100.333 68.001 156s36.167 112.5 49.5 170.5s23.333 116.5 30 175.5
s10 116.167 10 171.5c0 44 -2.33301 88.833 -7 134.5s-12.5 90.167 -23.5 133.5s-25.167 83.833 -42.5 121.5s-38.833 70.834 -64.5 99.501s-55.5 51.167 -89.5 67.5s-73 24.5 -117 24.5h-16c-79.333 -2 -149.666 -17.667 -210.999 -47s-113 -68.5 -155 -117.5
s-74 -106 -96 -171s-33 -134.5 -33 -208.5c0 -56.667 6.5 -110.834 19.5 -162.501s32.167 -98.5 57.5 -140.5c13.333 36 30 71.667 50 107s43 66.666 69 93.999s55.333 49.5 88 66.5s68.334 25.5 107.001 25.5c4 0 6 -2 6 -6c0 -4.66699 -2 -7 -6 -7
c-22.667 0 -44 -5.83301 -64 -17.5s-38.5 -27 -55.5 -46s-32.5 -40.833 -46.5 -65.5s-26.667 -50.334 -38 -77.001s-21.166 -53.334 -29.499 -80.001s-15.166 -51 -20.499 -73c22.667 -23.333 51 -44 85 -62s74 -27.333 120 -28h7c4 0 6 -2.33301 6 -7z" />
    <glyph glyph-name="R" unicode="R" horiz-adv-x="1220" 
d="M1290 1032c0 -47.333 -7.33496 -95.8379 -22.002 -145.505s-35.834 -98 -63.501 -145s-61.5 -92 -101.5 -135s-85.167 -81.667 -135.5 -116s-105.333 -63.5 -165 -87.5s-123.167 -40.333 -190.5 -49c54.667 -8 100.167 -23.833 136.5 -47.5s66.833 -52.167 91.5 -85.5
s44.5 -69.666 59.5 -108.999s28.333 -79 40 -119l34 -116.5c11 -37.667 24.667 -71 41 -100s36.666 -52.167 60.999 -69.5s55.5 -26 93.5 -26c4.66699 0 7 -2 7 -6c0 -4.66699 -2.33301 -7 -7 -7c-49.333 0 -90.5 9.5 -123.5 28.5s-60.833 44.333 -83.5 76
s-41.834 67.5 -57.501 107.5s-30.667 81 -45 123s-29.5 83.333 -45.5 124s-35.667 77 -59 109s-52.166 58 -86.499 78s-76.833 30.667 -127.5 32l-18 -66c-6.66699 -39.333 -14.667 -81.666 -24 -126.999s-20.666 -90.666 -33.999 -135.999s-29.166 -89 -47.499 -131
s-39.666 -79.167 -63.999 -111.5s-52.333 -58.166 -84 -77.499s-67.167 -29 -106.5 -29c-4.66699 0 -7 2.33301 -7 7c0 4 2.33301 6 7 6c34.667 0 65.834 12.833 93.501 38.5s52.167 60.667 73.5 105s39.833 96.333 55.5 156s29.5 123.5 41.5 191.5s22.5 138.667 31.5 212
s17.167 146 24.5 218s14 141.333 20 208s12.5 127.334 19.5 182.001s14.5 101.834 22.5 141.501s17.333 68.167 28 85.5c-21.333 -8.66699 -43.333 -23.5 -66 -44.5s-46.167 -44.667 -70.5 -71l-75 -81.5c-25.667 -28 -51.667 -53.667 -78 -77s-53 -42.5 -80 -57.5
s-53.833 -22.5 -80.5 -22.5c-15.333 0 -29.5 2.5 -42.5 7.5s-24.333 10.5 -34 16.5s-17.334 12 -23.001 18s-8.5 10 -8.5 12c0 4 2 6 6 6c2.66699 0 4.33398 -0.666992 5.00098 -2c30.667 -30 63 -45 97 -45c27.333 0 55 8.66699 83 26s55.833 38.833 83.5 64.5
s55.167 53.834 82.5 84.501l80 86.5c26 27 51.167 49.833 75.5 68.5s47.833 29.334 70.5 32.001c1.33301 0.666992 3.33301 1 6 1h75c4.66699 0 7 -2.33301 7 -7s-2.33301 -7 -7 -7c-12.667 0 -23.667 -11.667 -33 -35s-17.666 -55.333 -24.999 -96s-14 -88.167 -20 -142.5
s-12 -112.5 -18 -174.5l-19.5 -192.5c-7 -66.333 -14.833 -131.5 -23.5 -195.5l51.5 167.5c19.667 61.667 42.167 124 67.5 187s53.666 124.167 84.999 183.5s65.833 112.166 103.5 158.499s79 83.5 124 111.5s93.5 42 145.5 42c29.333 0 54.833 -5.33301 76.5 -16
s39.667 -25.334 54 -44.001s25 -40.834 32 -66.501s10.5 -53.167 10.5 -82.5zM544.998 361.995c68 4 131.498 16.498 190.498 37.498s112.667 48.333 161 82s91.5 72.334 129.5 116.001s69.833 90.334 95.5 140.001s45.334 101.5 59.001 155.5s20.5 108 20.5 162
c0 52.667 -7.66699 94.5 -23 125.5s-35.666 46.5 -60.999 46.5c-55.333 0 -108.333 -17.333 -159 -52s-99.667 -87.667 -147 -159s-93 -161.333 -137 -270s-87 -236.667 -129 -384z" />
    <glyph glyph-name="S" unicode="S" horiz-adv-x="1226" 
d="M1274 250c4 0 6 -2.32812 6 -6.99512c0 -4 -2 -6 -6 -6c-20 0 -44.333 -4.83301 -73 -14.5s-59.834 -22.334 -93.501 -38.001s-69 -33.667 -106 -54l-110.5 -63.5c-10.667 -73.333 -26 -142.166 -46 -206.499s-47.333 -120.333 -82 -168s-78.167 -85.334 -130.5 -113.001
s-116.166 -41.5 -191.499 -41.5c-70 0 -132 13.5 -186 40.5s-99.333 62.833 -136 107.5s-64.334 95.834 -83.001 153.501s-28 116.834 -28 177.501c0 62 9.33301 120.667 28 176s46 103.666 82 144.999s79.833 74 131.5 98s110.5 36 176.5 36
c54.667 0 104.167 -10.667 148.5 -32s79.5 -56.333 105.5 -105l86.5 54.5l87.5 52.5c3.33301 52 7.33301 104.5 12 157.5s11.334 104.333 20.001 154s20 96.167 34 139.5s32.167 81.166 54.5 113.499s49.5 57.833 81.5 76.5s70.333 28 115 28c32.667 0 60 -6.16699 82 -18.5
s39.5 -29.333 52.5 -51s22.167 -46.834 27.5 -75.501s8 -59.334 8 -92.001c0 -38.667 -11.167 -75.334 -33.5 -110.001s-52.5 -68.334 -90.5 -101.001s-82.167 -65 -132.5 -97l-160.5 -98c-3.33301 -64.667 -7 -129.167 -11 -193.5s-10.333 -127.5 -19 -189.5
c184 110 310.667 165 380 165zM1171 1097c-51.333 0 -92.166 -16.5 -122.499 -49.5s-54 -77.5 -71 -133.5s-28.833 -121.167 -35.5 -195.5s-12.334 -152.5 -17.001 -234.5l155.5 95.5c49 31 91.833 62.167 128.5 93.5s65.667 63.5 87 96.5s32 67.833 32 104.5
c0 30.667 -2.33301 59.5 -7 86.5s-13 50.667 -25 71s-28.167 36.333 -48.5 48s-45.833 17.5 -76.5 17.5zM441 -448.995c63.333 0 116.662 12.832 159.995 38.499s79.333 60 108 103s51.334 92.833 68.001 149.5s29.667 116.334 39 179.001l-90.5 -58l-74.5 -49
c-24 -34 -49.333 -51 -76 -51c-2 0 -3.66699 0.666992 -5 2s-2 3 -2 5c0 0.666992 0.333008 1.5 1 2.5s2.66699 2.83301 6 5.5s8.5 6.33398 15.5 11.001l29.5 20c9.33301 14 17.166 30 23.499 48s11.5 37 15.5 57s7 40 9 60s3 38.667 3 56c0 30 -2.16699 59 -6.5 87
s-11.166 54 -20.499 78c-52 -36 -101.667 -74.167 -149 -114.5s-89 -84 -125 -131s-64.667 -97.667 -86 -152s-32 -112.833 -32 -175.5c0 -4.66699 -2.33301 -7 -7 -7s-7 2.33301 -7 7c0 64.667 10.833 124.667 32.5 180s50.834 107 87.501 155s79.334 92.667 128.001 134
s99.667 80.333 153 117c-19.333 48 -46.666 85 -81.999 111s-79 39 -131 39c-64 0 -121 -11.667 -171 -35s-92.167 -55 -126.5 -95s-60.666 -86.667 -78.999 -140s-27.5 -110.333 -27.5 -171c0 -58 9 -114.833 27 -170.5s44.5 -105.334 79.5 -149.001s78.667 -79 131 -106
s112.833 -40.5 181.5 -40.5zM818.996 39.0039c9.33301 62 16.333 125.67 21 191.003s9 130.666 13 195.999l-83.5 -51.5l-82.5 -51.5c13.333 -28 22.166 -56.333 26.499 -85s6.5 -54.334 6.5 -77.001c0 -36.667 -4.16699 -74.334 -12.5 -113.001s-21.166 -74 -38.499 -106
l69.5 46z" />
    <glyph glyph-name="T" unicode="T" horiz-adv-x="1034" 
d="M1254 1020c-17.333 -17.333 -41.666 -30.4971 -72.999 -39.4971s-71 -15.167 -119 -18.5c-12 -0.666992 -24.333 -1.16699 -37 -1.5s-25.667 -0.5 -39 -0.5c-33.333 0 -68.166 0.833008 -104.499 2.5s-73.5 3.5 -111.5 5.5l-57.5 2c-19 0.666992 -38.167 1.66699 -57.5 3
c-0.666992 -1.33301 -1 -2.83301 -1 -4.5s-0.333008 -3.16699 -1 -4.5c-6.66699 -42.667 -12.334 -92.5 -17.001 -149.5l-15 -186.5c-4 -58.667 -8.5 -118.834 -13.5 -180.501s-11 -123.334 -18 -185.001s-15.333 -122 -25 -181s-21.167 -115.5 -34.5 -169.5
c-30 -118 -67 -207.333 -111 -268c-52 -72 -115 -108 -189 -108c-4.66699 0 -7 2.33301 -7 7s2.33301 7 7 7c54 0 100.333 32.667 139 98c17.333 30 33.333 65.833 48 107.5s28 90.834 40 147.501c11.333 52 21 106.833 29 164.5s15.167 116.5 21.5 176.5
s11.833 120.333 16.5 181s9 120 13 178l14.5 196c4.33301 60 9.83301 112.667 16.5 158l3 18h-42c-43.333 0 -85.333 -1.5 -126 -4.5s-79.334 -8.16699 -116.001 -15.5s-70.167 -17.666 -100.5 -30.999s-56.5 -30.333 -78.5 -51c-46.667 -44.667 -70 -105.667 -70 -183
c0 -4.66699 -2.33301 -7 -7 -7s-7 2.33301 -7 7c0 97.333 29.667 173.666 89 228.999c66.667 63.333 175 101 325 113c19.333 1.33301 39 2.5 59 3.5s40.333 1.5 61 1.5h26c6 25.333 13 43.666 21 54.999s17 17 27 17h76c4.66699 0 7 -2.33301 7 -7s-2.33301 -7 -7 -7
c-14.667 0 -28 -19.667 -40 -59c30.667 -1.33301 61 -2.83301 91 -4.5s59 -3.16699 87 -4.5c39.333 -2.66699 77 -4.83398 113 -6.50098s70 -2.5 102 -2.5c46 0 85.833 2.66699 119.5 8s58.5 15.666 74.5 30.999c12.667 12 19 27 19 45c0 4.66699 2.33301 7 7 7
s7 -2.33301 7 -7c0 -33.333 -11.333 -60.666 -34 -81.999z" />
    <glyph glyph-name="U" unicode="U" horiz-adv-x="1282" 
d="M1353 -449c4.66699 0 6.99414 -2.00293 6.99414 -6.00293c0 -4.66699 -2.33301 -7 -7 -7c-53.333 0 -97 13 -131 39s-60.667 60 -80 102s-32.666 89.5 -39.999 142.5s-11 106.5 -11 160.5c0 56.667 2.83301 114.5 8.5 173.5s13.167 116.833 22.5 173.5l-24 -84
l-34.5 -113c-13 -41.333 -27.5 -84.666 -43.5 -129.999s-33 -90 -51 -134s-37 -85.833 -57 -125.5s-40.5 -74.667 -61.5 -105s-42.5 -54.5 -64.5 -72.5s-44 -27 -66 -27c-30.667 0 -57 7.16699 -79 21.5s-40.667 33.5 -56 57.5s-27.666 51.833 -36.999 83.5
s-16.666 64.667 -21.999 99s-8.83301 68.833 -10.5 103.5s-2.5 67.334 -2.5 98.001c0 54 2.16699 111.167 6.5 171.5s10 122.333 17 186s15.5 128.167 25.5 193.5s20.667 129.5 32 192.5s23.166 124.333 35.499 184s24.833 115.834 37.5 168.501
c-25.333 -2 -51 -11.333 -77 -28s-52.167 -38 -78.5 -64s-52.666 -55.167 -78.999 -87.5l-78 -98.5l-76 -98c-25 -32 -49.333 -60.5 -73 -85.5s-46.667 -45 -69 -60s-43.833 -22.5 -64.5 -22.5c-8 0 -15.667 1.33301 -23 4s-13.666 5.66699 -18.999 9
s-9.66602 6.66602 -12.999 9.99902s-5 6 -5 8c0 4 2.33301 6 7 6c2 0 3.66699 -0.666992 5 -2c7.33301 -7.33301 14.833 -12.833 22.5 -16.5s16.167 -5.5 25.5 -5.5c19.333 0 40 7.83301 62 23.5s44.833 36.167 68.5 61.5s48 54.333 73 87l77 100.5l80 100.5
c27 32.667 54 61.667 81 87s54.167 45.833 81.5 61.5s54.333 23.5 81 23.5h68c4 0 6 -2.33301 6 -7c-30.667 -140.667 -57.667 -281 -81 -421l-30 -188c-10 -65.333 -18.667 -131.166 -26 -197.499s-13.333 -131.833 -18 -196.5s-7 -125.667 -7 -183
c0 -20.667 0.5 -44 1.5 -70s3 -52.667 6 -80s7.33301 -54 13 -80s13.334 -49.167 23.001 -69.5s21.667 -36.666 36 -48.999s31.833 -18.5 52.5 -18.5c23.333 0 46.666 11.167 69.999 33.5s46.5 52.166 69.5 89.499s45.333 80.666 67 129.999s42.5 100.833 62.5 154.5
s38.833 107.834 56.5 162.501s33.5 106.334 47.5 155.001l36.5 131.5l24.5 91.5c0.666992 2 2.16699 9 4.5 21s5.33301 26.5 9 43.5s7.83398 35.167 12.501 54.5l13.5 53.5c4.33301 16.333 8.33301 29.833 12 40.5s6.5 16 8.5 16h52c4.66699 0 7 -2.33301 7 -7
c-21.333 -84.667 -40.333 -171.667 -57 -261c-7.33301 -38 -14.333 -78.333 -21 -121s-12.5 -86.167 -17.5 -130.5s-9.16699 -89 -12.5 -134s-5 -88.5 -5 -130.5c0 -28 1 -57.167 3 -87.5s5.5 -60 10.5 -89s12 -56.667 21 -83s20.667 -49.333 35 -69
s31.5 -35.334 51.5 -47.001s44 -17.5 72 -17.5z" />
    <glyph glyph-name="V" unicode="V" horiz-adv-x="784" 
d="M992 914c4 -1.33301 6.00195 -3.99512 6.00195 -7.99512c-1.33301 -8.66699 -5.16602 -22.167 -11.499 -40.5s-14.666 -39 -24.999 -62s-22.833 -46.833 -37.5 -71.5s-31 -47.5 -49 -68.5s-37.5 -38.667 -58.5 -53s-43.5 -22.5 -67.5 -24.5
c-8 -36 -18.667 -78.333 -32 -127s-28.833 -100.167 -46.5 -154.5s-37.334 -110.333 -59.001 -168s-44.667 -113.834 -69 -168.501s-49.833 -106.334 -76.5 -155.001s-54 -91.167 -82 -127.5s-56 -65.166 -84 -86.499s-56 -32 -84 -32c-6.66699 0 -11.667 0.333008 -15 1
c-40 6 -73.333 23.5 -100 52.5s-47.667 65.5 -63 109.5s-26.166 93.667 -32.499 149s-9.5 112.666 -9.5 171.999c0 44 1.33301 88.167 4 132.5s6 87.166 10 128.499s8.5 80.5 13.5 117.5s9.83301 70.5 14.5 100.5c0.666992 2 2.16699 10.333 4.5 25s5.5 33.334 9.5 56.001
l13.5 76l15.5 85.5l16 84.5c5.33301 27.333 10.5 51.833 15.5 73.5s9.5 39 13.5 52s7.33301 19.5 10 19.5l52 -8c4 -1.33301 6 -3.33301 6 -6v-2c-8.66699 -38 -17.334 -80 -26.001 -126l-24.5 -137c-9 -52 -18.167 -108 -27.5 -168l-15 -106.5c-6 -43 -11.667 -90 -17 -141
s-9.83301 -104.5 -13.5 -160.5s-5.5 -111 -5.5 -165c0 -51.333 2.16699 -100.333 6.5 -147s11.833 -88.167 22.5 -124.5s24.834 -66 42.501 -89s39.834 -36.5 66.501 -40.5c2.66699 -0.666992 6.66699 -1 12 -1c29.333 0 60.166 14.5 92.499 43.5s65.166 68.5 98.499 118.5
s66.166 108.167 98.499 174.5s62.833 136.666 91.5 210.999s54.834 150.666 78.501 228.999s43.5 154.5 59.5 228.5c-3.33301 0 -6.5 0.166992 -9.5 0.5s-6.16699 0.833008 -9.5 1.5c-28 4 -51.833 13.667 -71.5 29s-35.834 34 -48.501 56s-21.834 46.667 -27.501 74
s-8.5 55.333 -8.5 84c0 11.333 0.5 22.666 1.5 33.999s2.16699 22.666 3.5 33.999c2.66699 18.667 7.16699 38.834 13.5 60.501s14.666 41.834 24.999 60.501s22.5 34.334 36.5 47.001s30 19 48 19c4.66699 0 8.33398 -0.333008 11.001 -1
c17.333 -2.66699 31.666 -10 42.999 -22s20.333 -27.167 27 -45.5s11.334 -39 14.001 -62s4 -46.5 4 -70.5c0 -32 -1.5 -63 -4.5 -93s-6.16699 -56.667 -9.5 -80c-3.33301 -17.333 -6.5 -35.333 -9.5 -54s-6.5 -37.667 -10.5 -57c28.667 3.33301 55.5 16.166 80.5 38.499
s47.5 49 67.5 80s37.167 63.667 51.5 98s25.166 65.166 32.499 92.499c1.33301 3.33301 4 5 8 5zM737.002 599.005c4.66699 19.333 8.66797 38.667 12.001 58s6.33301 38 9 56c3.33301 21.333 6.66602 47.5 9.99902 78.5s5 62.5 5 94.5c0 22.667 -1.16699 44.5 -3.5 65.5
s-6.5 40 -12.5 57s-14 31 -24 42s-22.333 17.5 -37 19.5h-2c-10 0 -20.667 -11.833 -32 -35.5s-20.666 -59.167 -27.999 -106.5c-2 -14 -3.66699 -30.167 -5 -48.5s-2 -37.5 -2 -57.5c0 -24.667 1.33301 -49.667 4 -75s7.5 -48.333 14.5 -69s16.167 -38.167 27.5 -52.5
s26 -22.833 44 -25.5c3.33301 -0.666992 6.66602 -1 9.99902 -1h10z" />
    <glyph glyph-name="W" unicode="W" horiz-adv-x="1270" 
d="M1436 987c4.66699 0 6.99707 -2.33496 6.99707 -7.00195c0 -5.33301 -1.66699 -17.5 -5 -36.5s-8.5 -41.333 -15.5 -67s-16 -52.834 -27 -81.501s-24.667 -55.334 -41 -80.001s-35.166 -45.5 -56.499 -62.5s-45.666 -26.833 -72.999 -29.5
c-7.33301 -73.333 -18.5 -151.166 -33.5 -233.499s-33 -163.666 -54 -243.999s-44.5 -157.166 -70.5 -230.499s-53.667 -138 -83 -194s-60 -100.5 -92 -133.5s-64.333 -49.5 -97 -49.5c-38.667 0 -71.667 9.83301 -99 29.5s-50.666 45.834 -69.999 78.501
s-34.833 70.167 -46.5 112.5s-20.667 86.166 -27 131.499s-10.5 90.833 -12.5 136.5s-3 87.834 -3 126.501c0 45.333 1 90.666 3 135.999s4.66699 90.666 8 135.999l-16 -88.5c-6.66699 -37 -14.834 -78.333 -24.501 -124s-20.5 -94.167 -32.5 -145.5
s-25.167 -101.833 -39.5 -151.5s-29.666 -97.334 -45.999 -143.001s-33.833 -85.834 -52.5 -120.501s-38.167 -62.334 -58.5 -83.001s-41.5 -31 -63.5 -31c-30.667 0 -57 7.16699 -79 21.5s-40.667 33.5 -56 57.5s-27.666 51.833 -36.999 83.5s-16.666 64.667 -21.999 99
s-8.83301 68.833 -10.5 103.5s-2.5 67.334 -2.5 98.001c0 72 3.66699 149.333 11 232s16.666 165.167 27.999 247.5s23.666 161.5 36.999 237.5s26 143.167 38 201.5s22.5 104.833 31.5 139.5s14.833 52 17.5 52h68c4.66699 0 7 -2.33301 7 -7
c-30.667 -140.667 -57.667 -281 -81 -421l-30 -188c-10 -65.333 -18.667 -131.166 -26 -197.499s-13.333 -131.833 -18 -196.5s-7 -125.667 -7 -183c0 -20.667 0.333008 -44 1 -70s2.5 -52.667 5.5 -80s7.33301 -54 13 -80s13.334 -49.167 23.001 -69.5
s21.667 -36.666 36 -48.999s31.833 -18.5 52.5 -18.5c23.333 0 45.833 13.167 67.5 39.5s42.5 61.666 62.5 105.999s38.833 95.333 56.5 153s34.334 117.834 50.001 180.501s30 125.667 43 189s24.5 122.833 34.5 178.5s18.5 105.334 25.5 149.001
s12.167 76.834 15.5 99.501c0 2 0.666992 7.33301 2 16s2.66602 19 3.99902 31s3 24.5 5 37.5s4 25.167 6 36.5s4 20.666 6 27.999s4 11 6 11h52c4.66699 0 7 -2.33301 7 -7c-8.66699 -68 -16.667 -139.333 -24 -214c-6 -64 -11.5 -136 -16.5 -216s-7.5 -160.667 -7.5 -242
c0 -29.333 0.5 -64 1.5 -104s3.5 -81.333 7.5 -124s10 -84.667 18 -126s18.833 -78.5 32.5 -111.5s30.667 -59.667 51 -80s45.166 -30.5 74.499 -30.5s59 15.833 89 47.5s59.167 74.334 87.5 128.001s55.333 116.167 81 187.5s49 146.666 70 225.999
s39.167 160.333 54.5 243s27 162.334 35 239.001h-1c-34 0 -63.333 8.5 -88 25.5s-45 39 -61 66s-27.833 57.5 -35.5 91.5s-11.5 68 -11.5 102c0 20 1.66699 41.833 5 65.5s9 45.667 17 66s18.667 37.5 32 51.5s30 21 50 21c26 0 46.833 -10.667 62.5 -32
s27.5 -47.333 35.5 -78s13.167 -63.167 15.5 -97.5s3.5 -64.5 3.5 -90.5c0 -55.333 -3 -114 -9 -176c27.333 3.33301 51.333 14.333 72 33s38.5 41 53.5 67s27.5 53.667 37.5 83s18.167 56.333 24.5 81s11 45.167 14 61.5s5.5 24.5 7.5 24.5zM1213 635.998
c6 62.667 8.99805 121.668 8.99805 177.001c0 15.333 -0.333008 33 -1 53s-2.33398 40.5 -5.00098 61.5s-6.33398 41.667 -11.001 62s-10.667 38.5 -18 54.5s-16.666 28.833 -27.999 38.5s-24.666 14.5 -39.999 14.5c-9.33301 0 -18.166 -12.5 -26.499 -37.5
s-12.5 -62.167 -12.5 -111.5c0 -16.667 0.833008 -36 2.5 -58s4.66699 -44.5 9 -67.5s9.83301 -45.667 16.5 -68s14.834 -42.333 24.501 -60s21 -31.834 34 -42.501s27.833 -16 44.5 -16h2z" />
    <glyph glyph-name="X" unicode="X" horiz-adv-x="1035" 
d="M1191 -162c4.66699 0 7.00098 -2.32617 7.00098 -6.99316c0 -4 -2 -14 -6 -30s-10.167 -34.833 -18.5 -56.5s-18.833 -44.667 -31.5 -69s-27.334 -46.666 -44.001 -66.999s-35.334 -37.166 -56.001 -50.499s-43.667 -20 -69 -20c-40 0 -75.833 9.66699 -107.5 29
s-60 45.166 -85 77.499s-47 69.5 -66 111.5s-35.667 85.833 -50 131.5s-26.666 91.5 -36.999 137.5s-19.166 89 -26.499 129l-153.5 -235c-51 -74.667 -101.167 -140.167 -150.5 -196.5s-97.5 -101.166 -144.5 -134.499s-92.167 -50 -135.5 -50c-4.66699 0 -7 2.33301 -7 7
c0 4 2.33301 6 7 6c29.333 0 59.833 8.5 91.5 25.5s63.834 40.5 96.501 70.5s65.667 65 99 105s66.666 83.167 99.999 129.5s66.166 94.333 98.499 144l94.5 148.5c-13.333 69.333 -25.5 140.166 -36.5 212.499s-22.333 142.333 -34 210s-24 131.5 -37 191.5
s-27.667 112.167 -44 156.5s-35.333 79.5 -57 105.5s-46.5 39 -74.5 39c-26 0 -49.667 -8 -71 -24s-40.666 -37.167 -57.999 -63.5s-32.166 -56.333 -44.499 -90s-22.833 -68.167 -31.5 -103.5s-15 -69.833 -19 -103.5s-6 -63.834 -6 -90.501c0 -33.333 2.66699 -67 8 -101
s14.5 -64.667 27.5 -92s30.333 -49.833 52 -67.5s49.167 -26.5 82.5 -26.5c4 0 6 -2.33301 6 -7s-2 -7 -6 -7c-35.333 0 -64.666 9.16699 -87.999 27.5s-42 41.833 -56 70.5s-24 60.834 -30 96.501s-9 71.167 -9 106.5c0 28.667 2.16699 60.5 6.5 95.5s11 70.667 20 107
s20.167 71.666 33.5 105.999s29 64.666 47 90.999s38.333 47.666 61 63.999s47.667 24.5 75 24.5c36 0 68 -11.167 96 -33.5s53.167 -52.833 75.5 -91.5s42 -84.334 59 -137.001s32.667 -109.334 47 -170.001s27.333 -123.834 39 -189.501l34.5 -196.5l123 201l120 191
c39.333 60.667 77.833 117 115.5 169s74.167 97 109.5 135s69.333 67.833 102 89.5s63.667 32.5 93 32.5c4 0 6 -2.33301 6 -7c0 -4 -2 -6 -6 -6c-29.333 0 -60.5 -11.667 -93.5 -35s-67.5 -55 -103.5 -95s-73.167 -87 -111.5 -141s-77 -111.667 -116 -173l-118 -190
l-117.5 -192l28 -157c10 -54.667 21.167 -108.334 33.5 -161.001s26.166 -102.834 41.499 -150.501s32.833 -89.5 52.5 -125.5s41.667 -64.667 66 -86s52.166 -32 83.499 -32c25.333 0 48.166 7.16699 68.499 21.5s38.333 32 54 53s29 44 40 69s20.333 48 28 69
s13.667 38.667 18 53s7.5 21.5 9.5 21.5z" />
    <glyph glyph-name="Y" unicode="Y" horiz-adv-x="763" 
d="M789 754c4.66699 0 6.99707 -2.33301 6.99707 -7s-2.33301 -7 -7 -7c-6.66699 0 -14 -13.667 -22 -41s-16.667 -63.666 -26 -108.999s-19.5 -97.666 -30.5 -156.999s-23.5 -121.333 -37.5 -186s-29.667 -129.334 -47 -194.001s-36.333 -125.334 -57 -182.001
c-14 -37.333 -30.5 -75.5 -49.5 -114.5s-41 -74.833 -66 -107.5s-53.5 -59.334 -85.5 -80.001s-67.667 -31 -107 -31c-40.667 0 -76.334 5.66699 -107.001 17s-56.167 27 -76.5 47s-35.666 43.333 -45.999 70s-15.5 55.667 -15.5 87c0 22.667 3.16699 45.834 9.5 69.501
s15.5 45 27.5 64s26.667 34.5 44 46.5s37 18 59 18c4 0 6 -2 6 -6c0 -4.66699 -2 -7 -6 -7c-19.333 0 -36.666 -5.5 -51.999 -16.5s-28.5 -25.167 -39.5 -42.5s-19.5 -37.166 -25.5 -59.499s-9 -44.5 -9 -66.5c0 -25.333 4 -50.333 12 -75s21.167 -46.834 39.5 -66.501
s42.166 -35.667 71.499 -48s65.333 -18.5 108 -18.5c34 0 65.333 12.5 94 37.5s54.834 58.5 78.501 100.5s45.167 91 64.5 147s37 114.833 53 176.5s30.5 124.5 43.5 188.5l36 184l30 162c9 49.333 17.833 90.333 26.5 123c-16 -33.333 -33.667 -74 -53 -122
s-40.666 -98.333 -63.999 -151s-48 -105.167 -74 -157.5s-53.667 -99.166 -83 -140.499s-59.833 -75 -91.5 -101s-64.167 -39 -97.5 -39c-29.333 0 -53.666 5.16699 -72.999 15.5s-35 24.5 -47 42.5s-20.5 39.333 -25.5 64s-7.5 51.667 -7.5 81
c0 42 4.33301 88.167 13 138.5s19.334 102.333 32.001 156s26.5 107.5 41.5 161.5l41.5 155c12.667 49.333 23.334 95.166 32.001 137.499s13 78.5 13 108.5c0 20 -3 38 -9 54s-18.667 24 -38 24c-4.66699 0 -7 2.33301 -7 7s2.33301 7 7 7h72c10 0 18.333 -2.5 25 -7.5
s11.667 -11.333 15 -19s5.66602 -16.5 6.99902 -26.5s2 -20 2 -30c0 -30.667 -4.5 -68.834 -13.5 -114.501s-20.333 -95.5 -34 -149.5l-44 -169c-15.667 -58.667 -30.334 -116.5 -44.001 -173.5s-25 -111.667 -34 -164s-13.5 -98.833 -13.5 -139.5
c0 -18.667 1.16699 -36.667 3.5 -54s6.83301 -32.833 13.5 -46.5s15.834 -24.5 27.501 -32.5s26.5 -12 44.5 -12c30 0 59.167 11.167 87.5 33.5s55.666 51.833 81.999 88.5s51.833 78.334 76.5 125.001s48 94.5 70 143.5l62 143.5l53 125c16 36.667 30.333 66.167 43 88.5
s23.667 33.5 33 33.5h58z" />
    <glyph glyph-name="Z" unicode="Z" horiz-adv-x="741" 
d="M810 250c4 0 6.00781 -2.33203 6.00781 -6.99902c0 -16.667 -7.66699 -32.5 -23 -47.5s-36 -29.667 -62 -44s-56.333 -28.333 -91 -42l-110 -42.5c8.66699 -26.667 13 -57 13 -91c0 -50 -9.83301 -100.833 -29.5 -152.5s-46.167 -98.667 -79.5 -141s-72 -77 -116 -104
s-90.667 -40.5 -140 -40.5c-18.667 0 -37.167 4.5 -55.5 13.5s-34.833 22 -49.5 39s-26.5 37.833 -35.5 62.5s-13.5 52.334 -13.5 83.001c0 36 12 69 36 99s55.667 57.5 95 82.5s84 48.167 134 69.5s101 41.666 153 60.999c-12.667 58 -37.5 104 -74.5 138
s-86.5 51 -148.5 51c-4 0 -6 2 -6 6c0 4.66699 2 7 6 7c36 0 74.167 13.333 114.5 40s80.166 61.667 119.499 105s77 92.166 113 146.499s67.667 109.5 95 165.5s49.166 109.833 65.499 161.5s24.5 96.167 24.5 133.5c0 28 -5.33301 50.833 -16 68.5s-29.667 26.5 -57 26.5
c-38.667 0 -74.334 -8.16699 -107.001 -24.5s-63.5 -37.833 -92.5 -64.5s-56.333 -57 -82 -91s-50.5 -68.833 -74.5 -104.5l-70.5 -104.5c-23 -34 -46.5 -64.333 -70.5 -91s-48.667 -48.167 -74 -64.5s-52 -24.5 -80 -24.5c-4.66699 0 -7 2.33301 -7 7s2.33301 7 7 7
c26.667 0 52.167 8.16699 76.5 24.5s48.166 37.833 71.499 64.5s46.333 57 69 91l70.5 104.5c24.333 35.667 49.5 70.5 75.5 104.5s53.667 64.333 83 91s61 48.167 95 64.5s70.667 24.5 110 24.5c47.333 0 82.166 -14.5 104.499 -43.5s33.5 -67.167 33.5 -114.5
c0 -38.667 -6.66699 -81.5 -20 -128.5s-31.833 -94.833 -55.5 -143.5s-51.834 -96.667 -84.501 -144s-68.5 -90.833 -107.5 -130.5s-80.167 -73.667 -123.5 -102s-87.333 -47.833 -132 -58.5c54 -7.33301 101.667 -24.333 143 -51s71.333 -65 90 -115l105 40
c33.333 13.333 62.666 26.666 87.999 39.999s45.666 26.833 60.999 40.5s23 27.834 23 42.501c0 4.66699 2.33301 7 7 7zM178.008 -448.999c42.667 0 80.833 13.001 114.5 39.001s62.167 59 85.5 99s41.333 83.833 54 131.5s19 93.5 19 137.5
c0 28.667 -2.33301 54.334 -7 77.001l-82.5 -31.5c-29.667 -11.667 -59.5 -24.5 -89.5 -38.5s-59.167 -29.167 -87.5 -45.5s-53.333 -34 -75 -53s-39 -39.333 -52 -61s-19.5 -44.834 -19.5 -69.501c0 -28.667 4.16699 -54.334 12.5 -77.001s19.166 -42 32.499 -58
s28.333 -28.333 45 -37s33.334 -13 50.001 -13z" />
    <glyph glyph-name="bracketleft" unicode="[" horiz-adv-x="480" 
d="M22 4c-4.66699 0 -7 2.33398 -7 7.00098l10.5 45.5l28 119.5l40 169l46.5 194l48.5 193.5l45 168.5c13.667 49.333 25.5 89.166 35.5 119.499s17 45.5 21 45.5h175c4.66699 0 7 -2.33301 7 -7s-2.33301 -7 -7 -7h-17c-39.333 -0.666992 -66 -3.66699 -80 -9
s-21.667 -11 -23 -17l-19 -64l-30.5 -104l-38.5 -132.5l-43 -150l-43.5 -156l-40 -150.5c-12.333 -48 -23 -92.5 -32 -133.5s-15.833 -75.833 -20.5 -104.5c8 -0.666992 19.833 -1.5 35.5 -2.5s31 -2.5 46 -4.5s28.167 -4.5 39.5 -7.5s17 -6.83301 17 -11.5
s-2.33301 -7 -7 -7z" />
    <glyph glyph-name="backslash" unicode="\" horiz-adv-x="406" 
d="M331 4l-155.999 517l-38.5 129l-36.5 122.5l-31.5 109.5l-25.5 88.5c-7.33301 25 -13 45.167 -17 60.5s-6 24 -6 26c0 2.66699 0.333008 4.33398 1 5.00098l3 3c0.666992 0.666992 2 1 4 1h41c3.33301 0 8.66602 -9.83301 15.999 -29.5s16.333 -46.334 27 -80.001
s22.5 -73 35.5 -118l40.5 -143.5l42.5 -156l41.5 -156l37.5 -143.5l30.5 -118.5l20.5 -80.5l7.5 -29.5c0 -4.66699 -2.33301 -7 -7 -7h-30z" />
    <glyph glyph-name="bracketright" unicode="]" horiz-adv-x="467" 
d="M18 -2c-4.66699 0 -7 2.33398 -7 7.00098s2.33301 7 7 7h17c39.333 0 66 2.83301 80 8.5s21.667 11.5 23 17.5l19 64l30.5 104l38.5 132.5l43 150l43.5 156l40 150c12.333 47.667 23 92 32 133s15.833 75.833 20.5 104.5c-8 0.666992 -19.833 1.5 -35.5 2.5
s-31 2.5 -46 4.5s-28.167 4.66699 -39.5 8s-17 7.33301 -17 12s2.33301 7 7 7l187 -6c4.66699 0 7 -2.33301 7 -7l-7 -30l-18.5 -80.5l-27.5 -118l-34.5 -143.5l-38 -156l-38.5 -156l-37 -143.5c-12 -45 -23 -84.333 -33 -118s-18.5 -60.334 -25.5 -80.001
s-12.167 -29.5 -15.5 -29.5h-175z" />
    <glyph glyph-name="asciicircum" unicode="^" horiz-adv-x="385" 
d="M10 821c-4.66699 0 -6.99707 2.00098 -6.99707 6.00098c0 4.66699 2.33301 7 7 7c12.667 0 24.334 5.66699 35.001 17s21.167 25.666 31.5 42.999l32 56c11 20 22.833 38.667 35.5 56s26.667 31.666 42 42.999s33 17 53 17c12 0 23.5 -5.83301 34.5 -17.5
s21.5 -26.167 31.5 -43.5s18.833 -36.333 26.5 -57l20.5 -57.5c6 -17.667 10.5 -32.5 13.5 -44.5s4.5 -18.333 4.5 -19c0 -4 -2 -6 -6 -6c-1.33301 0 -4 5.66699 -8 17l-14.5 43c-5.66699 17.333 -12.334 35.833 -20.001 55.5s-15.834 38.167 -24.501 55.5
s-18 31.666 -28 42.999s-20 17 -30 17c-8 0 -15.833 -5.66699 -23.5 -17s-15.834 -25.666 -24.501 -42.999l-29 -55.5c-10.667 -19.667 -23.167 -38.167 -37.5 -55.5s-30.833 -31.666 -49.5 -42.999s-40.334 -17 -65.001 -17z" />
    <glyph glyph-name="underscore" unicode="_" horiz-adv-x="500" 
d="M0 -78v29h500v-29h-500z" />
    <glyph glyph-name="grave" unicode="`" horiz-adv-x="500" 
d="M295 527l-161 98c-20 14 -30 27.667 -30 41c0 9.33301 3.16699 17.333 9.5 24s15.166 10 26.499 10c6.66699 0 13.334 -2 20.001 -6s15.667 -11.667 27 -23l142 -144h-34z" />
    <glyph glyph-name="a" unicode="a" horiz-adv-x="623" 
d="M638 243c0 -1.33301 -3.66602 -13.167 -10.999 -35.5s-17.166 -49.833 -29.499 -82.5s-26.833 -67.834 -43.5 -105.501s-34.334 -72.5 -53.001 -104.5s-37.834 -58.667 -57.501 -80s-38.834 -32 -57.501 -32c-20 0 -36.167 5 -48.5 15s-22 23 -29 39s-11.833 34 -14.5 54
s-4 40 -4 60c0 28.667 2 59.667 6 93s9.33301 67 16 101s13.834 67.5 21.501 100.5s15.5 63.5 23.5 91.5c-1.33301 -2.66699 -2.5 -5.16699 -3.5 -7.5l-3.5 -8.5l-1 -1l-28.5 -61c-11 -23.333 -23.5 -47.666 -37.5 -72.999s-29.167 -50.333 -45.5 -75
s-33.333 -46.667 -51 -66s-35.834 -35 -54.501 -47s-37.334 -18 -56.001 -18c-30 0 -53 11 -69 33s-24 53.667 -24 95c0 24.667 3 51 9 79s14.667 56 26 84s24.833 54.667 40.5 80s33.167 47.833 52.5 67.5s40.333 35.334 63 47.001s46.667 17.5 72 17.5
c16.667 0 30.834 -5 42.501 -15s21.5 -22 29.5 -36s14.333 -28.833 19 -44.5s8 -28.834 10 -39.501l14.5 35l18.5 45c6 14.667 11.5 27.5 16.5 38.5s8.16699 16.5 9.5 16.5h42c4.66699 0 7 -2 7 -6c-20.667 -73.333 -39.334 -145 -56.001 -215
c-7.33301 -30 -14.333 -61 -21 -93s-12.5 -63.667 -17.5 -95s-9.16699 -61.5 -12.5 -90.5s-5 -55.5 -5 -79.5c0 -10 0.333008 -21.167 1 -33.5s2.5 -24 5.5 -35s7.33301 -20.167 13 -27.5s13.5 -11 23.5 -11c17.333 0 35.333 10.667 54 32s36.834 48 54.501 80
s34.334 66.833 50.001 104.5l42 104.5l30.5 80c8 21.333 12.667 32 14 32c4.66699 0 7 -2.33301 7 -7zM76.001 12.999c17.333 0 34.8281 6.00098 52.4951 18.001s34.834 27.667 51.501 47s32.834 41 48.501 65s30.334 48.333 44.001 73s25.834 48.334 36.501 71.001l27 58
l-5 29.5c-2.66699 15.667 -7.5 32 -14.5 49s-16.167 32.333 -27.5 46s-25.666 20.5 -42.999 20.5c-14.667 0 -30 -6.83301 -46 -20.5s-31.833 -31.834 -47.5 -54.501s-30.667 -48.334 -45 -77.001s-26.833 -58 -37.5 -88s-19.167 -59.5 -25.5 -88.5s-9.5 -54.833 -9.5 -77.5
c0 -8 0.5 -16.167 1.5 -24.5s3 -15.833 6 -22.5s6.83301 -12.167 11.5 -16.5s11 -6.83301 19 -7.5h3z" />
    <glyph glyph-name="b" unicode="b" horiz-adv-x="556" 
d="M635 964c0 -36.667 -5.83203 -77.332 -17.499 -121.999s-28.667 -89.834 -51 -135.501s-49.666 -90 -81.999 -133s-68.833 -81.333 -109.5 -115s-85.5 -60.834 -134.5 -81.501s-101.5 -31.334 -157.5 -32.001c-11.333 -56.667 -20.666 -108.167 -27.999 -154.5
s-13 -85.166 -17 -116.499c10 27.333 22.667 57.5 38 90.5s33 63.833 53 92.5s42.333 52.667 67 72s51.667 29 81 29c37.333 0 66.666 -11.5 87.999 -34.5s35.666 -53.167 42.999 -90.5c25.333 5.33301 51.666 9.5 78.999 12.5s56 4.5 86 4.5c4.66699 0 7 -2.33301 7 -7
s-2.33301 -7 -7 -7c-30 0 -58.5 -1.33301 -85.5 -4s-52.5 -6.66699 -76.5 -12c2 -16 3 -33 3 -51c0 -33.333 -3.83301 -67.833 -11.5 -103.5s-18.834 -70.667 -33.501 -105s-32.5 -66.666 -53.5 -96.999s-44.667 -57 -71 -80s-55.333 -41.167 -87 -54.5
s-65.167 -20 -100.5 -20c-28 0 -49.833 9 -65.5 27s-23.5 43.333 -23.5 76c0 31.333 8 66.5 24 105.5s40 77.5 72 115.5s72 73.5 120 106.5s103.667 59.167 167 78.5v2c0 14.667 -1.16699 29.5 -3.5 44.5s-6.16602 28.5 -11.499 40.5s-12.833 21.667 -22.5 29
s-21.834 11 -36.501 11c-24 0 -46.5 -7.5 -67.5 -22.5s-40.333 -34.167 -58 -57.5s-33.667 -48.833 -48 -76.5s-26.666 -54 -36.999 -79s-18.666 -47.167 -24.999 -66.5s-10.166 -32 -11.499 -38c0 -0.666992 -1.66699 -4 -5 -10s-10.333 -9 -21 -9
c-11.333 0 -18.333 3.16699 -21 9.5s-4 10.166 -4 11.499c0 24.667 1.83301 59.334 5.5 104.001s10 95.167 19 151.5s20.5 116.333 34.5 180s31.333 127 52 190s45 123.167 73 180.5s60 108 96 152s76.5 79.167 121.5 105.5s94.833 39.5 149.5 39.5
c19.333 0 35.666 -4 48.999 -12s24.166 -18.667 32.499 -32s14.333 -28.833 18 -46.5s5.5 -36.167 5.5 -55.5zM530.001 1097c-43.333 0 -83.334 -12.333 -120.001 -37s-70 -57.334 -100 -98.001s-56.833 -87 -80.5 -139s-44.667 -105.333 -63 -160
s-34.166 -108.5 -47.499 -161.5s-24.333 -100.833 -33 -143.5c50.667 1.33301 99 11.5 145 30.5s88.833 44.333 128.5 76s75.5 67.834 107.5 108.501s59.5 83.334 82.5 128.001s40.667 89.5 53 134.5s18.5 87.833 18.5 128.5c0 17.333 -1.5 34 -4.5 50s-8 30.167 -15 42.5
s-16.333 22.166 -28 29.499s-26.167 11 -43.5 11zM57 -276.998c26.667 0 52.168 8.00195 76.501 24.002s47.166 37.167 68.499 63.5s40.833 56.333 58.5 90s33 68.334 46 104.001s23.333 70.834 31 105.501s12.167 66 13.5 94c-60 -18.667 -113 -43.834 -159 -75.501
s-84.5 -65.834 -115.5 -102.501s-54.5 -73.834 -70.5 -111.501s-24 -71.834 -24 -102.501c0 -28.667 6.5 -50.667 19.5 -66s31.5 -23 55.5 -23z" />
    <glyph glyph-name="c" unicode="c" horiz-adv-x="356" 
d="M375 243c0 -2.66699 -2.83398 -10.5029 -8.50098 -23.5029s-13.667 -28.5 -24 -46.5s-22.666 -37.167 -36.999 -57.5s-29.833 -39 -46.5 -56s-34.5 -31.167 -53.5 -42.5s-38.5 -17 -58.5 -17c-26 0 -48.5 4.5 -67.5 13.5s-34.667 21.5 -47 37.5
s-21.666 34.833 -27.999 56.5s-9.5 45.167 -9.5 70.5c0 34.667 5.66699 71 17 109s27 73 47 105s44.167 58.5 72.5 79.5s59.5 31.5 93.5 31.5c23.333 0 40.333 -7.66699 51 -23s16 -34.333 16 -57c0 -13.333 -1.5 -25.833 -4.5 -37.5s-6.66699 -21.667 -11 -30
s-8.5 -14.833 -12.5 -19.5s-7 -7 -9 -7c-4.66699 0 -7 2.33301 -7 7c0 2 0.666992 3.66699 2 5c8 8 14.667 19.667 20 35s8 31 8 47c0 18.667 -4 34.5 -12 47.5s-21.667 19.5 -41 19.5c-15.333 0 -30 -6.16699 -44 -18.5s-26.833 -28.5 -38.5 -48.5
s-22.334 -42.5 -32.001 -67.5s-17.834 -50.167 -24.501 -75.5s-11.834 -49.833 -15.501 -73.5s-5.5 -43.834 -5.5 -60.501c0 -12 0.833008 -25.667 2.5 -41s5.33398 -29.666 11.001 -42.999s13.667 -24.666 24 -33.999s24.166 -14.333 41.499 -15h3
c20 0 39.333 5.83301 58 17.5s35.834 26.334 51.501 44.001s30 36.667 43 57s24.333 39.333 34 57s17.334 32.334 23.001 44.001s9.5 17.5 11.5 17.5c4.66699 0 7 -2.33301 7 -7z" />
    <glyph glyph-name="d" unicode="d" horiz-adv-x="740" 
d="M935 996c0 -33.333 -6.32227 -71.502 -18.9893 -114.502s-30.5 -87.167 -53.5 -132.5s-50.833 -90.333 -83.5 -135s-68.834 -85.667 -108.501 -123s-82.334 -69.166 -128.001 -95.499s-93.167 -43.833 -142.5 -52.5c-7.33301 -52 -13 -103 -17 -153s-6 -98.333 -6 -145
c0 -54 2.5 -102.5 7.5 -145.5s12.333 -79.5 22 -109.5s21.167 -53.167 34.5 -69.5s28.666 -24.5 45.999 -24.5c24 0 46.833 13.667 68.5 41s41.834 61.5 60.501 102.5s35.667 85.5 51 133.5s28.666 92.5 39.999 133.5s20.333 75.167 27 102.5s11 41 13 41
c4.66699 0 7 -2.33301 7 -7c0 -1.33301 -1.66699 -10.333 -5 -27s-8.33301 -38.167 -15 -64.5s-14.834 -56.333 -24.501 -90s-20.334 -67.834 -32.001 -102.501s-24.667 -68.5 -39 -101.5s-29.5 -62.5 -45.5 -88.5s-33 -46.833 -51 -62.5s-36.333 -23.5 -55 -23.5h-3
c-24 0.666992 -45.167 7.33398 -63.5 20.001s-33.833 29.5 -46.5 50.5s-23.167 45 -31.5 72s-14.833 54.833 -19.5 83.5s-7.83398 57.334 -9.50098 86.001s-2.5 55 -2.5 79c0 39.333 1.66699 79.5 5 120.5s8.33301 82.5 15 124.5l-22.5 -66
c-9 -26 -19.5 -53.167 -31.5 -81.5s-25.167 -56.5 -39.5 -84.5s-29.5 -53.167 -45.5 -75.5s-33 -40.333 -51 -54s-36.333 -20.5 -55 -20.5c-20 0 -36.833 4.33301 -50.5 13s-24.834 20.334 -33.501 35.001s-14.834 31.5 -18.501 50.5s-5.5 38.5 -5.5 58.5
c0 26 2.83301 54.167 8.5 84.5s13.834 60.666 24.501 90.999s23.667 59.5 39 87.5s32.666 52.833 51.999 74.5s40.166 39 62.499 52s46.166 19.5 71.499 19.5c15.333 0 28.666 -4.33301 39.999 -13s21 -19.334 29 -32.001s14.333 -26.167 19 -40.5
s8.33398 -27.5 11.001 -39.5c8 26.667 14.667 50.334 20 71.001c9.33301 41.333 21 85.333 35 132s30.667 93.167 50 139.5s41.166 91.166 65.499 134.499s51.5 82.333 81.5 117s62.833 63.834 98.5 87.501s74.5 39.167 116.5 46.5c11.333 2.66699 25.333 4 42 4
c32.667 0 56 -11 70 -33s21 -49 21 -81zM806.011 1093c-35.333 -6.66699 -68.499 -21.335 -99.499 -44.002s-60 -51.5 -87 -86.5s-51.833 -75.5 -74.5 -121.5s-43 -95.167 -61 -147.5s-34 -107 -48 -164s-25.333 -114.5 -34 -172.5c44.667 8 88.5 24.333 131.5 49
s83.667 54.667 122 90s73.666 74.333 105.999 117s60.333 86.334 84 131.001s42.167 88.667 55.5 132s20 83.333 20 120c0 28 -5.66699 51.833 -17 71.5s-31.333 29.5 -60 29.5c-6.66699 -0.666992 -13.167 -1.16699 -19.5 -1.5s-12.5 -1.16602 -18.5 -2.49902z
M86.0117 -49.0029c18 0 35.834 7.5 53.501 22.5s34.5 34.333 50.5 58s31 50.334 45 80.001s26.833 59.167 38.5 88.5s22 57.166 31 83.499s16.167 48.166 21.5 65.499l-6.5 33.5c-3 15.667 -8 31.5 -15 47.5s-16 30 -27 42s-24.833 18 -41.5 18
c-14 0 -28.667 -7.33301 -44 -22s-30.166 -34.167 -44.499 -58.5s-27.833 -52.166 -40.5 -83.499s-23.834 -63.5 -33.501 -96.5s-17.334 -65.667 -23.001 -98s-8.5 -61.833 -8.5 -88.5c0 -9.33301 0.5 -19.5 1.5 -30.5s3.16699 -21 6.5 -30s7.83301 -16.5 13.5 -22.5
s13.167 -9 22.5 -9z" />
    <glyph glyph-name="e" unicode="e" horiz-adv-x="358" 
d="M374 243c0 -2.66699 -2.83594 -10.5059 -8.50293 -23.5059s-13.667 -28.5 -24 -46.5s-22.5 -37.167 -36.5 -57.5s-29.333 -39 -46 -56s-34.5 -31.167 -53.5 -42.5s-38.5 -17 -58.5 -17c-26 0 -48.5 4.5 -67.5 13.5s-34.667 21.5 -47 37.5s-21.666 34.833 -27.999 56.5
s-9.5 45.167 -9.5 70.5c0 34.667 5.66699 71 17 109s27 73 47 105s44.167 58.5 72.5 79.5s59.5 31.5 93.5 31.5c30 0 52.5 -7.33301 67.5 -22s22.5 -34 22.5 -58c0 -25.333 -7 -52.166 -21 -80.499s-32.5 -54.833 -55.5 -79.5s-49.5 -45.167 -79.5 -61.5
s-61 -25.166 -93 -26.499c-0.666992 -5.33301 -1 -10.333 -1 -15v-14c0 -12 0.833008 -25.667 2.5 -41s5.33398 -29.666 11.001 -42.999s13.667 -24.666 24 -33.999s24.166 -14.333 41.499 -15h3c20 0 39.333 5.83301 58 17.5s35.834 26.334 51.501 44.001s30 36.667 43 57
s24.333 39.333 34 57s17.334 32.334 23.001 44.001s9.5 17.5 11.5 17.5c4 0 6 -2.33301 6 -7zM224.997 489.994c-16.667 0 -33.668 -9 -51.001 -27s-33.166 -41.5 -47.499 -70.5s-26.833 -61.333 -37.5 -97s-18 -71.167 -22 -106.5c30 1.33301 59.167 10 87.5 26
s53.333 35.5 75 58.5s39 47.833 52 74.5s19.5 51.667 19.5 75s-6.83301 40.333 -20.5 51s-32.167 16 -55.5 16z" />
    <glyph glyph-name="f" unicode="f" horiz-adv-x="468" 
d="M494 243c0 -5.33301 -12.499 -17.332 -37.499 -35.999s-59 -39.5 -102 -62.5s-93.167 -46 -150.5 -69s-118.666 -41.5 -183.999 -55.5l-4 -23.5l-4 -23.5c36.667 -20 68.167 -45.833 94.5 -77.5s48 -66.5 65 -104.5s29.5 -77.667 37.5 -119s12 -82 12 -122
c0 -24.667 -2 -51.667 -6 -81s-11 -56.833 -21 -82.5s-23.167 -47.167 -39.5 -64.5s-36.833 -26 -61.5 -26c-24 0 -45 5.83301 -63 17.5s-33.333 27.334 -46 47.001s-23 42.334 -31 68.001s-14.167 52.5 -18.5 80.5s-7.33301 56 -9 84s-2.5 54.333 -2.5 79
c0 47.333 2.16699 97.166 6.5 149.499s11.166 106.5 20.499 162.5c-32 10.667 -66.667 16 -104 16c-4.66699 0 -7 2.33301 -7 7c0 4 2.33301 6 7 6c35.333 0 72 3 110 9c6 36.667 12.833 73.5 20.5 110.5s16.167 73.833 25.5 110.5v3c9.33301 38.667 22 84.167 38 136.5
s34.667 106.5 56 162.5s45.333 111.333 72 166s55.667 103.5 87 146.5s64.666 77.833 99.999 104.5s72.333 40 111 40c32.667 0 56.167 -11.333 70.5 -34s21.5 -50.667 21.5 -84c0 -32.667 -6 -70.167 -18 -112.5s-28.833 -85.833 -50.5 -130.5s-47.5 -89 -77.5 -133
s-63.167 -84.333 -99.5 -121s-75.333 -67.834 -117 -93.501s-84.5 -42.834 -128.5 -51.501c-8.66699 -34.667 -16.667 -69.334 -24 -104.001s-14 -69 -20 -103c74.667 16.667 140.5 37 197.5 61s105.5 47.667 145.5 71c46.667 26.667 87 54.334 121 83.001
c4.66699 0 7 -2.33301 7 -7zM466.001 988.001c-31.333 0 -61.667 -13.5 -91 -40.5s-57.333 -62.333 -84 -106s-51.667 -92.5 -75 -146.5s-44.5 -108.167 -63.5 -162.5s-35.5 -105.833 -49.5 -154.5s-25 -89.334 -33 -122.001c40.667 8.66699 80.5 25.334 119.5 50.001
s76.167 54.5 111.5 89.5s67.833 73.667 97.5 116s55.334 85.333 77.001 129s38.5 86.5 50.5 128.5s18 80.333 18 115c0 29.333 -5.83301 54 -17.5 74s-31.834 30 -60.501 30zM-48 -1.99902c0 1.33301 0.166992 3 0.5 5s0.5 3.66699 0.5 5
c-4.66699 -0.666992 -9 -1.16699 -13 -1.5s-8.33301 -0.833008 -13 -1.5c4 -1.33301 8.16699 -2.5 12.5 -3.5s8.5 -2.16699 12.5 -3.5zM207 -449.999c0 38.667 -3.83301 78 -11.5 118s-19.5 78.167 -35.5 114.5s-36.5 69.833 -61.5 100.5s-54.5 55.667 -88.5 75
c-10 -63.333 -17.5 -124.166 -22.5 -182.499s-7.5 -112.833 -7.5 -163.5c0 -17.333 0.5 -36.666 1.5 -57.999s2.83301 -43.333 5.5 -66s6.5 -44.667 11.5 -66s11.667 -40.333 20 -57s18.5 -30.167 30.5 -40.5s26.667 -15.5 44 -15.5c16.667 0 32 6 46 18s26 28.667 36 50
s17.833 46.666 23.5 75.999s8.5 61.666 8.5 96.999z" />
    <glyph glyph-name="g" unicode="g" horiz-adv-x="569" 
d="M589 243c0 -1.33301 -5.50293 -10.334 -16.5029 -27.001s-26.167 -37.334 -45.5 -62.001s-42.333 -51.667 -69 -81s-56 -57.333 -88 -84c-16.667 -60.667 -36 -120.5 -58 -179.5s-47.5 -115.333 -76.5 -169s-61.667 -103.334 -98 -149.001
s-76.666 -85.167 -120.999 -118.5s-93 -59.5 -146 -78.5s-110.833 -28.5 -173.5 -28.5c-38.667 0 -74.334 6.33301 -107.001 19s-60.667 29.667 -84 51s-41.666 46 -54.999 74s-20 57 -20 87c0 46 6.66699 83.667 20 113s32 53.166 56 71.499s52.667 32.5 86 42.5
s70.333 18.667 111 26l131 22.5c46.667 7.66699 95.167 18.334 145.5 32.001s101.666 31.5 153.999 53.5s104.833 51.333 157.5 88c16 52 29.833 102.833 41.5 152.5s21.5 96.334 29.5 140.001s14.667 83.167 20 118.5s9.33301 64.333 12 87l-19 -46.5
c-7.33301 -17.667 -15.666 -36.5 -24.999 -56.5v-1l-28.5 -61c-11 -23.333 -23.5 -47.666 -37.5 -72.999s-29.167 -50.333 -45.5 -75s-33.5 -46.667 -51.5 -66s-36.333 -35 -55 -47s-37.334 -18 -56.001 -18c-30 0 -53 11 -69 33s-24 53.667 -24 95c0 24.667 3 51 9 79
s14.667 56 26 84s25 54.667 41 80s33.667 47.833 53 67.5s40.333 35.334 63 47.001s46.667 17.5 72 17.5c16.667 0 30.834 -5 42.501 -15s21.5 -22 29.5 -36s14.167 -28.833 18.5 -44.5s7.5 -28.834 9.5 -39.501l14.5 34.5l18.5 45c6 15 11.5 28 16.5 39
s8.16699 16.5 9.5 16.5h43c4.66699 0 7 -2 7 -6c0 -6.66699 -1.33301 -25 -4 -55s-7.16699 -67.167 -13.5 -111.5s-14.666 -94 -24.999 -149s-22.833 -111.167 -37.5 -168.5c34 30 67.833 64.333 101.5 103s66.5 82.334 98.5 131.001c0.666992 2 2.33398 3 5.00098 3
c4.66699 0 7 -2.33301 7 -7zM76.9971 12.999c17.333 0 34.8301 6.00098 52.4971 18.001s35 27.667 52 47s33.333 41 49 65s30.334 48.333 44.001 73s25.834 48.334 36.501 71.001l27 58c-0.666992 4 -2.5 13.833 -5.5 29.5s-7.83301 32 -14.5 49s-15.667 32.333 -27 46
s-25.666 20.5 -42.999 20.5c-14.667 0 -30.167 -6.83301 -46.5 -20.5s-32.333 -31.834 -48 -54.501s-30.5 -48.334 -44.5 -77.001s-26.333 -58 -37 -88s-19.167 -59.5 -25.5 -88.5s-9.5 -54.833 -9.5 -77.5c0 -8 0.5 -16.167 1.5 -24.5s2.83301 -15.833 5.5 -22.5
s6.5 -12.167 11.5 -16.5s11.5 -6.83301 19.5 -7.5h2zM-303.006 -720c53.333 0 102.665 8.83203 147.998 26.499s87.166 42 125.499 73s73.333 67.333 105 109s60.5 86.5 86.5 134.5s49.167 97.667 69.5 149s38.5 102.333 54.5 153c-52 -35.333 -104 -63.5 -156 -84.5
s-102.667 -38 -152 -51s-96.666 -23.167 -141.999 -30.5l-127.5 -21.5c-39.667 -7 -75.667 -15.167 -108 -24.5s-60 -22.666 -83 -39.999s-40.833 -40 -53.5 -68s-19 -64 -19 -108c0 -30 6.66699 -58.167 20 -84.5s31.333 -49.333 54 -69s49.334 -35.167 80.001 -46.5
s63.334 -17 98.001 -17z" />
    <glyph glyph-name="h" unicode="h" horiz-adv-x="537" 
d="M628 998c0 -32 -6.16895 -66.001 -18.502 -102.001s-29.5 -71.667 -51.5 -107s-48.667 -69.666 -80 -102.999s-66.166 -63.333 -104.499 -90s-79.5 -49.167 -123.5 -67.5s-89.667 -30.166 -137 -35.499c-16.667 -66.667 -30.667 -130.5 -42 -191.5
s-20.333 -114.5 -27 -160.5c10 26 21.5 53 34.5 81s27 55.5 42 82.5s30.667 52.5 47 76.5s32.333 45 48 63s30.5 32.333 44.5 43s26.667 16 38 16c36.667 0 62.334 -11.5 77.001 -34.5s22 -52.5 22 -88.5c0 -30.667 -4 -65.5 -12 -104.5s-18.167 -79.833 -30.5 -122.5
s-25.666 -85.834 -39.999 -129.501l-40 -126.5c-12.333 -40.667 -22.5 -78.5 -30.5 -113.5s-12 -64.833 -12 -89.5c0 -17.333 2.83301 -32.166 8.5 -44.499s17.167 -18.5 34.5 -18.5c15.333 0 30.833 8.83301 46.5 26.5s31.167 41 46.5 70s30.166 62 44.499 99s28 75 41 114
s25 77 36 114l28.5 99l19.5 70c5 17.667 8.16699 26.5 9.5 26.5c4.66699 0 7 -2.33301 7 -7l-6.5 -27c-4.33301 -18 -10.5 -41.833 -18.5 -71.5l-28 -100.5c-10.667 -37.333 -22.667 -75.5 -36 -114.5s-27.666 -77.167 -42.999 -114.5s-31 -70.5 -47 -99.5
s-32.5 -52.5 -49.5 -70.5s-33.833 -27 -50.5 -27c-33.333 0 -56.666 10.5 -69.999 31.5s-20 48.167 -20 81.5c0 30 4 64.167 12 102.5s18.167 78.5 30.5 120.5s25.666 85 39.999 129l40 127c12.333 40.667 22.5 78.834 30.5 114.501s12 66.5 12 92.5
c0 20.667 -3.5 38 -10.5 52s-20.833 21 -41.5 21c-11.333 0 -25 -7.16699 -41 -21.5s-33 -33.333 -51 -57s-36.167 -50.667 -54.5 -81s-35.5 -61.833 -51.5 -94.5s-30 -65 -42 -97s-20.667 -61.333 -26 -88c-1.33301 -12 -2.33301 -21.333 -3 -28
s-1.33398 -11.834 -2.00098 -15.501s-1.5 -5.83398 -2.5 -6.50098s-2.5 -1 -4.5 -1h-37c-4.66699 -0 -7 2.33301 -7 7c0 5.33301 1.16699 23 3.5 53s6.33301 67.5 12 112.5s13.167 95.167 22.5 150.5s21 111.666 35 168.999c-2 0.666992 -3 2.33398 -3 5.00098
s1.66699 4.66699 5 6c10.667 44.667 23.667 90.667 39 138s33 93.5 53 138.5s42.5 87.5 67.5 127.5s53.333 75 85 105s66.5 53.833 104.5 71.5s80 26.5 126 26.5c34 0 59.5 -10.167 76.5 -30.5s25.5 -47.5 25.5 -81.5zM525.998 1097
c-38 0 -73.1689 -9.49512 -105.502 -28.4951s-62 -44.167 -89 -75.5s-51.667 -67.333 -74 -108s-42.333 -82.834 -60 -126.501s-33.167 -87.334 -46.5 -131.001s-24.666 -83.834 -33.999 -120.501c50.667 6.66699 98 19.667 142 39s84.5 42.833 121.5 70.5
s70 58.167 99 91.5s53.333 67.166 73 101.499s34.834 67.833 45.501 100.5s16 62 16 88c0 9.33301 -1 19.666 -3 30.999s-6 22 -12 32s-14.833 18.5 -26.5 25.5s-27.167 10.5 -46.5 10.5z" />
    <glyph glyph-name="i" unicode="i" horiz-adv-x="296" 
d="M60 -197c-20 0 -36.168 5 -48.501 15s-22 23 -29 39s-11.833 34 -14.5 54s-4 40 -4 60c0 30.667 2.5 65 7.5 103s11.5 76.667 19.5 116s16.667 77.833 26 115.5s18.166 71.167 26.499 100.5s15.833 52.833 22.5 70.5s11 26.5 13 26.5h43c4.66699 0 7 -2 7 -6
c-21.333 -73.333 -40.333 -145 -57 -215c-7.33301 -30 -14.333 -61 -21 -93s-12.5 -63.667 -17.5 -95s-9.16699 -61.5 -12.5 -90.5s-5 -55.5 -5 -79.5c0 -10 0.5 -21.167 1.5 -33.5s3 -24 6 -35s7.33301 -20.167 13 -27.5s13.5 -11 23.5 -11c17.333 0 35.333 10.667 54 32
s36.834 48 54.501 80s34.334 66.833 50.001 104.5l42 104.5l30.5 80c8 21.333 12.667 32 14 32c4 0 6 -2.33301 6 -7c0 -1.33301 -3.66699 -13.166 -11 -35.499s-17.166 -49.833 -29.499 -82.5s-26.666 -67.834 -42.999 -105.501s-33.833 -72.5 -52.5 -104.5
s-37.834 -58.667 -57.501 -80s-38.834 -32 -57.501 -32zM123.999 692c12.667 0 23.334 -4.33301 32.001 -13s13 -19.334 13 -32.001c0 -12 -4.33301 -22.5 -13 -31.5s-19.334 -13.5 -32.001 -13.5s-23.334 4.5 -32.001 13.5s-13 19.5 -13 31.5
c0 12.667 4.33301 23.334 13 32.001s19.334 13 32.001 13z" />
    <glyph glyph-name="j" unicode="j" horiz-adv-x="208" 
d="M228 243c0 -1.33301 -5.50391 -10.3311 -16.5039 -26.998s-26.167 -37.334 -45.5 -62.001s-42.333 -51.667 -69 -81s-55.667 -57.333 -87 -84c-16.667 -60.667 -36.167 -120.5 -58.5 -179.5s-48 -115.333 -77 -169s-61.5 -103.334 -97.5 -149.001
s-76.167 -85.167 -120.5 -118.5s-93 -59.5 -146 -78.5s-110.833 -28.5 -173.5 -28.5c-39.333 0 -75.166 6.33301 -107.499 19s-60.333 29.667 -84 51s-42 46 -55 74s-19.5 57 -19.5 87c0 61.333 11.5 108.333 34.5 141s54.833 57.5 95.5 74.5s88.334 29.667 143.001 38
s114 18.833 178 31.5s130.833 31 200.5 55s139.5 60.333 209.5 109c8.66699 28.667 16.834 58.667 24.501 90s15 62.833 22 94.5s13.5 62.834 19.5 93.501l17 87c12 64.667 22.333 128.667 31 192h43c4.66699 0 7 -2 7 -6c0 -6.66699 -1.33301 -24.834 -4 -54.501
s-7.16699 -66.834 -13.5 -111.501s-14.666 -94.5 -24.999 -149.5s-22.833 -111.167 -37.5 -168.5c34.667 30 68.667 64.333 102 103s66 82.334 98 131.001c0.666992 2 2.66699 3 6 3c4 0 6 -2.33301 6 -7zM-663.004 -719.998c52.667 0 101.666 8.83203 146.999 26.499
s87.166 42 125.499 73s73.5 67.333 105.5 109s60.833 86.5 86.5 134.5s48.667 97.667 69 149s38.5 102.333 54.5 153c-52 -35.333 -104 -63.5 -156 -84.5s-102.667 -38 -152 -51s-96.666 -23.167 -141.999 -30.5l-127.5 -21.5c-39.667 -7 -75.667 -15.167 -108 -24.5
s-60 -22.666 -83 -39.999s-40.833 -40 -53.5 -68s-19 -64 -19 -108c0 -30 6.66699 -58.167 20 -84.5s31.333 -49.333 54 -69s49.334 -35.167 80.001 -46.5s63.667 -17 99 -17zM75.9951 692.001c12.667 0 23.334 -4.33301 32.001 -13s13 -19.334 13 -32.001
c0 -12 -4.33301 -22.5 -13 -31.5s-19.334 -13.5 -32.001 -13.5s-23.334 4.5 -32.001 13.5s-13 19.5 -13 31.5c0 12.667 4.33301 23.334 13 32.001s19.334 13 32.001 13z" />
    <glyph glyph-name="k" unicode="k" horiz-adv-x="561" 
d="M628 998c0 -32 -6.16309 -66.0049 -18.4961 -102.005s-29.5 -71.667 -51.5 -107s-48.667 -69.666 -80 -102.999s-66.166 -63.333 -104.499 -90s-79.5 -49.167 -123.5 -67.5s-89.667 -30.166 -137 -35.499c-10.667 -42 -20.167 -83.167 -28.5 -123.5
s-15.666 -78.666 -21.999 -114.999s-11.833 -69.666 -16.5 -99.999s-8.33398 -56.5 -11.001 -78.5c6 18.667 14.333 42.334 25 71.001s22.667 58.834 36 90.501s28 63.334 44 95.001s33 60.167 51 85.5s36.667 45.833 56 61.5s39 23.5 59 23.5c36 0 63 -9 81 -27
s27 -42 27 -72c0 -22.667 -5.16699 -46.334 -15.5 -71.001s-25 -47.834 -44 -69.501s-42.167 -40.667 -69.5 -57s-57.666 -27.5 -90.999 -33.5c0 -3.33301 -0.5 -11 -1.5 -23s-1.83301 -27.333 -2.5 -46s-1.33398 -39.5 -2.00098 -62.5s-1 -47.167 -1 -72.5
c0 -12 0.166992 -28.167 0.5 -48.5s1.33301 -42.333 3 -66s4 -47.5 7 -71.5s7.33301 -45.833 13 -65.5s12.667 -35.667 21 -48s18.5 -18.5 30.5 -18.5c20.667 0 40.834 8.5 60.501 25.5s38.5 39.667 56.5 68s35 60.333 51 96s30.667 72.334 44 110.001
s25.5 74.334 36.5 110.001s20.5 67.667 28.5 96l19 68c4.66699 17 7.66699 25.5 9 25.5c4.66699 0 7 -2.33301 7 -7c0 -1.33301 -2 -11 -6 -29s-10 -41.333 -18 -70s-17.5 -61 -28.5 -97s-23.5 -72.833 -37.5 -110.5s-29.333 -74.334 -46 -110.001
s-34.334 -67.5 -53.001 -95.5s-38.334 -50.5 -59.001 -67.5s-42 -25.5 -64 -25.5c-20 0 -37.333 6.16699 -52 18.5s-26.834 28.666 -36.501 48.999s-17.5 43.333 -23.5 69s-10.5 52 -13.5 79s-5 53.5 -6 79.5s-1.5 49 -1.5 69v17.5c0 9.66699 0.166992 21 0.5 34
s0.833008 26.833 1.5 41.5s1.5 28.334 2.5 41.001s2.16699 23.167 3.5 31.5s3 12.833 5 13.5c0 0.666992 0.333008 1 1 1c26.667 0 53 8.5 79 25.5s49 38.167 69 63.5s36.167 52.333 48.5 81s18.5 55 18.5 79c0 18.667 -4.16699 33.167 -12.5 43.5s-21.5 15.5 -39.5 15.5
c-16.667 0 -33.334 -7 -50.001 -21s-33.334 -32.5 -50.001 -55.5s-32.667 -49.167 -48 -78.5s-30 -59.333 -44 -90c-32 -72 -63.333 -153.667 -94 -245h-37c-4.66699 0 -7 2.33301 -7 7c0 5.33301 1.16699 23 3.5 53s6.33301 67.5 12 112.5s13.167 95.167 22.5 150.5
s20.666 111.666 33.999 168.999c-1.33301 1.33301 -2 3 -2 5c0 2.66699 1.66699 4.66699 5 6c10.667 44.667 23.667 90.667 39 138s33 93.5 53 138.5s42.5 87.5 67.5 127.5s53.333 75 85 105s66.5 53.833 104.5 71.5s80 26.5 126 26.5c34 0 59.5 -10.167 76.5 -30.5
s25.5 -47.5 25.5 -81.5zM526.004 1097c-38 0 -73.1689 -9.49512 -105.502 -28.4951s-62 -44.167 -89 -75.5s-51.667 -67.333 -74 -108s-42.333 -82.834 -60 -126.501s-33.167 -87.334 -46.5 -131.001s-24.666 -83.834 -33.999 -120.501c50.667 6.66699 98 19.667 142 39
s84.5 42.833 121.5 70.5s70 58.167 99 91.5s53.333 67.166 73 101.499s34.834 67.833 45.501 100.5s16 62 16 88c0 9.33301 -1 19.666 -3 30.999s-6 22 -12 32s-14.833 18.5 -26.5 25.5s-27.167 10.5 -46.5 10.5z" />
    <glyph glyph-name="l" unicode="l" horiz-adv-x="536" 
d="M583 989c0 -37.333 -6.49805 -80.1611 -19.498 -128.494s-31.167 -98.333 -54.5 -150s-51 -103.167 -83 -154.5s-67.167 -98.333 -105.5 -141s-79 -79.334 -122 -110.001s-86.833 -51.334 -131.5 -62.001c-14 -72.667 -24.833 -143 -32.5 -211s-11.5 -131.333 -11.5 -190
c0 -26 1.33301 -55.833 4 -89.5s8 -65.334 16 -95.001s19.667 -54.834 35 -75.501s36 -31 62 -31c22.667 0 45.834 10 69.501 30s46.834 46.333 69.501 79s44.834 70 66.501 112s42.167 84.833 61.5 128.5s37.166 86.5 53.499 128.5l42.5 112l28.5 79
c7 20 11.167 30 12.5 30c4 0 6 -2.33301 6 -7c0 -2 -3.33301 -13.667 -10 -35s-16 -48.833 -28 -82.5s-26.333 -71.5 -43 -113.5s-34.834 -84.833 -54.501 -128.5s-40.667 -86.167 -63 -127.5s-45.333 -78.333 -69 -111s-47.5 -58.834 -71.5 -78.501
s-47.667 -29.5 -71 -29.5c-36.667 0 -66.334 11.833 -89.001 35.5s-40.334 53.5 -53.001 89.5s-21.167 75.167 -25.5 117.5s-6.5 81.833 -6.5 118.5c0 50.667 3 104.667 9 162s14.667 116.666 26 177.999c-1.33301 1.33301 -2 3 -2 5c0 3.33301 1.33301 5.33301 4 6
c8.66699 44.667 20.667 97.167 36 157.5s34.166 122.333 56.499 186s47.5 126.5 75.5 188.5s58.833 117.333 92.5 166s70 88 109 118s80.167 45 123.5 45c16 0 29.667 -3.33301 41 -10s20.333 -15.5 27 -26.5s11.5 -23.833 14.5 -38.5s4.5 -30 4.5 -46zM496.002 1097
c-26 0 -51.334 -8.66016 -76.001 -25.9932s-48.5 -40.833 -71.5 -70.5s-45 -64.334 -66 -104.001s-40.833 -81.834 -59.5 -126.501s-36 -90.667 -52 -138s-30.5 -93.5 -43.5 -138.5s-24.333 -87.833 -34 -128.5s-17.5 -76.334 -23.5 -107.001
c43.333 11.333 85.833 32.166 127.5 62.499s81 66.666 118 108.999s71 88.666 102 138.999s57.667 100.666 80 150.999s39.833 99 52.5 146s19 88.167 19 123.5c0 14 -1.16699 27.5 -3.5 40.5s-6.16602 24.5 -11.499 34.5s-12.833 18 -22.5 24s-21.5 9 -35.5 9z" />
    <glyph glyph-name="m" unicode="m" horiz-adv-x="873" 
d="M888 243c0 -1.33301 -2.99805 -13.498 -8.99805 -36.498s-14.5 -51.333 -25.5 -85s-24 -70 -39 -109s-31.667 -75.167 -50 -108.5s-37.833 -61.166 -58.5 -83.499s-42 -33.5 -64 -33.5c-26 0 -43.5 9.5 -52.5 28.5s-13.5 41.833 -13.5 68.5
c0 25.333 2.83301 54.166 8.5 86.499l18 99l18 99.5c5.66699 32.667 8.5 62 8.5 88c0 11.333 -0.833008 22.333 -2.5 33s-4.5 20 -8.5 28s-9.66699 14.5 -17 19.5s-16.666 7.5 -27.999 7.5c-18 0 -34.833 -4.83301 -50.5 -14.5s-30 -21.834 -43 -36.501
s-24.833 -30.667 -35.5 -48s-19.834 -33.333 -27.501 -48l-19 -37.5c-5 -10.333 -8.16699 -15.5 -9.5 -15.5h-46c-4.66699 0 -7 2.33301 -7 7c10 41.333 19 82.666 27 123.999c6.66699 35.333 12.834 73 18.501 113s8.5 76.667 8.5 110
c0 8.66699 -0.333008 18.834 -1 30.501s-2.33398 22.667 -5.00098 33s-6.5 19 -11.5 26s-11.833 10.5 -20.5 10.5c-15.333 0 -31.5 -7.5 -48.5 -22.5s-34.167 -35.167 -51.5 -60.5s-34.5 -54.333 -51.5 -87s-33.333 -66.334 -49 -101.001s-30.167 -69.334 -43.5 -104.001
s-24.833 -66.667 -34.5 -96s-17.334 -54.666 -23.001 -75.999s-8.5 -36.333 -8.5 -45v-2l-1 -1v-1l-3 -3h-2c-6.66699 -1.33301 -12 -2 -16 -2c-12 0 -22.5 3.16699 -31.5 9.5s-13.5 15.166 -13.5 26.499c0 24 2.16699 52.333 6.5 85s10 66.334 17 101.001s14.5 69 22.5 103
s15.833 64.333 23.5 91s14.334 48.167 20.001 64.5s9.5 24.5 11.5 24.5h42c4.66699 0 7 -2 7 -6c-18 -65.333 -34 -127 -48 -185l-17.5 -76.5c-5.66699 -25.667 -10.834 -50.5 -15.501 -74.5s-8.33398 -46.167 -11.001 -66.5s-4 -37.5 -4 -51.5
c0 -10 0.333008 -16.667 1 -20c2.66699 17.333 9.66699 44 21 80s25.333 75.833 42 119.5s35.334 88.667 56.001 135s42.5 88.333 65.5 126s46.167 68.667 69.5 93s46 36.5 68 36.5c18.667 0 34 -4.83301 46 -14.5s21.5 -22 28.5 -37s11.667 -32.167 14 -51.5
s3.5 -38.333 3.5 -57c0 -20 -1 -40.5 -3 -61.5s-4.5 -41.833 -7.5 -62.5s-6.5 -40.334 -10.5 -59.001l-11 -51c8 14.667 17.667 30.334 29 47.001s23.833 31.667 37.5 45s28.5 24.5 44.5 33.5s33 13.5 51 13.5c20 0 36.833 -3.66699 50.5 -11s24.667 -17.333 33 -30
s14.166 -27.667 17.499 -45s5 -36 5 -56c0 -30.667 -3 -63.667 -9 -99s-12.5 -70.166 -19.5 -104.499l-19.5 -97c-6 -30.333 -9 -55.5 -9 -75.5c0 -8.66699 1 -17.334 3 -26.001s7.66699 -13 17 -13c15.333 0 30.5 6.5 45.5 19.5s29.333 30 43 51s26.667 44.833 39 71.5
s23.833 54.167 34.5 82.5s20.5 55.833 29.5 82.5l23.5 71.5l16 51c4 13 6.66699 19.5 8 19.5c4.66699 0 7 -2.33301 7 -7z" />
    <glyph glyph-name="n" unicode="n" horiz-adv-x="602" 
d="M618 243l-6.00195 -20.002c-4 -13.333 -9.5 -30.666 -16.5 -51.999s-15.5 -45.666 -25.5 -72.999s-21 -55.166 -33 -83.499s-24.667 -56.166 -38 -83.499s-27.166 -51.666 -41.499 -72.999s-28.666 -38.5 -42.999 -51.5s-28.5 -19.5 -42.5 -19.5
c-18.667 0 -34 3.66699 -46 11s-21.5 17.333 -28.5 30s-12 27.5 -15 44.5s-4.5 34.833 -4.5 53.5c0 27.333 2.33301 57.166 7 89.499s10.5 65.833 17.5 100.5s14.5 69.667 22.5 105l22.5 103c7 33.333 12.833 64.833 17.5 94.5s7 55.834 7 78.501
c0 9.33301 -0.5 18.666 -1.5 27.999s-3 17.666 -6 24.999s-7.33301 13.166 -13 17.499s-13.167 6.5 -22.5 6.5c-13.333 0 -27.666 -8.16699 -42.999 -24.5s-30.833 -38 -46.5 -65s-31.5 -57.667 -47.5 -92s-31.333 -69.333 -46 -105l-41.5 -105l-34 -92l-24 -65.5
c-6.33301 -16.667 -9.83301 -25 -10.5 -25c-3.33301 -0.666992 -6.16602 -1.16699 -8.49902 -1.5s-5.16602 -0.5 -8.49902 -0.5c-11.333 0 -21.666 3.16699 -30.999 9.5s-14 15.166 -14 26.499c0 24 2.16699 52.333 6.5 85s10 66.334 17 101.001s14.5 69 22.5 103
s15.833 64.333 23.5 91s14.334 48.167 20.001 64.5s9.5 24.5 11.5 24.5h42c4.66699 0 7 -2 7 -6c-18 -65.333 -34 -127 -48 -185l-17.5 -76.5c-5.66699 -25.667 -10.834 -50.5 -15.501 -74.5s-8.33398 -46.167 -11.001 -66.5s-4 -37.5 -4 -51.5c0 -12.667 1 -21 3 -25
c5.33301 16.667 14 42.334 26 77.001s26.167 73 42.5 115s34.166 85.333 53.499 130s39.166 85.334 59.499 122.001s40.5 66.667 60.5 90s38.667 35 56 35c18.667 0 34.334 -3.83301 47.001 -11.5s22.5 -18 29.5 -31s12 -28.167 15 -45.5s4.5 -35.333 4.5 -54
c0 -27.333 -2.33301 -57.5 -7 -90.5s-10.334 -66.833 -17.001 -101.5s-14.167 -69.834 -22.5 -105.501s-15.833 -70.167 -22.5 -103.5s-12.334 -64.5 -17.001 -93.5s-7 -54.5 -7 -76.5c0 -8.66699 0.5 -17.334 1.5 -26.001s3 -16.5 6 -23.5s7 -12.667 12 -17
s11.833 -6.5 20.5 -6.5c12.667 0 25.667 6.5 39 19.5s26.666 30 39.999 51s26.333 44.833 39 71.5s24.834 54.167 36.501 82.5s22.5 55.833 32.5 82.5l26 71.5l18 51c4.66699 13 7.66699 19.5 9 19.5c4 0 6 -2.33301 6 -7z" />
    <glyph glyph-name="o" unicode="o" horiz-adv-x="439" 
d="M459 243c0 -2 -2.83398 -8.16797 -8.50098 -18.501s-14 -22.5 -25 -36.5s-24.667 -28.333 -41 -43s-35.5 -27 -57.5 -37c-8.66699 -20 -19.167 -40.667 -31.5 -62s-26.333 -40.5 -42 -57.5s-33.167 -31 -52.5 -42s-40 -16.5 -62 -16.5c-24 0 -44.667 4.16699 -62 12.5
s-31.833 20 -43.5 35s-20.334 32.667 -26.001 53s-8.5 42.5 -8.5 66.5c0 35.333 5.33301 70 16 104c-22 40 -33 86.333 -33 139c0 38.667 6 75.5 18 110.5s29.333 65.833 52 92.5s50.334 47.834 83.001 63.501s69.334 23.5 110.001 23.5c28 0 51.167 -6.83301 69.5 -20.5
s33 -31.5 44 -53.5s18.833 -46.833 23.5 -74.5s7 -55.5 7 -83.5c0 -44 -4.66699 -89.667 -14 -137s-22.333 -92 -39 -134c24.667 14 46.834 32 66.501 54s34.167 43.667 43.5 65c1.33301 2.66699 3.66602 4 6.99902 4c4 0 6 -2.33301 6 -7zM138.999 -57.001
c19.333 0 37.499 4.83398 54.499 14.501s32.667 22.167 47 37.5s27.333 32.166 39 50.499s21.5 36.5 29.5 54.5c-13.333 -5.33301 -27.666 -9.33301 -42.999 -12s-32 -4 -50 -4h-6c-54 1.33301 -99.333 16.333 -136 45c-1.33301 -10.667 -2.5 -21.167 -3.5 -31.5
s-1.5 -20.5 -1.5 -30.5c0 -14 1 -28.333 3 -43s5.66699 -28 11 -40s12.5 -21.833 21.5 -29.5s20.5 -11.5 34.5 -11.5zM316.998 118c18.667 42.667 33 88.5 43 137.5s15 96.5 15 142.5c0 25.333 -2 51 -6 77s-11 49.5 -21 70.5s-23.333 38 -40 51s-37.667 19.5 -63 19.5
c-29.333 0 -55.833 -8.83301 -79.5 -26.5s-44 -40.834 -61 -69.501s-30.167 -61 -39.5 -97s-14 -72 -14 -108c0 -4.66699 0.166992 -9 0.5 -13s0.5 -8.33301 0.5 -13c12 20.667 25.5 39.834 40.5 57.501s31.5 33 49.5 46s37.167 23.333 57.5 31s42.166 11.5 65.499 11.5
c4.66699 0 7 -2.33301 7 -7v-35c0 -4 -2.33301 -6 -7 -6c-24 0 -45.667 -6.66699 -65 -20s-36.666 -30.333 -51.999 -51s-28.333 -43.5 -39 -68.5s-19 -49.5 -25 -73.5c28 -49.333 70 -75 126 -77h6c36 0 69.667 7 101 21z" />
    <glyph glyph-name="p" unicode="p" horiz-adv-x="457" 
d="M479 250c4.66699 0 7.00391 -2.32715 7.00391 -6.99414s-2.33301 -7 -7 -7c-29.333 0 -56.333 -1 -81 -3c-8 -36 -20.167 -71.667 -36.5 -107s-36.333 -67 -60 -95s-50.834 -50.667 -81.501 -68s-64.334 -26 -101.001 -26c-23.333 0 -42.5 7.66699 -57.5 23
s-22.5 35.333 -22.5 60c0 32.667 9.5 61.5 28.5 86.5s43.167 46.5 72.5 64.5s61.666 32.667 96.999 44s69.666 19.666 102.999 24.999c11.333 45.333 17 87.333 17 126c0 11.333 -0.833008 24 -2.5 38s-4.83398 27.167 -9.50098 39.5s-11.334 23 -20.001 32
s-20 13.833 -34 14.5h-3c-21.333 0 -42.333 -8.66699 -63 -26s-40.167 -40 -58.5 -68s-35.666 -59.5 -51.999 -94.5s-31.166 -69.833 -44.499 -104.5s-25 -67.834 -35 -99.501s-18 -57.834 -24 -78.501l-21.5 -89.5l-25.5 -109c-8.66699 -38.333 -17.167 -78 -25.5 -119
s-15.833 -80.833 -22.5 -119.5s-12 -75.334 -16 -110.001s-6 -65 -6 -91c0 -6 0.166992 -13.833 0.5 -23.5s1.33301 -18.834 3 -27.501s4.33398 -16.167 8.00098 -22.5s8.5 -9.5 14.5 -9.5c4.66699 0 7 -2 7 -6c0 -4.66699 -2.33301 -7 -7 -7
c-14.667 0 -26.334 5.16699 -35.001 15.5s-15.167 23.166 -19.5 38.499s-7.16602 31.833 -8.49902 49.5s-2 33.834 -2 48.501c0 38.667 3.16699 84 9.5 136s14.666 107.333 24.999 166s22.333 119.167 36 181.5l41.5 182.5c14 59.333 28 115.333 42 168l38 138.5
c11.333 39.667 20.833 71 28.5 94s12.167 34.5 13.5 34.5h54c4.66699 0 7 -2.33301 7 -7l-28 -99l-28.5 -101l-31.5 -116c6 16 13.5 34.333 22.5 55s19 41.667 30 63s23 42.166 36 62.499s26.833 38.5 41.5 54.5s30 28.833 46 38.5s32.667 14.5 50 14.5
c22 0 40.667 -4.83301 56 -14.5s27.833 -22.667 37.5 -39s16.667 -34.833 21 -55.5s6.5 -42 6.5 -64c0 -13.333 -0.666992 -27 -2 -41s-3.33301 -28 -6 -42c24.667 2 50.667 3 78 3zM119.004 -48.9941c25.333 0 49.332 8.33496 71.999 25.002s43.334 38.167 62.001 64.5
s35 55.833 49 88.5s25.333 64.667 34 96c-30.667 -4.66699 -62.667 -12.334 -96 -23.001s-63.833 -24.5 -91.5 -41.5s-50.5 -37.167 -68.5 -60.5s-27 -50 -27 -80c0 -20.667 6 -37.334 18 -50.001s28 -19 48 -19z" />
    <glyph glyph-name="q" unicode="q" horiz-adv-x="527" 
d="M547 243c0 -2.66699 -2.99902 -13.6689 -8.99902 -33.002s-14.667 -43.333 -26 -72s-25.166 -60.5 -41.499 -95.5s-34.666 -69.5 -54.999 -103.5s-42.5 -65.667 -66.5 -95s-49.333 -53 -76 -71c-1.33301 -6.66699 -2.66602 -13 -3.99902 -19l-4 -18
c45.333 -14.667 78.666 -38.5 99.999 -71.5s32 -72.5 32 -118.5c0 -24 -4 -51.167 -12 -81.5s-19 -58.666 -33 -84.999s-30.5 -48.666 -49.5 -66.999s-39.5 -27.5 -61.5 -27.5c-14.667 0 -26.334 5.16699 -35.001 15.5s-15.334 23.166 -20.001 38.499
s-7.66699 31.833 -9 49.5s-2 33.834 -2 48.501c0 72.667 11 171.667 33 297c-7.33301 0.666992 -14.666 1.16699 -21.999 1.5s-15 0.5 -23 0.5c-4.66699 0 -7 2.33301 -7 7s2.33301 7 7 7c15.333 0 32 2.66699 50 8c15.333 86 34 174.833 56 266.5l66 263.5l-24.5 -60.5
c-9.66699 -23.667 -20.667 -48.5 -33 -74.5s-25.833 -52 -40.5 -78s-30 -49.167 -46 -69.5s-32.667 -36.833 -50 -49.5s-35 -19 -53 -19c-20 0 -36.833 4.33301 -50.5 13s-24.834 20.334 -33.501 35.001s-14.834 31.5 -18.501 50.5s-5.5 38.5 -5.5 58.5
c0 26 2.83301 54.167 8.5 84.5s13.834 60.666 24.501 90.999s23.667 59.5 39 87.5s32.666 52.833 51.999 74.5s40.166 39 62.499 52s46.166 19.5 71.499 19.5c16.667 0 31.167 -5.33301 43.5 -16s22.833 -23.667 31.5 -39s15.667 -31.333 21 -48s9.33301 -31 12 -43
c12.667 34.667 23.334 66 32.001 94s15 49 19 63c3.33301 9.33301 5.33301 15.333 6 18s2 4.33398 4 5.00098c0.666992 0.666992 1.33398 1 2.00098 1h55c4.66699 0 7 -2.33301 7 -7l-69 -244l-31 -114l-32 -124l-31.5 -129l-29.5 -128c29.333 22 57.333 51.5 84 88.5
s51 76.5 73 118.5s41.5 84.667 58.5 128s30.5 82.666 40.5 117.999c0 3.33301 2 5 6 5c4.66699 0 7 -2.33301 7 -7zM88.001 -49.002c17.333 0 34.6709 7.16699 52.0039 21.5s34.166 32.833 50.499 55.5s32 48.167 47 76.5s28.833 56.666 41.5 84.999s24 55 34 80l24 61.5
c-0.666992 4.66699 -2.83398 15.5 -6.50098 32.5s-9.5 34.833 -17.5 53.5s-18 35.5 -30 50.5s-27 22.5 -45 22.5c-14 0 -28.5 -7.33301 -43.5 -22s-29.667 -34.167 -44 -58.5s-27.833 -52.166 -40.5 -83.499s-23.834 -63.5 -33.501 -96.5s-17.334 -65.667 -23.001 -98
s-8.5 -61.833 -8.5 -88.5c0 -9.33301 0.5 -19.5 1.5 -30.5s3 -21 6 -30s7.33301 -16.5 13 -22.5s13.167 -9 22.5 -9zM384.006 -454.002c0 42 -9.83203 78.5 -29.499 109.5s-50.167 53.167 -91.5 66.5c-5.33301 -23.333 -10.833 -49.666 -16.5 -78.999
s-10.834 -59.5 -15.501 -90.5s-8.66699 -61.333 -12 -91s-5 -56.5 -5 -80.5c0 -6 0.166992 -13.833 0.5 -23.5s1.5 -18.834 3.5 -27.501s4.83301 -16.167 8.5 -22.5s8.5 -9.5 14.5 -9.5c20 0 38.667 8.83301 56 26.5s32.5 39.167 45.5 64.5s23.167 52.333 30.5 81
s11 54 11 76z" />
    <glyph glyph-name="r" unicode="r" horiz-adv-x="471" 
d="M489 243c0 -1.33301 -2.49707 -10.6699 -7.49707 -28.0029s-12 -38.5 -21 -63.5s-19.833 -52 -32.5 -81s-26.667 -55.833 -42 -80.5s-31.666 -45.167 -48.999 -61.5s-35.333 -24.5 -54 -24.5h-4c-1.33301 0 -2.66602 0.166992 -3.99902 0.5s-2.66602 0.5 -3.99902 0.5
c-30 2 -51.5 11.5 -64.5 28.5s-19.5 40.5 -19.5 70.5c0 21.333 3 45 9 71s13.5 53.167 22.5 81.5s18.667 56.833 29 85.5l29 83.5c9 27 16.5 52.333 22.5 76s9 44.167 9 61.5c0 16 -3.33301 28.333 -10 37s-18 13 -34 13c-10 0 -20.833 -2.5 -32.5 -7.5
s-23.667 -10.667 -36 -17s-24.833 -12.166 -37.5 -17.499s-25 -8.33301 -37 -9c-1.33301 -3.33301 -5 -11.166 -11 -23.499l-20.5 -44c-7.66699 -17 -16.167 -34.667 -25.5 -53l-26 -51c-8 -15.667 -15.167 -28.667 -21.5 -39s-10.5 -15.5 -12.5 -15.5c-4 0 -6 2.33301 -6 7
l37 72l35 70.5c12.667 25.667 24.667 51.167 36 76.5c-14.667 1.33301 -27.334 5.66602 -38.001 12.999s-19.334 16.666 -26.001 27.999s-11.5 24 -14.5 38s-4.5 28.667 -4.5 44c0 20 2.66699 40.5 8 61.5s13.166 40.333 23.499 58s23.166 32.167 38.499 43.5
s32.666 17 51.999 17c18 0 30.667 -5.83301 38 -17.5s11 -26.5 11 -44.5c0 -46.667 -22.333 -122.334 -67 -227.001c10.667 2 21.834 5.66699 33.501 11l35.5 17c12 6 23.667 11.333 35 16s22.333 7 33 7h4c30 0 51.667 -8.66699 65 -26s20 -41 20 -71
c0 -32 -5.83301 -69.167 -17.5 -111.5s-24.5 -85 -38.5 -128s-26.833 -84.333 -38.5 -124s-17.5 -72.5 -17.5 -98.5c0 -13.333 2 -24.666 6 -33.999s12.667 -14.666 26 -15.999h10c17.333 0 34.166 8.16699 50.499 24.5s31.666 36.833 45.999 61.5s27.333 51.334 39 80.001
s22 55.334 31 80.001l22 61.5c5.66699 16.333 9.16699 24.5 10.5 24.5c4.66699 0 7 -2.33301 7 -7zM180.003 702.996c0 14 -2.33203 25.667 -6.99902 35s-14 14 -28 14c-8 0 -15.833 -5.83301 -23.5 -17.5s-14.834 -26.5 -21.501 -44.5s-12 -38.333 -16 -61s-6 -45 -6 -67
c0 -7.33301 0.333008 -15.833 1 -25.5s2.33398 -18.834 5.00098 -27.501s6.16699 -16.167 10.5 -22.5s10.166 -9.83301 17.499 -10.5c26 60.667 43.833 108.834 53.5 144.501s14.5 63.167 14.5 82.5z" />
    <glyph glyph-name="s" unicode="s" horiz-adv-x="255" 
d="M276 250c4.66699 0 6.99902 -2.32617 6.99902 -6.99316s-2.33301 -7 -7 -7c-31.333 0 -60 -2.33301 -86 -7s-49.667 -10.667 -71 -18c14 -10 27.833 -20.5 41.5 -31.5s25.834 -23 36.501 -36s19.167 -27.167 25.5 -42.5s9.5 -32.333 9.5 -51
c0 -26.667 -8.33301 -53 -25 -79s-37.667 -49.333 -63 -70s-53 -37.334 -83 -50.001s-58.333 -19 -85 -19c-30 0 -53.5 9.66699 -70.5 29s-25.5 46 -25.5 80c0 20.667 3.5 42.334 10.5 65.001s17.667 45.334 32 68.001s32 44.334 53 65.001s45.5 39 73.5 55
c-14.667 9.33301 -29.167 19.166 -43.5 29.499s-27 21.666 -38 33.999s-20 26.166 -27 41.499s-10.5 32.666 -10.5 51.999c0 24 3.5 45.5 10.5 64.5s16.667 35 29 48s26.5 22.833 42.5 29.5s33 10 51 10c28 0 48.667 -6.83301 62 -20.5s20 -30.834 20 -51.501
c0 -8 -1.16699 -16.333 -3.5 -25s-5.5 -16.334 -9.5 -23.001s-8.66699 -12.167 -14 -16.5s-11 -6.5 -17 -6.5c-4.66699 0 -7 2 -7 6c0 4.66699 2.33301 7 7 7c6.66699 0 13.5 5.83301 20.5 17.5s10.5 25.167 10.5 40.5c0 20 -6.33301 34.833 -19 44.5
s-29.334 14.5 -50.001 14.5c-5.33301 0 -12.166 -2.33301 -20.499 -7s-16.666 -12.334 -24.999 -23.001s-15.5 -25 -21.5 -43s-9 -40 -9 -66c0 -14 3.33301 -26.667 10 -38s15.5 -22.333 26.5 -33s23.667 -20.834 38 -30.501l43.5 -29.5
c23.333 9.33301 49.166 16.666 77.499 21.999s59.5 8 93.5 8zM167.999 52.0068c0 16 -2.99902 30.168 -8.99902 42.501s-13.833 23.833 -23.5 34.5s-20.834 20.5 -33.501 29.5s-26 17.833 -40 26.5c-28 -15.333 -52.5 -32.833 -73.5 -52.5s-38.5 -40.334 -52.5 -62.001
s-24.5 -43.667 -31.5 -66s-10.5 -43.5 -10.5 -63.5c0 -30 7.33301 -53.333 22 -70s34.667 -25 60 -25c24 0 47.5 6 70.5 18s43.5 27.667 61.5 47s32.5 41.333 43.5 66s16.5 49.667 16.5 75z" />
    <glyph glyph-name="t" unicode="t" horiz-adv-x="559" 
d="M576 243c0 -2 -3.3291 -13.668 -9.99609 -35.001s-16 -48.833 -28 -82.5s-26.333 -71.5 -43 -113.5s-34.834 -84.833 -54.501 -128.5s-40.667 -86.167 -63 -127.5s-45.333 -78.333 -69 -111s-47.5 -58.834 -71.5 -78.501s-47.667 -29.5 -71 -29.5
c-40.667 0 -73.334 11.667 -98.001 35s-43.834 53 -57.501 89s-22.834 75.833 -27.501 119.5s-7 85.834 -7 126.501c0 53.333 2.83301 109.5 8.5 168.5s13 118.333 22 178s19.333 118.667 31 177s23.5 113.5 35.5 165.5l-73.5 36.5
c-23.667 12.333 -46.834 23.5 -69.501 33.5s-44.5 18.167 -65.5 24.5s-41.167 9.5 -60.5 9.5c-16.667 0 -32.667 -2.83301 -48 -8.5s-29.666 -15.5 -42.999 -29.5c-2.66699 -1.33301 -4.33398 -2 -5.00098 -2c-4.66699 0 -7 2.33301 -7 7c0 2 2.5 5.66699 7.5 11
s12.167 10.666 21.5 15.999s20.166 10 32.499 14s26.166 6 41.499 6c20 0 40.833 -3.16699 62.5 -9.5s44 -14.666 67 -24.999s46.333 -21.666 70 -33.999l72.5 -36.5l20.5 87.5c5 21 9 36.5 12 46.5s5.16699 16.167 6.5 18.5s2.66602 3.5 3.99902 3.5h52
c4.66699 0 7 -2 7 -6l-13 -54l-13.5 -56.5l-15.5 -66.5c26 -10.667 52.167 -19.5 78.5 -26.5s52.833 -10.5 79.5 -10.5c32.667 0 64.834 6.33301 96.501 19s62.834 34.667 93.501 66c2.66699 1.33301 4.33398 2 5.00098 2c4.66699 0 7 -2.33301 7 -7c0 -2 -5 -8 -15 -18
s-23.833 -20.667 -41.5 -32s-38.834 -21.5 -63.501 -30.5s-51.667 -13.5 -81 -13.5c-28 0 -55.333 3.5 -82 10.5s-53.334 15.833 -80.001 26.5c-11.333 -52.667 -22.833 -109.334 -34.5 -170.001s-22.167 -122.334 -31.5 -185.001s-16.833 -124.667 -22.5 -186
s-8.5 -119 -8.5 -173c0 -29.333 1.33301 -61.666 4 -96.999s8.5 -68.166 17.5 -98.499s22 -55.833 39 -76.5s40.167 -31 69.5 -31c22.667 0 45.834 10 69.501 30s46.834 46.333 69.501 79s44.834 70 66.501 112s42.167 84.833 61.5 128.5s37 86.5 53 128.5l42 112l28.5 79
c7 20 11.167 30 12.5 30c4.66699 0 7 -2.33301 7 -7z" />
    <glyph glyph-name="u" unicode="u" horiz-adv-x="590" 
d="M607 243c0 -1.33301 -3.6709 -13.166 -11.0039 -35.499s-17.166 -49.833 -29.499 -82.5s-26.666 -67.834 -42.999 -105.501s-33.833 -72.5 -52.5 -104.5s-38 -58.667 -58 -80s-39.333 -32 -58 -32c-20 0 -36.167 5 -48.5 15s-22 23 -29 39s-11.833 34 -14.5 54
s-4 40 -4 60c0 26.667 1.83301 55.334 5.5 86.001s8.33398 61.5 14.001 92.5s12 61.667 19 92l20.5 85.5l-21.5 -51c-9 -21.333 -19.333 -44.166 -31 -68.499s-24.167 -48.833 -37.5 -73.5s-27.333 -46.834 -42 -66.501s-29.334 -35.834 -44.001 -48.501s-29 -19 -43 -19
c-20 -0 -36.667 3.83301 -50 11.5s-24 18 -32 31s-13.833 28.333 -17.5 46s-5.5 36.5 -5.5 56.5c0 22 2 46 6 72s8.83301 52.333 14.5 79s12.167 52.334 19.5 77.001s14.166 46.667 20.499 66s12.166 34.833 17.499 46.5s9 17.5 11 17.5h43c4.66699 0 7 -2 7 -6
c-16 -46.667 -30 -93.334 -42 -140.001c-10.667 -40 -20.334 -82.167 -29.001 -126.5s-13 -84.5 -13 -120.5c0 -10.667 0.666992 -21.667 2 -33s3.66602 -21.833 6.99902 -31.5s8.33301 -17.5 15 -23.5s15.334 -9 26.001 -9c12.667 0 26.334 6.83301 41.001 20.5
s29.334 31.667 44.001 54s29.334 47.833 44.001 76.5s28.834 58 42.501 88s26.334 59.5 38.001 88.5l30.5 78c8.66699 23 15.5 41.833 20.5 56.5s7.83301 22.667 8.5 24c0.666992 0 1 0.333008 1 1l3 3h46c4 0 6 -2 6 -6c-20.667 -73.333 -39.334 -145 -56.001 -215
c-7.33301 -30 -14.333 -61 -21 -93s-12.5 -63.667 -17.5 -95s-9.16699 -61.5 -12.5 -90.5s-5 -55.5 -5 -79.5c0 -10 0.333008 -21.167 1 -33.5s2.5 -24 5.5 -35s7.33301 -20.167 13 -27.5s13.5 -11 23.5 -11c17.333 0 35.333 10.667 54 32s36.834 48 54.501 80
s34.5 66.833 50.5 104.5s30.167 72.5 42.5 104.5l30 80c7.66699 21.333 12.167 32 13.5 32c4.66699 0 7 -2.33301 7 -7z" />
    <glyph glyph-name="v" unicode="v" horiz-adv-x="386" 
d="M414 351c0 -2 -3.67285 -8.32617 -11.0059 -18.9932s-17 -22.334 -29 -35.001s-25.833 -24.334 -41.5 -35.001s-32.167 -16.334 -49.5 -17.001l-18 -40.5c-7.33301 -16.333 -15.833 -33.5 -25.5 -51.5s-20 -36.167 -31 -54.5s-22.333 -34.833 -34 -49.5
s-23.667 -26.5 -36 -35.5s-24.166 -13.5 -35.499 -13.5c-22.667 0 -40.667 7.5 -54 22.5s-23.666 33.833 -30.999 56.5s-12.166 47.167 -14.499 73.5s-3.5 50.833 -3.5 73.5c0 26.667 1 54.167 3 82.5s4.5 55 7.5 80s6.16699 47.167 9.5 66.5s6 33.666 8 42.999v1l1 1l1 1
l1 1l1 1h45c4.66699 0 7 -2 7 -6c-6 -34.667 -11 -70.334 -15 -107.001c-3.33301 -31.333 -6.5 -65.833 -9.5 -103.5s-4.5 -74.167 -4.5 -109.5c0 -11.333 0.333008 -26.166 1 -44.499s2.5 -36.333 5.5 -54s7.83301 -33 14.5 -46s15.667 -19.5 27 -19.5
c14.667 0 30.334 9.5 47.001 28.5s32.834 41.167 48.501 66.5s29.667 51 42 77s21.5 46 27.5 60c-16.667 2 -30.667 9.16699 -42 21.5s-20.5 27.333 -27.5 45s-12 37.167 -15 58.5s-4.5 42.333 -4.5 63c0 22 2 46.5 6 73.5s10.667 52.5 20 76.5s21.333 44.167 36 60.5
s33 24.5 55 24.5c13.333 0 24.333 -3 33 -9s15.5 -13.833 20.5 -23.5s8.5 -20.834 10.5 -33.501s3 -25.667 3 -39c0 -38 -6.66699 -84 -20 -138s-31.666 -109.333 -54.999 -166c15.333 2 29.833 8.16699 43.5 18.5s25.667 21.166 36 32.499s18.5 21.666 24.5 30.999l9 14
c2 2 4 3 6 3c4.66699 0 7 -2.33301 7 -7zM273.994 259.007c23.333 56.667 41.6689 111.999 55.002 165.999s20 100 20 138c0 10.667 -0.666992 21.5 -2 32.5s-4 20.833 -8 29.5s-9.5 15.667 -16.5 21s-15.833 8 -26.5 8c-6.66699 0 -12.834 -4.83301 -18.501 -14.5
s-10.834 -22.334 -15.501 -38.001s-9 -33.167 -13 -52.5s-7.16699 -38.666 -9.5 -57.999s-4.16602 -37.666 -5.49902 -54.999s-2 -31.333 -2 -42c0 -9.33301 0.5 -21.333 1.5 -36s3 -29 6 -43s7.16699 -26.333 12.5 -37s12.666 -17 21.999 -19z" />
    <glyph glyph-name="w" unicode="w" horiz-adv-x="728" 
d="M752 351c0 -2 -3 -11.3359 -9 -28.0029s-14.667 -34.834 -26 -54.501s-24.833 -38.334 -40.5 -56.001s-33.5 -28.5 -53.5 -32.5c-3.33301 -15.333 -8 -34.833 -14 -58.5s-13.167 -48.667 -21.5 -75s-17.833 -52.833 -28.5 -79.5s-22.167 -50.5 -34.5 -71.5
s-25.666 -38.167 -39.999 -51.5s-29.166 -20 -44.499 -20c-23.333 0 -43.333 7.16699 -60 21.5s-30.667 33.333 -42 57s-20.333 50.5 -27 80.5s-11.834 60.833 -15.501 92.5s-6 62.5 -7 92.5s-1.5 56.667 -1.5 80c0 34 0.666992 68 2 102s3.33301 68 6 102l-14.5 -66.5
c-6.33301 -28.333 -14 -59.166 -23 -92.499s-19.167 -67.333 -30.5 -102s-23.666 -66.167 -36.999 -94.5s-27.333 -51.5 -42 -69.5s-29.667 -27 -45 -27c-21.333 0 -38.833 4.16699 -52.5 12.5s-24.834 19.666 -33.501 33.999s-14.667 31 -18 50s-5 38.833 -5 59.5
s1.66699 43.667 5 69s7.66602 51 12.999 77s11.166 51 17.499 75s12.333 45.333 18 64s11 33.667 16 45s8.5 17 10.5 17h42c4.66699 0 7 -2 7 -6c-14 -44.667 -26.333 -89.334 -37 -134.001c-4.66699 -19.333 -9.16699 -39.333 -13.5 -60s-8.16602 -41.5 -11.499 -62.5
s-6 -41.667 -8 -62s-3 -39.5 -3 -57.5c0 -11.333 0.666992 -23.333 2 -36s3.83301 -24.334 7.5 -35.001s9 -19.5 16 -26.5s16.167 -10.5 27.5 -10.5c12 0 24.333 8.16699 37 24.5s25.167 38 37.5 65s24.333 57.833 36 92.5s22.5 70 32.5 106c23.333 84.667 46 181 68 289h43
c4.66699 0 7 -2.33301 7 -7c-4 -36 -7.33301 -74.667 -10 -116c-2.66699 -35.333 -5 -75.166 -7 -119.499s-3 -89.5 -3 -135.5c0 -15.333 0.166992 -35.166 0.5 -59.499s1.5 -50.333 3.5 -78s5.16699 -55.667 9.5 -84s10 -53.666 17 -75.999s15.833 -40.666 26.5 -54.999
s23.667 -21.5 39 -21.5c13.333 0 26.333 6.5 39 19.5s24.834 29.833 36.501 50.5s22.5 43.834 32.5 69.501s19 51 27 76s14.833 48.5 20.5 70.5s10.167 40 13.5 54h-2c-26.667 0 -48.834 8.16699 -66.501 24.5s-32 37 -43 62s-18.833 52.333 -23.5 82s-7 57.5 -7 83.5
c0 20.667 1.66699 44.834 5 72.501s9.33301 53.667 18 78s19.834 45 33.501 62s31.167 25.5 52.5 25.5c18 0 32.5 -6.83301 43.5 -20.5s19.5 -30.5 25.5 -50.5s9.83301 -41.333 11.5 -64s2.5 -43 2.5 -61c0 -41.333 -2.83301 -85.666 -8.5 -132.999
s-13.834 -95.333 -24.501 -144c17.333 5.33301 33 16.5 47 33.5s25.833 34.667 35.5 53s17.167 34.833 22.5 49.5l8 22c1.33301 3.33301 3.33301 5 6 5c4.66699 0 7 -2.33301 7 -7zM612 191.997c10.667 49.333 18.835 98.0039 24.502 146.004s8.5 92.667 8.5 134
c0 15.333 -0.666992 33.333 -2 54s-4.5 40.5 -9.5 59.5s-12 35.167 -21 48.5s-21.167 20 -36.5 20c-6 0 -11.5 -4.83301 -16.5 -14.5s-9.33301 -22 -13 -37s-6.83398 -31.833 -9.50098 -50.5s-4.83398 -36.834 -6.50098 -54.501s-2.83398 -33.834 -3.50098 -48.501
s-1 -25.667 -1 -33c0 -17.333 1 -38.833 3 -64.5s5.83301 -50.334 11.5 -74.001s13.834 -43.834 24.501 -60.501s24.667 -25 42 -25h5z" />
    <glyph glyph-name="x" unicode="x" horiz-adv-x="628" 
d="M647 243c0 -4 -1.99121 -14.0049 -5.99121 -30.0049s-10.333 -34.833 -19 -56.5s-19.167 -44.667 -31.5 -69s-26.833 -46.666 -43.5 -66.999s-35.5 -37.166 -56.5 -50.499s-43.833 -20 -68.5 -20c-24 0 -44.833 5.5 -62.5 16.5s-32.667 26 -45 45
s-22.5 41.167 -30.5 66.5s-14.667 52 -20 80c-15.333 -22.667 -32.333 -46.167 -51 -70.5s-38.834 -46.666 -60.501 -66.999s-44.667 -37.166 -69 -50.499s-49.833 -20 -76.5 -20c-4.66699 0 -7 2 -7 6c0 4.66699 2.33301 7 7 7c25.333 0 49.833 6.66699 73.5 20
s46.167 30.333 67.5 51s41.333 43.667 60 69s36 50 52 74c-6 34.667 -11 70.5 -15 107.5s-8.33301 70.833 -13 101.5s-10.834 55.667 -18.501 75s-17.834 29 -30.501 29c-17.333 0 -33.5 -6.33301 -48.5 -19s-28.833 -28.334 -41.5 -47.001s-23.834 -39 -33.501 -61
s-18.167 -42.333 -25.5 -61l-18 -47c-4.66699 -12.667 -7.66699 -19 -9 -19c-4.66699 0 -7 2.33301 -7 7c0 2 2 9.66699 6 23s9.66699 29.666 17 48.999s16.5 40 27.5 62s23.167 42.333 36.5 61s28.166 34.167 44.499 46.5s33.5 18.5 51.5 18.5
c21.333 0 39.5 -7.16699 54.5 -21.5s27.833 -32.833 38.5 -55.5s19.334 -47.667 26.001 -75s12.667 -54 18 -80l54 89.5c20 33.667 41.333 65.334 64 95.001s46.167 54.834 70.5 75.501s48.5 31 72.5 31c4.66699 0 7 -2.33301 7 -7s-2.33301 -7 -7 -7
c-20.667 0 -41.334 -8.5 -62.001 -25.5s-41.834 -39.5 -63.501 -67.5s-43.334 -59.833 -65.001 -95.5l-66.5 -108.5l17.5 -102.5c5.66699 -34.333 12.167 -65.333 19.5 -93s15.833 -50 25.5 -67s21.5 -25.5 35.5 -25.5c24.667 0 47 6.83301 67 20.5
s37.833 30.834 53.5 51.501s29.167 43.167 40.5 67.5s20.666 46.833 27.999 67.5s12.833 38 16.5 52s5.5 21.333 5.5 22c1.33301 4 3.66602 6 6.99902 6c4.66699 0 7 -2.33301 7 -7z" />
    <glyph glyph-name="y" unicode="y" horiz-adv-x="529" 
d="M555 243c0 -1.33301 -5.5 -10.3281 -16.5 -26.9951s-26.333 -37.334 -46 -62.001s-42.834 -51.667 -69.501 -81s-55.667 -57.333 -87 -84c-16.667 -60.667 -36 -120.5 -58 -179.5s-47.5 -115.333 -76.5 -169s-61.667 -103.334 -98 -149.001
s-76.666 -85.167 -120.999 -118.5s-93 -59.5 -146 -78.5s-110.833 -28.5 -173.5 -28.5c-39.333 0 -75.166 6.33301 -107.499 19s-60.333 29.667 -84 51s-42 46 -55 74s-19.5 57 -19.5 87c0 46 6.66699 83.667 20 113s32 53.166 56 71.499s52.667 32.5 86 42.5
s70.333 18.667 111 26l131 22.5c46.667 7.66699 95.167 18.334 145.5 32.001s101.666 31.5 153.999 53.5s104.833 51.333 157.5 88c14.667 48.667 27.667 96.5 39 143.5s21 91.5 29 133.5s14.5 80.333 19.5 115l12.5 89l-24.5 -63.5c-10.333 -27 -22.333 -56.333 -36 -88
s-28.667 -63.834 -45 -96.501s-33 -62.167 -50 -88.5s-34.333 -48 -52 -65s-34.5 -25.5 -50.5 -25.5c-20 0 -36.667 3.83301 -50 11.5s-24 18 -32 31s-13.833 28.333 -17.5 46s-5.5 36.5 -5.5 56.5c0 26 2.5 54.5 7.5 85.5s11.5 62.333 19.5 94s17 62.667 27 93
s19.667 57.5 29 81.5l1 1l1 1l1 1l1 1h45c4.66699 0 7 -2 7 -6c-16 -46.667 -30 -93.334 -42 -140.001c-10.667 -40 -20.334 -82.167 -29.001 -126.5s-13 -84.5 -13 -120.5c0 -10.667 0.666992 -21.667 2 -33s3.66602 -21.833 6.99902 -31.5s8.33301 -17.5 15 -23.5
s15.334 -9 26.001 -9c14 0 29.167 8.33301 45.5 25s32.833 38.5 49.5 65.5s33.334 57.667 50.001 92s32.5 69 47.5 104s28.667 68.833 41 101.5l31.5 85c0.666992 4.66699 1.16699 8.66699 1.5 12s2.5 5 6.5 5h42c4.66699 0 7 -2 7 -6
c0 -6.66699 -1.33301 -24.834 -4 -54.501s-7 -66.834 -13 -111.501s-14.167 -94.5 -24.5 -149.5s-22.833 -111.167 -37.5 -168.5c34 30 67.667 64.333 101 103s66 82.334 98 131.001c2 2 4 3 6 3c4.66699 0 7 -2.33301 7 -7zM-337 -719.995
c52.667 0 101.665 8.8291 146.998 26.4961s87.166 42 125.499 73s73.5 67.333 105.5 109s61 86.334 87 134.001s49.167 97.334 69.5 149.001s38.5 102.834 54.5 153.501c-52 -35.333 -104 -63.5 -156 -84.5s-102.667 -38 -152 -51s-96.666 -23.167 -141.999 -30.5
l-127.5 -21.5c-39.667 -7 -75.667 -15.167 -108 -24.5s-60 -22.666 -83 -39.999s-40.833 -40 -53.5 -68s-19 -64 -19 -108c0 -30 6.66699 -58.167 20 -84.5s31.333 -49.333 54 -69s49.334 -35.167 80.001 -46.5s63.334 -17 98.001 -17z" />
    <glyph glyph-name="z" unicode="z" horiz-adv-x="447" 
d="M471 243c0 -17.333 -6.83398 -35.0029 -20.501 -53.0029s-32.167 -36.167 -55.5 -54.5s-50.5 -37.333 -81.5 -57l-98.5 -60.5c18 -16.667 31 -36 39 -58s12 -45.333 12 -70c0 -41.333 -9.16699 -82.666 -27.5 -123.999s-43.5 -78.5 -75.5 -111.5s-69.5 -60 -112.5 -81
s-88.833 -31.5 -137.5 -31.5c-7.33301 0 -16.5 1 -27.5 3s-21.667 6.66699 -32 14s-19.166 17.833 -26.499 31.5s-11 32.5 -11 56.5c0 34.667 10.5 68.167 31.5 100.5s48.333 63.5 82 93.5s71.834 59 114.501 87l129 81c-12 16.667 -27.333 28.167 -46 34.5
s-38.334 9.5 -59.001 9.5c-4.66699 0 -7 2.33301 -7 7s2.33301 7 7 7h3c20 0.666992 39 7 57 19s34.667 27.5 50 46.5s29 40.667 41 65s22.167 49.333 30.5 75s14.833 50.834 19.5 75.501s7 47.334 7 68.001c0 6.66699 -0.333008 14.334 -1 23.001
s-2.33398 16.834 -5.00098 24.501s-6.16699 14 -10.5 19s-9.83301 7.5 -16.5 7.5c-26.667 0 -47.667 -6.33301 -63 -19s-27.666 -28.334 -36.999 -47.001s-17.166 -39 -23.499 -61s-13.833 -42.333 -22.5 -61s-19.834 -34.334 -33.501 -47.001s-32.5 -19 -56.5 -19
c-4.66699 0 -7 2.33301 -7 7s2.33301 7 7 7c21.333 0 38.166 6.16699 50.499 18.5s22.333 28 30 47s14.834 39.333 21.501 61s15.167 42 25.5 61s23.833 34.667 40.5 47s39.334 18.5 68.001 18.5h2c28 -0.666992 50 -13.834 66 -39.501s24 -59.834 24 -102.501
c0 -32.667 -4.66699 -65.167 -14 -97.5s-22.833 -62.166 -40.5 -89.499s-39.167 -51 -64.5 -71s-54 -34 -86 -42c30 -7.33301 54.667 -18.666 74 -33.999l95 58.5c30.667 19 57.667 37.5 81 55.5s42.166 35.5 56.499 52.5s21.5 33.5 21.5 49.5c0 4.66699 2.33301 7 7 7
c4 0 6 -2.33301 6 -7zM-87.001 -444.003c23.333 0 46.499 5.83398 69.499 17.501s45 27.167 66 46.5s40.5 41.666 58.5 66.999s33.5 51.666 46.5 78.999s23.333 54.833 31 82.5s11.5 53.5 11.5 77.5c0 28.667 -5.33301 52.334 -16 71.001l-126 -79
c-42 -27.333 -79.5 -55.5 -112.5 -84.5s-59.833 -59 -80.5 -90s-31 -63.167 -31 -96.5c0 -20 2.83301 -36 8.5 -48s12.834 -21.167 21.501 -27.5s17.667 -10.5 27 -12.5s18 -3 26 -3z" />
    <glyph glyph-name="braceleft" unicode="{" horiz-adv-x="342" 
 />
    <glyph glyph-name="bar" unicode="|" horiz-adv-x="297" 
 />
    <glyph glyph-name="braceright" unicode="}" horiz-adv-x="325" 
 />
    <glyph glyph-name="asciitilde" unicode="~" horiz-adv-x="464" 
 />
    <glyph glyph-name="exclamdown" unicode="&#xa1;" horiz-adv-x="269" 
 />
    <glyph glyph-name="cent" unicode="&#xa2;" horiz-adv-x="538" 
 />
    <glyph glyph-name="sterling" unicode="&#xa3;" horiz-adv-x="771" 
 />
    <glyph glyph-name="currency" unicode="&#xa4;" 
 />
    <glyph glyph-name="yen" unicode="&#xa5;" horiz-adv-x="616" 
 />
    <glyph glyph-name="brokenbar" unicode="&#xa6;" horiz-adv-x="251" 
 />
    <glyph glyph-name="section" unicode="&#xa7;" horiz-adv-x="606" 
 />
    <glyph glyph-name="dieresis" unicode="&#xa8;" horiz-adv-x="500" 
 />
    <glyph glyph-name="copyright" unicode="&#xa9;" horiz-adv-x="837" 
 />
    <glyph glyph-name="ordfeminine" unicode="&#xaa;" horiz-adv-x="307" 
 />
    <glyph glyph-name="guillemotleft" unicode="&#xab;" horiz-adv-x="461" 
 />
    <glyph glyph-name="logicalnot" unicode="&#xac;" 
 />
    <glyph glyph-name="registered" unicode="&#xae;" horiz-adv-x="818" 
 />
    <glyph glyph-name="macron" unicode="&#xaf;" horiz-adv-x="670" 
 />
    <glyph glyph-name="degree" unicode="&#xb0;" horiz-adv-x="329" 
 />
    <glyph glyph-name="plusminus" unicode="&#xb1;" horiz-adv-x="625" 
 />
    <glyph glyph-name="twosuperior" unicode="&#xb2;" horiz-adv-x="286" 
 />
    <glyph glyph-name="threesuperior" unicode="&#xb3;" horiz-adv-x="246" 
 />
    <glyph glyph-name="acute" unicode="&#xb4;" horiz-adv-x="500" 
 />
    <glyph glyph-name="mu" unicode="&#xb5;" horiz-adv-x="609" 
 />
    <glyph glyph-name="paragraph" unicode="&#xb6;" horiz-adv-x="758" 
 />
    <glyph glyph-name="periodcentered" unicode="&#xb7;" horiz-adv-x="248" 
 />
    <glyph glyph-name="periodcentered" unicode="&#x2219;" horiz-adv-x="248" 
 />
    <glyph glyph-name="cedilla" unicode="&#xb8;" horiz-adv-x="500" 
 />
    <glyph glyph-name="onesuperior" unicode="&#xb9;" horiz-adv-x="218" 
 />
    <glyph glyph-name="ordmasculine" unicode="&#xba;" horiz-adv-x="304" 
 />
    <glyph glyph-name="guillemotright" unicode="&#xbb;" horiz-adv-x="596" 
 />
    <glyph glyph-name="onequarter" unicode="&#xbc;" horiz-adv-x="611" 
 />
    <glyph glyph-name="onehalf" unicode="&#xbd;" horiz-adv-x="606" 
 />
    <glyph glyph-name="threequarters" unicode="&#xbe;" horiz-adv-x="609" 
 />
    <glyph glyph-name="questiondown" unicode="&#xbf;" horiz-adv-x="576" 
 />
    <glyph glyph-name="Agrave" unicode="&#xc0;" horiz-adv-x="1394" 
 />
    <glyph glyph-name="Aacute" unicode="&#xc1;" horiz-adv-x="1394" 
 />
    <glyph glyph-name="Acircumflex" unicode="&#xc2;" horiz-adv-x="1394" 
 />
    <glyph glyph-name="Atilde" unicode="&#xc3;" horiz-adv-x="1394" 
 />
    <glyph glyph-name="Adieresis" unicode="&#xc4;" horiz-adv-x="1394" 
 />
    <glyph glyph-name="Aring" unicode="&#xc5;" horiz-adv-x="1394" 
 />
    <glyph glyph-name="AE" unicode="&#xc6;" horiz-adv-x="2051" 
 />
    <glyph glyph-name="Ccedilla" unicode="&#xc7;" horiz-adv-x="988" 
 />
    <glyph glyph-name="Egrave" unicode="&#xc8;" horiz-adv-x="833" 
 />
    <glyph glyph-name="Eacute" unicode="&#xc9;" horiz-adv-x="833" 
 />
    <glyph glyph-name="Ecircumflex" unicode="&#xca;" horiz-adv-x="833" 
 />
    <glyph glyph-name="Edieresis" unicode="&#xcb;" horiz-adv-x="833" 
 />
    <glyph glyph-name="Igrave" unicode="&#xcc;" horiz-adv-x="592" 
 />
    <glyph glyph-name="Iacute" unicode="&#xcd;" horiz-adv-x="592" 
 />
    <glyph glyph-name="Icircumflex" unicode="&#xce;" horiz-adv-x="591" 
 />
    <glyph glyph-name="Idieresis" unicode="&#xcf;" horiz-adv-x="592" 
 />
    <glyph glyph-name="Eth" unicode="&#xd0;" horiz-adv-x="1318" 
 />
    <glyph glyph-name="Ntilde" unicode="&#xd1;" horiz-adv-x="1533" 
 />
    <glyph glyph-name="Ograve" unicode="&#xd2;" horiz-adv-x="1053" 
 />
    <glyph glyph-name="Oacute" unicode="&#xd3;" horiz-adv-x="1053" 
 />
    <glyph glyph-name="Ocircumflex" unicode="&#xd4;" horiz-adv-x="1053" 
 />
    <glyph glyph-name="Otilde" unicode="&#xd5;" horiz-adv-x="1053" 
 />
    <glyph glyph-name="Odieresis" unicode="&#xd6;" horiz-adv-x="1053" 
 />
    <glyph glyph-name="multiply" unicode="&#xd7;" horiz-adv-x="496" 
 />
    <glyph glyph-name="Oslash" unicode="&#xd8;" horiz-adv-x="1053" 
 />
    <glyph glyph-name="Ugrave" unicode="&#xd9;" horiz-adv-x="1282" 
 />
    <glyph glyph-name="Uacute" unicode="&#xda;" horiz-adv-x="1282" 
 />
    <glyph glyph-name="Ucircumflex" unicode="&#xdb;" horiz-adv-x="1282" 
 />
    <glyph glyph-name="Udieresis" unicode="&#xdc;" horiz-adv-x="1282" 
 />
    <glyph glyph-name="Yacute" unicode="&#xdd;" horiz-adv-x="763" 
 />
    <glyph glyph-name="agrave" unicode="&#xe0;" horiz-adv-x="623" 
 />
    <glyph glyph-name="aacute" unicode="&#xe1;" horiz-adv-x="623" 
 />
    <glyph glyph-name="acircumflex" unicode="&#xe2;" horiz-adv-x="623" 
 />
    <glyph glyph-name="atilde" unicode="&#xe3;" horiz-adv-x="623" 
 />
    <glyph glyph-name="adieresis" unicode="&#xe4;" horiz-adv-x="623" 
 />
    <glyph glyph-name="aring" unicode="&#xe5;" horiz-adv-x="623" 
 />
    <glyph glyph-name="ae" unicode="&#xe6;" horiz-adv-x="644" 
 />
    <glyph glyph-name="ccedilla" unicode="&#xe7;" horiz-adv-x="356" 
 />
    <glyph glyph-name="egrave" unicode="&#xe8;" horiz-adv-x="358" 
 />
    <glyph glyph-name="eacute" unicode="&#xe9;" horiz-adv-x="358" 
 />
    <glyph glyph-name="ecircumflex" unicode="&#xea;" horiz-adv-x="358" 
 />
    <glyph glyph-name="edieresis" unicode="&#xeb;" horiz-adv-x="358" 
 />
    <glyph glyph-name="igrave" unicode="&#xec;" horiz-adv-x="296" 
 />
    <glyph glyph-name="iacute" unicode="&#xed;" horiz-adv-x="296" 
 />
    <glyph glyph-name="icircumflex" unicode="&#xee;" horiz-adv-x="296" 
 />
    <glyph glyph-name="idieresis" unicode="&#xef;" horiz-adv-x="296" 
 />
    <glyph glyph-name="ntilde" unicode="&#xf1;" horiz-adv-x="602" 
 />
    <glyph glyph-name="ograve" unicode="&#xf2;" horiz-adv-x="439" 
 />
    <glyph glyph-name="oacute" unicode="&#xf3;" horiz-adv-x="439" 
 />
    <glyph glyph-name="ocircumflex" unicode="&#xf4;" horiz-adv-x="439" 
 />
    <glyph glyph-name="otilde" unicode="&#xf5;" horiz-adv-x="439" 
 />
    <glyph glyph-name="odieresis" unicode="&#xf6;" horiz-adv-x="439" 
 />
    <glyph glyph-name="divide" unicode="&#xf7;" 
 />
    <glyph glyph-name="oslash" unicode="&#xf8;" horiz-adv-x="441" 
 />
    <glyph glyph-name="ugrave" unicode="&#xf9;" horiz-adv-x="590" 
 />
    <glyph glyph-name="uacute" unicode="&#xfa;" horiz-adv-x="590" 
 />
    <glyph glyph-name="ucircumflex" unicode="&#xfb;" horiz-adv-x="590" 
 />
    <glyph glyph-name="udieresis" unicode="&#xfc;" horiz-adv-x="590" 
 />
    <glyph glyph-name="yacute" unicode="&#xfd;" horiz-adv-x="529" 
 />
    <glyph glyph-name="ydieresis" unicode="&#xff;" horiz-adv-x="529" 
 />
    <glyph glyph-name="fraction" unicode="&#x2044;" horiz-adv-x="167" 
 />
    <glyph glyph-name="fraction" unicode="&#x2215;" horiz-adv-x="167" 
 />
    <glyph glyph-name="franc" unicode="&#x20a3;" horiz-adv-x="931" 
 />
    <glyph glyph-name="lira" unicode="&#x20a4;" horiz-adv-x="751" 
 />
    <glyph glyph-name="peseta" unicode="&#x20a7;" horiz-adv-x="1097" 
 />
    <glyph glyph-name="Euro" unicode="&#x20ac;" horiz-adv-x="758" 
 />
    <glyph glyph-name="numero" unicode="&#x2116;" horiz-adv-x="1303" 
 />
    <glyph glyph-name="trademark" unicode="&#x2122;" horiz-adv-x="1100" 
 />
    <glyph glyph-name="partialdiff" unicode="&#x2202;" horiz-adv-x="496" 
 />
    <glyph glyph-name="a.salt" unicode="&#xe12a;" horiz-adv-x="1096" 
d="M1359 313c26.667 0 51.6641 -5.66699 74.9971 -17s43.5 -26.166 60.5 -44.499s30.333 -39 40 -62s14.5 -46.167 14.5 -69.5c0 -4.66699 -2.33301 -7 -7 -7s-7 2.33301 -7 7c0 21.333 -4.5 42.666 -13.5 63.999s-21.333 40.5 -37 57.5s-34.167 30.833 -55.5 41.5
s-44.666 16 -69.999 16c-32 0 -63.333 -7.16699 -94 -21.5s-60.834 -33 -90.501 -56s-59.334 -49.5 -89.001 -79.5l-90 -91.5l-93 -91c-31.667 -29.667 -64.5 -56 -98.5 -79s-69.5 -41.667 -106.5 -56s-75.833 -21.5 -116.5 -21.5c-45.333 0 -83.333 8.33301 -114 25
s-55.5 39.667 -74.5 69s-32.667 63.666 -41 102.999s-12.5 81.666 -12.5 126.999c0 43.333 3 87.5 9 132.5s13.667 88.5 23 130.5c-3.33301 -7.33301 -6.66602 -15.166 -9.99902 -23.499s-7 -16.833 -11 -25.5v-1c-7.33301 -17.333 -16.666 -37.666 -27.999 -60.999
s-24 -47.666 -38 -72.999s-29.167 -50.333 -45.5 -75s-33.5 -46.667 -51.5 -66s-36.333 -35 -55 -47s-37.334 -18 -56.001 -18c-30 0 -53 11.167 -69 33.5s-24 53.833 -24 94.5c0 24.667 3 51 9 79s14.667 56 26 84s24.833 54.667 40.5 80s33.334 47.833 53.001 67.5
s40.834 35.334 63.501 47.001s46.667 17.5 72 17.5c16.667 0 30.834 -5 42.501 -15s21.5 -22 29.5 -36s14.167 -28.833 18.5 -44.5s7.5 -28.834 9.5 -39.501c4 8 9 19.667 15 35l18 45c6 14.667 11.5 27.5 16.5 38.5s8.16699 16.5 9.5 16.5h43c4.66699 0 7 -2 7 -6
c-8.66699 -38 -16.667 -77.667 -24 -119c-6 -36 -11.333 -75.833 -16 -119.5s-7 -87.834 -7 -132.501c0 -36 2.33301 -72.5 7 -109.5s13.167 -70.167 25.5 -99.5s29.666 -53.333 51.999 -72s51.5 -28 87.5 -28c53.333 0 103.5 12.167 150.5 36.5s91.833 55 134.5 92
s84 76.833 124 119.5s80 82.5 120 119.5s80.333 67.667 121 92s83.334 36.5 128.001 36.5zM75.9971 13c17.333 0 34.8301 6.00293 52.4971 18.0029s35 27.667 52 47s33.333 41.166 49 65.499s30.334 48.833 44.001 73.5s25.834 48.167 36.501 70.5l27 57.5
c-0.666992 4 -2.5 13.833 -5.5 29.5s-7.83301 32 -14.5 49s-15.667 32.333 -27 46s-25.666 20.5 -42.999 20.5c-14.667 0 -30.167 -6.83301 -46.5 -20.5s-32.333 -31.834 -48 -54.501s-30.5 -48.334 -44.5 -77.001s-26.333 -58 -37 -88s-19.167 -59.5 -25.5 -88.5
s-9.5 -54.833 -9.5 -77.5c0 -8 0.5 -16.167 1.5 -24.5s2.83301 -15.833 5.5 -22.5s6.5 -12.167 11.5 -16.5s11.5 -6.5 19.5 -6.5c0 -0.666992 0.666992 -1 2 -1z" />
    <glyph glyph-name=".null" horiz-adv-x="0" 
 />
    <glyph glyph-name="nonmarkingreturn" horiz-adv-x="508" 
 />
    </font>
</defs>
</svg>
