<?xml version="1.0" standalone="no"?>
<!DOCTYPE svg PUBLIC "-//W3C//DTD SVG 1.1//EN" "http://www.w3.org/Graphics/SVG/1.1/DTD/svg11.dtd" >
<svg xmlns="http://www.w3.org/2000/svg" xmlns:xlink="http://www.w3.org/1999/xlink" version="1.1">
<metadata>
Created by FontForge 20170731 at Sun May  5 18:13:26 2019
 By Aleksey,,,
Copyright (c) 2019 by Suzuran. All rights reserved.
</metadata>
<defs>
<font id="Berlins" horiz-adv-x="253" >
  <font-face 
    font-family="Berlins"
    font-weight="400"
    font-stretch="normal"
    units-per-em="1000"
    panose-1="0 0 0 0 0 0 0 0 0 0"
    ascent="800"
    descent="-200"
    x-height="440"
    cap-height="698.5"
    bbox="-151.2 -395.067 688.125 887"
    underline-thickness="50"
    underline-position="-200"
    unicode-range="U+000D-007A"
  />
<missing-glyph 
 />
    <glyph glyph-name="T_h" unicode="Th" horiz-adv-x="673" 
d="M546 664l23 -2q-31 -37 -79 -66q-22 -63 -42.5 -160.5t-26.5 -170.5q43 78 68 109q41 51 76 34q9 -5 15 -12.5t9.5 -15t4 -19.5t0.5 -20t-2.5 -22.5t-4 -20t-5 -19.5t-3.5 -16q-3 -12 -10.5 -41.5t-11.5 -47.5t-8.5 -43t-3.5 -45t6 -36q10 -33 42 16q3 4 5 8
q28 48 78 229q4 8 9 6.5t2 -10.5q-1 -4 -10.5 -44t-16.5 -65.5t-21.5 -64.5t-30.5 -66q-20 -35 -43.5 -44.5t-39.5 4.5q-29 22 -31.5 70t7.5 77q3 15 12 52t12.5 64t-0.5 51q-13 68 -78 -61q-25 -53 -32 -97q-6 -32 -28 -32q-12 0 -21 8.5t-10 22.5q-16 175 44 400
q-28 -5 -59 5q-10 4 -8 10.5t11 4.5q34 -7 60 0q22 74 59 143l-34 -52q-65 6 -121 -7q-14 -558 -134 -669q-7 -7 -15 -10t-10 2.5t9 26.5q14 25 23 61q20 92 31.5 290t29.5 284q-142 -28 -227 -8q-6 2 -10 6t-1 7t14 2q124 -9 222 29q5 2 16.5 11t19.5 8q18 -2 49 6
q62 15 139 16q62 113 126 113q25 0 37 -14t10.5 -32.5t-6.5 -37.5q-6 -18 -21 -48q21 -8 34 -19q21 -19 13 -41.5t-37 -12.5q-61 18 -102 25q-16 -33 -21 -49q19 8 49 40zM590 728q26 51 17 81q-13 -5 -55 -74q26 -4 38 -7z" />
    <glyph glyph-name="t_h" unicode="th" horiz-adv-x="547" 
d="M318 700q36 79 78.5 133t84.5 54q25 0 37 -14t10.5 -32.5t-6.5 -37.5q-17 -49 -60.5 -99t-88.5 -77q-23 -66 -48 -178.5t-31 -183.5q43 78 68 109q41 51 76 34q9 -5 15 -12.5t9.5 -15t4 -19.5t0.5 -20t-2.5 -22.5t-4 -20t-5 -19.5t-3.5 -16q-3 -12 -10.5 -41.5
t-11.5 -47.5t-8.5 -43t-3.5 -45t6 -36q10 -33 42 16q3 4 5 8q28 48 78 229q4 8 9 6.5t2 -10.5q-1 -4 -10.5 -44t-16.5 -65.5t-21.5 -64.5t-30.5 -66q-20 -35 -43.5 -44.5t-39.5 4.5q-29 22 -31.5 70t7.5 77q3 15 12 52t12.5 64t-0.5 51q-13 68 -78 -61q-25 -53 -32 -97
q-6 -32 -28 -32q-12 0 -21 8.5t-10 22.5q-3 42 -3 85q-63 -205 -125 -299q-36 -56 -69 -54t-50 60q-15 47 -11 129q7 123 36.5 256t62.5 217q-122 -20 -199 8q-14 5 -7 11q5 3 13 1q26 -8 85.5 -5.5t113.5 14.5q46 107 75 143q14 17 33.5 9.5t15.5 -29.5q-6 -22 -40 -103
q62 2 133 23q16 40 25 60zM158 579q-5 -1 -9 -4.5t-5 -5.5t-4 -10t-4 -10q-37 -105 -74 -278t-38 -266q-1 -52 8 -68.5t22 -6.5t31 38q72 112 143 337q6 156 51 293q-24 -5 -66 -10.5t-55 -8.5zM498 843q-15 -5 -55 -65.5t-55 -100.5q27 14 49 32q32 31 50 69t11 65z" />
    <glyph glyph-name=".notdef" 
 />
    <glyph glyph-name=".null" horiz-adv-x="0" 
 />
    <glyph glyph-name="nonmarkingreturn" horiz-adv-x="333" 
 />
    <glyph glyph-name="NULL" horiz-adv-x="0" 
 />
    <glyph glyph-name="NULL" horiz-adv-x="0" 
 />
    <glyph glyph-name="CR" unicode="&#xd;" 
 />
    <glyph glyph-name="space" unicode=" " 
 />
    <glyph glyph-name="exclam" unicode="!" horiz-adv-x="265" 
d="M216 646q-7 -21 -38.5 -109.5t-44 -126.5t-31 -106.5t-27.5 -125.5q-5 -26 -20 -26q-16 -3 -17 37t3 54q29 240 105 459q7 23 26 42t38 10q35 -19 8 -103zM47 0q-16 1 -21.5 17t1.5 30.5t22 13.5t21 -17t-1 -30.5t-22 -13.5z" />
    <glyph glyph-name="quotedbl" unicode="&#x22;" horiz-adv-x="223" 
d="M96 756l-2 -10q-6 -25 -22.5 -44t-37.5 -23q-15 -2 -20 7t5 18q22 31 27 70q4 24 33 16q19 -6 17 -34zM181 756l-2 -10q-6 -25 -22.5 -44t-37.5 -23q-15 -2 -20 7t5 18q22 31 27 70q4 24 33 16q19 -6 17 -34z" />
    <glyph glyph-name="numbersign" unicode="#" horiz-adv-x="429" 
d="M84 192q-39 -10 -47 -12q-12 -2 -18 6.5t4 15.5q15 10 42.5 17.5t33.5 10.5q4 9 12 29t11 28q-6 -1 -21.5 -5t-27 -5.5t-19.5 -0.5q-11 0 -12.5 10t5.5 14q8 5 19.5 8.5t28.5 6.5t22 4q21 4 29 22q16 29 45 76q16 23 39 21q19 -1 13 -20q-2 -6 -7 -13q-17 -22 -41 -74
q16 2 42 5t32 4q27 54 37 64q11 13 24 6q15 -7 -2 -62h41q17 0 12 -17q-37 -4 -52 -7q-12 -4 -16 -9q-12 -26 -29 -69h58q24 0 24 -11q0 -10 -15 -12q-24 -2 -78 -4q-2 -5 -7 -16.5t-8 -17.5q-10 -24 -32 -88q-5 -13 -6 -14q-5 -7 -13.5 -6.5t-12.5 8.5q-4 14 -1 24
q26 93 31 103q-17 -2 -44 -5.5t-38 -4.5q-7 -1 -13 -13q-36 -66 -63 -167q-2 -6 -5 -9t-6.5 -0.5t-3.5 11.5q-1 24 9 75.5t24 92.5zM260 313q-56 -10 -75 -14q-3 0 -8 -5q-3 -8 -11.5 -27t-13.5 -32q41 3 74 7q9 0 11 9q9 24 23 62z" />
    <glyph glyph-name="dollar" unicode="$" horiz-adv-x="472" 
d="M298 305q78 -13 101 -31q51 -37 15 -102q-41 -71 -166 -90q-11 -45 -13 -104q0 -22 -11 -20.5t-10 17.5v3q1 50 9 104q-19 -1 -50.5 6.5t-60.5 32t-23 60.5q6 6 10.5 4t4.5 -10q-4 -27 24 -46.5t56 -25.5t42 -5q20 117 31 173q-158 -4 -171 -3q-52 4 -72.5 29t-12.5 57.5
t37 63.5q56 65 132.5 99t150.5 31q3 8 9.5 27t12.5 33.5t14 24.5q4 4 13.5 5.5t16 -1.5t4.5 -10q-3 -17 -14 -45.5t-12 -32.5q3 -1 13.5 -4t14.5 -4.5t12 -5t13 -6t10.5 -7t10.5 -9.5q19 -23 13 -48.5t-33 -36.5q-3 0 -5.5 -1t-4 1t-2.5 3.5t-1 5v5v5.5v5q2 17 -17.5 25.5
t-43.5 7.5q-21 -64 -47 -180zM303 481q-135 -23 -226 -119q-55 -57 19 -57q56 -1 166 -1q3 16 11.5 57t15 69.5t14.5 50.5zM250 99q42 5 86.5 28.5t57.5 55.5q11 18 2.5 43.5t-36.5 35.5q-31 10 -72 8z" />
    <glyph glyph-name="percent" unicode="%" horiz-adv-x="477" 
d="M-5 37q8 15 23 41.5t21 36.5t35 61t37 65.5t34.5 59t39 63t37.5 55t43.5 58t43 49t48.5 49.5q29 27 54 39q21 11 35 -6q11 -15 -4 -23q-23 -10 -50 -38q-58 -61 -120.5 -146t-101.5 -145.5t-99 -158.5q-30 -49 -55 -96q-7 -14 -18 -9q-23 8 -3 45zM144 563
q19 -51 -10.5 -98t-81.5 -49q-24 -1 -38.5 12t-13.5 36q3 30 30 70t64 62t63 2q25 -19 -5 -33q-1 -1 -4 -1.5t-4 -0.5zM89 446q23 13 33 45.5t1 66.5q-33 -33 -56 -69q-21 -30 -16.5 -45t38.5 2zM177 67q-5 23 5 49.5t30 38.5q19 12 34 5q4 -3 14 -3q25 2 37.5 -17t6.5 -41
q-10 -41 -46 -64q-24 -14 -49 -4t-32 36zM238 116q-14 -19 -18.5 -38t5.5 -29q24 -11 44.5 18t16.5 52q-2 12 -8.5 16t-14 1t-14 -8.5t-11.5 -11.5z" />
    <glyph glyph-name="ampersand" unicode="&#x26;" horiz-adv-x="575" 
d="M413 241q7 7 27 32t37 45t23 23q11 6 15.5 2t2.5 -14q-3 -13 -20.5 -33t-43 -44t-30.5 -30q-25 -29 -31 -48q-2 -9 -9.5 -40t-9.5 -39l-8.5 -34t-8.5 -35.5t-6.5 -31t-6 -33.5t-4.5 -30t-4.5 -33.5t-2.5 -32.5q-1 -2 -1 -8q-1 -9 -6.5 -12t-10.5 0.5t-5 11.5
q8 133 47 304q-124 -124 -215 -136q-71 -10 -109.5 41.5t-16.5 131.5q8 31 23 60t28 49.5t38.5 47.5t39 40t46 42t43.5 39q-31 1 -54.5 18.5t-7.5 53.5q31 69 114.5 97t143.5 -14q23 105 79 199q14 21 26.5 13t-0.5 -30q-89 -169 -87 -277q2 -14 -7 -14q-10 0 -14 9
q-9 28 -16.5 43.5t-24 30t-41.5 18.5q-38 6 -78.5 -15t-58.5 -46q-26 -38 -16 -54t48 -12q35 3 65 19q20 6 28 -8q8 -15 -6 -27q-10 -9 -32 -27q-46 -35 -102 -98t-88 -114q-22 -36 -30 -82t7 -80q22 -40 67 -33t92 37.5t83.5 68.5t41.5 60q26 118 70 221q10 23 29.5 19.5
t10.5 -34.5q-7 -26 -33 -92t-30 -85z" />
    <glyph glyph-name="quotesingle" unicode="'" horiz-adv-x="163" 
d="M96 756l-2 -10q-6 -25 -22.5 -44t-37.5 -23q-15 -2 -20 7t5 18q22 31 27 70q4 24 33 16q19 -6 17 -34z" />
    <glyph glyph-name="asterisk" unicode="*" horiz-adv-x="347" 
d="M138 508q-16 -13 -46.5 -43t-44.5 -43q-9 11 2 24q66 66 80 78q-18 0 -46.5 -5t-32.5 -5q-9 0 -11 8.5t6 10.5q15 5 75 10q-8 11 -59 71q10 12 24 2q5 -4 15 -15.5t23.5 -29t20.5 -25.5q25 98 35 121q3 4 8 3.5t8.5 -5t1.5 -9.5q-3 -12 -15 -49.5t-15 -55.5q41 31 98 73
q9 -9 -4 -17q-15 -13 -43.5 -33.5t-40.5 -30.5q10 -1 40.5 -0.5t37.5 -1.5q17 -2 21 -11q1 -5 -24 -7q-17 -1 -83 1q10 -17 27 -61.5t24 -57.5q8 -14 0 -21q-24 30 -61 112q-5 -27 -17 -79.5t-15 -64.5q-15 3 -12 21q20 108 23 135z" />
    <glyph glyph-name="plus" unicode="+" horiz-adv-x="372" 
d="M173 162q0 -1 -7.5 -35.5t-10.5 -47.5q-2 -6 -9.5 -6t-7.5 7q0 29 7 83q-77 0 -110 3q-10 0 -13.5 6.5t0 13.5t12.5 8q29 3 122 12q17 55 23 68q5 11 13.5 13.5t13.5 -3.5t1 -18q-3 -11 -10 -30.5t-9 -29.5q16 -1 46 -2t45 -2q13 -1 21.5 -3t17 -8t7.5 -16
q-1 -13 -18 -13q-20 -1 -42.5 -1t-49.5 0.5t-42 0.5z" />
    <glyph glyph-name="comma" unicode="," horiz-adv-x="149" 
d="M96 101l-2 -10q-6 -25 -22.5 -44t-37.5 -23q-15 -2 -20 7t5 18q22 31 27 70q4 24 33 16q19 -6 17 -34z" />
    <glyph glyph-name="hyphen" unicode="-" horiz-adv-x="337" 
d="M259 166q-31 1 -100 1t-105 2q-16 0 -23 8.5t5 17.5q7 3 22 5q103 11 195 0q32 -2 36 -18q3 -9 -13 -14q-7 -2 -17 -2z" />
    <glyph glyph-name="period" unicode="." horiz-adv-x="146" 
d="M82 93q-1 -16 -14 -20.5t-25 3.5t-11 23q1 18 14.5 23.5t25.5 -3.5t10 -26z" />
    <glyph glyph-name="slash" unicode="/" horiz-adv-x="352" 
d="M6 30q45 133 141 334q121 259 215 410q44 60 60 37q7 -9 -3 -29q-149 -291 -168 -328q-137 -268 -212 -448q-18 -40 -32 -28q-5 4 -8 8.5t-2 11t2 10.5t3.5 12t3.5 10z" />
    <glyph glyph-name="zero" unicode="0" horiz-adv-x="305" 
d="M161 465q-6 5 -11.5 6.5t-11 0t-10.5 -3.5t-10 -7.5t-9 -9.5t-8.5 -11.5t-7 -11.5t-7 -11.5t-5.5 -9.5q-43 -73 -68 -167.5t-14 -162.5q8 -47 37.5 -62t64.5 12q37 29 76 101.5t65 154.5t36 161.5t-11 122.5q-12 26 -33 28t-38 -20q-4 -6 -8 -12.5t-6.5 -12t-5 -14.5
t-4 -13.5t-3.5 -14.5t-2.5 -13.5t-3 -15t-2.5 -14.5zM200 337q-37 32 -10 133q18 70 42 91q13 12 17 -12q18 -127 -35 -288t-113 -208q-47 -37 -53 25q-6 64 29.5 165t82.5 191q0 -25 1.5 -41.5t11 -33.5t27.5 -22z" />
    <glyph glyph-name="one" unicode="1" horiz-adv-x="175" 
d="M83 485q-6 -14 -43 -47t-48 -37q-7 -2 -9.5 2.5t-0.5 11.5q23 13 63.5 52t53.5 68q1 2 3.5 8.5t3.5 8.5t4 7t5 6.5t5.5 3.5t7 1.5t8.5 -2t11 -4.5q33 -20 6 -86q-148 -352 -103 -441q2 -5 2.5 -9.5t-1 -7t-7 -1.5t-13.5 7q-43 44 -28 179q4 52 29 137t51 143z" />
    <glyph glyph-name="two" unicode="2" horiz-adv-x="377" 
d="M346 98q-71 5 -187 -43q-39 -18 -64 -26q-55 -20 -75 13.5t1 84.5q13 36 52 84.5t80.5 89.5t84.5 92.5t62 91.5q10 23 2 35t-25 11t-33 -4q-53 -16 -102.5 -60.5t-77.5 -93.5q-15 -26 -26 -12q-14 17 -1 50l2 4q32 61 88 104t117 45q66 0 87 -32t2 -81q-19 -42 -64 -103
t-72 -91.5t-93 -102.5q-11 -13 -17 -19q-48 -53 -36 -77q9 -19 58 -2q9 3 58.5 22t83.5 28.5t60 9.5q8 0 13 -0.5t11.5 -2t9 -5.5t1.5 -10z" />
    <glyph glyph-name="three" unicode="3" horiz-adv-x="393" 
d="M14 109q18 -56 68.5 -74t90.5 10.5t33 85.5q-4 25 -19 51.5t-26 43t-10 41t23 52.5q11 12 30.5 33.5t31 34.5t26.5 31t27 34q15 20 24 37t12.5 32.5t-7 23.5t-35.5 6q-156 -13 -243 -180q-12 -26 -26 -26q-23 5 -17 42q19 92 116 157.5t186 48.5q47 -8 70 -36.5t3 -74.5
q-17 -37 -42 -67t-71.5 -72t-56.5 -52q-12 -12 -13 -28t3 -26t15 -29t14 -24q36 -72 -6 -127t-109.5 -49.5t-92.5 78.5q-3 8 1 23z" />
    <glyph glyph-name="four" unicode="4" horiz-adv-x="426" 
d="M292 303q-42 -16 -122 -16q-2 0 -18 -11q-53 -51 -80 -62q-33 -13 -58 7q-18 14 -20 34q-5 36 34 56q42 21 82 11q36 42 62.5 96t62.5 146q9 20 24.5 28t34.5 -1q24 -14 15 -37q-9 -54 -52.5 -134.5t-78.5 -114.5q68 -2 112 16q7 2 12 19q5 13 19 50.5t21.5 57t19.5 43
t21 35.5q12 17 31.5 8.5t10.5 -32.5q-7 -17 -58.5 -132t-75 -192t-19.5 -137q0 -8 -3.5 -10.5t-8 0t-5.5 7.5q-3 21 -3.5 55.5t10.5 94t30 115.5zM98 307q-31 -1 -49.5 -7.5t-31.5 -25.5q-4 -7 -5.5 -15.5t0.5 -14.5t7 -6q10 2 22.5 11.5t33.5 32.5t23 25z" />
    <glyph glyph-name="five" unicode="5" horiz-adv-x="381" 
d="M94 484q-6 -14 -31.5 -71.5t-31.5 -71.5q45 26 98.5 38.5t90.5 -0.5q59 -20 89 -69.5t11 -114.5q-20 -70 -72.5 -125t-115.5 -62q-49 -7 -86.5 12.5t-46.5 66.5q-12 54 19 87q6 5 10 3.5t-1 -10.5q-21 -35 -14 -76q8 -42 42.5 -53.5t71 0t59.5 32.5q87 81 86 175
q-1 74 -55 108q-68 41 -163 -18q-11 -7 -23 -16q-11 -8 -21 -1q-13 10 -7 24q7 15 27 54t29 61q7 16 7 21q1 15 5 20t20 6q81 5 127.5 15.5t118.5 41.5q25 11 32 -7q7 -19 -16 -35l-6 -3q-82 -41 -253 -32z" />
    <glyph glyph-name="six" unicode="6" horiz-adv-x="364" 
d="M44 206q30 28 71 44.5t75 15.5q32 0 52 -24.5t14 -57.5q-8 -42 -40.5 -79.5t-72.5 -59.5q-22 -12 -41 -13q-68 -7 -93 63q-21 62 -10.5 138t46.5 149q42 86 114 141.5t150 26.5q47 -18 54 -74q6 -40 -21 -72q-12 -12 -20 -13.5t-11.5 9t-4.5 16t-2 20.5q-9 61 -52 70.5
t-85 -28.5q-48 -40 -83 -119t-40 -153zM42 117q5 -37 26 -53.5t53 -5.5q46 15 95 81q11 15 20 40q9 29 -5.5 48.5t-44.5 19.5q-64 0 -109 -35.5t-35 -94.5z" />
    <glyph glyph-name="seven" unicode="7" horiz-adv-x="368" 
d="M79 12q-6 30 19 111.5t50 130.5q-10 -2 -40.5 -8.5t-46.5 -9.5q-14 -4 -19 10q-3 8 1 15t15 12t17 7t16 5q10 2 31 5.5t32 5.5q15 2 22 14q53 104 114 180q14 18 12.5 20t-20.5 -5q-3 -1 -4 -1q-12 -3 -58.5 -18.5t-85.5 -25t-70 -9.5q-15 0 -29.5 2.5t-27 12t-10.5 23.5
q4 22 26 22q50 0 99 6.5t125.5 21.5t93.5 18q28 4 36 -5.5t0 -24t-24 -28.5q-77 -72 -140 -173q-1 -2 -3.5 -6t-4.5 -7.5t-4 -7.5q66 0 84 -1q11 0 22.5 -6t9.5 -15t-18 -9q-8 0 -32.5 -1t-41 -2.5t-30.5 -5.5q-16 -5 -22 -16q-74 -166 -81 -236q0 -5 -3 -7t-6 0t-4 6z" />
    <glyph glyph-name="eight" unicode="8" horiz-adv-x="308" 
d="M115 292q-35 49 -42.5 79t9.5 71q22 40 61 68t82 35q42 5 63.5 -12t9.5 -57q-21 -60 -98 -201q108 -89 63 -158q-26 -41 -81.5 -68t-102.5 -22q-42 5 -65 41t-14 77q12 46 40.5 79.5t74.5 67.5zM187 282q10 23 31.5 68.5t34 76.5t20.5 60q7 30 -14.5 35t-43.5 -5
q-66 -18 -104 -71q-14 -20 -16.5 -39t10 -38.5t21.5 -30.5t33 -31.5t28 -24.5zM151 256q-71 -45 -93 -98q-21 -45 -2.5 -83.5t67.5 -27.5q31 7 56 27.5t37.5 48.5t-3 64t-62.5 69z" />
    <glyph glyph-name="nine" unicode="9" horiz-adv-x="314" 
d="M274 497q21 -6 13 -35q-31 -125 -95.5 -252.5t-147.5 -195.5q-10 -10 -17 1q-4 7 3 12q38 32 94 123.5t91 182.5q21 57 15.5 58.5t-59.5 -42.5q-33 -26 -57 -38q-37 -21 -73 -8.5t-40 56.5q-4 58 33 110t93.5 78.5t108.5 16.5q47 -14 38 -67zM115 343q24 9 60.5 36
t57.5 50q8 9 16 27.5t5 30.5q-10 35 -51.5 27t-77.5 -45q-11 -11 -22 -24.5t-26.5 -36t-17.5 -38t7 -30.5q13 -13 49 3z" />
    <glyph glyph-name="colon" unicode=":" horiz-adv-x="189" 
d="M82 149q-1 -16 -14 -20.5t-25 3.5t-11 23q1 18 14.5 23.5t25.5 -3.5t10 -26zM102 346q-1 -16 -14 -20.5t-25 3.5t-11 23q1 18 14.5 23.5t25.5 -3.5t10 -26z" />
    <glyph glyph-name="semicolon" unicode=";" horiz-adv-x="189" 
d="M102 346q-1 -16 -14 -20.5t-25 3.5t-11 23q1 18 14.5 23.5t25.5 -3.5t10 -26zM86 136l-2 -10q-6 -25 -22.5 -44t-37.5 -23q-15 -2 -20 7t5 18q22 31 27 70q4 24 33 16q19 -6 17 -34z" />
    <glyph glyph-name="equal" unicode="=" horiz-adv-x="357" 
d="M265 246q-137 5 -204 4q-14 0 -17 2q-9 5 -8.5 12.5t7.5 13.5q6 3 21 5q103 11 195 0q35 -3 38 -19q3 -12 -15 -16q-7 -2 -17 -2zM254 168q-137 5 -204 4q-14 0 -17 2q-9 5 -8.5 12.5t7.5 13.5q6 3 21 5q103 11 195 0q35 -3 38 -19q3 -12 -15 -16q-7 -2 -17 -2z" />
    <glyph glyph-name="question" unicode="?" horiz-adv-x="586" 
d="M492 711q38 -14 52 -44t-2 -68q-8 -21 -20 -39t-33 -39l-29.5 -29.5t-38.5 -32.5t-32 -26q-18 -15 -77.5 -58t-100.5 -75.5t-80 -83t-45 -97.5q-2 -10 -8.5 -11.5t-9.5 7.5q-4 121 186 274q22 18 72 54.5t75 57.5q56 48 89 101q44 72 -24 73q-65 3 -153 -36.5t-155 -104
t-72 -124.5q-4 -45 17 -72q11 -13 0.5 -24t-24.5 -7q-38 11 -50 52.5t-7 86.5q16 93 95.5 159t186.5 98q110 34 188 8zM55 65q13 7 26 -5q11 -10 9.5 -26t-11.5 -26q-19 -19 -33 3q-15 21 -3 42q4 8 12 12z" />
    <glyph glyph-name="at" unicode="@" horiz-adv-x="548" 
d="M248 283q-20 -16 -51.5 -43.5t-48.5 -39t-32 -15.5q-27 -6 -42.5 5.5t-13.5 37.5q4 56 44.5 103.5t94.5 74.5q43 23 70.5 -8t0.5 -74q25 5 37 -1t11 -16.5t-1 -19.5q-18 -103 -2 -114q16 -8 60 35q44 45 73 114.5t29 128.5t-39.5 90t-96.5 31q-100 0 -188 -97
q-61 -66 -95 -148.5t-28 -164.5q5 -82 61.5 -128t130.5 -25q50 14 104 54t87 81q4 5 8 5.5t4.5 -2.5t-2.5 -9q-121 -144 -231 -157q-91 -9 -144.5 59t-47.5 158q9 152 115 282q104 114 208 125q95 9 154.5 -64t30.5 -172q-20 -73 -65 -130t-107 -84q-35 -12 -56.5 2
t-27.5 39.5t-4 58.5q1 15 0 28zM223 359q-40 -17 -82.5 -58.5t-50.5 -78.5q-2 -14 9.5 -16.5t25.5 7.5q98 63 120 128q4 11 -2.5 17.5t-19.5 0.5z" />
    <glyph glyph-name="A" unicode="A" horiz-adv-x="575" 
d="M413 608q23 59 30 75q21 45 31 60q29 38 48 22t3 -55q-121 -351 -121 -626q0 -85 30 -69q40 23 109 198q18 44 32 87q3 7 7.5 11t6.5 0.5t-2 -16.5q-5 -11 -27.5 -69.5t-38 -95t-39 -79.5t-42.5 -60q-29 -28 -56 13q-20 31 -27.5 91.5t-7 90.5t3.5 92q5 85 41 280
q-40 -115 -109.5 -249t-146.5 -237q-41 -54 -73 -55q-17 -1 -30 9t-20.5 28t-10.5 32t-6 31q-20 135 46 288q20 46 48 88.5t65 79t77 56.5t87 16t92 -37zM389 592q-28 16 -56 16.5t-51 -10.5t-45.5 -32.5t-39 -45t-32.5 -53t-26 -52t-18 -45.5q-61 -161 -57 -274
q2 -22 7.5 -29t14.5 -2t24 22q60 68 113.5 159t82 153.5t83.5 192.5z" />
    <glyph glyph-name="B" unicode="B" horiz-adv-x="509" 
d="M157 558q3 4 23.5 28t30 35t30.5 33t35.5 34t33.5 25.5t35 20.5q72 30 121 -0.5t44 -94.5q-3 -61 -54.5 -120t-115.5 -98q58 -23 87 -62t27 -82.5t-20 -91.5q-40 -95 -120 -156.5t-178 -68.5q-47 -4 -85 11.5t-51 50.5q-20 56 50 102q24 15 62 29t61 20.5t71.5 19
t52.5 13.5q-30 -20 -116 -43.5t-118 -41.5q-51 -28 -55 -63.5t32.5 -56t89.5 -11.5q74 13 138.5 68.5t97.5 133.5t19 150q-10 57 -69 60q-13 1 -27.5 -1.5t-22 -5t-25 -10t-20.5 -8.5q-24 -6 -35 2q-4 6 -4.5 11t4.5 10t11.5 9t15.5 8.5t16.5 7t15.5 5.5t11 5
q77 34 144 91.5t77 114.5q12 53 -21.5 79t-93.5 3q-58 -23 -102 -71q-77 -80 -140 -232.5t-24 -238.5q2 -5 0 -5q-6 0 -18 17q-34 47 -43 106.5t1.5 114t23 115.5t21.5 111t-4 100q-7 35 17 41t52 -24q47 -53 11 -199z" />
    <glyph glyph-name="C" unicode="C" horiz-adv-x="402" 
d="M415 304q-48 -95 -124 -213q-20 -30 -34 -49.5t-38 -46.5t-49.5 -40t-50.5 -11q-47 5 -77.5 55.5t-37.5 101.5q-16 122 22 261.5t109 243.5q30 44 70 76t81 37q65 6 81 -56q3 -28 4 -44t-8 -42t-15 -40.5t-18 -37.5l-1.5 -3t-1 -2.5t-1.5 -2.5q-8 -17 -17 -12q-5 5 -2 16
q25 69 28 83q20 86 -18 79q-35 -6 -91 -71l-21 -26q-99 -150 -119 -343q-14 -117 21 -184q34 -68 97 -18q26 22 55 64q74 112 147 231q5 7 8.5 8t3.5 -3.5t-3 -10.5z" />
    <glyph glyph-name="D" unicode="D" horiz-adv-x="451" 
d="M42 193q-19 67 7 284q2 16 7.5 47t8.5 51.5t2 47t-10 46.5q-16 30 8 48q19 11 39 3.5t31 -26.5q12 -21 14.5 -54t0 -56.5t-10 -68t-9.5 -55.5q7 9 23 32t24.5 34.5t22.5 28.5t28 30.5t29 24.5q43 32 80 36t63 -25.5t31 -91.5q7 -65 -6 -164q-31 -227 -180 -369
q-100 -95 -192 -60q-51 20 -69 69t1 97.5t66 67.5q31 13 102 20t98 18q-19 -19 -93.5 -33t-92.5 -21q-59 -23 -68 -83q-7 -54 28 -88q45 -43 113 -1q9 6 18 13q107 82 165.5 247t58.5 314q-1 34 -12 51.5t-28.5 17.5t-36.5 -8t-38 -24q-72 -59 -153 -198q-74 -125 -57 -197
q2 -9 -0.5 -12.5t-6.5 -1t-6 8.5z" />
    <glyph glyph-name="E" unicode="E" horiz-adv-x="531" 
d="M194 510q-26 -33 -24.5 -64t25.5 -40t65 7q52 25 96 29q24 2 42.5 -11t-1.5 -34q-6 -5 -19.5 -12.5t-17.5 -10.5q-108 -59 -176.5 -119t-104.5 -148q-19 -45 -12.5 -75.5t27 -46t54.5 -13.5t71 23q26 16 51.5 35t51 43t43.5 41.5t45.5 48.5t39 45t41.5 50t37 45
q10 13 15 10q4 -2 -4 -16q-70 -92 -99 -129t-89.5 -97.5t-122.5 -100.5q-80 -47 -141.5 -28t-81.5 87q-8 26 -9 52t8.5 52.5t16 45.5t28.5 46.5t31 40t38.5 40t36 33.5t36.5 32q6 5 9 8q-104 41 -33 155q50 80 133.5 134t167.5 54q40 -1 58 -21.5t15 -49.5t-16 -59t-32 -51
q-26 -30 -49 -34q-14 -3 -22 5.5t-4 21.5q4 10 17 36.5t19 41.5q8 24 -9.5 30.5t-45.5 -2.5q-126 -31 -205 -130z" />
    <glyph glyph-name="F" unicode="F" horiz-adv-x="493" 
d="M254 648q14 4 23 20q13 24 27.5 26.5t37.5 -13.5q6 2 39 14t45.5 16t42 12t46.5 8.5t39.5 -2.5t39.5 -13q28 -16 33 -45.5t-17 -51.5q-10 -10 -19.5 -7t-13.5 16q-8 29 -24.5 39t-48.5 11q-43 1 -151 -33q-12 -5 -15 -21q-56 -199 -70 -259q110 -16 178 1q9 2 14 -2
t2.5 -10.5t-11.5 -8.5q-47 -16 -193 -16q-8 -18 -24.5 -73t-34 -103.5t-42.5 -100t-59 -82.5t-73 -31q-29 1 -42 23.5t-6 49.5q6 28 27 51q-16 -38 -19 -56q-5 -42 20 -43.5t44 28.5q32 46 52 100t38 126t29 103q-60 -7 -107 -37q-31 -19 -37 0q-4 19 20 38q14 11 33 19
t31.5 10.5t37.5 6.5t33 6q36 120 72 243q-17 -9 -54.5 -17.5t-81 -7t-59.5 21.5t3 50.5t42 36.5q-14 -7 -29.5 -32.5t0.5 -38.5q12 -8 30.5 -9.5t41 3.5t40.5 10.5t41 13.5t29 10z" />
    <glyph glyph-name="G" unicode="G" horiz-adv-x="484" 
d="M334 340q-51 -9 -95 -19q-25 -6 -27 12q-2 16 19 24l6 2q79 20 200 12q24 -1 23 -13.5t-23 -10.5q-43 3 -65 -25q-73 -99 -116.5 -220.5t-23.5 -188.5q1 -5 -0.5 -8.5t-5 -2.5t-6.5 8q-8 16 -11 38t-3.5 41.5t5 49.5t9 48t14 52t14 45.5t15 44.5t12.5 35
q-89 -79 -161 -111q-72 -31 -97.5 1.5t-17.5 97.5q11 105 100 230.5t185 199.5q86 66 135 33q25 -20 22.5 -49t-20 -55.5t-38.5 -37.5q-11 -5 -19.5 2.5t-4.5 18.5q2 8 5 22q8 29 0 29l-10 -3q-97 -59 -187 -174t-126 -222q-7 -22 -7.5 -38.5t7 -29t27 -11.5t52.5 14
q52 21 112 65t102 94z" />
    <glyph glyph-name="H" unicode="H" horiz-adv-x="444" 
d="M421 623q-30 -55 -61 -131t-40 -116q5 0 23 0.5t26.5 0.5t20.5 -4t18 -11q-59 -2 -95 -4q-26 -117 -30 -201q-3 -63 1.5 -98t16 -40t31 28t44.5 103q3 7 7 10.5t6 0t0 -15.5q-31 -87 -44 -114q-15 -32 -37.5 -35t-41.5 13.5t-32 41.5q-22 45 -28 98t-1 94.5t17 95.5
q-76 -7 -116 -22q-10 -33 -14 -76t5 -89q2 -7 0 -10.5t-7.5 -2t-9.5 6.5q-35 40 -32 151q-35 -9 -68 -39q-14 15 4 28q30 21 66 34l12 75q9 61 29 130.5t41 106.5q14 21 30 17q20 -4 20 -26q-1 -24 -8 -50q-5 -18 -21.5 -70.5t-24.5 -81.5q-7 -24 -19 -80q11 6 118 22
q48 174 103 262q45 72 90 91q33 17 54 -7.5t18 -57.5q-4 -65 -37 -123.5t-85 -90.5q-9 -5 -16 -4t-6.5 8.5t11.5 13.5q91 57 105 173q1 41 -10 39q-11 -3 -33 -44z" />
    <glyph glyph-name="I" unicode="I" horiz-adv-x="316" 
d="M295 129q-65 -10 -108.5 -18t-98 -26.5t-83.5 -41.5q-5 14 27.5 31t64.5 26.5t47 11.5q-36 94 -35.5 192t28 181.5t79.5 179.5q-70 -10 -115 -38q-14 -5 -18 6t6 17q32 25 99 37t125 11.5t80 -8.5q11 -2 11 -10q-1 -7 -10 -5q-42 10 -128 0q17 -42 -9 -105
q-115 -315 -94 -454q77 14 132 13z" />
    <glyph glyph-name="J" unicode="J" horiz-adv-x="504" 
d="M110 21q-36 4 -49 31t-1 61q25 66 85.5 107.5t129.5 57.5q-106 -62 -139 -90q-43 -38 -59 -82q-12 -36 2.5 -50.5t39 -11t51.5 16.5q85 39 160 160q53 82 76 170.5t4 164.5q-9 28 -29 39.5t-47 6t-55 -17t-56.5 -30t-47.5 -32t-33 -25.5q-65 -55 -111 -128
q-11 -16 -29 -8t-18 26q0 28 15 63q22 48 75.5 99.5t117.5 86t128 42t106 -32.5q36 -34 44 -89t-8.5 -116.5t-44 -120.5t-63.5 -114q-49 -74 -113.5 -129t-130.5 -55z" />
    <glyph glyph-name="K" unicode="K" horiz-adv-x="400" 
d="M108 310q9 0 39 -0.5t44.5 -1t41.5 -3t44 -6t37 -11t35 -17.5q10 -7 8 -13.5t-13 -4.5q-104 28 -249 5q-15 -69 -36 -225q-3 -24 -21 -25q-14 -1 -21.5 11.5t-9 25.5t-0.5 26q3 69 11 163q-8 1 -16 5t-12.5 13.5t10.5 25.5q3 6 7 6q22 10 27 44q38 291 112 378
q18 23 38.5 24t30 -14.5t2.5 -34.5q-48 -124 -102 -327q205 198 301 278q-1 -20 -13 -29q-50 -48 -148 -143t-147 -142v-8z" />
    <glyph glyph-name="L" unicode="L" horiz-adv-x="354" 
d="M127 1q-25 -43 -66 -81t-85 -38q-23 0 -38.5 14.5t-16.5 37.5q0 69 53.5 104.5t107.5 12.5q19 34 34 88t20.5 84t17.5 102q-80 -17 -97 -17q-11 0 -15 6t0.5 11.5t14.5 5.5q24 0 84 15q19 4 23 26q28 147 48 201q35 94 94 131q43 21 63.5 7.5t27.5 -52.5
q12 -67 -17 -135.5t-81 -122.5q-28 -28 -55 -44v-2q-22 -119 -44.5 -195t-61.5 -143q101 -79 184.5 -84t188.5 66q-54 -64 -125.5 -79t-135.5 8.5t-123 72.5zM252 401q90 56 114 160q13 62 -4 93q-16 28 -42 -19l-10 -22q-36 -91 -58 -212zM74 34q-40 14 -80 -5t-56 -57
q-15 -34 9 -48q27 -16 65 20q4 4 8 9q26 28 54 81z" />
    <glyph glyph-name="M" unicode="M" horiz-adv-x="632" 
d="M241 343q-30 -45 -76 -122t-64 -106q-43 -60 -74 -39.5t-28 83.5q1 78 49 189t100 169q22 23 35.5 11.5t4.5 -39.5q-14 -38 -56.5 -132t-57.5 -148q-25 -88 -7 -80q5 3 15 16q28 38 81 116t82 116q22 26 37.5 19.5t19.5 -36.5q1 -6 4 -34t7 -43q5 -25 12 -26q9 2 37 60
q102 221 164 312q44 68 65 88q29 29 55.5 15.5t16.5 -52.5q-17 -78 -55 -203t-58.5 -225t-16.5 -203q2 -42 9.5 -65t23.5 -17q11 4 15.5 0t2 -10.5t-8.5 -9.5q-33 -12 -56 29q-38 69 -33 200q2 55 14 116.5t24 102t33.5 108t30.5 97.5q20 59 11.5 59.5t-42.5 -46.5
q-33 -46 -62 -97.5t-63 -121t-51 -100.5q-21 -40 -26 -46q-18 -26 -41 -21q-36 8 -36 129q-1 21 -7 22q-8 0 -30 -35z" />
    <glyph glyph-name="N" unicode="N" horiz-adv-x="444" 
d="M491 731q2 -22 1.5 -36.5t-8.5 -41t-13.5 -41.5t-15 -38t-12.5 -31q-79 -219 -101 -322q-29 -132 -21 -212q4 -44 19 -68.5t35 -26t41.5 10.5t40.5 39t29 60q9 -2 5 -21q-17 -54 -50 -83t-66 -28.5t-61.5 31t-36.5 86.5q-5 32 -5.5 67t4.5 70.5t12 69.5t18.5 71.5
t22.5 69t26.5 69.5t27 66t27 64.5t25.5 60.5q36 89 17 120q-16 28 -75 -21q-44 -37 -91 -111q-26 -42 -46.5 -88.5t-46 -119t-34.5 -95.5q-29 -75 -57 -100q-20 -18 -41 -15t-37 26q-20 31 -23 80q-7 76 12 153t56 139q34 56 65 48q14 -6 8 -25q-63 -180 -72 -297
q-2 -35 1 -49.5t10.5 -10t16 16.5t18.5 32q19 36 67.5 151.5t84.5 171.5q68 104 135 139q28 16 54.5 7.5t33.5 -38.5z" />
    <glyph glyph-name="O" unicode="O" horiz-adv-x="362" 
d="M45 317q-54 9 -56.5 65.5t36.5 126t97 119.5q58 46 106.5 46.5t80.5 -40.5t32 -108q2 -102 -33.5 -209.5t-99.5 -176.5q-23 -24 -46.5 -38t-49 -13.5t-45.5 20.5q-23 23 -31 63.5t-4 75.5t13 69zM248 439q-16 -47 -119 -104q-13 -25 -22.5 -68.5t-9.5 -74.5q0 -51 13 -70
t31.5 -9.5t37 29.5t32.5 45q42 74 71.5 179.5t26.5 169.5q-5 84 -49 111.5t-108 -22.5q-87 -72 -126 -173q-31 -80 -3 -106q11 -10 30 -7q47 110 108 156q18 15 33.5 3.5t4.5 -29.5l-16 -24l-20 -30t-16.5 -28.5t-10.5 -27.5q56 24 112 80z" />
    <glyph glyph-name="P" unicode="P" horiz-adv-x="415" 
d="M44 165q-13 -31 -20.5 -79.5t-0.5 -79.5q2 -8 -5.5 -11.5t-14.5 6.5q-22 36 -22.5 102t9 118t28.5 130q12 49 19 82t14.5 81.5t4 87t-16.5 64.5q-1 1 -1 2q-13 25 3 38t36 -2q19 -13 30.5 -31t15 -41.5t4 -41.5t-1.5 -46t-2 -40q69 107 146 154q38 24 76.5 30t68 -14.5
t33.5 -68.5q7 -76 -37.5 -174.5t-117 -177.5t-141.5 -105q-65 -25 -107 17zM220 305q-53 47 -98.5 26.5t-60.5 -85.5q-7 -31 3 -56.5t37 -25.5q45 0 97 45.5t93.5 110t71.5 126.5t41 102q21 78 -16.5 104t-106.5 -11q-71 -38 -124 -132t-73 -182q49 38 83.5 29t52.5 -51z
" />
    <glyph glyph-name="Q" unicode="Q" horiz-adv-x="346" 
d="M29 337q-29 17 -33 61q-4 60 27 136.5t81 125.5q52 54 105.5 49.5t86.5 -71.5q35 -80 25 -181.5t-49 -199.5t-91 -159q-1 -1 -3 -10q14 3 34.5 4t43.5 0t38.5 -8t13.5 -20q-95 34 -275 -69q-9 -6 -17 -1.5t-7.5 13.5t7.5 16q27 20 72 42v5q-39 29 -55 79t-14.5 91.5
t10.5 96.5zM254 521q-10 -39 -51.5 -87t-85.5 -81q-15 -59 -15 -124q0 -35 7.5 -62.5t20.5 -41t33.5 2t43.5 63.5q46 91 69.5 192t10.5 189q-12 88 -58.5 110.5t-111.5 -36.5q-48 -46 -77.5 -117t-26.5 -129q2 -38 22 -39q31 102 66 126q17 11 29.5 -0.5t10.5 -29.5l-13 -58
q2 -2 0 -7v-1q26 12 54.5 43t63.5 76q5 8 8 11z" />
    <glyph glyph-name="R" unicode="R" horiz-adv-x="403" 
d="M74 271q-34 -104 -34 -185q0 -24 -20 -17q-80 32 -6 412q4 25 15.5 83.5t16.5 90.5q3 23 12.5 38t27.5 13q43 -5 25 -122q-5 -42 -17 -120t-14 -92q-1 -6 -1.5 -13.5t-1.5 -17.5t-2 -17q11 22 34 73t38.5 83t41 74t51.5 71q24 26 52.5 47t58.5 32t54.5 -2.5t34.5 -53.5
q7 -34 -1 -74q-23 -116 -114 -195t-212 -70q29 -70 109 -163t135 -103q14 -3 11 -12q-3 -11 -18 -5q-134 43 -276 245zM393 577q6 26 8 39q7 66 -36 61q-40 -4 -94 -55q-7 -7 -12 -13q-85 -98 -154 -279q95 -11 173.5 64t114.5 183z" />
    <glyph glyph-name="S" unicode="S" horiz-adv-x="503" 
d="M202 345q29 -4 49.5 -8.5t47 -14.5t42.5 -22.5t26.5 -34t9.5 -48.5v-12q22 4 67 38t68 67q-2 -31 -43 -66t-87 -61q-14 -9 -20 -23q-36 -69 -98 -118.5t-128 -44.5q-31 2 -42 23t5 48q22 35 60 51q25 10 175 60q21 7 21 31q0 29 -11 49t-26.5 29.5t-41 14t-45 4.5t-48 -1
t-40.5 -1q-87 0 -121 44t0 113q50 102 162 148q99 40 175 13q75 -26 71 -102q-3 -45 -35 -101q-12 -21 -24 -11q-4 5 -3 11q18 64 12.5 90t-30.5 41q-26 16 -89.5 -2t-120.5 -61t-62 -89q-5 -44 91 -51q23 -2 33 -3zM333 155q-100 -30 -150 -47q-53 -17 -67 -53
q-12 -30 15 -39q24 -9 69 9q88 36 133 130z" />
    <glyph glyph-name="T" unicode="T" horiz-adv-x="353" 
d="M242 663q-142 -28 -227 -8q-6 2 -10 6t-1 7t14 2q124 -9 222 29q5 2 16.5 11t19.5 8q18 -2 49 6q55 13 93 19.5t92.5 3t81.5 -28.5q21 -19 13 -41.5t-37 -12.5q-130 44 -260 14q-14 -558 -134 -669q-7 -7 -15 -10t-10 2.5t9 26.5q14 25 23 61q20 92 31.5 290t29.5 284z
" />
    <glyph glyph-name="U" unicode="U" horiz-adv-x="443" 
d="M378 544q-136 -267 -241 -394q-20 -25 -38.5 -39.5t-37.5 -19.5t-33.5 13.5t-21.5 59.5q-7 47 5.5 125.5t21 131.5t-7.5 120q-10 31 21 41q21 6 36.5 -6t22 -33.5t9 -42t1.5 -34.5q-6 -72 -44 -204q-37 -143 -3 -142q18 1 57 48q59 71 111.5 155.5t120.5 209.5t93 168
q19 37 41 28q4 -2 6.5 -5.5t3.5 -6.5t1.5 -7.5t0.5 -7t-1 -8t-1.5 -7.5t-2.5 -8t-2 -7q-4 -11 -24 -68t-25 -73t-21.5 -67t-21 -73.5t-15.5 -68t-13 -74.5t-5 -69t0 -76t10 -72q2 -6 2 -8q3 -12 -6 -14.5t-14 6.5q-36 66 -34 214q1 59 8 112t14 87t27 116z" />
    <glyph glyph-name="V" unicode="V" horiz-adv-x="247" 
d="M105 142q106 335 264 581q7 10 13 6q4 -4 -2 -12q-174 -297 -253 -574q-5 -18 -12.5 -52t-11.5 -51q-3 -17 -13 -25.5t-20 -3.5t-13 22q-5 22 -13.5 120t-24 204t-39.5 173q-10 28 9 40t34 -6q12 -13 21 -37.5t15 -58.5t10.5 -66t7 -75.5t4 -69.5t3 -65.5t1.5 -48.5
q2 -60 20 -1z" />
    <glyph glyph-name="W" unicode="W" horiz-adv-x="561" 
d="M244 380q-25 -42 -70.5 -152t-79.5 -158q-22 -28 -46 -26t-38 34q-46 100 22 298q8 23 25.5 72t27.5 73q8 13 21 14t21 -11q15 -25 10 -64q-7 -54 -37 -153.5t-33 -112.5q-21 -106 1 -100q16 5 50 68q16 32 43 89.5t49 100t47 79.5q8 13 20 16.5t20 -4t5 -21.5
q-1 -10 -8.5 -63t-11 -92t-2.5 -74q3 -113 45 -121q19 -4 41 12t41 45t31 50t21 40q37 78 59 165.5t21.5 174t-31.5 140.5q-3 5 0 7.5t7 0.5q35 -47 40.5 -134t-14.5 -181.5t-57 -179.5q-15 -33 -27.5 -56t-33.5 -53t-46 -45t-53 -13q-30 2 -50 19.5t-29 44t-11.5 52.5
t-0.5 53q3 29 12.5 83t11.5 77q1 14 -1.5 16t-11.5 -10z" />
    <glyph glyph-name="X" unicode="X" horiz-adv-x="415" 
d="M382 -19q11 0 11 -5q-1 -7 -12 -8q-46 -3 -82 19t-54.5 47t-33.5 81t-18.5 78t-10.5 81q-1 5 -1.5 8t-1 7t-0.5 7q-48 -44 -97 -128.5t-71 -146.5q-2 -7 -7.5 -9t-9 2t-0.5 12q42 117 174 293q9 13 9 27q0 200 -1 299q0 43 -8.5 66.5t-30 23t-54.5 -33.5
q-49 -49 -70 -114q-2 -9 -6.5 -13t-7 0.5t-0.5 15.5q17 65 74 125q65 69 112 45q37 -21 50 -101q4 -25 6.5 -59.5t5 -87.5t4.5 -82q39 40 113.5 129.5t119.5 132.5q11 13 14 5q1 -6 -5 -13q-86 -99 -229 -272q-11 -13 -10 -29q2 -14 5.5 -74.5t9.5 -105.5t18.5 -99.5
t36.5 -86.5t58 -36z" />
    <glyph glyph-name="Y" unicode="Y" horiz-adv-x="650" 
d="M204 406q17 13 72 58.5t97 77.5t78 55q25 15 38.5 22t37.5 15t42 1t30 -27q17 -26 21 -77q8 -153 -67 -318.5t-183 -280.5q-54 -47 -102.5 -48.5t-62 38.5t14.5 112q29 63 75.5 120t85.5 72q5 2 9 -1t4 -7.5t-3 -6.5q-37 -18 -83 -72.5t-68 -114.5q-24 -67 -15.5 -89.5
t34.5 -13.5t59 42q101 101 173 274t75 303q1 23 -2.5 38t-12.5 25.5t-29.5 6.5t-50.5 -23q-32 -21 -61 -42.5t-61 -49t-49 -42.5t-56 -51.5t-52 -47.5q-164 -149 -190 -31q-17 78 20 175t97 157q27 25 56 13q23 -10 13 -29q-2 -5 -6 -9q-31 -31 -66.5 -106.5t-40.5 -128.5
q-7 -75 55 -42q16 8 71 51q2 1 3 2z" />
    <glyph glyph-name="Z" unicode="Z" horiz-adv-x="522" 
d="M324 372q68 3 125 -13q5 -1 7.5 -7.5t0.5 -8.5q-20 5 -54 8.5t-70 2t-47 -11.5q-96 -74 -205 -188q-25 -25 -32 -43.5t2.5 -27.5t30 -12.5t50.5 1.5q60 8 91.5 11.5t109.5 10t117.5 0.5t36.5 -24q-26 4 -33 5q-75 11 -206 -11t-149 -23q-44 -2 -70 11q-64 33 -10 132
q7 12 16 25t16 22t19.5 23t18 20t21 21.5l18.5 18.5t21 20l18 16q-12 -1 -40 -8t-29 -7q-14 -3 -14 7q-1 9 14 14q93 17 96 19q163 122 226 182q32 29 57 58q18 24 1 33.5t-57 9.5q-50 0 -110 -14.5t-116.5 -40t-96 -68.5t-42.5 -93q-14 -5 -15.5 11.5t2.5 24.5
q28 75 108.5 132.5t172 82t168.5 17.5q48 -4 66.5 -31.5t10 -61t-33.5 -63.5q-14 -17 -32.5 -33.5t-44.5 -38t-31 -25.5q-22 -19 -55 -45t-48 -40z" />
    <glyph glyph-name="underscore" unicode="_" horiz-adv-x="443" 
d="M341 4q-31 1 -141 1t-146 2q-16 0 -23 8.5t5 17.5q7 3 22 5q50 5 138 5.5t139 -5.5q32 -2 36 -18q3 -9 -13 -14q-7 -2 -17 -2z" />
    <glyph glyph-name="a" unicode="a" horiz-adv-x="384" 
d="M209 312q-12 -16 -37.5 -55t-47 -65.5t-43.5 -44.5q-41 -35 -76 -12.5t-29 87.5q4 52 33.5 112t64.5 89q48 39 100.5 28t78.5 -63q17 15 19 16q17 14 32.5 3t6.5 -30q-73 -152 -93 -226q-12 -54 -8.5 -73.5t19 -11t31.5 26.5t30 39q16 23 33 52t35.5 63t28.5 51
q8 14 12 6q2 -4 -2 -11q-38 -79 -92 -164q-39 -66 -78 -88q-47 -26 -58 50q-1 29 -1.5 45.5t6 45.5t11 45t12.5 43.5t12 41.5zM46 163q15 -4 48.5 31.5t76.5 92t51 66.5q8 47 -24 43q-33 -4 -69 -39l-4 -4q-45 -48 -71 -112t-8 -78z" />
    <glyph glyph-name="b" unicode="b" horiz-adv-x="354" 
d="M359 308q5 -10 0 -21q-15 -31 -37 -54t-39.5 -32.5t-31.5 -19.5t-17 -20q-24 -68 -70 -129.5t-99 -70.5q-44 -8 -60 22t-4 70q12 39 47.5 66.5t77.5 37.5q40 10 63 136q8 48 -10 58t-52 -24q-27 -27 -44.5 -59t-31 -73.5t-15.5 -45.5q-5 -18 -24 -16q-28 0 -24 61
q10 294 169 561q33 57 58 71q24 17 45.5 8.5t26.5 -36.5q10 -51 -24 -136.5t-73 -149t-81 -120.5q-12 -18 -24.5 -48.5t-12.5 -52.5q7 7 21.5 25t22.5 27q43 48 89 38.5t55 -75.5q7 -58 -14 -107q21 5 55.5 37t57.5 72zM93 399q49 69 80 119.5t58 126.5t22 140
q-27 -23 -90.5 -176.5t-69.5 -209.5zM149 149q-49 -13 -89 -47q-24 -21 -32 -36q-14 -24 -13 -46.5t14 -26.5q28 -8 66 52t54 104z" />
    <glyph glyph-name="c" unicode="c" horiz-adv-x="252" 
d="M260 299q-10 -19 -22.5 -40.5t-38 -59.5t-49.5 -65.5t-53 -46t-53 -12.5q-33 8 -50.5 36t-17 62t6.5 71q16 72 61.5 123.5t109.5 41.5q30 -4 42.5 -27.5t-1.5 -47.5q-4 -6 -10 -9t-10 -0.5t-3 11.5q5 43 -11 43q-16 -1 -53 -38q-24 -24 -44.5 -65t-27.5 -84t12 -71
q26 -35 93 32q51 52 111 151q5 7 8 5t0 -10z" />
    <glyph glyph-name="d" unicode="d" horiz-adv-x="310" 
d="M317 295q-5 -12 -27.5 -77t-47 -126.5t-43.5 -89.5q-20 -30 -41 -27q-14 1 -23.5 8.5t-15 22t-8.5 28t-3 36t0.5 36t2 37.5t1.5 32q-32 -38 -73 -38t-54 37q-16 44 0.5 104t56.5 91q14 11 31.5 17.5t36.5 4.5t30 -16q25 121 53.5 208.5t77.5 158.5q17 23 38.5 31
t37.5 -4.5t16 -43.5q-6 -125 -55 -247t-125 -225q-15 -21 -26.5 -94.5t-10.5 -108.5q8 -123 77 31q14 32 44.5 113t41.5 103q6 12 9 9q2 -1 -1 -11zM301 675q-48 -112 -122 -394q41 42 90.5 159t63.5 218q9 64 -5 60q-9 -2 -27 -43zM113 201q1 11 8.5 56.5t8.5 58.5
q2 24 -0.5 37t-9 14t-14 -5t-17.5 -18q-31 -38 -44 -112q-12 -70 14 -71q19 -1 54 40z" />
    <glyph glyph-name="e" unicode="e" horiz-adv-x="239" 
d="M249 293q-92 -141 -146 -188q-34 -30 -63.5 -31t-46.5 25q-31 44 -21.5 107.5t37.5 121.5t61 93q14 15 30.5 26.5t33.5 16.5t31 -4t19 -33q18 -73 -91 -146q-2 -1 -6.5 -4t-6.5 -4.5t-6 -4t-6 -4t-5 -4t-4.5 -4l-4 -4t-3.5 -5t-2.5 -5t-2.5 -5.5q-28 -98 -10 -128
q12 -20 45 3q67 50 159 188q5 8 9 2q2 -4 0 -9zM62 282q65 41 91 91q16 34 6 37.5t-31 -22.5q-28 -33 -66 -106z" />
    <glyph glyph-name="f" unicode="f" horiz-adv-x="215" 
d="M94 327q26 -20 66.5 -21.5t70.5 13.5q-6 -20 -32 -27t-53 -4.5t-46 9.5q101 -232 -8 -359q-36 -44 -76 -37t-55 67q-30 120 27 317.5t150 295.5q41 43 75 48q33 5 30 -42q-1 -3 -1 -7q-10 -60 -55 -132.5t-93 -120.5zM73 303q-1 -3 -12.5 -41.5t-16 -54t-14.5 -53.5
t-13.5 -61t-7 -53t-1.5 -53t8 -41q14 -37 45 -13q37 28 52 99q3 14 4 28q9 102 -44 243zM160 534q-18 -31 -41.5 -88.5t-34.5 -95.5q55 62 108 154q43 73 34 94q-8 17 -40 -26q-12 -16 -26 -38z" />
    <glyph glyph-name="g" unicode="g" horiz-adv-x="560" 
d="M476 235q0 -1 -0.5 -5t-0.5 -5l85 82q15 15 16 3q1 -7 -5 -15q-16 -22 -97 -94q-9 -148 -62.5 -296.5t-150.5 -232.5q-37 -32 -75.5 -49t-69.5 -18t-54.5 13t-34 39t-3.5 64.5t33 85.5q31 54 79.5 111t83 91t103.5 96t91 83q10 10 13 32q4 33 4.5 62t-10 48t-28 27.5
t-48.5 0.5t-73 -33q-20 -11 -57.5 -33.5t-65.5 -37.5t-57 -28q-67 -27 -90 0t-4 78q26 70 126.5 140t165.5 51q28 -12 25 -34t-27 -31q-126 -42 -194 -107q-67 -67 -43 -78q26 -11 124 49q51 32 85 49q204 105 216 -108zM424 168q-25 -26 -114.5 -108.5t-142.5 -143
t-91 -129.5q-26 -47 -28 -81.5t15 -47t50.5 -3t73.5 43.5q89 75 155.5 218t81.5 251z" />
    <glyph glyph-name="h" unicode="h" horiz-adv-x="320" 
d="M92 272q-25 -53 -32 -97q-6 -32 -28 -32q-12 0 -21 8.5t-10 22.5q-16 175 44 400q-28 -5 -59 5q-10 4 -8 10.5t11 4.5q34 -7 60 0q11 35 27 73.5t40 83.5t55.5 73.5t63.5 28.5q25 0 37 -14t10.5 -32.5t-6.5 -37.5q-18 -50 -57.5 -98t-83.5 -75q-22 -63 -42.5 -160.5
t-26.5 -170.5q43 78 68 109q41 51 76 34q9 -5 15 -12.5t9.5 -15t4 -19.5t0.5 -20t-2.5 -22.5t-4 -20t-5 -19.5t-3.5 -16q-3 -12 -10.5 -41.5t-11.5 -47.5t-8.5 -43t-3.5 -45t6 -36q10 -33 42 16l5 8q28 48 78 229q4 8 9 6.5t2 -10.5q-1 -4 -10.5 -44t-16.5 -65.5
t-21.5 -64.5t-30.5 -66q-20 -35 -43.5 -44.5t-39.5 4.5q-29 22 -31.5 70t7.5 77q3 15 12 52t12.5 64t-0.5 51q-13 68 -78 -61zM252 809q-15 -5 -54.5 -70.5t-52.5 -104.5q43 19 80.5 77.5t26.5 97.5z" />
    <glyph glyph-name="i" unicode="i" horiz-adv-x="164" 
d="M175 301q-60 -145 -93 -192q-27 -40 -48.5 -37t-35 30.5t-14.5 63.5q-1 45 10 118q12 83 40 115q7 9 19.5 10.5t22.5 -4t10 -16.5q0 -14 -4 -35q-2 -11 -12 -53t-16.5 -75.5t-9.5 -56.5q-14 -113 47 -14q4 7 11 20l1 1q22 39 61 127q6 14 11 7q2 -4 0 -9zM64 510
q8 12 21.5 13.5t22 -7.5t4.5 -22q-3 -9 -9.5 -27t-10.5 -27q-4 -11 -22 -5q-36 15 -6 75z" />
    <glyph glyph-name="j" unicode="j" horiz-adv-x="397" 
d="M241 -39q-22 -58 -62 -121t-100 -115.5t-117 -53.5q-41 -2 -64 23.5t-19 71.5q5 101 139 232q24 23 50 44.5t44 34.5t50.5 35.5t49.5 34.5q14 8 16 15q24 182 -26 215q-40 26 -118 -63q-3 -3 -10.5 -12.5t-11.5 -14t-12 -11t-13.5 -8.5t-13.5 -1.5t-16 6.5q-27 19 -7 56
q19 38 59 62q43 26 86.5 30t79 -19t48.5 -71q17 -63 14 -141q32 22 116 115q10 -8 2 -20q-13 -17 -31 -37.5t-29 -31.5t-34 -32.5t-25 -23.5q-9 -103 -45 -199zM222 128q-13 -10 -82 -58.5t-106 -82.5q-132 -121 -132 -236q1 -53 58 -38q51 14 92 57q3 4 6 7
q125 146 164 351zM233 514q-1 -26 -17.5 -52.5t-38.5 -15.5q-13 10 -11.5 36.5t16.5 39.5q13 15 31.5 13t19.5 -21z" />
    <glyph glyph-name="k" unicode="k" horiz-adv-x="306" 
d="M82 309q91 84 154 94q23 4 29 -11t-4 -30q-27 -39 -72.5 -67.5t-88.5 -37.5q10 -114 64 -109q47 4 105 88q24 34 38 67q5 7 10.5 3.5t1.5 -11.5q-24 -53 -57 -96t-71 -67t-74 1.5t-58 108.5q-10 -29 -18.5 -102.5t-13.5 -94.5q-5 -22 -30 -24q-10 0 -16.5 5t-8 17.5
t-2 16.5t-0.5 18q2 169 70.5 385.5t174.5 321.5q23 22 48 32.5t44.5 0t19.5 -49.5q2 -69 -69 -181.5t-140 -189.5q-18 -21 -25.5 -38.5t-10.5 -49.5zM107 415q167 178 192 325q4 20 -0.5 24.5t-20.5 -8.5q-108 -108 -171 -341zM95 279q48 14 90 44.5t54 56.5
q-71 -12 -144 -101z" />
    <glyph glyph-name="l" unicode="l" horiz-adv-x="221" 
d="M221 300q1 4 5 5.5t6 -1t1 -7.5q-50 -163 -78 -232q-19 -45 -50.5 -68.5t-59.5 -4.5q-57 41 -57 180q0 102 29.5 229.5t62.5 209.5q10 25 22.5 51.5t32.5 60.5t43 53t44 15q53 -14 42 -114q-9 -79 -71 -186t-117 -150q-42 -148 -37 -256q2 -50 16.5 -70.5t35.5 -8
t43 53.5q29 55 87 240zM91 376q5 5 9 11q40 44 89 134t55 158q6 67 -10 73q-14 5 -37 -47q-2 -3 -20 -51q-45 -121 -86 -278z" />
    <glyph glyph-name="m" unicode="m" horiz-adv-x="432" 
d="M71 299l16 27q16 26 29 45q28 31 48.5 20t20.5 -52q-1 -40 -6 -84q-2 -22 1.5 -29t9.5 -1t14 22q11 22 37 92.5t48 105.5q22 33 38 49q30 29 56.5 23t26.5 -36q0 -70 -54.5 -210.5t-62.5 -198.5q-4 -26 2 -43.5t18.5 -13.5t26.5 35q16 36 47.5 129t44.5 121q5 11 11 7
q4 -4 0 -11q-7 -12 -36.5 -105.5t-50.5 -143.5q-20 -48 -46.5 -56t-44 18t-17.5 68q0 39 12.5 93t24 88t34 94.5t26.5 71.5q22 67 4 62q-18 -6 -47 -55q-20 -32 -52.5 -112t-48.5 -109q-13 -23 -35 -23q-27 1 -27 63q0 22 2 66q3 52 -5 54q-6 2 -19 -21q-62 -123 -77 -168
q-5 -19 -22 -17.5t-25 20.5q-24 72 32 190q24 45 46 30q15 -10 10 -25q-32 -96 -24 -96q4 0 14 16z" />
    <glyph glyph-name="n" unicode="n" horiz-adv-x="391" 
d="M352 471q-11 -66 -71.5 -180t-73.5 -173q-10 -60 5 -78q12 -13 37 16q39 44 81.5 121.5t60.5 125.5q4 11 8.5 7.5t2.5 -11.5q-9 -39 -56 -127.5t-82 -126.5q-17 -19 -33.5 -27.5t-33.5 -2t-28 31.5q-27 59 5 169q10 33 26.5 66.5t40 75t34.5 63.5q51 100 16 96
q-16 -2 -45 -27q-27 -24 -56.5 -64t-48.5 -71.5t-48 -82.5t-39 -68q-15 -25 -35 -21q-20 5 -24 34q-7 44 3.5 91t31.5 76q7 11 18 13.5t18.5 -4t4.5 -18.5l-10 -40q-28 -103 -20 -103q4 0 13 14q13 21 38.5 64.5t42.5 70.5t43 61t52 58q23 22 52.5 32t51.5 -4t18 -57z" />
    <glyph glyph-name="o" unicode="o" horiz-adv-x="205" 
d="M116 229q46 13 88 73q6 9 8 8t-1 -11q-11 -29 -39.5 -55t-61.5 -36q-39 -95 -69 -117q-37 -28 -61 -2t-27 68q-2 33 12 76t39 78q-5 40 12 79.5t50 49.5q37 11 55.5 -19t18.5 -68q1 -48 -24 -124zM46 252q2 -11 16.5 -22.5t30.5 -6.5q33 102 30 151q-3 42 -29 49.5
t-48 -22.5q-25 -34 -19 -71q28 8 39.5 -6.5t-5.5 -38.5q-10 -19 -15 -33zM82 202q-28 1 -47 20q-39 -77 -27 -107q8 -21 30 4q24 25 44 83z" />
    <glyph glyph-name="p" unicode="p" horiz-adv-x="439" 
d="M6 -58q-15 -38 -24.5 -53t-11.5 -8.5t0 26t8 46.5q13 60 69 239t60 223q5 55 -20 77q-10 8 -19.5 1.5t-13.5 -21.5q-5 -20 -10 -35q-9 -26 -39.5 -114t-45.5 -135t-31.5 -121.5t-18.5 -134.5q-4 -102 46 -102q10 0 18.5 4t16 12t12.5 16t10.5 21t8.5 20.5t7.5 21
t5.5 17.5q7 22 29 82t25 69q40 -45 93.5 -25t102.5 74.5t76 116.5q26 -3 57.5 9t31.5 36q-5 -2 -22 -9t-19.5 -7.5t-19.5 -4.5t-22 0q35 82 29 164q-4 38 -25 60t-58 4q-47 -22 -102 -100q-46 -63 -77 -131t-68.5 -177t-58.5 -161zM315 286q-97 13 -163 -29q20 66 80 149
q72 94 103 84q12 -4 15 -26q2 -47 -7 -87q-5 -23 -28 -91zM304 267q-66 -130 -140 -169q-45 -26 -53 15q-7 39 19 85q23 45 74.5 64.5t99.5 4.5z" />
    <glyph glyph-name="q" unicode="q" horiz-adv-x="540" 
d="M365 442q21 -5 32.5 -19t12.5 -31.5t-2 -34.5t-9 -30q-15 -33 -78.5 -156.5t-84.5 -193.5q-23 -74 -17 -109q6 -38 58 40q29 41 115.5 186t148.5 212q12 12 15 5q3 -4 -6 -14q-51 -56 -92.5 -121.5t-85.5 -147.5t-74 -129q-16 -25 -26 -39t-32.5 -30t-42.5 -8
q-22 10 -27.5 42.5t-1.5 59t12 53.5q24 78 90.5 207.5t88.5 190.5q5 18 5 29t-7.5 13.5t-15.5 1.5t-19.5 -6t-19.5 -9t-14 -8q-38 -26 -100 -79t-85 -70q-43 -32 -74 -37q-41 -5 -52.5 30.5t3.5 65.5q15 42 49 77t73 54q22 11 59.5 20t65.5 3q11 -2 20.5 -7.5t15 -12.5
t1 -14.5t-21.5 -12.5q-122 -35 -214 -138q-29 -34 -6 -37q25 -3 70 28q29 20 91 74.5t105.5 82t76.5 19.5z" />
    <glyph glyph-name="r" unicode="r" horiz-adv-x="299" 
d="M310 300q-47 -165 -94 -231q-44 -58 -87 -23q-81 68 27 310q32 70 20 75q-11 2 -45 -26q-9 -7 -60 -61.5t-60 -61.5q-9 -8 -25 -3t-26 23q-14 25 10 81.5t61 74.5q20 10 34.5 6.5t16 -21t-16.5 -50.5q-36 -64 -47 -75q-2 -2 21 20.5t48.5 47.5t28.5 28q24 22 46.5 32.5
t37 8t24 -13t8.5 -29.5t-9 -41q-66 -158 -82 -254q-10 -57 16 -66t55 39q50 81 88 213q1 3 4 4t5 -1t1 -6zM64 435q-23 -19 -44.5 -58.5t-16.5 -54.5q20 23 41 60.5t20 52.5z" />
    <glyph glyph-name="s" unicode="s" horiz-adv-x="230" 
d="M82 181q-7 14 -16.5 28t-27 35t-20.5 25q-39 52 -29.5 103.5t48.5 91.5t91 56q20 10 52 4t32 -32q0 -14 -18 -24q-84 -45 -102 -61q-48 -41 -22 -104q4 -10 10 -21q8 -15 27.5 -39.5t22.5 -30.5q81 46 108 97q21 -22 -101 -114q29 -63 -2 -134t-96 -90q-57 -14 -82 19
q-16 27 -9 59t26 54q13 15 30.5 28.5t45 30zM88 166q-43 -21 -77 -52t-41 -67q-8 -35 9.5 -52t53.5 5q32 22 51 75.5t4 90.5z" />
    <glyph glyph-name="t" unicode="t" horiz-adv-x="227" 
d="M169 636q36 8 140 28q32 6 47.5 8.5t41.5 3t45.5 -8t36.5 -24.5q11 -10 12 -24t-8 -19t-25 3q-28 17 -87.5 15.5t-94.5 -8t-111 -22.5q-16 -3 -30 -39q-37 -105 -74 -278t-38 -266q-1 -52 8 -68.5t22 -6.5t31 38q71 111 143 338q4 11 10 7q3 -5 1 -13q-78 -249 -138 -340
q-36 -56 -69 -54t-50 60q-15 47 -11 129q7 124 37 261t62 220q-137 -22 -199 0q-14 5 -7 11q5 3 13 1q50 -16 201 18q40 94 73 134q14 17 33.5 9.5t15.5 -29.5q-7 -28 -31 -84z" />
    <glyph glyph-name="u" unicode="u" horiz-adv-x="411" 
d="M425 298q-10 -22 -86 -170q-20 -37 -35 -56q-38 -51 -69.5 -26.5t-30.5 97.5q0 71 53 191q30 63 17 60q-10 -2 -43 -49q-11 -16 -43 -70.5t-53 -79.5q-24 -30 -53.5 -40t-53.5 4.5t-32 53.5q-12 63 13 140q21 59 44 88q36 41 59 27q22 -13 4 -56q-2 -5 -15 -31t-17 -34.5
t-13.5 -30.5t-13 -34.5t-7 -29.5t-3.5 -31q0 -24 11.5 -34t27.5 -5.5t29 18.5q30 30 65.5 95.5t46.5 81.5q23 34 52.5 44.5t44.5 -7.5q20 -20 7 -72q-6 -26 -36 -95q-44 -92 -49 -142q-6 -47 14 -43q23 5 58 65q2 3 4 7q13 24 32 59.5t32.5 61t24.5 47.5q3 10 12 5
q5 -4 2 -9z" />
    <glyph glyph-name="v" unicode="v" horiz-adv-x="277" 
d="M284 311q6 -6 1 -15q-38 -55 -78.5 -38.5t-43.5 89.5q-4 -12 -32.5 -100.5t-48.5 -132.5q-30 -64 -63 -57q-56 15 -40 156q18 162 74 254q27 49 56 38q6 -2 9.5 -6.5t4.5 -9.5t0.5 -12.5t-1.5 -11.5t-3.5 -12t-2.5 -9q-8 -28 -27.5 -94.5t-31.5 -114t-19 -92.5
q-12 -73 4 -54q26 31 79 197q14 45 22 75q11 48 30 48q11 1 8 -28q-6 -60 9.5 -89t41.5 -22.5t52 41.5z" />
    <glyph glyph-name="w" unicode="w" horiz-adv-x="537" 
d="M541 303q8 -3 4 -13q-12 -24 -34.5 -35t-43.5 -5q-29 8 -41 40t-12 68q1 24 -2 24t-8 -10q-10 -18 -44 -99t-46 -101q-35 -61 -66 -55q-10 2 -17 10t-11 22t-6.5 28t-3.5 32.5t-1 30.5t0.5 27t0.5 18q0 34 -1 35q-3 3 -9 -8q-2 -4 -5 -9q-7 -13 -35 -72.5t-52 -99
t-46 -55.5q-20 -16 -41 -12.5t-35 25.5q-20 29 -24 86.5t6 115.5t34 110t56 71q16 9 27.5 5.5t17.5 -13.5t2 -18q-92 -188 -92 -313q0 -49 23 -47q22 1 56 55q20 32 50 95.5t41 82.5q6 15 16 30q14 23 32.5 20.5t18.5 -29.5q0 -141 7 -168q13 -56 59 36q17 34 57 133.5
t55 132.5q1 2 5 11t6.5 13t7.5 10.5t10.5 8t12.5 -0.5q21 -6 17 -25q-6 -23 -22 -67q-50 -134 3 -157q16 -8 36.5 1.5t36.5 34.5z" />
    <glyph glyph-name="x" unicode="x" horiz-adv-x="365" 
d="M198 341q61 86 116 137q16 15 21 4q4 -9 -10 -19q-45 -34 -126 -140q-8 -48 -9.5 -129t3.5 -102q25 -133 147 151q5 11 13 30q10 23 12 28q4 9 8.5 10.5t5.5 -3.5t-1 -12q-49 -118 -88 -186q-27 -49 -53 -68.5t-46 -9.5t-32 45q-6 19 -9 38.5t-3 42.5t0.5 38t2.5 42t3 38
q-2 -3 -16.5 -24t-21 -31t-18.5 -31t-22.5 -42.5t-19.5 -46.5q-9 -22 -19.5 -13.5t-2.5 25.5q41 93 119 186q3 27 10 88.5t10 84.5q12 106 -47 32q-37 -47 -57.5 -114.5t-20.5 -130.5q-1 -19 -24 -24.5t-36 9.5q-20 21 -14 67q8 64 45.5 131.5t88.5 92.5q57 27 86 6t21 -82
q-3 -18 -8 -59t-8 -59z" />
    <glyph glyph-name="y" unicode="y" horiz-adv-x="585" 
d="M365 411q38 11 63.5 -3.5t36.5 -48.5t14 -69t1 -76q67 47 109 97q10 -5 6 -11q-34 -47 -113 -108q-3 -64 -31 -148t-73.5 -166t-114.5 -143t-144 -73q-62 -10 -82 29t1 94q27 73 104 150q41 42 129.5 113.5t126.5 109.5q29 29 28 63q1 18 1 30v32.5t-1.5 34t-5 30
t-9.5 26t-14 16.5t-20.5 6t-27.5 -9q-43 -27 -85 -65t-91.5 -90t-74.5 -76q-17 -15 -34.5 -24t-34 -10t-29.5 11.5t-20 38.5q-15 55 18.5 138t87.5 139q27 27 58 22q26 -3 17 -29q-3 -10 -14 -26t-12 -18q-94 -149 -107 -223q-7 -37 17 -30q20 7 59 45q15 14 58 59t67 68.5
t63 52t73 41.5zM414 147q-32 -32 -94 -81.5t-108.5 -87.5t-93 -93.5t-64.5 -109.5q-13 -47 -3.5 -67.5t36 -20.5t55.5 12t55 31q70 53 121 137q65 116 96 280z" />
    <glyph glyph-name="z" unicode="z" horiz-adv-x="384" 
d="M198 127q-8 24 -22.5 38t-44.5 29.5t-38 20.5q-33 19 -37.5 35.5t16.5 44.5q10 13 45 50t66 74t46 65q24 46 0 44q-31 -2 -92 -69l-14 -16q-43 -51 -107 -176q-8 -18 -23 -15q-25 6 -15 59q12 66 72 133t123 98q20 8 41 9.5t35.5 -11t9.5 -39.5q-5 -30 -36 -69.5
t-75 -83.5t-55 -58q-18 -24 20 -43q14 -7 39.5 -18.5t36.5 -18t26.5 -22t27.5 -37.5q47 24 87.5 66.5t57.5 91.5q10 -1 7 -14q-19 -52 -65 -98t-80 -64q9 -53 -21 -120.5t-80.5 -124t-113.5 -96.5t-115 -44q-37 -3 -55 13t-16 41.5t10 50t20 45.5q26 42 61.5 76.5t82 63
t82 46.5t93.5 43zM203 110q-82 -24 -169.5 -83.5t-127.5 -128.5q-47 -81 -33 -111q12 -27 82 14q79 50 161.5 150.5t86.5 158.5z" />
    </font>
</defs>
</svg>
