<?xml version="1.0" standalone="no"?>
<!DOCTYPE svg PUBLIC "-//W3C//DTD SVG 1.1//EN" "http://www.w3.org/Graphics/SVG/1.1/DTD/svg11.dtd" >
<svg xmlns="http://www.w3.org/2000/svg" xmlns:xlink="http://www.w3.org/1999/xlink" version="1.1">
<metadata>
Created by FontForge 20170731 at Fri May 24 19:29:36 2019
 By Aleksey,,,
Machis (c) (Kurniawan Eko). 2019. All Rights Reserved
</metadata>
<defs>
<font id="MachisDemo" horiz-adv-x="314" >
  <font-face 
    font-family="Machis Demo"
    font-weight="400"
    font-stretch="normal"
    units-per-em="1000"
    panose-1="2 0 5 0 0 0 0 0 0 0"
    ascent="800"
    descent="-200"
    x-height="319"
    cap-height="735"
    bbox="-279 -334 2417 923"
    underline-thickness="50"
    underline-position="-175"
    unicode-range="U+001D-E000"
  />
<missing-glyph horiz-adv-x="500" 
 />
    <glyph glyph-name=".notdef" horiz-adv-x="500" 
 />
    <glyph glyph-name=".null" horiz-adv-x="0" 
 />
    <glyph glyph-name=".null" horiz-adv-x="0" 
 />
    <glyph glyph-name="nonmarkingreturn" horiz-adv-x="508" 
 />
    <glyph glyph-name="space" unicode=" " horiz-adv-x="239" 
 />
    <glyph glyph-name="space" unicode="&#xa0;" horiz-adv-x="239" 
 />
    <glyph glyph-name="exclam" unicode="!" horiz-adv-x="269" 
d="M78 76q-6 0 -6 5v1q93 440 121 556q6 21 26 21q12 0 20.5 -7.5t8.5 -19.5l-1 -8q-5 -4 -166 -545q0 -3 -3 -3zM61 -52l-12 1q-13 4 -21 15.5t-8 24.5q0 4 2 12q10 30 40 30q4 0 12 -2q29 -10 29 -41l-2 -11q-10 -29 -40 -29z" />
    <glyph glyph-name="colon" unicode=":" horiz-adv-x="158" 
d="M80 432q-12 0 -21 8t-9 20l2 10q6 20 26 20q11 0 20 -8t9 -20l-1 -10q-7 -20 -26 -20zM80 211q-12 0 -21 8t-9 20l2 10q6 20 26 20q11 0 20 -8t9 -20l-1 -10q-7 -20 -26 -20z" />
    <glyph glyph-name="semicolon" unicode=";" horiz-adv-x="164" 
d="M55 167q-5 0 -5 5t5 5q30 0 44 36q-6 -3 -12 -3q-12 0 -21 8.5t-9 20.5l1 8q7 20 28 20q5 0 8 -1q20 -6 20 -31q0 -24 -17 -46t-42 -22zM85 432q-11 0 -20 8t-9 20l1 10q6 20 26 20q12 0 21 -8t9 -20l-2 -10q-6 -20 -26 -20z" />
    <glyph glyph-name="semicolon" unicode="&#x37e;" horiz-adv-x="164" 
d="M55 167q-5 0 -5 5t5 5q30 0 44 36q-6 -3 -12 -3q-12 0 -21 8.5t-9 20.5l1 8q7 20 28 20q5 0 8 -1q20 -6 20 -31q0 -24 -17 -46t-42 -22zM85 432q-11 0 -20 8t-9 20l1 10q6 20 26 20q12 0 21 -8t9 -20l-2 -10q-6 -20 -26 -20z" />
    <glyph glyph-name="less" unicode="&#x3c;" horiz-adv-x="306" 
d="M254 189q-3 0 -9.5 4t-22 15.5t-34 25.5t-55 41t-75.5 55q-8 6 -8 15t8 15q38 28 74 54.5t55 40.5t34.5 26t22.5 16t10 4t3 -5q0 -3 -1 -4q-50 -46 -143 -134q-6 -4 -6 -13q0 -7 6 -13q144 -134 144 -137v-1q0 -5 -3 -5z" />
    <glyph glyph-name="equal" unicode="=" horiz-adv-x="300" 
d="M240 380h-180q-10 0 -10 10t10 10h180q10 0 10 -10t-10 -10zM240 291h-180q-10 0 -10 9q0 10 10 10h180q10 0 10 -10q0 -9 -10 -9z" />
    <glyph glyph-name="greater" unicode="&#x3e;" horiz-adv-x="306" 
d="M53 189q-3 0 -3 5v1q0 3 145 137q6 6 6 13q0 9 -6 13l-143 134q-2 1 -2 4q0 5 3 5t10 -4.5t22.5 -16t34.5 -25.5t54.5 -40.5t74.5 -54.5q8 -6 8 -15t-8 -15q-39 -28 -75.5 -55t-55.5 -41t-34.5 -25.5t-21.5 -15.5t-9 -4z" />
    <glyph glyph-name="question" unicode="?" horiz-adv-x="440" 
d="M91 -52l-12 1q-13 4 -21 15.5t-8 24.5q0 4 2 12q10 30 40 30q4 0 12 -2q29 -10 29 -41l-2 -11q-10 -29 -40 -29zM99 64q-6 0 -6 5v15q0 74 21.5 130t54 91.5t66.5 66.5t63.5 72.5t39.5 91.5q2 7 2 20q0 48 -38 81t-91 33q-38 0 -77 -21q-36 -20 -53 -56l-4 -2h-2
q-2 2 -2 4q0 10 15.5 28.5t41.5 33.5q42 24 93 24q68 0 117.5 -40.5t49.5 -104.5q0 -82 -85 -168q-15 -15 -49.5 -44t-55 -49.5t-46 -63t-40.5 -97.5l-11 -46q0 -4 -4 -4z" />
    <glyph glyph-name="at" unicode="@" horiz-adv-x="674" 
d="M289 -14l-22 1q-93 9 -155 95t-62 200q0 150 108 267q94 103 219 103q75 0 137.5 -40t90.5 -106q19 -48 19 -96q0 -18 -2.5 -36t-7.5 -34t-8.5 -26.5t-9 -23t-6.5 -15.5h-1l-18 -36q-36 -57 -95 -77q-39 -13 -66 -13q-53 0 -53 63q0 39 20 126q-35 -63 -57 -76
q-10 -6 -19 -6q-7 0 -14 3q-34 18 -34 63q0 39 24 72.5t58 33.5q28 0 57 -29q6 24 27 24l6 -1q5 -2 5 -5v-2q-41 -190 -41 -215q0 -26 22 -34q6 -2 18 -2q5 0 10.5 0.5t10.5 2t7 1.5q53 13 79.5 40t50.5 84q27 66 27 122q0 100 -69 163t-159 63q-21 0 -42.5 -6t-39.5 -16
t-35.5 -22t-30.5 -24.5t-23 -22.5t-15 -16l-6 -6q-92 -108 -92 -247q0 -114 62 -196t159 -82q61 0 122 34q36 20 60.5 42.5t33.5 35t13 12.5l2 -1l2 -3l-1 -3q-49 -67 -122.5 -100t-143.5 -33zM311 266q3 0 8 3t9.5 7.5t9.5 11.5t9 12.5t9.5 15t8.5 15t9.5 17t8.5 15.5l7 28
q-7 9 -27 21q-7 4 -15 4q-24 0 -39 -35.5t-15 -73.5q0 -41 17 -41z" />
    <glyph glyph-name="A" unicode="A" horiz-adv-x="787" 
d="M592 -63h-1q-5 0 -11 1.5t-17 9t-19 21t-14 42t-6 66.5q0 116 52 307q-30 -3 -56 -3q-61 0 -129 16q-51 -111 -94.5 -173t-87.5 -62q-22 0 -42 18.5t-29 34.5t-9 19q0 5 5 5q2 0 11.5 -17t26 -34t37.5 -17q68 0 172 229q-19 4 -74.5 19.5t-96 23t-76.5 7.5
q-45 0 -78 -11.5t-49 -29t-26.5 -37.5t-13.5 -37.5t-5.5 -29t-6.5 -11.5t-4 5q0 9 1.5 22.5t12 40t28 46.5t54.5 36t87 16q37 0 78.5 -8t97 -23t75.5 -20q11 23 30.5 68t30.5 69t29 60t31 56t29.5 41t32.5 30t33 9q70 0 70 -115q0 -89 -54.5 -321t-54.5 -295q0 -64 35 -64
q31 0 77.5 57t83 128.5t48.5 121.5q2 3 4 3q6 0 6 -5q0 -10 -20.5 -58.5t-51.5 -106.5t-73.5 -104t-78.5 -46zM521 391q27 0 58 3q52 164 52 263q0 73 -37 73q-13 0 -27.5 -10t-30 -32t-28.5 -43t-30.5 -57t-28 -59t-28.5 -64.5t-26 -58.5q73 -15 126 -15z" />
    <glyph glyph-name="B" unicode="B" horiz-adv-x="698" 
d="M373 -38q-69 0 -69 57q0 29 13 49t40.5 31t51.5 16.5t67.5 12t65.5 11.5q1 0 5.5 9.5t8.5 28t4 37.5q0 57 -44 105.5t-155 70.5q-2 0 -2 3q0 4 62 33.5t124 73.5t62 83q0 17 -10 28.5t-26 15.5t-26.5 5.5t-19.5 1.5q-70 0 -121 -36t-78 -93t-44.5 -126.5t-26 -139
t-16.5 -126.5t-22 -93t-37 -36q-15 0 -21 20.5t-6 80.5q0 61 5 121t12.5 108.5t17 92.5t19 76.5t17 56t12.5 36.5l5 13q-54 0 -95.5 -8.5t-64 -21.5t-38 -28.5t-21.5 -28.5t-10 -21.5t-7 -8.5q-5 0 -5 5q0 4 3 14t18 29.5t39 36t72.5 29t112.5 13.5l5 12q6 12 15.5 29t22 34
t30.5 29t37 12q18 0 30.5 -10t12.5 -26q0 -28 -35 -52.5t-75 -33.5q-10 -2 -61 -280.5t-51 -303.5q0 -12 10 -12q17 0 27 35.5t17 92.5t16 126t27.5 138.5t47.5 126.5t81.5 92.5t122.5 35.5q59 0 88 -20.5t29 -54.5q0 -40 -29.5 -75.5t-68.5 -55.5t-70.5 -31.5t-41.5 -11.5
q56 -1 94 -21t55 -53t23.5 -61t6.5 -59l-3 -42l-3 -1q4 0 21.5 8t45 32t41.5 57q1 3 4 3q5 0 5 -4q0 -5 -8 -21t-37.5 -43t-72.5 -43q-3 -8 -8.5 -20t-26 -44t-45 -56.5t-65.5 -44.5t-86 -20zM291 604q14 0 55 23.5t41 52.5q0 24 -24 24q-21 0 -39 -25t-26 -50zM358 -26
q13 0 28 6q39 16 76.5 52.5t56 64t18.5 31.5q-20 -4 -54 -9.5t-53.5 -9t-44.5 -11t-38.5 -16.5t-23 -25t-9.5 -38q0 -19 12 -32t32 -13z" />
    <glyph glyph-name="C" unicode="C" horiz-adv-x="579" 
d="M235 -52q-56 0 -96.5 53t-40.5 184q0 79 17.5 154t42 125.5t50 90t43 58t20.5 18.5q-36 9 -67 9q-39 0 -73 -13.5t-56 -32t-38 -37.5t-24 -33l-8 -13q-5 0 -5 5q0 12 15.5 33t41.5 43.5t67.5 39t85.5 16.5q36 0 70 -10q69 61 154 61q49 0 82.5 -20.5t33.5 -48.5
q0 -27 -26 -47.5t-66 -20.5q-25 0 -47 7t-55 24.5t-44 22.5q-70 -73 -116.5 -212.5t-46.5 -260.5q0 -84 25.5 -133.5t78.5 -49.5q36 0 84 31t91 75.5t80.5 89t61.5 75.5t25 31q5 0 5 -5q0 -2 -23 -33t-62 -77t-84.5 -91t-99 -76.5t-96.5 -31.5zM458 571q35 0 58.5 18.5
t23.5 40.5t-25.5 38.5t-62.5 16.5q-71 0 -133 -61q13 -6 34.5 -17.5t34.5 -18t32.5 -12t37.5 -5.5z" />
    <glyph glyph-name="D" unicode="D" horiz-adv-x="814" 
d="M372 -35q-34 0 -54 16t-20 46q0 14 4.5 26t15 21.5t21 17t30 14t34 10.5t41 9t42.5 7.5t47 7t47 7.5q76 120 76 257q0 101 -40.5 171t-99.5 70q-57 0 -101 -36t-70.5 -94t-46 -128t-31.5 -140.5t-23 -128.5t-25.5 -94t-33.5 -36q-33 0 -33 124q0 82 22 202.5t41.5 193
t23.5 83.5q-64 -1 -110.5 -13t-67.5 -29t-32.5 -34t-16 -28.5t-7.5 -11.5q-5 0 -5 4t3.5 14t18 29.5t38.5 36t72 29t111 13.5l5 12q6 12 15.5 29.5t22.5 34.5t31.5 29t37.5 12q42 0 42 -35q0 -30 -35.5 -55t-77.5 -33q-3 -7 -27.5 -118.5t-50 -252t-25.5 -194.5q0 -31 9 -31
q16 0 29 49t22 122t29.5 158.5t48.5 158.5t82.5 122t127.5 49q75 0 128.5 -74.5t53.5 -185.5q0 -121 -66 -239q51 11 89.5 25t58 26.5t32 23.5t17.5 17.5t8 6.5q4 0 4 -3q0 -10 -20 -28t-72.5 -41.5t-123.5 -38.5q-56 -87 -130.5 -134.5t-135.5 -47.5zM287 606q38 9 69 31
t31 46q0 25 -26 25q-41 0 -74 -102zM355 -24q44 0 107 44.5t111 115.5q-145 -23 -176 -32q-89 -25 -89 -77q0 -51 47 -51z" />
    <glyph glyph-name="E" unicode="E" horiz-adv-x="685" 
d="M261 -60q-104 0 -157 56t-53 141q0 101 67 189.5t172 104.5q-38 19 -58.5 56.5t-20.5 81.5q0 42 19 76l-21 1q-73 0 -136 -48.5t-63 -125.5q0 -41 21.5 -79.5t64.5 -54.5q3 -2 3 -5q0 -5 -5 -5q-2 0 -11 4t-23.5 15t-27.5 26.5t-22.5 41.5t-9.5 57q0 82 65 133.5
t145 51.5l26 -2q54 84 161 84q62 0 107.5 -30.5t45.5 -76.5q0 -58 -68 -58q-63 0 -201 59q-16 -43 -16 -82q0 -34 12.5 -61t25 -42t12.5 -20q0 -3 -2 -5q-88 -34 -147 -122.5t-59 -176.5q0 -104 83 -148q43 -23 92 -23q65 0 123.5 36t83.5 83q-34 5 -54 30t-20 53
q0 20 11 33t31 13q24 0 41 -18.5t17 -50.5q0 -22 -9 -47h4q57 0 114.5 51.5t64.5 122.5q0 5 5 5q6 0 6 -5q-7 -80 -72 -133.5t-125 -53.5h-3q-26 -55 -92 -93.5t-147 -38.5zM482 585q57 0 57 47q0 38 -40.5 67t-90.5 29q-87 0 -123 -85l39 -16q40 -16 83.5 -29t74.5 -13z
M495 86q8 22 8 37q0 25 -14 40.5t-29 15.5q-16 0 -19 -15l-1 -10q0 -21 14 -42t41 -26z" />
    <glyph glyph-name="F" unicode="F" horiz-adv-x="606" 
d="M145 -57q-34 0 -59.5 7t-42.5 22.5t-23.5 23.5t-17.5 25l-1 2q0 3 5 3l14 -18q14 -18 41.5 -36.5t61.5 -18.5q40 0 71.5 16.5t53 48.5t36.5 69t26 87t18.5 93t16.5 97t17 89q-30 6 -52 6q-29 0 -50.5 -9t-31.5 -21.5t-15.5 -25.5t-9 -22t-6.5 -9h-2q-3 2 -3 5
q0 4 2.5 12.5t10.5 22.5t21 26t36.5 21t53.5 9q19 0 49 -5q16 68 31.5 103t42.5 76q-80 19 -133 19q-183 0 -183 -196q0 -5 -5 -5t-5 5q0 205 194 205q56 0 138 -19q55 64 131 64q35 0 58.5 -16t23.5 -41q0 -45 -65 -45q-41 0 -115 19q-1 -2 -8 -13.5t-11.5 -21.5t-12 -29.5
t-15 -49.5t-15.5 -68q59 -16 82 -20q21 60 69 60q17 0 29.5 -9t12.5 -21q0 -19 -24.5 -31t-58.5 -12l-16 1q-16 -38 -16 -83l1 -14q0 -7 -5 -7q-4 0 -4 4q-3 15 -3 32q0 37 11 70q-11 2 -24 5t-30 8t-26 7q-36 -217 -59 -292q-50 -165 -152 -197q-27 -8 -58 -8zM524 427
q29 0 52 9.5t23 22.5q0 5 -3 6q-13 8 -28 8q-34 0 -54 -46h10zM592 622q56 0 56 36q0 19 -16.5 31.5t-41.5 12.5q-57 0 -106 -61q69 -19 108 -19z" />
    <glyph glyph-name="G" unicode="G" horiz-adv-x="613" 
d="M207 -80q-52 0 -88 26.5t-36 64.5q0 51 44.5 80.5t97.5 35t98.5 8.5t46.5 7l37 161l-9 -7q-8 -7 -23 -17t-33.5 -20t-44.5 -17t-51 -7q-50 0 -78 45.5t-28 114.5q0 15 1.5 30.5t4 27.5t5.5 23.5t5.5 20t5 14.5t4.5 9l1 4q0 1 -3 1q-59 0 -107 -52.5t-48 -127.5v-1l-4 -5
q-5 0 -5 5v1q0 75 49 132t116 57h6q4 8 11 20t31 44t50.5 56.5t67.5 44.5t84 20q53 0 87.5 -32.5t34.5 -74.5q0 -44 -41 -75t-122 -31q-18 0 -39.5 1.5t-40 3t-34.5 3.5t-25.5 3.5t-10.5 1.5q-37 -88 -37 -161q0 -111 77 -111q42 0 93 29.5t54 43.5q16 57 28 75t30 18
q10 0 29 -14q2 -2 2 -5l-1 -3q-9 -15 -26.5 -75t-30.5 -112l-13 -53q3 0 16.5 2t39.5 9.5t51.5 19t51 33.5t39.5 50q0 2 4 2q5 0 5 -5q0 -3 -4 -11t-17.5 -24t-34.5 -31.5t-61.5 -31t-92.5 -24.5l-8 -22q-7 -23 -23 -55.5t-39.5 -65t-63 -55t-85.5 -22.5zM375 515
q77 0 115 28.5t38 69.5q0 38 -29.5 67t-73.5 29h-1q-38 -3 -72.5 -23t-56 -46t-37.5 -51.5t-23 -42.5l-7 -18q92 -13 147 -13zM207 -70q40 0 73.5 27.5t51 64.5t26.5 67t9 43q-16 -2 -45.5 -5t-45.5 -5t-41.5 -5.5t-40 -7t-33.5 -10t-29.5 -14.5t-20.5 -18.5t-14.5 -24.5
t-4.5 -31q0 -34 33.5 -57.5t81.5 -23.5z" />
    <glyph glyph-name="H" unicode="H" horiz-adv-x="808" 
d="M123 -69q-51 0 -87 51t-36 122q0 46 17 90t52 87t98.5 78t147.5 54q36 137 74 210q-153 9 -156 9q-178 0 -178 -115q0 -19 5 -39.5t10 -33t5 -13.5q0 -3 -5 -3q-2 0 -8 12t-11.5 33.5t-5.5 42.5q0 53 42.5 89.5t147.5 36.5q30 0 86.5 -4t72.5 -5q51 96 115 96
q26 0 41 -11.5t15 -28.5q0 -26 -33.5 -47t-96.5 -21h-3q-21 -56 -55 -195q11 2 94 16.5t121 23.5q31 87 72.5 157t82.5 70q22 0 35 -17.5t13 -44.5q0 -43 -35.5 -87t-107.5 -70q-4 -12 -11 -36q-98 -341 -109 -410q-3 -21 -3 -36q0 -27 10 -37t33 -10q52 0 109 55
t94.5 126.5t46.5 127.5q0 4 5 4t5 -4q0 -15 -12.5 -50.5t-37.5 -81.5t-56.5 -88t-75.5 -71t-88 -29q-22 0 -36.5 10t-20.5 25t-7.5 25.5t-1.5 19.5v3q0 70 33 216.5t59 221.5q-29 -7 -82.5 -17t-92.5 -16l-39 -7q-26 -136 -59.5 -234.5t-60 -145t-57.5 -72.5t-44.5 -29
t-29.5 -3zM437 631q56 0 87 18.5t31 40.5q0 12 -9.5 19.5t-26.5 7.5q-46 0 -84 -86h2zM108 -54q24 0 43.5 12.5t36 39t29 55t26 75t22.5 83t23 95t24 96.5q-81 -19 -142 -53.5t-94.5 -76.5t-49.5 -85t-16 -87q0 -63 29 -108.5t69 -45.5zM656 485q65 25 97 67.5t32 81.5
q0 21 -8.5 34t-21.5 13q-25 0 -46 -46.5t-53 -149.5z" />
    <glyph glyph-name="I" unicode="I" horiz-adv-x="327" 
d="M89 -77q-6 0 -6 6q0 3 3 5q42 30 70.5 117.5t42 182.5t35.5 212t49 184q-132 -44 -202.5 -113t-70.5 -188q0 -25 3.5 -52.5t8.5 -48.5t10.5 -38.5t9 -28t3.5 -11.5q0 -4 -6 -4q-4 0 -13.5 28.5t-17.5 73.5t-8 81q0 45 12 84.5t28.5 67.5t44.5 53.5t50 40.5t56 30t51 21.5
t45 15.5q22 49 46.5 71t46.5 22q15 0 24 -8.5t9 -20.5q0 -36 -86 -61q-9 -29 -24 -120t-33 -187.5t-42 -193.5t-60 -159t-79 -62zM331 656q73 26 73 50q0 16 -17 16q-13 0 -28.5 -16t-27.5 -50z" />
    <glyph glyph-name="J" unicode="J" horiz-adv-x="411" 
d="M98 -137q-41 0 -70 16t-29 50q0 37 35 73q39 42 124.5 83t118.5 64q8 36 36.5 177.5t49.5 208.5q-14 -3 -52 -11.5t-55 -13t-48 -14t-46 -18.5t-33 -22.5t-25.5 -30t-7.5 -37.5q0 -6 -5 -6q-4 0 -4 6q0 23 8.5 41.5t27 33t36 24.5t49 19.5t50.5 14.5t56.5 13t52.5 12
q47 133 108 133q25 0 37 -11t12 -27q0 -64 -115 -95q-9 -38 -29 -157t-35 -183l-4 -18q-72 -301 -214 -323q-18 -2 -29 -2zM411 557q50 15 76.5 34.5t26.5 49.5q0 10 -8.5 19t-20.5 9q-46 0 -74 -112zM78 -125q58 0 104 50q55 62 91 210q-33 -22 -81 -44t-85.5 -43.5
t-65.5 -51.5q-32 -35 -32 -66q0 -25 19.5 -40t49.5 -15z" />
    <glyph glyph-name="K" unicode="K" horiz-adv-x="724" 
d="M103 -53q-47 0 -75 20t-28 44q0 5 5 5q3 0 5 -5q1 -24 28.5 -38.5t53.5 -14.5q43 0 76 46.5t55.5 124t41.5 160.5t45.5 175.5t55.5 148.5q-107 16 -139 16q-117 0 -117 -89q0 -15 3 -29t6 -23l3 -9q0 -5 -5 -5q-6 0 -11.5 24t-5.5 40q0 101 125 101q46 0 146 -17
q47 85 106 85q24 0 39 -14.5t15 -35.5q0 -55 -77 -55q-13 0 -49 4q-14 -35 -61 -228q237 45 290 79t53 155q0 17 12.5 28.5t24.5 11.5q9 0 11 -8q5 -33 5 -56q0 -34 -7.5 -62t-24.5 -48.5t-34 -36t-46.5 -26.5t-50.5 -18t-57 -12.5t-56.5 -7.5t-58 -5.5t-51.5 -4.5
q23 -22 41.5 -84t29.5 -121t33.5 -106t55.5 -47q29 0 69.5 39.5t72 87t58 87t30.5 39.5q5 0 5 -4q0 -1 -26 -41q-90 -135 -134 -178.5t-95 -43.5q-31 0 -60 31t-48.5 76t-34 89.5t-21.5 75.5l-6 31q-18 -69 -34.5 -119t-43.5 -109t-63.5 -91t-79.5 -32zM456 611q66 0 66 45
q0 16 -10.5 27.5t-26.5 11.5q-43 0 -76 -79q40 -5 47 -5z" />
    <glyph glyph-name="L" unicode="L" horiz-adv-x="353" 
d="M485 -97q-43 0 -85.5 18t-72 41.5t-71 53.5t-74.5 46q-52 -124 -118 -124q-32 0 -49.5 19.5t-17.5 48.5q0 36 28 63.5t79 27.5q18 0 36 -7q8 34 31.5 149.5t48 202t57.5 146.5q-72 12 -114 12q-41 0 -71.5 -11.5t-46.5 -27.5t-25 -40t-11 -42t-2 -41v-28q0 -19 -4 -19
q-5 0 -5 5l-2 38q0 176 167 176q37 0 119 -13q60 103 133 103q29 0 48 -17t19 -39q0 -27 -33.5 -46.5t-87.5 -19.5q-22 0 -34 2q-29 -67 -70.5 -251.5t-70.5 -257.5q38 -18 92.5 -61t104 -70t102.5 -27q25 0 45 6t30 12t11 6q5 0 5 -5q0 -4 -12 -10.5t-34 -12.5t-45 -6z
M361 587q48 0 79.5 17.5t31.5 39.5q0 17 -11.5 28t-29.5 11q-57 0 -100 -94zM50 -51q19 0 39 21q13 15 25 42.5t18 47.5l5 21q-21 6 -39 6q-39 0 -65 -23.5t-26 -57.5l2 -16q3 -17 14.5 -29t26.5 -12z" />
    <glyph glyph-name="M" unicode="M" horiz-adv-x="890" 
d="M675 -94q-47 0 -47 76q0 66 36 195.5t72.5 249.5t36.5 162q0 25 -12 29q-35 -2 -82.5 -92.5t-86 -197t-80.5 -195t-67 -88.5t-25 48q0 50 35 195.5t35 179.5q0 27 -13 27q-29 0 -66 -42.5t-58.5 -80.5t-36.5 -72q-25 -52 -39.5 -103.5t-18.5 -85t-6 -60.5t-5 -39.5
t-11 -12.5q-20 0 -31 9t-12.5 15t-1.5 11q0 30 7.5 97t38.5 193.5t80 223.5h-82q-37 0 -63.5 -2t-59.5 -9.5t-53.5 -21.5t-35 -39.5t-14.5 -61.5q0 -13 2 -25.5t4 -20t2 -8.5q0 -5 -5 -5q-3 0 -5 4q-7 27 -7 54q0 39 15 66.5t37 42.5t56.5 23.5t63 10.5t66.5 2h84l4 8
q5 9 13 22.5t18.5 30t24 33t27.5 30t30.5 22t31.5 8.5q22 0 38 -17.5t16 -41.5q0 -35 -38 -63.5t-120 -37.5q-52 -131 -86 -307q14 33 31.5 68.5t46 85t62.5 80.5t65 31q50 0 50 -83q0 -55 -21.5 -142.5t-42.5 -154t-21 -70.5v-1q20 0 59 89t77.5 196t88.5 196t91 89
q15 0 25 -9.5t14 -25t5 -24.5t1 -17v-2q0 -77 -38 -208.5t-75.5 -246t-37.5 -149.5q0 -12 6 -19t10.5 -8t7.5 -1q22 0 51.5 35.5t56.5 86t50.5 101t38.5 86.5l15 35q5 0 5 -5q0 -6 -22.5 -59.5t-54.5 -120t-74.5 -119.5t-75.5 -53zM371 562q76 9 110 34.5t34 56.5
q0 20 -11.5 34.5t-25.5 14.5q-49 0 -107 -140z" />
    <glyph glyph-name="N" unicode="N" horiz-adv-x="728" 
d="M530 -47q-44 0 -44 58q0 51 35.5 159.5t71 221t35.5 171.5q0 63 -50 63q-33 0 -75 -33t-85.5 -95t-82 -170t-57.5 -240l-5 -36q-1 -9 -14 -9q-15 0 -29 12.5t-14 32.5q0 17 8 83t37 189.5t72 213.5q-20 -2 -64.5 -3.5t-73.5 -3t-67.5 -9t-62 -20t-40 -36t-16.5 -57.5
q0 -30 9 -62.5t9 -33.5q0 -4 -4 -4q-6 0 -14.5 37t-8.5 63q0 37 17.5 63t43 39t65.5 21t71.5 9.5t75.5 3t65 3.5q72 145 154 145q36 0 36 -29q0 -28 -35.5 -62t-93.5 -52q-17 -6 -43 -97t-46 -198q128 347 286 347q80 0 80 -97q0 -71 -41 -192.5t-82 -225t-41 -130.5
q0 -29 22 -29q34 0 84 74.5t86.5 149t37.5 74.5q6 0 6 -5q-3 -6 -7.5 -17t-19.5 -42.5t-30 -60.5t-36.5 -64t-41.5 -60t-42 -42.5t-41 -17.5zM397 595l9 3q8 4 18 8.5t23 11t25 15.5t22.5 18.5t17 22t6.5 24.5q0 20 -21 20t-49.5 -31.5t-50.5 -91.5z" />
    <glyph glyph-name="O" unicode="O" horiz-adv-x="575" 
d="M223 -4q-66 0 -108.5 67t-42.5 166q0 87 33 167q-36 39 -36 104q0 88 63 160t170 72q212 0 212 -240q0 -20 -4 -64q41 18 70.5 36t40 26.5t12.5 8.5q4 0 4 -5q0 -2 -12.5 -12t-44 -28.5t-72.5 -36.5q-12 -100 -50.5 -194.5t-101.5 -160.5t-133 -66zM281 369q93 0 218 55
q4 33 4 69q0 65 -16 112.5t-42 70t-50.5 32.5t-48.5 10q-69 0 -123 -38.5t-79 -90.5t-25 -102q0 -24 8 -45q61 112 163 165q9 5 22 5q34 0 45 -31v-2q0 -3 -3 -5q-122 -59 -184 -179q47 -26 111 -26zM235 6q80 0 160.5 121t102.5 286q-148 -63 -244 -63l-20 1q-53 4 -79 13
q-37 -85 -37 -172t38 -140q33 -46 79 -46z" />
    <glyph glyph-name="P" unicode="P" horiz-adv-x="573" 
d="M187 -27q-36 0 -36 121q0 106 26 248.5t64 233.5q-65 -1 -111.5 -13.5t-67.5 -29.5t-32.5 -33.5t-16 -28.5t-8.5 -12q-5 0 -5 5q0 2 1.5 8t7.5 17.5t16 23.5t29 25.5t43.5 23.5t63 17t84.5 7q50 117 111 117q20 0 30.5 -9.5t10.5 -25.5q0 -25 -29.5 -51t-84.5 -37
q-19 -63 -59 -281.5t-40 -289.5q0 -26 6 -26q18 3 31 61.5t27 144t34.5 174t64.5 163.5t106 101q43 17 72 17q44 0 66 -30.5t22 -80.5q0 -57 -24 -120t-67 -107.5t-90 -44.5q-25 0 -45 16t-27 30t-7 19t5 5q4 0 5 -4q20 -51 53 -51q28 0 64.5 48t62 115.5t25.5 117.5
q0 75 -59 75q-63 0 -111 -49t-73 -122t-45 -158.5t-30.5 -158.5t-26.5 -122t-36 -49zM287 590q50 12 75.5 34.5t25.5 44.5q0 23 -25 23q-10 0 -19.5 -5.5t-17 -14.5t-14 -20t-11 -21.5t-7.5 -19.5l-5 -15z" />
    <glyph glyph-name="Q" unicode="Q" horiz-adv-x="512" 
d="M340 -53q-16 0 -34.5 5.5t-28 10.5t-29 17.5t-23.5 14.5q-29 -11 -57 -11h-17q-3 -4 -6.5 -11t-5.5 -10t-7 -6t-11 -3q-4 0 -8 2q-10 3 -10 9q0 9 16 27q-12 4 -24 13q-12 8 -20 18l-8 9l-8 11q-7 9 -13 22q-10 19 -11 23l-9 24q-9 29 -11 50l-3 26q0 8 -1 12v13
q0 76 26 151q-29 65 -29 127q0 100 69 164t173 64q201 0 201 -223q0 -47 -12.5 -115.5t-36 -146t-67.5 -143.5t-99 -91q4 -2 19 -11t21.5 -12.5t19 -9.5t23.5 -8t22 -2q12 0 22.5 3t16.5 5.5t7 2.5q4 0 4 -5t-17.5 -10.5t-33.5 -5.5zM225 5q67 28 118.5 121t74.5 192t23 178
q0 106 -45 157.5t-113 51.5q-75 0 -141 -55t-78 -137q-4 -42 -4 -69l1 -26q62 125 177 181q7 4 17 4q28 0 38 -27l1 -6q0 -8 -8 -13q-146 -74 -203 -233q32 -65 81 -95q2 -1 2 -4q0 -5 -5 -5q-3 0 -15.5 8t-33 27.5t-37.5 42.5q-17 -60 -17 -119q0 -134 74 -174q19 16 41 16
t52 -16zM168 -6q22 0 46 7q-14 8 -27 8q-14 0 -27 -13z" />
    <glyph glyph-name="R" unicode="R" horiz-adv-x="690" 
d="M494 -44q-36 0 -53.5 31.5t-22 80t-9 98.5t-23.5 95t-56 62q-3 0 -3 4q0 5 43.5 24.5t95 43t95 64t43.5 83.5q0 36 -24 61.5t-63 25.5q-79 0 -133.5 -68t-80 -164.5t-42 -193t-33 -164.5t-39.5 -68h-2q-35 0 -35 123q0 106 25 248.5t62 231.5q-65 -1 -111 -13.5
t-67 -29.5t-32 -33.5t-15.5 -28.5t-8.5 -12q-5 0 -5 5q0 4 3.5 14t18 29.5t38.5 36t72.5 29t111.5 13.5l6 12q5 12 14 29t21.5 34t31.5 29t39 12t30.5 -9.5t10.5 -24.5q0 -25 -29.5 -51t-83.5 -37q-16 -50 -58.5 -268.5t-42.5 -295.5q0 -33 9 -33q14 0 24.5 36.5t19.5 94.5
t20.5 128t32 140.5t49 128.5t76 94.5t107.5 36.5q50 0 82.5 -32.5t32.5 -79.5q0 -64 -65 -120.5t-199 -78.5q44 -17 65.5 -60.5t24.5 -93t3 -97t9 -79t35 -31.5q37 0 74 46t60 101.5t42 101.5t24 46t5 -4v-1q-8 -12 -28 -67.5t-40.5 -104t-61.5 -89.5t-90 -41zM288 589
q49 12 74.5 34.5t25.5 43.5q0 10 -7 16.5t-19 6.5q-40 0 -74 -101z" />
    <glyph glyph-name="S" unicode="S" horiz-adv-x="640" 
d="M258 -72q-73 0 -126 32t-64 90q-2 20 -2 29q0 68 47.5 114.5t104.5 46.5q72 0 94 -75q5 -15 5 -37q0 -49 -30 -84t-86 -35q-5 0 -5 5t5 5q51 0 78.5 32t27.5 76q0 21 -5 35q-19 67 -85 67q-52 0 -97.5 -44t-45.5 -109q0 -9 2 -25q9 -54 54 -83t108 -29q88 0 166.5 53
t100.5 147q10 41 10 75q0 50 -31 125.5t-35 132.5q-103 -89 -223 -150.5t-229 -62.5q-5 0 -5 5t5 5h5q107 0 226.5 61.5t219.5 149.5l-1 28q0 58 12.5 110t44 90.5t77.5 38.5h8q39 -3 39 -36t-38 -88.5t-105 -117.5q9 -57 48 -141t39 -140q0 -46 -18 -100
q-21 -63 -70 -108.5t-107 -66.5t-119 -21zM484 513q52 48 85 94q50 65 50 102q0 27 -31 28h-5q-52 0 -77 -49.5t-25 -121.5q0 -28 3 -53z" />
    <glyph glyph-name="T" unicode="T" horiz-adv-x="436" 
d="M160 -28q-33 0 -69 18.5t-57 37t-21 24.5q0 5 5 5l4 -4q5 -4 12 -10.5t17 -14t21.5 -15.5t24 -14.5t26 -10.5t25.5 -4q42 0 63.5 51.5t30 133.5t17 170t35 176.5t73.5 137.5q-78 11 -144 11q-62 0 -105.5 -10.5t-62 -26t-27.5 -31t-12 -26t-6 -10.5q-5 0 -5 5q0 16 9 32
t31 34.5t69.5 30t113.5 11.5q61 0 148 -12q52 48 140 48q70 0 131 -27t61 -52q0 -29 -41 -29q-22 0 -59 7t-95 19.5t-104 19.5q-38 -41 -61 -127.5t-33.5 -176.5t-24.5 -176t-45.5 -140.5t-84.5 -54.5zM667 610q30 0 30 19q0 21 -51.5 44t-109.5 23q-74 0 -118 -41
q46 -8 102.5 -19.5t92 -18.5t54.5 -7z" />
    <glyph glyph-name="U" unicode="U" horiz-adv-x="756" 
d="M527 -33q-51 0 -51 95q0 98 50 269q-8 -12 -21.5 -31.5t-53.5 -69.5t-77 -88t-84 -69.5t-83 -31.5q-85 0 -85 130q0 100 44.5 236.5t90.5 206.5q-9 1 -25 1q-91 0 -154 -65t-69 -157q0 -5 -5 -5q-4 0 -4 5q0 15 6 40t22.5 59.5t41 63.5t66.5 49.5t94 20.5q9 0 33 -2
q61 88 128 88q24 0 37 -10t13 -26q0 -25 -33.5 -46t-94.5 -21l-14 1q-3 0 -35 -83.5t-65.5 -201.5t-33.5 -188q0 -85 52 -85q24 0 52 15t61 46t57 56.5t59 71t47.5 62t40.5 55.5q44 153 69 224t35.5 84.5t26.5 13.5q27 0 27 -15q0 -19 -45 -156t-90.5 -289t-45.5 -206
q0 -16 5 -24q8 -13 22 -13q27 0 62.5 29.5t67 71t59 83.5t45.5 71.5t19 29.5q5 0 5 -5q0 -3 -17 -32.5t-46.5 -72.5t-63.5 -84.5t-72.5 -71t-69.5 -29.5zM323 618q50 0 79 19.5t29 41.5q0 23 -31 23q-50 0 -96 -83z" />
    <glyph glyph-name="V" unicode="V" horiz-adv-x="623" 
d="M293 -51q-39 0 -68 81.5t-29 190.5q0 163 66 277q-46 4 -76 4q-177 0 -177 -123q0 -25 7.5 -53.5t14.5 -46.5l7 -18q0 -5 -5 -5q-4 0 -11.5 20t-14.5 50t-7 53q0 134 187 134q32 0 80 -6q36 55 85 55q21 0 35 -10t14 -23q0 -14 -21 -24.5t-63 -10.5l-20 1
q-46 -107 -46 -301q0 -97 13 -166t34 -69q46 0 109 79.5t116.5 190t91.5 235t38 207.5q0 12 -1.5 24.5t-1.5 13.5q0 4 5 4q3 0 5 -4q3 -17 3 -38q0 -80 -37 -204t-91 -238.5t-121.5 -197t-120.5 -82.5zM316 504q38 0 57 7.5t19 17.5q0 16 -29 22l-8 1q-30 0 -53 -48h14z" />
    <glyph glyph-name="W" unicode="W" horiz-adv-x="736" 
d="M412 -61q-43 0 -68 52q-26 40 -26 145q0 39 4 78q-74 -117 -144 -117q-44 0 -72.5 46.5t-28.5 115.5t30 139.5t92 126.5q-13 0 -28 0.5t-16 0.5q-59 0 -102 -19.5t-43 -65.5q0 -5 -5 -5q-3 0 -5 5v5q0 32 25 53t58 28.5t72 7.5l55 -1q55 46 114 46q21 0 35 -7t14 -16
q0 -3 -4 -9q-17 -20 -117 -24q-62 -61 -93.5 -141t-31.5 -153q0 -54 17.5 -87.5t46.5 -33.5q59 0 134 129q14 116 52 211q11 30 44 30q25 0 25 -13l-1 -2q-12 -35 -27.5 -89.5t-33.5 -144.5t-18 -152q0 -117 61 -128q25 1 54 11.5t64.5 38t64 67t47.5 107.5t19 152
q0 68 -11.5 134t-28 111.5t-33 81t-27.5 54.5l-12 19q0 5 3 5q10 0 37.5 -52t54.5 -152t27 -201t-27 -178t-61.5 -115t-76.5 -61t-63.5 -27.5t-30.5 -4.5zM263 534q100 3 100 24q0 2 -3 5q-9 7 -24 7q-32 0 -73 -36z" />
    <glyph glyph-name="X" unicode="X" horiz-adv-x="688" 
d="M101 -110q-4 0 -5 4q-6 36 -6 83q0 144 52.5 220.5t147.5 120.5q-64 142 -64 243q0 29 6 54q-109 -19 -165.5 -71t-56.5 -153q0 -26 3.5 -48.5t7 -35t3.5 -15.5q0 -5 -5 -5q-6 0 -12.5 37.5t-6.5 66.5q0 61 20 105.5t57 69.5t73.5 38t84.5 21l1 5q2 5 5 12t8 16t14 17.5
t20 16t27.5 12t36.5 4.5q29 0 50 -11t21 -27q0 -8 -3.5 -14t-12 -10t-16.5 -7t-24 -5.5t-27 -4t-32 -4t-34 -4.5q-2 -18 -2 -28q0 -82 74 -253q15 6 46.5 18t47 18.5t43.5 19t42.5 22t37 25.5t35 31.5t27.5 38t23.5 47t14.5 56t8 67.5q0 4 5 4t5 -5q0 -46 -10.5 -86.5
t-24.5 -69.5t-40 -55.5t-47 -42.5t-55 -33.5t-53.5 -25t-54.5 -20.5t-46 -18q112 -248 214 -248q79 0 123 135l15 44q0 3 4 3q5 0 5 -5v-2l-14 -43q-16 -47 -35 -78t-40 -45t-37.5 -18.5t-35.5 -4.5q-73 0 -141 75t-109 165q-92 -43 -143 -117.5t-51 -214.5q0 -23 1.5 -41.5
t3 -28.5t1.5 -12q0 -5 -5 -5zM272 631q10 1 25 3t24 3t21 2.5t19 3t15.5 3.5t13.5 4t9.5 5t6.5 7t2 8q0 13 -21 21t-40 8q-27 0 -46 -17t-24 -34z" />
    <glyph glyph-name="Y" unicode="Y" horiz-adv-x="700" 
d="M191 -92q-95 0 -143 31.5t-48 79.5q0 58 62 104.5t158 46.5q28 0 59 -3t71 -9t59 -8q23 52 66.5 166t65.5 168q-58 -88 -100 -131t-74 -43q-54 0 -54 104q0 58 17 125.5t37 100.5q-39 -6 -66 -11t-64 -15t-62 -23t-48 -31t-35 -43.5t-12 -57.5q0 -11 1.5 -20.5t3 -15
t1.5 -6.5q0 -4 -5 -4q-3 0 -5 3q-6 24 -6 43q0 51 30.5 88t74.5 55t88 28t77.5 15.5t36.5 9.5q50 69 109 69q20 0 30 -8.5t10 -19.5q0 -19 -25.5 -28.5t-78.5 -18.5q-26 -47 -47 -130t-21 -140t23 -57q29 0 82.5 67.5t104.5 148.5q36 80 56 116.5t30 44.5t26 8q27 0 27 -16
l-234 -545h4q46 0 86.5 12.5t66 30t44.5 34.5t28 29l10 13q5 0 5 -5q0 -4 -9.5 -17.5t-30 -31.5t-48 -35t-68.5 -28.5t-86 -11.5h-7q-23 -47 -47.5 -84t-45.5 -60.5t-44.5 -40t-40.5 -25t-37.5 -13t-31 -5t-26.5 -0.5zM429 660q87 14 87 36q0 16 -19 16q-34 0 -68 -52z
M161 -81q81 0 138.5 58.5t105.5 163.5q-6 1 -77.5 10t-107.5 9q-95 0 -152.5 -43.5t-57.5 -97.5q0 -43 38.5 -71.5t112.5 -28.5z" />
    <glyph glyph-name="Z" unicode="Z" horiz-adv-x="572" 
d="M488 -110q-59 0 -122 21.5t-106 47.5t-87.5 54t-64.5 35q-36 -29 -65 -29q-17 0 -27 10t-10 23l1 6q2 18 42 18l23 -1q10 0 26 -2q21 27 48 70t72.5 118.5t68.5 112.5q-61 26 -98 26q-59 0 -92 -60q-3 -3 -4 -3l-3 1q-3 2 -3 5l1 2q37 65 101 65q38 0 103 -27l2 4
q3 4 16 25t17.5 28.5t17.5 27.5t19 30t18.5 28.5t20.5 29t20 26.5t21 26.5t20 22.5t21 21q-9 2 -56.5 10t-76 13t-73 9.5t-77.5 4.5q-35 0 -58 -4q27 -33 27 -60q0 -30 -31 -43q-15 -6 -28 -6q-25 0 -41.5 15.5t-16.5 36.5q0 46 71 63q-12 14 -38 34l-2 4l1 3l4 2l3 -1
q25 -19 44 -39q24 5 65 5q34 0 79.5 -4.5t76.5 -10t77.5 -13.5t58.5 -10q54 44 97 44h6q22 0 28 -12q2 -6 2 -9q0 -15 -23 -26.5t-61 -11.5l-19 1q-24 -26 -43.5 -55.5t-60 -100t-77.5 -131.5q80 -37 123 -37q35 0 63 21l2 1l5 -2l1 -3l-2 -4q-32 -23 -69 -23q-41 0 -129 38
q-121 -198 -208 -283q57 -11 114.5 -39.5t96 -55.5t86.5 -48.5t92 -21.5q65 0 104 36q36 33 36 77q2 5 5 5q5 0 5 -5q0 -46 -39 -84q-46 -42 -141 -42zM111 586q14 0 25 5q25 10 25 35t-28 57q-35 -7 -52 -22.5t-17 -33.5q0 -17 13.5 -29t33.5 -12zM538 656q63 0 78 23l1 5
q0 11 -20 11q-7 0 -24 -9q-17 -8 -40 -30h5zM52 29q16 7 32 27q-30 10 -49 10q-18 0 -19 -10l-1 -4q0 -11 9.5 -17t21.5 -6h6z" />
    <glyph glyph-name="bracketleft" unicode="[" horiz-adv-x="230" 
d="M175 -39h-91q-29 0 -29 4v1q-5 255 -5 341q0 81 5 353v1q0 4 30 4h90q5 0 5 -5t-25 -5h-71q5 -267 5 -349q0 -88 -5 -335h71q25 0 25 -5t-5 -5z" />
    <glyph glyph-name="backslash" unicode="\" horiz-adv-x="234" 
d="M54 729q2 0 4 -4q69 -448 126 -750v-2q0 -5 -4 -5q-2 0 -3 4q-47 254 -127 751v1q0 5 4 5z" />
    <glyph glyph-name="bracketright" unicode="]" horiz-adv-x="230" 
d="M55 665h91q29 0 29 -4v-1q5 -255 5 -341q0 -81 -5 -353v-1q0 -4 -30 -4h-90q-5 0 -5 5t25 5h71q-5 267 -5 349q0 88 5 335h-71q-25 0 -25 5t5 5z" />
    <glyph glyph-name="asciicircum" unicode="^" horiz-adv-x="335" 
d="M285 555h-1q-5 7 -82 99q-7 7 -17 9h-4q-8 0 -15 -4q-105 -67 -108 -67l-2 2q1 4 58.5 54t65.5 56q6 4 11 4h3q8 -2 11 -8q84 -140 84 -142q-1 -3 -4 -3z" />
    <glyph glyph-name="underscore" unicode="_" horiz-adv-x="478" 
d="M420 2h-360q-10 0 -10 10t10 10h360q10 0 10 -10t-10 -10z" />
    <glyph glyph-name="grave" unicode="`" horiz-adv-x="322" 
d="M264 548l-3 1q-112 60 -206 120q-5 3 -5 8l2 5q14 18 35 18q17 0 31 -12q81 -71 151 -126q3 -3 3 -7l-1 -4q-3 -3 -7 -3z" />
    <glyph glyph-name="a" unicode="a" horiz-adv-x="363" 
d="M189 -25q-49 0 -49 88q0 59 24 173q-42 -74 -65 -95q-21 -19 -41 -19q-31 0 -46.5 24t-15.5 62q0 57 30 106.5t75 49.5q41 0 83 -43q9 33 35 33q19 0 19 -8q0 -4 -15.5 -70t-31 -143t-15.5 -106q0 -35 20 -35q36 0 78.5 67.5t70.5 135.5l28 68h1q4 -2 4 -5
q0 -9 -27 -75.5t-74 -137t-88 -70.5zM73 137q5 0 11 3.5t12.5 10.5t13 15t13.5 18.5t12.5 19.5t12 21t10 18.5t8.5 16t6 11.5q5 25 9 39q-7 10 -25 21.5t-33 11.5q-33 0 -53.5 -48t-20.5 -100q0 -58 23 -58h1z" />
    <glyph glyph-name="b" unicode="b" horiz-adv-x="365" 
d="M86 -9q-27 0 -46 19t-19 43q0 25 6 44t21 31t26.5 19t37 12t36 6t39.5 4q42 94 42 124q0 15 -7.5 19.5t-22.5 4.5q-27 0 -55 -16.5t-50.5 -39.5t-40.5 -46t-30 -39.5t-14 -16.5q-14 0 -14 74q0 52 8.5 115.5t30 136.5t52.5 132t82.5 98.5t113.5 39.5q32 0 52.5 -11.5
t20.5 -32.5q0 -29 -28 -62.5t-68 -61t-80 -50t-68 -35.5l-28 -13q-20 -66 -45.5 -188t-27.5 -130q3 9 29.5 44.5t73.5 73.5t86 38q62 0 62 -75q0 -17 -3 -36t-6 -29.5t-4 -10.5q43 7 70.5 22.5t35 30t12.5 25.5t9 11q5 0 5 -5q0 -3 -1.5 -8.5t-10 -19.5t-21.5 -25.5t-40 -24
t-62 -17.5q-22 -61 -67 -117.5t-92 -56.5zM88 501q101 44 179.5 107t78.5 102q0 15 -14.5 25t-36.5 10q-51 0 -109 -58t-98 -186zM64 14q17 0 35.5 15t32.5 36t25.5 42.5t18 36.5t7.5 15q-38 -3 -59.5 -7t-45.5 -14.5t-35 -31.5t-11 -53q0 -15 8 -27t24 -12z" />
    <glyph glyph-name="c" unicode="c" horiz-adv-x="285" 
d="M88 82q-49 0 -74 32t-25 80q0 62 36 112.5t93 50.5q22 0 35.5 -13.5t13.5 -40.5q0 -5 -5 -5t-5 5q0 16 -7.5 24.5t-18.5 8.5q-31 0 -68 -60.5t-37 -113.5q0 -70 72 -70q41 0 104.5 51t87.5 119q0 3 4 3q5 0 5 -5q0 -18 -29.5 -59.5t-81 -80t-100.5 -38.5z" />
    <glyph glyph-name="d" unicode="d" horiz-adv-x="372" 
d="M219 13q-9 0 -17 5q-37 21 -37 121q0 33 4 69q-67 -122 -123 -122q-26 0 -41.5 28t-15.5 71l1 21q6 77 42 118t81 41q42 0 73 -34q22 117 59.5 203.5t80.5 130.5t82.5 64t77.5 20q34 0 56.5 -14.5t22.5 -33.5v-2q-2 -43 -82 -103.5t-197 -103.5q-23 -64 -55.5 -202.5
t-32.5 -210.5q0 -27 6 -41q7 -15 18 -15q20 0 52.5 50.5t64.5 114t40 74.5q2 2 4 2q5 0 5 -5l-1 -3q-11 -14 -42.5 -79.5t-64.5 -114.5t-61 -49zM54 96q20 0 54 40.5t63 98.5q3 28 12 83q-22 31 -49 31q-33 0 -60.5 -48t-37.5 -140l-2 -25q0 -40 20 -40zM291 504
q110 42 186 99.5t78 95.5v1q0 15 -15.5 26t-40.5 11q-51 0 -107.5 -54.5t-100.5 -178.5z" />
    <glyph glyph-name="e" unicode="e" horiz-adv-x="254" 
d="M80 78q-46 0 -77 28t-31 75q0 69 52.5 121.5t107.5 52.5q45 0 45 -26q0 -28 -46.5 -65t-93.5 -41q-18 -44 -18 -74q0 -56 61 -56q43 0 80 22.5t57 53t31.5 55.5t11.5 35q0 5 5 5t5 -5q0 -19 -21 -60t-67.5 -81t-101.5 -40zM41 233q43 7 84.5 40t41.5 55q0 16 -22 16
q-39 0 -74 -54q-15 -23 -30 -57z" />
    <glyph glyph-name="f" unicode="f" horiz-adv-x="271" 
d="M-12 -318h-1q-5 0 -10.5 1.5t-18 10.5t-21.5 24.5t-16 48.5t-7 78q0 136 53 324t135 329t153 141q19 0 37 -11.5t18 -31.5q0 -41 -64 -124t-131.5 -155t-70.5 -79q-2 -5 -21 -68q51 -13 90 -13q38 0 68 11t46.5 27t26.5 32t15.5 27t7.5 11q5 0 5 -5q0 -2 -3.5 -12
t-15 -27.5t-29.5 -33t-51 -27t-75 -11.5q-22 0 -44 2.5t-33 5.5l-11 3q0 -3 4.5 -49.5t9 -116t4.5 -125.5q0 -187 -50 -187zM57 275q85 83 163.5 177.5t78.5 141.5q0 29 -33 29q-86 0 -209 -348zM-6 -308q34 0 34 169q0 122 -15 274q-64 -224 -64 -344q0 -94 44 -99h1z" />
    <glyph glyph-name="g" unicode="g" horiz-adv-x="340" 
d="M-23 -322q-40 0 -64 28.5t-24 70.5t35.5 88t68 72t104.5 76q7 5 11 8l42 217q-6 -13 -16 -32.5t-37.5 -51.5t-50.5 -32q-27 0 -41.5 27.5t-14.5 68.5q0 55 24.5 99t67.5 44q52 0 86 -38v1q5 28 38 28q23 0 23 -10q0 -3 -5.5 -37t-18.5 -101.5t-29 -132.5q49 37 85 71
t52 55t25 37.5t12 23.5t5 7q4 0 4 -5q0 -21 -51.5 -82t-134.5 -122q-10 -41 -17 -68t-22 -78t-30.5 -86t-35 -71.5t-43 -55.5t-48.5 -19zM61 137q10 0 20.5 10t27 37.5t22.5 39.5t26 50l8 37q-23 32 -54 32q-30 0 -50.5 -51.5t-20.5 -103.5q0 -51 21 -51zM-29 -312
q18 2 34 16.5t29.5 45.5t22.5 53.5t20 69t14 62.5t12 62q1 7 2 10q-105 -75 -139 -108q-67 -64 -67 -122q0 -40 22 -64.5t50 -24.5z" />
    <glyph glyph-name="h" unicode="h" horiz-adv-x="419" 
d="M170 -84q-27 0 -27 35q0 37 46.5 164t46.5 168q0 35 -24 39q-57 -1 -98.5 -71t-89.5 -226v-4l-1.5 -6t-1.5 -6.5t-3 -7.5t-5 -6.5t-7.5 -5t-10.5 -2.5q-6 0 -8 6q-3 39 -3 78q0 219 85 443q83 214 205 239q12 3 31 3q69 0 69 -44v-2q-1 -37 -52 -84t-104.5 -78
t-100.5 -52q-50 -153 -86 -416q37 117 78 182q45 69 103 70h3q61 0 61 -69q0 -59 -49 -186.5t-49 -140.5q0 -7 4 -8q27 2 64.5 42.5t75.5 103.5t60.5 105t43.5 84q2 3 5 3q4 0 4 -4l-1 -4q-18 -38 -40 -78.5t-61 -106.5t-79 -109t-71 -46zM121 508q115 53 179 110.5t64 94.5
q0 32 -46 32l-17 -1q-32 -4 -62 -29.5t-50.5 -58t-36.5 -66.5t-23.5 -56.5t-7.5 -25.5z" />
    <glyph glyph-name="i" unicode="i" horiz-adv-x="210" 
d="M46 69h-1q-26 0 -39.5 29.5t-13.5 77.5q0 68 23 144q9 32 44 32l14 -2q8 -2 8 -9l-1 -3q-5 -22 -20.5 -74.5t-24 -89.5t-8.5 -60q0 -33 21 -33q32 1 82 52t85 127q1 3 5 3q5 0 5 -4q0 -11 -28 -56t-72.5 -89t-78.5 -45zM70 391l-7 1q-21 7 -21 29l1 7q7 20 28 20
q5 0 8 -1q21 -5 21 -26q0 -3 -2 -9q-5 -21 -28 -21z" />
    <glyph glyph-name="j" unicode="j" horiz-adv-x="174" 
d="M-206 -334q-31 0 -52 24t-21 52v1q0 29 8.5 57.5t18 49.5t32.5 47.5t36 40.5t46.5 40t45.5 35t50 36q11 52 28 138.5t25 123.5q3 16 16 26.5t30 10.5l10 -1q1 0 2.5 -1t3 -3.5t1.5 -5.5v-1q-24 -154 -42 -232q59 46 93 87t42 57.5t10 16.5l3 -1q3 -2 3 -4l-1 -2
q-39 -81 -153 -169q-28 -119 -60 -206t-63.5 -132t-58.5 -65t-53 -20zM-212 -322q21 0 40.5 17t36.5 53t29.5 65t26.5 82t18.5 73t15.5 66q-44 -32 -68.5 -50t-58.5 -49.5t-51.5 -57t-31.5 -61t-15 -73.5q0 -36 24 -53q18 -12 34 -12zM60 384q-6 0 -9 1q-19 6 -19 27
q0 6 1 9q7 20 28 20l8 -1q20 -7 20 -27q0 -3 -2 -9q-7 -20 -27 -20z" />
    <glyph glyph-name="k" unicode="k" horiz-adv-x="339" 
d="M134 -115q-53 0 -53 79q0 23 5.5 67t5.5 59q0 25 -6 34.5t-11.5 10.5t-5.5 5q42 29 65.5 54t26.5 33t3 13q-2 21 -21 21q-33 0 -76.5 -47.5t-64.5 -128.5q-1 -3 -6 -3h-5q-4 0 -4 34q0 50 7.5 119.5t30 163.5t56.5 171t94 131t136 54q71 0 71 -38q0 -39 -76.5 -102
t-193.5 -114q-45 -120 -96 -350q30 63 65.5 93t65.5 30q17 0 27.5 -9.5t10.5 -24.5q0 -22 -18 -45.5t-36 -36.5t-23 -13q35 -26 35 -86q0 -31 -9.5 -79.5t-9.5 -55.5q0 -28 19 -28q41 0 105 102.5t94 262.5q0 4 4 4q5 0 5 -5q0 -20 -17.5 -78.5t-45.5 -126t-70.5 -119
t-83.5 -51.5zM117 514q98 43 176.5 103.5t78.5 96.5q0 12 -13.5 21.5t-34.5 9.5q-47 0 -103 -53.5t-104 -177.5z" />
    <glyph glyph-name="l" unicode="l" horiz-adv-x="268" 
d="M41 -15q-55 0 -55 132q0 82 23 190.5t60 207t90 166.5t106 68q52 0 52 -47v-2q0 -23 -17.5 -71.5t-49 -111t-85 -133t-115.5 -123.5q-32 -133 -32 -199q0 -64 31 -64q29 0 99 78t121 186q1 3 4 3q5 0 5 -5q0 -14 -41 -80t-100 -130.5t-96 -64.5zM54 277q62 55 114 126.5
t80 131.5t43.5 104t15.5 61q0 40 -27 40q-19 0 -43.5 -24t-54.5 -74t-64 -145t-64 -220z" />
    <glyph glyph-name="m" unicode="m" horiz-adv-x="461" 
d="M292 -32q-28 0 -28 45q0 41 27.5 136.5t27.5 107.5q0 5 -2 7q-3 4 -10 4q-23 0 -66 -31q-34 -29 -56 -61q-4 -13 -20 -47q-7 -13 -20 -13q-2 0 -10 2q-5 3 -5 8v2q6 27 21.5 80t26.5 94t11 58q0 16 -15 16q-20 0 -50 -21q-55 -44 -101 -176l-16 -66q-1 -10 -12 -10l-6 1
q-2 0 -2 4q0 5 2 24t8 77.5t13 135.5q2 15 13.5 24.5t25.5 9.5h5q14 -2 14 -9l-29 -124q30 65 69.5 103.5t70.5 38.5q41 0 41 -65q0 -50 -23 -116q13 16 40 39q45 34 78 34q20 0 28 -14q12 -19 12 -51q0 -35 -14 -82.5t-31 -90t-19 -53.5v-1q0 -8 8 -8h2q36 14 85 96
q55 93 78 187q0 4 5 4t5 -4l-1 -2q-21 -92 -79 -191q-63 -102 -102 -102z" />
    <glyph glyph-name="n" unicode="n" horiz-adv-x="321" 
d="M156 44l-10 1q-28 4 -28 45q0 44 34 128q5 13 14.5 35t14 33.5t8.5 25t5 21.5v2q0 19 -21 19q-45 0 -102 -92q-40 -65 -61 -135l-10 -45q-1 -10 -12 -10q-8 0 -8 7v1q7 116 32 254q2 16 14.5 26t28.5 10l12 -2q5 -3 5 -8v-2q-19 -53 -46 -161q14 32 37 70q62 100 123 100
q13 0 19 -4q25 -11 25 -52q0 -64 -63 -193q-15 -32 -15 -46q0 -16 14 -16q19 0 52 30t67 87q34 55 40 87q1 3 4 3h2q4 0 4 -5q-10 -53 -70 -133.5t-109 -80.5z" />
    <glyph glyph-name="o" unicode="o" 
d="M59 84q-37 0 -55 32.5t-18 77.5q0 37 11 65t28 28q7 0 15 -5.5t12.5 -11.5t4.5 -7l-4 -7q-4 -8 -9.5 -20.5t-11.5 -27t-10 -31.5t-4 -31q0 -47 46 -51q63 1 104 86q-55 11 -86 51t-31 85q0 36 21.5 60t60.5 24q74 0 74 -95q0 -56 -23 -112q12 -4 28 -4q34 0 63 21t40 51
q1 3 5 3q5 0 5 -5q0 -2 -3.5 -10t-12.5 -20.5t-22.5 -23.5t-36 -19.5t-49.5 -8.5q-15 0 -23 1q-25 -53 -57.5 -74t-61.5 -21zM175 197q23 55 23 107q0 38 -13 61t-38 23q-55 0 -55 -61q0 -38 23.5 -77t59.5 -53z" />
    <glyph glyph-name="p" unicode="p" horiz-adv-x="370" 
d="M-32 -251q-24 0 -24 94q0 70 19 208.5t56.5 266.5t76.5 128q26 0 26 -17l-8 -24q-9 -24 -30 -94t-46 -166q53 128 92 178t74 50q32 0 57 -32t25 -87q0 -23 -4 -44q42 8 65 19t28 32q0 4 5 4t5 -5q0 -42 -105 -60q-11 -53 -46.5 -95.5t-69.5 -42.5q-15 0 -29 10t-14 32
q0 41 27 61.5t75 32.5q13 49 13 85q0 78 -37 78q-31 0 -77 -69.5t-103 -221.5q-1 -4 -9 -35t-14 -56.5t-6 -29.5l2 -7q2 -7 4.5 -18t5.5 -24.5t5 -30t2 -31.5q0 -46 -13 -67.5t-28 -21.5zM-27 -245q4 0 9.5 7t11 25t5.5 41q0 35 -13 89q-20 -93 -20 -139q0 -23 7 -23z
M157 73q9 2 21 16q11 14 22 37q13 27 21 61q-42 -9 -66 -30t-24 -56q0 -11 2 -14q8 -14 21 -14h3z" />
    <glyph glyph-name="q" unicode="q" horiz-adv-x="348" 
d="M135 -211q-48 0 -48 104q0 128 58 337q-43 -74 -69 -94q-17 -13 -34 -13q-25 0 -38 21.5t-13 55.5q0 57 30.5 108t76.5 51q24 0 41.5 -11.5t23.5 -21t6 -12.5q13 38 44 38q9 0 16.5 -3.5t7.5 -6.5q0 -15 -74 -272q51 29 88.5 60t55.5 54t28.5 42t14.5 29t7 10q5 0 5 -5
q0 -13 -17 -42t-66.5 -76t-118.5 -86q-4 -12 -5 -18q2 -5 10.5 -28.5t18.5 -66.5t10 -75q0 -79 -59 -79zM58 140q26 0 95 126q3 5 4 7l8 27q-19 45 -47 45q-26 0 -53 -60.5t-27 -107.5q0 -37 20 -37zM141 -200q42 0 42 66q0 64 -33 155q0 -1 -8.5 -31.5t-17 -72.5t-8.5 -70
q0 -47 25 -47z" />
    <glyph glyph-name="r" unicode="r" horiz-adv-x="273" 
d="M59 -17q-7 0 -11 2q-21 8 -21 53q0 42 17 103t41 111q-17 -4 -36 -4q-43 0 -64.5 25.5t-21.5 63.5q0 45 27 81.5t68 36.5q26 0 26 -27q0 -11 -3.5 -24.5t-11.5 -32.5t-12.5 -29t-16 -32.5t-12.5 -23.5q23 -14 60 -14l26 1q32 0 32 -24q0 -11 -45 -116t-45 -120
q0 -7 5 -11.5t11 -4.5q16 0 43.5 27.5t55.5 67t54 79t43 67t18 27.5q5 0 5 -5t-41 -72t-99 -136t-92 -69zM20 292q55 108 55 137q0 16 -12 16q-26 -10 -45 -41t-19 -63q0 -34 21 -49z" />
    <glyph glyph-name="s" unicode="s" horiz-adv-x="247" 
d="M13 -37q-24 0 -40 12.5t-16 34.5q0 62 88 109q-48 96 -48 159q0 43 23 66q31 31 75 31q45 0 45 -35q0 -14 -9 -33t-13 -19q-6 0 -6 5q0 1 2 4t5.5 9.5t6.5 15.5q4 8 4 18t-8 17q-7 6 -24 6q-21 0 -36 -15t-15 -50q0 -59 46 -156q3 1 20.5 9t22.5 10.5l21 10.5t22.5 12
t19 12t18.5 14.5t14 15t12.5 17t7.5 18.5q1 4 5 4q5 0 5 -5q0 -14 -11 -29t-24.5 -26.5t-36 -25t-36 -20t-35.5 -16.5l-21 -10q12 -29 12 -59q0 -53 -29.5 -82t-66.5 -29zM1 -27q23 0 42.5 23t19.5 57q0 14 -3 28t-6 21.5t-4 7.5q-3 0 -22 -11t-40 -36t-21 -53
q0 -16 10 -26.5t24 -10.5z" />
    <glyph glyph-name="t" unicode="t" horiz-adv-x="222" 
d="M5 -210l-10 1q-51 7 -51 120q0 182 117 562q-51 14 -87 14q-47 0 -83 -24h-1q-2 0 -4 2v2l1 3q39 25 86 25q34 0 90 -15q5 14 18 55.5t20 62.5q12 32 46 32q20 0 20 -12l-43 -153q27 -6 53 -6q63 0 109 47l3 2l3 -2l1 -2l-2 -3q-49 -50 -115 -50q-22 0 -54 7
q-2 -6 -26 -91t-37.5 -136t-33.5 -131.5t-30 -141t-10 -98.5q0 -45 15 -54q5 -4 12 -4q68 0 215 455q3 8 6 8h2q3 -1 3 -5l-1 -2q0 -4 -26 -83.5t-68.5 -186t-76.5 -154.5q-31 -44 -61 -44z" />
    <glyph glyph-name="u" unicode="u" horiz-adv-x="364" 
d="M164 -26q-28 0 -28 70q0 73 17 152q-8 -13 -20.5 -32t-44.5 -51t-55 -32q-45 0 -45 82q0 53 20 129q7 27 36 27q25 0 25 -15q0 -3 -22 -75.5t-22 -104.5q0 -30 18 -30q21 0 56 44.5t59 84.5q31 138 72 138q9 0 16 -6.5t7 -10.5q0 -5 -44 -150.5t-44 -186.5q0 -18 8 -18
q31 0 105 102t92 169q0 4 4 4q5 0 5 -5q0 -21 -39.5 -90t-92.5 -132t-83 -63z" />
    <glyph glyph-name="v" unicode="v" horiz-adv-x="288" 
d="M30 58q-40 0 -40 91q0 83 28 160q8 23 30 23q11 0 21.5 -6t10.5 -12l-4 -9q-3 -9 -8 -23.5t-11 -33t-12.5 -39.5t-11.5 -41t-8.5 -39.5t-3.5 -32.5v-6q2 -18 20 -18q5 0 10 3q24 15 55 61.5t52.5 85.5t22.5 39q3 0 4 -3q16 -32 42 -32q9 0 19 4t17.5 9.5t14 11.5t10.5 10
l4 4q5 0 5 -5q0 -3 -9.5 -13t-27 -20t-33.5 -10q-27 0 -46 29q-18 -37 -38.5 -72.5t-54 -75.5t-58.5 -40z" />
    <glyph glyph-name="w" unicode="w" horiz-adv-x="410" 
d="M2 -7h-5q-35 0 -35 84q0 78 27.5 161t60.5 83q18 0 30 -15h1q1 0 1 -1q-94 -201 -94 -275q0 -24 12 -27q44 0 153 204q6 32 14.5 47t28.5 15q9 0 24 -5q3 -2 3 -4t-10.5 -30.5t-21 -66t-10.5 -59.5q0 -32 21 -32q30 0 61.5 54t31.5 106q0 7 -0.5 12.5t-0.5 8.5l-1 3
q0 5 5 5l9 -5q9 -4 24 -8.5t30 -4.5q21 0 33 8t16.5 16t6.5 8q5 0 5 -5q0 -1 -1.5 -4.5t-6 -9t-10.5 -10.5t-18 -9t-26 -4q-28 0 -56 14q1 -5 1 -14q0 -55 -34 -113.5t-78 -58.5q-45 0 -45 83l1 34q-102 -181 -147 -185z" />
    <glyph glyph-name="x" unicode="x" horiz-adv-x="316" 
d="M-50 -3q-5 0 -5 5q0 2 14 23t41.5 58t56.5 71q-50 105 -67 128q-1 1 -1 3v1q0 7 10.5 13.5t22.5 6.5q21 0 36.5 -20t41.5 -83q40 44 73.5 73t46.5 36.5t16 7.5l5 -5q0 -2 -10 -7t-45 -34t-82 -81q5 -15 14.5 -43t14 -41t12.5 -29t16 -22.5t18 -6.5q30 0 65 43.5t58.5 87
t24.5 43.5q5 0 5 -5t-21.5 -47t-62.5 -88.5t-81 -46.5q-55 0 -105 107q-36 -43 -63.5 -81.5t-37 -52.5t-11.5 -14z" />
    <glyph glyph-name="y" unicode="y" horiz-adv-x="355" 
d="M-11 -276q-36 0 -58.5 24t-22.5 69q0 30 7 55t24 46t31.5 35.5t43.5 31t46.5 25l52.5 25.5q34 147 64 224q-2 -6 -10 -17l-8 -11q-48 -76 -73.5 -105t-47.5 -29q-4 0 -12 2q-39 13 -39 78q0 48 18 108q8 28 39 28q23 0 23 -15l-1 -5q-43 -103 -48 -141v-6q0 -14 6.5 -24
t17.5 -10q7 0 14 4q26 15 131 181q16 22 41 22q10 0 22 -5q7 -1 7 -10l-1 -4q-22 -54 -69 -229q67 35 111.5 80t63.5 113q2 3 5 3q5 0 5 -4v-2q-21 -71 -69 -118t-119 -85q-42 -156 -70 -218q-49 -104 -110 -115zM-25 -263q22 0 39 16q27 24 47.5 85.5t48.5 184.5
q-33 -16 -51 -25t-44.5 -24.5t-40.5 -29.5t-29 -33.5t-21.5 -42.5t-6.5 -51q0 -37 17 -58.5t41 -21.5z" />
    <glyph glyph-name="z" unicode="z" horiz-adv-x="374" 
d="M10 -281q-47 0 -70.5 29.5t-23.5 63.5q0 35 17.5 64t48.5 50t59 35t65 28.5t51 22.5q-3 47 -22.5 84.5t-38 56.5t-18.5 20l15 21q15 22 30.5 51t15.5 47q0 23 -28 23q-33 0 -58.5 -15.5t-38 -31t-13.5 -15.5q-3 0 -3 4q0 8 15.5 29.5t47 43t63.5 21.5q51 0 51 -46
q0 -30 -22.5 -67t-59.5 -63q43 -19 73.5 -56.5t39.5 -83.5q54 26 90.5 59.5t51 62.5t21.5 54t8.5 39.5t5.5 14.5t4 -7q0 -57 -42 -122.5t-136 -110.5q4 -30 4 -46q0 -105 -65 -182.5t-138 -77.5zM-5 -268q49 0 88.5 53.5t57 113.5t17.5 101v1q-15 -7 -43 -19t-43 -18.5
t-38.5 -18t-36.5 -20.5t-29 -22.5t-24 -26.5t-13.5 -30.5t-5.5 -36.5q0 -29 20 -53t50 -24z" />
    <glyph glyph-name="braceleft" unicode="{" horiz-adv-x="432" 
d="M198 -77h-11q-58 0 -81 28.5t-23 80.5q0 30 9.5 97.5t9.5 98.5q0 83 -50 110l-2 2v4q1 0 1 1l2 1q38 17 64 50t39.5 70.5t24.5 79t24 79.5t32 68.5t54.5 49t86.5 18.5q4 0 4 -5q0 -4 -4 -4h-10q-51 0 -81.5 -32.5t-46 -83.5t-31.5 -105.5t-52 -107.5t-93 -81
q64 -40 64 -140q0 -33 -8.5 -96t-8.5 -88q0 -41 17 -63t61 -22h9q5 0 5 -5q0 -3 -5 -5z" />
    <glyph glyph-name="bar" unicode="|" horiz-adv-x="109" 
d="M55 -101q-5 0 -5 5v881q0 5 5 5t5 -5v-881q0 -5 -5 -5z" />
    <glyph glyph-name="braceright" unicode="}" horiz-adv-x="432" 
d="M56 -77h-1q-5 0 -5 5q0 4 4 4h10q51 0 81.5 32.5t46 83.5t31.5 105.5t52 107.5t93 81q-64 40 -64 139q0 33 8.5 96.5t8.5 88.5q0 41 -17 63t-61 22h-8q-5 0 -5 5t5 5h11q58 0 80.5 -28.5t22.5 -80.5q0 -30 -9 -97.5t-9 -98.5q0 -83 50 -110v-1h1v-1h1v-4q-1 0 -1 -1v-1
h-2q-44 -20 -72.5 -60.5t-40.5 -85.5t-27 -93.5t-31.5 -87t-55.5 -63.5t-97 -25z" />
    <glyph glyph-name="asciitilde" unicode="~" horiz-adv-x="361" 
d="M250 326q-28 0 -84 17t-78 17q-21 0 -34 -9l-2 -1q-2 0 -2 2q0 4 4.5 9.5t17.5 10.5t32 5q20 0 47 -6q16 -4 40.5 -11t42.5 -11.5t33 -4.5q21 0 39 12h2l3 -1v-1q0 -5 -9 -12t-21 -11q-17 -5 -31 -5z" />
    <glyph glyph-name="exclamdown" unicode="&#xa1;" horiz-adv-x="315" 
d="M79 21q-11 0 -20 7.5t-9 19.5l1 8q5 4 166 545q0 2 4 2q5 0 5 -5q-93 -440 -121 -556q-6 -21 -26 -21zM236 642q-11 0 -19.5 8t-8.5 20t8 20.5t20 8.5q11 0 19.5 -8t8.5 -20t-8 -20.5t-20 -8.5z" />
    <glyph glyph-name="cent" unicode="&#xa2;" horiz-adv-x="410" 
d="M74 -98q-5 0 -5 5v1l49 235q-34 10 -51 39.5t-17 68.5q0 61 35.5 111.5t90.5 51.5q46 209 60 265q0 3 4 3q5 0 5 -4v-2q-35 -147 -59 -263q19 -2 30.5 -15.5t11.5 -37.5q0 -5 -5 -5t-5 5q0 16 -7.5 24.5t-18.5 8.5q-3 0 -11 -2l-51 -238q11 -4 29 -4q41 0 104.5 51
t87.5 119q0 3 4 3q5 0 5 -5q0 -18 -29.5 -59.5t-81 -80t-100.5 -38.5q-8 0 -22 2l-48 -235q-1 -4 -5 -4zM121 156l49 229q-30 -19 -56.5 -70.5t-26.5 -95.5q0 -46 34 -63z" />
    <glyph glyph-name="sterling" unicode="&#xa3;" horiz-adv-x="555" 
d="M391 29l-329 4q-11 0 -11 11t13 11q82 103 93 167q2 7 2 24q0 19 -3.5 43.5t-9.5 58.5t-9 55q-32 10 -54 10q-18 0 -29 -8h-3q-1 0 -1 1q0 4 4 8.5t16 8.5t28 4q17 0 37 -4q-3 25 -3 51q0 66 23 116q32 67 91.5 103.5t121.5 36.5q73 0 112 -47q25 -28 25 -66l-1 -17
q0 -4 -4 -4q-5 0 -5 5v1q1 5 1 14q0 33 -23 61q-35 42 -88 42q-63 0 -123.5 -52.5t-76.5 -121.5q-7 -32 -7 -67q0 -24 6 -68q38 -11 58 -11t34 10h1l3 -1v-1q0 -3 -8.5 -10t-18.5 -10q-11 -4 -27 -4q-17 0 -39 5q18 -97 18 -125q0 -110 -122 -209l331 -3q31 35 54 54l1 1h2
t3 -2l1 -2q0 -1 -1 -2.5t-5 -6t-9 -11.5t-14 -20t-19 -29q-2 -4 -36 -4z" />
    <glyph glyph-name="currency" unicode="&#xa4;" horiz-adv-x="496" 
d="M434 186q-4 0 -6 1q-27 16 -90 73q-40 -29 -90 -29t-90 29q-65 -58 -89 -73q-2 -1 -6 -1q-9 0 -12 6l-1 3q0 19 73 100q-28 39 -28 90q0 50 28 89q-73 81 -73 100l1 3q3 7 11 7l7 -2q36 -23 90 -73q38 29 89 29q52 0 90 -29q56 52 89 73l7 2q8 0 11 -7l1 -4
q0 -17 -73 -99q29 -40 29 -89q0 -50 -29 -90q73 -81 73 -100v-3q-4 -6 -12 -6zM248 250q41 0 75 24q59 39 59 111q0 55 -39.5 94.5t-94.5 39.5t-94.5 -39.5t-39.5 -94.5q0 -56 39.5 -95.5t94.5 -39.5z" />
    <glyph glyph-name="yen" unicode="&#xa5;" horiz-adv-x="499" 
d="M79 5l-1 9q66 25 99 81.5t51 154.5h-173q-5 0 -5 4t5 4h175q8 38 11 63h-186q-5 0 -5 5q0 3 5 3h187q20 135 32 201q-44 -114 -78 -150q-22 -24 -50 -24q-10 0 -17 4q-35 19 -35 102q0 95 48 227q6 19 27 19l7 -1q7 -2 7 -9v-2q-2 -11 -25 -117.5t-25 -151.5v-13
q0 -24 9 -35q8 -11 19 -11q14 0 30 18q40 46 91 191q17 78 31 122q4 14 15 22.5t25 8.5q3 0 13 -2q3 0 3 -4q-17 -62 -30 -130.5t-26.5 -149.5t-19.5 -115h153q3 0 3 -3q0 -5 -3 -5h-155q-2 -13 -7 -35t-6 -28h168q3 0 3 -4t-3 -4h-170q-26 -111 -71 -172.5t-126 -72.5z" />
    <glyph glyph-name="brokenbar" unicode="&#xa6;" horiz-adv-x="119" 
d="M69 773v-332q0 -10 -9 -10q-10 0 -10 10v332q0 10 10 10q9 0 9 -10zM69 349v-332q0 -10 -9 -10q-10 0 -10 10v332q0 10 10 10q9 0 9 -10z" />
    <glyph glyph-name="section" unicode="&#xa7;" horiz-adv-x="378" 
d="M110 46q-25 0 -41.5 13t-18.5 37q0 6 6 6t6 -5q3 -39 46 -39l6 1q33 14 47 42q13 25 13 51q0 16 -4 32.5t-11 31.5t-13 25t-13.5 21.5t-8.5 12.5q-37 57 -37 117q0 44 20 77.5t54 47.5q-9 29 -9 55q0 80 58 123q25 19 62 19q44 0 53 -24q4 -5 4 -15q0 -21 -19 -56l-5 -3
l-3 2q-2 1 -2 4q0 2 8.5 19.5t8.5 33.5q0 22 -22 22q-15 0 -33.5 -9.5t-29.5 -23.5q-18 -18 -21 -53l-1 -16q0 -46 34 -101q47 -76 47 -139q0 -45 -21.5 -75t-52.5 -42q12 -34 12 -65q0 -57 -37.5 -92t-81.5 -35zM206 262q33 28 33 77v5q-1 27 -11 50t-28 50.5t-26 42.5
q-29 -26 -29 -75q0 -50 33 -102q24 -40 28 -48z" />
    <glyph glyph-name="dieresis" unicode="&#xa8;" horiz-adv-x="269" 
d="M161 722q0 11 8 20t20 9l10 -1q20 -7 20 -27q0 -11 -8 -20t-20 -9l-10 2q-20 6 -20 26zM50 722q0 11 8 20t20 9l10 -1q20 -7 20 -27q0 -11 -8 -20t-20 -9l-10 2q-20 6 -20 26z" />
    <glyph glyph-name="copyright" unicode="&#xa9;" horiz-adv-x="742" 
d="M324 -13q-79 0 -144.5 40.5t-102.5 121.5q-27 60 -27 125q0 94 55.5 180.5t141.5 137t175 50.5q131 0 212 -109q58 -76 58 -176q0 -32 -8 -70q-27 -132 -133 -216t-227 -84zM325 -8q69 0 135.5 37t114.5 107q75 109 75 235q0 85 -37 148q-31 56 -83.5 85t-113.5 29
q-82 0 -157.5 -50t-121.5 -143q-44 -91 -44 -188l1 -36q11 -106 76 -165t155 -59zM330 122q-65 0 -98.5 43t-33.5 108q0 82 48.5 150t123.5 68q29 0 47 -18t18 -55q0 -6 -6 -6q-7 0 -7 6q0 22 -10.5 33.5t-24.5 11.5q-42 0 -91 -80t-49 -152q0 -94 97 -94q54 0 139.5 68
t115.5 158q2 5 6 5q7 0 7 -7q0 -16 -24.5 -54.5t-62 -80t-91.5 -73t-104 -31.5z" />
    <glyph glyph-name="ordfeminine" unicode="&#xaa;" horiz-adv-x="358" 
d="M184 285q-49 0 -49 88q0 59 24 173q-42 -74 -65 -95q-21 -19 -41 -19q-31 0 -46.5 24t-15.5 62q0 57 30 106.5t75 49.5q41 0 83 -43q9 33 35 33q19 0 19 -8q0 -4 -15.5 -70t-31 -143t-15.5 -106q0 -35 20 -35q36 0 78.5 67.5t70.5 135.5l28 68h1q4 -2 4 -5
q0 -9 -27 -75.5t-74 -137t-88 -70.5zM68 447q5 0 11 3.5t12.5 10.5t13 15t13.5 18.5t12.5 19.5t12 21t10 18.5t8.5 16t6 11.5q5 25 9 39q-7 10 -25 21.5t-33 11.5q-33 0 -53.5 -48t-20.5 -100q0 -58 23 -58h1z" />
    <glyph glyph-name="guillemotleft" unicode="&#xab;" horiz-adv-x="435" 
d="M254 189q-3 0 -9.5 4t-22 15.5t-34 25.5t-55 41t-75.5 55q-8 6 -8 15t8 15q38 28 74 54.5t55 40.5t34.5 26t22.5 16t10 4t3 -5q0 -3 -1 -4q-50 -46 -143 -134q-6 -4 -6 -13q0 -7 6 -13q144 -134 144 -137v-1q0 -5 -3 -5zM383 189q-3 0 -9.5 4t-22 15.5t-34 25.5t-55 41
t-75.5 55q-8 6 -8 15t8 15q38 28 74 54.5t55 40.5t34.5 26t22.5 16t10 4t3 -5q0 -3 -1 -4q-50 -46 -143 -134q-6 -4 -6 -13q0 -7 6 -13q144 -134 144 -137v-1q0 -5 -3 -5z" />
    <glyph glyph-name="logicalnot" unicode="&#xac;" horiz-adv-x="549" 
d="M499 156q-6 1 -7.5 9.5t-1.5 51.5l1 129q-201 -3 -293 -3l-148 1v26l145 1q115 0 300 -4q4 0 4 -45v-166z" />
    <glyph glyph-name="registered" unicode="&#xae;" horiz-adv-x="741" 
d="M324 -13q-79 0 -144 40.5t-102 121.5q-28 62 -28 125q0 95 55.5 181t141.5 136.5t175 50.5q131 0 213 -109q57 -74 57 -177q0 -27 -7 -69q-28 -132 -134 -216t-227 -84zM324 -8q69 0 136 36.5t116 107.5q74 109 74 235q0 83 -37 148q-31 56 -83.5 85t-114.5 29
q-81 0 -157 -50t-121 -143q-44 -90 -44 -185q0 -26 2 -39q10 -106 75 -165t154 -59zM476 101q-46 4 -78 26.5t-45 48t-30 57.5t-32 47q-11 -88 -18 -117q-1 -4 -6 -4q-7 0 -7 5l1 2q14 55 23 120l-3 2q-4 0 -4 5q0 6 6 6h3q5 38 13 69q23 82 61.5 122t77.5 40q30 0 51 -22
t21 -55q0 -65 -76 -126q-57 -47 -108 -51q20 -18 37 -49.5t27 -55t30 -41.5t48 -18h8q6 0 6 -5q0 -6 -6 -6zM304 295q43 0 110 66t67 101v3q-1 24 -15 38t-36 14q-42 0 -82 -54.5t-55 -165.5z" />
    <glyph glyph-name="macron" unicode="&#xaf;" horiz-adv-x="479" 
d="M420 659h-360q-10 0 -10 10t10 10h360q10 0 10 -10t-10 -10z" />
    <glyph glyph-name="degree" unicode="&#xb0;" horiz-adv-x="225" 
d="M113 650q16 0 28 12q13 10 13 31q0 15 -11 28q-12 13 -30 13q-17 0 -30 -11q-13 -12 -13 -30t12 -30q10 -13 31 -13zM113 630q-26 0 -44 19q-19 18 -19 44q0 28 19 44q18 18 44 18q22 0 42 -16q20 -15 20 -46q0 -28 -18 -46q-17 -17 -44 -17z" />
    <glyph glyph-name="plusminus" unicode="&#xb1;" horiz-adv-x="326" 
d="M163 191q-10 0 -10 10q0 59 1 93h-94q-10 0 -10 10t10 10h94q0 61 -1 93q0 10 10 10t10 -10v-93h93q10 0 10 -10t-10 -10h-93v-93q0 -10 -10 -10zM267 158h-207q-10 0 -10 10t10 10h207q10 0 10 -10t-10 -10z" />
    <glyph glyph-name="twosuperior" unicode="&#xb2;" horiz-adv-x="315" 
d="M190 290q-16 1 -45.5 12.5t-44.5 11.5q-24 0 -44 -19q-1 -1 -3 -1q-3 0 -3 3l1 2q9 47 31.5 85.5t48 64t50.5 48.5t41 50t16 58q0 24 -18 42t-41 18q-20 0 -36.5 -13t-25 -26t-9.5 -13q-3 0 -3 3q0 4 9.5 17t30.5 26.5t44 13.5q30 0 51.5 -22t21.5 -56q0 -36 -17 -62
t-43.5 -44t-54.5 -38.5t-53 -58t-36 -88.5q32 20 58 20q17 0 42.5 -11.5t39.5 -11.5q16 0 35 10q7 4 12.5 8.5t8 7.5t5 5.5t3.5 2.5q3 0 3 -3q0 -2 -9 -11.5t-28 -20t-38 -10.5z" />
    <glyph glyph-name="acute" unicode="&#xb4;" horiz-adv-x="322" 
d="M58 548q-4 0 -7 3l-1 4q0 4 3 7q70 55 151 126q14 12 30 12q22 0 36 -18l2 -5q0 -5 -5 -8q-94 -60 -206 -120z" />
    <glyph glyph-name="mu" unicode="&#xb5;" horiz-adv-x="414" 
d="M21 109q-6 0 -11 4l4 7h1q11 0 22.5 28.5t23.5 84t22 111.5l25 140t26 140q5 20 24 20q11 0 11 -10v-1q-2 -62 -14 -134q10 -132 36 -222t55 -90q32 0 55 126q10 51 17 114q4 24 23.5 39t39.5 15q24 0 24 -19v-1q-8 -110 -52 -204t-92 -94q-37 0 -67.5 67.5t-46.5 214.5
q-7 -39 -17.5 -83.5t-28 -108t-39 -104t-41.5 -40.5z" />
    <glyph glyph-name="paragraph" unicode="&#xb6;" horiz-adv-x="383" 
d="M200 108h-3q-3 0 -3 6q0 9 5 48t24 181.5t41 323.5h-85l-71 -552q-2 -7 -9 -7q-5 0 -5 5l45 351q-39 2 -64 29t-25 66l1 13q5 45 41 77.5t81 32.5h155q6 0 6 -6q0 -9 -8 -9h-49q-34 -253 -59 -468q-8 -67 -10 -79t-8 -12z" />
    <glyph glyph-name="periodcentered" unicode="&#xb7;" horiz-adv-x="158" 
d="M80 368q-12 0 -21 8t-9 20q5 30 28 30q11 0 20 -8t9 -20q-4 -30 -27 -30z" />
    <glyph glyph-name="periodcentered" unicode="&#x2219;" horiz-adv-x="158" 
d="M80 368q-12 0 -21 8t-9 20q5 30 28 30q11 0 20 -8t9 -20q-4 -30 -27 -30z" />
    <glyph glyph-name="cedilla" unicode="&#xb8;" horiz-adv-x="251" 
d="M121 -269q-31 0 -68 23q-3 3 -3 7q0 7 6 7l3 -1q21 -17 40 -17q26 0 42.5 25t16.5 54q0 46 -38 52q-25 5 -33 9q-8 5 -8 12v3l16 71q3 4 7 4l18 -9q13 -7 13 -22l-1 -6q-8 -38 -10 -47q69 -13 77 -65l1 -13q0 -35 -22 -61t-57 -26z" />
    <glyph glyph-name="onesuperior" unicode="&#xb9;" horiz-adv-x="122" 
d="M59 306l-3 1q-19 2 -19 22l37 325q-7 -5 -27.5 -19.5t-31.5 -22.5l-2 -1q-3 0 -3 4q0 1 20 16t43.5 29.5t31.5 14.5q7 -1 7 -7v-1q-17 -129 -31 -266q-6 -64 -9.5 -79.5t-12.5 -15.5z" />
    <glyph glyph-name="ordmasculine" unicode="&#xba;" horiz-adv-x="309" 
d="M132 293q-32 0 -57 36.5t-25 112.5q0 95 41.5 163.5t89.5 68.5q42 0 62 -59q16 -44 16 -95q0 -86 -39 -156.5t-88 -70.5zM132 301q33 0 56 49.5t31.5 107.5t8.5 111q0 32 -2 41q-5 26 -18 41.5t-30 15.5q-25 0 -45 -31.5t-31 -77t-16.5 -88t-5.5 -73.5q0 -30 6 -51
t15 -29.5t16.5 -12t14.5 -3.5z" />
    <glyph glyph-name="guillemotright" unicode="&#xbb;" horiz-adv-x="436" 
d="M182 189q-3 0 -3 5v1q0 3 144 137q6 6 6 13q0 9 -6 13q-93 88 -143 134q-1 1 -1 4q0 5 3 5t10 -4.5t22.5 -16t34.5 -25.5t54.5 -40.5t74.5 -54.5q8 -6 8 -15t-8 -15q-39 -28 -75.5 -55t-55.5 -41t-34.5 -25.5t-21.5 -15.5t-9 -4zM53 189q-3 0 -3 5v1q0 3 144 137
q6 6 6 13q0 9 -6 13q-93 88 -143 134q-1 1 -1 4q0 5 3 5t10 -4.5t22.5 -16t34.5 -25.5t54.5 -40.5t74.5 -54.5q8 -6 8 -15t-8 -15q-39 -28 -75.5 -55t-55.5 -41t-34.5 -25.5t-21.5 -15.5t-9 -4z" />
    <glyph glyph-name="onequarter" unicode="&#xbc;" horiz-adv-x="665" 
d="M168 271l-3 1q-20 2 -20 22l38 325q-7 -5 -19 -13t-22 -15t-19 -14l-1 -1q-4 0 -4 4q0 1 20 16t44 29.5t32 14.5q6 -1 6 -7v-1q-17 -132 -31 -270q-6 -61 -9.5 -76t-11.5 -15zM493 59q-8 0 -15 6.5t-7 17.5q0 1 4 25.5t8 48t5 23.5l-32 1q-29 0 -49 -1.5t-29 -2.5t-10 -1
q-6 0 -6 7q0 6 21 33q158 211 175 211q6 -2 6 -7v-1q0 -7 -61 -351q-1 -9 -10 -9zM381 203q54 4 83 4l29 -1l31 182q-37 -46 -81 -104.5t-62 -80.5zM110 17q-10 0 -10 10l2 5l446 638q3 5 9 5q9 -3 9 -10q0 -2 -2 -6l-446 -638q-3 -4 -8 -4z" />
    <glyph glyph-name="onehalf" unicode="&#xbd;" horiz-adv-x="709" 
d="M168 271l-3 1q-20 2 -20 22l38 325q-7 -5 -19 -13t-22 -15t-19 -14l-1 -1q-4 0 -4 4q0 1 20 16t44 29.5t32 14.5q6 -1 6 -7v-1q-17 -132 -31 -270q-6 -61 -9.5 -76t-11.5 -15zM110 17q-10 0 -10 10l2 5l446 638q3 5 9 5q9 -3 9 -10q0 -2 -2 -6l-446 -638q-3 -4 -8 -4z
M530 62q-16 1 -48.5 12t-48.5 11q-26 0 -47 -18q-1 -1 -3 -1q-3 0 -3 3v2q9 45 33.5 81.5t52 60.5t54 46.5t44 48t17.5 55.5q0 22 -19 39.5t-44 17.5q-21 0 -39 -12t-27.5 -24.5t-10.5 -12.5q-3 0 -3 3q0 4 10.5 16t32.5 25t47 13q32 0 55.5 -21t23.5 -53q0 -34 -18.5 -59
t-47 -42.5t-58 -37t-56.5 -55.5t-39 -85q33 20 62 20q18 0 45 -11.5t43 -11.5q17 0 37 10q9 5 16 10.5t10.5 9t4.5 3.5q3 0 3 -3q0 -2 -10 -11t-29.5 -19t-39.5 -10z" />
    <glyph glyph-name="threequarters" unicode="&#xbe;" horiz-adv-x="675" 
d="M391 203q36 4 82 4l29 -1q2 14 3 20q0 2 0.5 5t1.5 5t1 6q1 3 1 5t1.5 9t2.5 13q5 25 8 44q5 29 12 75q-66 -85 -93 -121q-22 -30 -49 -64zM502 59q-7 0 -14 7q-7 6 -7 17q0 2 3 17q0 2 5 33q3 20 6 32q1 13 3 15l-32 1q-44 0 -56 -1q-18 -1 -26 -3q-3 -1 -7 -1t-4 3
q-1 1 -1 4q0 9 13 23q4 6 7 10q5 6 26.5 34t35.5 47q38 49 72 90q33 40 41 40q3 0 5 -2t2 -5v-2v-3q-1 -1 -1.5 -3.5t-0.5 -3.5q-1 -2 -1.5 -6t-0.5 -6q-1 -5 -3 -19q0 -2 -1.5 -11t-2.5 -14l-6 -34q0 -1 -8 -45q-5 -28 -9 -55q-7 -37 -12 -68q-6 -31 -15 -82q-3 -9 -11 -9z
M180 296q-31 0 -56 23q-24 23 -24 50l1 10q0 1 1 2h1h3q1 -1 1 -2t-1 -2t-1 -8q0 -25 21 -44q21 -21 45 -21q23 0 45 21t22 59q0 27 -11 47q-13 21 -25 33q-11 11 -21 17l-3 3q0 1 1 2q2 0 3 1q4 1 21 13q26 20 36 38q10 17 10 34q0 24 -18 41q-19 15 -41 15q-14 0 -28 -9
q-15 -12 -19 -31q-2 -2 -3 -2q-3 0 -3 4q0 7 7 18q6 11 20 20t35 9q28 0 48 -17t20 -45t-20 -54q-21 -26 -52 -36q31 -10 53 -37q21 -27 21 -59q0 -36 -31 -68q-28 -25 -58 -25zM119 17q-4 0 -7 3t-3 7l2 5l446 638q5 5 9 5q3 -1 7 -3q2 -2 2 -7q0 -2 -2 -6l-446 -638
q-3 -4 -8 -4z" />
    <glyph glyph-name="questiondown" unicode="&#xbf;" horiz-adv-x="440" 
d="M349 641l12 -1q29 -10 29 -40q0 -4 -2 -12q-10 -29 -40 -29q-8 0 -12 2q-29 10 -29 40l2 11q10 29 40 29zM341 525q6 0 6 -5v-15q0 -74 -21.5 -130t-54 -91.5t-66.5 -66.5t-63.5 -72.5t-39.5 -91.5q-2 -7 -2 -20q0 -47 38 -80.5t91 -33.5q38 0 77 21q36 20 53 56l4 3
l2 -1q2 0 2 -4q0 -10 -16 -29t-41 -33q-45 -24 -93 -24q-68 0 -117.5 40.5t-49.5 104.5q0 82 85 168q15 15 49.5 44t55 49.5t46 63t40.5 97.5l11 46q0 4 4 4z" />
    <glyph glyph-name="Agrave" unicode="&#xc0;" horiz-adv-x="843" 
d="M648 -63h-1q-5 0 -11 1.5t-17 9t-19 21t-14 42t-6 66.5q0 116 52 307q-30 -3 -56 -3q-61 0 -129 16q-51 -111 -94.5 -173t-87.5 -62q-22 0 -42 18.5t-29 34.5t-9 19q0 5 5 5q2 0 11.5 -17t26 -34t37.5 -17q68 0 172 229q-19 4 -74.5 19.5t-96 23t-76.5 7.5
q-45 0 -78 -11.5t-49 -29t-26.5 -37.5t-13.5 -37.5t-5.5 -29t-6.5 -11.5t-4 5q0 9 1.5 22.5t12 40t28 46.5t54.5 36t87 16q37 0 78.5 -8t97 -23t75.5 -20q11 23 30.5 68t30.5 69t29 60t31 56t29.5 41t32.5 30t33 9q70 0 70 -115q0 -89 -54.5 -321t-54.5 -295q0 -64 35 -64
q31 0 77.5 57t83 128.5t48.5 121.5q2 3 4 3q6 0 6 -5q0 -10 -20.5 -58.5t-51.5 -106.5t-73.5 -104t-78.5 -46zM577 391q27 0 58 3q52 164 52 263q0 73 -37 73q-13 0 -27.5 -10t-30 -32t-28.5 -43t-30.5 -57t-28 -59t-28.5 -64.5t-26 -58.5q73 -15 126 -15zM775 771l-3 1
q-112 60 -206 120q-5 3 -5 8l2 5q13 18 35 18q18 0 31 -12q81 -71 151 -126q3 -3 3 -7l-1 -4q-3 -3 -7 -3z" />
    <glyph glyph-name="Aacute" unicode="&#xc1;" horiz-adv-x="843" 
d="M648 -63h-1q-5 0 -11 1.5t-17 9t-19 21t-14 42t-6 66.5q0 116 52 307q-30 -3 -56 -3q-61 0 -129 16q-51 -111 -94.5 -173t-87.5 -62q-22 0 -42 18.5t-29 34.5t-9 19q0 5 5 5q2 0 11.5 -17t26 -34t37.5 -17q68 0 172 229q-19 4 -74.5 19.5t-96 23t-76.5 7.5
q-45 0 -78 -11.5t-49 -29t-26.5 -37.5t-13.5 -37.5t-5.5 -29t-6.5 -11.5t-4 5q0 9 1.5 22.5t12 40t28 46.5t54.5 36t87 16q37 0 78.5 -8t97 -23t75.5 -20q11 23 30.5 68t30.5 69t29 60t31 56t29.5 41t32.5 30t33 9q70 0 70 -115q0 -89 -54.5 -321t-54.5 -295q0 -64 35 -64
q31 0 77.5 57t83 128.5t48.5 121.5q2 3 4 3q6 0 6 -5q0 -10 -20.5 -58.5t-51.5 -106.5t-73.5 -104t-78.5 -46zM577 391q27 0 58 3q52 164 52 263q0 73 -37 73q-13 0 -27.5 -10t-30 -32t-28.5 -43t-30.5 -57t-28 -59t-28.5 -64.5t-26 -58.5q73 -15 126 -15zM569 771
q-4 0 -7 3l-1 4q0 4 3 7q70 55 151 126q13 12 30 12q23 0 36 -18l2 -5q0 -5 -5 -8q-94 -60 -206 -120z" />
    <glyph glyph-name="Acircumflex" unicode="&#xc2;" horiz-adv-x="843" 
d="M648 -63h-1q-5 0 -11 1.5t-17 9t-19 21t-14 42t-6 66.5q0 116 52 307q-30 -3 -56 -3q-61 0 -129 16q-51 -111 -94.5 -173t-87.5 -62q-22 0 -42 18.5t-29 34.5t-9 19q0 5 5 5q2 0 11.5 -17t26 -34t37.5 -17q68 0 172 229q-19 4 -74.5 19.5t-96 23t-76.5 7.5
q-45 0 -78 -11.5t-49 -29t-26.5 -37.5t-13.5 -37.5t-5.5 -29t-6.5 -11.5t-4 5q0 9 1.5 22.5t12 40t28 46.5t54.5 36t87 16q37 0 78.5 -8t97 -23t75.5 -20q11 23 30.5 68t30.5 69t29 60t31 56t29.5 41t32.5 30t33 9q70 0 70 -115q0 -89 -54.5 -321t-54.5 -295q0 -64 35 -64
q31 0 77.5 57t83 128.5t48.5 121.5q2 3 4 3q6 0 6 -5q0 -10 -20.5 -58.5t-51.5 -106.5t-73.5 -104t-78.5 -46zM577 391q27 0 58 3q52 164 52 263q0 73 -37 73q-13 0 -27.5 -10t-30 -32t-28.5 -43t-30.5 -57t-28 -59t-28.5 -64.5t-26 -58.5q73 -15 126 -15zM782 731h-1
q-5 7 -82 99q-7 7 -17 9h-4q-8 0 -15 -4q-105 -67 -108 -67l-2 2q1 4 58.5 54t65.5 56q6 4 11 4h3q8 -2 11 -8q84 -140 84 -142q-2 -3 -4 -3z" />
    <glyph glyph-name="Atilde" unicode="&#xc3;" horiz-adv-x="843" 
d="M648 -63h-1q-5 0 -11 1.5t-17 9t-19 21t-14 42t-6 66.5q0 116 52 307q-30 -3 -56 -3q-61 0 -129 16q-51 -111 -94.5 -173t-87.5 -62q-22 0 -42 18.5t-29 34.5t-9 19q0 5 5 5q2 0 11.5 -17t26 -34t37.5 -17q68 0 172 229q-19 4 -74.5 19.5t-96 23t-76.5 7.5
q-45 0 -78 -11.5t-49 -29t-26.5 -37.5t-13.5 -37.5t-5.5 -29t-6.5 -11.5t-4 5q0 9 1.5 22.5t12 40t28 46.5t54.5 36t87 16q37 0 78.5 -8t97 -23t75.5 -20q11 23 30.5 68t30.5 69t29 60t31 56t29.5 41t32.5 30t33 9q70 0 70 -115q0 -89 -54.5 -321t-54.5 -295q0 -64 35 -64
q31 0 77.5 57t83 128.5t48.5 121.5q2 3 4 3q6 0 6 -5q0 -10 -20.5 -58.5t-51.5 -106.5t-73.5 -104t-78.5 -46zM577 391q27 0 58 3q52 164 52 263q0 73 -37 73q-13 0 -27.5 -10t-30 -32t-28.5 -43t-30.5 -57t-28 -59t-28.5 -64.5t-26 -58.5q73 -15 126 -15zM760 794
q-33 0 -99 21t-91 21t-40 -12l-3 -1q-2 0 -2 3q0 5 5.5 11.5t21 12.5t37.5 6q24 0 55 -7q17 -4 47 -13.5t51 -14.5t38 -5q26 0 46 14l2 1l4 -2v-2q0 -5 -11 -14t-24 -13q-18 -6 -37 -6z" />
    <glyph glyph-name="Adieresis" unicode="&#xc4;" horiz-adv-x="843" 
d="M648 -63h-1q-5 0 -11 1.5t-17 9t-19 21t-14 42t-6 66.5q0 116 52 307q-30 -3 -56 -3q-61 0 -129 16q-51 -111 -94.5 -173t-87.5 -62q-22 0 -42 18.5t-29 34.5t-9 19q0 5 5 5q2 0 11.5 -17t26 -34t37.5 -17q68 0 172 229q-19 4 -74.5 19.5t-96 23t-76.5 7.5
q-45 0 -78 -11.5t-49 -29t-26.5 -37.5t-13.5 -37.5t-5.5 -29t-6.5 -11.5t-4 5q0 9 1.5 22.5t12 40t28 46.5t54.5 36t87 16q37 0 78.5 -8t97 -23t75.5 -20q11 23 30.5 68t30.5 69t29 60t31 56t29.5 41t32.5 30t33 9q70 0 70 -115q0 -89 -54.5 -321t-54.5 -295q0 -64 35 -64
q31 0 77.5 57t83 128.5t48.5 121.5q2 3 4 3q6 0 6 -5q0 -10 -20.5 -58.5t-51.5 -106.5t-73.5 -104t-78.5 -46zM577 391q27 0 58 3q52 164 52 263q0 73 -37 73q-13 0 -27.5 -10t-30 -32t-28.5 -43t-30.5 -57t-28 -59t-28.5 -64.5t-26 -58.5q73 -15 126 -15zM702 832
q0 11 7.5 20t19.5 9l11 -1q19 -7 19 -27q0 -11 -7.5 -20t-19.5 -9l-10 2q-20 6 -20 26zM591 832q0 11 7.5 20t19.5 9l11 -1q19 -7 19 -27q0 -11 -7.5 -20t-19.5 -9l-10 2q-20 6 -20 26z" />
    <glyph glyph-name="Aring" unicode="&#xc5;" horiz-adv-x="836" 
d="M570 391q26 0 58 3l13 45q9 31 26 107q13 59 13 111q0 31 -8 53q-9 20 -29 20q-28 0 -58 -41q-31 -42 -59 -102q-28 -58 -57 -125q-2 -4 -25 -56q20 -5 57 -10q33 -5 69 -5zM699 788q16 0 28 12q13 10 13 31q0 15 -11 28q-12 13 -30 13q-17 0 -30 -11q-13 -12 -13 -30
t12 -30q10 -13 31 -13zM641 -63h-1q-4 0 -14 3q-12 3 -23 16q-12 14 -21 42t-9 79q0 50 12 125q10 68 40 182q-30 -3 -56 -3q-37 0 -72 5q-26 4 -57 11q-31 -70 -58 -116q-31 -55 -60 -86q-32 -33 -64 -33q-19 0 -33 11q-12 9 -25 25q-12 15 -16 25q-2 3 -4 7l-2 4q0 2 2 4
q1 1 3 1q4 0 10 -14q8 -15 25 -35q15 -19 40 -19q30 0 60 34q32 37 58 85q31 57 54 110q-10 2 -66 17q-33 10 -91 23q-44 10 -90 10q-72 0 -107 -24q-35 -26 -48 -56t-16 -54q-1 -9 -3 -16q-1 -6 -5 -6l-2 2q-2 2 -2 3q0 8 4 31q4 25 21 55q16 30 55 53q37 22 103 22
q47 0 91 -10q31 -7 91 -23q36 -11 69 -18q11 23 31 69q29 67 60 130q30 61 60 97q31 37 65 37q39 0 55 -31q15 -31 15 -84q0 -68 -18 -158q-26 -122 -41 -184q-25 -104 -35 -154q-15 -72 -15 -120q0 -29 8 -47q8 -17 27 -17q34 0 79 57q43 55 81 128q35 68 49 122q1 3 4 3
q2 0 3 -1l2 -2q1 -1 1 -2q0 -6 -20 -57q-18 -46 -52 -109q-35 -61 -73 -104q-40 -45 -79 -45zM699 768q-26 0 -44 19q-19 18 -19 44q0 28 19 44q18 18 44 18q22 0 42 -16q20 -15 20 -46q0 -28 -18 -46q-17 -17 -44 -17z" />
    <glyph glyph-name="AE" unicode="&#xc6;" horiz-adv-x="1193" 
d="M792 -56q-104 0 -157 56t-53 141q0 42 12 82q9 50 24 110q-39 18 -62 52q-49 2 -110 16q-50 -111 -93.5 -173.5t-88.5 -62.5q-22 0 -41.5 18.5t-28.5 35t-9 19.5q0 4 5 4q2 0 11.5 -17t26 -33.5t36.5 -16.5q69 0 173 228q-14 3 -74 19.5t-98 23.5t-75 7q-45 0 -78 -11.5
t-49 -28.5t-26.5 -37.5t-13.5 -37.5t-5.5 -28.5t-6.5 -11.5q-5 0 -5 4q0 10 1.5 23t12 39.5t28.5 46.5t55 36t87 16q37 0 77 -7.5t100 -24t74 -19.5q9 20 30 67.5t31 69.5t28.5 60t31 56.5t29.5 40t33 30.5t33 9q61 0 69 -85h11q9 0 29 -2q55 85 162 85q62 0 107.5 -30.5
t45.5 -77.5q0 -58 -68 -58q-22 0 -49.5 6t-53 14.5t-46.5 17t-36 15t-16 6.5q-16 -43 -16 -82q0 -34 12.5 -61t25 -42t12.5 -20q0 -3 -2 -5q-88 -34 -147 -122t-59 -176q0 -97 73 -143q45 -28 100 -28q64 0 123 35t85 84q-34 4 -54 29t-20 53q0 21 11 34t32 13q24 0 41 -19
t17 -51q0 -21 -9 -47h4q57 0 113 51.5t56 117.5q0 5 5 5t5 -5q0 -77 -63.5 -129.5t-124.5 -52.5h-1q-26 -54 -92 -92.5t-147 -38.5zM1012 588q58 0 58 48q0 38 -40.5 67t-90.5 29q-87 0 -123 -86q3 -1 27.5 -11t50.5 -20t60 -18.5t58 -8.5zM550 395q-21 36 -21 78
q0 61 42 112t116 69v7q0 72 -37 72q-13 0 -27.5 -9.5t-30.5 -32.5t-28.5 -42.5t-30.5 -57.5t-27.5 -58t-29 -64.5t-25.5 -58.5q50 -12 99 -15zM563 394q32 0 71 3q47 146 52 245q-69 -18 -107.5 -65t-38.5 -103q0 -42 23 -80zM620 344l12 43q-34 -2 -46 -2h-16
q20 -28 50 -41zM686 370q59 52 135 64q-38 20 -58.5 57.5t-20.5 81.5q0 41 18 75l-20 2l-14 -1l1 -19q0 -81 -41 -260zM1026 90q8 22 8 37q0 24 -14 39.5t-29 15.5q-16 0 -19 -15q-1 -3 -1 -11q0 -22 14 -42t41 -24z" />
    <glyph glyph-name="Ccedilla" unicode="&#xc7;" horiz-adv-x="579" 
d="M236 -269q-33 0 -68 24q-3 3 -3 7q0 6 6 6l4 -1q20 -17 40 -17q25 0 41.5 24.5t16.5 54.5q0 46 -38 52q-25 5 -33 9t-8 12q0 5 11 51q-107 28 -107 232q0 79 17.5 154t42 125.5t50 90t43 58t20.5 18.5q-36 9 -67 9q-39 0 -73 -13.5t-56 -32t-38 -37.5t-24 -33l-8 -13
q-5 0 -5 6q0 29 63.5 80.5t147.5 51.5q35 0 69 -10q70 60 154 60q49 0 82.5 -20t33.5 -48t-26 -48.5t-66 -20.5q-25 0 -47.5 7.5t-54 24t-44.5 22.5q-70 -73 -116.5 -212.5t-46.5 -260.5q0 -135 60 -171q19 -12 42 -12q38 0 86.5 31t91.5 75.5t80 89t61 75.5t25 31q5 0 5 -5
q0 -2 -21.5 -31.5t-59 -73.5t-81.5 -88t-95.5 -77.5t-94.5 -37.5q0 -2 -0.5 -5t-3.5 -15.5t-7 -32.5q68 -13 78 -64l1 -12q0 -36 -22 -62.5t-58 -26.5zM458 572q35 0 59 18t24 41q0 21 -25.5 37.5t-62.5 16.5q-72 0 -134 -61q12 -6 34.5 -17.5t35 -17.5t32 -11.5t37.5 -5.5z
" />
    <glyph glyph-name="Egrave" unicode="&#xc8;" horiz-adv-x="685" 
d="M261 -60q-104 0 -157 56t-53 141q0 101 67 189.5t172 104.5q-38 19 -58.5 56.5t-20.5 81.5q0 42 19 76l-21 1q-73 0 -136 -48.5t-63 -125.5q0 -41 21.5 -79.5t64.5 -54.5q3 -2 3 -5q0 -5 -5 -5q-2 0 -11 4t-23.5 15t-27.5 26.5t-22.5 41.5t-9.5 57q0 82 65 133.5
t145 51.5l26 -2q54 84 161 84q62 0 107.5 -30.5t45.5 -76.5q0 -58 -68 -58q-63 0 -201 59q-16 -43 -16 -82q0 -34 12.5 -61t25 -42t12.5 -20q0 -3 -2 -5q-88 -34 -147 -122.5t-59 -176.5q0 -104 83 -148q43 -23 92 -23q65 0 123.5 36t83.5 83q-34 5 -54 30t-20 53
q0 20 11 33t31 13q24 0 41 -18.5t17 -50.5q0 -22 -9 -47h4q57 0 114.5 51.5t64.5 122.5q0 5 5 5q6 0 6 -5q-7 -80 -72 -133.5t-125 -53.5h-3q-26 -55 -92 -93.5t-147 -38.5zM482 585q57 0 57 47q0 38 -40.5 67t-90.5 29q-87 0 -123 -85l39 -16q40 -16 83.5 -29t74.5 -13z
M495 86q8 22 8 37q0 25 -14 40.5t-29 15.5q-16 0 -19 -15l-1 -10q0 -21 14 -42t41 -26zM543 771l-3 1q-112 60 -206 120q-5 3 -5 8l2 5q13 18 35 18q18 0 31 -12q81 -71 151 -126q3 -3 3 -7l-1 -4q-3 -3 -7 -3z" />
    <glyph glyph-name="Eacute" unicode="&#xc9;" horiz-adv-x="685" 
d="M261 -60q-104 0 -157 56t-53 141q0 101 67 189.5t172 104.5q-38 19 -58.5 56.5t-20.5 81.5q0 42 19 76l-21 1q-73 0 -136 -48.5t-63 -125.5q0 -41 21.5 -79.5t64.5 -54.5q3 -2 3 -5q0 -5 -5 -5q-2 0 -11 4t-23.5 15t-27.5 26.5t-22.5 41.5t-9.5 57q0 82 65 133.5
t145 51.5l26 -2q54 84 161 84q62 0 107.5 -30.5t45.5 -76.5q0 -58 -68 -58q-63 0 -201 59q-16 -43 -16 -82q0 -34 12.5 -61t25 -42t12.5 -20q0 -3 -2 -5q-88 -34 -147 -122.5t-59 -176.5q0 -104 83 -148q43 -23 92 -23q65 0 123.5 36t83.5 83q-34 5 -54 30t-20 53
q0 20 11 33t31 13q24 0 41 -18.5t17 -50.5q0 -22 -9 -47h4q57 0 114.5 51.5t64.5 122.5q0 5 5 5q6 0 6 -5q-7 -80 -72 -133.5t-125 -53.5h-3q-26 -55 -92 -93.5t-147 -38.5zM482 585q57 0 57 47q0 38 -40.5 67t-90.5 29q-87 0 -123 -85l39 -16q40 -16 83.5 -29t74.5 -13z
M495 86q8 22 8 37q0 25 -14 40.5t-29 15.5q-16 0 -19 -15l-1 -10q0 -21 14 -42t41 -26zM337 771q-4 0 -7 3l-1 4q0 4 3 7q70 55 151 126q13 12 30 12q23 0 36 -18l2 -5q0 -5 -5 -8q-94 -60 -206 -120z" />
    <glyph glyph-name="Ecircumflex" unicode="&#xca;" horiz-adv-x="685" 
d="M261 -60q-104 0 -157 56t-53 141q0 101 67 189.5t172 104.5q-38 19 -58.5 56.5t-20.5 81.5q0 42 19 76l-21 1q-73 0 -136 -48.5t-63 -125.5q0 -41 21.5 -79.5t64.5 -54.5q3 -2 3 -5q0 -5 -5 -5q-2 0 -11 4t-23.5 15t-27.5 26.5t-22.5 41.5t-9.5 57q0 82 65 133.5
t145 51.5l26 -2q54 84 161 84q62 0 107.5 -30.5t45.5 -76.5q0 -58 -68 -58q-63 0 -201 59q-16 -43 -16 -82q0 -34 12.5 -61t25 -42t12.5 -20q0 -3 -2 -5q-88 -34 -147 -122.5t-59 -176.5q0 -104 83 -148q43 -23 92 -23q65 0 123.5 36t83.5 83q-34 5 -54 30t-20 53
q0 20 11 33t31 13q24 0 41 -18.5t17 -50.5q0 -22 -9 -47h4q57 0 114.5 51.5t64.5 122.5q0 5 5 5q6 0 6 -5q-7 -80 -72 -133.5t-125 -53.5h-3q-26 -55 -92 -93.5t-147 -38.5zM482 585q57 0 57 47q0 38 -40.5 67t-90.5 29q-87 0 -123 -85l39 -16q40 -16 83.5 -29t74.5 -13z
M495 86q8 22 8 37q0 25 -14 40.5t-29 15.5q-16 0 -19 -15l-1 -10q0 -21 14 -42t41 -26zM539 760h-1q-5 7 -82 99q-7 7 -17 9h-4q-8 0 -15 -4q-105 -67 -108 -67l-2 2q1 4 58.5 54t65.5 56q6 4 11 4h3q8 -2 11 -8q84 -140 84 -142q-1 -3 -4 -3z" />
    <glyph glyph-name="Edieresis" unicode="&#xcb;" horiz-adv-x="685" 
d="M261 -60q-104 0 -157 56t-53 141q0 101 67 189.5t172 104.5q-38 19 -58.5 56.5t-20.5 81.5q0 42 19 76l-21 1q-73 0 -136 -48.5t-63 -125.5q0 -41 21.5 -79.5t64.5 -54.5q3 -2 3 -5q0 -5 -5 -5q-2 0 -11 4t-23.5 15t-27.5 26.5t-22.5 41.5t-9.5 57q0 82 65 133.5
t145 51.5l26 -2q54 84 161 84q62 0 107.5 -30.5t45.5 -76.5q0 -58 -68 -58q-63 0 -201 59q-16 -43 -16 -82q0 -34 12.5 -61t25 -42t12.5 -20q0 -3 -2 -5q-88 -34 -147 -122.5t-59 -176.5q0 -104 83 -148q43 -23 92 -23q65 0 123.5 36t83.5 83q-34 5 -54 30t-20 53
q0 20 11 33t31 13q24 0 41 -18.5t17 -50.5q0 -22 -9 -47h4q57 0 114.5 51.5t64.5 122.5q0 5 5 5q6 0 6 -5q-7 -80 -72 -133.5t-125 -53.5h-3q-26 -55 -92 -93.5t-147 -38.5zM482 585q57 0 57 47q0 38 -40.5 67t-90.5 29q-87 0 -123 -85l39 -16q40 -16 83.5 -29t74.5 -13z
M495 86q8 22 8 37q0 25 -14 40.5t-29 15.5q-16 0 -19 -15l-1 -10q0 -21 14 -42t41 -26zM413 832q0 11 7.5 20t19.5 9l11 -1q19 -7 19 -27q0 -11 -7.5 -20t-19.5 -9l-10 2q-20 6 -20 26zM302 832q0 11 7.5 20t19.5 9l11 -1q19 -7 19 -27q0 -11 -7.5 -20t-19.5 -9l-10 2
q-20 6 -20 26z" />
    <glyph glyph-name="Igrave" unicode="&#xcc;" horiz-adv-x="424" 
d="M89 -77q-6 0 -6 6q0 3 3 5q42 30 70.5 117.5t42 182.5t35.5 212t49 184q-132 -44 -202.5 -113t-70.5 -188q0 -25 3.5 -52.5t8.5 -48.5t10.5 -38.5t9 -28t3.5 -11.5q0 -4 -6 -4q-4 0 -13.5 28.5t-17.5 73.5t-8 81q0 45 12 84.5t28.5 67.5t44.5 53.5t50 40.5t56 30t51 21.5
t45 15.5q22 49 46.5 71t46.5 22q15 0 24 -8.5t9 -20.5q0 -36 -86 -61q-9 -29 -24 -120t-33 -187.5t-42 -193.5t-60 -159t-79 -62zM331 656q73 26 73 50q0 16 -17 16q-13 0 -28.5 -16t-27.5 -50zM502 771l-3 1q-112 60 -206 120q-5 3 -5 8l2 5q14 18 35 18q17 0 31 -12
q81 -71 151 -126q3 -3 3 -7l-1 -4q-3 -3 -7 -3z" />
    <glyph glyph-name="Iacute" unicode="&#xcd;" horiz-adv-x="415" 
d="M287 771q-4 0 -7 3l-1 4q0 4 3 7q70 55 151 126q14 12 30 12q22 0 36 -18l2 -5q0 -5 -5 -8q-94 -60 -206 -120zM89 -77q-6 0 -6 6q0 3 3 5q42 30 70.5 117.5t42 182.5t35.5 212t49 184q-132 -44 -202.5 -113t-70.5 -188q0 -25 3.5 -52.5t8.5 -48.5t10.5 -38.5t9 -28
t3.5 -11.5q0 -4 -6 -4q-4 0 -13.5 28.5t-17.5 73.5t-8 81q0 45 12 84.5t28.5 67.5t44.5 53.5t50 40.5t56 30t51 21.5t45 15.5q22 49 46.5 71t46.5 22q15 0 24 -8.5t9 -20.5q0 -36 -86 -61q-9 -29 -24 -120t-33 -187.5t-42 -193.5t-60 -159t-79 -62zM331 656q73 26 73 50
q0 16 -17 16q-13 0 -28.5 -16t-27.5 -50z" />
    <glyph glyph-name="Icircumflex" unicode="&#xce;" horiz-adv-x="410" 
d="M89 -77q-6 0 -6 6q0 3 3 5q42 30 70.5 117.5t42 182.5t35.5 212t49 184q-132 -44 -202.5 -113t-70.5 -188q0 -25 3.5 -52.5t8.5 -48.5t10.5 -38.5t9 -28t3.5 -11.5q0 -4 -6 -4q-4 0 -13.5 28.5t-17.5 73.5t-8 81q0 45 12 84.5t28.5 67.5t44.5 53.5t50 40.5t56 30t51 21.5
t45 15.5q22 49 46.5 71t46.5 22q15 0 24 -8.5t9 -20.5q0 -36 -86 -61q-9 -29 -24 -120t-33 -187.5t-42 -193.5t-60 -159t-79 -62zM331 656q73 26 73 50q0 16 -17 16q-13 0 -28.5 -16t-27.5 -50zM492 730h-1q-5 7 -82 99q-7 7 -17 9h-4q-8 0 -15 -4q-105 -67 -108 -67l-2 2
q1 4 58.5 54t65.5 56q6 4 11 4h3q8 -2 11 -8q84 -140 84 -142q-2 -3 -4 -3z" />
    <glyph glyph-name="Idieresis" unicode="&#xcf;" horiz-adv-x="379" 
d="M408 832q0 11 7.5 20t19.5 9l11 -1q19 -7 19 -27q0 -11 -7.5 -20t-19.5 -9l-10 2q-20 6 -20 26zM297 832q0 11 7.5 20t19.5 9l11 -1q19 -7 19 -27q0 -11 -7.5 -20t-19.5 -9l-10 2q-20 6 -20 26zM89 -77q-6 0 -6 6q0 3 3 5q42 30 70.5 117.5t42 182.5t35.5 212t49 184
q-132 -44 -202.5 -113t-70.5 -188q0 -25 3.5 -52.5t8.5 -48.5t10.5 -38.5t9 -28t3.5 -11.5q0 -4 -6 -4q-4 0 -13.5 28.5t-17.5 73.5t-8 81q0 45 12 84.5t28.5 67.5t44.5 53.5t50 40.5t56 30t51 21.5t45 15.5q22 49 46.5 71t46.5 22q15 0 24 -8.5t9 -20.5q0 -36 -86 -61
q-9 -29 -24 -120t-33 -187.5t-42 -193.5t-60 -159t-79 -62zM331 656q73 26 73 50q0 16 -17 16q-13 0 -28.5 -16t-27.5 -50z" />
    <glyph glyph-name="Eth" unicode="&#xd0;" horiz-adv-x="814" 
d="M372 -34q-34 0 -54 16t-20 46q0 14 4.5 26t15 21.5t21 17t30 14t34 10.5t41 9t42.5 7.5t47 7t47 7.5q76 120 76 257q0 101 -40.5 171t-99.5 70q-48 0 -86.5 -25t-65.5 -71.5t-45 -96t-33 -115.5q18 -2 26 -2q24 0 40 11h1l3 -1v-1q0 -4 -6 -10.5t-21 -12t-34 -5.5l-13 1
q-9 -39 -19 -96t-17 -92t-16 -71t-20 -53t-25 -17q-33 0 -33 117q0 100 27 238q-26 8 -46 8t-34 -10l-2 -1q-2 0 -2 2q0 4 4.5 9.5t17.5 10.5t32 5q15 0 34 -3q32 155 56 227q-64 -1 -110.5 -13t-67.5 -29t-32.5 -34t-16 -28.5t-7.5 -11.5q-5 0 -5 4t3.5 14t18 29.5t38.5 36
t72 29t111 13.5l5 12q6 12 15.5 29t22.5 34.5t31.5 29.5t37.5 12q20 0 31 -9.5t11 -24.5q0 -26 -29.5 -52t-83.5 -37q-8 -25 -53 -243q6 -2 20.5 -6t21.5 -6q15 67 34.5 119t49.5 99.5t73.5 73.5t98.5 26q75 0 128.5 -74.5t53.5 -185.5q0 -121 -66 -239q51 11 89.5 25
t58 26.5t32 23.5t17.5 17.5t8 6.5q4 0 4 -3q0 -10 -20 -28t-72.5 -41.5t-123.5 -38.5q-56 -87 -130.5 -134.5t-135.5 -47.5zM287 607q49 12 75 34.5t26 43.5q0 24 -27 24q-41 0 -74 -102zM190 0q16 0 27 39t25.5 134t25.5 147q-15 2 -42 10q-45 -243 -45 -299q0 -31 9 -31z
M355 -23q44 0 107 44.5t111 115.5q-145 -23 -176 -32q-89 -25 -89 -77q0 -51 47 -51z" />
    <glyph glyph-name="Ntilde" unicode="&#xd1;" horiz-adv-x="728" 
d="M530 -47q-44 0 -44 58q0 51 35.5 159.5t71 221t35.5 171.5q0 63 -50 63q-33 0 -75 -33t-85.5 -95t-82 -170t-57.5 -240l-5 -36q-1 -9 -14 -9q-15 0 -29 12.5t-14 32.5q0 17 8 83t37 189.5t72 213.5q-20 -2 -64.5 -3.5t-73.5 -3t-67.5 -9t-62 -20t-40 -36t-16.5 -57.5
q0 -30 9 -62.5t9 -33.5q0 -4 -4 -4q-6 0 -14.5 37t-8.5 63q0 37 17.5 63t43 39t65.5 21t71.5 9.5t75.5 3t65 3.5q72 145 154 145q36 0 36 -29q0 -28 -35.5 -62t-93.5 -52q-17 -6 -43 -97t-46 -198q128 347 286 347q80 0 80 -97q0 -71 -41 -192.5t-82 -225t-41 -130.5
q0 -29 22 -29q34 0 84 74.5t86.5 149t37.5 74.5q6 0 6 -5q-3 -6 -7.5 -17t-19.5 -42.5t-30 -60.5t-36.5 -64t-41.5 -60t-42 -42.5t-41 -17.5zM397 595l9 3q8 4 18 8.5t23 11t25 15.5t22.5 18.5t17 22t6.5 24.5q0 20 -21 20t-49.5 -31.5t-50.5 -91.5zM672 805q-28 0 -84.5 17
t-77.5 17t-34 -9l-2 -1q-2 0 -2 2q0 4 4.5 9.5t17.5 10.5t32 5q20 0 47 -6q16 -4 40.5 -11t42.5 -11.5t33 -4.5q21 0 39 12h2l3 -1v-1q0 -5 -9 -12t-21 -11q-17 -5 -31 -5z" />
    <glyph glyph-name="Ograve" unicode="&#xd2;" horiz-adv-x="506" 
d="M418 771l-3 1q-112 60 -206 120q-5 3 -5 8l2 5q13 18 36 18q16 0 30 -12q81 -71 151 -126q3 -3 3 -7l-1 -4q-3 -3 -7 -3zM154 -4q-66 0 -108.5 67t-42.5 166q0 87 33 167q-36 39 -36 104q0 88 63 160t170 72q212 0 212 -240q0 -20 -4 -64q41 18 70.5 36t40 26.5t12.5 8.5
q4 0 4 -5q0 -2 -12.5 -12t-44 -28.5t-72.5 -36.5q-12 -100 -50.5 -194.5t-101.5 -160.5t-133 -66zM212 369q93 0 218 55q4 33 4 69q0 65 -16 112.5t-42 70t-50.5 32.5t-48.5 10q-69 0 -123 -38.5t-79 -90.5t-25 -102q0 -24 8 -45q61 112 163 165q9 5 22 5q34 0 45 -31v-2
q0 -3 -3 -5q-122 -59 -184 -179q47 -26 111 -26zM166 6q80 0 160.5 121t102.5 286q-148 -63 -244 -63l-20 1q-53 4 -79 13q-37 -85 -37 -172t38 -140q33 -46 79 -46z" />
    <glyph glyph-name="Oacute" unicode="&#xd3;" horiz-adv-x="506" 
d="M179 771q-4 0 -7 3l-1 4q0 4 3 7q70 55 151 126q14 12 31 12q21 0 35 -18l2 -5q0 -5 -5 -8q-94 -60 -206 -120zM154 -4q-66 0 -108.5 67t-42.5 166q0 87 33 167q-36 39 -36 104q0 88 63 160t170 72q212 0 212 -240q0 -20 -4 -64q41 18 70.5 36t40 26.5t12.5 8.5q4 0 4 -5
q0 -2 -12.5 -12t-44 -28.5t-72.5 -36.5q-12 -100 -50.5 -194.5t-101.5 -160.5t-133 -66zM212 369q93 0 218 55q4 33 4 69q0 65 -16 112.5t-42 70t-50.5 32.5t-48.5 10q-69 0 -123 -38.5t-79 -90.5t-25 -102q0 -24 8 -45q61 112 163 165q9 5 22 5q34 0 45 -31v-2q0 -3 -3 -5
q-122 -59 -184 -179q47 -26 111 -26zM166 6q80 0 160.5 121t102.5 286q-148 -63 -244 -63l-20 1q-53 4 -79 13q-37 -85 -37 -172t38 -140q33 -46 79 -46z" />
    <glyph glyph-name="Ocircumflex" unicode="&#xd4;" horiz-adv-x="506" 
d="M154 -4q-66 0 -108.5 67t-42.5 166q0 87 33 167q-36 39 -36 104q0 88 63 160t170 72q212 0 212 -240q0 -20 -4 -64q41 18 70.5 36t40 26.5t12.5 8.5q4 0 4 -5q0 -2 -12.5 -12t-44 -28.5t-72.5 -36.5q-12 -100 -50.5 -194.5t-101.5 -160.5t-133 -66zM212 369q93 0 218 55
q4 33 4 69q0 65 -16 112.5t-42 70t-50.5 32.5t-48.5 10q-69 0 -123 -38.5t-79 -90.5t-25 -102q0 -24 8 -45q61 112 163 165q9 5 22 5q34 0 45 -31v-2q0 -3 -3 -5q-122 -59 -184 -179q47 -26 111 -26zM166 6q80 0 160.5 121t102.5 286q-148 -63 -244 -63l-20 1q-53 4 -79 13
q-37 -85 -37 -172t38 -140q33 -46 79 -46zM390 755h-1q-5 7 -82 99q-7 7 -17 9h-4q-10 0 -15 -4q-105 -67 -108 -67l-2 2q1 4 58.5 54t65.5 56q6 4 11 4h3q8 -2 11 -8q84 -140 84 -142q-2 -3 -4 -3z" />
    <glyph glyph-name="Otilde" unicode="&#xd5;" horiz-adv-x="506" 
d="M154 -4q-66 0 -108.5 67t-42.5 166q0 87 33 167q-36 39 -36 104q0 88 63 160t170 72q212 0 212 -240q0 -20 -4 -64q41 18 70.5 36t40 26.5t12.5 8.5q4 0 4 -5q0 -2 -12.5 -12t-44 -28.5t-72.5 -36.5q-12 -100 -50.5 -194.5t-101.5 -160.5t-133 -66zM212 369q93 0 218 55
q4 33 4 69q0 65 -16 112.5t-42 70t-50.5 32.5t-48.5 10q-69 0 -123 -38.5t-79 -90.5t-25 -102q0 -24 8 -45q61 112 163 165q9 5 22 5q34 0 45 -31v-2q0 -3 -3 -5q-122 -59 -184 -179q47 -26 111 -26zM166 6q80 0 160.5 121t102.5 286q-148 -63 -244 -63l-20 1q-53 4 -79 13
q-37 -85 -37 -172t38 -140q33 -46 79 -46zM368 794q-33 0 -98.5 21t-91.5 21q-25 0 -40 -12l-3 -1q-2 0 -2 3q0 5 5.5 11.5t21 12.5t37.5 6q24 0 55 -7q17 -4 47 -13.5t51 -14.5t38 -5q28 0 46 14l2 1l4 -2l1 -2q0 -5 -11.5 -14t-24.5 -13q-18 -6 -37 -6z" />
    <glyph glyph-name="Odieresis" unicode="&#xd6;" horiz-adv-x="506" 
d="M315 832q0 11 8 20t20 9l10 -1q20 -7 20 -27q0 -11 -8 -20t-20 -9l-10 2q-20 6 -20 26zM204 832q0 11 8 20t20 9l10 -1q20 -7 20 -27q0 -11 -8 -20t-20 -9l-10 2q-20 6 -20 26zM154 -4q-66 0 -108.5 67t-42.5 166q0 87 33 167q-36 39 -36 104q0 88 63 160t170 72
q212 0 212 -240q0 -20 -4 -64q41 18 70.5 36t40 26.5t12.5 8.5q4 0 4 -5q0 -2 -12.5 -12t-44 -28.5t-72.5 -36.5q-12 -100 -50.5 -194.5t-101.5 -160.5t-133 -66zM212 369q93 0 218 55q4 33 4 69q0 65 -16 112.5t-42 70t-50.5 32.5t-48.5 10q-69 0 -123 -38.5t-79 -90.5
t-25 -102q0 -24 8 -45q61 112 163 165q9 5 22 5q34 0 45 -31v-2q0 -3 -3 -5q-122 -59 -184 -179q47 -26 111 -26zM166 6q80 0 160.5 121t102.5 286q-148 -63 -244 -63l-20 1q-53 4 -79 13q-37 -85 -37 -172t38 -140q33 -46 79 -46z" />
    <glyph glyph-name="multiply" unicode="&#xd7;" horiz-adv-x="496" 
d="M434 162l-6 2q-40 21 -180 158q-135 -134 -179 -158q-4 -2 -7 -2q-8 0 -11 7l-1 3q0 28 158 190q-158 156 -158 189l1 3q3 6 11 6q3 0 7 -2q48 -29 179 -156q131 127 179 156q4 2 7 2q6 0 11 -6l1 -3q0 -33 -158 -189q158 -160 158 -190l-1 -3q-3 -7 -11 -7z" />
    <glyph glyph-name="Oslash" unicode="&#xd8;" horiz-adv-x="735" 
d="M248 0q-45 0 -79.5 31.5t-53.5 86.5l-96 -97q-1 -1 -4 -1q-2 0 -3 1q-2 2 -2 4q0 1 2 3l100 100q-15 46 -15 104q0 86 33 168q-37 38 -37 104q0 55 25.5 106.5t80.5 88.5t128 37q185 0 208 -185l183 184l3 2l4 -2l1 -3l-1 -4l-189 -189q2 -30 2 -48q0 -29 -3 -59
q41 18 70.5 36t40 26.5t12.5 8.5q5 0 5 -5q0 -2 -12.5 -12t-44.5 -28.5t-73 -36.5q-12 -100 -50.5 -194.5t-101.5 -160.5t-133 -66zM306 373q30 0 55 4l165 166q-5 51 -23 88.5t-42 56t-46.5 26.5t-43.5 8q-69 0 -123 -38.5t-79 -90.5t-25 -102q0 -28 8 -45q61 112 163 165
q7 5 21 5q34 0 46 -31v-2q0 -2 -3 -5q-122 -59 -184 -179q45 -26 111 -26zM145 161l199 199q-31 -5 -68 -5h-17q-53 4 -79 13q-37 -80 -37 -171zM259 10q80 0 161 121.5t103 285.5q-90 -38 -162 -54l-215 -214q8 -53 35 -93q32 -46 78 -46zM378 380q69 14 146 48q4 31 4 65
l-1 37z" />
    <glyph glyph-name="Ugrave" unicode="&#xd9;" horiz-adv-x="756" 
d="M632 771l-3 1q-112 60 -206 120q-5 3 -5 8l2 5q14 18 35 18q17 0 31 -12q81 -71 151 -126q3 -3 3 -7l-1 -4q-3 -3 -7 -3zM527 -33q-51 0 -51 95q0 98 50 269q-8 -12 -21.5 -31.5t-53.5 -69.5t-77 -88t-84 -69.5t-83 -31.5q-85 0 -85 130q0 100 44.5 236.5t90.5 206.5
q-9 1 -25 1q-91 0 -154 -65t-69 -157q0 -5 -5 -5q-4 0 -4 5q0 15 6 40t22.5 59.5t41 63.5t66.5 49.5t94 20.5q9 0 33 -2q61 88 128 88q24 0 37 -10t13 -26q0 -25 -33.5 -46t-94.5 -21l-14 1q-3 0 -35 -83.5t-65.5 -201.5t-33.5 -188q0 -85 52 -85q24 0 52 15t61 46t57 56.5
t59 71t47.5 62t40.5 55.5q44 153 69 224t35.5 84.5t26.5 13.5q27 0 27 -15q0 -19 -45 -156t-90.5 -289t-45.5 -206q0 -16 5 -24q8 -13 22 -13q27 0 62.5 29.5t67 71t59 83.5t45.5 71.5t19 29.5q5 0 5 -5q0 -3 -17 -32.5t-46.5 -72.5t-63.5 -84.5t-72.5 -71t-69.5 -29.5z
M323 618q50 0 79 19.5t29 41.5q0 23 -31 23q-50 0 -96 -83z" />
    <glyph glyph-name="Uacute" unicode="&#xda;" horiz-adv-x="756" 
d="M470 771q-4 0 -7 3l-1 4q0 4 3 7q70 55 151 126q14 12 30 12q22 0 36 -18l2 -5q0 -5 -5 -8q-94 -60 -206 -120zM527 -33q-51 0 -51 95q0 98 50 269q-8 -12 -21.5 -31.5t-53.5 -69.5t-77 -88t-84 -69.5t-83 -31.5q-85 0 -85 130q0 100 44.5 236.5t90.5 206.5q-9 1 -25 1
q-91 0 -154 -65t-69 -157q0 -5 -5 -5q-4 0 -4 5q0 15 6 40t22.5 59.5t41 63.5t66.5 49.5t94 20.5q9 0 33 -2q61 88 128 88q24 0 37 -10t13 -26q0 -25 -33.5 -46t-94.5 -21l-14 1q-3 0 -35 -83.5t-65.5 -201.5t-33.5 -188q0 -85 52 -85q24 0 52 15t61 46t57 56.5t59 71
t47.5 62t40.5 55.5q44 153 69 224t35.5 84.5t26.5 13.5q27 0 27 -15q0 -19 -45 -156t-90.5 -289t-45.5 -206q0 -16 5 -24q8 -13 22 -13q27 0 62.5 29.5t67 71t59 83.5t45.5 71.5t19 29.5q5 0 5 -5q0 -3 -17 -32.5t-46.5 -72.5t-63.5 -84.5t-72.5 -71t-69.5 -29.5zM323 618
q50 0 79 19.5t29 41.5q0 23 -31 23q-50 0 -96 -83z" />
    <glyph glyph-name="Ucircumflex" unicode="&#xdb;" horiz-adv-x="756" 
d="M527 -33q-51 0 -51 95q0 98 50 269q-8 -12 -21.5 -31.5t-53.5 -69.5t-77 -88t-84 -69.5t-83 -31.5q-85 0 -85 130q0 100 44.5 236.5t90.5 206.5q-9 1 -25 1q-91 0 -154 -65t-69 -157q0 -5 -5 -5q-4 0 -4 5q0 15 6 40t22.5 59.5t41 63.5t66.5 49.5t94 20.5q9 0 33 -2
q61 88 128 88q24 0 37 -10t13 -26q0 -25 -33.5 -46t-94.5 -21l-14 1q-3 0 -35 -83.5t-65.5 -201.5t-33.5 -188q0 -85 52 -85q24 0 52 15t61 46t57 56.5t59 71t47.5 62t40.5 55.5q44 153 69 224t35.5 84.5t26.5 13.5q27 0 27 -15q0 -19 -45 -156t-90.5 -289t-45.5 -206
q0 -16 5 -24q8 -13 22 -13q27 0 62.5 29.5t67 71t59 83.5t45.5 71.5t19 29.5q5 0 5 -5q0 -3 -17 -32.5t-46.5 -72.5t-63.5 -84.5t-72.5 -71t-69.5 -29.5zM323 618q50 0 79 19.5t29 41.5q0 23 -31 23q-50 0 -96 -83zM655 745h-1q-5 7 -82 99q-7 7 -17 9h-4q-8 0 -15 -4
q-105 -67 -108 -67l-2 2q1 4 58.5 54t65.5 56q6 4 11 4h3q8 -2 11 -8q84 -140 84 -142q-1 -3 -4 -3z" />
    <glyph glyph-name="Udieresis" unicode="&#xdc;" horiz-adv-x="756" 
d="M527 -33q-51 0 -51 95q0 98 50 269q-8 -12 -21.5 -31.5t-53.5 -69.5t-77 -88t-84 -69.5t-83 -31.5q-85 0 -85 130q0 100 44.5 236.5t90.5 206.5q-9 1 -25 1q-91 0 -154 -65t-69 -157q0 -5 -5 -5q-4 0 -4 5q0 15 6 40t22.5 59.5t41 63.5t66.5 49.5t94 20.5q9 0 33 -2
q61 88 128 88q24 0 37 -10t13 -26q0 -25 -33.5 -46t-94.5 -21l-14 1q-3 0 -35 -83.5t-65.5 -201.5t-33.5 -188q0 -85 52 -85q24 0 52 15t61 46t57 56.5t59 71t47.5 62t40.5 55.5q44 153 69 224t35.5 84.5t26.5 13.5q27 0 27 -15q0 -19 -45 -156t-90.5 -289t-45.5 -206
q0 -16 5 -24q8 -13 22 -13q27 0 62.5 29.5t67 71t59 83.5t45.5 71.5t19 29.5q5 0 5 -5q0 -3 -17 -32.5t-46.5 -72.5t-63.5 -84.5t-72.5 -71t-69.5 -29.5zM323 618q50 0 79 19.5t29 41.5q0 23 -31 23q-50 0 -96 -83zM566 787q0 11 7.5 20t19.5 9l11 -1q19 -7 19 -27
q0 -11 -7.5 -20t-19.5 -9l-10 2q-20 6 -20 26zM455 787q0 11 7.5 20t19.5 9l11 -1q19 -7 19 -27q0 -11 -7.5 -20t-19.5 -9l-10 2q-20 6 -20 26z" />
    <glyph glyph-name="Yacute" unicode="&#xdd;" horiz-adv-x="770" 
d="M569 771q-4 0 -7 3l-1 4q0 4 3 7q70 55 151 126q13 12 31 12q22 0 35 -18l2 -5q0 -5 -5 -8q-94 -60 -206 -120zM191 -92q-95 0 -143 31.5t-48 79.5q0 58 62 104.5t158 46.5q28 0 59 -3t71 -9t59 -8q23 52 66.5 166t65.5 168q-58 -88 -100 -131t-74 -43q-54 0 -54 104
q0 58 17 125.5t37 100.5q-39 -6 -66 -11t-64 -15t-62 -23t-48 -31t-35 -43.5t-12 -57.5q0 -11 1.5 -20.5t3 -15t1.5 -6.5q0 -4 -5 -4q-3 0 -5 3q-6 24 -6 43q0 51 30.5 88t74.5 55t88 28t77.5 15.5t36.5 9.5q50 69 109 69q20 0 30 -8.5t10 -19.5q0 -19 -25.5 -28.5
t-78.5 -18.5q-26 -47 -47 -130t-21 -140t23 -57q29 0 82.5 67.5t104.5 148.5q36 80 56 116.5t30 44.5t26 8q27 0 27 -16l-234 -545h4q46 0 86.5 12.5t66 30t44.5 34.5t28 29l10 13q5 0 5 -5q0 -4 -9.5 -17.5t-30 -31.5t-48 -35t-68.5 -28.5t-86 -11.5h-7q-23 -47 -47.5 -84
t-45.5 -60.5t-44.5 -40t-40.5 -25t-37.5 -13t-31 -5t-26.5 -0.5zM429 660q87 14 87 36q0 16 -19 16q-34 0 -68 -52zM161 -81q81 0 138.5 58.5t105.5 163.5q-6 1 -77.5 10t-107.5 9q-95 0 -152.5 -43.5t-57.5 -97.5q0 -43 38.5 -71.5t112.5 -28.5z" />
    <glyph glyph-name="Thorn" unicode="&#xde;" horiz-adv-x="431" 
d="M133 -35l-4 1q-14 4 -21.5 121.5t-7.5 278.5q0 293 18 368q2 11 14 11h3q27 -7 29 -302q32 18 59 18q49 0 78.5 -50.5t29.5 -112.5q0 -50 -19 -83.5t-55 -33.5l-10 1q-42 6 -83 98q-6 -264 -17 -304q-4 -11 -14 -11zM236 200q15 0 25 30t10 71q0 55 -18.5 96t-53.5 41
q-16 0 -35 -10l1 -60l-1 -61q44 -104 70 -107h2z" />
    <glyph glyph-name="germandbls" unicode="&#xdf;" horiz-adv-x="540" 
d="M221 35q-69 0 -69 58q0 29 13 48.5t41 31t51.5 17t67 12t65.5 11.5q1 0 5.5 9.5t8.5 28t4 37.5q0 57 -44 105t-155 70q-3 0 -3 2q0 5 62.5 35t125 73.5t62.5 82.5q0 51 -83 51q-73 0 -126 -40t-79 -100.5t-44 -136.5t-24.5 -144t-17.5 -127.5t-26 -82.5q0 -2 -3 -2t-3 3
v3q13 18 22.5 75.5t16 126t25 147t46 141.5t82.5 105t131 42q59 0 88 -20.5t29 -54.5q0 -40 -29.5 -75.5t-68.5 -55.5t-70.5 -31.5t-41.5 -11.5q84 0 131.5 -52t47.5 -135v-7q-2 -84 -74 -161.5t-164 -77.5zM206 48q13 0 28 6q39 16 76.5 52.5t56 63.5t18.5 32
q-21 -4 -54 -9.5t-53 -9t-45 -11t-38.5 -17t-23 -25.5t-9.5 -37q0 -19 12 -32t32 -13z" />
    <glyph glyph-name="agrave" unicode="&#xe0;" horiz-adv-x="363" 
d="M256 381l-3 1q-112 60 -206 120q-5 3 -5 8l2 5q14 18 35 18q17 0 31 -12q81 -71 151 -126q3 -3 3 -7l-1 -4q-3 -3 -7 -3zM189 -28q-49 0 -49 88q0 59 24 173q-42 -74 -65 -95q-21 -19 -41 -19q-31 0 -46.5 24t-15.5 62q0 57 30 106.5t75 49.5q41 0 83 -43q9 33 35 33
q19 0 19 -8q0 -4 -15.5 -70t-31 -143t-15.5 -106q0 -35 20 -35q36 0 78.5 67.5t70.5 135.5l28 68h1q4 -2 4 -5q0 -9 -27 -75.5t-74 -137t-88 -70.5zM73 134q5 0 11 3.5t12.5 10.5t13 15t13.5 18.5t12.5 19.5t12 21t10 18.5t8.5 16t6 11.5q5 25 9 39q-7 10 -25 21.5t-33 11.5
q-33 0 -53.5 -48t-20.5 -100q0 -58 23 -58h1z" />
    <glyph glyph-name="aacute" unicode="&#xe1;" horiz-adv-x="362" 
d="M52 386q-4 0 -7 3l-1 4q0 4 3 7q70 55 151 126q14 12 31 12q21 0 35 -18l2 -5q0 -5 -5 -8q-94 -60 -206 -120zM189 -28q-49 0 -49 88q0 59 24 173q-42 -74 -65 -95q-21 -19 -41 -19q-31 0 -46.5 24t-15.5 62q0 57 30 106.5t75 49.5q41 0 83 -43q9 33 35 33q19 0 19 -8
q0 -4 -15.5 -70t-31 -143t-15.5 -106q0 -35 20 -35q36 0 78.5 67.5t70.5 135.5l28 68h1q4 -2 4 -5q0 -9 -27 -75.5t-74 -137t-88 -70.5zM73 134q5 0 11 3.5t12.5 10.5t13 15t13.5 18.5t12.5 19.5t12 21t10 18.5t8.5 16t6 11.5q5 25 9 39q-7 10 -25 21.5t-33 11.5
q-33 0 -53.5 -48t-20.5 -100q0 -58 23 -58h1z" />
    <glyph glyph-name="acircumflex" unicode="&#xe2;" horiz-adv-x="361" 
d="M189 -28q-49 0 -49 88q0 59 24 173q-42 -74 -65 -95q-21 -19 -41 -19q-31 0 -46.5 24t-15.5 62q0 57 30 106.5t75 49.5q41 0 83 -43q9 33 35 33q19 0 19 -8q0 -4 -15.5 -70t-31 -143t-15.5 -106q0 -35 20 -35q36 0 78.5 67.5t70.5 135.5l28 68h1q4 -2 4 -5
q0 -9 -27 -75.5t-74 -137t-88 -70.5zM73 134q5 0 11 3.5t12.5 10.5t13 15t13.5 18.5t12.5 19.5t12 21t10 18.5t8.5 16t6 11.5q5 25 9 39q-7 10 -25 21.5t-33 11.5q-33 0 -53.5 -48t-20.5 -100q0 -58 23 -58h1zM282 397h-1q-5 7 -82 99q-7 7 -17 9h-5q-9 0 -14 -4
q-105 -67 -108 -67l-2 2q1 4 58.5 54t65.5 56q6 4 11 4h3q8 -2 11 -8q84 -140 84 -142q-2 -3 -4 -3z" />
    <glyph glyph-name="atilde" unicode="&#xe3;" horiz-adv-x="363" 
d="M229 405q-28 0 -84 17t-78 17q-21 0 -34 -9l-2 -1q-2 0 -2 2q0 4 4.5 9.5t18 10.5t32.5 5t46 -6q16 -4 40.5 -11t42.5 -11.5t33 -4.5q21 0 39 12h2l3 -1l1 -1q0 -5 -9.5 -12t-21.5 -11q-17 -5 -31 -5zM189 -28q-49 0 -49 88q0 59 24 173q-42 -74 -65 -95q-21 -19 -41 -19
q-31 0 -46.5 24t-15.5 62q0 57 30 106.5t75 49.5q41 0 83 -43q9 33 35 33q19 0 19 -8q0 -4 -15.5 -70t-31 -143t-15.5 -106q0 -35 20 -35q36 0 78.5 67.5t70.5 135.5l28 68h1q4 -2 4 -5q0 -9 -27 -75.5t-74 -137t-88 -70.5zM73 134q5 0 11 3.5t12.5 10.5t13 15t13.5 18.5
t12.5 19.5t12 21t10 18.5t8.5 16t6 11.5q5 25 9 39q-7 10 -25 21.5t-33 11.5q-33 0 -53.5 -48t-20.5 -100q0 -58 23 -58h1z" />
    <glyph glyph-name="adieresis" unicode="&#xe4;" horiz-adv-x="363" 
d="M189 -28q-49 0 -49 88q0 59 24 173q-42 -74 -65 -95q-21 -19 -41 -19q-31 0 -46.5 24t-15.5 62q0 57 30 106.5t75 49.5q41 0 83 -43q9 33 35 33q19 0 19 -8q0 -4 -15.5 -70t-31 -143t-15.5 -106q0 -35 20 -35q36 0 78.5 67.5t70.5 135.5l28 68h1q4 -2 4 -5
q0 -9 -27 -75.5t-74 -137t-88 -70.5zM73 134q5 0 11 3.5t12.5 10.5t13 15t13.5 18.5t12.5 19.5t12 21t10 18.5t8.5 16t6 11.5q5 25 9 39q-7 10 -25 21.5t-33 11.5q-33 0 -53.5 -48t-20.5 -100q0 -58 23 -58h1zM200 433q0 11 8 20t20 9l10 -1q20 -7 20 -27q0 -11 -8 -20
t-20 -9l-10 2q-20 6 -20 26zM89 433q0 11 8 20t20 9l10 -1q20 -7 20 -27q0 -11 -8 -20t-20 -9l-10 2q-20 6 -20 26z" />
    <glyph glyph-name="aring" unicode="&#xe5;" horiz-adv-x="362" 
d="M189 -28q-49 0 -49 88q0 59 24 173q-42 -74 -65 -95q-21 -19 -41 -19q-31 0 -46.5 24t-15.5 62q0 57 30 106.5t75 49.5q41 0 83 -43q9 33 35 33q19 0 19 -8q0 -4 -15.5 -70t-31 -143t-15.5 -106q0 -35 20 -35q36 0 78.5 67.5t70.5 135.5l28 68h1q4 -2 4 -5
q0 -9 -27 -75.5t-74 -137t-88 -70.5zM73 134q5 0 11 3.5t12.5 10.5t13 15t13.5 18.5t12.5 19.5t12 21t10 18.5t8.5 16t6 11.5q5 25 9 39q-7 10 -25 21.5t-33 11.5q-33 0 -53.5 -48t-20.5 -100q0 -58 23 -58h1zM161 415q16 0 28 12q13 10 13 31q0 15 -11 28q-10 13 -30 13
q-17 0 -30 -11q-13 -13 -13 -30q0 -18 12 -30q12 -13 31 -13zM161 395q-26 0 -44 19q-19 18 -19 44q0 28 19 44q18 18 44 18q23 0 42 -16q20 -15 20 -46q0 -27 -17 -46q-19 -17 -45 -17z" />
    <glyph glyph-name="ae" unicode="&#xe6;" horiz-adv-x="443" 
d="M268 101q-46 0 -77 28t-31 76q0 7 2 25q-12 -23 -20.5 -37t-23 -34t-29.5 -30.5t-31 -10.5q-31 0 -46.5 24t-15.5 62q0 57 30 106.5t76 49.5q40 0 82 -43q10 33 36 33q9 0 15 -4q42 33 85 33q44 0 44 -26q0 -28 -46 -65t-94 -42q-18 -43 -18 -73q0 -57 62 -57q43 0 80 23
t57 53.5t31.5 55.5t11.5 35q0 5 5 5q4 0 4 -5q0 -29 -40.5 -90t-99.5 -83q-24 -9 -49 -9zM229 257q44 7 85 40t41 55q0 16 -21 16q-40 0 -75 -55q-14 -21 -30 -56zM72 132q6 0 14 6t16.5 16.5t16.5 22t16.5 26.5t14.5 25.5t12.5 23t8.5 15.5l10 39q-29 33 -59 33
q-33 0 -53 -48t-20 -101q0 -58 23 -58z" />
    <glyph glyph-name="ccedilla" unicode="&#xe7;" horiz-adv-x="284" 
d="M126 -124h-2q-14 0 -39 7q-5 3 -5 8t6 5h2q13 -7 25 -7h2q21 0 32.5 17.5t11.5 40.5v3q0 22 -10.5 39t-29.5 18l-25 -1q-8 0 -10 1q-10 3 -11 11l-2 65q-41 6 -61.5 37t-20.5 75q0 61 36 111.5t93 50.5q22 0 35.5 -13.5t13.5 -40.5q0 -5 -5 -5t-5 5q0 16 -7.5 24.5
t-18.5 8.5q-31 0 -68 -60.5t-37 -113.5q0 -70 72 -70q41 0 104.5 51t87.5 119q0 3 4 3q5 0 5 -5q0 -17 -28 -57t-78 -78.5t-97 -41.5q14 -7 14 -21q0 -21 2 -42h15q49 -2 64 -38q7 -15 7 -35q-1 -29 -20 -50t-52 -21z" />
    <glyph glyph-name="egrave" unicode="&#xe8;" horiz-adv-x="273" 
d="M260 392l-3 1q-112 60 -206 120q-5 3 -5 8l2 5q14 18 35 18q17 0 31 -12q81 -71 151 -126q3 -3 3 -7l-1 -4q-3 -3 -7 -3zM97 76q-46 0 -77 28t-31 75q0 69 52.5 121.5t107.5 52.5q45 0 45 -26q0 -28 -46.5 -65t-93.5 -41q-18 -44 -18 -74q0 -56 61 -56q43 0 80 22.5
t57 53t31.5 55.5t11.5 35q0 5 5 5t5 -5q0 -19 -21 -60t-67.5 -81t-101.5 -40zM58 231q43 7 84.5 40t41.5 55q0 16 -22 16q-39 0 -74 -54q-15 -23 -30 -57z" />
    <glyph glyph-name="eacute" unicode="&#xe9;" horiz-adv-x="273" 
d="M47 350q-4 0 -7 3l-1 4q0 4 3 7q70 55 151 126q13 12 30 12q23 0 36 -18l2 -5q0 -5 -5 -8q-94 -60 -206 -120zM97 76q-46 0 -77 28t-31 75q0 69 52.5 121.5t107.5 52.5q45 0 45 -26q0 -28 -46.5 -65t-93.5 -41q-18 -44 -18 -74q0 -56 61 -56q43 0 80 22.5t57 53
t31.5 55.5t11.5 35q0 5 5 5t5 -5q0 -19 -21 -60t-67.5 -81t-101.5 -40zM58 231q43 7 84.5 40t41.5 55q0 16 -22 16q-39 0 -74 -54q-15 -23 -30 -57z" />
    <glyph glyph-name="ecircumflex" unicode="&#xea;" horiz-adv-x="273" 
d="M97 76q-46 0 -77 28t-31 75q0 69 52.5 121.5t107.5 52.5q45 0 45 -26q0 -28 -46.5 -65t-93.5 -41q-18 -44 -18 -74q0 -56 61 -56q43 0 80 22.5t57 53t31.5 55.5t11.5 35q0 5 5 5t5 -5q0 -19 -21 -60t-67.5 -81t-101.5 -40zM58 231q43 7 84.5 40t41.5 55q0 16 -22 16
q-39 0 -74 -54q-15 -23 -30 -57zM252 377h-1q-5 7 -82 99q-7 7 -17 9h-4q-8 0 -15 -4q-105 -67 -108 -67l-2 2q1 4 58.5 54t65.5 56q6 4 11 4h3q8 -2 11 -8q84 -140 84 -142q-2 -3 -4 -3z" />
    <glyph glyph-name="edieresis" unicode="&#xeb;" horiz-adv-x="273" 
d="M97 76q-46 0 -77 28t-31 75q0 69 52.5 121.5t107.5 52.5q45 0 45 -26q0 -28 -46.5 -65t-93.5 -41q-18 -44 -18 -74q0 -56 61 -56q43 0 80 22.5t57 53t31.5 55.5t11.5 35q0 5 5 5t5 -5q0 -19 -21 -60t-67.5 -81t-101.5 -40zM58 231q43 7 84.5 40t41.5 55q0 16 -22 16
q-39 0 -74 -54q-15 -23 -30 -57zM185 438q0 11 7.5 20t19.5 9l11 -1q19 -7 19 -27q0 -11 -7.5 -20t-19.5 -9l-10 2q-20 6 -20 26zM74 438q0 11 7.5 20t19.5 9l11 -1q19 -7 19 -27q0 -11 -7.5 -20t-19.5 -9l-10 2q-20 6 -20 26z" />
    <glyph glyph-name="igrave" unicode="&#xec;" horiz-adv-x="346" 
d="M387 751l-3 1q-112 60 -206 120q-5 3 -5 8l2 5q13 18 35 18q18 0 31 -12q81 -71 151 -126q3 -3 3 -7l-1 -4q-3 -3 -7 -3zM41 -15q-55 0 -55 132q0 82 23 190.5t60 207t90 166.5t106 68q52 0 52 -47v-2q0 -23 -17.5 -71.5t-49 -111t-85 -133t-115.5 -123.5
q-32 -133 -32 -199q0 -64 31 -64q29 0 99 78t121 186q1 3 4 3q5 0 5 -5q0 -14 -41 -80t-100 -130.5t-96 -64.5zM54 277q62 55 114 126.5t80 131.5t43.5 104t15.5 61q0 40 -27 40q-19 0 -43.5 -24t-54.5 -74t-64 -145t-64 -220z" />
    <glyph glyph-name="iacute" unicode="&#xed;" horiz-adv-x="348" 
d="M183 757q-4 0 -7 3l-1 4q0 4 3 7q70 55 151 126q13 12 30 12q23 0 36 -18l2 -5q0 -5 -5 -8q-94 -60 -206 -120zM41 -15q-55 0 -55 132q0 82 23 190.5t60 207t90 166.5t106 68q52 0 52 -47v-2q0 -23 -17.5 -71.5t-49 -111t-85 -133t-115.5 -123.5q-32 -133 -32 -199
q0 -64 31 -64q29 0 99 78t121 186q1 3 4 3q5 0 5 -5q0 -14 -41 -80t-100 -130.5t-96 -64.5zM54 277q62 55 114 126.5t80 131.5t43.5 104t15.5 61q0 40 -27 40q-19 0 -43.5 -24t-54.5 -74t-64 -145t-64 -220z" />
    <glyph glyph-name="icircumflex" unicode="&#xee;" horiz-adv-x="341" 
d="M41 -15q-55 0 -55 132q0 82 23 190.5t60 207t90 166.5t106 68q52 0 52 -47v-2q0 -23 -17.5 -71.5t-49 -111t-85 -133t-115.5 -123.5q-32 -133 -32 -199q0 -64 31 -64q29 0 99 78t121 186q1 3 4 3q5 0 5 -5q0 -14 -41 -80t-100 -130.5t-96 -64.5zM54 277q62 55 114 126.5
t80 131.5t43.5 104t15.5 61q0 40 -27 40q-19 0 -43.5 -24t-54.5 -74t-64 -145t-64 -220zM384 742h-1q-5 7 -82 99q-7 7 -17 9h-4q-8 0 -15 -4q-105 -67 -108 -67l-2 2q1 4 58.5 54t65.5 56q6 4 11 4h3q8 -2 11 -8q84 -140 84 -142q-2 -3 -4 -3z" />
    <glyph glyph-name="idieresis" unicode="&#xef;" horiz-adv-x="320" 
d="M312 820q0 11 7.5 20t19.5 9l11 -1q19 -6 19 -26q0 -12 -7.5 -21t-19.5 -9l-10 2q-20 6 -20 26zM201 820q0 11 7.5 20t19.5 9l11 -1q19 -6 19 -26q0 -12 -7.5 -21t-19.5 -9l-10 2q-20 6 -20 26zM41 -15q-55 0 -55 132q0 82 23 190.5t60 207t90 166.5t106 68q52 0 52 -47
v-2q0 -23 -17.5 -71.5t-49 -111t-85 -133t-115.5 -123.5q-32 -133 -32 -199q0 -64 31 -64q29 0 99 78t121 186q1 3 4 3q5 0 5 -5q0 -14 -41 -80t-100 -130.5t-96 -64.5zM54 277q62 55 114 126.5t80 131.5t43.5 104t15.5 61q0 40 -27 40q-19 0 -43.5 -24t-54.5 -74t-64 -145
t-64 -220z" />
    <glyph glyph-name="eth" unicode="&#xf0;" horiz-adv-x="436" 
d="M212 37q-64 0 -113 54t-49 132l1 21q7 74 51 117t100 43q41 0 75.5 -26.5t51.5 -77.5v19q0 146 -45 218.5t-109 81.5l-45 -57q-1 -1 -4 -1q-2 0 -3 1l-2 3l1 4l42 51h-4q-58 0 -89 -39l-3 -2q-5 0 -5 6l1 3q35 42 104 42h4l54 67l4 2l3 -1l2 -4l-1 -3l-50 -62
q63 -7 103 -41q49 -40 74 -114t25 -158q0 -95 -29 -162q-25 -59 -63.5 -88t-81.5 -29zM199 56q27 0 49 13q37 26 57 79.5t23 112.5v3q-9 59 -41 91t-72 34h-4q-43 0 -72 -31.5t-33 -95.5l-1 -35q0 -96 27.5 -133.5t66.5 -37.5z" />
    <glyph glyph-name="ntilde" unicode="&#xf1;" horiz-adv-x="321" 
d="M156 52l-10 1q-28 4 -28 45q0 44 34 128q5 13 14.5 35t14 33.5t8.5 25t5 21.5v2q0 19 -21 19q-45 0 -102 -92q-40 -65 -61 -135l-10 -45q-1 -10 -12 -10q-8 0 -8 7v1q7 116 32 254q2 16 14.5 26t28.5 10l12 -2q5 -3 5 -8v-2q-19 -53 -46 -161q14 32 37 70q62 100 123 100
q13 0 19 -4q25 -11 25 -52q0 -64 -63 -193q-15 -32 -15 -46q0 -16 14 -16q19 0 52 30t67 87q34 55 40 87q1 3 4 3h2q4 0 4 -5q-10 -53 -70 -133.5t-109 -80.5zM245 436q-28 0 -84 17t-78 17q-20 0 -34 -10l-2 -1q-2 0 -2 3q0 4 4.5 9t18 10t32.5 5q24 0 46 -6q16 -4 41 -11
t43 -11t32 -4q24 0 39 11l2 1l3 -2l1 -1q0 -5 -9.5 -12t-21.5 -11q-13 -4 -31 -4z" />
    <glyph glyph-name="ograve" unicode="&#xf2;" 
d="M299 397l-3 1q-112 60 -206 120q-5 3 -5 8l2 5q13 18 35 18q18 0 31 -12q81 -71 151 -126q3 -3 3 -7l-1 -4q-3 -3 -7 -3zM59 84q-37 0 -55 32.5t-18 77.5q0 37 11 65t28 28q7 0 15 -5.5t12.5 -11.5t4.5 -7l-4 -7q-4 -8 -9.5 -20.5t-11.5 -27t-10 -31.5t-4 -31
q0 -47 46 -51q63 1 104 86q-55 11 -86 51t-31 85q0 36 21.5 60t60.5 24q74 0 74 -95q0 -56 -23 -112q12 -4 28 -4q34 0 63 21t40 51q1 3 5 3q5 0 5 -5q0 -2 -3.5 -10t-12.5 -20.5t-22.5 -23.5t-36 -19.5t-49.5 -8.5q-15 0 -23 1q-25 -53 -57.5 -74t-61.5 -21zM175 197
q23 55 23 107q0 38 -13 61t-38 23q-55 0 -55 -61q0 -38 23.5 -77t59.5 -53z" />
    <glyph glyph-name="oacute" unicode="&#xf3;" 
d="M79 431q-4 0 -7 3l-1 4q0 4 3 7q70 55 151 126q13 12 30 12q23 0 36 -18l2 -5q0 -5 -5 -8q-94 -60 -206 -120zM59 84q-37 0 -55 32.5t-18 77.5q0 37 11 65t28 28q7 0 15 -5.5t12.5 -11.5t4.5 -7l-4 -7q-4 -8 -9.5 -20.5t-11.5 -27t-10 -31.5t-4 -31q0 -47 46 -51
q63 1 104 86q-55 11 -86 51t-31 85q0 36 21.5 60t60.5 24q74 0 74 -95q0 -56 -23 -112q12 -4 28 -4q34 0 63 21t40 51q1 3 5 3q5 0 5 -5q0 -2 -3.5 -10t-12.5 -20.5t-22.5 -23.5t-36 -19.5t-49.5 -8.5q-15 0 -23 1q-25 -53 -57.5 -74t-61.5 -21zM175 197q23 55 23 107
q0 38 -13 61t-38 23q-55 0 -55 -61q0 -38 23.5 -77t59.5 -53z" />
    <glyph glyph-name="ocircumflex" unicode="&#xf4;" 
d="M248 436q-28 0 -84 17t-78 17q-20 0 -34 -10l-2 -1q-2 0 -2 3q0 4 4.5 9t17.5 10t32 5q25 0 47 -6q15 -3 40 -10.5t43 -11.5t33 -4q23 0 39 11l2 1l3 -2v-1q0 -5 -9 -12t-21 -11q-13 -4 -31 -4zM59 84q-37 0 -55 32.5t-18 77.5q0 37 11 65t28 28q7 0 15 -5.5t12.5 -11.5
t4.5 -7l-4 -7q-4 -8 -9.5 -20.5t-11.5 -27t-10 -31.5t-4 -31q0 -47 46 -51q63 1 104 86q-55 11 -86 51t-31 85q0 36 21.5 60t60.5 24q74 0 74 -95q0 -56 -23 -112q12 -4 28 -4q34 0 63 21t40 51q1 3 5 3q5 0 5 -5q0 -2 -3.5 -10t-12.5 -20.5t-22.5 -23.5t-36 -19.5
t-49.5 -8.5q-15 0 -23 1q-25 -53 -57.5 -74t-61.5 -21zM175 197q23 55 23 107q0 38 -13 61t-38 23q-55 0 -55 -61q0 -38 23.5 -77t59.5 -53z" />
    <glyph glyph-name="otilde" unicode="&#xf5;" 
d="M252 377h-1q-5 7 -82 99q-7 7 -17 9h-4q-8 0 -15 -4q-105 -67 -107 -67l-3 2q1 4 58.5 54t65.5 56q6 4 11 4h3q8 -2 11 -8q84 -140 84 -142q-2 -3 -4 -3zM59 84q-37 0 -55 32.5t-18 77.5q0 37 11 65t28 28q7 0 15 -5.5t12.5 -11.5t4.5 -7l-4 -7q-4 -8 -9.5 -20.5
t-11.5 -27t-10 -31.5t-4 -31q0 -47 46 -51q63 1 104 86q-55 11 -86 51t-31 85q0 36 21.5 60t60.5 24q74 0 74 -95q0 -56 -23 -112q12 -4 28 -4q34 0 63 21t40 51q1 3 5 3q5 0 5 -5q0 -2 -3.5 -10t-12.5 -20.5t-22.5 -23.5t-36 -19.5t-49.5 -8.5q-15 0 -23 1
q-25 -53 -57.5 -74t-61.5 -21zM175 197q23 55 23 107q0 38 -13 61t-38 23q-55 0 -55 -61q0 -38 23.5 -77t59.5 -53z" />
    <glyph glyph-name="odieresis" unicode="&#xf6;" 
d="M180 469q0 12 7.5 21t19.5 9l11 -2q19 -6 19 -26q0 -12 -7.5 -21t-19.5 -9l-10 2q-20 6 -20 26zM69 469q0 12 7.5 21t19.5 9l11 -2q19 -6 19 -26q0 -12 -7.5 -21t-19.5 -9l-10 2q-20 6 -20 26zM59 84q-37 0 -55 32.5t-18 77.5q0 37 11 65t28 28q7 0 15 -5.5t12.5 -11.5
t4.5 -7l-4 -7q-4 -8 -9.5 -20.5t-11.5 -27t-10 -31.5t-4 -31q0 -47 46 -51q63 1 104 86q-55 11 -86 51t-31 85q0 36 21.5 60t60.5 24q74 0 74 -95q0 -56 -23 -112q12 -4 28 -4q34 0 63 21t40 51q1 3 5 3q5 0 5 -5q0 -2 -3.5 -10t-12.5 -20.5t-22.5 -23.5t-36 -19.5
t-49.5 -8.5q-15 0 -23 1q-25 -53 -57.5 -74t-61.5 -21zM175 197q23 55 23 107q0 38 -13 61t-38 23q-55 0 -55 -61q0 -38 23.5 -77t59.5 -53z" />
    <glyph glyph-name="divide" unicode="&#xf7;" horiz-adv-x="299" 
d="M151 198q-12 0 -21 8t-9 20l2 10q6 20 26 20q11 0 20 -8t9 -20l-1 -10q-6 -20 -26 -20zM240 297h-180q-10 0 -10 10t10 10h180q10 0 10 -10t-10 -10zM151 361q-12 0 -21 8t-9 20l2 10q6 20 26 20q11 0 20 -8t9 -20l-1 -10q-6 -20 -26 -20z" />
    <glyph glyph-name="oslash" unicode="&#xf8;" horiz-adv-x="430" 
d="M16 42q-2 0 -4 2t-2 4q0 1 2 3l82 81q-12 28 -12 64q0 37 11 65t28 28q7 0 15.5 -5.5t13 -11.5t4.5 -7q-37 -63 -39 -112l72 73q-40 40 -40 93q0 36 21.5 60t60.5 24q60 0 72 -64l106 106l3 2l4 -2l1 -3l-1 -4l-111 -111v-18q0 -60 -22 -113q12 -4 27 -4q34 0 63.5 20.5
t40.5 51.5q2 3 4 3q5 0 5 -5q0 -2 -3.5 -9.5t-13 -20t-22.5 -24t-35.5 -20t-48.5 -8.5l-23 2q-46 -96 -119 -96q-38 0 -58 37l-79 -79q-2 -2 -3 -2zM213 251l79 80q-8 59 -49 59q-28 0 -41.5 -16.5t-13.5 -43.5q0 -40 25 -79zM160 97q63 1 104 86q-41 8 -70 36l-79 -79
q3 -39 45 -43zM272 199q21 57 21 104v15l-75 -75q25 -33 54 -44z" />
    <glyph glyph-name="ugrave" unicode="&#xf9;" horiz-adv-x="364" 
d="M164 -26q-28 0 -28 70q0 73 17 152q-8 -13 -20.5 -32t-44.5 -51t-55 -32q-45 0 -45 82q0 53 20 129q7 27 36 27q25 0 25 -15q0 -3 -22 -75.5t-22 -104.5q0 -30 18 -30q21 0 56 44.5t59 84.5q31 138 72 138q9 0 16 -6.5t7 -10.5q0 -5 -44 -150.5t-44 -186.5q0 -18 8 -18
q31 0 105 102t92 169q0 4 4 4q5 0 5 -5q0 -21 -39.5 -90t-92.5 -132t-83 -63zM254 389l-3 1q-112 60 -206 120q-5 2 -5 8l2 5q14 18 35 18q17 0 31 -12q81 -71 151 -126q3 -3 3 -7l-1 -4q-3 -3 -7 -3z" />
    <glyph glyph-name="uacute" unicode="&#xfa;" horiz-adv-x="364" 
d="M164 -26q-28 0 -28 70q0 73 17 152q-8 -13 -20.5 -32t-44.5 -51t-55 -32q-45 0 -45 82q0 53 20 129q7 27 36 27q25 0 25 -15q0 -3 -22 -75.5t-22 -104.5q0 -30 18 -30q21 0 56 44.5t59 84.5q31 138 72 138q9 0 16 -6.5t7 -10.5q0 -5 -44 -150.5t-44 -186.5q0 -18 8 -18
q31 0 105 102t92 169q0 4 4 4q5 0 5 -5q0 -21 -39.5 -90t-92.5 -132t-83 -63zM85 389q-3 0 -6 3l-1 4q0 4 3 7q70 55 151 126q13 12 30 12q22 0 36 -18l2 -5q0 -5 -5 -8q-94 -60 -206 -120z" />
    <glyph glyph-name="ucircumflex" unicode="&#xfb;" horiz-adv-x="364" 
d="M164 -26q-28 0 -28 70q0 73 17 152q-8 -13 -20.5 -32t-44.5 -51t-55 -32q-45 0 -45 82q0 53 20 129q7 27 36 27q25 0 25 -15q0 -3 -22 -75.5t-22 -104.5q0 -30 18 -30q21 0 56 44.5t59 84.5q31 138 72 138q9 0 16 -6.5t7 -10.5q0 -5 -44 -150.5t-44 -186.5q0 -18 8 -18
q31 0 105 102t92 169q0 4 4 4q5 0 5 -5q0 -21 -39.5 -90t-92.5 -132t-83 -63zM252 377h-1q-5 7 -82 99q-7 7 -17 9h-4q-10 0 -15 -4q-105 -67 -108 -67l-2 2q1 4 58.5 54t65.5 56q6 4 11 4h3q8 -2 11 -8q84 -140 84 -142q-2 -3 -4 -3z" />
    <glyph glyph-name="udieresis" unicode="&#xfc;" horiz-adv-x="364" 
d="M164 -26q-28 0 -28 70q0 73 17 152q-8 -13 -20.5 -32t-44.5 -51t-55 -32q-45 0 -45 82q0 53 20 129q7 27 36 27q25 0 25 -15q0 -3 -22 -75.5t-22 -104.5q0 -30 18 -30q21 0 56 44.5t59 84.5q31 138 72 138q9 0 16 -6.5t7 -10.5q0 -5 -44 -150.5t-44 -186.5q0 -18 8 -18
q31 0 105 102t92 169q0 4 4 4q5 0 5 -5q0 -21 -39.5 -90t-92.5 -132t-83 -63zM187 464q0 12 7.5 21t19.5 9l10 -2q20 -6 20 -26q0 -12 -7.5 -21t-19.5 -9l-11 2q-19 6 -19 26zM76 464q0 12 7.5 21t19.5 9l10 -2q20 -6 20 -26q0 -12 -7.5 -21t-19.5 -9l-11 2q-19 6 -19 26z
" />
    <glyph glyph-name="yacute" unicode="&#xfd;" horiz-adv-x="355" 
d="M75 389q-4 0 -7 3l-1 4q0 4 3 7q70 55 151 126q14 12 30 12q23 0 36 -18l2 -5q0 -5 -5 -8q-94 -60 -206 -120zM-11 -273q-36 0 -58.5 24t-22.5 69q0 30 7 55t24 46t31.5 35.5t43.5 31t46.5 25l52.5 25.5q34 147 64 224q-2 -6 -10 -17l-8 -11q-48 -76 -73.5 -105
t-47.5 -29q-4 0 -12 2q-39 13 -39 78q0 48 18 108q8 28 39 28q23 0 23 -15l-1 -5q-3 -7 -11.5 -26.5t-12 -29.5t-9.5 -26t-9.5 -30.5t-5.5 -28.5v-6q0 -14 6.5 -24t17.5 -10q7 0 14 4q26 15 131 181q16 22 41 22q10 0 22 -5q7 -1 7 -10l-1 -4q-22 -54 -69 -229
q67 35 111.5 80t63.5 113q2 3 5 3q5 0 5 -4v-2q-21 -71 -69 -118t-119 -85q-42 -156 -70 -218q-49 -104 -110 -115zM-25 -260q22 0 39 16q27 24 47.5 85.5t48.5 184.5q-33 -16 -51 -25t-44.5 -24.5t-40.5 -29.5t-29 -33.5t-21.5 -42.5t-6.5 -51q0 -37 17 -58.5t41 -21.5z
" />
    <glyph glyph-name="thorn" unicode="&#xfe;" horiz-adv-x="405" 
d="M129 -6l-4 1q-25 7 -25 353q0 256 16 326q2 10 12 10h3q23 -6 25 -267q28 16 52 16q44 0 70 -44.5t26 -100.5q0 -43 -17 -73t-48 -30l-9 1q-37 5 -74 87q-4 -231 -15 -269q-2 -10 -12 -10zM220 202q14 0 22.5 26t8.5 63q0 49 -16 85.5t-48 36.5q-13 0 -31 -9l1 -53
l-1 -54q39 -92 62 -95h2z" />
    <glyph glyph-name="ydieresis" unicode="&#xff;" horiz-adv-x="355" 
d="M176 464q0 12 7.5 21t19.5 9l11 -2q19 -6 19 -26q0 -12 -7.5 -21t-19.5 -9l-10 2q-20 6 -20 26zM65 464q0 12 7.5 21t19.5 9l11 -2q19 -6 19 -26q0 -12 -7.5 -21t-19.5 -9l-10 2q-20 6 -20 26zM-11 -273q-36 0 -58.5 24t-22.5 69q0 30 7 55t24 46t31.5 35.5t43.5 31
t46.5 25l52.5 25.5q34 147 64 224q-2 -6 -10 -17l-8 -11q-48 -76 -73.5 -105t-47.5 -29q-4 0 -12 2q-39 13 -39 78q0 48 18 108q8 28 39 28q23 0 23 -15l-1 -5q-3 -7 -11.5 -26.5t-12 -29.5t-9.5 -26t-9.5 -30.5t-5.5 -28.5v-6q0 -14 6.5 -24t17.5 -10q7 0 14 4
q26 15 131 181q16 22 41 22q10 0 22 -5q7 -1 7 -10l-1 -4q-22 -54 -69 -229q67 35 111.5 80t63.5 113q2 3 5 3q5 0 5 -4v-2q-21 -71 -69 -118t-119 -85q-42 -156 -70 -218q-49 -104 -110 -115zM-25 -260q22 0 39 16q27 24 47.5 85.5t48.5 184.5q-33 -16 -51 -25t-44.5 -24.5
t-40.5 -29.5t-29 -33.5t-21.5 -42.5t-6.5 -51q0 -37 17 -58.5t41 -21.5z" />
    <glyph glyph-name="Ydieresis" unicode="&#x178;" horiz-adv-x="700" 
d="M191 -92q-95 0 -143 31.5t-48 79.5q0 58 62 104.5t158 46.5q28 0 59 -3t71 -9t59 -8q23 52 66.5 166t65.5 168q-58 -88 -100 -131t-74 -43q-54 0 -54 104q0 58 17 125.5t37 100.5q-39 -6 -66 -11t-64 -15t-62 -23t-48 -31t-35 -43.5t-12 -57.5q0 -11 1.5 -20.5t3 -15
t1.5 -6.5q0 -4 -5 -4q-3 0 -5 3q-6 24 -6 43q0 51 30.5 88t74.5 55t88 28t77.5 15.5t36.5 9.5q50 69 109 69q20 0 30 -8.5t10 -19.5q0 -19 -25.5 -28.5t-78.5 -18.5q-26 -47 -47 -130t-21 -140t23 -57q29 0 82.5 67.5t104.5 148.5q36 80 56 116.5t30 44.5t26 8q27 0 27 -16
l-234 -545h4q46 0 86.5 12.5t66 30t44.5 34.5t28 29l10 13q5 0 5 -5q0 -4 -9.5 -17.5t-30 -31.5t-48 -35t-68.5 -28.5t-86 -11.5h-7q-23 -47 -47.5 -84t-45.5 -60.5t-44.5 -40t-40.5 -25t-37.5 -13t-31 -5t-26.5 -0.5zM429 660q87 14 87 36q0 16 -19 16q-34 0 -68 -52z
M161 -81q81 0 138.5 58.5t105.5 163.5q-6 1 -77.5 10t-107.5 9q-95 0 -152.5 -43.5t-57.5 -97.5q0 -43 38.5 -71.5t112.5 -28.5zM618 787q0 11 8 20t20 9l10 -1q20 -7 20 -27q0 -11 -8 -20t-20 -9l-10 2q-20 6 -20 26zM507 787q0 11 8 20t20 9l10 -1q20 -7 20 -27
q0 -11 -8 -20t-20 -9l-10 2q-20 6 -20 26z" />
    <glyph glyph-name="franc" unicode="&#x20a3;" horiz-adv-x="678" 
d="M153 -60q-42 0 -72.5 14t-41.5 26t-25 33q-3 4 -4 6v1q0 4 5 4q1 0 6.5 -7.5t15 -18.5t22 -22t32 -18.5t41.5 -7.5q75 0 117.5 57t67.5 157h-114q-5 0 -5 5t5 5h116q10 45 26 139.5t26 136.5q-30 6 -52 6q-36 0 -59.5 -13.5t-31.5 -29.5t-14 -29.5t-9 -13.5h-1q-4 0 -4 5
q0 4 2.5 12.5t11 22.5t21 26t35.5 20.5t53 8.5q27 0 50 -5q16 66 31.5 101.5t42.5 78.5q-74 18 -130 18q-185 0 -185 -196q0 -4 -5 -4t-5 4q0 206 194 206q60 0 138 -20q54 64 131 64q35 0 58.5 -16t23.5 -41q0 -45 -65 -45q-43 0 -116 20q-1 -2 -9.5 -18t-15 -30.5
t-17 -50.5t-19.5 -84q78 -19 81 -20q23 60 70 60q17 0 29.5 -9t12.5 -21q0 -18 -25 -30.5t-59 -12.5l-16 1q-14 -37 -14 -81v-16q0 -6 -5 -6q-4 0 -5 4q-2 18 -2 29q0 40 11 73q-24 4 -80 20q-35 -203 -51 -264h101q5 0 5 -5t-5 -5h-104q-30 -108 -80.5 -166t-135.5 -58z
M601 620q56 0 56 35q0 19 -16.5 31.5t-41.5 12.5q-58 0 -107 -61q77 -18 109 -18zM535 424q29 0 51 10t22 22q0 3 -4 7q-12 7 -27 7q-34 0 -55 -45z" />
    <glyph glyph-name="lira" unicode="&#x20a4;" horiz-adv-x="470" 
d="M346 32l-325 4q-10 0 -10 11q0 10 13 10q81 101 92 165q2 8 2 25q0 20 -5 50q-50 16 -70 16q-18 0 -29 -8l-3 -1q-1 1 -1 2q0 3 4 7.5t15.5 9t27.5 4.5q17 0 41 -6l12 -2q-9 46 -14 82q-35 11 -53 11q-16 0 -29 -8l-3 -1q-1 0 -1 2q0 3 4 7.5t15.5 8.5t27.5 4q17 0 36 -4
q0 6 -1 16t-1.5 18.5t-0.5 15.5q0 65 23 115q32 66 90.5 102t120.5 36q72 0 111 -46q25 -30 25 -65l-2 -17q0 -4 -4 -4t-4 5v1q0 2 0.5 6.5t0.5 7.5q0 34 -23 60q-34 41 -87 41q-62 0 -122 -51.5t-76 -119.5q-6 -28 -6 -67q0 -30 5 -67q42 -10 57 -10q21 0 34 9l1 1l3 -2v-1
q0 -3 -8.5 -9.5t-17.5 -9.5q-15 -5 -27 -5q-8 0 -38 5q12 -68 14 -81q23 -6 40 -6q20 0 33 9l2 1l2 -2v-1q0 -3 -8.5 -9.5t-17.5 -9.5q-12 -4 -27 -4q-6 0 -22 2l1 -21q0 -53 -26.5 -103t-94.5 -105l328 -2q30 33 53 53q0 1 2 1t4 -2l1 -2q0 -1 -1 -2.5t-5 -6t-8.5 -11
l-13.5 -19.5t-19 -29q-1 -4 -37 -4z" />
    <glyph glyph-name="peseta" unicode="&#x20a7;" horiz-adv-x="1039" 
d="M781 -22q-24 0 -40 12.5t-16 34.5q0 62 88 109q-39 78 -46 136q-66 -183 -113 -248q-29 -44 -61 -44q-33 3 -47 30.5t-14 90.5q0 93 36 260q-56 -93 -126 -93q-25 0 -45 16t-27 30t-7 19t5 5q4 0 5 -4q20 -51 53 -51q28 0 64.5 48t62 115.5t25.5 117.5q0 75 -59 75
q-63 0 -111 -49t-73 -122t-45 -158.5t-30.5 -158.5t-26.5 -122t-36 -49q-36 0 -36 122q0 105 26 247.5t64 233.5q-65 -1 -111.5 -13.5t-67.5 -29.5t-32.5 -33.5t-16 -28.5t-8.5 -12q-5 0 -5 5q0 2 1.5 8t7.5 17.5t16 23.5t29 25.5t43.5 23.5t63 17t84.5 7q50 117 111 117
q20 0 30.5 -9.5t10.5 -25.5q0 -25 -29.5 -51t-84.5 -37q-19 -63 -59 -281.5t-40 -289.5q0 -26 6 -26q18 3 31 61.5t27 144t34.5 174t64.5 163.5t106 101q43 17 72 17q74 0 86 -85l28 97q-58 14 -87 14q-47 0 -83 -24l-1 -1q-2 0 -4 5l1 3q37 24 86 24q30 0 90 -14l38 118
q11 31 46 31q20 0 20 -12l-43 -152q27 -6 53 -6q63 0 109 47l6 1l1 -3l-2 -3q-49 -50 -115 -50q-22 0 -54 7q-1 -4 -15 -53t-21 -73t-22 -79t-23.5 -89.5t-20.5 -85t-18.5 -86t-11.5 -72t-5 -60.5q0 -58 27 -58q59 0 165 305q1 46 30 70.5t68 24.5q45 0 45 -35q0 -14 -9 -33
t-13 -19q-6 0 -6 5l9 17q9 17 9 30q0 24 -32 24q-21 0 -36 -15.5t-15 -50.5q0 -57 46 -156q3 1 20.5 9t22.5 10.5l21 10.5t22.5 12t19 12t18.5 14.5t14 15t12.5 17t7.5 18.5q1 4 5 4q5 0 5 -5q0 -14 -11 -29t-24.5 -26.5t-36 -25t-36 -20t-35.5 -16.5l-21 -10q12 -29 12 -59
q0 -53 -29.5 -82t-66.5 -29zM297 595q50 12 75.5 34.5t25.5 44.5q0 23 -25 23q-10 0 -19.5 -5.5t-17 -14.5t-14 -20t-11 -21.5t-7.5 -19.5l-5 -15zM769 -12q23 0 42.5 23t19.5 58q0 13 -3 27.5t-6 22t-4 7.5q-3 0 -22 -11t-40 -36t-21 -54q0 -16 10 -26.5t24 -10.5z" />
    <glyph glyph-name="Euro" unicode="&#x20ac;" horiz-adv-x="490" 
d="M198 31q-61 0 -93 60.5t-32 154.5q0 54 11 112h-71q-3 0 -3 5q0 3 3 3h73q5 25 11 41h-84q-3 0 -3 4t3 4h86q27 95 82 176t132 107q20 8 56 8q45 0 78 -15.5t33 -44.5q0 -5 -4 -5q-5 0 -5 5q0 20 -22.5 35t-55.5 15q-36 0 -73 -20q-109 -61 -168 -261h72q3 0 3 -4t-3 -4
h-75l-10 -41h85q3 0 3 -3q0 -5 -3 -5h-86q-17 -80 -17 -147q0 -75 21.5 -121.5t66.5 -46.5q23 0 46 11q83 35 202 181l4 2l2 -1l2 -4l-1 -3q-125 -152 -211 -187q-31 -11 -55 -11z" />
    <glyph glyph-name="numero" unicode="&#x2116;" horiz-adv-x="1107" 
d="M541 -46q-44 0 -44 58q0 60 71 269.5t71 282.5q0 31 -13.5 47.5t-36.5 16.5q-33 0 -75 -33t-86 -95.5t-82.5 -170t-57.5 -239.5l-4 -36q-1 -10 -14 -10q-15 0 -29 12.5t-14 32.5q0 17 8 83.5t37 189.5t72 213q-19 -1 -55 -2.5t-62 -2.5t-60 -5t-57.5 -12t-45.5 -21
t-33 -34.5t-11 -50.5q0 -30 9 -62t9 -33q0 -5 -5 -5t-14 37t-9 63q0 37 18 63t43 39t65.5 20.5t71.5 9t76 3t65 3.5q73 145 154 145q36 0 36 -29q0 -28 -35.5 -62t-93.5 -52q-17 -5 -43 -95.5t-46 -198.5q126 346 286 346q80 0 80 -97q0 -70 -41 -191.5t-82 -225t-41 -130.5
q0 -30 22 -30q26 0 63.5 46.5t67 103t52.5 103t25 46.5q6 0 6 -6q-3 -6 -7.5 -17t-19.5 -42.5t-30 -60.5t-36.5 -64t-41.5 -60t-42 -42.5t-41 -17.5zM407 597q7 2 22.5 9t40 20t42 33t17.5 41q0 8 -6 13.5t-15 5.5q-21 0 -49.5 -31t-51.5 -91zM832 341q-37 0 -55 32.5
t-18 78.5q0 37 10.5 64.5t27.5 27.5q10 0 21.5 -10t11.5 -14q-39 -67 -39 -116q0 -48 46 -52q63 1 104 87q-55 11 -86 50.5t-31 84.5q0 36 21 60t60 24q74 0 74 -96q0 -58 -22 -111q12 -4 27 -4q34 0 63.5 21t40.5 51q2 3 4 3q5 0 5 -4q0 -2 -3.5 -10t-12.5 -20.5t-22 -24
t-35.5 -20t-48.5 -8.5l-24 2q-26 -53 -58 -74.5t-61 -21.5zM948 454q22 53 22 107q0 38 -13 61t-38 23q-28 0 -41.5 -16.5t-13.5 -43.5q0 -38 23.5 -77.5t60.5 -53.5zM998 303h-270q-5 0 -5 5t5 5h270q5 0 5 -5t-5 -5z" />
    <glyph glyph-name="trademark" unicode="&#x2122;" horiz-adv-x="889" 
d="M134 323q-17 0 -36 9.5t-30 19.5t-11 13t2 3l5 -4q4 -4 11 -10t15.5 -11.5t18.5 -9.5t18 -4q27 0 39.5 42.5t14.5 97.5t16.5 117.5t44.5 93.5q-45 6 -75 6q-33 0 -55.5 -5.5t-32.5 -14t-14.5 -16.5t-6 -13.5t-3.5 -5.5t-2 3q0 8 4.5 16.5t16 18t36.5 15.5t59 6
q33 0 78 -6q28 25 73 25q37 0 69 -14t32 -27q0 -16 -22 -16q-11 0 -31 4t-50 10.5t-54 10.5q-24 -26 -37.5 -88t-18 -119t-22.5 -102t-52 -45zM399 657q16 0 16 10q0 11 -27 23t-57 12q-38 0 -62 -21q24 -4 53.5 -10.5t48 -10t28.5 -3.5zM687 299q-32 0 -32 36
q0 39 48.5 151t48.5 134q0 13 -8 14q-24 -1 -55.5 -43.5t-57 -92.5t-53.5 -92t-45 -42t-17 23t23.5 91.5t23.5 84.5q0 13 -9 13q-19 0 -44 -20t-39 -37.5t-25 -34.5q-25 -38 -34.5 -74.5t-10 -51.5t-8.5 -15q-31 0 -31 16q0 14 5 46t26 91t54 105h-55q-31 0 -53 -2t-47 -7.5
t-38 -19t-13 -34.5q0 -6 1.5 -12l2.5 -10l1 -4q-1 -2 -3 -2t-4 2q-4 12 -4 25q0 22 14 37t39.5 21.5t49 8.5t56.5 2h56l6 8q6 7 15.5 17.5t21.5 21t27.5 18t29.5 7.5t25 -8.5t11 -19.5q0 -39 -106 -47q-35 -62 -57 -145q12 22 29.5 46.5t49 51.5t58.5 27q33 0 33 -39
q0 -26 -14.5 -67t-28.5 -72.5t-14 -33.5h2q13 2 38.5 44.5t51 92t59.5 90.5t61 41q30 0 30 -36v-1q0 -47 -50.5 -157.5t-50.5 -126.5q0 -13 16 -13q15 0 34.5 16.5t38 40.5t34 48t25.5 40l10 17q4 0 4 -2q0 -5 -24 -44.5t-61.5 -80.5t-66.5 -41zM483 607q96 9 96 43
q0 9 -7.5 16t-16.5 7q-33 0 -72 -66z" />
    <glyph glyph-name="NAME_PREVIEW" unicode="&#xe000;" horiz-adv-x="2417" 
d="M2017 394l-7 1q-21 7 -21 29l1 7q7 20 28 20q5 0 8 -1q21 -5 21 -26q0 -3 -2 -9q-5 -21 -28 -21zM2417 263q0 -12 -7 -24.5t-20.5 -24t-27 -21.5t-32.5 -20t-31 -16t-27.5 -13t-17.5 -8q12 -29 12 -59q0 -53 -29.5 -81.5t-66.5 -28.5q-24 0 -40 12.5t-16 34.5
q0 61 88 108q-32 64 -42 112q-31 -54 -79 -107.5t-88 -54.5q-54 0 -54 107q0 11 2 33q-33 -64 -65.5 -120t-80 -111.5t-80.5 -58.5v-1l-13 -1q-27 0 -27 34q0 38 46 164t46 167q0 36 -24 40q-56 -2 -98 -71.5t-89 -224.5q-5 -35 -30 -38q-6 0 -7 6q-3 37 -3 76q0 71 9 140
q-32 -49 -83.5 -88.5t-102.5 -39.5q-47 0 -72 30t-27 76q-34 -83 -78 -147.5t-85 -64.5q-49 0 -49 87q0 59 24 173q-42 -74 -65 -95q-21 -19 -41 -19q-31 0 -46.5 24t-15.5 62l1 6q-18 -44 -39.5 -89.5t-51 -98.5t-61.5 -86t-59 -33q-47 0 -47 76q0 66 36.5 195t72.5 249
t36 161q0 25 -12 29q-35 -2 -82.5 -92t-86 -196.5t-80.5 -195t-67 -88.5t-25 48q0 50 35 195.5t35 179.5q0 27 -13 27q-29 0 -66 -42.5t-57.5 -80.5t-36.5 -72q-25 -52 -39.5 -103.5t-18.5 -85t-6 -60t-5 -39t-11 -12.5q-20 0 -31 8.5t-12.5 14.5t-1.5 11q0 30 7.5 97
t38.5 193t80 223h-82q-37 0 -63.5 -2t-59.5 -9.5t-53.5 -21.5t-35 -39.5t-14.5 -60.5q0 -13 2 -25.5t4 -20t2 -8.5q0 -5 -5 -5q-3 0 -5 4q-7 27 -7 54q0 38 15 66t37 42.5t56.5 23t63 10.5t66.5 2h84l4 8q5 9 13 22.5t18.5 30t23.5 33t27 30t30.5 22t31.5 8.5q22 0 38 -17.5
t16 -41.5q0 -35 -38 -63.5t-119 -37.5q-52 -129 -86 -306q14 34 31 69t45.5 84.5t62.5 80.5t65 31q50 0 50 -83q0 -55 -21.5 -142.5t-42.5 -154t-21 -70.5q20 0 59 88.5t77.5 195.5t88.5 195.5t91 88.5q15 0 25 -9.5t14 -25t5 -24.5t1 -17v-2q0 -76 -37.5 -207.5t-75.5 -246
t-38 -148.5q0 -12 6 -19t10.5 -8t7.5 -1q69 0 204 327q10 48 37 82.5t64 34.5q41 0 83 -43q9 33 35 33q19 0 19 -8q0 -4 -15.5 -70t-31 -142.5t-15.5 -105.5q0 -35 20 -35q63 0 158 226q7 56 41.5 97t84.5 41q22 0 35.5 -13.5t13.5 -40.5q0 -5 -5 -5t-5 5q0 16 -7.5 24.5
t-18.5 8.5q-30 0 -67 -60.5t-37 -113.5q0 -70 72 -70q36 0 93 42t87 101q19 126 57 238q-37 -10 -73 -10q-65 0 -128 33t-117 83.5t-105.5 103t-111.5 100t-117 65.5q-44 14 -85 14q-71 0 -123.5 -39.5t-65.5 -114.5l-9 2q12 78 66.5 120t130.5 42q44 0 89 -15
q58 -19 118.5 -66t111.5 -99.5t104.5 -103t115.5 -83.5t125 -33q38 0 78 12q2 4 5.5 14t5.5 15q80 213 205 239q12 3 30 3q28 0 48.5 -10.5t20.5 -33.5v-2q-1 -38 -51.5 -84.5t-104.5 -77.5t-101 -51q-49 -155 -85 -416q37 117 78 182q44 69 103 70h3q61 0 61 -70
q0 -59 -49 -186t-49 -140q0 -7 4 -8q32 3 81.5 64.5t83 120.5t65.5 123q6 45 18 84q9 32 44 32l14 -2q8 -2 8 -9l-1 -3q-5 -22 -20.5 -74.5t-24 -89.5t-8.5 -60q0 -33 21 -33q31 1 78.5 48t82.5 119q-2 20 -2 30q0 43 23 66q31 31 75 31q45 0 45 -35q0 -14 -9 -33t-13 -19
q-6 0 -6 5q0 1 2 4t5.5 9.5t6.5 15.5q4 8 4 18t-8 17q-8 6 -24 6q-21 0 -36 -15t-15 -50q0 -59 46 -156q3 2 18.5 8.5t20 9t18.5 9.5t20 10.5l18 10.5t18 12t14.5 12.5t13 14.5t9.5 15t7 17q1 4 5 4q5 0 5 -5zM1850 747l-17 -1q-32 -4 -62 -29.5t-50.5 -58t-36.5 -66.5
t-23.5 -56t-7.5 -25q115 52 178.5 109.5t63.5 94.5q0 32 -45 32zM477 704q-49 0 -106 -140q76 9 109.5 34.5t33.5 56.5q0 20 -11.5 34.5t-25.5 14.5zM960 140h1q5 0 11 3.5t12.5 10.5t13 15t13.5 18.5t12.5 19.5t12 21t10 18.5t8.5 16t6 11.5q5 25 9 39q-7 10 -25 21.5
t-33 11.5q-33 0 -53.5 -48t-20.5 -100q0 -58 23 -58zM2158 -23q23 0 42.5 23t19.5 56q0 14 -3 28t-6 21.5t-4 7.5q-3 0 -22 -11t-40 -35.5t-21 -52.5q0 -16 10 -26.5t24 -10.5z" />
    <glyph glyph-name="threesuperior" horiz-adv-x="289" 
d="M137 280q-38 0 -66.5 25.5t-28.5 58.5l1 12q0 3 3 3q4 0 4 -3l-1 -4q-1 -4 -1 -7q0 -28 24.5 -52.5t53.5 -24.5q30 0 54.5 26t24.5 68q0 20 -7.5 39.5t-17.5 33t-20.5 23.5t-17.5 16l-8 5q0 2 2.5 3t10 5t16.5 10q55 43 55 85q0 27 -21.5 46t-48.5 19q-43 0 -56 -46
q0 -3 -3 -3t-3 5q0 16 19.5 35.5t53.5 19.5t57 -20.5t23 -52.5q0 -33 -24.5 -63t-59.5 -42q37 -11 62 -43t25 -70q0 -44 -37 -78q-29 -29 -68 -29z" />
    </font>
</defs>
</svg>
