<?xml version="1.0" standalone="no"?>
<!DOCTYPE svg PUBLIC "-//W3C//DTD SVG 1.1//EN" "http://www.w3.org/Graphics/SVG/1.1/DTD/svg11.dtd" >
<svg xmlns="http://www.w3.org/2000/svg" xmlns:xlink="http://www.w3.org/1999/xlink" version="1.1">
<metadata>
Created by FontForge 20170731 at Fri Aug 23 12:27:13 2019
 By Aleksey,,,
Copyright (c) 2017 by Jamalodin. All rights reserved.
</metadata>
<defs>
<font id="MaheisaScript" horiz-adv-x="373" >
  <font-face 
    font-family="Maheisa Script"
    font-weight="400"
    font-stretch="normal"
    units-per-em="1000"
    panose-1="2 0 5 4 0 0 0 2 0 2"
    ascent="800"
    descent="-200"
    x-height="328"
    cap-height="739"
    bbox="-1599.33 -525.626 1706 922.721"
    underline-thickness="50"
    underline-position="-200"
    unicode-range="U+000D-FB02"
  />
<missing-glyph horiz-adv-x="170" 
 />
    <glyph glyph-name="r_r" unicode="rr" horiz-adv-x="496" 
d="M291 272q-19 4 -39 14q-107 -213 -171 -292q-33 -40 -62 -54t-45.5 6.5t-11.5 75.5q4 52 31 125.5t53 122.5q-34 7 -63.5 28.5t-32.5 58.5q-2 30 20 43.5t44 0.5t20 -46q-1 -23 -22 -57q13 -8 56 -18q19 -4 21 -11.5t-6 -25.5q-5 -14 -40 -99t-45 -123
q-12 -48 -3.5 -61.5t30 -1.5t47.5 43q19 23 37 50t40 65.5t32 57t35 67t26 51.5q-46 27 -65 71t4 94q16 30 47 34.5t50 -23.5q39 -63 -19 -169q20 -13 52 -20q20 -4 22.5 -11.5t-6.5 -24.5q-54 -123 -68 -193q-5 -25 1 -34.5t20 -3.5t31 23q36 34 72 84t56 83t57 98
q3 4 7.5 1.5t2.5 -6.5q-98 -178 -187 -270q-20 -20 -40 -28.5t-35.5 3.5t-15.5 49q-3 101 63 223zM204 447q-19 -38 -4.5 -79t49.5 -63q13 22 21.5 47t11 55.5t-11.5 52.5q-15 21 -34.5 14.5t-31.5 -27.5zM2 304q19 27 19 50t-13 32t-26 0.5t-13 -28.5q0 -33 33 -54z" />
    <glyph glyph-name="s_s" unicode="ss" horiz-adv-x="428" 
d="M31 -45q-25 -17 -51.5 -18t-43.5 18.5t-13 55.5q5 44 35.5 70.5t83.5 48.5q-1 5 -21 61t-23 88q-4 55 22 85q23 27 61 24.5t52 -38.5q11 -26 0 -51q-1 -4 -6 -3.5t-4 5.5q9 23 -1 40q-9 19 -30.5 17t-33.5 -21q-11 -16 -11 -43.5t5.5 -49t16.5 -56.5t14 -45q77 27 131 94
q-17 46 -21 86q-4 56 22 86q23 28 62 25.5t53 -39.5q11 -26 0 -52q-1 -4 -6 -3.5t-4 5.5q9 24 -1 41q-9 19 -31 17t-34 -21q-12 -16 -11.5 -44t6 -50t16.5 -57.5t14 -45.5q92 33 149 115q2 3 5 2.5t4.5 -3t0.5 -4.5q-62 -88 -157 -120q12 -54 -2.5 -104t-52.5 -77
q-37 -29 -76 -14t-33 70q5 45 36 72t85 49l-19 54q-59 -67 -134 -92q12 -52 -2.5 -101.5t-51.5 -76.5zM242 159q-105 -35 -114 -109q-6 -46 24 -59t62 16q28 24 35 70t-7 82zM46 118q-103 -35 -112 -107q-6 -46 23.5 -58.5t61.5 15.5q27 24 34 69t-7 81z" />
    <glyph glyph-name="t_h" unicode="th" horiz-adv-x="640" 
d="M214 667q-38 -63 -81 -161q103 -15 176 -1l11 23q35 72 94.5 143.5t122.5 95.5q49 19 67.5 -1.5t9.5 -60.5q-17 -71 -86.5 -121.5t-159.5 -74.5q-79 -174 -100 -381q59 99 108 148q38 36 64 33q20 -2 28 -27t1 -64q-7 -37 -37 -116.5t-36 -125.5q-3 -21 1.5 -32.5
t12.5 -11.5t17 5q26 19 59 70t56.5 96.5t55.5 112t42 84.5q1 2 4 2t5 -2t1 -5q-5 -9 -52.5 -109t-87 -165.5t-75.5 -95.5q-29 -25 -54 -17q-33 11 -35 65q-2 57 36.5 150.5t45.5 127.5q6 32 -3.5 40t-41.5 -23q-51 -51 -118 -167q-40 9 -38 75q5 87 25 168
q-104 -226 -165 -299q-47 -58 -88 -45.5t-41 94.5q0 143 123 412q-36 7 -102 22t-106 23t-98.5 14.5t-100 2.5t-88 -21t-83.5 -49q-5 -5 -8 2q-2 3 1 6q38 32 85.5 49.5t90 21.5t101.5 -2.5t100.5 -15t107.5 -23.5t103 -22q53 113 89 156q2 3 4.5 4.5t4.5 2.5t5 0.5t5 -0.5
t5.5 -1.5t5 -2.5t6 -3t5.5 -3zM304 495q-73 -13 -174 2q-111 -256 -126 -404q-6 -57 15 -71t61 33q65 79 193 362q9 26 31 78zM374 520q79 22 145.5 69t83.5 118q7 30 -4 43t-49 -3q-39 -20 -75 -63t-54 -74.5t-47 -89.5z" />
    <glyph glyph-name="t_t" unicode="tt" horiz-adv-x="478" 
d="M214 667q-11 -18 -31 -56q119 -19 167 -22h3q26 49 53 81q2 3 4.5 4.5t4.5 2.5t5 0.5t5 -0.5t5.5 -1.5t5 -2.5t6 -3t5.5 -3q-13 -21 -44 -81q73 -3 130 3t108 24t85.5 54t49.5 89q1 4 7 4q5 -2 3 -7q-16 -56 -52 -93.5t-89.5 -56.5t-112.5 -25t-134 -3l-47 -106
q-108 -250 -111 -370q-1 -35 17 -43.5t48 10.5q32 20 72.5 73.5t62.5 91t38 69.5q2 4 7 2t3 -7q-94 -180 -176 -238q-34 -28 -72 -22t-44 56q-10 77 31 200q-91 -187 -140 -246q-47 -58 -88 -45.5t-41 94.5q0 142 115 395q44 95 58 119q-83 13 -143.5 19t-134.5 7
t-130 -13.5t-92 -45.5q-1 -1 -3.5 -1t-3.5 1q-3 5 0 8q38 32 96 47.5t133.5 14.5t137 -7.5t146.5 -19.5q22 36 36 52q2 3 4.5 4.5t4.5 2.5t5 0.5t5 -0.5t5.5 -1.5t5 -2.5t6 -3t5.5 -3zM306 489q30 68 41 89q-34 2 -169 23q-26 -53 -60 -132q-99 -228 -114 -376
q-6 -57 15 -71t61 33q58 71 201 378z" />
    <glyph glyph-name="l_l" unicode="ll" horiz-adv-x="570" 
d="M310 52q-50 14 -54 102q-131 -186 -210 -172q-35 6 -52.5 41t-16 74.5t2.5 75.5q12 151 70.5 295t163.5 233q41 35 76.5 42t53.5 -21t7 -89q-19 -108 -107.5 -210t-193.5 -143q-14 -57 -22 -108q-25 -151 28 -168q24 -7 52.5 7.5t57 46t46.5 55.5t38 53l6 9v1
q7 148 70 305t161 238q44 36 85.5 43t64.5 -21.5t12 -89.5q-18 -103 -112 -205q-97 -103 -214 -148q-36 -136 -22 -196q8 -31 34.5 -34t57.5 24q102 90 177 208q2 3 5 2.5t4.5 -3t0.5 -4.5q-75 -118 -181 -212q-49 -42 -89 -31zM540 711q-131 -110 -213 -400q112 45 202 143
q90 95 109 199q12 66 -18.5 82.5t-79.5 -24.5zM267 693q-132 -114 -213 -400q95 38 181.5 139t104.5 203q11 60 -10.5 76.5t-62.5 -18.5z" />
    <glyph glyph-name="f_f" unicode="ff" horiz-adv-x="583" 
d="M185 -32q-25 -8 -48 -2q-21 6 -24.5 27t13.5 33q18 11 38.5 6.5t33.5 -17.5q4 15 31 109.5t42 144.5q-49 -51 -103.5 -77.5t-162.5 -62.5l-1 -4q23 -39 25.5 -101.5t-17.5 -110.5q-8 -21 -21.5 -34t-27 -14t-25 6.5t-17 29t-2.5 50.5q15 133 83 359q137 482 300 490
q29 2 47 -22t17 -72q-1 -113 -90.5 -223t-200.5 -130q-35 -106 -67 -212q81 29 114.5 42t76.5 41t79 69q45 144 92 243q23 48 59 102.5t77 89.5q51 46 91.5 33t39.5 -90q-1 -113 -90.5 -223t-200.5 -130q-17 -53 -99 -323q42 15 83.5 41.5t71.5 52t67 68t57.5 69t56.5 74.5
q2 3 5 2.5t4.5 -3t0.5 -4.5q-36 -48 -58.5 -77t-60 -71t-69.5 -69t-74.5 -53.5t-86.5 -41.5l-4 -14q23 -40 27 -97t-16 -105q-10 -26 -29.5 -40t-38.5 -5.5t-24 44.5q-11 75 26 202zM250 734q-33 -34 -61 -84t-41.5 -85t-37 -106t-32.5 -95q103 17 190 125.5t87 216.5
q0 43 -17 57.5t-40.5 5t-47.5 -34.5zM421 523q-25 -55 -72 -194q103 17 190 125.5t87 216.5q0 43 -15 57t-35.5 4.5t-45.5 -34.5q-54 -56 -109 -175zM-43 -70q-4 -28 3 -37.5t18.5 -1t21.5 27.5q18 41 17.5 94t-18.5 97q-36 -129 -42 -180zM196 -216q-4 -28 3 -37.5t18.5 -1
t21.5 27.5q37 83 -4 181q-33 -118 -39 -170zM195 4q-10 11 -27.5 16t-32.5 -5q-8 -7 -7 -20t14 -18q20 -8 46 2z" />
    <glyph glyph-name=".notdef" horiz-adv-x="170" 
 />
    <glyph glyph-name=".null" horiz-adv-x="0" 
 />
    <glyph glyph-name="nonmarkingreturn" horiz-adv-x="333" 
 />
    <glyph glyph-name="NULL" horiz-adv-x="0" 
 />
    <glyph glyph-name="NULL" horiz-adv-x="0" 
 />
    <glyph glyph-name="CR" unicode="&#xd;" horiz-adv-x="170" 
 />
    <glyph glyph-name="space" unicode=" " horiz-adv-x="170" 
 />
    <glyph glyph-name="exclam" unicode="!" horiz-adv-x="278" 
d="M78 46q-1 -4 -5 -5t-7 1t-3 5l112 568q5 28 33 28q24 0 29 -18v-12zM40 -22q0 9 6 15t15 6q8 0 14 -6t6 -15q0 -8 -5.5 -14.5t-14.5 -6.5q-8 0 -14.5 6t-6.5 15z" />
    <glyph glyph-name="quotedbl" unicode="&#x22;" horiz-adv-x="156" 
d="M41 626l5 74q0 6 7.5 6.5t13.5 -2.5t5 -8l-25 -72q0 -5 -5 -1q-1 1 -1 3zM84 626l5 74q0 6 7.5 6.5t13.5 -2.5t5 -8l-25 -72q0 -5 -5 -1q-1 1 -1 3z" />
    <glyph glyph-name="numbersign" unicode="#" horiz-adv-x="410" 
d="M91 301h-27q-3 0 -4.5 2.5t0 5t4.5 2.5h30q8 37 38 146h-30q-5 0 -5 5.5t5 5.5h34l42 162q4 11 19 8t13 -15q-6 -34 -32 -155h116l43 162q3 11 18.5 8t13.5 -15q-7 -43 -33 -155h28q5 0 5 -5.5t-5 -5.5h-30q-22 -98 -36 -146h28q3 0 4.5 -2.5t0 -5t-4.5 -2.5h-30
l-63 -238q-4 -11 -18.5 -8.5t-13.5 15.5q11 71 50 231h-114q-8 -30 -29.5 -111.5t-34.5 -126.5q-3 -11 -18 -8.5t-14 15.5q14 84 50 231zM140 311h114q17 73 38 146h-117q-7 -33 -35 -146z" />
    <glyph glyph-name="dollar" unicode="$" horiz-adv-x="457" 
d="M317 713q2 6 7 4q5 0 5 -7l-5 -27q43 -8 68 -39q38 -46 18 -121q-1 -4 -4 -4.5t-5 1.5t-1 6q17 73 -17 112q-24 27 -62 30l-53 -269q23 -27 31 -36.5t25.5 -34.5t23.5 -41.5t11 -41t2 -48.5q-8 -63 -54.5 -108t-108.5 -48l-5 -25q-2 -7 -7 -5q-5 0 -5 8l4 21
q-36 2 -68 17q-43 20 -63 62.5t-12 89.5t41 80q7 6 10 -1q1 -3 -1 -5q-29 -30 -37 -73.5t10 -82.5t58 -56q33 -15 66 -12l57 295q-5 6 -23 28t-28 35q-35 45 -45 93.5t15 101.5q22 37 63 57.5t83 15.5zM221 459q11 -16 37 -48l50 257q-31 -1 -58.5 -17t-42.5 -43
q-17 -33 -13 -73.5t27 -75.5zM300 207q4 68 -44 133l-54 -278q42 10 68 51.5t30 93.5z" />
    <glyph glyph-name="percent" unicode="%" horiz-adv-x="302" 
d="M245 745q2 6 8 4q2 0 3.5 -2.5t0.5 -4.5l-203 -710q-2 -6 -7 -4q-6 1 -4 6zM118 745q26 0 38.5 -25.5t10.5 -55t-4 -50.5q-6 -41 -23.5 -74t-49.5 -33q-61 0 -48 120q3 18 7.5 35.5t13 37.5t23 32.5t32.5 12.5zM138 617q3 12 4.5 28t2.5 39t-5.5 38.5t-20.5 15.5
q-32 0 -52 -113q-21 -113 23 -113q33 0 48 105zM212 266q26 0 38.5 -25.5t10.5 -55t-4 -50.5q-6 -41 -23.5 -74t-49.5 -33q-61 0 -48 120q3 18 7.5 35.5t13 37.5t23 32.5t32.5 12.5zM232 138q3 12 4.5 28t2.5 39t-5.5 38.5t-20.5 15.5q-32 0 -52 -113q-21 -113 23 -113
q33 0 48 105z" />
    <glyph glyph-name="ampersand" unicode="&#x26;" horiz-adv-x="454" 
d="M382 328q32 -42 31.5 -87t-24.5 -93q10 -61 -5 -119t-59.5 -97.5t-109.5 -39.5q-97 0 -141 99q-2 6 3.5 8t7.5 -3q41 -87 120 -87q49 0 81.5 33.5t44 74.5t11.5 83q-87 -52 -167 -33q-60 14 -97.5 59.5t-37 104t42.5 105.5q46 51 162 94q-32 114 10 179q23 36 60 40
t64.5 -22t27.5 -68q0 -28 -12 -51t-36 -40t-43.5 -26.5t-50.5 -21.5l22 -55q58 3 95 -37zM266 593q-30 -54 -6 -157q30 13 44 20t38.5 23t35.5 36t11 44q0 34 -23 54t-52.5 15t-47.5 -35zM214 84q62 -12 128 31q-10 89 -67 235q-76 -22 -78 -89q0 -6 -6 -6t-6 6q3 76 83 101
q-3 10 -10 27.5t-9 24.5q-74 -29 -112 -77q-33 -44 -34.5 -99.5t29 -99t82.5 -54.5zM384 166q21 32 19 80t-32 76q-34 32 -78 31q5 -10 23.5 -43.5t27 -49.5t20.5 -43.5t20 -50.5z" />
    <glyph glyph-name="quotesingle" unicode="'" horiz-adv-x="113" 
d="M41 626l5 74q0 6 7.5 6.5t13.5 -2.5t5 -8l-25 -72q0 -5 -5 -1q-1 1 -1 3z" />
    <glyph glyph-name="parenleft" unicode="(" horiz-adv-x="308" 
d="M267 643q-129 -141 -172 -352q-42 -196 4 -334q1 -2 -1 -3t-3 1q-80 164 -43 343q43 204 211 348q2 2 3.5 0.5t0.5 -3.5z" />
    <glyph glyph-name="parenright" unicode=")" horiz-adv-x="308" 
d="M41 -43q129 141 172 352q42 196 -4 334q-1 2 1 3t3 -1q80 -164 43 -343q-43 -204 -211 -348q-2 -2 -3.5 -0.5t-0.5 3.5z" />
    <glyph glyph-name="asterisk" unicode="*" horiz-adv-x="217" 
d="M166 680q4 2 7.5 -0.5t3.5 -6.5t-4 -6l-59 -28l58 -29q4 -2 4 -6t-3.5 -6.5t-7.5 -0.5l-54 38l4 -65q0 -5 -3.5 -7t-7.5 0t-4 6l6 65l-55 -35q-4 -2 -7.5 0t-3.5 6t4 6l59 28l-58 30q-4 2 -4 6.5t3.5 6t7.5 -0.5l54 -37l-4 65q0 5 4 7t7.5 0t3.5 -7l-6 -65z" />
    <glyph glyph-name="plus" unicode="+" horiz-adv-x="277" 
d="M138 201q-6 0 -6 6v86h-86q-6 0 -6 6t6 6h86v86q0 7 6 7t6 -7v-86h86q7 0 7 -6t-7 -6h-86v-86q0 -6 -6 -6z" />
    <glyph glyph-name="comma" unicode="," horiz-adv-x="120" 
d="M41 52q20 11 25 33q-10 -4 -17 1.5t-8 15.5q0 12 9.5 17t18.5 0t10 -17q1 -33 -33 -56q-3 -1 -4.5 1t-0.5 5z" />
    <glyph glyph-name="hyphen" unicode="-" horiz-adv-x="277" 
d="M46 293q-6 0 -6 6t6 6h185q6 0 6 -6t-6 -6h-185z" />
    <glyph glyph-name="period" unicode="." horiz-adv-x="138" 
d="M69 122q17 0 19 -19q-2 -18 -19 -20q-17 2 -19 20q2 19 19 19z" />
    <glyph glyph-name="slash" unicode="/" horiz-adv-x="304" 
d="M251 744q2 6 8 4t4 -8l-211 -707q-2 -6 -7 -4q-6 1 -4 7z" />
    <glyph glyph-name="colon" unicode=":" horiz-adv-x="150" 
d="M91 387q-18 0 -18 20q0 8 5 13.5t13 5.5q19 0 19 -19q0 -20 -19 -20zM59 252q-19 2 -19 21q0 8 5.5 13t13.5 5q17 0 19 -18q-2 -19 -19 -21z" />
    <glyph glyph-name="semicolon" unicode=";" horiz-adv-x="151" 
d="M92 426q19 0 19 -19q0 -20 -19 -20q-18 0 -18 20q0 8 5 13.5t13 5.5zM41 272q0 12 9.5 17t18.5 0t10 -17q0 -35 -34 -56q-2 -1 -3.5 1t-0.5 5q19 11 25 33q-10 -4 -17.5 1.5t-7.5 15.5z" />
    <glyph glyph-name="less" unicode="&#x3c;" horiz-adv-x="288" 
d="M241 420q5 2 6.5 -1t-2.5 -6l-152 -125l121 -153q3 -5 0 -7.5t-7 1.5l-163 155q-6 6 1 11z" />
    <glyph glyph-name="equal" unicode="=" horiz-adv-x="252" 
d="M206 273q6 0 6 -6t-6 -6h-160q-6 0 -6 6t6 6h160zM206 338q6 0 6 -6t-6 -6h-160q-6 0 -6 6t6 6h160z" />
    <glyph glyph-name="greater" unicode="&#x3e;" horiz-adv-x="289" 
d="M47 128q-5 -4 -6 1q-1 3 2 6l152 124l-120 154q-6 7 1 8q3 0 5 -2l164 -155q6 -6 -1 -11z" />
    <glyph glyph-name="question" unicode="?" horiz-adv-x="404" 
d="M60 -43q-8 0 -14 6.5t-6 15.5q0 8 6 14t14 6t14 -5.5t6 -14.5q0 -22 -20 -22zM60 70q4 24 10.5 46.5t19 45.5t22 39t28.5 41t28.5 37t33 40t31.5 37q84 102 69 201q-6 41 -31.5 60.5t-56 17.5t-59.5 -20q-62 -40 -62 -122q0 -5 -5.5 -5t-5.5 5q-3 83 64 129q47 35 110 23
t91 -67q24 -43 15.5 -91t-31.5 -87t-58 -73q-11 -11 -41.5 -39.5t-40 -38t-30.5 -34t-30.5 -42.5t-21.5 -46t-20 -60q-2 -8 -9.5 -10.5t-14 1.5t-5.5 12z" />
    <glyph glyph-name="at" unicode="@" horiz-adv-x="703" 
d="M566 46q-72 -55 -157 -77.5t-171 1t-141 97.5q-70 93 -53 231q17 126 99 224q71 82 172.5 112.5t206.5 -7.5q71 -30 107 -94.5t34 -139.5t-36 -145q-40 -86 -106 -132q-59 -42 -99.5 -25.5t-37.5 87.5q4 77 41 162q-66 -88 -96 -110q-33 -24 -52 0q-14 25 -13 51.5
t11 51.5q11 26 31 47t43.5 32t49.5 4t46 -34q14 25 38 44q20 16 32 -9q-69 -144 -86 -224q-14 -67 9.5 -88t78.5 18q65 49 103 130q22 48 29 101t-2.5 104t-42.5 94t-86 65q-95 36 -188 1.5t-154 -120.5q-64 -89 -78 -198q-18 -133 51 -234q47 -69 124 -87t151 4.5t138 70.5
q4 3 6.5 -1t-2.5 -7zM404 328l36 48q-19 23 -39.5 25.5t-37.5 -11t-30 -32t-22 -39.5q-15 -35 -15 -65q0 -16 6.5 -21t21.5 5q28 20 80 90z" />
    <glyph glyph-name="A" unicode="A" horiz-adv-x="893" 
d="M418 446q-34 8 -51 11.5t-49 9.5t-49 7t-44.5 2t-44 -3.5t-38.5 -11.5t-36 -20t-29.5 -30.5t-26.5 -42.5t-19 -56q0 -3 -3 -4t-5.5 1t-1.5 5q16 64 48.5 103t63 55t89.5 14.5t91.5 -7t106.5 -22.5h1q72 -17 92 -20q68 147 91 187q26 48 64 90.5t71 35.5q25 -6 34 -51.5
t-2 -113.5t-45 -196q-48 -185 -48 -278q0 -54 27 -63.5t61 30.5q68 80 127 222q2 4 7 1.5t3 -6.5q-60 -146 -135 -236q-44 -50 -77.5 -47t-52 38.5t-15.5 81.5q6 88 53 284q-57 -8 -140 6q-43 -93 -85.5 -159.5t-96.5 -106.5q-26 -20 -54 -15.5t-41 35.5q-7 16 -9 41
q0 3 2.5 4.5t5 0.5t2.5 -4q1 -14 7 -34q9 -24 29.5 -26.5t42.5 15.5q81 66 169 254q-30 5 -90 19zM633 621q-27 -46 -92 -189q79 -13 138 -5q24 94 33 159q8 49 6 77t-11 36t-28.5 -12t-45.5 -66z" />
    <glyph glyph-name="B" unicode="B" horiz-adv-x="793" 
d="M44 422q2 -6 -5 -7q-4 0 -5 4q-54 201 108 245q32 8 72.5 11.5t67 3t77.5 -3t69 -3.5q36 47 64 65q19 14 45 11t33 -24q6 -17 -3 -31t-26 -20q-24 -9 -67 -11q-153 -218 -190 -515q-5 -40 1 -38t29 64q11 30 34.5 98.5t40 109.5t42 96.5t58 98t72.5 75.5q27 22 58.5 33
t61.5 2t44 -41q25 -60 -25 -129t-156 -77q-6 0 -13 -1q-7 0 0 -4l3 -1.5l3 -1.5l4 -2q62 -35 92.5 -94t18.5 -129q50 12 83 33t58 61q2 3 5 2.5t4.5 -3t0.5 -4.5q-48 -78 -153 -101q-14 -74 -81.5 -131t-139.5 -38q-34 8 -44 35t11 56q22 27 59 44.5t66.5 23.5t77.5 12
q19 73 -13 139.5t-104 102.5q-7 4 -6.5 7t8.5 3q80 0 139 47.5t59 127.5q-2 26 -14.5 38.5t-30 11.5t-36 -9t-33.5 -21q-39 -32 -71 -74.5t-58 -97.5t-42 -95.5t-39 -109t-34 -97.5q-18 -49 -26 -65q-28 -49 -48.5 -42.5t-22.5 52.5q-7 136 70 321q57 136 123 227
q-11 0 -65.5 2.5t-76.5 3t-62 -3t-71 -11.5q-151 -40 -101 -231zM435 39q53 -4 95.5 39.5t65.5 106.5q-44 -5 -70.5 -10.5t-63.5 -22.5t-58 -43q-18 -21 -9 -44.5t40 -25.5zM517 717q-16 -19 -35 -44q41 4 55 10q13 4 20.5 15t1.5 22q-5 10 -19 8.5t-23 -11.5z" />
    <glyph glyph-name="C" unicode="C" horiz-adv-x="778" 
d="M25 408q-5 2 -5 6q13 125 68.5 169t146.5 35q56 -6 184 -45q117 160 241 137q47 -8 64.5 -52t-8.5 -84q-18 -29 -47 -43t-67 -11t-65.5 8.5t-66.5 17.5q-117 -182 -101 -381q6 -68 39 -100t98 -9q143 46 272 244q2 3 5 2.5t4.5 -3t0.5 -4.5q-52 -81 -122.5 -151.5
t-146.5 -103.5q-63 -25 -113 -18.5t-81.5 51.5t-31.5 120q1 93 33 191.5t87 179.5q-121 38 -179 44q-86 8 -138.5 -34.5t-64.5 -160.5q0 -5 -6 -5zM660 696q-88 6 -184 -141q97 -26 138 -24q64 3 93 48q23 33 8.5 73t-55.5 44z" />
    <glyph glyph-name="D" unicode="D" horiz-adv-x="861" 
d="M40 415q-6 -2 -6 4q-54 201 108 245q32 8 72.5 11.5t67 3t77.5 -3t69 -3.5q40 49 64 65q24 17 53.5 9t26.5 -40q-5 -41 -98 -44q-153 -214 -190 -515q-6 -48 4 -35q4 6 12 25q15 38 42 110t38 102q66 171 125 252q29 41 60 60q58 32 108 -0.5t68 -107.5q19 -84 4.5 -179
t-56.5 -172q125 19 172 98q2 2 4.5 2t4.5 -2.5t1 -4.5q-53 -85 -187 -105q-37 -70 -95 -115t-130 -43q-37 2 -62 27t-16 63q7 28 27 45t51.5 23t57 7.5t63.5 0t51 -0.5q42 78 57.5 170t-2.5 184q-5 21 -13.5 41.5t-23.5 41t-34 24.5t-44 -7q-28 -16 -57 -56
q-59 -81 -125 -252q-52 -140 -80 -212q-30 -72 -55 -70q-24 2 -26 53q-6 122 56 288q54 148 136 260q-14 0 -65.5 3t-75.5 3t-63.5 -3.5t-70.5 -11.5q-152 -38 -101 -231q2 -5 -4 -7zM459 46q90 7 167 140q-11 0 -47 1t-60 -0.5t-54 -6.5t-48.5 -20.5t-24.5 -39.5
q-8 -31 12.5 -54.5t54.5 -19.5zM517 717q-16 -19 -35 -44q1 0 9 0.5t12 1t12.5 2t13.5 3t11.5 4t10 5.5t6.5 7.5t4 10.5q2 19 -15.5 21.5t-28.5 -11.5z" />
    <glyph glyph-name="E" unicode="E" horiz-adv-x="797" 
d="M24 463q-5 2 -3 7q36 105 134 122q22 4 48 4t45.5 -2t50 -9t44.5 -11t47 -13q-8 64 15.5 113t82.5 66q63 18 128.5 -6.5t85.5 -82.5q12 -34 -2.5 -68t-46.5 -53q-27 -15 -66 -16.5t-65.5 3.5t-66.5 16q-8 2 -11 3q14 -67 47 -118q-128 -13 -193 -78q-55 -55 -55 -136
t53 -125.5t129 -36.5q81 9 141 69q-37 0 -69.5 25t-43.5 61q-10 30 -4 52.5t19.5 40.5t34.5 25.5t41.5 6t40 -17.5t30.5 -44q12 -33 5 -69.5t-29 -66.5q60 14 115 64t91 112q2 4 7 2t3 -7q-39 -68 -99.5 -121.5t-126.5 -61.5q-60 -71 -156 -81q-85 -9 -157.5 37.5
t-80.5 132.5q-7 71 28.5 125t91.5 81t125 34q-31 51 -40 109q-5 1 -28 7.5t-30 8t-28 6.5t-31 6.5t-28.5 4.5t-31 3t-28.5 -0.5t-30 -3.5q-92 -16 -126 -116q-2 -5 -7 -3zM478 201q5 -36 33 -59.5t65 -19.5q12 15 22 36q24 57 7 98q-15 36 -48.5 40t-59 -24t-19.5 -71z
M438 604q-2 -29 4 -57q101 -26 146 -24q34 2 59 16q29 17 42.5 48t-0.5 61q-23 50 -83 65t-112.5 -15t-55.5 -94z" />
    <glyph glyph-name="F" unicode="F" horiz-adv-x="638" 
d="M129 -145q-42 -13 -79.5 5.5t-47.5 61.5q-1 5 3.5 6.5t6.5 -3.5q11 -37 37.5 -51t63.5 5q32 20 61 56t49.5 72.5t42.5 93t34 93.5t30.5 99t26.5 85q-186 31 -205 -67q0 -6 -6 -4q-6 0 -4 6q20 108 218 76q60 182 127 274q-9 0 -60.5 2.5t-71.5 2.5t-57 -1.5t-67 -6.5
q-91 -16 -134.5 -73.5t-22.5 -177.5q0 -4 -5 -6q-4 0 -6 5q-22 125 24 185t142 77q31 5 69 7t61 1.5t72.5 -3t63.5 -2.5q59 72 112 76q24 2 39 -8.5t11 -31.5q-6 -43 -105 -46q-69 -95 -132 -284q79 -13 117 -12q2 34 12 51t28.5 18t29 -13.5t1.5 -34.5q-12 -24 -60 -31
q0 -38 4 -62q0 -5 -5 -7q-4 0 -6 5q-4 26 -4 64q-40 -2 -120 11q-15 -46 -26 -82q-3 -10 -14 -46.5t-17.5 -55.5t-19 -56t-23.5 -59.5t-26.5 -55t-32 -54t-36.5 -44t-43.5 -37.5t-49.5 -23zM556 407q-6 -14 -8 -39q37 5 48 21q11 18 -8 28.5t-30 -6.5zM612 729
q-18 -11 -52 -55h8q9 1 12 1.5t11.5 1.5t13 2.5t11.5 3.5t11.5 4.5t9 6t7 8t3.5 9.5q2 16 -11 21t-24 -3z" />
    <glyph glyph-name="G" unicode="G" horiz-adv-x="785" 
d="M25 323q-5 2 -5 6q5 48 29 81t65 49.5t84 23.5t101 9q42 104 113 175.5t165 74.5q57 3 103 -23t54 -80q8 -56 -36.5 -95.5t-105.5 -54.5q-23 -5 -55.5 -7.5t-57.5 -2.5t-66 1t-58 1q-34 -96 -26 -169q6 -53 32 -71t59 -3.5t63 51.5q34 42 79 107q31 74 83 47
q-70 -232 -129 -345q86 16 148.5 60t120.5 142q2 3 5 3t4.5 -2.5t0.5 -5.5q-62 -103 -128 -148.5t-157 -60.5q-144 -268 -353 -248q-58 6 -88 42t-18.5 81.5t62.5 75.5q31 19 78.5 29.5t82.5 13.5t96 5.5t80 3.5q59 115 101 272q-30 -41 -58 -77q-52 -61 -95 -73t-78.5 6.5
t-47.5 62.5q-22 80 23 201q-55 -2 -96 -8.5t-79.5 -22.5t-61 -46.5t-27.5 -75.5q0 -5 -6 -5zM158 -151q157 -18 286 229q-14 -1 -71 -3.5t-92 -5t-82.5 -13.5t-78.5 -28q-45 -26 -57 -66t14 -73.5t81 -39.5zM723 638q-5 47 -50 71.5t-96 18.5q-130 -17 -218 -236
q7 0 54.5 -1t67 -1t53 2.5t56.5 7.5q56 13 97.5 49.5t35.5 88.5z" />
    <glyph glyph-name="H" unicode="H" horiz-adv-x="871" 
d="M254 40q-42 -30 -87 -34.5t-79.5 12.5t-53.5 55t-12 89q13 92 72.5 158.5t138 98t168.5 35.5q48 147 92 212q-16 0 -54.5 2t-59.5 2.5t-52.5 -1t-57.5 -6.5q-78 -13 -115.5 -62.5t-20.5 -153.5q2 -6 -4 -6q-6 -2 -6 4q-19 110 20.5 162t123.5 67q27 5 59.5 6t55.5 0.5
t61.5 -2.5t57.5 -2q21 30 53.5 50t63.5 11q10 -2 15.5 -11t3.5 -19q-6 -38 -89 -41q-46 -71 -89 -206q106 9 140 15q21 41 33.5 63.5t36 57.5t50 58t57.5 36q50 22 75 6q34 -20 4 -89q-23 -47 -79 -81t-119 -51q-20 -44 -29 -67q-62 -156 -65 -256q-2 -49 11.5 -79t42.5 -34
t73 32q47 38 97.5 103t83.5 126q4 6 9 1q2 -3 1 -6q-34 -62 -85.5 -128t-99.5 -105q-50 -41 -89.5 -41t-64.5 33q-23 30 -30.5 80t3.5 103q23 111 78 226q-57 -9 -138 -14l-12 -38q-2 -7 -14 -45t-16 -49t-15.5 -45.5t-18 -49t-19 -42.5t-22.5 -43.5t-24 -36t-29 -35
t-31 -25.5zM33 160q-8 -62 19.5 -100.5t76.5 -36.5t97 48q21 20 40.5 49t32 51t29.5 67t23.5 62.5t24.5 74t22 68.5q-86 -4 -162 -34.5t-133.5 -95t-69.5 -153.5zM786 663q-64 -53 -123 -175q53 14 108 47.5t76 78.5q24 58 -1 71q-20 10 -60 -22zM615 727q-22 6 -59 -50
q66 4 70 31q4 16 -11 19z" />
    <glyph glyph-name="I" unicode="I" horiz-adv-x="366" 
d="M88 160q-3 -3 -7 1q-52 75 -59.5 159t36.5 165q94 159 312 202q20 22 50 38.5t57 13.5q14 -2 21.5 -11.5t1.5 -22.5q-5 -8 -14.5 -13t-17.5 -6t-22 -1.5t-18 -0.5q-17 -20 -34 -49t-28 -53.5t-24.5 -62.5t-19.5 -57.5t-18 -60t-14 -48.5q-39 -129 -80 -205t-125 -146
q-5 -4 -8 0t1 8q47 53 79.5 114t47 106t37.5 133q1 4 16.5 68t24 91.5t29.5 74.5t46 76q-91 -19 -168.5 -68t-121.5 -125q-42 -79 -35.5 -159.5t57.5 -153.5q1 -1 0.5 -3.5t-2.5 -3.5zM471 722q-17 -11 -32 -26h12t16 1t13 4t10 9q5 9 -3 13.5t-16 -1.5z" />
    <glyph glyph-name="J" unicode="J" horiz-adv-x="601" 
d="M238 155q-90 -1 -155 60.5t-61 150.5q2 37 14.5 67t29 51t47 38.5t54.5 27.5t65 19t64.5 13t67.5 10t61 9q37 77 82 116q16 13 36.5 21t42 4t31.5 -25q6 -15 -3 -39q-18 -46 -115 -72q-37 -72 -99 -257q-59 -181 -105 -266q49 8 87.5 20.5t79 36t75.5 63.5t64 97q2 4 7 2
t3 -7q-30 -60 -66.5 -102t-80 -66t-83 -36t-92.5 -20q-100 -179 -269 -231q-30 -9 -55.5 -8t-41.5 12t-26 26t-10 35t7.5 39.5t26 38.5t45.5 32q12 6 26 11t25 9t28 8.5t25.5 7t28.5 5.5t26 4.5t28.5 4.5t26 3.5t29 3.5t26.5 3q40 77 89 239t66 206q24 58 29 69
q-16 -3 -54.5 -8t-63 -8.5t-62 -12t-62 -18t-53.5 -26t-46.5 -36.5t-30 -49.5t-14.5 -64.5q-4 -85 57.5 -143t147.5 -57q6 0 6 -6q0 -5 -6 -5zM9 -143q139 53 220 206q-63 -7 -92 -11t-78.5 -16.5t-87.5 -30.5q-60 -29 -70 -83q-10 -46 24 -66q32 -19 84 1zM562 702
q-28 -33 -56 -83q80 23 98 63q12 28 -5 36t-37 -16z" />
    <glyph glyph-name="K" unicode="K" horiz-adv-x="803" 
d="M413 405q63 8 112 21.5t98.5 40.5t76 75t25.5 114q0 9 2.5 15t9.5 9t10.5 4t13.5 2t11 1q14 -140 -89 -213q-74 -54 -220 -74q1 -9 6 -57t8 -68.5t10 -58.5t17 -66.5t23 -53.5q47 -85 125 -14q64 58 151 218q2 3 5 3t4.5 -2.5t0.5 -5.5q-89 -162 -154 -220
q-47 -42 -92 -40t-77 43q-22 28 -37.5 76.5t-20 75.5t-12 100t-7.5 75zM224 40q-64 -44 -127 -35t-91 63h11q26 -43 75.5 -44t103.5 47q46 44 84 125.5t59.5 159t54.5 167.5t69 143q-12 0 -59.5 3.5t-75 3t-68.5 -4t-71.5 -17t-52.5 -35.5q-54 -54 -33 -169q0 -5 -4.5 -6
t-6.5 4q-22 127 39 182q17 16 38.5 27t48 17t47.5 9t54 3t50.5 -0.5t53.5 -3t47 -3.5q23 34 61.5 55t65.5 2q12 -9 10 -26q-6 -38 -89 -41q-33 -45 -60 -116.5t-47 -142t-42.5 -141.5t-59 -131.5t-85.5 -94.5zM585 727q-21 5 -60 -50q67 3 71 31q2 16 -11 19z" />
    <glyph glyph-name="L" unicode="L" horiz-adv-x="497" 
d="M30 404q-6 0 -6 5q-13 108 23 157t112 58q58 3 76.5 2.5t77.5 -7.5t79 -9q62 123 152 133q49 5 72.5 -26t-6.5 -73q-40 -54 -159 -50q-18 -38 -34 -82q-16 -42 -41 -136t-52 -166t-66 -124q30 -12 49 -19t44 -16t42.5 -13.5t37 -8t36 -3t31.5 4.5q7 2 8 -4q0 -6 -5 -8
q-17 -4 -34 -4.5t-39.5 4t-37.5 8t-44.5 14t-44 16t-51.5 19.5q-33 -42 -77 -62q-57 -27 -99 -3q-27 16 -29 46t25 48q45 30 149 -5q34 50 60 135.5t48 178.5t37 133q16 39 23 52q-19 2 -55.5 6.5t-56.5 6.5t-57 4t-58 -3q-70 -8 -104 -54.5t-21 -148.5q0 -4 -5 -6zM539 714
q-8 -5 -15.5 -10.5t-14.5 -14t-12 -14.5t-12 -17.5t-9.5 -16.5t-10 -19t-9.5 -17q108 -7 146 48q25 37 0.5 60.5t-63.5 0.5zM150 34q32 18 62 57q-92 31 -136 4q-22 -13 -20.5 -38.5t27.5 -34.5q29 -8 67 12z" />
    <glyph glyph-name="M" unicode="M" horiz-adv-x="960" 
d="M960 300q2 3 5 2.5t4.5 -3t0.5 -4.5q-55 -93 -114.5 -157t-107.5 -88q-31 -13 -59 -14.5t-49 18t-23 57.5q-2 50 17.5 101t48.5 106t39 94q11 40 3 42q-8 1 -26 -19q-35 -38 -111 -150q-44 -67 -69 -97q-29 -34 -51 -25t-24 49q-2 61 65 183q1 3 19.5 34.5t24.5 43.5
t18 38t16 46t4 39q-1 36 -23.5 41t-53.5 -30q-46 -52 -89 -129q-24 -42 -50 -93.5t-43.5 -88t-46 -98.5t-41.5 -91q-34 -3 -44 25.5t-2 71.5q43 216 138 386q-24 -3 -77 -5t-81 -6q-39 -4 -65 -13.5t-47.5 -30t-29.5 -58.5t-2 -94q0 -4 -5 -6q-4 0 -6 5q-6 59 2.5 99
t31.5 62t50.5 32t69.5 15q21 2 77.5 5t87.5 7q82 133 154 134q23 0 34.5 -12.5t3.5 -34.5q-20 -60 -139 -89q-44 -81 -81 -198q-43 -135 -64 -247q14 28 39.5 81t42 86.5t40 79.5t44.5 83q48 87 101 142q46 43 83 40.5t50 -40.5q5 -14 5 -30.5t-3 -32t-9 -34t-13.5 -34
t-17 -34t-17.5 -31.5t-17.5 -29.5t-14.5 -25.5q-62 -111 -73 -146q-12 -34 -4 -48q7 -11 25 13q22 26 68 96q93 134 123 163q38 37 67.5 21.5t16.5 -64.5q-10 -39 -39 -92.5t-52 -105.5t-26 -102q-3 -39 16 -53.5t58 2.5q47 23 105 85.5t112 154.5zM498 714
q-20 -8 -39 -26.5t-29.5 -33.5t-26.5 -41q102 30 120 79q5 14 -3.5 20.5t-21.5 1.5z" />
    <glyph glyph-name="N" unicode="N" horiz-adv-x="820" 
d="M820 300q2 4 7 2t3 -7q-48 -79 -118 -145t-130 -93q-78 -35 -113 1t-27 116q5 52 24.5 98.5t63.5 118t52 86.5q36 63 44 114q6 44 -12.5 57.5t-57.5 -17.5q-87 -77 -172 -204q-63 -93 -138 -305q-35 -4 -45.5 19.5t-2.5 62.5q43 218 137 386q-28 -3 -80.5 -5.5
t-76.5 -4.5q-39 -4 -65 -13.5t-48 -30.5t-29.5 -58.5t-1.5 -93.5q0 -3 -2.5 -5t-5.5 -0.5t-3 4.5q-6 59 2.5 99t31.5 62t51 32t69 14q25 3 80.5 5.5t84.5 6.5q26 46 68.5 89.5t84.5 44.5q23 0 35 -12t3 -35q-20 -56 -138 -89q-97 -177 -141 -425q64 174 121 258
q83 125 174 206q33 29 67 33.5t54.5 -17.5t17.5 -67q-4 -54 -50 -137q-12 -22 -53.5 -87.5t-63.5 -113t-30 -97.5q-9 -56 11 -83.5t75 -2.5q58 26 126.5 91t116.5 142zM506 716q-51 -11 -104 -103q100 26 121 80q4 11 -0.5 17.5t-16.5 5.5z" />
    <glyph glyph-name="O" unicode="O" horiz-adv-x="492" 
d="M421 386q-45 -213 -147 -288q-13 -10 -34 -20q33 -15 68.5 1.5t59.5 50.5q22 29 36 74q2 5 6 3q6 -2 4 -7q-15 -47 -38 -78q-31 -42 -75.5 -58.5t-99.5 0.5q-83 -21 -130.5 29t-49.5 140q-3 152 78 267q25 89 67 144q33 43 89 70.5t102 14.5q70 -20 80 -135
q8 -95 -16 -208zM80 315q-10 -33 -12.5 -68.5t3.5 -73t32.5 -64t70.5 -31.5q-84 60 -94 237zM228 85q21 7 39 21q100 70 144 283q23 107 15 204q-10 111 -72 116q-49 4 -93 -32t-69 -88q59 34 118 43q6 0 6 -5q0 -6 -5 -6q-72 -9 -144 -96q-21 -50 -29 -137t13 -179t77 -124
z" />
    <glyph glyph-name="P" unicode="P" horiz-adv-x="714" 
d="M604 271q-34 -34 -72.5 -33t-73.5 36q-24 24 -43 55q-2 6 2 7q5 3 7 -1q19 -32 38 -50q59 -60 111 19q58 85 63 201q4 68 -16 99t-54 21t-71 -56q-42 -52 -77 -116t-66.5 -146t-49.5 -135.5t-47 -149.5q-28 -93 -31 -100q-27 -4 -39.5 6t-12 27t0.5 36q10 162 86 380
q70 193 155 300q-11 0 -64 2.5t-75 3t-60.5 -3t-69.5 -11.5q-151 -40 -101 -232q2 -4 -3 -6t-7 4q-53 201 108 245q32 8 73 11.5t63.5 3t78 -3t66.5 -2.5q34 40 70 63q25 18 54 10t25 -41q-5 -39 -97 -43q-94 -132 -155 -315t-90 -380l15 49q29 96 47 150t49.5 136.5
t67.5 147t78 117.5q26 31 44 45q26 22 54.5 30t55.5 -3.5t40 -46.5q26 -69 1.5 -172.5t-78.5 -157.5zM529 734q-16 -8 -48 -52q76 4 80 33q2 16 -9 21t-23 -2z" />
    <glyph glyph-name="Q" unicode="Q" horiz-adv-x="505" 
d="M274 98q-63 -41 -118.5 -39t-94.5 49.5t-40 124.5q-3 152 78 267q25 89 67 144q33 43 89 70.5t102 14.5q70 -20 80 -135q8 -95 -16 -208q-30 -141 -88 -225q4 -33 18 -50q12 -14 34 -2q19 9 51.5 40t46.5 40q5 4 8 -2q2 -4 -2 -7q-12 -8 -44.5 -38.5t-51.5 -40.5
q-45 -25 -87 26q-15 -17 -32 -29zM228 85q21 7 39 21q15 10 33 28q-33 45 -38 96q-2 16 1.5 23t11.5 5.5t17 -7t18 -14.5q15 -16 21 -63q51 79 80 215q23 107 15 204q-10 111 -72 116q-49 4 -93 -32t-69 -88q59 34 118 43q6 0 6 -5q0 -6 -5 -6q-72 -9 -144 -96
q-15 -36 -24 -96.5t-8 -128t24.5 -128t68.5 -87.5zM80 315q-6 -21 -9 -47t-2.5 -56t9.5 -56.5t24.5 -46.5t43.5 -28t66 0q-49 18 -88.5 91t-43.5 143z" />
    <glyph glyph-name="R" unicode="R" horiz-adv-x="779" 
d="M574 484q30 28 46.5 69t10.5 79q-7 53 -66 43q-53 -9 -99 -59q-21 -23 -40 -54.5t-30.5 -52.5t-27.5 -67t-20.5 -58.5t-21 -69.5t-17.5 -59q-46 -149 -73 -204q-64 0 -51 80q33 198 99 366q50 122 104 188q-110 5 -147 3q-33 -1 -60 -5.5t-54.5 -14.5t-45.5 -26
t-32.5 -40t-15.5 -56.5t4 -76.5q0 -4 -5 -6q-6 0 -6 4q-12 55 -2.5 94.5t26.5 65t49.5 41t65.5 22t76 8.5q31 2 156 -3q55 64 103 63q17 0 26.5 -8.5t7.5 -24.5q-7 -37 -89 -40q-61 -84 -111 -220q-71 -195 -94 -379q23 55 59 173q3 10 18 60.5t21 68.5t21.5 60.5t27.5 66
t31.5 54.5t40.5 54q40 46 102 64q25 5 51 6t49 -14t30 -45q11 -48 -16.5 -96t-72.5 -78q-74 -48 -170 -53q29 -17 47.5 -45.5t27 -66.5t12 -68.5t5.5 -76t4 -65.5q5 -51 25 -64t42.5 1t46.5 44q25 31 49 71t52.5 95.5t35.5 67.5q2 4 7 2t3 -7q-7 -13 -28 -53t-34.5 -64
t-34.5 -58t-41 -58q-26 -35 -57 -56q-45 -29 -83.5 -1.5t-44.5 79.5q-2 18 -5 68.5t-7 79.5t-13 69t-28.5 68t-47.5 45q48 0 89 10q73 16 120 60zM501 742q-7 -1 -14.5 -7t-12 -11t-12 -15.5t-9.5 -12.5q66 4 70 31q1 9 -5.5 13t-16.5 2z" />
    <glyph glyph-name="S" unicode="S" horiz-adv-x="928" 
d="M758 664q-45 -68 -97 -271q-38 -141 -60 -199q79 -10 137 -10t104.5 27t85.5 89q2 2 4.5 2t4.5 -2.5t1 -4.5q-39 -64 -88 -92.5t-109.5 -29t-142.5 9.5q-114 -290 -344 -251q-52 9 -96.5 41t-48.5 80q-4 42 27 80.5t77 57.5t110 23.5t99 1t113 -13.5q21 57 49 162.5
t55 183.5t62 127q-82 16 -124 22t-110 8t-124 -15.5t-108 -53.5q-147 -100 -204 -313q-2 -6 -6 -4q-6 2 -4 7q56 215 208 319q44 30 94.5 47t90 22.5t100 0t94 -11.5t100.5 -19q51 64 134 73q75 7 90 -35q5 -16 -1 -32t-20 -24q-35 -23 -153 -2zM864 740q-58 -8 -100 -66
q111 -19 141 1q25 16 17 43q-9 27 -58 22zM258 -58q41 -5 79 8t66.5 37t54 60.5t42.5 70.5t32 74q-147 18 -208 13q-60 -4 -106 -23q-44 -19 -73 -54.5t-25 -74.5q5 -44 47 -74.5t91 -36.5z" />
    <glyph glyph-name="T" unicode="T" horiz-adv-x="550" 
d="M283 7q-49 -38 -110 -45t-113 29q-23 20 -39 49q-2 5 3 7q1 2 3.5 1t3.5 -3q15 -28 35 -45q28 -22 60 -22t59.5 16.5t50.5 44.5q37 45 65 117t56.5 173t42.5 139q64 174 156 236q-138 21 -218 22q-60 0 -106.5 -10.5t-85.5 -34.5t-60 -70t-21 -111q0 -6 -5 -6q-6 0 -6 6
q0 155 84 206q114 70 431 7q18 10 28 14q56 25 123.5 32.5t126.5 -14.5q39 -20 33 -44q-5 -19 -39 -24t-65 -2q-23 1 -151 18q-88 -66 -151 -246q-9 -26 -32 -104t-40.5 -132.5t-50 -115t-68.5 -88.5zM841 735q-49 17 -103 6.5t-100 -39.5q87 -14 138 -17q10 0 28.5 -0.5
t39 5t24.5 15.5q5 17 -27 30z" />
    <glyph glyph-name="U" unicode="U" horiz-adv-x="842" 
d="M563 411q-39 -53 -56.5 -76t-57 -71.5t-74.5 -80.5t-69 -53q-46 -30 -83 -16t-41 68q-7 79 32 218.5t94 235.5q-10 0 -52 3.5t-65 3.5q-36 0 -62 -8t-49.5 -29.5t-36 -65t-12.5 -109.5q0 -5 -6 -5q-5 0 -5 5q0 69 13 115.5t38.5 68.5t53 30.5t66.5 8.5q22 0 63.5 -3.5
t59.5 -3.5q44 68 80 84q26 13 49 2.5t6 -42.5q-11 -21 -34 -34.5t-48 -17.5q-50 -88 -87 -218t-43 -222q-2 -27 2.5 -45t19 -25t41.5 10q35 21 71 54.5t75.5 83t61 78.5t62.5 85q31 114 66 196q44 103 98 57q-139 -312 -142 -578q0 -35 8 -53.5t22 -19.5t29 7t32 24
q31 30 63.5 74.5t46.5 68.5l49 84q4 6 9 1q2 -3 1 -6q-33 -57 -50 -85t-49.5 -72.5t-63.5 -75.5q-100 -96 -148 -1q-45 87 22 350zM425 717q-19 -12 -51 -66q45 11 67 47q7 12 2.5 19.5t-18.5 -0.5z" />
    <glyph glyph-name="V" unicode="V" horiz-adv-x="709" 
d="M43 353q-6 0 -7 4q-61 211 120 264q61 17 226 21q33 60 75 71q29 8 48 -4q21 -12 14 -38q-4 -14 -17 -22.5t-26 -11t-35 -4.5q-36 -89 -51 -215q-12 -112 -8 -278q1 -49 8 -56q11 -11 40 16q52 50 111 131t111 173t83 188.5t24 165.5q-1 4 5 6q5 0 5 -5q7 -72 -24 -171
t-84 -192t-112.5 -174t-112.5 -133q-123 -120 -126 46q-4 167 14 285q20 143 53 211q-152 -2 -218 -21q-170 -49 -113 -250q2 -5 -3 -7zM446 644q17 1 25.5 2.5t21 9t16.5 19.5q4 15 -7 22q-14 8 -31 -9q-13 -14 -25 -44z" />
    <glyph glyph-name="W" unicode="W" horiz-adv-x="835" 
d="M28 464q-18 104 8.5 151t88.5 58q26 4 55.5 4t66 -2t56.5 -2q19 29 52.5 58t64.5 32q24 3 32 -12t-7 -35q-26 -39 -80 -49q-42 -71 -71.5 -163.5t-32.5 -174.5q-1 -21 2 -38.5t10 -30t22.5 -9.5t36.5 25q13 14 25.5 29t26 34t22 31.5t22.5 37t19 33t21 37t19 33.5
q3 16 25 136q42 -2 53.5 -22t2.5 -68q-44 -245 -23 -376q11 -72 32.5 -103.5t45.5 -26.5t50 36q78 95 97 300q17 200 -40 422q0 6 4 7q6 0 7 -4q57 -229 39 -426q-18 -206 -97 -311q-48 -64 -104 -60t-84 75q-22 57 -27.5 128.5t-1 125t15.5 136.5q-83 -149 -142 -211
q-53 -54 -87 -48.5t-49 45t-9 95.5q7 72 34 156t67 145q-16 0 -53 2.5t-64.5 2t-52.5 -4.5q-57 -10 -81 -54t-7 -143q2 -4 -4 -6q-6 0 -6 5zM419 740q-23 -20 -47 -60q40 9 64 42q11 16 4.5 24t-21.5 -6z" />
    <glyph glyph-name="X" unicode="X" horiz-adv-x="944" 
d="M777 84q-115 -61 -190 59q-54 84 -94 233q-124 -74 -197.5 -154.5t-87.5 -195.5q-2 -5 -6 -5q-5 0 -5 6q8 63 33.5 117t68.5 97.5t87.5 76.5t104.5 69q-39 155 -33 244q-30 -4 -111.5 -5.5t-136 -13.5t-101.5 -45q-56 -39 -70.5 -98t2.5 -114.5t55 -109.5q2 -5 -2 -8
q-3 -3 -7 1q-40 57 -57 115.5t-1 119.5t74 102q49 34 104.5 46.5t138 14.5t113.5 6q11 93 71 115q26 8 47.5 -2t17.5 -39q-11 -51 -77 -73q0 -80 33 -221q14 8 50 27.5t55.5 30.5t53.5 32.5t54.5 37.5t47 40.5t42 47t28.5 51.5t18 60q2 5 6 4q5 0 5 -6q-5 -31 -18.5 -61
t-29 -53.5t-42.5 -48.5t-47.5 -41.5t-56 -38.5t-55 -33t-57.5 -31.5t-52 -28.5q43 -178 79 -248q56 -113 140 -70q75 41 172 207q4 6 9 1q2 -3 1 -6q-99 -169 -177 -211zM544 738q-22 -17 -26 -84q55 15 66 64q4 20 -10.5 26t-29.5 -6z" />
    <glyph glyph-name="Y" unicode="Y" horiz-adv-x="752" 
d="M762 295q-26 -60 -94 -102t-176 -32q-82 -165 -179 -245q-68 -56 -152.5 -73.5t-164.5 19.5q-60 32 -75 94t24 115q106 142 477 108q41 83 102.5 242t70.5 179q-88 -135 -149 -206q-45 -54 -74 -70q-39 -23 -62 -10.5t-32 40.5t-7 65q10 122 82 242q-18 -1 -57 -1
q-37 0 -56.5 -0.5t-52.5 -4.5t-51 -12t-41 -24.5t-35 -40.5t-20 -61t-8 -85q0 -5 -5 -5t-5 5q0 39 5 71.5t13 56t23 41.5t27.5 30t35 20t38.5 12t43.5 6t43 2h45.5q44 0 64 1q46 69 101 88q13 7 33 2.5t20 -23.5q0 -26 -32 -45t-64 -27q-87 -141 -92 -278q-2 -88 63 -36
q22 17 49 48q78 92 187 265q42 87 94 103q10 3 19.5 -3t14.5 -17q-18 -23 -34 -49.5t-31 -61t-23.5 -56t-24 -64.5t-20.5 -56q-72 -187 -122 -290q71 -7 127.5 14t84 50.5t42.5 63.5q3 4 7.5 1.5t2.5 -6.5zM480 744q-26 -21 -54 -64q25 6 51 22.5t26 36.5q0 8 -6.5 10
t-16.5 -5zM270 -48q77 78 147 217q-362 31 -463 -104q-37 -51 -22.5 -106t69.5 -85q126 -67 269 78z" />
    <glyph glyph-name="Z" unicode="Z" horiz-adv-x="426" 
d="M538 25q42 -42 30 -87t-56 -59q-37 -12 -74.5 -4.5t-68.5 28t-65.5 48t-65 55t-67 49t-72 30.5t-80.5 -2l-3 19q54 50 115.5 135.5t108.5 164t108.5 166.5t114.5 140q-287 -4 -305 -6q17 -66 -12 -106q-16 -21 -38 -24.5t-36 8.5q-17 12 -21.5 35.5t8.5 47.5q21 37 85 48
q-17 50 -53 96q-3 5 1 8t8 -1q37 -48 55 -102q86 3 168.5 4.5t117 1.5t34.5 1q42 0 59 -7t0 -28q-42 -50 -101 -138.5t-106.5 -163.5t-110 -155t-117.5 -126q38 -6 81 -33.5t77 -59t76.5 -61.5t79 -42t86.5 0q35 10 48 45.5t-16 66.5q-3 2 -2 5t3.5 4t5.5 -1zM137 603
q30 40 10 97q-60 -10 -79 -43q-11 -20 -7 -39.5t18 -29.5q11 -9 28 -5.5t30 20.5z" />
    <glyph glyph-name="bracketleft" unicode="[" horiz-adv-x="344" 
d="M301 683q1 0 2 -2t0.5 -4.5t-2.5 -2.5h-50q-85 -398 -180 -740h47q2 0 2 -4t-2 -4h-70q-4 0 -6 1.5t-2 4.5t1 7q60 374 179 733q3 11 12 11h69z" />
    <glyph glyph-name="backslash" unicode="\" horiz-adv-x="304" 
d="M53 744l210 -708q2 -6 -4 -7q-5 -2 -7 4l-211 707q-2 6 4 8t8 -4z" />
    <glyph glyph-name="bracketright" unicode="]" horiz-adv-x="344" 
d="M43 -66h50q86 404 180 740h-47q-1 0 -1.5 2.5t0 4.5t1.5 2h70q9 0 7 -13q-60 -373 -179 -733q-3 -11 -12 -11h-69q-3 0 -3 5q1 2 3 3z" />
    <glyph glyph-name="asciicircum" unicode="^" horiz-adv-x="228" 
d="M121 676l-77 -54q-2 -2 -3 -1t0 3l75 84q4 4 8 -1l63 -95q1 -2 -0.5 -3t-3.5 1z" />
    <glyph glyph-name="underscore" unicode="_" horiz-adv-x="277" 
d="M46 60q-6 0 -6 6t6 6h185q6 0 6 -6t-6 -6h-185z" />
    <glyph glyph-name="grave" unicode="`" horiz-adv-x="134" 
d="M65 700l28 -78q1 -3 -2 -4.5t-4 1.5l-46 71q-3 4 2.5 9t12 5.5t9.5 -4.5z" />
    <glyph glyph-name="a" unicode="a" 
d="M163 288q-63 -82 -90 -108q-53 -53 -80 -18q-31 43 -3 118q15 42 48.5 71t75 28t71.5 -43q27 38 41 44q18 9 34 -9q-93 -176 -102 -298q-4 -50 10.5 -56.5t43.5 32.5q21 28 44.5 63.5t37 57t42.5 69t37 61.5q2 4 7 2t3 -7q-119 -195 -162 -252q-30 -38 -52 -44
q-27 -7 -39.5 19.5t-12.5 57.5q0 106 46 212zM14 189q0 -16 5 -22t13.5 -3t17.5 9.5t18 15.5q32 33 91 112l21 28q-42 44 -78.5 22.5t-61 -71t-26.5 -91.5z" />
    <glyph glyph-name="b" unicode="b" horiz-adv-x="370" 
d="M25 134q-36 7 -36 60q-1 101 39 219t118.5 221.5t172.5 141.5q59 24 93 -2t20 -80q-29 -95 -131 -143q-66 -31 -173 -42q-77 -164 -99 -337q44 91 105 152q27 26 52.5 33.5t43 -4t21.5 -37.5q7 -44 -9 -95q101 33 128 79q2 3 5 2.5t4.5 -3t0.5 -4.5q-31 -52 -143 -87
q-21 -54 -60.5 -105t-85.5 -73q-35 -17 -58 -7t-21.5 37t23.5 60q24 32 59.5 49.5t96.5 35.5q22 62 16 109q-2 16 -9.5 22.5t-17.5 3.5t-19.5 -9t-19.5 -15q-48 -47 -91 -127q-12 -23 -25 -55zM83 42q57 35 103 150q-56 -17 -88.5 -33t-54.5 -46q-19 -25 -20.5 -49.5
t14 -31.5t46.5 10zM331 753q-114 -65 -197 -233q92 9 163 42q98 47 125 135q12 45 -12.5 64.5t-78.5 -8.5z" />
    <glyph glyph-name="c" unicode="c" horiz-adv-x="261" 
d="M-31 159q-7 55 17.5 115.5t68.5 94.5q20 15 43 17.5t40.5 -10.5t19.5 -39q0 -2 -3 -3t-5.5 -0.5t-2.5 2.5q-2 31 -22.5 34.5t-39.5 -16.5q-32 -32 -54 -91t-18 -105q6 -61 73 -26q78 41 175 168q4 5 9 0q3 -3 1 -5q-94 -126 -183 -175q-59 -28 -86 -15.5t-33 54.5z" />
    <glyph glyph-name="d" unicode="d" horiz-adv-x="403" 
d="M48 123q-30 -29 -52 -14.5t-26 52.5q-7 55 18 115t65 91q18 14 37.5 20t39.5 -0.5t32 -28.5q6 -10 13 -32q104 337 297 437q20 10 42 16t44.5 6.5t38 -13t17.5 -41.5q3 -42 -24.5 -84t-69.5 -72q-76 -52 -215 -67q-105 -214 -127 -417q-3 -32 7 -41t37 12q92 78 181 238
q2 4 6.5 1.5t3.5 -6.5q-87 -154 -183 -246q-46 -44 -74 -9q-41 51 0 218q-75 -98 -108 -135zM475 731q-93 -70 -164 -211q128 11 204 65q37 26 64.5 65.5t23.5 79.5q-2 27 -17.5 36t-37 2.5t-40 -16t-33.5 -21.5zM10 165q-1 -10 0 -20t3 -17.5t9.5 -6.5t18.5 13q20 20 40 45
t45 57.5t37 48.5q4 15 5 19q-4 27 -15 49q-24 41 -61 4q-35 -35 -57.5 -87.5t-24.5 -104.5z" />
    <glyph glyph-name="e" unicode="e" horiz-adv-x="244" 
d="M254 295q-79 -132 -165 -182q-20 -12 -40.5 -18t-42 -1.5t-33.5 23.5q-18 40 -9.5 91.5t41 100.5t72.5 65q37 14 56.5 -8t-1.5 -56q-16 -25 -42 -37t-65 -21q-30 -81 -25 -116q3 -19 15.5 -25.5t29.5 -1.5t31.5 12t27.5 16q70 48 140 163q2 3 5 3t4.5 -2.5t0.5 -5.5z
M30 264q76 20 94 56q10 21 0 33.5t-33 -0.5q-8 -5 -15.5 -12.5t-12.5 -14.5t-11 -17.5t-9 -16.5t-7.5 -16t-5.5 -12z" />
    <glyph glyph-name="f" unicode="f" horiz-adv-x="302" 
d="M-96 -32q-24 -7 -46 -2q-21 6 -24.5 27t13.5 33q18 11 37.5 6.5t32.5 -17.5q10 35 36 127t41 141t41.5 122t53.5 131q23 48 59 102.5t77 89.5q51 46 91.5 33t39.5 -90q-1 -113 -90.5 -223t-200.5 -130q-17 -53 -99 -323q42 15 83.5 41.5t71.5 52t67 68t57.5 69t56.5 74.5
q2 3 5 2.5t4.5 -3t0.5 -4.5q-36 -48 -58.5 -77t-60 -71t-69.5 -69t-74.5 -53.5t-86.5 -41.5l-4 -14q23 -40 27 -97t-16 -105q-10 -26 -29.5 -40t-38.5 -5.5t-24 44.5q-11 75 26 202zM140 523q-25 -55 -72 -194q103 17 190 125.5t87 216.5q0 43 -15 57t-35.5 4.5t-45.5 -34.5
q-54 -56 -109 -175zM-86 4q-10 11 -26.5 16t-31.5 -5q-8 -7 -7 -20t14 -18q19 -7 44 2q6 21 7 25zM-85 -216q-4 -28 3 -37.5t18.5 -1t21.5 27.5q37 83 -4 181q-33 -118 -39 -170z" />
    <glyph glyph-name="g" unicode="g" horiz-adv-x="388" 
d="M-59 30q58 40 187 93q41 141 65 195q-22 -22 -66 -75t-73 -80q-19 -17 -35.5 -20.5t-26.5 4.5t-14 23q-12 50 8.5 103.5t65.5 81.5q36 22 71.5 15t65.5 -41l19 18q37 58 60 21q-40 -83 -79 -218q139 60 199 150q2 4 7 1.5t3 -6.5q-63 -95 -213 -159q-2 -8 -12.5 -45.5
l-14 -50t-14 -46.5t-17.5 -50t-19 -45.5t-23 -46.5t-25.5 -39.5t-31.5 -39.5t-36 -31q-32 -24 -71.5 -29t-71.5 15.5t-38 65.5q-10 67 29 130t101 106zM-27 -238q82 80 152 348q-123 -51 -177 -89q-60 -42 -98 -103t-28 -125q7 -39 34.5 -55t60 -8t56.5 32zM48 171
q27 25 69.5 77t64.5 74q-19 17 -34 25.5t-36 7.5t-39 -19q-26 -25 -43 -70.5t-17 -77.5q-2 -22 5.5 -28t29.5 11z" />
    <glyph glyph-name="h" unicode="h" horiz-adv-x="395" 
d="M20 101q-40 9 -38 75q6 147 69 304.5t162 238.5q44 36 85.5 43t64.5 -21.5t12 -89.5q-18 -103 -112 -205q-97 -103 -214 -148q-16 -63 -26 -170q59 99 108 148q38 36 64 33q20 -2 28 -27t1 -64q-7 -37 -37 -116.5t-36 -125.5q-3 -21 1.5 -32.5t12.5 -11.5t17 5
q26 19 59 70t56.5 96.5t55.5 112t42 84.5q1 2 4 2t5 -2t1 -5q-5 -9 -52.5 -109t-87 -165.5t-75.5 -95.5q-29 -25 -54 -17q-33 11 -35 65q-2 57 36.5 150.5t45.5 127.5q6 32 -3.5 40t-41.5 -23q-51 -51 -118 -167zM266 711q-131 -110 -213 -400q112 45 202 143q90 95 109 199
q12 66 -18.5 82.5t-79.5 -24.5z" />
    <glyph glyph-name="i" unicode="i" horiz-adv-x="238" 
d="M43 338q-9 0 -15.5 6.5t-6.5 14.5q0 9 6.5 15.5t15.5 6.5q8 0 14.5 -6.5t6.5 -15.5q0 -8 -6.5 -14.5t-14.5 -6.5zM54 84q-57 -51 -82 -7q-18 34 -8 110q8 57 24 94q23 53 61 24q-39 -111 -49 -180q-3 -15 -1.5 -27t5.5 -19.5t15 -4.5t28 18q98 84 191 208q2 3 5 2.5
t4.5 -3t0.5 -4.5q-93 -123 -194 -211z" />
    <glyph glyph-name="j" unicode="j" horiz-adv-x="218" 
d="M-282 -94q30 31 72.5 63t70.5 50t82 51q28 153 49 214q8 25 25 30t36 -10q-27 -69 -52 -200q150 91 217 196q2 2 4.5 2t4.5 -2.5t1 -4.5q-64 -101 -230 -205q-16 -85 -26 -128.5t-36 -110t-62 -114.5q-42 -55 -97 -87.5t-105 -1.5q-52 33 -32 128q16 67 78 130zM-59 56
q-150 -91 -215 -157q-60 -61 -75 -125q-9 -26 -3.5 -63.5t30.5 -53.5q43 -26 92.5 13.5t78.5 89.5q56 100 92 296zM44 338q-9 0 -15 6.5t-6 14.5q0 9 6 15.5t15 6.5t15 -6.5t6 -15.5q0 -8 -6 -14.5t-15 -6.5z" />
    <glyph glyph-name="k" unicode="k" horiz-adv-x="351" 
d="M361 295l-31 -62t-36 -70.5t-33 -59.5t-41 -66q-2 -2 -9.5 -13t-11.5 -15.5l-12 -13.5t-14 -11.5t-14.5 -5t-17 1.5t-16.5 12q-14 20 -17.5 48.5t-0.5 52t-4 50.5t-27 46q-26 22 4 27q4 1 24.5 3t34.5 7t25 15q12 11 7 25t-23 12q-43 -4 -76 -47q-39 -51 -52 -130
q-43 8 -38 75q9 149 71 305.5t160 237.5q43 36 85 43t65 -22t12 -89q-19 -107 -112 -205q-95 -102 -214 -148q-12 -48 -22 -130q14 38 37 69q37 48 83 53q31 4 42.5 -17t-11.5 -42q-18 -16 -84 -23q-7 -1 -9.5 -2t-0.5 -2.5t8 -4.5q37 -16 50 -43t14 -70q0 -5 -3 -36.5
t1 -36.5q8 -41 57 31q1 2 2 3q18 25 36.5 58t31 56.5t35.5 69.5t35 69q1 2 4 2t5 -2t1 -5zM266 711q-143 -120 -213 -400q112 45 202 143q90 97 109 199q12 66 -18.5 82.5t-79.5 -24.5z" />
    <glyph glyph-name="l" unicode="l" horiz-adv-x="296" 
d="M36 52q-30 9 -43 45.5t-11 78.5q7 148 70 305t161 238q44 36 85.5 43t64.5 -21.5t12 -89.5q-18 -103 -112 -205q-97 -103 -214 -148q-36 -136 -22 -196q8 -31 34 -34t57 24q104 92 178 208q2 3 5 2.5t4.5 -3t0.5 -4.5q-73 -116 -182 -212q-48 -42 -88 -31zM266 711
q-131 -110 -213 -400q112 45 202 143q90 95 109 199q12 66 -18.5 82.5t-79.5 -24.5z" />
    <glyph glyph-name="m" unicode="m" horiz-adv-x="575" 
d="M-34 123q-10 16 -6.5 47.5t11 59t17.5 51.5q24 54 63 24q-43 -90 -56 -147q-5 -20 2 -21.5t16 9.5q11 12 40 49.5t47 53.5q31 27 57 21q24 -5 18 -39q-3 -15 -16 -49t-14 -38q-6 -23 5.5 -24t26.5 15q30 28 59.5 75t62.5 110.5t50 90.5q40 66 84 54q34 -8 39 -55
q5 -51 -17 -113t-54.5 -130.5t-41.5 -111.5q-4 -19 1.5 -35.5t17.5 -18.5q6 -1 13 1t14 7.5t13.5 12t14 16t13 17.5t12 19t10.5 17.5t9 15.5t6 11q19 34 50.5 98t41.5 84q1 2 4 2t5 -2t1 -5q-11 -20 -42 -84.5t-50 -98.5q-1 -2 -8 -14t-10 -17.5t-10.5 -18t-13 -19.5
t-14 -18t-15.5 -17.5t-16 -13.5t-18 -10t-18 -4q-19 -2 -34.5 11.5t-20.5 38.5q-5 21 -0.5 47t12.5 48.5t18 48.5l1.5 3t1 3t1.5 3q8 19 26 60.5t30.5 72.5t19.5 59q14 55 -11 67t-56 -37q-19 -31 -50 -91.5t-60.5 -108t-65.5 -83.5q-11 -11 -23.5 -18.5t-25 -10t-21.5 7
t-10 31.5q0 13 4 29.5t9.5 34.5t6.5 21q5 19 -2.5 22t-16.5 -6q-18 -16 -47.5 -52.5t-34.5 -42.5q-17 -19 -32 -23.5t-23 8.5z" />
    <glyph glyph-name="n" unicode="n" horiz-adv-x="386" 
d="M15 141q-28 -27 -41.5 -17t-11.5 44q1 53 26 113q24 54 62 24q-3 -7 -15 -34.5t-23.5 -56.5t-15.5 -49q-2 -11 0.5 -14.5t7.5 -0.5t11 9q26 28 45 61q17 29 49.5 95.5t50.5 95.5q14 22 34 39q32 25 58.5 12t30.5 -52q5 -49 -13 -102.5t-49 -115.5t-42 -99q-22 -69 8 -74
q37 -5 74 51q21 31 42 69.5t46.5 89t36.5 71.5q2 4 7 2t3 -7q-12 -22 -38 -72.5t-47 -89t-42 -70.5q-46 -71 -95 -64q-65 12 -37 123q11 45 50 127t50 126q14 55 -11.5 67t-56.5 -37q-20 -31 -52 -97.5t-49 -94.5q-28 -46 -53 -72z" />
    <glyph glyph-name="o" unicode="o" horiz-adv-x="281" 
d="M53 89q-23 -4 -44 9t-32 39q-12 34 -8.5 72.5t19.5 72.5q8 17 15.5 21.5t15 -0.5t21.5 -20q-17 -26 -30 -69t-7 -75q9 -44 48 -39q34 4 60 40.5t38 76.5q-42 9 -83 49.5t-50 85.5q-6 26 3 50t27 37q35 22 67 5t47 -53q27 -67 2 -165q71 -10 119 74q3 4 7.5 1.5t2.5 -6.5
q-51 -91 -132 -80q-12 -44 -39.5 -82.5t-66.5 -43.5zM41 357q1 -42 35.5 -81t75.5 -48q23 94 -1 156q-14 35 -41.5 44t-48.5 -11.5t-20 -59.5z" />
    <glyph glyph-name="p" unicode="p" horiz-adv-x="367" 
d="M-42 -188q-2 -9 -6.5 -22t-11.5 -30.5t-15.5 -29t-16.5 -10.5q-20 3 -18 60q1 76 20 175t37.5 166t50.5 175q16 57 46 89q9 9 19.5 7.5t19.5 -12.5q-10 -36 -68 -227.5t-80 -304.5q-16 -95 -3 -71q6 10 15 40q10 31 36 123t43.5 145.5t50 129t68.5 130.5q28 41 57.5 43
t46.5 -45q18 -56 -2 -125q82 29 120 82q2 3 5 2.5t4.5 -3t0.5 -4.5q-39 -57 -134 -90q-26 -83 -87 -122q-32 -21 -48 0t0 50q13 24 42.5 43.5t58.5 28.5q18 73 9 136q-4 28 -15.5 32.5t-24 -6t-25.5 -29.5q-30 -45 -54 -92.5t-44.5 -107t-32.5 -98.5t-33 -116.5t-31 -111.5z
M147 93q40 28 59 100q-24 -8 -49.5 -25.5t-37.5 -37.5q-13 -22 -5 -37.5t33 0.5z" />
    <glyph glyph-name="q" unicode="q" horiz-adv-x="347" 
d="M76 222q-54 -56 -74 -18q-14 29 -7 73t30 77q23 34 59 39.5t62 -27.5q10 -15 13 -31q7 7 17 19l10 12q13 13 18 15t25 -5q-21 -48 -36 -92t-31.5 -99t-27.5 -88q64 19 119.5 75.5t93.5 127.5q1 2 4 2t5 -2t1 -5q-41 -74 -99 -132.5t-128 -78.5l-1 -3q38 -46 56.5 -110
t5.5 -121q-9 -40 -34.5 -61t-53 -8.5t-40.5 58.5q-14 48 -2 135q6 48 20 107q-44 6 -65 30q-15 19 -4.5 32.5t32.5 8.5q24 -5 48 -28q38 135 66 193q-12 -13 -38.5 -45.5t-43.5 -49.5zM83 91l6 21q-20 20 -42 27q-13 5 -20 -4t3 -20q15 -18 53 -24zM91 -159q4 -49 33 -49
q27 0 47 36q7 12 10 26q12 51 -4 109t-51 105q-41 -138 -35 -227zM59 342q-51 -70 -44 -130q3 -33 53 17q16 16 43.5 49l37.5 45q0 20 -13 38q-12 15 -27 15t-27 -9.5t-23 -24.5z" />
    <glyph glyph-name="r" unicode="r" horiz-adv-x="248" 
d="M43 272q-66 14 -101 70t-4 114q16 30 47 34.5t50 -23.5q37 -59 -23 -169q18 -12 51 -19q20 -4 22.5 -11.5t-6.5 -24.5q-54 -123 -68 -193q-5 -25 1 -34.5t20 -3.5t31 23q36 34 72 84t56 83t57 98q3 4 7.5 1.5t2.5 -6.5q-98 -178 -187 -270q-20 -20 -40 -28.5t-35.5 3.5
t-15.5 49q-3 101 63 223zM-39 446q-19 -37 -6.5 -78.5t47.5 -63.5q58 98 25 155q-15 21 -34.5 14.5t-31.5 -27.5z" />
    <glyph glyph-name="s" unicode="s" horiz-adv-x="234" 
d="M31 -5q-25 -18 -55 -20t-51 17t-17 56q5 44 41 71.5t95 51.5q-5 18 -22.5 60.5t-22.5 66.5q-8 25 -4 60.5t22 56.5q23 28 62 25.5t53 -39.5q11 -26 0 -52q-1 -4 -6 -3.5t-4 5.5q9 24 -1 41q-9 19 -31 17t-34 -21q-17 -24 -10 -62q5 -29 20.5 -78.5t18.5 -62.5
q92 33 149 115q2 3 5 2.5t4.5 -3t0.5 -4.5q-62 -88 -157 -120q11 -52 -3.5 -102.5t-52.5 -77.5zM48 159q-120 -40 -129 -111q-6 -46 30.5 -57.5t69.5 17.5q28 24 35.5 69.5t-6.5 81.5z" />
    <glyph glyph-name="t" unicode="t" horiz-adv-x="245" 
d="M255 295q-94 -180 -176 -238q-34 -28 -72 -22t-44 56q-12 94 68 294q32 78 74 168q-58 -4 -93 6q-7 2 -3 8q3 4 6 2q36 -9 95 -5q30 63 65 107q6 7 13.5 7t12.5 -2.5t16 -8.5q-18 -26 -51 -100q57 4 89 -6q4 -1 3.5 -6t-6.5 -5q-32 10 -92 6q-39 -84 -79 -189
q-1 -1 -9.5 -24.5t-11 -29.5t-10.5 -28.5t-11 -32.5t-9.5 -30.5t-9.5 -33.5t-6.5 -30t-5 -31.5t-1.5 -27.5q-1 -35 17 -43.5t48 10.5q32 20 72.5 73.5t62.5 91t38 69.5q2 4 7 2t3 -7z" />
    <glyph glyph-name="u" unicode="u" 
d="M15 131q-42 -29 -50.5 17.5t4.5 75.5q8 33 18 56q24 55 64 24q-44 -97 -51 -125q-12 -47 3 -43q3 1 6 3q30 20 57 47.5t60 67.5t50 58q8 12 12 16q11 11 35 -3q-2 -6 -7.5 -18.5t-7.5 -16.5q-67 -162 -81 -237q-12 -69 8 -65q10 2 28 21q36 39 70.5 86t77.5 112.5
t62 92.5q2 2 4.5 2t4.5 -2.5t1 -4.5q-22 -31 -63.5 -95t-77 -112.5t-72.5 -87.5q-36 -36 -56.5 -18.5t-18.5 69.5q1 39 10 84.5t16 64.5q11 33 25 61q-84 -98 -131 -130z" />
    <glyph glyph-name="v" unicode="v" horiz-adv-x="317" 
d="M317 300q2 3 5 2.5t4.5 -3t0.5 -4.5q-15 -23 -43.5 -27.5t-55.5 5t-48 25.5q-6 5 -8 5t-6 -8q0 -1 -7.5 -19t-17.5 -41t-22.5 -49.5t-27 -53t-27.5 -44.5q-23 -32 -43.5 -34t-34.5 33q-12 42 -9.5 96.5t16.5 100.5q12 33 30 58q15 21 45 7q-54 -144 -50 -244q3 -61 44 -2
q18 26 40.5 73t38.5 86l16 38q6 13 12 14.5t18 -8.5q18 -14 41.5 -22.5t49 -6t39.5 22.5z" />
    <glyph glyph-name="w" unicode="w" horiz-adv-x="477" 
d="M38 126q-17 -16 -31.5 -21.5t-26.5 2t-19 28.5q-9 28 -2 72.5t26 74.5q30 50 65 22q-57 -97 -57 -165q0 -41 40 -4q30 29 85 106t74 98v1q14 14 41 1q-4 -15 -14 -46t-18.5 -58t-17 -61.5t-13 -63t-3.5 -56t10 -45.5q10 -21 25.5 -27t33.5 8q40 36 59 124.5t14 152.5
q-1 10 -1 18t2 13t8 4.5t16 -7.5q20 -15 46.5 -22.5t54 -2t42.5 27.5q2 2 5 2t4.5 -2.5t0.5 -4.5q-23 -34 -71 -35.5t-84 24.5q-11 7 -12.5 2.5t0.5 -15.5q5 -70 -15 -160.5t-64 -128.5q-21 -18 -44.5 -13.5t-40.5 29.5q-50 75 -10 240q8 31 11 40q-89 -123 -119 -152z" />
    <glyph glyph-name="x" unicode="x" horiz-adv-x="361" 
d="M-44 -31q-4 -4 -7.5 -1.5t-1.5 7.5q20 28 52 87q42 76 75 127q-8 94 -17 110q-4 6 -9 10q-15 9 -38 -14q-2 -3 -5.5 -3t-5 2.5t0.5 5.5q19 33 47 38q40 8 62 -30q13 -24 15 -52q83 98 163 97q3 0 4.5 -2.5t0 -5.5t-5.5 -3q-78 1 -160 -100q2 -23 0.5 -77.5t1.5 -79.5
q0 -2 1 -8.5t1.5 -9t2 -7.5t2.5 -7t3 -4.5t5 -2.5t6.5 1t8 4.5t10.5 9.5q44 44 102.5 116.5t90.5 122.5q2 3 4.5 2.5t4.5 -3t1 -4.5q-32 -52 -92 -126.5t-104 -117.5q-56 -56 -84 33q-10 30 -15 88q-20 -30 -67 -115q-36 -63 -53 -88z" />
    <glyph glyph-name="y" unicode="y" horiz-adv-x="379" 
d="M-68 30q58 40 187 93q33 129 54 177q-6 -7 -23 -29t-24.5 -31.5t-22.5 -27.5t-25 -28t-23 -21.5t-24 -19.5q-50 -35 -60 26q-9 48 19 114q24 55 64 24q-36 -67 -45 -123q-6 -38 9 -35q3 0 7 3q26 18 56.5 51.5t68.5 82.5t53 67q12 12 16 15q20 15 34 -10
q-11 -20 -19 -38.5t-16 -41.5t-12 -36t-13 -45.5t-13 -46.5q139 60 199 150q2 4 7 2t3 -7q-63 -95 -213 -159q-2 -9 -12.5 -45.5t-14.5 -49.5t-14.5 -47t-17.5 -50t-19 -45t-23 -46.5t-26 -39.5t-31.5 -39.5t-35.5 -31.5q-32 -24 -71 -29t-71 16t-38 65q-9 67 29.5 129.5
t100.5 106.5zM-36 -238q86 85 151 348q-124 -52 -177 -89q-60 -42 -97.5 -103t-27.5 -125q6 -39 33.5 -55t60 -8t57.5 32z" />
    <glyph glyph-name="z" unicode="z" horiz-adv-x="323" 
d="M323 300q2 4 6.5 1.5t3.5 -6.5q-43 -74 -149 -150q16 -116 -52.5 -252t-173.5 -177q-47 -18 -87.5 2.5t-43.5 75.5q-3 59 36 116q15 23 37.5 45.5t42.5 39.5t50 38.5t48.5 33t51 32t44.5 27.5q-3 44 -16.5 65.5t-49.5 30.5q-18 5 -5 21q5 6 22 21t24.5 27.5t4.5 28.5
q-3 20 -21.5 23.5t-33.5 -5.5q-29 -13 -52 -43q-2 -3 -6.5 -1t-3.5 6q14 27 42.5 50.5t62.5 23.5q21 0 36.5 -12.5t14.5 -37.5q0 -15 -8.5 -29.5t-16.5 -21.5t-27 -20t-25 -18q46 -5 68.5 -23t33.5 -56q99 71 142 144zM-47 -269q78 39 134.5 163.5t50.5 219.5
q-9 -6 -48.5 -30t-61 -39t-55 -39.5t-58.5 -50t-43 -52.5q-38 -58 -34 -108q3 -47 37 -66.5t78 2.5z" />
    <glyph glyph-name="braceleft" unicode="{" horiz-adv-x="390" 
d="M227 527q-12 -65 -29 -109.5t-55 -73.5q-29 -23 -69 -34q34 -17 50 -37q41 -52 5 -159q-1 -4 -11 -31t-13.5 -41t-7.5 -37.5t0 -40.5t16 -29q15 -15 48 -18q3 0 3 -2q0 -3 -3 -3q-37 1 -57 17q-11 8 -18.5 19.5t-9.5 27t-3.5 26.5t2 32t5 28.5t7.5 30t6 24.5
q27 109 -5 156q-14 20 -45 34q-3 1 -3 4q0 1 3 3q38 10 61 28q24 18 42 49.5t25.5 55t17.5 63.5q10 41 17.5 65t27 56.5t45.5 48.5q29 17 69 17q2 0 2 -3q0 -2 -2 -3q-35 0 -56 -15t-35.5 -44.5t-18.5 -48t-11 -56.5z" />
    <glyph glyph-name="bar" unicode="|" horiz-adv-x="92" 
d="M40 742q0 6 6 6t6 -6v-707q0 -7 -6 -7t-6 7v707z" />
    <glyph glyph-name="braceright" unicode="}" horiz-adv-x="391" 
d="M163 82q9 44 15.5 69t24.5 59.5t45 54.5q24 20 68 34q-30 14 -49 36q-40 50 -6 159q1 4 9 26t11.5 32.5t8.5 32t5 35t-4 29t-14 25.5q-16 16 -47 17q-3 1 -3 3q0 3 3 3q37 -3 57 -17q11 -8 18.5 -19.5t9.5 -27.5t3.5 -27t-2 -32t-5 -28t-7.5 -30.5t-6 -24.5
q-28 -106 5 -155q14 -22 45 -35q3 0 3 -3q0 -2 -3 -4q-38 -8 -62 -27t-41.5 -50t-25 -54.5t-17.5 -63.5q-8 -31 -13.5 -49t-16 -44.5t-26 -45.5t-35.5 -31q-28 -17 -68 -17q-3 0 -3 3q0 2 3 2q34 1 56 16q21 15 35 44.5t18 48t11 56.5z" />
    <glyph glyph-name="asciitilde" unicode="~" horiz-adv-x="355" 
d="M44 234q-2 -2 -3 -0.5t0 3.5q22 13 49 17.5t42.5 3t54.5 -8.5t50 -9q46 -8 74 11q2 1 3 0t0 -3q-30 -24 -57 -30q-40 -9 -99.5 9.5t-83.5 16.5q-14 -1 -30 -10z" />
    <glyph glyph-name="exclamdown" unicode="&#xa1;" horiz-adv-x="278" 
d="M200 555q1 4 5 5t7 -1t3 -5l-112 -568q-5 -28 -33 -28q-24 0 -29 18q-2 6 0 12zM238 623q0 -9 -6 -15t-15 -6q-8 0 -14 6t-6 15q0 8 5.5 14.5t14.5 6.5q8 0 14.5 -6t6.5 -15z" />
    <glyph glyph-name="cent" unicode="&#xa2;" horiz-adv-x="261" 
d="M78 448q0 6 6 6t6 -6v-63q26 5 45.5 -7.5t22.5 -40.5q0 -2 -3 -3t-5.5 -0.5t-2.5 2.5q-2 28 -20.5 33.5t-36.5 -11.5v-224q76 41 171 166q4 5 9 0q3 -3 1 -5q-94 -125 -181 -174v-94q0 -7 -6 -7t-6 7v88q-35 -18 -58.5 -14.5t-35 18t-15.5 40.5q-7 55 17.5 115.5
t68.5 94.5q10 7 23 12v67zM13 158q6 -57 65 -30v218q-30 -34 -49.5 -89.5t-15.5 -98.5z" />
    <glyph glyph-name="sterling" unicode="&#xa3;" horiz-adv-x="625" 
d="M386 306q6 0 6 -6t-6 -6h-60q-37 -120 -92 -202l33 -12q35 -14 55 -21.5t52 -16t54.5 -5.5t49.5 11t51 31t46 58q3 3 7 1q5 -3 1 -7q-19 -32 -41.5 -53.5t-42.5 -33.5t-46.5 -15t-45.5 -2t-49 9.5t-47 14.5t-49 19l-35 13q-29 -37 -70 -56q-21 -10 -45 -11.5t-45 8.5
q-25 15 -26.5 42t23.5 44q41 27 135 -5q41 65 75 189h-61q-6 0 -6 6t6 6h64q6 17 20 73.5t27.5 96.5t36 87.5t56.5 75.5t76 33q45 5 66 -23.5t-6 -66.5q-37 -49 -144 -45q-32 -64 -79 -231h56zM489 645q-7 -4 -14 -9.5t-13.5 -13t-11 -12.5t-11 -16t-9 -15t-9.5 -17t-8 -15
q98 -7 133 43q23 33 0.5 54.5t-57.5 0.5zM136 45q30 16 56 52q-83 28 -123 3q-19 -11 -18 -34.5t24 -31.5q27 -7 61 11z" />
    <glyph glyph-name="yen" unicode="&#xa5;" horiz-adv-x="510" 
d="M367 242q6 0 6 -6t-6 -6h-82q-76 -158 -154 -224q-49 -41 -110 -55.5t-121 7.5l6 9q90 -35 192 67q70 71 129 196h-33q-6 0 -6 6t6 6h39q5 10 12.5 28t10.5 25h-62q-6 0 -6 6t6 6h67q15 37 43.5 113t43.5 114q-69 -106 -115 -159q-36 -43 -57 -54q-41 -24 -61 2t-17 72
q7 74 44 149q43 93 103 114q11 5 26 1.5t15 -17.5q0 -20 -25 -35.5t-49 -20.5q-67 -108 -71 -215q-2 -80 66 -12q10 10 20 22q62 73 145 204q32 67 72 80q8 2 15.5 -2.5t10.5 -13.5q-23 -41 -47 -95.5t-55 -130.5t-48 -116h47q6 0 6 -6t-6 -6h-52l-24 -53h76zM260 645
q-20 -15 -42 -49q20 5 39.5 17.5t19.5 28.5q0 6 -4.5 7.5t-12.5 -4.5z" />
    <glyph glyph-name="brokenbar" unicode="&#xa6;" horiz-adv-x="103" 
d="M40 -85l7 367q0 4 5 4t5 -4l6 -368q-1 -11 -11.5 -10.5t-11.5 11.5zM40 687q1 11 11.5 11t11.5 -11l-6 -367q0 -4 -5 -4t-5 4z" />
    <glyph glyph-name="section" unicode="&#xa7;" horiz-adv-x="452" 
d="M306 394q35 -44 49.5 -91t-2 -94.5t-69.5 -76.5q19 -61 -10 -115q-22 -40 -67.5 -59.5t-88.5 -7.5q-40 11 -61.5 45t-14.5 79q5 29 21 53q4 6 8 -1q2 -3 0 -6q-13 -21 -18 -47q-5 -39 14 -70.5t53 -37.5q34 -7 65 12t42 53q16 41 1 86t-38.5 76t-47 74.5t-26.5 82.5
q-2 42 21 76t63 49q-7 18 -8 33q-12 77 45 117q58 42 116 19q36 -13 49.5 -50t6.5 -78q-2 -8 -8 -7q-4 1 -3 8q6 37 -5.5 70.5t-43.5 45.5q-27 9 -53 2t-44 -28q-29 -35 -21 -87q2 -14 7 -27.5t14.5 -28t15.5 -23t20 -24.5t18 -22zM309 237q4 37 -12 74t-48.5 83.5
t-42.5 65.5q-25 -14 -38.5 -42.5t-11.5 -58.5q2 -36 21.5 -70t50.5 -72.5t44 -60.5q33 42 37 81z" />
    <glyph glyph-name="dieresis" unicode="&#xa8;" horiz-adv-x="169" 
d="M59 683q17 0 19 -19q-2 -18 -19 -20q-17 2 -19 20q2 19 19 19zM110 683q17 0 19 -19q-2 -18 -19 -20q-17 2 -19 20q2 19 19 19z" />
    <glyph glyph-name="copyright" unicode="&#xa9;" horiz-adv-x="374" 
d="M41 500q2 61 34 102t76 49.5t86.5 -2.5t70.5 -53t25 -102q-2 -43 -20 -76t-44.5 -49.5t-58 -24t-62 1.5t-55 27t-39.5 51.5t-13 75.5zM54 501q-4 -92 60.5 -131.5t132.5 -3t73 129.5q5 94 -60 133.5t-133.5 2t-72.5 -130.5zM237 578h4q0 10 -6 18.5t-15 9.5
q-29 5 -58 -22q-55 -55 -55 -137q-1 -35 19.5 -47.5t49.5 1.5q45 18 82 77q1 1 -3 1q-40 -60 -83 -75q-39 -12 -43 34q-3 35 13 80q36 82 78 82q17 0 17 -22z" />
    <glyph glyph-name="ordfeminine" unicode="&#xaa;" horiz-adv-x="341" 
d="M159 640q-34 -46 -57 -70q-35 -35 -52 -12q-19 27 -2 77q17 44 55 59t70 -24q6 9 9.5 13.5t10.5 11.5t14 6.5t14 -8.5q-59 -115 -66 -191q-2 -32 7 -36t28 21q22 28 104 161q1 4 6 0q1 -2 0 -3l-24 -40t-27 -44.5t-24 -37t-29 -40.5q-19 -25 -33 -29q-17 -5 -25.5 12.5
t-8.5 37.5q0 68 30 136zM64 576q0 -33 35 0q30 36 57 72q2 3 7 9t7 9q-36 40 -70.5 -1.5t-35.5 -88.5z" />
    <glyph glyph-name="guillemotleft" unicode="&#xab;" horiz-adv-x="833" 
d="M44 295l181 128q5 4 6 -1l-2 -6l-147 -129l115 -155q6 -7 -1 -8q-3 0 -5 2l-148 158q-7 6 1 11zM133 295l181 128q5 4 6 -1l-2 -6l-147 -129l115 -155q6 -7 -1 -8q-3 0 -5 2l-148 158q-6 6 1 11z" />
    <glyph glyph-name="logicalnot" unicode="&#xac;" horiz-adv-x="321" 
d="M46 352q-6 0 -6 6t6 6h235v-55q0 -7 -6 -7t-6 7v43h-223z" />
    <glyph glyph-name="registered" unicode="&#xae;" horiz-adv-x="374" 
d="M41 500q2 61 34 102t76 49.5t86.5 -2.5t70.5 -53t25 -102q-2 -43 -20 -76t-44.5 -49.5t-58 -24t-62 1.5t-55 27t-39.5 51.5t-13 75.5zM54 501q-4 -92 60.5 -131.5t132.5 -3t73 129.5q5 94 -60 133.5t-133.5 2t-72.5 -130.5zM228 530q18 18 15 39q-2 15 -17 12t-27 -15
q-21 -23 -41 -96q-9 -33 -20 -54q-16 0 -14 21q11 54 27 97q14 33 27 50q-6 0 -19 0.5t-19 0.5q-30 -2 -45 -14.5t-10 -44.5q0 -1 -1 -2l-2 1q-10 60 58 62h41q14 16 27 16q10 0 9 -9q-1 -10 -23 -10q-12 -17 -30 -59q-18 -50 -25 -100q7 17 16 45q20 72 42 97q11 12 28 17
q29 7 34 -14q5 -23 -23 -47q-20 -11 -46 -13q9 -6 15 -18t7 -20.5t2.5 -26t1.5 -21.5q1 -13 6.5 -16.5t11.5 0.5t12 11q4 5 36 62q1 1 3 -1q-30 -53 -36 -62q-5 -7 -16 -15t-21.5 -0.5t-12.5 21.5q0 3 -1.5 22.5t-3 27.5t-7 20t-14.5 18q7 0 23 2q17 4 32 16zM208 598
q-1 0 -12 -11q18 0 19 8q0 5 -7 3z" />
    <glyph glyph-name="degree" unicode="&#xb0;" horiz-adv-x="223" 
d="M111 730q32 0 52 -19.5t20 -51.5q0 -29 -21.5 -50.5t-50.5 -21.5q-31 0 -51 21t-20 51q0 28 19 49.5t52 21.5zM111 611q20 0 34 13t14 35q0 20 -13 33.5t-35 13.5q-19 0 -33 -13t-14 -34q0 -20 13 -34t34 -14z" />
    <glyph glyph-name="plusminus" unicode="&#xb1;" horiz-adv-x="277" 
d="M138 201q-6 0 -6 6v86h-86q-6 0 -6 6t6 6h86v86q0 7 6 7t6 -7v-86h86q7 0 7 -6t-7 -6h-86v-86q0 -6 -6 -6zM46 172q-6 0 -6 6t6 6h185q6 0 6 -6t-6 -6h-185z" />
    <glyph glyph-name="twosuperior" unicode="&#xb2;" horiz-adv-x="428" 
d="M89 474q-29 16 -40 -18q-1 -2 -4 -1l-1 2q10 52 39 78q8 7 25.5 20t25.5 21q19 20 24 46t-11 49q-9 14 -25 14q-31 0 -40 -34q0 -3 -4 -2q-2 1 -1 3q5 17 19.5 29t33.5 12q21 0 37 -16q22 -24 16.5 -57.5t-30.5 -53.5q-6 -4 -24 -12.5t-27 -14.5q-35 -23 -47 -60
q13 8 29 8q6 0 20.5 -5t26.5 -9t23.5 -2t15.5 14q2 5 5 2q1 -1 1 -3q-10 -29 -36 -29q-17 0 -51 19z" />
    <glyph glyph-name="threesuperior" unicode="&#xb3;" horiz-adv-x="393" 
d="M301 471q-18 -16 -42 -17t-42 17q-15 16 -13 41q1 5 5 2l1 -2q-3 -23 12 -38q14 -14 32.5 -11.5t29.5 19.5q7 10 13 32q3 25 -7 44t-34 22q-5 0 -2 4q1 2 3 2q23 5 34 13q19 13 19 43q-6 43 -37 44q-26 1 -38 -30q-1 -3 -3 -2.5t-1 3.5q9 36 49 36q24 0 38 -15t14 -38
q0 -31 -21 -45q-22 -11 -41 -12q25 -5 40 -25.5t11 -45.5q-1 -22 -20 -41z" />
    <glyph glyph-name="acute" unicode="&#xb4;" horiz-adv-x="134" 
d="M41 622l28 78q3 5 9.5 4.5t12 -5.5t2.5 -9l-46 -71q-1 -3 -4 -1.5t-2 4.5z" />
    <glyph glyph-name="mu" unicode="&#xb5;" horiz-adv-x="297" 
d="M143 349q18 36 38 43q5 2 11.5 2t11 -2t3.5 -6q-8 -35 -38.5 -121t-36.5 -134q-4 -31 12 -28q20 4 47 39q20 25 106 158q4 8 9 1q2 -3 -1 -7q-78 -124 -104 -157q-48 -59 -78 -50q-24 7 -26 44q-2 24 2.5 52.5t10 45.5t18.5 53t17 47q-39 -78 -75 -129q-42 -59 -80 -52
l-44 -145q-13 2 -20.5 8t-10.5 9.5t-1.5 14.5t2 12t4.5 13l74 230q6 20 35 32q21 10 21 -1q-1 -2 -1 -3q-8 -24 -26 -70q-2 -6 -8 -23t-8 -27q-7 -25 -3 -29q18 -14 58 40q35 46 81 140z" />
    <glyph glyph-name="paragraph" unicode="&#xb6;" horiz-adv-x="376" 
d="M167 80q-3 -9 -13 -8q-8 1 -5 9l112 390h-66l-113 -389q-3 -10 -13 -10q-9 0 -6 11l61 213q-46 3 -69 33t-10 71q19 62 90 82q24 6 51 6h140q6 0 8.5 -4t0.5 -8.5t-7 -4.5h-49z" />
    <glyph glyph-name="periodcentered" unicode="&#xb7;" horiz-adv-x="118" 
d="M59 316q17 0 19 -19q-2 -18 -19 -20q-17 2 -19 20q2 19 19 19z" />
    <glyph glyph-name="cedilla" unicode="&#xb8;" horiz-adv-x="159" 
d="M101 -8q-11 -11 -29.5 -11t-30.5 12q-2 2 1 4h4q10 -8 19 -8q17 0 29 17q16 24 4 42q-6 10 -23 7q-12 -5 -16 -2q-4 2 -2 5l9 34h19l-7 -29q11 6 24 1q17 -8 17 -29q0 -25 -18 -43z" />
    <glyph glyph-name="onesuperior" unicode="&#xb9;" horiz-adv-x="298" 
d="M-69 460h24l34 209l-30 -22l-11 -10q-4 -2 -5 1q-1 2 1 4q8 5 12 10q49 38 60 41l-36 -233h25q4 0 2 -3q0 -2 -3 -2h-74q-3 0 -2 3q1 2 3 2z" />
    <glyph glyph-name="ordmasculine" unicode="&#xba;" horiz-adv-x="281" 
d="M130 693q26 0 38.5 -25.5t10.5 -55t-4 -50.5q-6 -41 -23.5 -74t-49.5 -33q-61 0 -48 120q3 18 7.5 35.5t13 37.5t23 32.5t32.5 12.5zM150 565q3 12 4.5 28t2.5 39t-5.5 38.5t-20.5 15.5q-32 0 -52 -113q-21 -113 23 -113q33 0 48 105z" />
    <glyph glyph-name="guillemotright" unicode="&#xbb;" horiz-adv-x="362" 
d="M317 253l-181 -128q-5 -4 -6 1q-1 3 2 6l147 129l-115 155q-6 7 1 8q3 0 5 -2l148 -158q6 -6 -1 -11zM228 253l-181 -128q-5 -4 -6 1q-1 3 2 6l147 129l-115 155q-6 7 1 8q3 0 5 -2l148 -158q6 -6 -1 -11z" />
    <glyph glyph-name="onequarter" unicode="&#xbc;" horiz-adv-x="313" 
d="M251 744q2 6 8 4t4 -8l-210 -707q-2 -6 -8 -4q-6 1 -4 7zM54 511h24l34 209l-30 -22l-11 -10q-4 -2 -5 1q-1 2 1 4q8 5 12 10q49 38 60 41l-36 -233h25q4 0 2 -3l-3 -2h-74q-3 0 -2 3q1 2 3 2zM262 38q4 0 2 -3l-4 -2h-72q-3 0 -4 2q2 2 4 3h25l10 64h-84q21 43 67 104
q7 9 22.5 26.5t22.5 26.5q9 13 22 12l-37 -233h26zM158 124h69l19 116q-52 -56 -88 -116z" />
    <glyph glyph-name="onehalf" unicode="&#xbd;" horiz-adv-x="311" 
d="M251 744q2 6 8 4t4 -8l-210 -707q-2 -6 -8 -4q-6 1 -4 7zM54 511h24l34 209l-30 -22l-11 -10q-4 -2 -5 1q-1 2 1 4q8 5 12 10q49 38 60 41l-36 -233h25q4 0 2 -3l-3 -2h-74q-3 0 -2 3q1 2 3 2zM175 51q-29 17 -40 -18q-1 -2 -4 -1q-2 0 -1 2q10 52 39 78q8 7 25.5 20
t25.5 21q19 20 24 46t-11 49q-9 14 -25 14q-31 0 -40 -34q0 -3 -4 -2l-1 3q5 17 19.5 29t33.5 12q21 0 37 -16q22 -24 16.5 -57.5t-30.5 -53.5q-6 -4 -24 -12.5t-27 -14.5q-35 -23 -47 -60q13 8 29 8q6 0 20.5 -5t26.5 -9t23.5 -2t15.5 14q2 5 5 2q1 -1 1 -3
q-10 -29 -36 -29q-17 0 -51 19z" />
    <glyph glyph-name="threequarters" unicode="&#xbe;" horiz-adv-x="347" 
d="M285 744q2 6 8 4t4 -8l-210 -707q-2 -6 -8 -4q-6 1 -4 7zM296 38q4 0 2 -3l-4 -2h-72q-3 0 -4 2q2 2 4 3h25l10 64h-84q21 43 67 104q7 9 22.5 26.5t22.5 26.5q9 13 22 12l-37 -233h26zM192 124h69l19 116q-52 -56 -88 -116zM138 522q-18 -16 -42 -17t-42 17
q-15 16 -13 41q1 5 5 2l1 -2q-3 -23 12 -38q14 -14 32.5 -11.5t29.5 19.5q7 10 13 32q3 25 -7 44t-34 22q-5 0 -2 4q1 2 3 2q23 5 34 13q19 13 19 43q-6 43 -37 44q-26 1 -38 -30q-1 -3 -3 -2.5t-1 3.5q9 36 49 36q24 0 38 -15t14 -38q0 -31 -21 -45q-22 -11 -41 -12
q25 -5 40 -25.5t11 -45.5q-2 -23 -20 -41z" />
    <glyph glyph-name="questiondown" unicode="&#xbf;" horiz-adv-x="404" 
d="M344 667q8 0 14 -6.5t6 -15.5q0 -8 -6 -14t-14 -6t-14 5.5t-6 14.5q0 22 20 22zM344 554q-4 -24 -10.5 -46.5t-19 -45.5t-22 -39t-28.5 -41t-28.5 -37t-33 -40t-31.5 -37q-84 -102 -69 -201q6 -41 31.5 -60.5t56 -17.5t59.5 20q62 40 62 122q0 5 5.5 5t5.5 -5
q3 -83 -64 -129q-47 -35 -110 -23t-91 67q-24 43 -15.5 91t31.5 87t58 73q11 11 41.5 39.5t40 38t30.5 34t30.5 42.5t21.5 46t20 60q2 8 9.5 10.5t14 -1.5t5.5 -12z" />
    <glyph glyph-name="Agrave" unicode="&#xc0;" horiz-adv-x="893" 
d="M418 446q-34 8 -51 11.5t-49 9.5t-49 7t-44.5 2t-44 -3.5t-38.5 -11.5t-36 -20t-29.5 -30.5t-26.5 -42.5t-19 -56q0 -3 -3 -4t-5.5 1t-1.5 5q16 64 48.5 103t63 55t89.5 14.5t91.5 -7t106.5 -22.5h1q72 -17 92 -20q68 147 91 187q26 48 64 90.5t71 35.5q25 -6 34 -51.5
t-2 -113.5t-45 -196q-48 -185 -48 -278q0 -54 27 -63.5t61 30.5q68 80 127 222q2 4 7 1.5t3 -6.5q-60 -146 -135 -236q-44 -50 -77.5 -47t-52 38.5t-15.5 81.5q6 88 53 284q-57 -8 -140 6q-43 -93 -85.5 -159.5t-96.5 -106.5q-26 -20 -54 -15.5t-41 35.5q-7 16 -9 41
q0 3 2.5 4.5t5 0.5t2.5 -4q1 -14 7 -34q9 -24 29.5 -26.5t42.5 15.5q81 66 169 254q-30 5 -90 19zM633 621q-27 -46 -92 -189q79 -13 138 -5q24 94 33 159q8 49 6 77t-11 36t-28.5 -12t-45.5 -66zM728 849l28 -78q2 -3 -1 -4.5t-5 1.5l-46 71q-3 4 2.5 9t12 5.5t9.5 -4.5z
" />
    <glyph glyph-name="Aacute" unicode="&#xc1;" horiz-adv-x="893" 
d="M418 446q-34 8 -51 11.5t-49 9.5t-49 7t-44.5 2t-44 -3.5t-38.5 -11.5t-36 -20t-29.5 -30.5t-26.5 -42.5t-19 -56q0 -3 -3 -4t-5.5 1t-1.5 5q16 64 48.5 103t63 55t89.5 14.5t91.5 -7t106.5 -22.5h1q72 -17 92 -20q68 147 91 187q26 48 64 90.5t71 35.5q25 -6 34 -51.5
t-2 -113.5t-45 -196q-48 -185 -48 -278q0 -54 27 -63.5t61 30.5q68 80 127 222q2 4 7 1.5t3 -6.5q-60 -146 -135 -236q-44 -50 -77.5 -47t-52 38.5t-15.5 81.5q6 88 53 284q-57 -8 -140 6q-43 -93 -85.5 -159.5t-96.5 -106.5q-26 -20 -54 -15.5t-41 35.5q-7 16 -9 41
q0 3 2.5 4.5t5 0.5t2.5 -4q1 -14 7 -34q9 -24 29.5 -26.5t42.5 15.5q81 66 169 254q-30 5 -90 19zM633 621q-27 -46 -92 -189q79 -13 138 -5q24 94 33 159q8 49 6 77t-11 36t-28.5 -12t-45.5 -66zM717 771l28 78q3 5 9.5 4.5t12 -5.5t2.5 -9l-46 -71q-1 -3 -4 -1.5t-2 4.5z
" />
    <glyph glyph-name="Acircumflex" unicode="&#xc2;" horiz-adv-x="893" 
d="M418 446q-34 8 -51 11.5t-49 9.5t-49 7t-44.5 2t-44 -3.5t-38.5 -11.5t-36 -20t-29.5 -30.5t-26.5 -42.5t-19 -56q0 -3 -3 -4t-5.5 1t-1.5 5q16 64 48.5 103t63 55t89.5 14.5t91.5 -7t106.5 -22.5h1q72 -17 92 -20q68 147 91 187q26 48 64 90.5t71 35.5q25 -6 34 -51.5
t-2 -113.5t-45 -196q-48 -185 -48 -278q0 -54 27 -63.5t61 30.5q68 80 127 222q2 4 7 1.5t3 -6.5q-60 -146 -135 -236q-44 -50 -77.5 -47t-52 38.5t-15.5 81.5q6 88 53 284q-57 -8 -140 6q-43 -93 -85.5 -159.5t-96.5 -106.5q-26 -20 -54 -15.5t-41 35.5q-7 16 -9 41
q0 3 2.5 4.5t5 0.5t2.5 -4q1 -14 7 -34q9 -24 29.5 -26.5t42.5 15.5q81 66 169 254q-30 5 -90 19zM633 621q-27 -46 -92 -189q79 -13 138 -5q24 94 33 159q8 49 6 77t-11 36t-28.5 -12t-45.5 -66zM811 765q-1 -1 -3 0l-63 67l-76 -54q-1 -3 -3 -1q-1 0 -1 3l77 85l2 2
q2 0 2 -2l65 -98q2 -2 0 -2z" />
    <glyph glyph-name="Atilde" unicode="&#xc3;" horiz-adv-x="893" 
d="M418 446q-34 8 -51 11.5t-49 9.5t-49 7t-44.5 2t-44 -3.5t-38.5 -11.5t-36 -20t-29.5 -30.5t-26.5 -42.5t-19 -56q0 -3 -3 -4t-5.5 1t-1.5 5q16 64 48.5 103t63 55t89.5 14.5t91.5 -7t106.5 -22.5h1q72 -17 92 -20q68 147 91 187q26 48 64 90.5t71 35.5q25 -6 34 -51.5
t-2 -113.5t-45 -196q-48 -185 -48 -278q0 -54 27 -63.5t61 30.5q68 80 127 222q2 4 7 1.5t3 -6.5q-60 -146 -135 -236q-44 -50 -77.5 -47t-52 38.5t-15.5 81.5q6 88 53 284q-57 -8 -140 6q-43 -93 -85.5 -159.5t-96.5 -106.5q-26 -20 -54 -15.5t-41 35.5q-7 16 -9 41
q0 3 2.5 4.5t5 0.5t2.5 -4q1 -14 7 -34q9 -24 29.5 -26.5t42.5 15.5q81 66 169 254q-30 5 -90 19zM633 621q-27 -46 -92 -189q79 -13 138 -5q24 94 33 159q8 49 6 77t-11 36t-28.5 -12t-45.5 -66zM835 797q2 0 3 -3q-41 -33 -90 -24q-15 2 -43 10t-31 9q-27 6 -47 -6
q-2 -1 -2.5 0.5t0.5 3.5q17 12 40 15q32 5 84 -9q60 -13 86 4z" />
    <glyph glyph-name="Adieresis" unicode="&#xc4;" horiz-adv-x="893" 
d="M418 446q-34 8 -51 11.5t-49 9.5t-49 7t-44.5 2t-44 -3.5t-38.5 -11.5t-36 -20t-29.5 -30.5t-26.5 -42.5t-19 -56q0 -3 -3 -4t-5.5 1t-1.5 5q16 64 48.5 103t63 55t89.5 14.5t91.5 -7t106.5 -22.5h1q72 -17 92 -20q68 147 91 187q26 48 64 90.5t71 35.5q25 -6 34 -51.5
t-2 -113.5t-45 -196q-48 -185 -48 -278q0 -54 27 -63.5t61 30.5q68 80 127 222q2 4 7 1.5t3 -6.5q-60 -146 -135 -236q-44 -50 -77.5 -47t-52 38.5t-15.5 81.5q6 88 53 284q-57 -8 -140 6q-43 -93 -85.5 -159.5t-96.5 -106.5q-26 -20 -54 -15.5t-41 35.5q-7 16 -9 41
q0 3 2.5 4.5t5 0.5t2.5 -4q1 -14 7 -34q9 -24 29.5 -26.5t42.5 15.5q81 66 169 254q-30 5 -90 19zM633 621q-27 -46 -92 -189q79 -13 138 -5q24 94 33 159q8 49 6 77t-11 36t-28.5 -12t-45.5 -66zM712 803q17 0 19 -19q-2 -18 -19 -20q-17 2 -19 20q2 19 19 19zM763 803
q17 0 19 -19q-2 -18 -19 -20q-17 2 -19 20q2 19 19 19z" />
    <glyph glyph-name="Aring" unicode="&#xc5;" horiz-adv-x="893" 
d="M418 446q-34 8 -51 11.5t-49 9.5t-49 7t-44.5 2t-44 -3.5t-38.5 -11.5t-36 -20t-29.5 -30.5t-26.5 -42.5t-19 -56q0 -3 -3 -4t-5.5 1t-1.5 5q16 64 48.5 103t63 55t89.5 14.5t91.5 -7t106.5 -22.5h1q72 -17 92 -20q68 147 91 187q26 48 64 90.5t71 35.5q25 -6 34 -51.5
t-2 -113.5t-45 -196q-48 -185 -48 -278q0 -54 27 -63.5t61 30.5q68 80 127 222q2 4 7 1.5t3 -6.5q-60 -146 -135 -236q-44 -50 -77.5 -47t-52 38.5t-15.5 81.5q6 88 53 284q-57 -8 -140 6q-43 -93 -85.5 -159.5t-96.5 -106.5q-26 -20 -54 -15.5t-41 35.5q-7 16 -9 41
q0 3 2.5 4.5t5 0.5t2.5 -4q1 -14 7 -34q9 -24 29.5 -26.5t42.5 15.5q81 66 169 254q-30 5 -90 19zM633 621q-27 -46 -92 -189q79 -13 138 -5q24 94 33 159q8 49 6 77t-11 36t-28.5 -12t-45.5 -66zM744 815q17 0 28 -11t11 -28q0 -16 -11.5 -27.5t-27.5 -11.5q-17 0 -28 11.5
t-11 27.5t10.5 27.5t28.5 11.5zM744 750q11 0 18.5 7t7.5 19q0 11 -7 18.5t-19 7.5q-11 0 -18.5 -7t-7.5 -19q0 -11 7 -18.5t19 -7.5z" />
    <glyph glyph-name="AE" unicode="&#xc6;" horiz-adv-x="1249" 
d="M884 441q-50 82 -44 161q3 110 100 138q63 18 128.5 -6.5t85.5 -82.5q12 -34 -2.5 -68t-46.5 -53q-27 -15 -66 -16.5t-65.5 3.5t-66.5 16q-8 2 -11 3q14 -67 47 -118q-128 -13 -193 -78q-55 -55 -55 -136t53 -125.5t129 -36.5q81 9 141 69q-37 0 -69.5 25t-43.5 61
q-10 30 -4 52.5t19.5 40.5t34.5 25.5t41.5 6t40 -17.5t30.5 -44q12 -33 5 -69.5t-29 -66.5q60 14 115 64t91 112q2 4 7 2t3 -7q-39 -68 -99.5 -121.5t-126.5 -61.5q-60 -71 -156 -81q-61 -6 -119 17q-42 -41 -73 -35t-48 40.5t-14 78.5q6 88 53 284q-57 -8 -140 6
q-43 -93 -85.5 -159.5t-96.5 -106.5q-26 -20 -54 -15.5t-41 35.5q-7 16 -9 41q0 3 2.5 4.5t5 0.5t2.5 -4q1 -14 7 -34q9 -24 29.5 -26.5t42.5 15.5q81 66 169 254q-30 5 -90 19q-34 8 -51 11.5t-49 9.5t-49 7t-44.5 2t-44 -3.5t-38.5 -11.5t-36 -20t-29.5 -30.5t-26.5 -42.5
t-19 -56q0 -3 -3 -4t-5.5 1t-1.5 5q16 64 48.5 103t63 55t89.5 14.5t91.5 -7t106.5 -22.5h1q72 -17 92 -20q68 147 91 187q26 48 64 90.5t71 35.5q25 -6 34 -51.5t-2 -113.5q-3 -20 -46 -199q66 45 159 55zM890 604q-2 -29 4 -57q101 -26 146 -24q34 2 59 16q29 17 42.5 48
t-0.5 61q-23 50 -83 65t-112.5 -15t-55.5 -94zM633 621q-27 -46 -92 -189q79 -13 138 -5q24 94 33 159q8 49 6 77t-11 36t-28.5 -12t-45.5 -66zM930 201q5 -36 33 -59.5t65 -19.5q12 15 22 36q24 57 7 98q-15 36 -48.5 40t-59 -24t-19.5 -71zM678 106q1 -41 20 -55t44 4
q-39 20 -64 51z" />
    <glyph glyph-name="Ccedilla" unicode="&#xc7;" horiz-adv-x="778" 
d="M25 408q-5 2 -5 6q13 125 68.5 169t146.5 35q56 -6 184 -45q117 160 241 137q47 -8 64.5 -52t-8.5 -84q-18 -29 -47 -43t-67 -11t-65.5 8.5t-66.5 17.5q-117 -182 -101 -381q6 -68 39 -100t98 -9q143 46 272 244q2 3 5 2.5t4.5 -3t0.5 -4.5q-52 -81 -122.5 -151.5
t-146.5 -103.5q-63 -25 -113 -18.5t-81.5 51.5t-31.5 120q1 93 33 191.5t87 179.5q-121 38 -179 44q-86 8 -138.5 -34.5t-64.5 -160.5q0 -5 -6 -5zM660 696q-88 6 -184 -141q97 -26 138 -24q64 3 93 48q23 33 8.5 73t-55.5 44zM447 -70q-11 -11 -29.5 -11t-30.5 12q-2 2 1 4
q2 2 4 0q10 -8 19 -8q17 0 29 17q16 24 4 42q-6 10 -23 7q-12 -5 -16 -2q-4 2 -2 5l9 34h19l-7 -29q11 6 24 1q17 -8 17 -29q0 -25 -18 -43z" />
    <glyph glyph-name="Egrave" unicode="&#xc8;" horiz-adv-x="797" 
d="M24 463q-5 2 -3 7q36 105 134 122q22 4 48 4t45.5 -2t50 -9t44.5 -11t47 -13q-8 64 15.5 113t82.5 66q63 18 128.5 -6.5t85.5 -82.5q12 -34 -2.5 -68t-46.5 -53q-27 -15 -66 -16.5t-65.5 3.5t-66.5 16q-8 2 -11 3q14 -67 47 -118q-128 -13 -193 -78q-55 -55 -55 -136
t53 -125.5t129 -36.5q81 9 141 69q-37 0 -69.5 25t-43.5 61q-10 30 -4 52.5t19.5 40.5t34.5 25.5t41.5 6t40 -17.5t30.5 -44q12 -33 5 -69.5t-29 -66.5q60 14 115 64t91 112q2 4 7 2t3 -7q-39 -68 -99.5 -121.5t-126.5 -61.5q-60 -71 -156 -81q-85 -9 -157.5 37.5
t-80.5 132.5q-7 71 28.5 125t91.5 81t125 34q-31 51 -40 109q-5 1 -28 7.5t-30 8t-28 6.5t-31 6.5t-28.5 4.5t-31 3t-28.5 -0.5t-30 -3.5q-92 -16 -126 -116q-2 -5 -7 -3zM478 201q5 -36 33 -59.5t65 -19.5q12 15 22 36q24 57 7 98q-15 36 -48.5 40t-59 -24t-19.5 -71z
M438 604q-2 -29 4 -57q101 -26 146 -24q34 2 59 16q29 17 42.5 48t-0.5 61q-23 50 -83 65t-112.5 -15t-55.5 -94zM562 849l28 -78q2 -3 -1 -4.5t-5 1.5l-46 71q-3 4 2.5 9t12 5.5t9.5 -4.5z" />
    <glyph glyph-name="Eacute" unicode="&#xc9;" horiz-adv-x="797" 
d="M24 463q-5 2 -3 7q36 105 134 122q22 4 48 4t45.5 -2t50 -9t44.5 -11t47 -13q-8 64 15.5 113t82.5 66q63 18 128.5 -6.5t85.5 -82.5q12 -34 -2.5 -68t-46.5 -53q-27 -15 -66 -16.5t-65.5 3.5t-66.5 16q-8 2 -11 3q14 -67 47 -118q-128 -13 -193 -78q-55 -55 -55 -136
t53 -125.5t129 -36.5q81 9 141 69q-37 0 -69.5 25t-43.5 61q-10 30 -4 52.5t19.5 40.5t34.5 25.5t41.5 6t40 -17.5t30.5 -44q12 -33 5 -69.5t-29 -66.5q60 14 115 64t91 112q2 4 7 2t3 -7q-39 -68 -99.5 -121.5t-126.5 -61.5q-60 -71 -156 -81q-85 -9 -157.5 37.5
t-80.5 132.5q-7 71 28.5 125t91.5 81t125 34q-31 51 -40 109q-5 1 -28 7.5t-30 8t-28 6.5t-31 6.5t-28.5 4.5t-31 3t-28.5 -0.5t-30 -3.5q-92 -16 -126 -116q-2 -5 -7 -3zM478 201q5 -36 33 -59.5t65 -19.5q12 15 22 36q24 57 7 98q-15 36 -48.5 40t-59 -24t-19.5 -71z
M438 604q-2 -29 4 -57q101 -26 146 -24q34 2 59 16q29 17 42.5 48t-0.5 61q-23 50 -83 65t-112.5 -15t-55.5 -94zM510 771l28 78q3 5 9.5 4.5t12 -5.5t2.5 -9l-46 -71q-2 -3 -5 -1.5t-1 4.5z" />
    <glyph glyph-name="Ecircumflex" unicode="&#xca;" horiz-adv-x="797" 
d="M24 463q-5 2 -3 7q36 105 134 122q22 4 48 4t45.5 -2t50 -9t44.5 -11t47 -13q-8 64 15.5 113t82.5 66q63 18 128.5 -6.5t85.5 -82.5q12 -34 -2.5 -68t-46.5 -53q-27 -15 -66 -16.5t-65.5 3.5t-66.5 16q-8 2 -11 3q14 -67 47 -118q-128 -13 -193 -78q-55 -55 -55 -136
t53 -125.5t129 -36.5q81 9 141 69q-37 0 -69.5 25t-43.5 61q-10 30 -4 52.5t19.5 40.5t34.5 25.5t41.5 6t40 -17.5t30.5 -44q12 -33 5 -69.5t-29 -66.5q60 14 115 64t91 112q2 4 7 2t3 -7q-39 -68 -99.5 -121.5t-126.5 -61.5q-60 -71 -156 -81q-85 -9 -157.5 37.5
t-80.5 132.5q-7 71 28.5 125t91.5 81t125 34q-31 51 -40 109q-5 1 -28 7.5t-30 8t-28 6.5t-31 6.5t-28.5 4.5t-31 3t-28.5 -0.5t-30 -3.5q-92 -16 -126 -116q-2 -5 -7 -3zM478 201q5 -36 33 -59.5t65 -19.5q12 15 22 36q24 57 7 98q-15 36 -48.5 40t-59 -24t-19.5 -71z
M438 604q-2 -29 4 -57q101 -26 146 -24q34 2 59 16q29 17 42.5 48t-0.5 61q-23 50 -83 65t-112.5 -15t-55.5 -94zM657 765q-1 -1 -3 0l-63 67l-76 -54q-1 -3 -3 -1q-1 0 -1 3l77 85l2 2q2 0 2 -2l65 -98q2 -2 0 -2z" />
    <glyph glyph-name="Edieresis" unicode="&#xcb;" horiz-adv-x="797" 
d="M24 463q-5 2 -3 7q36 105 134 122q22 4 48 4t45.5 -2t50 -9t44.5 -11t47 -13q-8 64 15.5 113t82.5 66q63 18 128.5 -6.5t85.5 -82.5q12 -34 -2.5 -68t-46.5 -53q-27 -15 -66 -16.5t-65.5 3.5t-66.5 16q-8 2 -11 3q14 -67 47 -118q-128 -13 -193 -78q-55 -55 -55 -136
t53 -125.5t129 -36.5q81 9 141 69q-37 0 -69.5 25t-43.5 61q-10 30 -4 52.5t19.5 40.5t34.5 25.5t41.5 6t40 -17.5t30.5 -44q12 -33 5 -69.5t-29 -66.5q60 14 115 64t91 112q2 4 7 2t3 -7q-39 -68 -99.5 -121.5t-126.5 -61.5q-60 -71 -156 -81q-85 -9 -157.5 37.5
t-80.5 132.5q-7 71 28.5 125t91.5 81t125 34q-31 51 -40 109q-5 1 -28 7.5t-30 8t-28 6.5t-31 6.5t-28.5 4.5t-31 3t-28.5 -0.5t-30 -3.5q-92 -16 -126 -116q-2 -5 -7 -3zM478 201q5 -36 33 -59.5t65 -19.5q12 15 22 36q24 57 7 98q-15 36 -48.5 40t-59 -24t-19.5 -71z
M438 604q-2 -29 4 -57q101 -26 146 -24q34 2 59 16q29 17 42.5 48t-0.5 61q-23 50 -83 65t-112.5 -15t-55.5 -94zM553 803q17 0 19 -19q-2 -18 -19 -20q-17 2 -19 20q2 19 19 19zM604 803q17 0 19 -19q-2 -18 -19 -20q-17 2 -19 20q2 19 19 19z" />
    <glyph glyph-name="Igrave" unicode="&#xcc;" horiz-adv-x="366" 
d="M88 160q-3 -3 -7 1q-52 75 -59.5 159t36.5 165q94 159 312 202q20 22 50 38.5t57 13.5q14 -2 21.5 -11.5t1.5 -22.5q-5 -8 -14.5 -13t-17.5 -6t-22 -1.5t-18 -0.5q-17 -20 -34 -49t-28 -53.5t-24.5 -62.5t-19.5 -57.5t-18 -60t-14 -48.5q-39 -129 -80 -205t-125 -146
q-5 -4 -8 0t1 8q47 53 79.5 114t47 106t37.5 133q1 4 16.5 68t24 91.5t29.5 74.5t46 76q-91 -19 -168.5 -68t-121.5 -125q-42 -79 -35.5 -159.5t57.5 -153.5q1 -1 0.5 -3.5t-2.5 -3.5zM471 722q-17 -11 -32 -26h12t16 1t13 4t10 9q5 9 -3 13.5t-16 -1.5zM377 849l28 -78
q1 -3 -2 -4.5t-4 1.5l-46 71q-3 4 2.5 9t12 5.5t9.5 -4.5z" />
    <glyph glyph-name="Iacute" unicode="&#xcd;" horiz-adv-x="366" 
d="M88 160q-3 -3 -7 1q-52 75 -59.5 159t36.5 165q94 159 312 202q20 22 50 38.5t57 13.5q14 -2 21.5 -11.5t1.5 -22.5q-5 -8 -14.5 -13t-17.5 -6t-22 -1.5t-18 -0.5q-17 -20 -34 -49t-28 -53.5t-24.5 -62.5t-19.5 -57.5t-18 -60t-14 -48.5q-39 -129 -80 -205t-125 -146
q-5 -4 -8 0t1 8q47 53 79.5 114t47 106t37.5 133q1 4 16.5 68t24 91.5t29.5 74.5t46 76q-91 -19 -168.5 -68t-121.5 -125q-42 -79 -35.5 -159.5t57.5 -153.5q1 -1 0.5 -3.5t-2.5 -3.5zM471 722q-17 -11 -32 -26h12t16 1t13 4t10 9q5 9 -3 13.5t-16 -1.5zM361 771l28 78
q3 5 9.5 4.5t12 -5.5t2.5 -9l-46 -71q-1 -3 -4 -1.5t-2 4.5z" />
    <glyph glyph-name="Icircumflex" unicode="&#xce;" horiz-adv-x="366" 
d="M88 160q-3 -3 -7 1q-52 75 -59.5 159t36.5 165q94 159 312 202q20 22 50 38.5t57 13.5q14 -2 21.5 -11.5t1.5 -22.5q-5 -8 -14.5 -13t-17.5 -6t-22 -1.5t-18 -0.5q-17 -20 -34 -49t-28 -53.5t-24.5 -62.5t-19.5 -57.5t-18 -60t-14 -48.5q-39 -129 -80 -205t-125 -146
q-5 -4 -8 0t1 8q47 53 79.5 114t47 106t37.5 133q1 4 16.5 68t24 91.5t29.5 74.5t46 76q-91 -19 -168.5 -68t-121.5 -125q-42 -79 -35.5 -159.5t57.5 -153.5q1 -1 0.5 -3.5t-2.5 -3.5zM471 722q-17 -11 -32 -26h12t16 1t13 4t10 9q5 9 -3 13.5t-16 -1.5zM474 765q-2 -1 -3 0
l-63 67l-76 -54q-1 -3 -3 -1q-1 0 -1 3l77 85l2 2q2 0 2 -2l65 -98q2 -2 0 -2z" />
    <glyph glyph-name="Idieresis" unicode="&#xcf;" horiz-adv-x="366" 
d="M88 160q-3 -3 -7 1q-52 75 -59.5 159t36.5 165q94 159 312 202q20 22 50 38.5t57 13.5q14 -2 21.5 -11.5t1.5 -22.5q-5 -8 -14.5 -13t-17.5 -6t-22 -1.5t-18 -0.5q-17 -20 -34 -49t-28 -53.5t-24.5 -62.5t-19.5 -57.5t-18 -60t-14 -48.5q-39 -129 -80 -205t-125 -146
q-5 -4 -8 0t1 8q47 53 79.5 114t47 106t37.5 133q1 4 16.5 68t24 91.5t29.5 74.5t46 76q-91 -19 -168.5 -68t-121.5 -125q-42 -79 -35.5 -159.5t57.5 -153.5q1 -1 0.5 -3.5t-2.5 -3.5zM471 722q-17 -11 -32 -26h12t16 1t13 4t10 9q5 9 -3 13.5t-16 -1.5zM381 803
q17 0 19 -19q-2 -18 -19 -20q-17 2 -19 20q2 19 19 19zM432 803q17 0 19 -19q-2 -18 -19 -20q-17 2 -19 20q2 19 19 19z" />
    <glyph glyph-name="Eth" unicode="&#xd0;" horiz-adv-x="861" 
d="M210 340q-6 0 -6 6t6 6h56l18 50q54 148 136 260q-14 0 -65.5 3t-75.5 3t-63.5 -3.5t-70.5 -11.5q-152 -38 -101 -231q2 -5 -4 -7t-6 4q-54 201 108 245q32 8 72.5 11.5t67 3t77.5 -3t69 -3.5q40 49 64 65q24 17 53.5 9t26.5 -40q-5 -41 -98 -44q-95 -132 -148 -310h55
q66 170 124 249q29 41 60 60q58 32 108 -0.5t68 -107.5q19 -84 4.5 -179t-56.5 -172q125 19 172 98q2 2 4.5 2t4.5 -2.5t1 -4.5q-53 -85 -187 -105q-37 -70 -95 -115t-130 -43q-37 2 -62 27t-16 63q7 28 27 45t51.5 23t57 7.5t63.5 0t51 -0.5q42 78 57.5 170t-2.5 184
q-5 21 -13.5 41.5t-23.5 41t-34 24.5t-44 -7q-28 -16 -57 -56q-59 -80 -122 -243h53q6 0 6 -6t-6 -6h-57l-79 -209q-30 -72 -55 -70q-24 2 -26 53q-4 98 35 226h-53zM459 46q90 7 167 140q-11 0 -47 1t-60 -0.5t-54 -6.5t-48.5 -20.5t-24.5 -39.5q-8 -31 12.5 -54.5
t54.5 -19.5zM300 137q16 39 44 115t32 88h-53q-27 -94 -39 -193q-6 -48 4 -35q4 6 12 25zM517 717q-16 -19 -35 -44q1 0 9 0.5t12 1t12.5 2t13.5 3t11.5 4t10 5.5t6.5 7.5t4 10.5q2 19 -15.5 21.5t-28.5 -11.5z" />
    <glyph glyph-name="Ntilde" unicode="&#xd1;" horiz-adv-x="820" 
d="M820 300q2 4 7 2t3 -7q-48 -79 -118 -145t-130 -93q-78 -35 -113 1t-27 116q5 52 24.5 98.5t63.5 118t52 86.5q36 63 44 114q6 44 -12.5 57.5t-57.5 -17.5q-87 -77 -172 -204q-63 -93 -138 -305q-35 -4 -45.5 19.5t-2.5 62.5q43 218 137 386q-28 -3 -80.5 -5.5
t-76.5 -4.5q-39 -4 -65 -13.5t-48 -30.5t-29.5 -58.5t-1.5 -93.5q0 -3 -2.5 -5t-5.5 -0.5t-3 4.5q-6 59 2.5 99t31.5 62t51 32t69 14q25 3 80.5 5.5t84.5 6.5q26 46 68.5 89.5t84.5 44.5q23 0 35 -12t3 -35q-20 -56 -138 -89q-97 -177 -141 -425q64 174 121 258
q83 125 174 206q33 29 67 33.5t54.5 -17.5t17.5 -67q-4 -54 -50 -137q-12 -22 -53.5 -87.5t-63.5 -113t-30 -97.5q-9 -56 11 -83.5t75 -2.5q58 26 126.5 91t116.5 142zM506 716q-51 -11 -104 -103q100 26 121 80q4 11 -0.5 17.5t-16.5 5.5zM664 797q2 0 3 -3
q-41 -33 -90 -24q-15 2 -43 10t-31 9q-27 6 -47 -6q-2 -1 -2.5 0.5t0.5 3.5q17 12 40 15q32 5 84 -9q60 -13 86 4z" />
    <glyph glyph-name="Ograve" unicode="&#xd2;" horiz-adv-x="492" 
d="M421 386q-45 -213 -147 -288q-13 -10 -34 -20q33 -15 68.5 1.5t59.5 50.5q22 29 36 74q2 5 6 3q6 -2 4 -7q-15 -47 -38 -78q-31 -42 -75.5 -58.5t-99.5 0.5q-83 -21 -130.5 29t-49.5 140q-3 152 78 267q25 89 67 144q33 43 89 70.5t102 14.5q70 -20 80 -135
q8 -95 -16 -208zM80 315q-10 -33 -12.5 -68.5t3.5 -73t32.5 -64t70.5 -31.5q-84 60 -94 237zM228 85q21 7 39 21q100 70 144 283q23 107 15 204q-10 111 -72 116q-49 4 -93 -32t-69 -88q59 34 118 43q6 0 6 -5q0 -6 -5 -6q-72 -9 -144 -96q-21 -50 -29 -137t13 -179t77 -124
zM346 849l28 -78q2 -3 -1 -4.5t-5 1.5l-46 71q-3 4 2.5 9t12 5.5t9.5 -4.5z" />
    <glyph glyph-name="Oacute" unicode="&#xd3;" horiz-adv-x="492" 
d="M421 386q-45 -213 -147 -288q-13 -10 -34 -20q33 -15 68.5 1.5t59.5 50.5q22 29 36 74q2 5 6 3q6 -2 4 -7q-15 -47 -38 -78q-31 -42 -75.5 -58.5t-99.5 0.5q-83 -21 -130.5 29t-49.5 140q-3 152 78 267q25 89 67 144q33 43 89 70.5t102 14.5q70 -20 80 -135
q8 -95 -16 -208zM80 315q-10 -33 -12.5 -68.5t3.5 -73t32.5 -64t70.5 -31.5q-84 60 -94 237zM228 85q21 7 39 21q100 70 144 283q23 107 15 204q-10 111 -72 116q-49 4 -93 -32t-69 -88q59 34 118 43q6 0 6 -5q0 -6 -5 -6q-72 -9 -144 -96q-21 -50 -29 -137t13 -179t77 -124
zM324 771l28 78q3 5 9.5 4.5t12 -5.5t2.5 -9l-46 -71q-2 -3 -5 -1.5t-1 4.5z" />
    <glyph glyph-name="Ocircumflex" unicode="&#xd4;" horiz-adv-x="492" 
d="M421 386q-45 -213 -147 -288q-13 -10 -34 -20q33 -15 68.5 1.5t59.5 50.5q22 29 36 74q2 5 6 3q6 -2 4 -7q-15 -47 -38 -78q-31 -42 -75.5 -58.5t-99.5 0.5q-83 -21 -130.5 29t-49.5 140q-3 152 78 267q25 89 67 144q33 43 89 70.5t102 14.5q70 -20 80 -135
q8 -95 -16 -208zM80 315q-10 -33 -12.5 -68.5t3.5 -73t32.5 -64t70.5 -31.5q-84 60 -94 237zM228 85q21 7 39 21q100 70 144 283q23 107 15 204q-10 111 -72 116q-49 4 -93 -32t-69 -88q59 34 118 43q6 0 6 -5q0 -6 -5 -6q-72 -9 -144 -96q-21 -50 -29 -137t13 -179t77 -124
zM414 765q-2 -1 -3 0l-63 67l-76 -54q-1 -3 -3 -1q-1 0 -1 3l77 85l2 2q2 0 2 -2l65 -98q2 -2 0 -2z" />
    <glyph glyph-name="Otilde" unicode="&#xd5;" horiz-adv-x="492" 
d="M421 386q-45 -213 -147 -288q-13 -10 -34 -20q33 -15 68.5 1.5t59.5 50.5q22 29 36 74q2 5 6 3q6 -2 4 -7q-15 -47 -38 -78q-31 -42 -75.5 -58.5t-99.5 0.5q-83 -21 -130.5 29t-49.5 140q-3 152 78 267q25 89 67 144q33 43 89 70.5t102 14.5q70 -20 80 -135
q8 -95 -16 -208zM80 315q-10 -33 -12.5 -68.5t3.5 -73t32.5 -64t70.5 -31.5q-84 60 -94 237zM228 85q21 7 39 21q100 70 144 283q23 107 15 204q-10 111 -72 116q-49 4 -93 -32t-69 -88q59 34 118 43q6 0 6 -5q0 -6 -5 -6q-72 -9 -144 -96q-21 -50 -29 -137t13 -179t77 -124
zM437 797q2 0 3 -3q-41 -33 -90 -24q-15 2 -43 10t-31 9q-27 6 -47 -6q-2 -1 -2.5 0.5t0.5 3.5q17 12 40 15q32 5 84 -9q60 -13 86 4z" />
    <glyph glyph-name="Odieresis" unicode="&#xd6;" horiz-adv-x="492" 
d="M421 386q-45 -213 -147 -288q-13 -10 -34 -20q33 -15 68.5 1.5t59.5 50.5q22 29 36 74q2 5 6 3q6 -2 4 -7q-15 -47 -38 -78q-31 -42 -75.5 -58.5t-99.5 0.5q-83 -21 -130.5 29t-49.5 140q-3 152 78 267q25 89 67 144q33 43 89 70.5t102 14.5q70 -20 80 -135
q8 -95 -16 -208zM80 315q-10 -33 -12.5 -68.5t3.5 -73t32.5 -64t70.5 -31.5q-84 60 -94 237zM228 85q21 7 39 21q100 70 144 283q23 107 15 204q-10 111 -72 116q-49 4 -93 -32t-69 -88q59 34 118 43q6 0 6 -5q0 -6 -5 -6q-72 -9 -144 -96q-21 -50 -29 -137t13 -179t77 -124
zM318 803q17 0 19 -19q-2 -18 -19 -20q-17 2 -19 20q2 19 19 19zM369 803q17 0 19 -19q-2 -18 -19 -20q-17 2 -19 20q2 19 19 19z" />
    <glyph glyph-name="multiply" unicode="&#xd7;" horiz-adv-x="224" 
d="M181 369q5 -5 0 -9l-61 -61l61 -61q6 -4 0 -8q-4 -6 -8 0l-61 61l-61 -61q-5 -5 -9 0q-4 4 0 8l61 61l-61 61q-3 4 0 9q4 4 9 0l61 -61l61 61q4 4 8 0z" />
    <glyph glyph-name="Oslash" unicode="&#xd8;" horiz-adv-x="492" 
d="M362 742q2 6 8 4t4 -8l-4 -14q57 -26 67 -130q8 -95 -16 -208q-45 -213 -147 -288q-13 -10 -34 -20q33 -15 68.5 1.5t59.5 50.5q22 29 36 74q2 5 6 3q6 -2 4 -7q-15 -47 -38 -78q-31 -42 -75.5 -58.5t-99.5 0.5q-10 -3 -30 -5l-8 -28q-2 -6 -7 -4q-6 1 -4 7l7 24
q-64 -1 -100.5 48.5t-37.5 126.5q-3 152 78 267q25 89 67 144q33 43 89 70.5t102 14.5q0 -1 1 -1zM228 85q21 7 39 21q100 70 144 283q23 107 15 204q-10 101 -61 114l-176 -588q18 -23 39 -34zM167 525q-17 -40 -26 -110t0 -152t40 -131l171 577q-49 3 -91.5 -33t-68.5 -87
q59 34 118 43q6 0 6 -5q0 -6 -5 -6q-72 -9 -144 -96zM80 315q-10 -32 -12.5 -67t3 -71.5t29.5 -63.5t65 -34l1 4q-76 62 -86 232z" />
    <glyph glyph-name="Ugrave" unicode="&#xd9;" horiz-adv-x="842" 
d="M563 411q-39 -53 -56.5 -76t-57 -71.5t-74.5 -80.5t-69 -53q-46 -30 -83 -16t-41 68q-7 79 32 218.5t94 235.5q-10 0 -52 3.5t-65 3.5q-36 0 -62 -8t-49.5 -29.5t-36 -65t-12.5 -109.5q0 -5 -6 -5q-5 0 -5 5q0 69 13 115.5t38.5 68.5t53 30.5t66.5 8.5q22 0 63.5 -3.5
t59.5 -3.5q44 68 80 84q26 13 49 2.5t6 -42.5q-11 -21 -34 -34.5t-48 -17.5q-50 -88 -87 -218t-43 -222q-2 -27 2.5 -45t19 -25t41.5 10q35 21 71 54.5t75.5 83t61 78.5t62.5 85q31 114 66 196q44 103 98 57q-139 -312 -142 -578q0 -35 8 -53.5t22 -19.5t29 7t32 24
q31 30 63.5 74.5t46.5 68.5l49 84q4 6 9 1q2 -3 1 -6q-33 -57 -50 -85t-49.5 -72.5t-63.5 -75.5q-100 -96 -148 -1q-45 87 22 350zM425 717q-19 -12 -51 -66q45 11 67 47q7 12 2.5 19.5t-18.5 -0.5zM560 849l28 -78q2 -3 -1 -4.5t-5 1.5l-46 71q-3 4 2.5 9t12 5.5t9.5 -4.5z
" />
    <glyph glyph-name="Uacute" unicode="&#xda;" horiz-adv-x="842" 
d="M563 411q-39 -53 -56.5 -76t-57 -71.5t-74.5 -80.5t-69 -53q-46 -30 -83 -16t-41 68q-7 79 32 218.5t94 235.5q-10 0 -52 3.5t-65 3.5q-36 0 -62 -8t-49.5 -29.5t-36 -65t-12.5 -109.5q0 -5 -6 -5q-5 0 -5 5q0 69 13 115.5t38.5 68.5t53 30.5t66.5 8.5q22 0 63.5 -3.5
t59.5 -3.5q44 68 80 84q26 13 49 2.5t6 -42.5q-11 -21 -34 -34.5t-48 -17.5q-50 -88 -87 -218t-43 -222q-2 -27 2.5 -45t19 -25t41.5 10q35 21 71 54.5t75.5 83t61 78.5t62.5 85q31 114 66 196q44 103 98 57q-139 -312 -142 -578q0 -35 8 -53.5t22 -19.5t29 7t32 24
q31 30 63.5 74.5t46.5 68.5l49 84q4 6 9 1q2 -3 1 -6q-33 -57 -50 -85t-49.5 -72.5t-63.5 -75.5q-100 -96 -148 -1q-45 87 22 350zM425 717q-19 -12 -51 -66q45 11 67 47q7 12 2.5 19.5t-18.5 -0.5zM544 771l28 78q3 5 9.5 4.5t12 -5.5t2.5 -9l-46 -71q-2 -3 -5 -1.5t-1 4.5
z" />
    <glyph glyph-name="Ucircumflex" unicode="&#xdb;" horiz-adv-x="842" 
d="M563 411q-39 -53 -56.5 -76t-57 -71.5t-74.5 -80.5t-69 -53q-46 -30 -83 -16t-41 68q-7 79 32 218.5t94 235.5q-10 0 -52 3.5t-65 3.5q-36 0 -62 -8t-49.5 -29.5t-36 -65t-12.5 -109.5q0 -5 -6 -5q-5 0 -5 5q0 69 13 115.5t38.5 68.5t53 30.5t66.5 8.5q22 0 63.5 -3.5
t59.5 -3.5q44 68 80 84q26 13 49 2.5t6 -42.5q-11 -21 -34 -34.5t-48 -17.5q-50 -88 -87 -218t-43 -222q-2 -27 2.5 -45t19 -25t41.5 10q35 21 71 54.5t75.5 83t61 78.5t62.5 85q31 114 66 196q44 103 98 57q-139 -312 -142 -578q0 -35 8 -53.5t22 -19.5t29 7t32 24
q31 30 63.5 74.5t46.5 68.5l49 84q4 6 9 1q2 -3 1 -6q-33 -57 -50 -85t-49.5 -72.5t-63.5 -75.5q-100 -96 -148 -1q-45 87 22 350zM425 717q-19 -12 -51 -66q45 11 67 47q7 12 2.5 19.5t-18.5 -0.5zM648 765q-2 -1 -3 0l-63 67l-76 -54q-1 -3 -3 -1q-1 0 -1 3l77 85l2 2
q2 0 2 -2l65 -98q2 -2 0 -2z" />
    <glyph glyph-name="Udieresis" unicode="&#xdc;" horiz-adv-x="842" 
d="M563 411q-39 -53 -56.5 -76t-57 -71.5t-74.5 -80.5t-69 -53q-46 -30 -83 -16t-41 68q-7 79 32 218.5t94 235.5q-10 0 -52 3.5t-65 3.5q-36 0 -62 -8t-49.5 -29.5t-36 -65t-12.5 -109.5q0 -5 -6 -5q-5 0 -5 5q0 69 13 115.5t38.5 68.5t53 30.5t66.5 8.5q22 0 63.5 -3.5
t59.5 -3.5q44 68 80 84q26 13 49 2.5t6 -42.5q-11 -21 -34 -34.5t-48 -17.5q-50 -88 -87 -218t-43 -222q-2 -27 2.5 -45t19 -25t41.5 10q35 21 71 54.5t75.5 83t61 78.5t62.5 85q31 114 66 196q44 103 98 57q-139 -312 -142 -578q0 -35 8 -53.5t22 -19.5t29 7t32 24
q31 30 63.5 74.5t46.5 68.5l49 84q4 6 9 1q2 -3 1 -6q-33 -57 -50 -85t-49.5 -72.5t-63.5 -75.5q-100 -96 -148 -1q-45 87 22 350zM425 717q-19 -12 -51 -66q45 11 67 47q7 12 2.5 19.5t-18.5 -0.5zM559 803q17 0 19 -19q-2 -18 -19 -20q-17 2 -19 20q2 19 19 19zM610 803
q17 0 19 -19q-2 -18 -19 -20q-17 2 -19 20q2 19 19 19z" />
    <glyph glyph-name="Yacute" unicode="&#xdd;" horiz-adv-x="752" 
d="M762 295q-26 -60 -94 -102t-176 -32q-82 -165 -179 -245q-68 -56 -152.5 -73.5t-164.5 19.5q-60 32 -75 94t24 115q106 142 477 108q41 83 102.5 242t70.5 179q-88 -135 -149 -206q-45 -54 -74 -70q-39 -23 -62 -10.5t-32 40.5t-7 65q10 122 82 242q-18 -1 -57 -1
q-37 0 -56.5 -0.5t-52.5 -4.5t-51 -12t-41 -24.5t-35 -40.5t-20 -61t-8 -85q0 -5 -5 -5t-5 5q0 39 5 71.5t13 56t23 41.5t27.5 30t35 20t38.5 12t43.5 6t43 2h45.5q44 0 64 1q46 69 101 88q13 7 33 2.5t20 -23.5q0 -26 -32 -45t-64 -27q-87 -141 -92 -278q-2 -88 63 -36
q22 17 49 48q78 92 187 265q42 87 94 103q10 3 19.5 -3t14.5 -17q-18 -23 -34 -49.5t-31 -61t-23.5 -56t-24 -64.5t-20.5 -56q-72 -187 -122 -290q71 -7 127.5 14t84 50.5t42.5 63.5q3 4 7.5 1.5t2.5 -6.5zM480 744q-26 -21 -54 -64q25 6 51 22.5t26 36.5q0 8 -6.5 10
t-16.5 -5zM270 -48q77 78 147 217q-362 31 -463 -104q-37 -51 -22.5 -106t69.5 -85q126 -67 269 78zM567 771l28 78q3 5 9.5 4.5t12 -5.5t2.5 -9l-46 -71q-1 -3 -4 -1.5t-2 4.5z" />
    <glyph glyph-name="Thorn" unicode="&#xde;" horiz-adv-x="683" 
d="M168 371q85 234 188 337q27 25 46 37q25 18 54 10t25 -41q-5 -39 -97 -43q-94 -132 -155 -315t-90 -380l15 49q29 96 47 150t49.5 136.5t67.5 147t78 117.5q26 31 44 45q26 22 54.5 30t55.5 -3.5t40 -46.5q26 -69 1.5 -172.5t-78.5 -157.5q-34 -34 -72.5 -33t-73.5 36
q-24 24 -43 55q-2 6 2 7q5 3 7 -1q19 -32 38 -50q59 -60 111 19q58 85 63 201q4 68 -16 99t-54 21t-71 -56q-42 -52 -77 -116t-66.5 -146t-49.5 -135.5t-47 -149.5q-28 -93 -31 -100q-27 -4 -39.5 6t-12 27t0.5 36q10 162 86 380zM438 734q-16 -8 -48 -52q76 4 80 33
q2 16 -9 21t-23 -2z" />
    <glyph glyph-name="germandbls" unicode="&#xdf;" horiz-adv-x="263" 
d="M-17 243q17 62 29 98.5t38 81t57 60.5q49 28 92 7t32 -81q-15 -77 -104 -116q43 -1 70 -28.5t32 -71.5q6 -64 -35 -112q-23 -26 -58.5 -36t-68.5 2t-43 47q-8 26 1 60q0 2 2.5 2.5t4 -1t1.5 -3.5q-8 -34 1 -58q11 -29 42 -34.5t55 12.5q34 23 49.5 71t4.5 88
q-17 63 -107 52q-3 0 -5 2t-0.5 4.5t4.5 2.5q41 7 72 28q27 19 43 51.5t16 66.5q0 30 -16 41t-36 5t-35 -21q-34 -36 -60 -118q-24 -73 -84 -291q-25 2 -30.5 18t1.5 39q3 15 8.5 35t13.5 49t13 48z" />
    <glyph glyph-name="agrave" unicode="&#xe0;" 
d="M163 288q-63 -82 -90 -108q-53 -53 -80 -18q-31 43 -3 118q15 42 48.5 71t75 28t71.5 -43q27 38 41 44q18 9 34 -9q-93 -176 -102 -298q-4 -50 10.5 -56.5t43.5 32.5q21 28 44.5 63.5t37 57t42.5 69t37 61.5q2 4 7 2t3 -7q-119 -195 -162 -252q-30 -38 -52 -44
q-27 -7 -39.5 19.5t-12.5 57.5q0 106 46 212zM14 189q0 -16 5 -22t13.5 -3t17.5 9.5t18 15.5q32 33 91 112l21 28q-42 44 -78.5 22.5t-61 -71t-26.5 -91.5zM156 501l28 -78q2 -3 -1 -4.5t-5 1.5l-46 71q-3 4 2.5 9t12 5.5t9.5 -4.5z" />
    <glyph glyph-name="aacute" unicode="&#xe1;" 
d="M163 288q-63 -82 -90 -108q-53 -53 -80 -18q-31 43 -3 118q15 42 48.5 71t75 28t71.5 -43q27 38 41 44q18 9 34 -9q-93 -176 -102 -298q-4 -50 10.5 -56.5t43.5 32.5q21 28 44.5 63.5t37 57t42.5 69t37 61.5q2 4 7 2t3 -7q-119 -195 -162 -252q-30 -38 -52 -44
q-27 -7 -39.5 19.5t-12.5 57.5q0 106 46 212zM14 189q0 -16 5 -22t13.5 -3t17.5 9.5t18 15.5q32 33 91 112l21 28q-42 44 -78.5 22.5t-61 -71t-26.5 -91.5zM127 423l28 78q3 5 9.5 4.5t12 -5.5t2.5 -9l-46 -71q-1 -3 -4 -1.5t-2 4.5z" />
    <glyph glyph-name="acircumflex" unicode="&#xe2;" 
d="M163 288q-63 -82 -90 -108q-53 -53 -80 -18q-31 43 -3 118q15 42 48.5 71t75 28t71.5 -43q27 38 41 44q18 9 34 -9q-93 -176 -102 -298q-4 -50 10.5 -56.5t43.5 32.5q21 28 44.5 63.5t37 57t42.5 69t37 61.5q2 4 7 2t3 -7q-119 -195 -162 -252q-30 -38 -52 -44
q-27 -7 -39.5 19.5t-12.5 57.5q0 106 46 212zM14 189q0 -16 5 -22t13.5 -3t17.5 9.5t18 15.5q32 33 91 112l21 28q-42 44 -78.5 22.5t-61 -71t-26.5 -91.5zM244 418q-2 -2 -3 0l-63 67l-76 -54q-1 -3 -3 -1q-1 0 -1 3l77 85l2 2q2 0 2 -2l65 -98q2 -2 0 -2z" />
    <glyph glyph-name="atilde" unicode="&#xe3;" 
d="M163 288q-63 -82 -90 -108q-53 -53 -80 -18q-31 43 -3 118q15 42 48.5 71t75 28t71.5 -43q27 38 41 44q18 9 34 -9q-93 -176 -102 -298q-4 -50 10.5 -56.5t43.5 32.5q21 28 44.5 63.5t37 57t42.5 69t37 61.5q2 4 7 2t3 -7q-119 -195 -162 -252q-30 -38 -52 -44
q-27 -7 -39.5 19.5t-12.5 57.5q0 106 46 212zM14 189q0 -16 5 -22t13.5 -3t17.5 9.5t18 15.5q32 33 91 112l21 28q-42 44 -78.5 22.5t-61 -71t-26.5 -91.5zM290 454q2 0 3 -3q-41 -33 -90 -24q-15 2 -43 10t-31 9q-27 6 -47 -6q-2 -1 -2.5 0.5t0.5 3.5q17 12 40 15
q32 5 84 -9q60 -13 86 4z" />
    <glyph glyph-name="adieresis" unicode="&#xe4;" 
d="M163 288q-63 -82 -90 -108q-53 -53 -80 -18q-31 43 -3 118q15 42 48.5 71t75 28t71.5 -43q27 38 41 44q18 9 34 -9q-93 -176 -102 -298q-4 -50 10.5 -56.5t43.5 32.5q21 28 44.5 63.5t37 57t42.5 69t37 61.5q2 4 7 2t3 -7q-119 -195 -162 -252q-30 -38 -52 -44
q-27 -7 -39.5 19.5t-12.5 57.5q0 106 46 212zM14 189q0 -16 5 -22t13.5 -3t17.5 9.5t18 15.5q32 33 91 112l21 28q-42 44 -78.5 22.5t-61 -71t-26.5 -91.5zM140 455q17 0 19 -19q-2 -18 -19 -20q-17 2 -19 20q2 19 19 19zM191 455q17 0 19 -19q-2 -18 -19 -20q-17 2 -19 20
q2 19 19 19z" />
    <glyph glyph-name="aring" unicode="&#xe5;" 
d="M163 288q-63 -82 -90 -108q-53 -53 -80 -18q-31 43 -3 118q15 42 48.5 71t75 28t71.5 -43q27 38 41 44q18 9 34 -9q-93 -176 -102 -298q-4 -50 10.5 -56.5t43.5 32.5q21 28 44.5 63.5t37 57t42.5 69t37 61.5q2 4 7 2t3 -7q-119 -195 -162 -252q-30 -38 -52 -44
q-27 -7 -39.5 19.5t-12.5 57.5q0 106 46 212zM14 189q0 -16 5 -22t13.5 -3t17.5 9.5t18 15.5q32 33 91 112l21 28q-42 44 -78.5 22.5t-61 -71t-26.5 -91.5zM165 495q17 0 28 -11t11 -28q0 -16 -11.5 -27.5t-27.5 -11.5q-17 0 -28 11.5t-11 27.5t10.5 27.5t28.5 11.5z
M165 430q11 0 18.5 7t7.5 19q0 11 -7 18.5t-19 7.5q-11 0 -18.5 -7t-7.5 -19q0 -11 7 -18.5t19 -7.5z" />
    <glyph glyph-name="ae" unicode="&#xe6;" horiz-adv-x="425" 
d="M435 295q-79 -132 -165 -182q-20 -12 -40.5 -18t-42 -1.5t-33.5 23.5q-35 58 9 171q-63 -82 -90 -108q-53 -53 -80 -18q-31 43 -3 118q15 42 48.5 71t75 28t71.5 -43q27 38 42 45q17 7 31 -7q37 14 56.5 -8t-1.5 -56q-16 -25 -42 -37t-65 -21q-30 -81 -25 -116
q3 -19 15.5 -25.5t29.5 -1.5t31.5 12t27.5 16q70 48 140 163q2 3 5 3t4.5 -2.5t0.5 -5.5zM14 189q0 -16 5 -22t13.5 -3t17.5 9.5t18 15.5q32 33 91 112l21 28q-42 44 -78.5 22.5t-61 -71t-26.5 -91.5zM211 264q76 20 94 56q10 21 0 33.5t-33 -0.5q-8 -5 -15.5 -12.5
t-12.5 -14.5t-11 -17.5t-9 -16.5t-7.5 -16t-5.5 -12z" />
    <glyph glyph-name="ccedilla" unicode="&#xe7;" horiz-adv-x="261" 
d="M-31 159q-7 55 17.5 115.5t68.5 94.5q20 15 43 17.5t40.5 -10.5t19.5 -39q0 -2 -3 -3t-5.5 -0.5t-2.5 2.5q-2 31 -22.5 34.5t-39.5 -16.5q-32 -32 -54 -91t-18 -105q6 -61 73 -26q78 41 175 168q4 5 9 0q3 -3 1 -5q-94 -126 -183 -175q-59 -28 -86 -15.5t-33 54.5zM38 13
q-11 -11 -29.5 -11t-30.5 12q-2 2 1 4q2 2 4 0q10 -8 19 -8q17 0 29 17q16 24 4 42q-6 10 -23 7q-12 -5 -16 -2q-4 2 -2 5l9 34h19l-7 -29q11 6 24 1q17 -8 17 -29q0 -25 -18 -43z" />
    <glyph glyph-name="egrave" unicode="&#xe8;" horiz-adv-x="244" 
d="M254 295q-79 -132 -165 -182q-20 -12 -40.5 -18t-42 -1.5t-33.5 23.5q-18 40 -9.5 91.5t41 100.5t72.5 65q37 14 56.5 -8t-1.5 -56q-16 -25 -42 -37t-65 -21q-30 -81 -25 -116q3 -19 15.5 -25.5t29.5 -1.5t31.5 12t27.5 16q70 48 140 163q2 3 5 3t4.5 -2.5t0.5 -5.5z
M30 264q76 20 94 56q10 21 0 33.5t-33 -0.5q-8 -5 -15.5 -12.5t-12.5 -14.5t-11 -17.5t-9 -16.5t-7.5 -16t-5.5 -12zM93 501l28 -78q1 -3 -2 -4.5t-4 1.5l-46 71q-3 4 2.5 9t12 5.5t9.5 -4.5z" />
    <glyph glyph-name="eacute" unicode="&#xe9;" horiz-adv-x="244" 
d="M254 295q-79 -132 -165 -182q-20 -12 -40.5 -18t-42 -1.5t-33.5 23.5q-18 40 -9.5 91.5t41 100.5t72.5 65q37 14 56.5 -8t-1.5 -56q-16 -25 -42 -37t-65 -21q-30 -81 -25 -116q3 -19 15.5 -25.5t29.5 -1.5t31.5 12t27.5 16q70 48 140 163q2 3 5 3t4.5 -2.5t0.5 -5.5z
M30 264q76 20 94 56q10 21 0 33.5t-33 -0.5q-8 -5 -15.5 -12.5t-12.5 -14.5t-11 -17.5t-9 -16.5t-7.5 -16t-5.5 -12zM66 424l28 78q3 5 9.5 4.5t12 -5.5t2.5 -9l-46 -71q-2 -3 -5 -1.5t-1 4.5z" />
    <glyph glyph-name="ecircumflex" unicode="&#xea;" horiz-adv-x="244" 
d="M254 295q-79 -132 -165 -182q-20 -12 -40.5 -18t-42 -1.5t-33.5 23.5q-18 40 -9.5 91.5t41 100.5t72.5 65q37 14 56.5 -8t-1.5 -56q-16 -25 -42 -37t-65 -21q-30 -81 -25 -116q3 -19 15.5 -25.5t29.5 -1.5t31.5 12t27.5 16q70 48 140 163q2 3 5 3t4.5 -2.5t0.5 -5.5z
M30 264q76 20 94 56q10 21 0 33.5t-33 -0.5q-8 -5 -15.5 -12.5t-12.5 -14.5t-11 -17.5t-9 -16.5t-7.5 -16t-5.5 -12zM179 417q-1 -1 -3 0l-63 67l-76 -54q-1 -3 -3 -1q-1 0 -1 3l77 85l2 2q2 0 2 -2l65 -98q2 -2 0 -2z" />
    <glyph glyph-name="edieresis" unicode="&#xeb;" horiz-adv-x="244" 
d="M254 295q-79 -132 -165 -182q-20 -12 -40.5 -18t-42 -1.5t-33.5 23.5q-18 40 -9.5 91.5t41 100.5t72.5 65q37 14 56.5 -8t-1.5 -56q-16 -25 -42 -37t-65 -21q-30 -81 -25 -116q3 -19 15.5 -25.5t29.5 -1.5t31.5 12t27.5 16q70 48 140 163q2 3 5 3t4.5 -2.5t0.5 -5.5z
M30 264q76 20 94 56q10 21 0 33.5t-33 -0.5q-8 -5 -15.5 -12.5t-12.5 -14.5t-11 -17.5t-9 -16.5t-7.5 -16t-5.5 -12zM81 457q17 0 19 -19q-2 -18 -19 -20q-17 2 -19 20q2 19 19 19zM132 457q17 0 19 -19q-2 -18 -19 -20q-17 2 -19 20q2 19 19 19z" />
    <glyph glyph-name="igrave" unicode="&#xec;" horiz-adv-x="238" 
d="M54 84q-57 -51 -82 -7q-18 34 -8 110q8 57 24 94q23 53 61 24q-39 -111 -49 -180q-3 -15 -1.5 -27t5.5 -19.5t15 -4.5t28 18q98 84 191 208q2 3 5 2.5t4.5 -3t0.5 -4.5q-93 -123 -194 -211zM34 459l28 -78q2 -3 -1 -4.5t-5 1.5l-46 71q-3 4 2.5 9t12 5.5t9.5 -4.5z" />
    <glyph glyph-name="iacute" unicode="&#xed;" horiz-adv-x="238" 
d="M54 84q-57 -51 -82 -7q-18 34 -8 110q8 57 24 94q23 53 61 24q-39 -111 -49 -180q-3 -15 -1.5 -27t5.5 -19.5t15 -4.5t28 18q98 84 191 208q2 3 5 2.5t4.5 -3t0.5 -4.5q-93 -123 -194 -211zM10 382l28 78q3 5 9.5 4.5t12 -5.5t2.5 -9l-46 -71q-2 -3 -5 -1.5t-1 4.5z" />
    <glyph glyph-name="icircumflex" unicode="&#xee;" horiz-adv-x="238" 
d="M54 84q-57 -51 -82 -7q-18 34 -8 110q8 57 24 94q23 53 61 24q-39 -111 -49 -180q-3 -15 -1.5 -27t5.5 -19.5t15 -4.5t28 18q98 84 191 208q2 3 5 2.5t4.5 -3t0.5 -4.5q-93 -123 -194 -211zM110 374q-2 -2 -3 0l-63 67l-76 -54q-1 -3 -3 -1q-1 0 -1 3l77 85l2 2q2 0 2 -2
l65 -98q2 -2 0 -2z" />
    <glyph glyph-name="idieresis" unicode="&#xef;" horiz-adv-x="238" 
d="M54 84q-57 -51 -82 -7q-18 34 -8 110q8 57 24 94q23 53 61 24q-39 -111 -49 -180q-3 -15 -1.5 -27t5.5 -19.5t15 -4.5t28 18q98 84 191 208q2 3 5 2.5t4.5 -3t0.5 -4.5q-93 -123 -194 -211zM16 415q17 0 19 -19q-2 -18 -19 -20q-17 2 -19 20q2 19 19 19zM67 415
q17 0 19 -19q-2 -18 -19 -20q-17 2 -19 20q2 19 19 19z" />
    <glyph glyph-name="ntilde" unicode="&#xf1;" horiz-adv-x="386" 
d="M15 141q-28 -27 -41.5 -17t-11.5 44q1 53 26 113q24 54 62 24q-3 -7 -15 -34.5t-23.5 -56.5t-15.5 -49q-2 -11 0.5 -14.5t7.5 -0.5t11 9q26 28 45 61q17 29 49.5 95.5t50.5 95.5q14 22 34 39q32 25 58.5 12t30.5 -52q5 -49 -13 -102.5t-49 -115.5t-42 -99q-22 -69 8 -74
q37 -5 74 51q21 31 42 69.5t46.5 89t36.5 71.5q2 4 7 2t3 -7q-12 -22 -38 -72.5t-47 -89t-42 -70.5q-46 -71 -95 -64q-65 12 -37 123q11 45 50 127t50 126q14 55 -11.5 67t-56.5 -37q-20 -31 -52 -97.5t-49 -94.5q-28 -46 -53 -72zM339 533q2 0 3 -3q-41 -33 -90 -24
q-15 2 -43 10t-31 9q-27 6 -47 -6q-2 -1 -2.5 0.5t0.5 3.5q17 12 40 15q32 5 84 -9q60 -13 86 4z" />
    <glyph glyph-name="ograve" unicode="&#xf2;" horiz-adv-x="281" 
d="M53 89q-23 -4 -44 9t-32 39q-12 34 -8.5 72.5t19.5 72.5q8 17 15.5 21.5t15 -0.5t21.5 -20q-17 -26 -30 -69t-7 -75q9 -44 48 -39q34 4 60 40.5t38 76.5q-42 9 -83 49.5t-50 85.5q-6 26 3 50t27 37q35 22 67 5t47 -53q27 -67 2 -165q71 -10 119 74q3 4 7.5 1.5t2.5 -6.5
q-51 -91 -132 -80q-12 -44 -39.5 -82.5t-66.5 -43.5zM41 357q1 -42 35.5 -81t75.5 -48q23 94 -1 156q-14 35 -41.5 44t-48.5 -11.5t-20 -59.5zM84 550l28 -78q2 -3 -1 -4.5t-5 1.5l-46 71q-3 4 2.5 9t12 5.5t9.5 -4.5z" />
    <glyph glyph-name="oacute" unicode="&#xf3;" horiz-adv-x="281" 
d="M53 89q-23 -4 -44 9t-32 39q-12 34 -8.5 72.5t19.5 72.5q8 17 15.5 21.5t15 -0.5t21.5 -20q-17 -26 -30 -69t-7 -75q9 -44 48 -39q34 4 60 40.5t38 76.5q-42 9 -83 49.5t-50 85.5q-6 26 3 50t27 37q35 22 67 5t47 -53q27 -67 2 -165q71 -10 119 74q3 4 7.5 1.5t2.5 -6.5
q-51 -91 -132 -80q-12 -44 -39.5 -82.5t-66.5 -43.5zM41 357q1 -42 35.5 -81t75.5 -48q23 94 -1 156q-14 35 -41.5 44t-48.5 -11.5t-20 -59.5zM58 467l28 78q3 5 9.5 4.5t12 -5.5t2.5 -9l-46 -71q-2 -3 -5 -1.5t-1 4.5z" />
    <glyph glyph-name="ocircumflex" unicode="&#xf4;" horiz-adv-x="281" 
d="M53 89q-23 -4 -44 9t-32 39q-12 34 -8.5 72.5t19.5 72.5q8 17 15.5 21.5t15 -0.5t21.5 -20q-17 -26 -30 -69t-7 -75q9 -44 48 -39q34 4 60 40.5t38 76.5q-42 9 -83 49.5t-50 85.5q-6 26 3 50t27 37q35 22 67 5t47 -53q27 -67 2 -165q71 -10 119 74q3 4 7.5 1.5t2.5 -6.5
q-51 -91 -132 -80q-12 -44 -39.5 -82.5t-66.5 -43.5zM41 357q1 -42 35.5 -81t75.5 -48q23 94 -1 156q-14 35 -41.5 44t-48.5 -11.5t-20 -59.5zM161 459q-1 -1 -3 0l-63 67l-76 -54q-1 -3 -3 -1q-1 0 -1 3l77 85l2 2q2 0 2 -2l65 -98q2 -2 0 -2z" />
    <glyph glyph-name="otilde" unicode="&#xf5;" horiz-adv-x="281" 
d="M53 89q-23 -4 -44 9t-32 39q-12 34 -8.5 72.5t19.5 72.5q8 17 15.5 21.5t15 -0.5t21.5 -20q-17 -26 -30 -69t-7 -75q9 -44 48 -39q34 4 60 40.5t38 76.5q-42 9 -83 49.5t-50 85.5q-6 26 3 50t27 37q35 22 67 5t47 -53q27 -67 2 -165q71 -10 119 74q3 4 7.5 1.5t2.5 -6.5
q-51 -91 -132 -80q-12 -44 -39.5 -82.5t-66.5 -43.5zM41 357q1 -42 35.5 -81t75.5 -48q23 94 -1 156q-14 35 -41.5 44t-48.5 -11.5t-20 -59.5zM204 501q2 0 3 -3q-41 -33 -90 -24q-15 2 -43 10t-31 9q-27 6 -47 -6q-2 -1 -3 0.5t1 3.5q17 12 40 15q32 5 84 -9q60 -13 86 4z
" />
    <glyph glyph-name="odieresis" unicode="&#xf6;" horiz-adv-x="281" 
d="M53 89q-23 -4 -44 9t-32 39q-12 34 -8.5 72.5t19.5 72.5q8 17 15.5 21.5t15 -0.5t21.5 -20q-17 -26 -30 -69t-7 -75q9 -44 48 -39q34 4 60 40.5t38 76.5q-42 9 -83 49.5t-50 85.5q-6 26 3 50t27 37q35 22 67 5t47 -53q27 -67 2 -165q71 -10 119 74q3 4 7.5 1.5t2.5 -6.5
q-51 -91 -132 -80q-12 -44 -39.5 -82.5t-66.5 -43.5zM41 357q1 -42 35.5 -81t75.5 -48q23 94 -1 156q-14 35 -41.5 44t-48.5 -11.5t-20 -59.5zM64 515q17 0 19 -19q-2 -18 -19 -20q-17 2 -19 20q2 19 19 19zM115 515q17 0 19 -19q-2 -18 -19 -20q-17 2 -19 20q2 19 19 19z
" />
    <glyph glyph-name="divide" unicode="&#xf7;" horiz-adv-x="150" 
d="M76 223q-19 2 -19 21q0 8 5.5 13t13.5 5q17 0 19 -18q-2 -19 -19 -21zM76 335q-19 2 -19 21q0 8 5.5 13t13.5 5q17 0 19 -18q-2 -19 -19 -21zM-17 293q-6 0 -6 6t6 6h185q6 0 6 -6t-6 -6h-185z" />
    <glyph glyph-name="oslash" unicode="&#xf8;" horiz-adv-x="281" 
d="M188 653q2 6 8 4t4 -8l-66 -221q15 -14 26 -37q27 -67 2 -165q71 -10 119 74q3 4 7.5 1.5t2.5 -6.5q-51 -91 -132 -80q-12 -44 -39.5 -82.5t-66.5 -43.5q-11 -2 -20 0l-44 -147q-2 -6 -7 -4q-6 1 -4 7l43 146q-29 11 -44 46q-12 34 -8.5 72.5t19.5 72.5q8 17 15.5 21.5
t15 -0.5t21.5 -20q-17 -26 -30 -69t-7 -75q4 -24 22 -35l47 157q-47 42 -56 91q-6 26 3 50t27 37q36 27 78 -2zM151 384q-10 21 -21 31l-44 -149q30 -30 66 -38q23 94 -1 156zM149 217q-33 8 -67 35l-46 -152q8 -2 15 0q34 4 60 40.5t38 76.5zM41 357q0 -42 35 -82l44 148
q-28 17 -54 -2.5t-25 -63.5z" />
    <glyph glyph-name="ugrave" unicode="&#xf9;" 
d="M15 131q-42 -29 -50.5 17.5t4.5 75.5q8 33 18 56q24 55 64 24q-44 -97 -51 -125q-12 -47 3 -43q3 1 6 3q30 20 57 47.5t60 67.5t50 58q8 12 12 16q11 11 35 -3q-2 -6 -7.5 -18.5t-7.5 -16.5q-67 -162 -81 -237q-12 -69 8 -65q10 2 28 21q36 39 70.5 86t77.5 112.5
t62 92.5q2 2 4.5 2t4.5 -2.5t1 -4.5q-22 -31 -63.5 -95t-77 -112.5t-72.5 -87.5q-36 -36 -56.5 -18.5t-18.5 69.5q1 39 10 84.5t16 64.5q11 33 25 61q-84 -98 -131 -130zM125 446l28 -78q1 -3 -2 -4.5t-4 1.5l-46 71q-3 4 2.5 9t12 5.5t9.5 -4.5z" />
    <glyph glyph-name="uacute" unicode="&#xfa;" 
d="M15 131q-42 -29 -50.5 17.5t4.5 75.5q8 33 18 56q24 55 64 24q-44 -97 -51 -125q-12 -47 3 -43q3 1 6 3q30 20 57 47.5t60 67.5t50 58q8 12 12 16q11 11 35 -3q-2 -6 -7.5 -18.5t-7.5 -16.5q-67 -162 -81 -237q-12 -69 8 -65q10 2 28 21q36 39 70.5 86t77.5 112.5
t62 92.5q2 2 4.5 2t4.5 -2.5t1 -4.5q-22 -31 -63.5 -95t-77 -112.5t-72.5 -87.5q-36 -36 -56.5 -18.5t-18.5 69.5q1 39 10 84.5t16 64.5q11 33 25 61q-84 -98 -131 -130zM97 370l28 78q3 5 9.5 4.5t12 -5.5t2.5 -9l-46 -71q-1 -3 -4 -1.5t-2 4.5z" />
    <glyph glyph-name="ucircumflex" unicode="&#xfb;" 
d="M15 131q-42 -29 -50.5 17.5t4.5 75.5q8 33 18 56q24 55 64 24q-44 -97 -51 -125q-12 -47 3 -43q3 1 6 3q30 20 57 47.5t60 67.5t50 58q8 12 12 16q11 11 35 -3q-2 -6 -7.5 -18.5t-7.5 -16.5q-67 -162 -81 -237q-12 -69 8 -65q10 2 28 21q36 39 70.5 86t77.5 112.5
t62 92.5q2 2 4.5 2t4.5 -2.5t1 -4.5q-22 -31 -63.5 -95t-77 -112.5t-72.5 -87.5q-36 -36 -56.5 -18.5t-18.5 69.5q1 39 10 84.5t16 64.5q11 33 25 61q-84 -98 -131 -130zM197 356q-1 -2 -3 0l-63 67l-76 -54q-1 -3 -3 -1q-1 0 -1 3l77 85l2 2q2 0 2 -2l65 -98q2 -2 0 -2z
" />
    <glyph glyph-name="udieresis" unicode="&#xfc;" 
d="M15 131q-42 -29 -50.5 17.5t4.5 75.5q8 33 18 56q24 55 64 24q-44 -97 -51 -125q-12 -47 3 -43q3 1 6 3q30 20 57 47.5t60 67.5t50 58q8 12 12 16q11 11 35 -3q-2 -6 -7.5 -18.5t-7.5 -16.5q-67 -162 -81 -237q-12 -69 8 -65q10 2 28 21q36 39 70.5 86t77.5 112.5
t62 92.5q2 2 4.5 2t4.5 -2.5t1 -4.5q-22 -31 -63.5 -95t-77 -112.5t-72.5 -87.5q-36 -36 -56.5 -18.5t-18.5 69.5q1 39 10 84.5t16 64.5q11 33 25 61q-84 -98 -131 -130zM98 409q17 0 19 -19q-2 -18 -19 -20q-17 2 -19 20q2 19 19 19zM149 409q17 0 19 -19q-2 -18 -19 -20
q-17 2 -19 20q2 19 19 19z" />
    <glyph glyph-name="yacute" unicode="&#xfd;" horiz-adv-x="379" 
d="M-68 30q58 40 187 93q33 129 54 177q-6 -7 -23 -29t-24.5 -31.5t-22.5 -27.5t-25 -28t-23 -21.5t-24 -19.5q-50 -35 -60 26q-9 48 19 114q24 55 64 24q-36 -67 -45 -123q-6 -38 9 -35q3 0 7 3q26 18 56.5 51.5t68.5 82.5t53 67q12 12 16 15q20 15 34 -10
q-11 -20 -19 -38.5t-16 -41.5t-12 -36t-13 -45.5t-13 -46.5q139 60 199 150q2 4 7 2t3 -7q-63 -95 -213 -159q-2 -9 -12.5 -45.5t-14.5 -49.5t-14.5 -47t-17.5 -50t-19 -45t-23 -46.5t-26 -39.5t-31.5 -39.5t-35.5 -31.5q-32 -24 -71 -29t-71 16t-38 65q-9 67 29.5 129.5
t100.5 106.5zM-36 -238q86 85 151 348q-124 -52 -177 -89q-60 -42 -97.5 -103t-27.5 -125q6 -39 33.5 -55t60 -8t57.5 32zM98 369l28 78q3 5 9.5 4.5t12 -5.5t2.5 -9l-46 -71q-2 -3 -5 -1.5t-1 4.5z" />
    <glyph glyph-name="thorn" unicode="&#xfe;" horiz-adv-x="423" 
d="M19 531q0 7 5 12t11 5q7 0 12 -5t5 -12l-1 -351q14 29 31 56.5t42.5 60.5t56 53t61.5 20q28 0 43.5 -15t18 -39t0.5 -47.5t-9 -47.5q101 33 128 79q2 3 5 2.5t4.5 -3t0.5 -4.5q-31 -52 -143 -87q-21 -54 -60.5 -105t-85.5 -73q-35 -17 -58 -7t-21.5 37t23.5 60
q24 32 59.5 49.5t96.5 35.5q9 24 15 48t3.5 55t-23.5 36q-78 20 -180 -173l-8 -16v-355q0 -8 -5 -13.5t-12 -5.5q-6 0 -11 5.5t-5 13.5zM136 42q57 35 103 150q-56 -17 -88.5 -33t-54.5 -46q-19 -25 -20.5 -49.5t14 -31.5t46.5 10z" />
    <glyph glyph-name="ydieresis" unicode="&#xff;" horiz-adv-x="379" 
d="M-68 30q58 40 187 93q33 129 54 177q-6 -7 -23 -29t-24.5 -31.5t-22.5 -27.5t-25 -28t-23 -21.5t-24 -19.5q-50 -35 -60 26q-9 48 19 114q24 55 64 24q-36 -67 -45 -123q-6 -38 9 -35q3 0 7 3q26 18 56.5 51.5t68.5 82.5t53 67q12 12 16 15q20 15 34 -10
q-11 -20 -19 -38.5t-16 -41.5t-12 -36t-13 -45.5t-13 -46.5q139 60 199 150q2 4 7 2t3 -7q-63 -95 -213 -159q-2 -9 -12.5 -45.5t-14.5 -49.5t-14.5 -47t-17.5 -50t-19 -45t-23 -46.5t-26 -39.5t-31.5 -39.5t-35.5 -31.5q-32 -24 -71 -29t-71 16t-38 65q-9 67 29.5 129.5
t100.5 106.5zM-36 -238q86 85 151 348q-124 -52 -177 -89q-60 -42 -97.5 -103t-27.5 -125q6 -39 33.5 -55t60 -8t57.5 32zM100 418q17 0 19 -19q-2 -18 -19 -20q-17 2 -19 20q2 19 19 19zM151 418q17 0 19 -19q-2 -18 -19 -20q-17 2 -19 20q2 19 19 19z" />
    <glyph glyph-name="dotlessi" unicode="&#x131;" horiz-adv-x="238" 
d="M54 84q-57 -51 -82 -7q-18 34 -8 110q8 57 24 94q23 53 61 24q-39 -111 -49 -180q-3 -15 -1.5 -27t5.5 -19.5t15 -4.5t28 18q98 84 191 208q2 3 5 2.5t4.5 -3t0.5 -4.5q-93 -123 -194 -211z" />
    <glyph glyph-name="Lslash" unicode="&#x141;" horiz-adv-x="497" 
d="M230 265q-6 -2 -8 4t4 8l71 20q9 33 22 87.5t23.5 95t21.5 67.5q16 39 23 52q-19 2 -55.5 6.5t-56.5 6.5t-57 4t-58 -3q-70 -8 -104 -54.5t-21 -148.5q0 -4 -5 -6q-6 0 -6 5q-13 108 23 157t112 58q58 3 76.5 2.5t77.5 -7.5t79 -9q62 123 152 133q49 5 72.5 -26t-6.5 -73
q-40 -54 -159 -50q-18 -38 -34 -82q-4 -11 -59 -198l66 19q6 2 8 -4t-4 -8l-74 -21q-42 -142 -96 -214q30 -12 49 -19t44 -16t42.5 -13.5t37 -8t36 -3t31.5 4.5q7 2 8 -4q0 -6 -5 -8q-17 -4 -34 -4.5t-39.5 4t-37.5 8t-44.5 14t-44 16t-51.5 19.5q-33 -42 -77 -62
q-57 -27 -99 -3q-27 16 -29 46t25 48q45 30 149 -5q40 60 74 183zM539 714q-8 -5 -15.5 -10.5t-14.5 -14t-12 -14.5t-12 -17.5t-9.5 -16.5t-10 -19t-9.5 -17q108 -7 146 48q25 37 0.5 60.5t-63.5 0.5zM150 34q32 18 62 57q-92 31 -136 4q-22 -13 -20.5 -38.5t27.5 -34.5
q29 -8 67 12z" />
    <glyph glyph-name="lslash" unicode="&#x142;" horiz-adv-x="296" 
d="M-77 219q-7 -2 -7 4q-3 5 3 7l71 23q20 137 78.5 266t144.5 200q44 36 85.5 43t64.5 -21.5t12 -89.5q-18 -103 -112 -205q-97 -103 -214 -148q-3 -10 -7 -28l73 25q6 2 7 -4q3 -5 -3 -7l-81 -27q-24 -101 -11 -155q8 -31 34 -34t57 24q104 92 178 208q2 3 5 2.5t4.5 -3
t0.5 -4.5q-73 -116 -182 -212q-48 -42 -88 -31q-30 9 -43 45.5t-11 78.5q2 32 6 64zM266 711q-131 -110 -213 -400q112 45 202 143q90 95 109 199q12 66 -18.5 82.5t-79.5 -24.5z" />
    <glyph glyph-name="OE" unicode="&#x152;" horiz-adv-x="864" 
d="M320 143q16 -45 50 -71q50 -39 122 -30q81 9 141 69q-37 0 -69.5 25t-43.5 61q-10 30 -4 52.5t19.5 40.5t34.5 25.5t41.5 6t40 -17.5t30.5 -44q12 -33 5 -69.5t-29 -66.5q60 14 115 64t91 112q2 4 7 2t3 -7q-39 -68 -99.5 -121.5t-126.5 -61.5q-60 -71 -156 -81
q-95 -10 -167 44q-59 -35 -124 -11q-83 -21 -130.5 29t-49.5 140q-3 152 78 267q25 89 67 144q33 43 89 70.5t102 14.5q70 -20 80 -135q5 -72 -9 -167q29 9 71 14q-53 88 -43 176q11 98 99 123q63 18 128.5 -6.5t85.5 -82.5q12 -34 -2.5 -68t-46.5 -53q-27 -15 -66 -16.5
t-65.5 3.5t-66.5 16q-8 2 -11 3q14 -67 47 -118q-82 -9 -138 -38q-36 -157 -100 -237zM228 85q21 7 39 21q15 12 16 13q-25 35 -29 82q-8 83 38 140t125 83q14 94 9 169q-10 111 -72 116q-49 4 -93 -32t-69 -88q59 34 118 43q6 0 6 -5q0 -6 -5 -6q-72 -9 -144 -96
q-21 -50 -29 -137t13 -179t77 -124zM505 604q-2 -29 4 -57q101 -26 146 -24q34 2 59 16q29 17 42.5 48t-0.5 61q-23 50 -83 65t-112.5 -15t-55.5 -94zM545 201q5 -36 33 -59.5t65 -19.5q12 15 22 36q24 57 7 98q-15 36 -48.5 40t-59 -24t-19.5 -71zM310 204q0 -28 6 -50
q60 75 91 219q-23 -13 -42 -33q-55 -55 -55 -136zM80 315q-10 -33 -12.5 -68.5t3.5 -73t32.5 -64t70.5 -31.5q-84 60 -94 237zM315 83q-15 14 -26 27l-15 -12q-13 -10 -34 -20q35 -17 75 5z" />
    <glyph glyph-name="oe" unicode="&#x153;" horiz-adv-x="405" 
d="M415 295q-79 -132 -165 -182q-20 -12 -40.5 -18t-42 -1.5t-33.5 23.5q-8 13 -10 23q-32 -46 -71 -51q-23 -4 -44 9t-32 39q-12 34 -8.5 72.5t19.5 72.5q8 17 15.5 21.5t15 -0.5t21.5 -20q-17 -26 -30 -69t-7 -75q9 -44 48 -39q37 4 71 56q-4 28 6 67q-39 17 -72 53.5
t-40 75.5q-6 26 3 50t27 37q35 22 67 5t47 -53q13 -36 13 -71q30 39 65 54q37 14 56.5 -8t-1.5 -56q-16 -25 -42 -37t-65 -21q-30 -81 -25 -116q3 -19 15.5 -25.5t29.5 -1.5t31.5 12t27.5 16q70 48 140 163q2 3 5 3t4.5 -2.5t0.5 -5.5zM41 357q1 -37 27.5 -72t62.5 -50
q10 36 31 69q2 46 -11 80q-14 35 -41.5 44t-48.5 -11.5t-20 -59.5zM191 264q76 20 94 56q10 21 0 33.5t-33 -0.5q-8 -5 -15.5 -12.5t-12.5 -14.5t-11 -17.5t-9 -16.5t-7.5 -16t-5.5 -12z" />
    <glyph glyph-name="Scaron" unicode="&#x160;" horiz-adv-x="928" 
d="M758 664q-45 -68 -97 -271q-38 -141 -60 -199q79 -10 137 -10t104.5 27t85.5 89q2 2 4.5 2t4.5 -2.5t1 -4.5q-39 -64 -88 -92.5t-109.5 -29t-142.5 9.5q-114 -290 -344 -251q-52 9 -96.5 41t-48.5 80q-4 42 27 80.5t77 57.5t110 23.5t99 1t113 -13.5q21 57 49 162.5
t55 183.5t62 127q-82 16 -124 22t-110 8t-124 -15.5t-108 -53.5q-147 -100 -204 -313q-2 -6 -6 -4q-6 2 -4 7q56 215 208 319q44 30 94.5 47t90 22.5t100 0t94 -11.5t100.5 -19q51 64 134 73q75 7 90 -35q5 -16 -1 -32t-20 -24q-35 -23 -153 -2zM864 740q-58 -8 -100 -66
q111 -19 141 1q25 16 17 43q-9 27 -58 22zM258 -58q41 -5 79 8t66.5 37t54 60.5t42.5 70.5t32 74q-147 18 -208 13q-60 -4 -106 -23q-44 -19 -73 -54.5t-25 -74.5q5 -44 47 -74.5t91 -36.5zM833 877q2 2 3 1t0 -3l-75 -84q-4 -4 -8 1l-63 95q-1 2 0.5 3t3.5 -1l62 -66z" />
    <glyph glyph-name="scaron" unicode="&#x161;" horiz-adv-x="234" 
d="M31 -5q-25 -18 -55 -20t-51 17t-17 56q5 44 41 71.5t95 51.5q-5 18 -22.5 60.5t-22.5 66.5q-8 25 -4 60.5t22 56.5q23 28 62 25.5t53 -39.5q11 -26 0 -52q-1 -4 -6 -3.5t-4 5.5q9 24 -1 41q-9 19 -31 17t-34 -21q-17 -24 -10 -62q5 -29 20.5 -78.5t18.5 -62.5
q92 33 149 115q2 3 5 2.5t4.5 -3t0.5 -4.5q-62 -88 -157 -120q11 -52 -3.5 -102.5t-52.5 -77.5zM48 159q-120 -40 -129 -111q-6 -46 30.5 -57.5t69.5 17.5q28 24 35.5 69.5t-6.5 81.5zM154 555q2 2 3 1t0 -3l-75 -84q-4 -4 -8 1l-63 95q-1 2 0.5 3t3.5 -1l62 -66z" />
    <glyph glyph-name="Ydieresis" unicode="&#x178;" horiz-adv-x="752" 
d="M762 295q-26 -60 -94 -102t-176 -32q-82 -165 -179 -245q-68 -56 -152.5 -73.5t-164.5 19.5q-60 32 -75 94t24 115q106 142 477 108q41 83 102.5 242t70.5 179q-88 -135 -149 -206q-45 -54 -74 -70q-39 -23 -62 -10.5t-32 40.5t-7 65q10 122 82 242q-18 -1 -57 -1
q-37 0 -56.5 -0.5t-52.5 -4.5t-51 -12t-41 -24.5t-35 -40.5t-20 -61t-8 -85q0 -5 -5 -5t-5 5q0 39 5 71.5t13 56t23 41.5t27.5 30t35 20t38.5 12t43.5 6t43 2h45.5q44 0 64 1q46 69 101 88q13 7 33 2.5t20 -23.5q0 -26 -32 -45t-64 -27q-87 -141 -92 -278q-2 -88 63 -36
q22 17 49 48q78 92 187 265q42 87 94 103q10 3 19.5 -3t14.5 -17q-18 -23 -34 -49.5t-31 -61t-23.5 -56t-24 -64.5t-20.5 -56q-72 -187 -122 -290q71 -7 127.5 14t84 50.5t42.5 63.5q3 4 7.5 1.5t2.5 -6.5zM480 744q-26 -21 -54 -64q25 6 51 22.5t26 36.5q0 8 -6.5 10
t-16.5 -5zM270 -48q77 78 147 217q-362 31 -463 -104q-37 -51 -22.5 -106t69.5 -85q126 -67 269 78zM578 859q17 0 19 -19q-2 -18 -19 -20q-17 2 -19 20q2 19 19 19zM629 859q17 0 19 -19q-2 -18 -19 -20q-17 2 -19 20q2 19 19 19z" />
    <glyph glyph-name="Zcaron" unicode="&#x17d;" horiz-adv-x="426" 
d="M538 25q42 -42 30 -87t-56 -59q-37 -12 -74.5 -4.5t-68.5 28t-65.5 48t-65 55t-67 49t-72 30.5t-80.5 -2l-3 19q54 50 115.5 135.5t108.5 164t108.5 166.5t114.5 140q-287 -4 -305 -6q17 -66 -12 -106q-16 -21 -38 -24.5t-36 8.5q-17 12 -21.5 35.5t8.5 47.5q21 37 85 48
q-17 50 -53 96q-3 5 1 8t8 -1q37 -48 55 -102q86 3 168.5 4.5t117 1.5t34.5 1q42 0 59 -7t0 -28q-42 -50 -101 -138.5t-106.5 -163.5t-110 -155t-117.5 -126q38 -6 81 -33.5t77 -59t76.5 -61.5t79 -42t86.5 0q35 10 48 45.5t-16 66.5q-3 2 -2 5t3.5 4t5.5 -1zM137 603
q30 40 10 97q-60 -10 -79 -43q-11 -20 -7 -39.5t18 -29.5q11 -9 28 -5.5t30 20.5zM391 839q2 2 3 1t0 -3l-75 -84q-4 -4 -8 1l-63 95q-1 2 0.5 3t3.5 -1l62 -66z" />
    <glyph glyph-name="zcaron" unicode="&#x17e;" horiz-adv-x="323" 
d="M323 300q2 4 6.5 1.5t3.5 -6.5q-43 -74 -149 -150q16 -116 -52.5 -252t-173.5 -177q-47 -18 -87.5 2.5t-43.5 75.5q-3 59 36 116q15 23 37.5 45.5t42.5 39.5t50 38.5t48.5 33t51 32t44.5 27.5q-3 44 -16.5 65.5t-49.5 30.5q-18 5 -5 21q5 6 22 21t24.5 27.5t4.5 28.5
q-3 20 -21.5 23.5t-33.5 -5.5q-29 -13 -52 -43q-2 -3 -6.5 -1t-3.5 6q14 27 42.5 50.5t62.5 23.5q21 0 36.5 -12.5t14.5 -37.5q0 -15 -8.5 -29.5t-16.5 -21.5t-27 -20t-25 -18q46 -5 68.5 -23t33.5 -56q99 71 142 144zM-47 -269q78 39 134.5 163.5t50.5 219.5
q-9 -6 -48.5 -30t-61 -39t-55 -39.5t-58.5 -50t-43 -52.5q-38 -58 -34 -108q3 -47 37 -66.5t78 2.5zM182 498q2 2 3 1t0 -3l-75 -84q-4 -4 -8 1l-63 95q-1 2 0.5 3t3.5 -1l62 -66z" />
    <glyph glyph-name="florin" unicode="&#x192;" horiz-adv-x="302" 
d="M-96 -32q-24 -7 -46 -2q-21 6 -24.5 27t13.5 33q18 11 37.5 6.5t32.5 -17.5q10 35 36 127t41 141t41.5 122t53.5 131q23 48 59 102.5t77 89.5q51 46 91.5 33t39.5 -90q-1 -113 -90.5 -223t-200.5 -130q-17 -53 -99 -323q42 15 83.5 41.5t71.5 52t67 68t57.5 69t56.5 74.5
q2 3 5 2.5t4.5 -3t0.5 -4.5q-36 -48 -58.5 -77t-60 -71t-69.5 -69t-74.5 -53.5t-86.5 -41.5l-4 -14q23 -40 27 -97t-16 -105q-10 -26 -29.5 -40t-38.5 -5.5t-24 44.5q-11 75 26 202zM140 523q-25 -55 -72 -194q103 17 190 125.5t87 216.5q0 43 -15 57t-35.5 4.5t-45.5 -34.5
q-54 -56 -109 -175zM-86 4q-10 11 -26.5 16t-31.5 -5q-8 -7 -7 -20t14 -18q19 -7 44 2q6 21 7 25zM-85 -216q-4 -28 3 -37.5t18.5 -1t21.5 27.5q37 83 -4 181q-33 -118 -39 -170z" />
    <glyph glyph-name="circumflex" unicode="&#x2c6;" horiz-adv-x="227" 
d="M186 609q-2 -1 -3 0l-63 67l-76 -54q-1 -3 -3 -1q-1 0 -1 3l77 85l2 2q2 0 2 -2l65 -98q2 -2 0 -2z" />
    <glyph glyph-name="caron" unicode="&#x2c7;" horiz-adv-x="228" 
d="M184 697q2 2 3 1t0 -3l-75 -84q-4 -4 -8 1l-63 95q-1 2 0.5 3t3.5 -1l62 -66z" />
    <glyph glyph-name="breve" unicode="&#x2d8;" horiz-adv-x="230" 
d="M115 648q-26 0 -50.5 17t-24.5 43q0 6 5 6q6 0 6 -6q0 -21 20 -32.5t44 -11.5q22 0 42.5 11.5t20.5 32.5q0 6 6 6t6 -6q0 -25 -24 -42.5t-51 -17.5z" />
    <glyph glyph-name="dotaccent" unicode="&#x2d9;" horiz-adv-x="118" 
d="M59 683q17 0 19 -19q-2 -18 -19 -20q-17 2 -19 20q2 19 19 19z" />
    <glyph glyph-name="ring" unicode="&#x2da;" horiz-adv-x="158" 
d="M79 730q17 0 28 -11t11 -28q0 -16 -11.5 -27.5t-27.5 -11.5q-17 0 -28 11.5t-11 27.5t10.5 27.5t28.5 11.5zM79 665q11 0 18.5 7t7.5 19q0 11 -7 18.5t-19 7.5q-11 0 -18.5 -7t-7.5 -19q0 -11 7 -18.5t19 -7.5z" />
    <glyph glyph-name="ogonek" unicode="&#x2db;" horiz-adv-x="156" 
d="M88 43q-14 5 -23 -9t-6 -28q3 -23 29 -18q3 0 3 -2.5t-3 -3.5q-21 -2 -33 6q-13 8 -14.5 23.5t7.5 28.5q13 17 42 9q4 14 6 24q1 4 2 4h15q3 0 3 -3l-8 -30q-1 -4 -6 -4t-14 3z" />
    <glyph glyph-name="tilde" unicode="&#x2dc;" horiz-adv-x="296" 
d="M252 694q2 0 3 -3q-41 -33 -90 -24q-15 2 -43 10t-31 9q-27 6 -47 -6q-2 -1 -2.5 0.5t0.5 3.5q17 12 40 15q32 5 84 -9q60 -13 86 4z" />
    <glyph glyph-name="hungarumlaut" unicode="&#x2dd;" horiz-adv-x="192" 
d="M99 622l28 78q3 5 9.5 4.5t12 -5.5t2.5 -9l-46 -71q-1 -3 -4 -1.5t-2 4.5zM41 622l28 78q3 5 9.5 4.5t12 -5.5t2.5 -9l-46 -71q-1 -3 -4 -1.5t-2 4.5z" />
    <glyph glyph-name="endash" unicode="&#x2013;" horiz-adv-x="298" 
d="M46 293q-6 0 -6 6t6 6h206q6 0 6 -6t-6 -6h-206z" />
    <glyph glyph-name="emdash" unicode="&#x2014;" horiz-adv-x="364" 
d="M46 293q-6 0 -6 6t6 6h272q6 0 6 -6t-6 -6h-272z" />
    <glyph glyph-name="quoteleft" unicode="&#x2018;" horiz-adv-x="120" 
d="M79 692q-18 -10 -25 -33q10 4 17 -1.5t8 -15.5q0 -12 -9.5 -17t-18.5 0t-10 17q-1 33 33 56q3 1 4.5 -1t0.5 -5z" />
    <glyph glyph-name="quoteright" unicode="&#x2019;" horiz-adv-x="120" 
d="M79 679q1 -33 -33 -56q-3 -1 -4.5 1t0.5 5q19 11 24 33q-10 -4 -17 1.5t-7 15.5q0 12 9 17t18 0t10 -17z" />
    <glyph glyph-name="quotesinglbase" unicode="&#x201a;" horiz-adv-x="120" 
d="M41 52q20 11 25 33q-10 -4 -17 1.5t-8 15.5q0 12 9.5 17t18.5 0t10 -17q1 -33 -33 -56q-3 -1 -4.5 1t-0.5 5z" />
    <glyph glyph-name="quotedblleft" unicode="&#x201c;" horiz-adv-x="180" 
d="M79 692q-18 -10 -25 -33q10 4 17 -1.5t8 -15.5q0 -12 -9.5 -17t-18.5 0t-10 17q-1 33 33 56q3 1 4.5 -1t0.5 -5zM139 692q-18 -10 -25 -33q10 4 17 -1.5t8 -15.5q0 -12 -9.5 -17t-18.5 0t-10 17q-1 33 33 56q3 1 4.5 -1t0.5 -5z" />
    <glyph glyph-name="quotedblright" unicode="&#x201d;" horiz-adv-x="177" 
d="M79 679q1 -33 -33 -56q-3 -1 -4.5 1t0.5 5q19 11 24 33q-10 -4 -17 1.5t-7 15.5q0 12 9 17t18 0t10 -17zM136 679q2 -33 -33 -56q-3 -1 -4.5 1t0.5 5q19 11 24 33q-10 -4 -17 1.5t-7 15.5q0 12 9 17t18 0t10 -17z" />
    <glyph glyph-name="quotedblbase" unicode="&#x201e;" horiz-adv-x="177" 
d="M41 52q20 11 25 33q-10 -4 -17 1.5t-8 15.5q0 12 9.5 17t18.5 0t10 -17q1 -33 -33 -56q-3 -1 -4.5 1t-0.5 5zM98 52q20 11 25 33q-10 -4 -17 1.5t-8 15.5q0 12 9.5 17t18.5 0t10 -17q2 -33 -33 -56q-3 -1 -4.5 1t-0.5 5z" />
    <glyph glyph-name="bullet" unicode="&#x2022;" horiz-adv-x="160" 
d="M80 340q17 0 27.5 -11t12.5 -29q-2 -18 -12.5 -29.5t-27.5 -12.5q-17 1 -27.5 12.5t-12.5 29.5q2 18 12.5 29t27.5 11z" />
    <glyph glyph-name="ellipsis" unicode="&#x2026;" horiz-adv-x="354" 
d="M59 122q17 0 19 -19q-2 -18 -19 -20q-17 2 -19 20q2 19 19 19zM177 122q17 0 19 -19q-2 -18 -19 -20q-17 2 -19 20q2 19 19 19zM295 122q17 0 19 -19q-2 -18 -19 -20q-17 2 -19 20q2 19 19 19z" />
    <glyph glyph-name="perthousand" unicode="&#x2030;" horiz-adv-x="449" 
d="M245 745q2 6 8 4q2 0 3.5 -2.5t0.5 -4.5l-203 -710q-2 -6 -7 -4q-6 1 -4 6zM118 745q26 0 38.5 -25.5t10.5 -55t-4 -50.5q-6 -41 -23.5 -74t-49.5 -33q-61 0 -48 120q3 18 7.5 35.5t13 37.5t23 32.5t32.5 12.5zM138 617q3 12 4.5 28t2.5 39t-5.5 38.5t-20.5 15.5
q-32 0 -52 -113q-21 -113 23 -113q33 0 48 105zM212 266q26 0 38.5 -25.5t10.5 -55t-4 -50.5q-6 -41 -23.5 -74t-49.5 -33q-61 0 -48 120q3 18 7.5 35.5t13 37.5t23 32.5t32.5 12.5zM232 138q3 12 4.5 28t2.5 39t-5.5 38.5t-20.5 15.5q-32 0 -52 -113q-21 -113 23 -113
q33 0 48 105zM359 266q26 0 38.5 -25.5t10.5 -55t-4 -50.5q-6 -41 -23.5 -74t-49.5 -33q-61 0 -48 120q3 18 7.5 35.5t13 37.5t23 32.5t32.5 12.5zM379 138q3 12 4.5 28t2.5 39t-5.5 38.5t-20.5 15.5q-32 0 -52 -113q-21 -113 23 -113q33 0 48 105z" />
    <glyph glyph-name="guilsinglleft" unicode="&#x2039;" horiz-adv-x="273" 
d="M45 295l181 128q5 4 6 -1l-2 -6l-147 -129l115 -155q6 -7 -1 -8q-3 0 -5 2l-148 158q-6 6 1 11z" />
    <glyph glyph-name="guilsinglright" unicode="&#x203a;" horiz-adv-x="273" 
d="M47 125q-5 -4 -6 1q-1 3 2 6l147 129l-115 155q-6 7 1 8q3 0 5 -2l148 -158q6 -6 -1 -11z" />
    <glyph glyph-name="fraction" unicode="&#x2044;" horiz-adv-x="304" 
d="M251 744q2 6 8 4t4 -8l-211 -707q-2 -6 -7 -4q-6 1 -4 7z" />
    <glyph glyph-name="Euro" unicode="&#x20ac;" horiz-adv-x="520" 
d="M219 356q6 0 6 -6t-6 -6h-50q0 -2 -0.5 -4.5t-0.5 -3.5q-6 -24 -8 -45h59q6 0 6 -6t-6 -6h-60q-18 -167 68 -207q46 -20 99.5 8.5t78.5 93.5q2 7 8 2q3 -3 2 -7q-31 -74 -87.5 -101t-114.5 -8q-66 20 -96.5 80.5t-28.5 138.5h-42q-6 0 -6 6t6 6h43q2 28 6 53h-49
q-6 0 -6 6t6 6h52q11 51 35.5 102.5t60 97t86 72.5t106.5 24q60 -5 85 -58q27 -60 -24 -165q-2 -5 -7 -2q-4 3 -2 7q48 102 23 156q-21 47 -74 47q-40 0 -76.5 -28.5t-63.5 -74t-45.5 -90t-29.5 -88.5h47z" />
    <glyph glyph-name="trademark" unicode="&#x2122;" horiz-adv-x="713" 
d="M667 446q5 2 5 -2q-52 -86 -98 -108q-18 -11 -37 -4t-20 31q-1 29 20.5 73.5t25.5 57.5q5 17 2 19q-2 1 -11 -8q-29 -34 -49 -67l-30 -42q-13 -15 -23 -10.5t-10 22.5q-1 28 29 79q2 5 10.5 20t12.5 23.5t8 21.5t4 24q-1 15 -10 16.5t-23 -13.5q-16 -15 -39 -55
q-26 -45 -80 -164q-15 -1 -19 12t-1 32q20 97 60 168q-11 -1 -34 -1.5t-34 -2.5q-35 -3 -51.5 -21t-11.5 -65q0 -3 -3 -3q-2 0 -2 3q-5 49 12.5 68t54.5 22q10 1 34.5 3t38.5 4q37 57 67 57q22 0 16 -20q-7 -25 -61 -39q-23 -45 -34 -87q-20 -61 -29 -108q53 111 73 145
q18 35 45 63q19 18 35 17t22 -17q4 -6 2 -19t-3.5 -20t-8 -20t-10 -19.5t-10 -17.5t-8.5 -15q-24 -39 -32 -64q-7 -20 -1 -22q4 -1 10 7q4 5 15 20t16 22q32 50 53 71q16 16 29 9.5t8 -28.5q-4 -15 -27 -58.5t-25 -72.5q-1 -17 7.5 -23.5t25.5 1.5q46 22 94 105zM155 353
q-21 -17 -48 -20.5t-49 12.5q-12 12 -18 23q0 2 1 2q4 2 4 0q4 -11 15 -20q37 -28 74 17q16 19 28.5 50.5t25.5 76t19 60.5q26 74 68 103q-51 9 -96 11q-119 0 -119 -99q0 -3 -2 -3q-3 0 -3 3q0 66 37 90q48 29 188 2q8 6 12 7q26 11 54.5 14t55.5 -7q18 -8 13 -18
q-2 -16 -44 -12q-27 1 -66 8q-39 -28 -66 -108q-4 -9 -18.5 -59.5t-29.5 -84t-36 -48.5zM399 671q-37 17 -89 -14q47 -7 61 -8q36 0 40 8q1 9 -12 14zM465 626q-16 -7 -41 -43q45 12 53 35q1 6 -2.5 8t-9.5 0z" />
    <glyph glyph-name="minus" unicode="&#x2212;" horiz-adv-x="277" 
d="M46 293q-6 0 -6 6t6 6h185q6 0 6 -6t-6 -6h-185z" />
    <glyph glyph-name="a.001" unicode="&#xe000;" 
d="M1467 303q5 5 9 1t-1 -9q-60 -57 -135.5 -83.5t-160.5 -24t-160.5 14t-172 29t-157.5 21.5q-66 4 -122.5 -4.5t-97 -23.5t-87.5 -49.5t-78.5 -63t-86.5 -83.5q-50 -48 -77 -25q-23 20 -23 73q0 106 46 212q-63 -82 -90 -108q-53 -53 -80 -18q-31 43 -3 118q15 42 48.5 71
t75 28t71.5 -43q27 38 41 44q18 9 34 -9q-93 -176 -102 -298q-5 -90 52 -37q54 54 86 83t79.5 64t89.5 51.5t99 27t124 8.5q82 -3 249 -33t246 -32q181 -5 284 98zM14 189q0 -16 5 -22t13.5 -3t17.5 9.5t18 15.5q32 33 91 112l21 28q-42 44 -78.5 22.5t-61 -71t-26.5 -91.5z
" />
    <glyph glyph-name="b.001" unicode="&#xe001;" horiz-adv-x="370" 
d="M1387 329q-60 -57 -135.5 -83.5t-160.5 -24t-160.5 13.5t-173 28.5t-159.5 21.5q-95 6 -180 -14q-36 -8 -99 -32.5t-82 -30.5q-21 -54 -60.5 -105t-85.5 -73q-35 -17 -58 -7t-21.5 37t23.5 60q24 32 59.5 49.5t96.5 35.5q22 62 16 109q-2 16 -9.5 22.5t-17.5 3.5
t-19.5 -9t-19.5 -15q-48 -47 -91 -127q-12 -23 -25 -55q-36 7 -36 60q-1 101 39 219t118.5 221.5t172.5 141.5q59 24 93 -2t20 -80q-29 -95 -131 -143q-66 -31 -173 -42q-77 -164 -99 -337q44 91 105 152q27 26 52.5 33.5t43 -4t21.5 -37.5q7 -44 -9 -95q20 7 79.5 29
t94.5 32q94 25 184 22q82 -3 249 -33t246 -32q181 -5 284 98q5 5 9 1t-1 -9zM331 753q-114 -65 -197 -233q92 9 163 42q98 47 125 135q12 45 -12.5 64.5t-78.5 -8.5zM83 42q57 35 103 150q-56 -17 -88.5 -33t-54.5 -46q-19 -25 -20.5 -49.5t14 -31.5t46.5 10z" />
    <glyph glyph-name="c.001" unicode="&#xe002;" horiz-adv-x="261" 
d="M1289 295q-62 -59 -139.5 -85t-164 -22.5t-165 16t-175.5 29.5t-162 19q-56 3 -102.5 -3.5t-91.5 -24t-78.5 -35t-86.5 -48.5l-36 -21q-59 -28 -86 -15.5t-33 54.5q-7 55 17.5 115.5t68.5 94.5q20 15 43 17.5t40.5 -10.5t19.5 -39q0 -2 -3 -3t-5.5 -0.5t-2.5 2.5
q-2 31 -22.5 34.5t-39.5 -16.5q-32 -32 -54 -91t-18 -105q6 -61 73 -26q61 35 83 47.5t72.5 37t82.5 32.5t80 15.5t98 5.5q82 -3 249 -33t246 -32q181 -5 284 98q5 5 9 1t-1 -9z" />
    <glyph glyph-name="d.001" unicode="&#xe003;" horiz-adv-x="403" 
d="M222 62q21 17 60 54t60 54q127 107 356 100q82 -3 249 -33t246 -32q181 -5 284 98q5 5 9 1t-1 -9q-60 -57 -135.5 -83t-160.5 -23.5t-160.5 14t-172 28.5t-159.5 21q-224 13 -347 -89q-21 -17 -63 -58.5t-57 -55.5q-46 -44 -74 -9q-41 51 0 218q-75 -98 -108 -135
q-30 -29 -52 -14.5t-26 52.5q-7 55 18 115t65 91q18 14 37.5 20t39.5 -0.5t32 -28.5q6 -10 13 -32q104 337 297 437q20 10 42 16t44.5 6.5t38 -13t17.5 -41.5q3 -42 -24.5 -84t-69.5 -72q-76 -52 -215 -67q-105 -214 -127 -417q-3 -32 7 -41t37 12zM475 731
q-93 -70 -164 -211q128 11 204 65q37 26 64.5 65.5t23.5 79.5q-2 27 -17.5 36t-37 2.5t-40 -16t-33.5 -21.5zM10 165q-1 -10 0 -20t3 -17.5t9.5 -6.5t18.5 13q20 20 40 45t45 57.5t37 48.5q4 15 5 19q-4 27 -15 49q-24 41 -61 4q-35 -35 -57.5 -87.5t-24.5 -104.5z" />
    <glyph glyph-name="e.001" unicode="&#xe004;" horiz-adv-x="244" 
d="M0 136q9 -61 113 6q74 46 97 59t76.5 36t102.5 28.5t119 4.5q82 -3 249 -33t246 -32q181 -5 284 98q5 5 9 1t-1 -9q-60 -57 -135.5 -83.5t-160.5 -24t-160 13.5t-171.5 28.5t-157.5 21.5q-126 6 -198 -18t-194 -102q-24 -14 -35.5 -20t-35.5 -14.5t-42 -3t-32 23.5
q-18 40 -9.5 91.5t41 100.5t72.5 65q37 14 56.5 -8t-1.5 -56q-16 -25 -42 -37t-65 -21q-30 -81 -25 -116zM30 264q76 20 94 56q10 21 0 33.5t-33 -0.5q-8 -5 -15.5 -12.5t-12.5 -14.5t-11 -17.5t-9 -16.5t-7.5 -16t-5.5 -12z" />
    <glyph glyph-name="f.001" unicode="&#xe005;" horiz-adv-x="302" 
d="M-34 -5q56 20 112 64t113.5 92.5t111.5 73.5q107 50 266 45q82 -3 249 -33t246 -32q181 -5 284 98q4 5 8 1t0 -9q-60 -57 -134.5 -83t-158.5 -24t-158 13t-170.5 28.5t-158.5 21.5q-156 12 -269 -36q-42 -18 -87 -52t-78 -65t-81 -64t-98 -51l-4 -14q23 -40 27 -97
t-16 -105q-10 -26 -29.5 -40t-38.5 -5.5t-24 44.5q-11 75 26 202q-25 -8 -48 -2q-21 6 -24.5 27t13.5 33q18 11 38.5 6.5t33.5 -17.5q10 35 36 127t41 141t41.5 122t53.5 131q23 48 59 102.5t77 89.5q51 46 91.5 33t39.5 -90q-1 -113 -90.5 -223t-200.5 -130
q-17 -53 -99 -323zM140 523q-25 -55 -72 -194q103 17 190 125.5t87 216.5q0 43 -15 57t-35.5 4.5t-45.5 -34.5q-54 -56 -109 -175zM-85 -216q-4 -28 3 -37.5t18.5 -1t21.5 27.5q37 83 -4 181q-33 -118 -39 -170zM-86 4q-10 11 -27.5 16t-32.5 -5q-8 -7 -7 -20t14 -18
q20 -8 46 2z" />
    <glyph glyph-name="g.001" unicode="&#xe006;" horiz-adv-x="388" 
d="M189 150q34 13 105.5 49t128.5 53.5t131 20.5q94 4 276.5 -31t265.5 -37q181 -5 284 98q4 5 8 1t0 -9q-64 -61 -143.5 -87.5t-166 -22t-167 18.5t-181.5 31t-173 18q-74 1 -126 -12.5t-129 -51t-117 -53.5q-2 -8 -12.5 -45.5l-14 -50t-14 -46.5t-17.5 -50t-19 -45.5
t-23 -46.5t-25.5 -39.5t-31.5 -39.5t-36 -31q-32 -24 -71.5 -29t-71.5 15.5t-38 65.5q-10 67 29 130t101 106q58 40 187 93q41 141 65 195q-22 -22 -66 -75t-73 -80q-19 -17 -35.5 -20.5t-26.5 4.5t-14 23q-12 50 8.5 103.5t65.5 81.5q36 22 71.5 15t65.5 -41l19 18
q37 58 60 21q-40 -83 -79 -218zM-27 -238q82 80 152 348q-123 -51 -177 -89q-60 -42 -98 -103t-28 -125q7 -39 34.5 -55t60 -8t56.5 32zM48 171q27 25 69.5 77t64.5 74q-19 17 -34 25.5t-36 7.5t-39 -19q-26 -25 -43 -70.5t-17 -77.5q-2 -22 5.5 -28t29.5 11z" />
    <glyph glyph-name="h.001" unicode="&#xe007;" horiz-adv-x="395" 
d="M1521 303q5 5 9 1t-1 -9q-63 -60 -143.5 -86t-169.5 -21.5t-171 18t-181.5 30t-167.5 17.5q-123 2 -214 -37q-50 -21 -91 -60.5t-90.5 -104t-74.5 -91.5q-2 -2 -7 -7.5t-8 -8.5l-9 -9t-10 -9l-10 -7.5t-11.5 -7t-11.5 -4t-11.5 -1.5t-11.5 2q-33 11 -35 65
q-2 57 36.5 150.5t45.5 127.5q6 32 -3.5 40t-41.5 -23q-51 -51 -118 -167q-40 9 -38 75q6 147 69 304.5t162 238.5q44 36 85.5 43t64.5 -21.5t12 -89.5q-18 -103 -112 -205q-97 -103 -214 -148q-16 -63 -26 -170q59 99 108 148q38 36 64 33q20 -2 28 -27t1 -64
q-7 -37 -37 -116.5t-36 -125.5q-4 -26 1.5 -36.5t17 -6t23 14t24.5 22.5q27 28 76.5 91t91 103t90.5 61q115 50 267 45q82 -3 249 -33t246 -32q181 -5 284 98zM266 711q-131 -110 -213 -400q112 45 202 143q90 95 109 199q12 66 -18.5 82.5t-79.5 -24.5z" />
    <glyph glyph-name="i.001" unicode="&#xe008;" horiz-adv-x="238" 
d="M235 215q-41 -18 -78 -45.5t-90 -73.5q-8 -8 -13 -12q-57 -51 -82 -7q-18 34 -8 110q8 57 24 94q23 53 61 24q-39 -111 -49 -180q-3 -15 -1.5 -27t5.5 -19.5t15 -4.5t28 18q9 8 32.5 29t36 31t33 25.5t40 27t40.5 20.5q115 50 267 45q82 -3 249 -33t246 -32
q181 -5 284 98q5 5 9 1t-1 -9q-53 -50 -119 -76t-130 -30t-141.5 3.5t-143 21t-146 25.5t-139.5 14q-132 3 -229 -38zM43 338q-9 0 -15.5 6.5t-6.5 14.5q0 9 6.5 15.5t15.5 6.5q8 0 14.5 -6.5t6.5 -15.5q0 -8 -6.5 -14.5t-14.5 -6.5z" />
    <glyph glyph-name="j.001" unicode="&#xe009;" horiz-adv-x="218" 
d="M446 252q-58 3 -107.5 -3.5t-83 -15t-85 -36.5t-77 -44.5t-95.5 -62.5q-16 -85 -26 -128.5t-36 -110t-62 -114.5q-42 -55 -97 -87.5t-105 -1.5q-52 33 -32 128q16 67 78 130q30 31 72.5 63t70.5 50t82 51q28 153 49 214q8 25 25 30t36 -10q-27 -69 -52 -200
q21 13 64.5 41.5t61 39t53 30t59 26.5t59.5 16.5t74 11.5t84 1q82 -3 249 -33t246 -32q181 -5 284 98q5 5 9 1t-1 -9q-61 -58 -138 -84t-162.5 -23t-162.5 15t-174 29t-160 20zM-59 56q-150 -91 -215 -157q-60 -61 -75 -125q-9 -26 -3.5 -63.5t30.5 -53.5q43 -26 92.5 13.5
t78.5 89.5q56 100 92 296zM44 338q-9 0 -15 6.5t-6 14.5q0 9 6 15.5t15 6.5t15 -6.5t6 -15.5q0 -8 -6 -14.5t-15 -6.5z" />
    <glyph glyph-name="k.001" unicode="&#xe00a;" horiz-adv-x="351" 
d="M1469 303q5 5 9 1t-1 -9q-62 -60 -141.5 -85.5t-167.5 -21.5t-168.5 17t-180.5 30t-168 18q-125 3 -223 -38q-58 -25 -103 -65t-94 -101q-31 -40 -45.5 -54.5t-27.5 -16.5q-13 -1 -25 7.5t-17 22.5q-8 19 -9 45.5t0.5 48t-5.5 46t-26 41.5q-26 22 4 27q4 1 24.5 3t34.5 7
t25 15q12 11 7 25t-23 12q-43 -4 -76 -47q-39 -51 -52 -130q-43 8 -38 75q9 149 71 305.5t160 237.5q43 36 85 43t65 -22t12 -89q-19 -107 -112 -205q-95 -102 -214 -148q-12 -48 -22 -130q14 38 37 69q37 48 83 53q31 4 42.5 -17t-11.5 -42q-18 -16 -84 -23q-7 -1 -9.5 -2
t-0.5 -2.5t8 -4.5q37 -16 50 -43t14 -70q0 -5 -3 -36.5t1 -36.5q8 -36 56 28q10 13 12 15q47 60 88 96q53 46 113 73q115 50 267 45q82 -3 249 -33t246 -32q181 -5 284 98zM266 711q-143 -120 -213 -400q112 45 202 143q90 97 109 199q12 66 -18.5 82.5t-79.5 -24.5z" />
    <glyph glyph-name="l.001" unicode="&#xe00b;" horiz-adv-x="296" 
d="M118 92q50 44 82 69.5t81.5 52.5t100.5 39q70 20 167.5 15.5t167 -17.5t169.5 -28.5t174 -17.5q181 -5 284 98q4 5 8 1t0 -9q-53 -51 -118.5 -77.5t-131.5 -29.5t-140.5 3t-146 21.5t-147.5 25.5t-144.5 14t-138.5 -11q-52 -11 -101 -38t-74 -47t-86 -73q-48 -42 -88 -31
q-30 9 -43 45.5t-11 78.5q7 148 70 305t161 238q44 36 85.5 43t64.5 -21.5t12 -89.5q-18 -103 -112 -205q-97 -103 -214 -148q-36 -136 -22 -196q8 -31 34 -34t57 24zM266 711q-131 -110 -213 -400q112 45 202 143q90 95 109 199q12 66 -18.5 82.5t-79.5 -24.5z" />
    <glyph glyph-name="m.001" unicode="&#xe00c;" horiz-adv-x="575" 
d="M1696 303q4 5 8 1t0 -9q-32 -31 -70 -52t-71.5 -33.5t-80.5 -17t-79 -5t-87 6t-84 11.5t-89 15q-171 29 -246 32q-188 11 -306 -77q-25 -19 -50.5 -44t-59 -61.5t-55.5 -58.5q-28 -28 -56 -31q-19 -2 -34.5 11.5t-20.5 38.5q-5 21 -0.5 47t12.5 48.5t18 48.5l1.5 3t1 3
t1.5 3q8 19 26 60.5t30.5 72.5t19.5 59q14 55 -11 67t-56 -37q-19 -31 -50 -91.5t-60.5 -108t-65.5 -83.5q-11 -11 -23.5 -18.5t-25 -10t-21.5 7t-10 31.5q0 13 4 29.5t9.5 34.5t6.5 21q5 19 -2.5 22t-16.5 -6q-18 -16 -47.5 -52.5t-34.5 -42.5q-17 -19 -32 -23.5t-23 8.5
q-10 16 -6.5 47.5t11 59t17.5 51.5q24 54 63 24q-43 -90 -56 -147q-5 -20 2 -21.5t16 9.5q11 12 40 49.5t47 53.5q31 27 57 21q24 -5 18 -39q-3 -15 -16 -49t-14 -38q-6 -23 5.5 -24t26.5 15q30 28 59.5 75t62.5 110.5t50 90.5q40 66 84 54q34 -8 39 -55q5 -51 -17 -113
t-54.5 -130.5t-41.5 -111.5q-4 -19 1.5 -35.5t17.5 -18.5q18 -4 43 23q13 13 41.5 44t42.5 45.5t36.5 35t42.5 35.5q123 93 333 86q82 -3 249 -33t246 -32q181 -5 284 98z" />
    <glyph glyph-name="n.001" unicode="&#xe00d;" horiz-adv-x="386" 
d="M1501 303q5 5 9 1t-1 -9q-60 -57 -135.5 -83.5t-160.5 -24t-160 14t-171.5 29t-157.5 21.5q-217 17 -333 -78q-26 -21 -79 -78.5t-89 -82.5q-37 -25 -61.5 -11t-28 48.5t3.5 71.5q11 45 50 127t50 126q14 55 -11.5 67t-56.5 -37q-20 -31 -52 -97.5t-49 -94.5
q-28 -46 -53 -72q-28 -27 -41.5 -17t-11.5 44q1 53 26 113q24 54 62 24q-3 -7 -15 -34.5t-23.5 -56.5t-15.5 -49q-2 -11 0.5 -14.5t7.5 -0.5t11 9q26 28 45 61q17 29 49.5 95.5t50.5 95.5q14 22 34 39q32 25 58.5 12t30.5 -52q5 -49 -13 -102.5t-49 -115.5t-42 -99
q-4 -14 -6 -29t0 -29.5t13 -16.5t33 9q33 19 91 79t76 76q111 95 336 88q82 -3 249 -33t246 -32q181 -5 284 98z" />
    <glyph glyph-name="o.001" unicode="&#xe00e;" horiz-adv-x="281" 
d="M551 305q-134 7 -236 -38q-76 -36 -105 -46q-26 -9 -51 -6q-12 -44 -39.5 -82.5t-66.5 -43.5q-23 -4 -44 9t-32 39q-12 34 -8.5 72.5t19.5 72.5q8 17 15.5 21.5t15 -0.5t21.5 -20q-17 -26 -30 -69t-7 -75q9 -44 48 -39q34 4 60 40.5t38 76.5q-42 9 -83 49.5t-50 85.5
q-6 26 3 50t27 37q35 22 67 5t47 -53q27 -67 2 -165q20 -3 46 6q16 6 34 14t38.5 17.5t31.5 14.5q112 51 252 45q82 -3 249 -33t246 -32q181 -5 284 98q5 4 9 0t-1 -8q-61 -58 -138 -84t-163.5 -23t-164 15t-174.5 29t-160 20zM41 357q1 -42 35.5 -81t75.5 -48q23 94 -1 156
q-14 35 -41.5 44t-48.5 -11.5t-20 -59.5z" />
    <glyph glyph-name="p.001" unicode="&#xe00f;" horiz-adv-x="367" 
d="M571 280q-33 1 -64 -1t-50.5 -4.5t-53 -12.5t-46 -14.5t-56 -20.5t-58.5 -22q-26 -83 -87 -122q-32 -21 -48 0t0 50q13 24 42.5 43.5t58.5 28.5q18 73 9 136q-4 28 -15.5 32.5t-24 -6t-25.5 -29.5q-30 -45 -54 -92.5t-44.5 -107t-32.5 -98.5t-33 -116.5t-31 -111.5
q-2 -9 -6.5 -22t-11.5 -30.5t-15.5 -29t-16.5 -10.5q-20 3 -18 60q1 76 20 175t37.5 166t50.5 175q16 57 46 89q9 9 19.5 7.5t19.5 -12.5q-10 -36 -68 -227.5t-80 -304.5q-16 -95 -3 -71q6 10 15 40q10 31 36 123t43.5 145.5t50 129t68.5 130.5q28 41 57.5 43t46.5 -45
q18 -56 -2 -125q18 7 58 23t55.5 21.5t48 15.5t55 13.5t56 5.5t70.5 1q82 -3 249 -33t246 -32q181 -5 284 98q5 5 9 1t-1 -9q-32 -31 -70 -52t-71.5 -33.5t-80.5 -17t-79 -5t-87 6t-84 11.5t-89 15q-171 29 -245 32zM147 93q40 28 59 100q-24 -8 -49.5 -25.5t-37.5 -37.5
q-13 -22 -5 -37.5t33 0.5z" />
    <glyph glyph-name="q.001" unicode="&#xe010;" horiz-adv-x="347" 
d="M596 252q-113 6 -191.5 -23.5t-190.5 -103.5q-46 -30 -84 -41l-1 -3q38 -46 56.5 -110t5.5 -121q-9 -40 -34.5 -61t-53 -8.5t-40.5 58.5q-14 48 -2 135q6 48 20 107q-44 6 -65 30q-15 19 -4.5 32.5t32.5 8.5q24 -5 48 -28q38 135 66 193q-12 -13 -38.5 -45.5t-43.5 -49.5
q-54 -56 -74 -18q-14 29 -7 73t30 77q23 34 59 39.5t62 -27.5q10 -15 13 -31l27 31q13 13 18 15t25 -5q-21 -48 -36 -92t-31.5 -99t-27.5 -88q32 8 77 38q109 74 198 106.5t205 28.5q82 -3 249 -33t246 -32q181 -5 284 98q5 5 9 1t-1 -9q-32 -31 -70 -52t-71.5 -33.5
t-80.5 -17t-79 -5t-87 6t-84 11.5t-89 15q-161 28 -244 32zM91 -159q4 -49 33 -49q27 0 47 36q7 12 10 26q12 51 -4 109t-51 105q-41 -138 -35 -227zM59 342q-51 -70 -44 -130q3 -33 53 17q16 16 43.5 49l37.5 45q0 20 -13 38q-12 15 -27 15t-27 -9.5t-23 -24.5zM83 91l6 21
q-20 20 -42 27q-13 5 -20 -4t3 -20q15 -18 53 -24z" />
    <glyph glyph-name="r.001" unicode="&#xe011;" horiz-adv-x="248" 
d="M1336 303q4 5 8 1t0 -9q-32 -31 -70 -52t-71.5 -33.5t-80.5 -17t-79 -5t-87 6t-84 11.5t-89 15q-149 26 -225 31q-240 16 -386 -121q-22 -21 -101 -105q-19 -20 -39 -28.5t-36 3.5t-16 49q-3 101 63 223q-66 14 -101 70t-4 114q16 30 47 34.5t50 -23.5q37 -59 -23 -169
q18 -12 51 -19q20 -4 22.5 -11.5t-6.5 -24.5q-54 -123 -68 -193q-5 -25 1 -34.5t20 -3.5t31 23q14 14 48 50.5t53 54.5q147 138 393 130q82 -3 249 -33t246 -32q181 -5 284 98zM-39 446q-19 -37 -6.5 -78.5t47.5 -63.5q58 98 25 155q-15 21 -34.5 14.5t-31.5 -27.5z" />
    <glyph glyph-name="s.001" unicode="&#xe012;" horiz-adv-x="234" 
d="M750 278q-50 9 -71 13t-66.5 10.5t-74 8t-67.5 1t-73 -5.5q-22 -3 -46 -10t-39.5 -12.5t-45 -19t-38.5 -18t-45 -23t-41 -21.5q-17 -9 -56 -26q11 -52 -3.5 -102.5t-52.5 -77.5q-25 -18 -55 -20t-51 17t-17 56q5 44 41 71.5t95 51.5q-5 18 -22.5 60.5t-22.5 66.5
q-8 25 -4 60.5t22 56.5q23 28 62 25.5t53 -39.5q11 -26 0 -52q-1 -4 -6 -3.5t-4 5.5q9 24 -1 41q-9 19 -31 17t-34 -21q-17 -24 -10 -62q5 -29 20.5 -78.5t18.5 -62.5q19 7 53 25q17 9 59 31t65 33.5t60 25t71 19.5q64 16 153.5 9.5t155 -20t157 -28.5t160.5 -17
q181 -5 284 98q5 5 9 1t-1 -9q-32 -31 -70 -52t-71.5 -33.5t-80.5 -17t-79 -5t-87 6t-84 11.5t-89 15zM48 159q-120 -40 -129 -111q-6 -46 30.5 -57.5t69.5 17.5q28 24 35.5 69.5t-6.5 81.5z" />
    <glyph glyph-name="t.001" unicode="&#xe013;" horiz-adv-x="245" 
d="M7 99q0 -28 14.5 -39t41.5 2q22 11 43.5 25.5t34 24.5t34 28t30.5 26q131 109 342 104q82 -3 249 -33t246 -32q181 -5 284 98q4 5 8 1t0 -9q-60 -58 -137 -84t-162.5 -23t-162 14.5t-173 28.5t-159.5 20q-195 10 -330 -95q-10 -8 -39.5 -33.5t-53 -42.5t-50.5 -32
q-32 -20 -65.5 -9.5t-38.5 52.5q-12 94 68 294q32 78 74 168q-58 -4 -93 6q-7 2 -3 8q3 4 6 2q36 -9 95 -5q30 63 65 107q6 7 13.5 7t12.5 -2.5t16 -8.5q-18 -26 -51 -100q57 4 89 -6q4 -1 3.5 -6t-6.5 -5q-32 10 -92 6q-39 -84 -79 -189q-1 -1 -9.5 -24.5t-11 -29.5
t-10.5 -28.5t-11 -32.5t-9.5 -30.5t-9.5 -33.5t-6.5 -30t-5 -31.5t-1.5 -27.5z" />
    <glyph glyph-name="u.001" unicode="&#xe014;" 
d="M1454 303q4 5 8 1t0 -9q-32 -31 -70 -52t-71.5 -33.5t-80.5 -17t-79 -5t-87 6t-84 11.5t-89 15q-86 15 -130 21t-116.5 11t-131.5 -4.5t-113 -33.5q-41 -17 -75.5 -43t-54 -46.5t-54 -61t-56.5 -63.5q-36 -36 -56.5 -18.5t-18.5 69.5q1 39 10 84.5t16 64.5q11 33 25 61
q-84 -98 -131 -130q-42 -29 -50.5 17.5t4.5 75.5q8 33 18 56q24 55 64 24q-44 -97 -51 -125q-12 -47 3 -43q3 1 6 3q30 20 57 47.5t60 67.5t50 58q8 12 12 16q11 11 35 -3q-2 -6 -7.5 -18.5t-7.5 -16.5q-67 -162 -81 -237q-12 -64 10 -63q10 1 26 19q8 9 49.5 56.5
t59.5 65.5t57 47.5t79 46.5q115 50 267 45q82 -3 249 -33t246 -32q181 -5 284 98z" />
    <glyph glyph-name="v.001" unicode="&#xe015;" horiz-adv-x="317" 
d="M187 306q21 -17 40.5 -24t42.5 -3t36 8t45 18.5t46 20.5q144 60 259 55q82 -3 249 -33t246 -32q181 -5 284 98q5 4 9 0t-1 -8q-32 -31 -70 -52t-71.5 -33.5t-80.5 -17t-79 -5t-87 6t-84 11.5t-89 15q-161 28 -229 32q-116 7 -250 -46q-13 -5 -44 -19t-46.5 -19t-40.5 -9
t-47 3t-45 25q-6 5 -8 5t-6 -8q0 -1 -7.5 -19t-17.5 -41t-22.5 -49.5t-27 -53t-27.5 -44.5q-23 -32 -43.5 -34t-34.5 33q-12 42 -9.5 96.5t16.5 100.5q12 33 30 58q15 21 45 7q-54 -144 -50 -244q3 -61 44 -2q18 26 40.5 73t38.5 86l16 38q6 13 12 14.5t18 -8.5z" />
    <glyph glyph-name="w.001" unicode="&#xe016;" horiz-adv-x="477" 
d="M334 297q17 -13 35.5 -18.5t32.5 -6.5t36 5t33.5 10.5t37 15.5t36.5 15q144 60 259 55q82 -3 249 -33t246 -32q181 -5 284 98q5 4 9 0t-1 -8q-32 -31 -70 -52t-71.5 -33.5t-80.5 -17t-79 -5t-87 6t-84 11.5t-89 15q-161 28 -229 32q-116 7 -250 -46q-8 -3 -34 -14.5
t-38 -16t-35 -10.5t-38.5 -6t-35.5 5t-38 17q-11 7 -12.5 2.5t0.5 -15.5q5 -70 -15 -160.5t-64 -128.5q-21 -18 -44.5 -13.5t-40.5 29.5q-50 75 -10 240q8 31 11 40q-89 -123 -119 -152q-17 -16 -31.5 -21.5t-26.5 2t-19 28.5q-9 28 -2 72.5t26 74.5q30 50 65 22
q-57 -97 -57 -165q0 -41 40 -4q30 29 85 106t74 98v1q14 14 41 1q-4 -15 -14 -46t-18.5 -58t-17 -61.5t-13 -63t-3.5 -56t10 -45.5q10 -21 25.5 -27t33.5 8q40 36 59 124.5t14 152.5q-1 10 -1 18t2 13t8 4.5t16 -7.5z" />
    <glyph glyph-name="x.001" unicode="&#xe017;" horiz-adv-x="361" 
d="M168 61q6 6 29 29.5t32 32t30 27.5t36 29.5t36 23.5t43 22q115 50 267 45q82 -3 249 -33t246 -32q181 -5 284 98q4 5 8 1t0 -9q-32 -31 -70 -52t-71.5 -33.5t-80.5 -17t-79 -5t-87 6t-84 11.5t-89 15q-168 30 -251 33q-134 5 -235 -37q-27 -12 -49 -24.5t-44.5 -31.5
t-34 -29.5t-39.5 -39.5t-39 -40q-56 -56 -84 33q-10 30 -15 88q-20 -30 -67 -115q-36 -63 -53 -88q-4 -4 -7.5 -1.5t-1.5 7.5q20 28 52 87q42 76 75 127q-8 94 -17 110q-4 6 -9 10q-15 9 -38 -14q-2 -3 -5.5 -3t-5 2.5t0.5 5.5q19 33 47 38q40 8 62 -30q13 -24 15 -52
q83 98 163 97q3 0 4.5 -2.5t0 -5.5t-5.5 -3q-78 1 -160 -100q2 -23 0.5 -77.5t1.5 -79.5q0 -2 1 -8.5t1.5 -9t2 -7.5t2.5 -7t3 -4.5t5 -2.5t6.5 1t8 4.5t10.5 9.5z" />
    <glyph glyph-name="y.001" unicode="&#xe018;" horiz-adv-x="379" 
d="M332 216q-26 -11 -76.5 -39t-79.5 -41q-2 -9 -12.5 -45.5t-14.5 -49.5t-14.5 -47t-17.5 -50t-19 -45t-23 -46.5t-26 -39.5t-31.5 -39.5t-35.5 -31.5q-32 -24 -71 -29t-71 16t-38 65q-9 67 29.5 129.5t100.5 106.5q58 40 187 93q33 129 54 177q-6 -7 -23 -29t-24.5 -31.5
t-22.5 -27.5t-25 -28t-23 -21.5t-24 -19.5q-50 -35 -60 26q-9 48 19 114q24 55 64 24q-36 -67 -45 -123q-6 -38 9 -35q3 0 7 3q26 18 56.5 51.5t68.5 82.5t53 67q12 12 16 15q20 15 34 -10q-11 -20 -19 -38.5t-16 -41.5t-12 -36t-13 -45.5t-13 -46.5q24 10 71 36.5t75 38.5
q115 50 267 45q82 -3 249 -33t246 -32q181 -5 284 98q4 5 8 1t0 -9q-32 -31 -70 -52t-71.5 -33.5t-80.5 -17t-79 -5t-87 6t-84 11.5t-89 15q-69 12 -102 17.5t-95.5 12t-103 4.5t-91.5 -11t-95 -27zM-36 -238q86 85 151 348q-124 -52 -177 -89q-60 -42 -97.5 -103
t-27.5 -125q6 -39 33.5 -55t60 -8t57.5 32z" />
    <glyph glyph-name="z.001" unicode="&#xe019;" horiz-adv-x="323" 
d="M181 156q88 64 168 89q92 28 212 25q82 -3 249 -33t246 -32q181 -5 284 98q4 5 8 1t0 -9q-32 -31 -70 -52t-71.5 -33.5t-80.5 -17t-79 -5t-87 6t-84 11.5t-89 15q-74 13 -113.5 19t-102.5 12t-116 1.5t-102 -18.5q-63 -17 -169 -89q16 -116 -52.5 -252t-173.5 -177
q-47 -18 -87.5 2.5t-43.5 75.5q-3 59 36 116q15 23 37.5 45.5t42.5 39.5t50 38.5t48.5 33t51 32t44.5 27.5q-3 44 -16.5 65.5t-49.5 30.5q-18 5 -5 21q5 6 22 21t24.5 27.5t4.5 28.5q-3 20 -21.5 23.5t-33.5 -5.5q-29 -13 -52 -43q-2 -3 -6.5 -1t-3.5 6q14 27 42.5 50.5
t62.5 23.5q21 0 36.5 -12.5t14.5 -37.5q0 -15 -8.5 -29.5t-16.5 -21.5t-27 -20t-25 -18q46 -5 68.5 -23t33.5 -56zM-47 -269q78 39 134.5 163.5t50.5 219.5q-9 -6 -48.5 -30t-61 -39t-55 -39.5t-58.5 -50t-43 -52.5q-38 -58 -34 -108q3 -47 37 -66.5t78 2.5z" />
    <glyph glyph-name="a.002" unicode="&#xe01a;" 
d="M163 288q-63 -82 -90 -108q-53 -53 -80 -18q-27 38 -7 104q-59 -71 -122 -109q-59 -37 -127 -56t-145 -19t-138 6.5t-147 21.5q-2 0 -66.5 12t-81.5 14.5t-73.5 8t-85.5 3t-71.5 -10t-75.5 -23.5q-49 -23 -95 -66q-3 -3 -6.5 -2t-4 4t2.5 6q47 44 98 68q49 23 103 33
t121.5 5.5t112 -11t126.5 -21.5q75 -13 114.5 -19t108 -11.5t114.5 -1t102 20.5t104 45q81 50 146 137q14 27 36.5 46.5t47.5 28t52.5 -1t48.5 -38.5q27 38 41 44q18 9 34 -9q-93 -176 -102 -298q-4 -50 10.5 -56.5t43.5 32.5q21 28 44.5 63.5t37 57t42.5 69t37 61.5
q2 4 7 2t3 -7q-119 -195 -162 -252q-30 -38 -52 -44q-27 -7 -39.5 19.5t-12.5 57.5q0 106 46 212zM14 189q0 -16 5 -22t13.5 -3t17.5 9.5t18 15.5q32 33 91 112l21 28q-42 44 -78.5 22.5t-61 -71t-26.5 -91.5z" />
    <glyph glyph-name="b.002" unicode="&#xe01b;" horiz-adv-x="370" 
d="M0 302q18 96 60.5 190t111 173t147.5 111q59 24 93 -2t20 -80q-29 -95 -131 -143q-66 -31 -173 -42q-77 -164 -99 -337q44 91 105 152q27 26 52.5 33.5t43 -4t21.5 -37.5q7 -44 -9 -95q101 33 128 79q2 3 5 2.5t4.5 -3t0.5 -4.5q-31 -52 -143 -87q-21 -54 -60.5 -105
t-85.5 -73q-35 -17 -58 -7t-21.5 37t23.5 60q24 32 59.5 49.5t96.5 35.5q22 62 16 109q-2 16 -9.5 22.5t-17.5 3.5t-19.5 -9t-19.5 -15q-48 -47 -91 -127q-12 -23 -25 -55q-36 7 -36 60q0 33 7 85q-60 -78 -132 -122q-59 -37 -127 -56t-145 -19t-138 6.5t-147 21.5
q-2 0 -66.5 12t-81.5 14.5t-73.5 8t-85.5 3t-71.5 -10t-75.5 -23.5q-49 -23 -95 -66q-3 -3 -6.5 -2t-4 4t2.5 6q47 44 98 68q49 23 103 33t121.5 5.5t112 -11t126.5 -21.5q75 -13 114.5 -19t108 -11.5t114.5 -1t102 20.5t104 45q82 50 146 138zM331 753q-114 -65 -197 -233
q92 9 163 42q98 47 125 135q12 45 -12.5 64.5t-78.5 -8.5zM83 42q57 35 103 150q-56 -17 -88.5 -33t-54.5 -46q-19 -25 -20.5 -49.5t14 -31.5t46.5 10z" />
    <glyph glyph-name="c.002" unicode="&#xe01c;" horiz-adv-x="261" 
d="M-31 159q-6 49 13 103q-55 -65 -118 -105q-59 -37 -127 -56t-145 -19t-138 6.5t-147 21.5q-2 0 -66.5 12t-81.5 14.5t-73.5 8t-85.5 3t-71.5 -10t-75.5 -23.5q-49 -23 -95 -66q-3 -3 -6.5 -2t-4 4t2.5 6q47 44 98 68q49 23 103 33t121.5 5.5t112 -11t126.5 -21.5
q75 -13 114.5 -19t108 -11.5t114.5 -1t102 20.5t104 45q79 46 145 136q22 42 56 69q20 15 43 17.5t40.5 -10.5t19.5 -39q0 -2 -3 -3t-5.5 -0.5t-2.5 2.5q-2 31 -22.5 34.5t-39.5 -16.5q-32 -32 -54 -91t-18 -105q6 -61 73 -26q78 41 175 168q4 5 9 0q3 -3 1 -5
q-94 -126 -183 -175q-59 -28 -86 -15.5t-33 54.5z" />
    <glyph glyph-name="d.002" unicode="&#xe01d;" horiz-adv-x="403" 
d="M48 123q-30 -29 -52 -14.5t-26 52.5q-6 49 13 100q-50 -61 -118 -104q-59 -37 -127 -56t-145 -19t-138 6.5t-147 21.5q-2 0 -66.5 12t-81.5 14.5t-73.5 8t-85.5 3t-71.5 -10t-75.5 -23.5q-49 -23 -95 -66q-7 -6 -10 1q-1 4 2 7q47 44 98 68q49 23 103 33t121.5 5.5
t112 -11t126.5 -21.5q75 -13 114.5 -19t108 -11.5t114.5 -1t102 20.5t104 45q80 48 143 134q23 45 55 69q18 14 37.5 20t39.5 -0.5t32 -28.5q6 -10 13 -32q104 337 297 437q20 10 42 16t44.5 6.5t38 -13t17.5 -41.5q3 -42 -24.5 -84t-69.5 -72q-76 -52 -215 -67
q-105 -214 -127 -417q-3 -32 7 -41t37 12q92 78 181 238q2 4 6.5 1.5t3.5 -6.5q-87 -154 -183 -246q-46 -44 -74 -9q-41 51 0 218q-75 -98 -108 -135zM475 731q-93 -70 -164 -211q128 11 204 65q37 26 64.5 65.5t23.5 79.5q-2 27 -17.5 36t-37 2.5t-40 -16t-33.5 -21.5z
M10 165q-1 -10 0 -20t3 -17.5t9.5 -6.5t18.5 13q20 20 40 45t45 57.5t37 48.5q4 15 5 19q-4 27 -15 49q-24 41 -61 4q-35 -35 -57.5 -87.5t-24.5 -104.5z" />
    <glyph glyph-name="e.002" unicode="&#xe01e;" horiz-adv-x="244" 
d="M254 295q-79 -132 -165 -182q-20 -12 -40.5 -18t-42 -1.5t-33.5 23.5q-30 53 5 140q-50 -60 -114 -100q-59 -37 -127 -56t-145 -19t-138 6.5t-147 21.5q-2 0 -66.5 12t-81.5 14.5t-73.5 8t-85.5 3t-71.5 -10t-75.5 -23.5q-49 -23 -95 -66q-3 -3 -6.5 -2t-4 4t2.5 6
q47 44 98 68q49 23 103 33t121.5 5.5t112 -11t126.5 -21.5q75 -13 114.5 -19t108 -11.5t114.5 -1t102 20.5t104 45q82 50 145 137q32 55 78 73q37 14 56.5 -8t-1.5 -56q-16 -25 -42 -37t-65 -21q-30 -81 -25 -116q3 -19 15.5 -25.5t29.5 -1.5t31.5 12t27.5 16q70 48 140 163
q2 3 5 3t4.5 -2.5t0.5 -5.5zM30 264q76 20 94 56q10 21 0 33.5t-33 -0.5q-8 -5 -15.5 -12.5t-12.5 -14.5t-11 -17.5t-9 -16.5t-7.5 -16t-5.5 -12z" />
    <glyph glyph-name="f.002" unicode="&#xe01f;" horiz-adv-x="302" 
d="M0 302q44 139 89 234q23 48 59 102.5t77 89.5q51 46 91.5 33t39.5 -90q-1 -113 -90.5 -223t-200.5 -130q-17 -53 -99 -323q42 15 83.5 41.5t71.5 52t67 68t57.5 69t56.5 74.5q2 3 5 2.5t4.5 -3t0.5 -4.5q-36 -48 -58.5 -77t-60 -71t-69.5 -69t-74.5 -53.5t-86.5 -41.5
l-4 -14q23 -40 27 -97t-16 -105q-10 -26 -29.5 -40t-38.5 -5.5t-24 44.5q-11 75 26 202q-25 -8 -48 -2q-21 6 -24.5 27t13.5 33q18 11 38.5 6.5t33.5 -17.5q11 36 36 123.5t39 135.5q-57 -73 -128 -117q-59 -37 -127 -56t-145 -19t-138 6.5t-147 21.5q-2 0 -66.5 12
t-81.5 14.5t-73.5 8t-85.5 3t-71.5 -10t-75.5 -23.5q-49 -23 -95 -66q-3 -3 -6.5 -2t-4 4t2.5 6q47 44 98 68q49 23 103 33t121.5 5.5t112 -11t126.5 -21.5q75 -13 114.5 -19t108 -11.5t114.5 -1t102 20.5t104 45q82 50 146 138zM140 523q-25 -55 -72 -194q103 17 190 125.5
t87 216.5q0 43 -15 57t-35.5 4.5t-45.5 -34.5q-54 -56 -109 -175zM-85 -216q-4 -28 3 -37.5t18.5 -1t21.5 27.5q37 83 -4 181q-33 -118 -39 -170zM-86 4q-10 11 -27.5 16t-32.5 -5q-8 -7 -7 -20t14 -18q20 -8 46 2z" />
    <glyph glyph-name="g.002" unicode="&#xe020;" horiz-adv-x="388" 
d="M-59 30q58 40 187 93q41 141 65 195q-22 -22 -66 -75t-73 -80q-19 -17 -35.5 -20.5t-26.5 4.5t-14 23q-10 43 4 91q-54 -65 -117 -104q-59 -37 -127 -56t-145 -19t-138 6.5t-147 21.5q-2 0 -66.5 12t-81.5 14.5t-73.5 8t-85.5 3t-71.5 -10t-75.5 -23.5q-49 -23 -95 -66
q-7 -6 -10 1q-1 4 2 7q47 44 98 68q49 23 103 33t121.5 5.5t112 -11t126.5 -21.5q75 -13 114.5 -19t108 -11.5t114.5 -1t102 20.5t104 45q80 48 143 134q21 37 54 57q36 22 71.5 15t65.5 -41l19 18q37 58 60 21q-40 -83 -79 -218q139 60 199 150q2 4 7 1.5t3 -6.5
q-63 -95 -213 -159q-2 -8 -12.5 -45.5l-14 -50t-14 -46.5t-17.5 -50t-19 -45.5t-23 -46.5t-25.5 -39.5t-31.5 -39.5t-36 -31q-32 -24 -71.5 -29t-71.5 15.5t-38 65.5q-10 67 29 130t101 106zM-27 -238q82 80 152 348q-123 -51 -177 -89q-60 -42 -98 -103t-28 -125
q7 -39 34.5 -55t60 -8t56.5 32zM48 171q27 25 69.5 77t64.5 74q-19 17 -34 25.5t-36 7.5t-39 -19q-26 -25 -43 -70.5t-17 -77.5q-2 -22 5.5 -28t29.5 11z" />
    <glyph glyph-name="h.002" unicode="&#xe021;" horiz-adv-x="395" 
d="M20 101q-40 9 -38 75q4 56 11 100q-59 -76 -129 -119q-59 -37 -127 -56t-145 -19t-138 6.5t-147 21.5q-2 0 -66.5 12t-81.5 14.5t-73.5 8t-85.5 3t-71.5 -10t-75.5 -23.5q-49 -23 -95 -66q-3 -3 -6.5 -2t-4 4t2.5 6q47 44 98 68q49 23 103 33t121.5 5.5t112 -11
t126.5 -21.5q75 -13 114.5 -19t108 -11.5t114.5 -1t102 20.5t104 45q80 48 143 134q25 127 81.5 242t134.5 179q44 36 85.5 43t64.5 -21.5t12 -89.5q-18 -103 -112 -205q-97 -103 -214 -148q-16 -63 -26 -170q59 99 108 148q38 36 64 33q20 -2 28 -27t1 -64
q-7 -37 -37 -116.5t-36 -125.5q-3 -21 1.5 -32.5t12.5 -11.5t17 5q26 19 59 70t56.5 96.5t55.5 112t42 84.5q1 2 4 2t5 -2t1 -5q-5 -9 -52.5 -109t-87 -165.5t-75.5 -95.5q-29 -25 -54 -17q-33 11 -35 65q-2 57 36.5 150.5t45.5 127.5q6 32 -3.5 40t-41.5 -23
q-51 -51 -118 -167zM266 711q-131 -110 -213 -400q112 45 202 143q90 95 109 199q12 66 -18.5 82.5t-79.5 -24.5z" />
    <glyph glyph-name="i.002" unicode="&#xe022;" horiz-adv-x="238" 
d="M0 302q20 25 49 3q-39 -111 -49 -180q-3 -15 -1.5 -27t5.5 -19.5t15 -4.5t28 18q98 84 191 208q2 3 5 2.5t4.5 -3t0.5 -4.5q-93 -123 -194 -211q-57 -51 -82 -7q-18 34 -8 110q6 39 17 73q-55 -65 -117 -103q-59 -37 -127 -56t-145 -19t-138 6.5t-147 21.5q-2 0 -66.5 12
t-81.5 14.5t-73.5 8t-85.5 3t-71.5 -10t-75.5 -23.5q-49 -23 -95 -66q-3 -3 -6.5 -2t-4 4t2.5 6q47 44 98 68q49 23 103 33t121.5 5.5t112 -11t126.5 -21.5q75 -13 114.5 -19t108 -11.5t114.5 -1t102 20.5t104 45q82 50 146 138zM43 338q-9 0 -15.5 6.5t-6.5 14.5
q0 9 6.5 15.5t15.5 6.5q8 0 14.5 -6.5t6.5 -15.5q0 -8 -6.5 -14.5t-14.5 -6.5z" />
    <glyph glyph-name="j.002" unicode="&#xe023;" horiz-adv-x="218" 
d="M-282 -94q30 31 72.5 63t70.5 50t82 51q26 141 43 196q-57 -70 -121 -109q-59 -37 -127 -56t-145 -19t-138 6.5t-147 21.5q-2 0 -66.5 12t-81.5 14.5t-73.5 8t-85.5 3t-71.5 -10t-75.5 -23.5q-49 -23 -95 -66q-7 -6 -10 1q-1 4 2 7q47 44 98 68q49 23 103 33t121.5 5.5
t112 -11t126.5 -21.5q75 -13 114.5 -19t108 -11.5t114.5 -1t102 20.5t104 45q80 48 143 134q19 34 55 6q-27 -69 -52 -200q150 91 217 196q2 2 4.5 2t4.5 -2.5t1 -4.5q-64 -101 -230 -205q-16 -85 -26 -128.5t-36 -110t-62 -114.5q-42 -55 -97 -87.5t-105 -1.5
q-52 33 -32 128q16 67 78 130zM-59 56q-150 -91 -215 -157q-60 -61 -75 -125q-9 -26 -3.5 -63.5t30.5 -53.5q43 -26 92.5 13.5t78.5 89.5q56 100 92 296zM44 338q-9 0 -15 6.5t-6 14.5q0 9 6 15.5t15 6.5t15 -6.5t6 -15.5q0 -8 -6 -14.5t-15 -6.5z" />
    <glyph glyph-name="k.002" unicode="&#xe024;" horiz-adv-x="351" 
d="M361 295l-31 -62t-36 -70.5t-33 -59.5t-41 -66q-2 -2 -9.5 -13t-11.5 -15.5l-12 -13.5t-14 -11.5t-14.5 -5t-17 1.5t-16.5 12q-14 20 -17.5 48.5t-0.5 52t-4 50.5t-27 46q-26 22 4 27q4 1 24.5 3t34.5 7t25 15q12 11 7 25t-23 12q-43 -4 -76 -47q-39 -51 -52 -130
q-43 8 -38 75q3 49 12 101q-62 -79 -130 -120q-59 -37 -127 -56t-145 -19t-138 6.5t-147 21.5q-2 0 -66.5 12t-81.5 14.5t-73.5 8t-85.5 3t-71.5 -10t-75.5 -23.5q-49 -23 -95 -66q-3 -3 -6.5 -2t-4 4t2.5 6q47 44 98 68q49 23 103 33t121.5 5.5t112 -11t126.5 -21.5
q75 -13 114.5 -19t108 -11.5t114.5 -1t102 20.5t104 45q79 46 145 136q25 127 80.5 241t133.5 178q43 36 85 43t65 -22t12 -89q-19 -107 -112 -205q-95 -102 -214 -148q-12 -48 -22 -130q14 38 37 69q37 48 83 53q31 4 42.5 -17t-11.5 -42q-18 -16 -84 -23q-7 -1 -9.5 -2
t-0.5 -2.5t8 -4.5q37 -16 50 -43t14 -70q0 -5 -3 -36.5t1 -36.5q8 -41 57 31q1 2 2 3q18 25 36.5 58t31 56.5t35.5 69.5t35 69q1 2 4 2t5 -2t1 -5zM266 711q-143 -120 -213 -400q112 45 202 143q90 97 109 199q12 66 -18.5 82.5t-79.5 -24.5z" />
    <glyph glyph-name="l.002" unicode="&#xe025;" horiz-adv-x="296" 
d="M36 52q-30 9 -43 45.5t-11 78.5q3 50 12 100q-60 -77 -130 -119q-59 -37 -127 -56t-145 -19t-138 6.5t-147 21.5q-2 0 -66.5 12t-81.5 14.5t-73.5 8t-85.5 3t-71.5 -10t-75.5 -23.5q-49 -23 -95 -66q-3 -3 -6.5 -2t-4 4t2.5 6q47 44 98 68q49 23 103 33t121.5 5.5
t112 -11t126.5 -21.5q75 -13 114.5 -19t108 -11.5t114.5 -1t102 20.5t104 45q80 48 143 134q25 127 81.5 242t134.5 179q44 36 85.5 43t64.5 -21.5t12 -89.5q-18 -103 -112 -205q-97 -103 -214 -148q-36 -136 -22 -196q8 -31 34 -34t57 24q104 92 178 208q2 3 5 2.5t4.5 -3
t0.5 -4.5q-73 -116 -182 -212q-48 -42 -88 -31zM266 711q-131 -110 -213 -400q112 45 202 143q90 95 109 199q12 66 -18.5 82.5t-79.5 -24.5z" />
    <glyph glyph-name="m.002" unicode="&#xe026;" horiz-adv-x="575" 
d="M0 302q20 25 51 3q-43 -90 -56 -147q-5 -20 2 -21.5t16 9.5q11 12 40 49.5t47 53.5q31 27 57 21q24 -5 18 -39q-3 -15 -16 -49t-14 -38q-6 -23 5.5 -24t26.5 15q30 28 59.5 75t62.5 110.5t50 90.5q40 66 84 54q34 -8 39 -55q5 -51 -17 -113t-54.5 -130.5t-41.5 -111.5
q-4 -19 1.5 -35.5t17.5 -18.5q6 -1 13 1t14 7.5t13.5 12t14 16t13 17.5t12 19t10.5 17.5t9 15.5t6 11q19 34 50.5 98t41.5 84q1 2 4 2t5 -2t1 -5q-11 -20 -42 -84.5t-50 -98.5q-1 -2 -8 -14t-10 -17.5t-10.5 -18t-13 -19.5t-14 -18t-15.5 -17.5t-16 -13.5t-18 -10t-18 -4
q-19 -2 -34.5 11.5t-20.5 38.5q-5 21 -0.5 47t12.5 48.5t18 48.5l1.5 3t1 3t1.5 3q8 19 26 60.5t30.5 72.5t19.5 59q14 55 -11 67t-56 -37q-19 -31 -50 -91.5t-60.5 -108t-65.5 -83.5q-11 -11 -23.5 -18.5t-25 -10t-21.5 7t-10 31.5q0 13 4 29.5t9.5 34.5t6.5 21
q5 19 -2.5 22t-16.5 -6q-18 -16 -47.5 -52.5t-34.5 -42.5q-17 -19 -32 -23.5t-23 8.5q-20 37 14 137q-56 -66 -116 -103q-59 -37 -127 -56t-145 -19t-138 6.5t-147 21.5q-2 0 -66.5 12t-81.5 14.5t-73.5 8t-85.5 3t-71.5 -10t-75.5 -23.5q-49 -23 -95 -66q-3 -3 -6.5 -2
t-4 4t2.5 6q47 44 98 68q49 23 103 33t121.5 5.5t112 -11t126.5 -21.5q75 -13 114.5 -19t108 -11.5t114.5 -1t102 20.5t104 45q82 50 146 138z" />
    <glyph glyph-name="n.002" unicode="&#xe027;" horiz-adv-x="386" 
d="M0 302q20 25 50 3q-3 -7 -15 -34.5t-23.5 -56.5t-15.5 -49q-2 -11 0.5 -14.5t7.5 -0.5t11 9q26 28 45 61q17 29 49.5 95.5t50.5 95.5q14 22 34 39q32 25 58.5 12t30.5 -52q5 -49 -13 -102.5t-49 -115.5t-42 -99q-22 -69 8 -74q37 -5 74 51q21 31 42 69.5t46.5 89
t36.5 71.5q2 4 7 2t3 -7q-12 -22 -38 -72.5t-47 -89t-42 -70.5q-46 -71 -95 -64q-65 12 -37 123q11 45 50 127t50 126q14 55 -11.5 67t-56.5 -37q-20 -31 -52 -97.5t-49 -94.5q-28 -46 -53 -72q-28 -27 -41.5 -17t-11.5 44q1 44 18 92q-56 -66 -116 -103q-59 -37 -127 -56
t-145 -19t-138 6.5t-147 21.5q-2 0 -66.5 12t-81.5 14.5t-73.5 8t-85.5 3t-71.5 -10t-75.5 -23.5q-49 -23 -95 -66q-3 -3 -6.5 -2t-4 4t2.5 6q47 44 98 68q49 23 103 33t121.5 5.5t112 -11t126.5 -21.5q75 -13 114.5 -19t108 -11.5t114.5 -1t102 20.5t104 45q82 50 146 138z
" />
    <glyph glyph-name="o.002" unicode="&#xe028;" horiz-adv-x="281" 
d="M0 302q2 2 4 3t4.5 1t4.5 -0.5t4.5 -2.5t4.5 -3t5 -4l4.5 -4.5l4.5 -4.5l4 -4q-17 -26 -30 -69t-7 -75q9 -44 48 -39q34 4 60 40.5t38 76.5q-42 9 -83 49.5t-50 85.5q-6 26 3 50t27 37q35 22 67 5t47 -53q27 -67 2 -165q71 -10 119 74q3 4 7.5 1.5t2.5 -6.5
q-51 -91 -132 -80q-12 -44 -39.5 -82.5t-66.5 -43.5q-23 -4 -44 9t-32 39q-22 50 2 121q-54 -63 -115 -101q-59 -37 -127 -56t-145 -19t-138 6.5t-147 21.5q-2 0 -66.5 12t-81.5 14.5t-73.5 8t-85.5 3t-71.5 -10t-75.5 -23.5q-49 -23 -95 -66q-3 -3 -6.5 -2t-4 4t2.5 6
q47 44 98 68q49 23 103 33t121.5 5.5t112 -11t126.5 -21.5q75 -13 114.5 -19t108 -11.5t114.5 -1t102 20.5t104 45q82 50 146 138zM41 357q1 -42 35.5 -81t75.5 -48q23 94 -1 156q-14 35 -41.5 44t-48.5 -11.5t-20 -59.5z" />
    <glyph glyph-name="p.002" unicode="&#xe029;" horiz-adv-x="367" 
d="M-42 -188q-2 -9 -6.5 -22t-11.5 -30.5t-15.5 -29t-16.5 -10.5q-20 3 -18 60q3 164 101 493q-59 -74 -127 -116q-59 -37 -127 -56t-145 -19t-138 6.5t-147 21.5q-2 0 -66.5 12t-81.5 14.5t-73.5 8t-85.5 3t-71.5 -10t-75.5 -23.5q-49 -23 -95 -66q-3 -3 -6.5 -2t-4 4
t2.5 6q47 44 98 68q49 23 103 33t121.5 5.5t112 -11t126.5 -21.5q75 -13 114.5 -19t108 -11.5t114.5 -1t102 20.5t104 45q81 50 146 137q15 52 44 84q9 9 19.5 7.5t19.5 -12.5q-10 -36 -68 -227.5t-80 -304.5q-16 -95 -3 -71q6 10 15 40q10 31 36 123t43.5 145.5t50 129
t68.5 130.5q28 41 57.5 43t46.5 -45q18 -56 -2 -125q82 29 120 82q2 3 5 2.5t4.5 -3t0.5 -4.5q-39 -57 -134 -90q-26 -83 -87 -122q-32 -21 -48 0t0 50q13 24 42.5 43.5t58.5 28.5q18 73 9 136q-4 28 -15.5 32.5t-24 -6t-25.5 -29.5q-30 -45 -54 -92.5t-44.5 -107
t-32.5 -98.5t-33 -116.5t-31 -111.5zM147 93q40 28 59 100q-24 -8 -49.5 -25.5t-37.5 -37.5q-13 -22 -5 -37.5t33 0.5z" />
    <glyph glyph-name="q.002" unicode="&#xe02a;" horiz-adv-x="347" 
d="M76 222q-54 -56 -74 -18q-14 26 -7 73q-60 -77 -130 -120q-59 -37 -127 -56t-145 -19t-138 6.5t-147 21.5q-2 0 -66.5 12t-81.5 14.5t-73.5 8t-85.5 3t-71.5 -10t-75.5 -23.5q-49 -23 -95 -66q-7 -6 -10 1q-1 4 2 7q47 44 98 68q49 23 103 33t121.5 5.5t112 -11
t126.5 -21.5q75 -13 114.5 -19t108 -11.5t114.5 -1t102 20.5t104 45q84 51 145 136q7 28 25 54q23 34 59 39.5t62 -27.5q10 -15 13 -31l27 31q13 13 18 15t25 -5q-21 -48 -36 -92t-31.5 -99t-27.5 -88q64 19 119.5 75.5t93.5 127.5q1 2 4 2t5 -2t1 -5q-41 -74 -99 -132.5
t-128 -78.5l-1 -3q38 -46 56.5 -110t5.5 -121q-9 -40 -34.5 -61t-53 -8.5t-40.5 58.5q-14 48 -2 135q6 48 20 107q-44 6 -65 30q-15 19 -4.5 32.5t32.5 8.5q24 -5 48 -28q38 135 66 193q-12 -13 -38.5 -45.5t-43.5 -49.5zM91 -159q4 -49 33 -49q27 0 47 36q7 12 10 26
q12 51 -4 109t-51 105q-41 -138 -35 -227zM59 342q-51 -70 -44 -130q3 -33 53 17q16 16 43.5 49l37.5 45q0 20 -13 38q-12 15 -27 15t-27 -9.5t-23 -24.5zM83 91l6 21q-20 20 -42 27q-13 5 -20 -4t3 -20q15 -18 53 -24z" />
    <glyph glyph-name="r.002" unicode="&#xe02b;" horiz-adv-x="248" 
d="M43 272q-21 4 -40 14q-63 -84 -137 -129q-59 -37 -127 -56t-145 -19t-138 6.5t-147 21.5q-2 0 -66.5 12t-81.5 14.5t-73.5 8t-85.5 3t-71.5 -10t-75.5 -23.5q-49 -23 -95 -66q-3 -3 -6.5 -2t-4 4t2.5 6q47 44 98 68q49 23 103 33t121.5 5.5t112 -11t126.5 -21.5
q75 -13 114.5 -19t108 -11.5t114.5 -1t102 20.5t104 45q76 46 138 127q-45 27 -62 71.5t6 93.5q16 30 47 34.5t50 -23.5q37 -59 -23 -169q18 -12 51 -19q20 -4 22.5 -11.5t-6.5 -24.5q-54 -123 -68 -193q-5 -25 1 -34.5t20 -3.5t31 23q36 34 72 84t56 83t57 98q3 4 7.5 1.5
t2.5 -6.5q-98 -178 -187 -270q-20 -20 -40 -28.5t-35.5 3.5t-15.5 49q-3 101 63 223zM-39 446q-19 -37 -6.5 -78.5t47.5 -63.5q58 98 25 155q-15 21 -34.5 14.5t-31.5 -27.5z" />
    <glyph glyph-name="s.002" unicode="&#xe02c;" horiz-adv-x="234" 
d="M31 -5q-25 -18 -55 -20t-51 17t-17 56q5 44 41 71.5t95 51.5q-6 19 -21.5 57.5t-21.5 58.5q-60 -83 -137 -130q-59 -37 -127 -56t-145 -19t-138 6.5t-147 21.5q-2 0 -66.5 12t-81.5 14.5t-73.5 8t-85.5 3t-71.5 -10t-75.5 -23.5q-49 -23 -95 -66q-3 -3 -6.5 -2t-4 4
t2.5 6q47 44 98 68q49 23 103 33t121.5 5.5t112 -11t126.5 -21.5q75 -13 114.5 -19t108 -11.5t114.5 -1t102 20.5t104 45q79 46 145 136q-18 71 18 115q23 28 62 25.5t53 -39.5q11 -26 0 -52q-1 -4 -6 -3.5t-4 5.5q9 24 -1 41q-9 19 -31 17t-34 -21q-17 -24 -10 -62
q5 -29 20.5 -78.5t18.5 -62.5q92 33 149 115q2 3 5 2.5t4.5 -3t0.5 -4.5q-62 -88 -157 -120q11 -52 -3.5 -102.5t-52.5 -77.5zM48 159q-120 -40 -129 -111q-6 -46 30.5 -57.5t69.5 17.5q28 24 35.5 69.5t-6.5 81.5z" />
    <glyph glyph-name="t.002" unicode="&#xe02d;" horiz-adv-x="245" 
d="M255 295q-94 -180 -176 -238q-34 -28 -72 -22t-44 56q-8 70 27 181q-59 -74 -126 -115q-59 -37 -127 -56t-145 -19t-138 6.5t-147 21.5q-2 0 -66.5 12t-81.5 14.5t-73.5 8t-85.5 3t-71.5 -10t-75.5 -23.5q-49 -23 -95 -66q-3 -3 -6.5 -2t-4 4t2.5 6q47 44 98 68
q49 23 103 33t121.5 5.5t112 -11t126.5 -21.5q75 -13 114.5 -19t108 -11.5t114.5 -1t102 20.5t104 45q82 50 145 137q2 6 32 84q32 78 74 168q-58 -4 -93 6q-7 2 -3 8q3 4 6 2q36 -9 95 -5q30 63 65 107q6 7 13.5 7t12.5 -2.5t16 -8.5q-18 -26 -51 -100q57 4 89 -6
q4 -1 3.5 -6t-6.5 -5q-32 10 -92 6q-39 -84 -79 -189q-1 -1 -9.5 -24.5t-11 -29.5t-10.5 -28.5t-11 -32.5t-9.5 -30.5t-9.5 -33.5t-6.5 -30t-5 -31.5t-1.5 -27.5q-1 -35 17 -43.5t48 10.5q32 20 72.5 73.5t62.5 91t38 69.5q2 4 7 2t3 -7z" />
    <glyph glyph-name="u.002" unicode="&#xe02e;" 
d="M15 131q-42 -29 -50.5 17.5t4.5 75.5l9 32q-55 -64 -113 -99q-59 -37 -127 -56t-145 -19t-138 6.5t-147 21.5q-2 0 -66.5 12t-81.5 14.5t-73.5 8t-85.5 3t-71.5 -10t-75.5 -23.5q-49 -23 -95 -66q-7 -6 -10 1q-1 4 2 7q47 44 98 68q49 23 103 33t121.5 5.5t112 -11
t126.5 -21.5q75 -13 114.5 -19t108 -11.5t114.5 -1t102 20.5t104 45q76 45 136 124q23 44 60 16q-44 -97 -51 -125q-12 -47 3 -43q3 1 6 3q30 20 57 47.5t60 67.5t50 58q8 12 12 16q11 11 35 -3q-2 -6 -7.5 -18.5t-7.5 -16.5q-67 -162 -81 -237q-12 -69 8 -65q10 2 28 21
q36 39 70.5 86t77.5 112.5t62 92.5q2 2 4.5 2t4.5 -2.5t1 -4.5q-22 -31 -63.5 -95t-77 -112.5t-72.5 -87.5q-36 -36 -56.5 -18.5t-18.5 69.5q1 39 10 84.5t16 64.5q11 33 25 61q-84 -98 -131 -130z" />
    <glyph glyph-name="v.002" unicode="&#xe02f;" horiz-adv-x="317" 
d="M0 302q10 22 23 40q15 21 45 7q-54 -144 -50 -244q3 -61 44 -2q18 26 40.5 73t38.5 86l16 38q6 13 12 14.5t18 -8.5q18 -14 41.5 -22.5t49 -6t39.5 22.5q2 3 5 2.5t4.5 -3t0.5 -4.5q-15 -23 -43.5 -27.5t-55.5 5t-48 25.5q-6 5 -8 5t-6 -8q0 -1 -7.5 -19t-17.5 -41
t-22.5 -49.5t-27 -53t-27.5 -44.5q-23 -32 -43.5 -34t-34.5 33q-12 39 -10 89t14 95q-60 -73 -126 -114q-59 -37 -127 -56t-145 -19t-138 6.5t-147 21.5q-2 0 -66.5 12t-81.5 14.5t-73.5 8t-85.5 3t-71.5 -10t-75.5 -23.5q-49 -23 -95 -66q-3 -3 -6.5 -2t-4 4t2.5 6
q47 44 98 68q49 23 103 33t121.5 5.5t112 -11t126.5 -21.5q75 -13 114.5 -19t108 -11.5t114.5 -1t102 20.5t104 45q82 50 146 138z" />
    <glyph glyph-name="w.002" unicode="&#xe030;" horiz-adv-x="477" 
d="M38 126q-17 -16 -31.5 -21.5t-26.5 2t-19 28.5q-15 46 8 112q-47 -54 -105 -90q-59 -37 -127 -56t-145 -19t-138 6.5t-147 21.5q-2 0 -66.5 12t-81.5 14.5t-73.5 8t-85.5 3t-71.5 -10t-75.5 -23.5q-49 -23 -95 -66q-3 -3 -6.5 -2t-4 4t2.5 6q47 44 98 68q49 23 103 33
t121.5 5.5t112 -11t126.5 -21.5q75 -13 114.5 -19t108 -11.5t114.5 -1t102 20.5t104 45q74 45 132 120q30 46 64 20q-57 -97 -57 -165q0 -41 40 -4q30 29 85 106t74 98v1q14 14 41 1q-4 -15 -14 -46t-18.5 -58t-17 -61.5t-13 -63t-3.5 -56t10 -45.5q10 -21 25.5 -27t33.5 8
q40 36 59 124.5t14 152.5q-1 10 -1 18t2 13t8 4.5t16 -7.5q20 -15 46.5 -22.5t54 -2t42.5 27.5q2 2 5 2t4.5 -2.5t0.5 -4.5q-23 -34 -71 -35.5t-84 24.5q-11 7 -12.5 2.5t0.5 -15.5q5 -70 -15 -160.5t-64 -128.5q-21 -18 -44.5 -13.5t-40.5 29.5q-50 75 -10 240q8 31 11 40
q-89 -123 -119 -152z" />
    <glyph glyph-name="x.002" unicode="&#xe031;" horiz-adv-x="361" 
d="M-44 -31q-4 -4 -7.5 -1.5t-1.5 7.5q20 28 52 87q42 76 75 127q-8 94 -17 110q-4 6 -9 10q-17 11 -43 -19q-54 -63 -100 -102.5t-106 -65.5q-71 -30 -160.5 -37t-159.5 0t-170 25q-2 0 -66.5 12t-81.5 14.5t-73.5 8t-85.5 3t-71.5 -10t-75.5 -23.5q-49 -23 -95 -66
q-3 -3 -6.5 -2t-4 4t2.5 6q47 44 98 68q49 23 103 33t121.5 5.5t112 -11t126.5 -21.5q83 -15 127.5 -21t114.5 -11t128 4t112 31q112 48 202 166q24 31 50 39q18 5 35 -3.5t27 -26.5q13 -24 15 -52q83 98 163 97q3 0 4.5 -2.5t0 -5.5t-5.5 -3q-78 1 -160 -100
q2 -23 0.5 -77.5t1.5 -79.5q0 -2 1 -8.5t1.5 -9t2 -7.5t2.5 -7t3 -4.5t5 -2.5t6.5 1t8 4.5t10.5 9.5q44 44 102.5 116.5t90.5 122.5q2 3 4.5 2.5t4.5 -3t1 -4.5q-32 -52 -92 -126.5t-104 -117.5q-56 -56 -84 33q-10 30 -15 88q-20 -30 -67 -115q-36 -63 -53 -88z" />
    <glyph glyph-name="y.002" unicode="&#xe032;" horiz-adv-x="379" 
d="M-68 30q58 40 187 93q33 129 54 177q-6 -7 -23 -29t-24.5 -31.5t-22.5 -27.5t-25 -28t-23 -21.5t-24 -19.5q-50 -35 -60 26q-7 39 10 91q-56 -66 -116 -103q-59 -37 -127 -56t-145 -19t-138 6.5t-147 21.5q-2 0 -66.5 12t-81.5 14.5t-73.5 8t-85.5 3t-71.5 -10
t-75.5 -23.5q-49 -23 -95 -66q-7 -6 -10 1q-1 4 2 7q47 44 98 68q49 23 103 33t121.5 5.5t112 -11t126.5 -21.5q75 -13 114.5 -19t108 -11.5t114.5 -1t102 20.5t104 45q79 48 143 133q22 35 56 10q-36 -67 -45 -123q-6 -38 9 -35q3 0 7 3q26 18 56.5 51.5t68.5 82.5t53 67
q12 12 16 15q20 15 34 -10q-11 -20 -19 -38.5t-16 -41.5t-12 -36t-13 -45.5t-13 -46.5q139 60 199 150q2 4 7 2t3 -7q-63 -95 -213 -159q-2 -9 -12.5 -45.5t-14.5 -49.5t-14.5 -47t-17.5 -50t-19 -45t-23 -46.5t-26 -39.5t-31.5 -39.5t-35.5 -31.5q-32 -24 -71 -29t-71 16
t-38 65q-9 67 29.5 129.5t100.5 106.5zM-36 -238q86 85 151 348q-124 -52 -177 -89q-60 -42 -97.5 -103t-27.5 -125q6 -39 33.5 -55t60 -8t57.5 32z" />
    <glyph glyph-name="z.002" unicode="&#xe033;" horiz-adv-x="323" 
d="M-210 131q19 8 36 17.5t29.5 16.5t29.5 21.5t24.5 21t25.5 26t22.5 24.5t25.5 30t26 30q47 56 96 56q21 0 36.5 -12.5t14.5 -37.5q0 -15 -8.5 -29.5t-16.5 -21.5t-27 -20t-25 -18q46 -5 68.5 -23t33.5 -56q99 71 142 144q2 4 6.5 1.5t3.5 -6.5q-43 -74 -149 -150
q16 -116 -52.5 -252t-173.5 -177q-47 -18 -87.5 2.5t-43.5 75.5q-3 59 36 116q15 23 37.5 45.5t42.5 39.5t50 38.5t48.5 33t51 32t44.5 27.5q-3 44 -16.5 65.5t-49.5 30.5q-18 5 -5 21q5 6 22 21t24.5 27.5t4.5 28.5q-3 20 -21.5 23.5t-33.5 -5.5q-24 -11 -44 -33
q-5 -5 -38.5 -41.5t-44 -46t-38 -34t-51.5 -38t-53 -25.5q-70 -28 -159 -34.5t-157.5 0.5t-168.5 24q-2 0 -66.5 12t-81.5 14.5t-73.5 8t-85.5 3t-71.5 -10t-75.5 -23.5q-49 -23 -95 -66q-7 -6 -10 1q-1 4 2 7q47 44 98 68q49 23 103 33t121.5 5.5t112 -11t126.5 -21.5
q83 -15 126.5 -21t113.5 -11.5t127.5 3.5t110.5 30zM-47 -269q78 39 134.5 163.5t50.5 219.5q-9 -6 -48.5 -30t-61 -39t-55 -39.5t-58.5 -50t-43 -52.5q-38 -58 -34 -108q3 -47 37 -66.5t78 2.5z" />
    <glyph glyph-name="a.003" unicode="&#xe114;" 
d="M163 288q-63 -82 -90 -108q-53 -53 -80 -18q-31 43 -3 118q15 42 48.5 71t75 28t71.5 -43q27 38 41 44q18 9 34 -9q-76 -138 -85 -230q-3 -34 7.5 -45t28.5 -2t40 32q66 69 122 174q2 4 7 2t3 -7q-64 -117 -123 -179q-25 -26 -48.5 -37t-43.5 0t-27 49q-14 75 22 160z
M14 189q0 -16 5 -22t13.5 -3t17.5 9.5t18 15.5q32 33 91 112l21 28q-42 44 -78.5 22.5t-61 -71t-26.5 -91.5z" />
    <glyph glyph-name="b.003" unicode="&#xe115;" horiz-adv-x="370" 
d="M-11 194q0 90 43 228q-21 1 -43 4.5t-39 6.5t-41.5 11.5t-37.5 12t-40.5 16t-36.5 16t-40 19.5t-37 19t-41.5 22t-39.5 21q-94 50 -172.5 75t-164.5 20q-133 -15 -220 -113q-4 -4 -7.5 -0.5t-0.5 7.5q89 101 225 117q81 8 161.5 -12t149 -55.5t134.5 -72.5t143.5 -67.5
t151.5 -35.5q29 82 78 162t126 149.5t158 88.5q57 13 95 -10t28 -80q-12 -72 -71.5 -136t-133.5 -107q-111 -65 -227 -77q-42 -121 -60 -251q44 91 105 152q27 26 52.5 33.5t43 -4t21.5 -37.5q7 -44 -9 -95q101 33 128 79q2 3 5 2.5t4.5 -3t0.5 -4.5q-31 -52 -143 -87
q-21 -54 -60.5 -105t-85.5 -73q-35 -17 -58 -7t-21.5 37t23.5 60q24 32 59.5 49.5t96.5 35.5q22 62 16 109q-2 16 -9.5 22.5t-17.5 3.5t-19.5 -9t-19.5 -15q-48 -47 -91 -127q-12 -23 -25 -55q-36 7 -36 60zM134 531q-25 -51 -41 -96q110 12 217 75q73 42 130.5 103.5
t69.5 130.5q9 52 -24.5 71t-83.5 3q-80 -26 -150.5 -110t-117.5 -177zM83 42q57 35 103 150q-56 -17 -88.5 -33t-54.5 -46q-19 -25 -20.5 -49.5t14 -31.5t46.5 10z" />
    <glyph glyph-name="c.003" unicode="&#xe116;" horiz-adv-x="261" 
d="M-10 54q-35 13 -36.5 66t13.5 101t32 80q24 43 56 68q20 15 43 17.5t40.5 -10.5t19.5 -39q0 -2 -3 -3t-5.5 -0.5t-2.5 2.5q-2 31 -22.5 34.5t-39.5 -16.5q-55 -55 -84 -202q-13 -68 20.5 -78t84.5 35q16 14 33.5 32.5t37 44t29.5 38.5t32 44t23 32q4 5 9 0q3 -3 1 -5
q-3 -4 -24 -33.5t-32 -44t-31 -39.5t-37.5 -44t-34.5 -34q-74 -64 -122 -46z" />
    <glyph glyph-name="d.003" unicode="&#xe117;" horiz-adv-x="403" 
d="M264 423q-70 -198 -86 -332q-3 -32 7 -41t37 12q92 78 181 238q2 4 6.5 1.5t3.5 -6.5q-87 -154 -183 -246q-46 -44 -74 -9q-41 51 0 218q-75 -98 -108 -135q-30 -29 -52 -14.5t-26 52.5q-7 55 18 115t65 91q18 14 37.5 20t39.5 -0.5t32 -28.5q6 -10 13 -32q16 52 32 96
q-21 1 -43 4.5t-39 6.5t-41.5 11.5t-37.5 12t-40.5 16t-36.5 16t-40 19.5t-37 19t-41.5 22t-39.5 21q-94 50 -172.5 75t-164.5 20q-133 -15 -220 -113q-4 -4 -7.5 -0.5t-0.5 7.5q89 101 225 117q81 8 161.5 -12t149 -55.5t134.5 -72.5t143.5 -67.5t151.5 -35.5q29 82 78 162
t126 149.5t158 88.5q57 13 95 -10t28 -80q-12 -72 -71.5 -136t-133.5 -107q-111 -65 -227 -77zM309 531q-25 -51 -41 -96q110 12 217 75q73 42 130.5 103.5t69.5 130.5q9 52 -24.5 71t-83.5 3q-80 -26 -150.5 -110t-117.5 -177zM10 165q-1 -10 0 -20t3 -17.5t9.5 -6.5
t18.5 13q20 20 40 45t45 57.5t37 48.5q4 15 5 19q-4 27 -15 49q-24 41 -61 4q-35 -35 -57.5 -87.5t-24.5 -104.5z" />
    <glyph glyph-name="e.003" unicode="&#xe118;" horiz-adv-x="244" 
d="M254 295q-20 -36 -72 -108t-103 -113q-28 -23 -51.5 -29t-42.5 7.5t-27 47.5q-10 39 -1 93t35 98q38 65 85 83q37 14 56.5 -8t-1.5 -56q-16 -25 -42 -37t-65 -21q-17 -21 -28 -90q-15 -97 23 -100q20 -2 52 25q32 26 74 78.5t64.5 84.5t33.5 50q2 3 5 3t4.5 -2.5
t0.5 -5.5zM30 264q76 20 94 56q10 21 0 33.5t-33 -0.5q-9 -6 -17.5 -14t-16 -20.5t-11 -19t-10.5 -21.5z" />
    <glyph glyph-name="f.003" unicode="&#xe119;" horiz-adv-x="302" 
d="M44 433q26 66 58.5 125t77 118t103.5 100.5t124 56.5q57 13 95 -10t28 -80q-12 -72 -71.5 -136t-133.5 -107q-111 -65 -227 -77q-33 -93 -132 -428q42 15 83.5 41.5t71.5 52t67 68t57.5 69t56.5 74.5q2 3 5 2.5t4.5 -3t0.5 -4.5q-36 -48 -58.5 -77t-60 -71t-69.5 -69
t-74.5 -53.5t-86.5 -41.5l-4 -14q23 -40 27 -97t-16 -105q-10 -26 -29.5 -40t-38.5 -5.5t-24 44.5q-11 75 26 202q-25 -8 -48 -2q-21 6 -24.5 27t13.5 33q18 11 38.5 6.5t33.5 -17.5q13 43 36.5 127.5t44 152.5t42.5 127q-21 1 -42.5 4.5t-38.5 6.5t-41.5 11.5t-37.5 12
t-40 16t-36.5 16.5t-40.5 19.5t-37.5 19t-41 22t-39.5 20.5q-94 50 -172.5 75t-164.5 20q-133 -15 -220 -113q-4 -4 -7.5 -0.5t-0.5 7.5q89 101 225 117q81 8 161.5 -12t149 -55.5t134 -72.5t143 -67.5t151.5 -35.5zM411 818q-176 -57 -308 -383q109 12 216 75
q73 42 130.5 103.5t69.5 130.5q9 52 -24.5 71t-83.5 3zM-85 -216q-4 -28 3 -37.5t18.5 -1t21.5 27.5q37 83 -4 181q-33 -118 -39 -170zM-86 4q-10 11 -27.5 16t-32.5 -5q-8 -7 -7 -20t14 -18q20 -8 46 2z" />
    <glyph glyph-name="g.003" unicode="&#xe11a;" horiz-adv-x="318" 
d="M-321 -474q70 2 133 39t107 90t80 123q49 95 113 295t81 245q-22 -22 -66 -75t-73 -80q-19 -17 -35.5 -20.5t-26.5 4.5t-14 23q-12 50 8.5 103.5t65.5 81.5q36 22 71.5 15t65.5 -41l19 18q37 58 60 21q-33 -73 -70 -192.5t-76 -230t-85 -188.5q-62 -105 -152 -172
t-204 -70q-61 -1 -111 24.5t-75 68t-27.5 97t29.5 110.5q-5 1 -49.5 13t-53.5 14t-49 12t-53.5 12t-49.5 9.5t-54 8.5t-50 4.5t-54.5 3t-50.5 -2t-54 -5.5q-214 -31 -395 -218q-2 -2 -5 -1.5t-4 3.5t1 6q189 194 396 229q33 5 69 6.5t63 2t71.5 -6t63 -8.5t71 -14
t63.5 -14.5t71 -18.5t65 -17q50 65 130.5 101.5t170.5 27.5q42 -4 81 -22t55 -49q15 -34 0 -65t-48 -47q-19 -9 -43 -13.5t-45 -6.5t-53 1.5t-50.5 5.5t-54.5 10t-48 11t-47.5 12t-37.5 10q-33 -49 -35.5 -101.5t20.5 -93t70 -65.5t105 -23zM-179 -55q-80 8 -157 -23.5
t-132 -94.5q5 -1 38 -10t51.5 -13.5t54 -12.5t61.5 -11t56.5 -4.5t55.5 2.5t45 13q28 13 42.5 39.5t0.5 55.5q-26 50 -116 59zM48 171q27 25 69.5 77t64.5 74q-19 17 -34 25.5t-36 7.5t-39 -19q-26 -25 -43 -70.5t-17 -77.5q-2 -22 5.5 -28t29.5 11z" />
    <glyph glyph-name="h.003" unicode="&#xe11b;" horiz-adv-x="395" 
d="M87 423q-24 -67 -43.5 -151t-20.5 -144q59 99 108 148q38 36 64 33q20 -2 28 -27t1 -64q-7 -37 -37 -116.5t-36 -125.5q-3 -21 1.5 -32.5t12.5 -11.5t17 5q26 19 59 70t56.5 96.5t55.5 112t42 84.5q1 2 4 2t5 -2t1 -5q-5 -9 -52.5 -109t-87 -165.5t-75.5 -95.5
q-29 -25 -54 -17q-33 11 -35 65q-2 57 36.5 150.5t45.5 127.5q6 32 -3.5 40t-41.5 -23q-51 -51 -118 -167q-40 9 -38 75q7 112 48 246q-21 1 -43 4.5t-39 6.5t-41.5 11.5t-37.5 12t-40.5 16t-36.5 16t-40 19.5t-37 19t-41.5 22t-39.5 21q-94 50 -172.5 75t-164.5 20
q-133 -15 -220 -113q-4 -4 -7.5 -0.5t-0.5 7.5q89 101 225 117q81 8 161.5 -12t149 -55.5t134.5 -72.5t143.5 -67.5t151.5 -35.5q29 82 78 162t126 149.5t158 88.5q57 13 95 -10t28 -80q-12 -72 -71.5 -136t-133.5 -107q-111 -65 -227 -77zM132 531q-25 -51 -41 -96
q110 12 217 75q73 42 130.5 103.5t69.5 130.5q9 52 -24.5 71t-83.5 3q-80 -26 -150.5 -110t-117.5 -177z" />
    <glyph glyph-name="i.003" unicode="&#xe11c;" horiz-adv-x="239" 
d="M44 338q-9 0 -15.5 6.5t-6.5 14.5q0 9 6.5 15.5t15.5 6.5q8 0 14.5 -6.5t6.5 -15.5q0 -8 -6.5 -14.5t-14.5 -6.5zM78 83q-81 -81 -110 -27q-16 39 -8 109.5t27 115.5q24 54 63 24q-43 -118 -54 -201q-6 -39 5 -49t28 0.5t41 34.5q46 46 169 210q2 3 5 2.5t4.5 -3
t0.5 -4.5q-9 -12 -38 -50.5t-44.5 -59t-41 -50.5t-47.5 -52z" />
    <glyph glyph-name="j.003" unicode="&#xe11d;" horiz-adv-x="135" 
d="M53 304q-9 -27 -56.5 -195t-83.5 -252q-28 -65 -65 -121.5t-86.5 -107.5t-115.5 -81t-139 -32q-61 -1 -111 24.5t-75 68t-27.5 97t29.5 110.5q-5 1 -49.5 13t-53.5 14t-49 12t-53.5 12t-49.5 9.5t-54 8.5t-50 4.5t-54.5 3t-50.5 -2t-54 -5.5q-214 -31 -395 -218
q-2 -2 -5 -1.5t-4 3.5t1 6q189 194 396 229q33 5 69 6.5t63 2t71.5 -6t63 -8.5t71 -14t63.5 -14.5t71 -18.5t65 -17q50 65 130.5 101.5t170.5 27.5q42 -4 81 -22t55 -49q15 -34 0 -65t-48 -47q-19 -9 -43 -13.5t-45 -6.5t-53 1.5t-50.5 5.5t-54.5 10t-48 11t-47.5 12
t-37.5 10q-33 -49 -35.5 -101.5t20.5 -93t70 -65.5t105 -23q53 2 102 23t86.5 54t71 78.5t57.5 91.5t44 97q29 75 69 218.5t57 195.5q8 25 25 30t36 -10zM-353 -55q-80 8 -157 -23.5t-132 -94.5q5 -1 38 -10t51.5 -13.5t54 -12.5t61.5 -11t56.5 -4.5t55.5 2.5t45 13
q28 13 42.5 39.5t0.5 55.5q-26 50 -116 59zM44 338q-9 0 -15 6.5t-6 14.5q0 9 6 15.5t15 6.5t15 -6.5t6 -15.5q0 -8 -6 -14.5t-15 -6.5z" />
    <glyph glyph-name="k.003" unicode="&#xe11e;" horiz-adv-x="351" 
d="M87 423q-44 -122 -60 -255q14 38 37 69q37 48 83 53q31 4 42.5 -17t-11.5 -42q-18 -16 -84 -23q-7 -1 -9.5 -2t-0.5 -2.5t8 -4.5q37 -16 50 -43t14 -70q0 -5 -3 -36.5t1 -36.5q8 -41 57 31q1 2 2 3q18 25 36.5 58t31 56.5t35.5 69.5t35 69q1 2 4 2t5 -2t1 -5l-31 -62
t-36 -70.5t-33 -59.5t-41 -66q-2 -2 -9.5 -13t-11.5 -15.5l-12 -13.5t-14 -11.5t-14.5 -5t-17 1.5t-16.5 12q-14 20 -17.5 48.5t-0.5 52t-4 50.5t-27 46q-26 22 4 27q4 1 24.5 3t34.5 7t25 15q12 11 7 25t-23 12q-43 -4 -76 -47q-39 -51 -52 -130q-43 8 -38 75q7 113 48 246
q-21 1 -43 4.5t-39 6.5t-41.5 11.5t-37.5 12t-40.5 16t-36.5 16t-40 19.5t-37 19t-41.5 22t-39.5 21q-94 50 -172.5 75t-164.5 20q-133 -15 -220 -113q-4 -4 -7.5 -0.5t-0.5 7.5q89 101 225 117q81 8 161.5 -12t149 -55.5t134.5 -72.5t143.5 -67.5t151.5 -35.5q29 82 78 162
t126 149.5t158 88.5q57 13 95 -10t28 -80q-12 -72 -71.5 -136t-133.5 -107q-111 -65 -227 -77zM132 531q-25 -51 -41 -96q110 12 217 75q73 42 130.5 103.5t69.5 130.5q9 52 -24.5 71t-83.5 3q-80 -26 -150.5 -110t-117.5 -177z" />
    <glyph glyph-name="l.003" unicode="&#xe11f;" horiz-adv-x="296" 
d="M87 423q-82 -232 -60 -321q8 -31 34 -34t57 24q104 92 178 208q2 3 5 2.5t4.5 -3t0.5 -4.5q-73 -116 -182 -212q-48 -42 -88 -31q-30 9 -43 45.5t-11 78.5q8 124 48 246q-21 1 -43 4.5t-39 6.5t-41.5 11.5t-37.5 12t-40.5 16t-36.5 16t-40 19.5t-37 19t-41.5 22t-39.5 21
q-94 50 -172.5 75t-164.5 20q-133 -15 -220 -113q-4 -4 -7.5 -0.5t-0.5 7.5q89 101 225 117q81 8 161.5 -12t149 -55.5t134.5 -72.5t143.5 -67.5t151.5 -35.5q29 82 78 162t126 149.5t158 88.5q57 13 95 -10t28 -80q-12 -72 -71.5 -136t-133.5 -107q-111 -65 -227 -77z
M132 531q-25 -51 -41 -96q110 12 217 75q73 42 130.5 103.5t69.5 130.5q9 52 -24.5 71t-83.5 3q-80 -26 -150.5 -110t-117.5 -177z" />
    <glyph glyph-name="m.003" unicode="&#xe120;" horiz-adv-x="575" 
d="M-34 123q-10 16 -6.5 47.5t11 59t17.5 51.5q24 54 63 24q-43 -90 -56 -147q-5 -20 2 -21.5t16 9.5q27 29 64 99.5t62 100.5q33 38 63 28q29 -10 15 -54q-9 -28 -40 -101t-32 -75q-6 -23 5.5 -24t26.5 15q30 28 59.5 75t62.5 110.5t50 90.5q40 66 84 54q34 -8 39 -55
q5 -51 -17 -113t-54.5 -130.5t-41.5 -111.5q-4 -19 1.5 -35.5t17.5 -18.5q6 -1 13 1t14 7.5t13.5 12t14 16t13 17.5t12 19t10.5 17.5t9 15.5t6 11q19 34 50.5 98t41.5 84q1 2 4 2t5 -2t1 -5q-11 -20 -42 -84.5t-50 -98.5q-1 -2 -8 -14t-10 -17.5t-10.5 -18t-13 -19.5
t-14 -18t-15.5 -17.5t-16 -13.5t-18 -10t-18 -4q-19 -2 -34.5 11.5t-20.5 38.5q-5 21 -0.5 47t12.5 48.5t18 48.5l1.5 3t1 3t1.5 3q8 19 26 60.5t30.5 72.5t19.5 59q14 55 -11 67t-56 -37q-19 -31 -50 -91.5t-60.5 -108t-65.5 -83.5q-16 -16 -35.5 -24.5t-31.5 -0.5
q-22 13 -6 65q9 30 34 92t26 67q5 19 -2.5 22t-16.5 -6q-25 -23 -66 -99t-63 -100q-17 -19 -32 -23.5t-23 8.5z" />
    <glyph glyph-name="o.003" unicode="&#xe121;" horiz-adv-x="281" 
d="M159 215q-29 -108 -91 -152q-61 -43 -97 11q-46 70 17 208q8 17 15.5 21.5t15 -0.5t21.5 -20q-27 -43 -46.5 -104t-2.5 -96q12 -24 33.5 -25t38.5 14q51 37 86 145q-42 9 -83 49.5t-50 85.5q-6 26 3 50t27 37q35 22 67 5t47 -53q27 -67 2 -165q71 -10 119 74q3 4 7.5 1.5
t2.5 -6.5q-51 -91 -132 -80zM41 357q1 -42 35.5 -81t75.5 -48q23 94 -1 156q-14 35 -41.5 44t-48.5 -11.5t-20 -59.5z" />
    <glyph glyph-name="r.003" unicode="&#xe122;" horiz-adv-x="248" 
d="M43 272q-37 8 -69.5 33.5t-39.5 62.5q-7 36 16.5 56t52 10t33.5 -46q6 -43 -24 -90q18 -12 51 -19q20 -4 22.5 -11.5t-6.5 -24.5q-54 -123 -68 -193q-5 -25 1 -34.5t20 -3.5t31 23q36 34 72 84t56 83t57 98q3 4 7.5 1.5t2.5 -6.5q-98 -178 -187 -270q-20 -20 -40 -28.5
t-35.5 3.5t-15.5 49q-3 101 63 223zM2 304q27 49 19 83q-5 20 -21 25.5t-30.5 -6.5t-14.5 -34q0 -35 47 -68z" />
    <glyph glyph-name="t.003" unicode="&#xe123;" horiz-adv-x="245" 
d="M-37 91q-19 145 171 519q-65 18 -100 27.5t-94.5 22.5t-100.5 14.5t-91 -0.5t-93.5 -17.5t-83.5 -41.5q-3 -2 -6 -0.5t-3 4t3 5.5q49 32 108 47t107 17t121 -10.5t115.5 -23.5t123.5 -34q15 25 35 50q2 3 4.5 4.5t4.5 2.5t5 0.5t5 -0.5t5.5 -1.5t5 -2.5t6 -3t5.5 -3
q-14 -22 -32 -60q63 -18 107.5 -28t101 -16.5t99 -1.5t88 22.5t82.5 50.5q2 2 4.5 0.5t3.5 -4t-1 -4.5q-38 -34 -85 -52.5t-90.5 -23.5t-101.5 2t-103 17t-110 28q-2 -4 -21 -45.5t-24.5 -54.5t-23.5 -53.5t-25.5 -61t-22 -58t-21.5 -62l-16 -56t-13 -57.5t-5 -50
q-1 -35 17 -43.5t48 10.5q32 20 72.5 73.5t62.5 91t38 69.5q2 4 7 2t3 -7q-94 -180 -176 -238q-34 -28 -72 -22t-44 56z" />
    <glyph glyph-name="u.003" unicode="&#xe124;" 
d="M15 131q-42 -29 -50.5 17.5t4.5 75.5q8 33 18 56q24 55 64 24q-44 -97 -51 -125q-12 -47 3 -43q3 1 6 3q30 20 57 47.5t60 67.5t50 58q8 12 12 16q11 11 35 -3q-2 -6 -7.5 -18.5t-7.5 -16.5q-43 -112 -46 -158q-2 -35 12.5 -46t47.5 12q29 23 59.5 61.5t46 63.5t45.5 77
q2 2 4.5 2t4.5 -2.5t1 -4.5q-87 -153 -153 -205q-33 -29 -65 -20.5t-38 58.5q-1 19 -1 30.5t3.5 31.5t6 29.5t6 24.5t4.5 17q-84 -98 -131 -130z" />
    <glyph glyph-name="y.003" unicode="&#xe125;" horiz-adv-x="313" 
d="M253 358q-40 -83 -102 -290.5t-122 -310.5q-61 -104 -151.5 -171.5t-204.5 -70.5q-61 -1 -111 24.5t-75 68t-27.5 97t29.5 110.5q-5 1 -49.5 13t-53.5 14t-49 12t-53.5 12t-49.5 9.5t-54 8.5t-50 4.5t-54.5 3t-50.5 -2t-54 -5.5q-214 -31 -395 -218q-2 -2 -5 -1.5t-4 3.5
t1 6q189 194 396 229q33 5 69 6.5t63 2t71.5 -6t63 -8.5t71 -14t63.5 -14.5t71 -18.5t65 -17q50 65 130.5 101.5t170.5 27.5q42 -4 81 -22t55 -49q15 -34 0 -65t-48 -47q-19 -9 -43 -13.5t-45 -6.5t-53 1.5t-50.5 5.5t-54.5 10t-48 11t-47.5 12t-37.5 10
q-33 -49 -35.5 -101.5t20.5 -93t70 -65.5t105 -23q103 3 184 73.5t136 178.5q37 73 67 159t63 196.5t52 166.5q-6 -7 -23 -29t-24.5 -31.5t-22.5 -27.5t-25 -28t-23 -21.5t-24 -19.5q-50 -35 -60 26q-9 48 19 114q24 55 64 24q-36 -67 -45 -123q-6 -38 9 -35q3 0 7 3
q26 18 56.5 51.5t68.5 82.5t53 67q12 12 16 15q20 15 34 -10zM-187 -55q-80 8 -157 -23.5t-132 -94.5q5 -1 38 -10t51.5 -13.5t54 -12.5t61.5 -11t56.5 -4.5t55.5 2.5t45 13q28 13 42.5 39.5t0.5 55.5q-26 50 -116 59z" />
    <glyph glyph-name="z.003" unicode="&#xe126;" horiz-adv-x="259" 
d="M79 235q54 -8 81 -39.5t27.5 -74.5t-7.5 -95q-16 -83 -54.5 -168.5t-96 -163t-140 -127.5t-173.5 -52q-61 -1 -111 24.5t-75 68t-27.5 97t29.5 110.5q-5 1 -49.5 13t-53.5 14t-49 12t-53.5 12t-49.5 9.5t-54 8.5t-50 4.5t-54.5 3t-50.5 -2t-54 -5.5q-214 -31 -395 -218
q-2 -2 -5 -1.5t-4 3.5t1 6q189 194 396 229q33 5 69 6.5t63 2t71.5 -6t63 -8.5t71 -14t63.5 -14.5t71 -18.5t65 -17q50 65 130.5 101.5t170.5 27.5q42 -4 81 -22t55 -49q15 -34 0 -65t-48 -47q-19 -9 -43 -13.5t-45 -6.5t-53 1.5t-50.5 5.5t-54.5 10t-48 11t-47.5 12
t-37.5 10q-33 -49 -35.5 -101.5t20.5 -93t70 -65.5t105 -23q84 3 157 51.5t124 125.5t85.5 161t53.5 172q35 163 -63 186q-18 5 -5 21q5 6 22 21t24.5 27.5t4.5 28.5q-3 20 -21.5 23.5t-33.5 -5.5q-29 -13 -52 -43q-2 -3 -6.5 -1t-3.5 6q14 27 42.5 50.5t62.5 23.5
q21 0 36.5 -12.5t14.5 -37.5q0 -15 -8.5 -29.5t-16.5 -21.5t-27 -20t-25 -18zM-144 -55q-80 8 -157 -23.5t-132 -94.5q5 -1 38 -10t51.5 -13.5t54 -12.5t61.5 -11t56.5 -4.5t55.5 2.5t45 13q28 13 42.5 39.5t0.5 55.5q-26 50 -116 59z" />
    <glyph glyph-name="b.004" unicode="&#xe127;" horiz-adv-x="370" 
d="M154 555q-41 -73 -76 -178.5t-49 -204.5q44 91 105 152q27 26 52.5 33.5t43 -4t21.5 -37.5q7 -44 -9 -95q101 33 128 79q2 3 5 2.5t4.5 -3t0.5 -4.5q-31 -52 -143 -87q-21 -54 -60.5 -105t-85.5 -73q-35 -17 -58 -7t-21.5 37t23.5 60q24 32 59.5 49.5t96.5 35.5
q22 62 16 109q-2 16 -9.5 22.5t-17.5 3.5t-19.5 -9t-19.5 -15q-48 -47 -91 -127q-12 -23 -25 -55q-36 7 -36 60q-3 163 106 366q-142 16 -309 142q-54 40 -89 63.5t-86 51t-102 41t-107 14.5q-132 5 -233 -81q-4 -2 -7 1t1 7q99 87 239 84q197 -4 401 -160
q64 -48 97.5 -70.5t89.5 -47.5t111 -33q41 80 100 149.5t136.5 123.5t163.5 71t181 -9q92 -29 155.5 -105t58.5 -169q-4 -82 -56.5 -148t-134.5 -84q-73 -16 -143 6.5t-117 80.5t-50 135q-116 -68 -241 -68zM678 896q-67 23 -132.5 10.5t-123 -44t-108.5 -82t-89 -104
t-66 -109.5q56 0 121 18t115 51q5 56 37 82q17 15 33 7.5t8 -29.5q-13 -35 -68 -66q0 -107 92.5 -169t201.5 -36q74 17 126.5 73.5t57.5 134.5q5 88 -54.5 161t-150.5 102zM83 42q57 35 103 150q-56 -17 -88.5 -33t-54.5 -46q-19 -25 -20.5 -49.5t14 -31.5t46.5 10zM406 642
q45 23 57 58q5 14 -3.5 17t-19.5 -6q-28 -22 -34 -69z" />
    <glyph glyph-name="d.004" unicode="&#xe128;" horiz-adv-x="403" 
d="M272 560q-142 16 -309 142q-54 40 -89 63.5t-86 51t-102 41t-107 14.5q-132 5 -233 -81q-4 -2 -7 1t1 7q99 87 239 84q197 -4 401 -160q64 -48 97.5 -70.5t89.5 -47.5t111 -33q41 80 100 149.5t136.5 123.5t163.5 71t181 -9q92 -29 155.5 -105t58.5 -169
q-4 -82 -56.5 -148t-134.5 -84q-73 -16 -143 6.5t-117 80.5t-50 135q-116 -68 -241 -68q-130 -246 -153 -464q-3 -32 7 -41t37 12q92 78 181 238q2 4 6.5 1.5t3.5 -6.5q-87 -154 -183 -246q-46 -44 -74 -9q-41 51 0 218q-75 -98 -108 -135q-30 -29 -52 -14.5t-26 52.5
q-7 55 18 115t65 91q18 14 37.5 20t39.5 -0.5t32 -28.5q6 -10 13 -32q35 115 97 234zM855 896q-67 23 -132.5 10.5t-123 -44t-108.5 -82t-89 -104t-66 -109.5q56 0 121 18t115 51q5 56 37 82q17 15 33 7.5t8 -29.5q-13 -35 -68 -66q0 -107 92.5 -169t201.5 -36
q74 17 126.5 73.5t57.5 134.5q5 88 -54.5 161t-150.5 102zM10 165q-1 -10 0 -20t3 -17.5t9.5 -6.5t18.5 13q20 20 40 45t45 57.5t37 48.5q4 15 5 19q-4 27 -15 49q-24 41 -61 4q-35 -35 -57.5 -87.5t-24.5 -104.5zM583 642q45 23 57 58q5 14 -3.5 17t-19.5 -6
q-28 -22 -34 -69z" />
    <glyph glyph-name="f.004" unicode="&#xe129;" horiz-adv-x="302" 
d="M159 555q-20 -43 -40 -93t-33 -85t-33.5 -99.5t-28 -88t-31 -102t-27.5 -92.5q42 15 83.5 41.5t71.5 52t67 68t57.5 69t56.5 74.5q2 3 5 2.5t4.5 -3t0.5 -4.5q-36 -48 -58.5 -77t-60 -71t-69.5 -69t-74.5 -53.5t-86.5 -41.5l-4 -14q23 -40 27 -97t-16 -105
q-10 -26 -29.5 -40t-38.5 -5.5t-24 44.5q-11 75 26 202q-25 -8 -48 -2q-21 6 -24.5 27t13.5 33q18 11 38.5 6.5t33.5 -17.5q10 32 38 129t43 145.5t43.5 126.5t58.5 144q-142 16 -309 142q-54 40 -89 63.5t-86 51t-102 41t-107 14.5q-132 5 -233 -81q-4 -2 -7 1t1 7
q99 87 239 84q197 -4 401 -160q64 -48 97.5 -70.5t89.5 -47.5t111 -33q41 80 100 149.5t136.5 123.5t163.5 71t181 -9q92 -29 155.5 -105t58.5 -169q-4 -82 -56.5 -148t-134.5 -84q-73 -16 -143 6.5t-117 80.5t-50 135q-116 -68 -241 -68zM683 896q-67 23 -132.5 10.5
t-123 -44t-108.5 -82t-89 -104t-66 -109.5q56 0 121 18t115 51q5 56 37 82q17 15 33 7.5t8 -29.5q-13 -35 -68 -66q0 -107 92.5 -169t201.5 -36q74 17 126.5 73.5t57.5 134.5q5 88 -54.5 161t-150.5 102zM-85 -216q-4 -28 3 -37.5t18.5 -1t21.5 27.5q37 83 -4 181
q-33 -118 -39 -170zM-86 4q-10 11 -27.5 16t-32.5 -5q-8 -7 -7 -20t14 -18q20 -8 46 2zM411 642q45 23 57 58q5 14 -3.5 17t-19.5 -6q-28 -22 -34 -69z" />
    <glyph glyph-name="g.004" unicode="&#xe12a;" horiz-adv-x="317" 
d="M53 -100q7 19 60 187t80 231q-22 -22 -66 -75t-73 -80q-19 -17 -35.5 -20.5t-26.5 4.5t-14 23q-12 50 8.5 103.5t65.5 81.5q36 22 71.5 15t65.5 -41l19 18q37 58 60 21q-25 -51 -52.5 -129.5t-65 -198.5t-43.5 -139q149 -9 331 -107q53 -29 87 -46t89 -41t94.5 -33.5
t91.5 -14.5t93 5.5t86.5 36.5t83.5 70q4 4 7.5 0.5t0.5 -7.5q-51 -59 -115.5 -88t-128 -31t-137.5 16.5t-135.5 45t-130.5 65.5q-66 36 -106.5 56.5t-101 40t-112.5 21.5q-29 -87 -76.5 -163.5t-112.5 -138.5t-151.5 -91.5t-180.5 -13.5t-167 81.5t-81 158.5
q-8 106 55.5 184t170.5 90q86 9 155.5 -31.5t100.5 -120.5q8 -19 11 -41q92 82 225 96zM-415 -507q83 -14 160.5 17.5t135.5 93.5t100.5 134.5t67.5 150.5q-130 -15 -220 -99q2 -28 -9.5 -56.5t-33.5 -43.5q-13 -9 -22.5 -4t-5.5 22q10 41 60 87q-1 19 -11 46
q-27 72 -94.5 106t-147.5 25q-98 -11 -164 -81.5t-56 -166.5q9 -88 77.5 -151.5t162.5 -79.5zM48 171q27 25 69.5 77t64.5 74q-19 17 -34 25.5t-36 7.5t-39 -19q-26 -25 -43 -70.5t-17 -77.5q-2 -22 5.5 -28t29.5 11zM-182 -220q-39 -39 -50 -73q-3 -9 1 -11.5t11 2.5
q36 26 38 82z" />
    <glyph glyph-name="h.004" unicode="&#xe12b;" horiz-adv-x="395" 
d="M147 555q-103 -206 -124 -427q59 99 108 148q38 36 64 33q20 -2 28 -27t1 -64q-7 -37 -37 -116.5t-36 -125.5q-3 -21 1.5 -32.5t12.5 -11.5t17 5q26 19 59 70t56.5 96.5t55.5 112t42 84.5q1 2 4 2t5 -2t1 -5q-5 -9 -52.5 -109t-87 -165.5t-75.5 -95.5q-29 -25 -54 -17
q-33 11 -35 65q-2 57 36.5 150.5t45.5 127.5q6 32 -3.5 40t-41.5 -23q-51 -51 -118 -167q-40 9 -38 75q8 167 106 384q-142 16 -309 142q-54 40 -89 63.5t-86 51t-102 41t-107 14.5q-132 5 -233 -81q-4 -2 -7 1t1 7q99 87 239 84q197 -4 401 -160q64 -48 97.5 -70.5
t89.5 -47.5t111 -33q41 80 100 149.5t136.5 123.5t163.5 71t181 -9q92 -29 155.5 -105t58.5 -169q-4 -82 -56.5 -148t-134.5 -84q-73 -16 -143 6.5t-117 80.5t-50 135q-116 -68 -241 -68zM671 896q-67 23 -132.5 10.5t-123 -44t-108.5 -82t-89 -104t-66 -109.5q56 0 121 18
t115 51q5 56 37 82q17 15 33 7.5t8 -29.5q-13 -35 -68 -66q0 -107 92.5 -169t201.5 -36q74 17 126.5 73.5t57.5 134.5q5 88 -54.5 161t-150.5 102zM399 642q45 23 57 58q5 14 -3.5 17t-19.5 -6q-28 -22 -34 -69z" />
    <glyph glyph-name="j.004" unicode="&#xe12c;" horiz-adv-x="141" 
d="M-66 -98q149 -9 331 -107q53 -29 87 -46t89 -41t94.5 -33.5t91.5 -14.5t93 5.5t86.5 36.5t83.5 70q4 4 7.5 0.5t0.5 -7.5q-51 -59 -115.5 -88t-128 -31t-137.5 16.5t-135.5 45t-130.5 65.5q-66 36 -106.5 56.5t-101 40t-112.5 21.5q-29 -87 -76.5 -163.5t-112.5 -138.5
t-151.5 -91.5t-180.5 -13.5t-167 81.5t-81 158.5q-8 106 55.5 184t170.5 90q86 9 155.5 -31.5t100.5 -120.5q8 -19 11 -41q92 82 225 96q55 167 112 383q7 26 24.5 31t36.5 -11q-6 -14 -21.5 -72t-42.5 -151.5t-55 -178.5zM-588 -506q83 -14 160.5 17.5t135.5 93.5
t100.5 134.5t67.5 150.5q-130 -15 -220 -99q2 -28 -9.5 -56.5t-33.5 -43.5q-13 -9 -22.5 -4t-5.5 22q10 41 60 87q-1 19 -11 46q-27 72 -94.5 106t-147.5 25q-98 -11 -164 -81.5t-56 -166.5q9 -88 77.5 -151.5t162.5 -79.5zM-355 -219q-39 -39 -50 -73q-3 -9 1 -11.5t11 2.5
q36 26 38 82zM44 338q-9 0 -15 6.5t-6 14.5q0 9 6 15.5t15 6.5t15 -6.5t6 -15.5q0 -8 -6 -14.5t-15 -6.5z" />
    <glyph glyph-name="k.004" unicode="&#xe12d;" horiz-adv-x="351" 
d="M148 555q-97 -195 -121 -387q14 38 37 69q37 48 83 53q31 4 42.5 -17t-11.5 -42q-18 -16 -84 -23q-7 -1 -9.5 -2t-0.5 -2.5t8 -4.5q37 -16 50 -43t14 -70q0 -5 -3 -36.5t1 -36.5q8 -41 57 31q1 2 2 3q18 25 36.5 58t31 56.5t35.5 69.5t35 69q1 2 4 2t5 -2t1 -5l-31 -62
t-36 -70.5t-33 -59.5t-41 -66q-2 -2 -9.5 -13t-11.5 -15.5l-12 -13.5t-14 -11.5t-14.5 -5t-17 1.5t-16.5 12q-14 20 -17.5 48.5t-0.5 52t-4 50.5t-27 46q-26 22 4 27q4 1 24.5 3t34.5 7t25 15q12 11 7 25t-23 12q-43 -4 -76 -47q-39 -51 -52 -130q-43 8 -38 75
q12 185 107 384q-142 16 -309 142q-54 40 -89 63.5t-86 51t-102 41t-107 14.5q-132 5 -233 -81q-4 -2 -7 1t1 7q99 87 239 84q197 -4 401 -160q64 -48 97.5 -70.5t89.5 -47.5t111 -33q41 80 100 149.5t136.5 123.5t163.5 71t181 -9q92 -29 155.5 -105t58.5 -169
q-4 -82 -56.5 -148t-134.5 -84q-73 -16 -143 6.5t-117 80.5t-50 135q-116 -68 -241 -68zM672 896q-67 23 -132.5 10.5t-123 -44t-108.5 -82t-89 -104t-66 -109.5q56 0 121 18t115 51q5 56 37 82q17 15 33 7.5t8 -29.5q-13 -35 -68 -66q0 -107 92.5 -169t201.5 -36
q74 17 126.5 73.5t57.5 134.5q5 88 -54.5 161t-150.5 102zM400 642q45 23 57 58q5 14 -3.5 17t-19.5 -6q-28 -22 -34 -69z" />
    <glyph glyph-name="l.004" unicode="&#xe12e;" horiz-adv-x="296" 
d="M78 391q-71 -208 -51 -289q8 -31 34 -34t57 24q104 92 178 208q2 3 5 2.5t4.5 -3t0.5 -4.5q-73 -116 -182 -212q-48 -42 -88 -31q-30 9 -43 45.5t-11 78.5q9 207 107 384q-142 16 -309 142q-54 40 -89 63.5t-86 51t-102 41t-107 14.5q-132 5 -233 -81q-4 -2 -7 1t1 7
q99 87 239 84q197 -4 401 -160q64 -48 97.5 -70.5t89.5 -47.5t111 -33q41 80 100 149.5t136.5 123.5t163.5 71t181 -9q92 -29 155.5 -105t58.5 -169q-4 -82 -56.5 -148t-134.5 -84q-73 -16 -143 6.5t-117 80.5t-50 135q-116 -68 -241 -68q-46 -93 -70 -164zM672 896
q-67 23 -132.5 10.5t-123 -44t-108.5 -82t-89 -104t-66 -109.5q56 0 121 18t115 51q5 56 37 82q17 15 33 7.5t8 -29.5q-13 -35 -68 -66q0 -107 92.5 -169t201.5 -36q74 17 126.5 73.5t57.5 134.5q5 88 -54.5 161t-150.5 102zM400 642q45 23 57 58q5 14 -3.5 17t-19.5 -6
q-28 -22 -34 -69z" />
    <glyph glyph-name="t.004" unicode="&#xe131;" horiz-adv-x="245" 
d="M81 367q-74 -188 -74 -268q-1 -35 17 -43.5t48 10.5q32 20 72.5 73.5t62.5 91t38 69.5q2 4 7 2t3 -7q-94 -180 -176 -238q-34 -28 -72 -22t-44 56q-10 78 41 223q70 193 168 350q-62 -2 -192 -10q-342 -19 -467 -10q-199 16 -206 99q0 6 5 6q6 0 6 -5q6 -78 210 -90.5
t450 11.5h2q114 7 174 9.5t157.5 4.5t151 -4t111.5 -17.5t85.5 -34.5t30.5 -57q0 -6 -5 -6q-4 0 -6 5q-3 36 -41 59t-100.5 32t-145 12t-175.5 -2q-63 -115 -136 -299z" />
    <glyph glyph-name="y.004" unicode="&#xe132;" horiz-adv-x="315" 
d="M101 -98q149 -9 331 -107q53 -29 87 -46t89 -41t94.5 -33.5t91.5 -14.5t93 5.5t86.5 36.5t83.5 70q4 4 7.5 0.5t0.5 -7.5q-51 -59 -115.5 -88t-128 -31t-137.5 16.5t-135.5 45t-130.5 65.5q-66 36 -106.5 56.5t-101 40t-112.5 21.5q-29 -87 -76.5 -163.5t-112.5 -138.5
t-151.5 -91.5t-180.5 -13.5t-167 81.5t-81 158.5q-8 106 55.5 184t170.5 90q86 9 155.5 -31.5t100.5 -120.5q8 -19 11 -41q92 82 225 96q11 32 56.5 187.5t69.5 211.5q-6 -7 -23 -29t-24.5 -31.5t-22.5 -27.5t-25 -28t-23 -21.5t-24 -19.5q-50 -35 -60 26q-9 48 19 114
q24 55 64 24q-36 -67 -45 -123q-6 -38 9 -35q3 0 7 3q26 18 56.5 51.5t68.5 82.5t53 67q12 12 16 15q20 15 34 -10q-10 -19 -21.5 -49.5t-27.5 -78.5t-28.5 -88.5t-36 -115.5t-38.5 -124zM-421 -506q83 -14 160.5 17.5t135.5 93.5t100.5 134.5t67.5 150.5q-130 -15 -220 -99
q2 -28 -9.5 -56.5t-33.5 -43.5q-13 -9 -22.5 -4t-5.5 22q10 41 60 87q-1 19 -11 46q-27 72 -94.5 106t-147.5 25q-98 -11 -164 -81.5t-56 -166.5q9 -88 77.5 -151.5t162.5 -79.5zM-188 -219q-39 -39 -50 -73q-3 -9 1 -11.5t11 2.5q36 26 38 82z" />
    <glyph glyph-name="z.004" unicode="&#xe133;" horiz-adv-x="271" 
d="M79 235q62 -7 89 -45q67 -88 -3 -292q149 -9 331 -107q53 -29 87 -46t89 -41t94.5 -33.5t91.5 -14.5t93 5.5t86.5 36.5t83.5 70q4 4 7.5 0.5t0.5 -7.5q-51 -59 -115.5 -88t-128 -31t-137.5 16.5t-135.5 45t-130.5 65.5q-66 36 -106.5 56.5t-101 40t-112.5 21.5
q-29 -87 -76.5 -163.5t-112.5 -138.5t-151.5 -91.5t-180.5 -13.5t-167 81.5t-81 158.5q-8 106 55.5 184t170.5 90q86 9 155.5 -31.5t100.5 -120.5q8 -19 11 -41q92 82 225 96q17 44 27.5 92t8 105.5t-26.5 96.5q-15 23 -49 31q-18 5 -5 21q5 6 22 21t24.5 27.5t4.5 28.5
q-3 20 -21.5 23.5t-33.5 -5.5q-29 -13 -52 -43q-2 -3 -6.5 -1t-3.5 6q14 27 42.5 50.5t62.5 23.5q21 0 36.5 -12.5t14.5 -37.5q0 -15 -8.5 -29.5t-16.5 -21.5t-27 -20t-25 -18zM-357 -510q83 -14 160.5 17.5t135.5 93.5t100.5 134.5t67.5 150.5q-130 -15 -220 -99
q2 -28 -9.5 -56.5t-33.5 -43.5q-13 -9 -22.5 -4t-5.5 22q10 41 60 87q-1 19 -11 46q-27 72 -94.5 106t-147.5 25q-98 -11 -164 -81.5t-56 -166.5q9 -88 77.5 -151.5t162.5 -79.5zM-124 -223q-39 -39 -50 -73q-3 -9 1 -11.5t11 2.5q36 26 38 82z" />
    <glyph glyph-name="fi" unicode="&#xfb01;" horiz-adv-x="540" 
d="M-96 -32q-24 -7 -46 -2q-21 6 -24.5 27t13.5 33q18 11 37.5 6.5t32.5 -17.5q10 35 36 127t41 141t41.5 122t53.5 131q23 48 59 102.5t77 89.5q51 46 91.5 33t39.5 -90q-1 -113 -90.5 -223t-200.5 -130q-17 -53 -99 -323q51 18 97 48.5t89 75.5t71 79t70 91q23 43 58 16
q-39 -111 -49 -180q-3 -15 -1.5 -27t5.5 -19.5t15 -4.5t28 18q98 84 191 208q2 3 5 2.5t4.5 -3t0.5 -4.5q-93 -123 -194 -211q-57 -51 -82 -7q-18 34 -8 110q5 38 13 64q-51 -66 -91.5 -111t-101 -90.5t-123.5 -66.5l-4 -14q23 -40 27 -97t-16 -105q-10 -26 -29.5 -40
t-38.5 -5.5t-24 44.5q-11 75 26 202zM140 523q-25 -55 -72 -194q103 17 190 125.5t87 216.5q0 43 -15 57t-35.5 4.5t-45.5 -34.5q-54 -56 -109 -175zM-85 -216q-4 -28 3 -37.5t18.5 -1t21.5 27.5q37 83 -4 181q-33 -118 -39 -170zM-86 4q-10 11 -26.5 16t-31.5 -5
q-8 -7 -7 -20t14 -18q19 -7 44 2z" />
    <glyph glyph-name="fl" unicode="&#xfb02;" horiz-adv-x="598" 
d="M-96 -32q-24 -7 -46 -2q-21 6 -24.5 27t13.5 33q18 11 37.5 6.5t32.5 -17.5q10 35 36 127t41 141t41.5 122t53.5 131q23 48 59 102.5t77 89.5q51 46 91.5 33t39.5 -90q-1 -113 -90.5 -223t-200.5 -130q-17 -53 -99 -323q52 18 98.5 49t91 78t71.5 80.5t71 92.5
q25 127 81.5 243t135.5 181q44 36 85.5 43t64.5 -21.5t12 -89.5q-18 -103 -112 -205q-97 -103 -214 -148q-36 -136 -22 -196q8 -31 34 -34t57 24q104 92 178 208q2 3 5 2.5t4.5 -3t0.5 -4.5q-73 -116 -182 -212q-48 -42 -88 -31q-30 9 -43 45.5t-11 78.5q1 37 10 95
q-39 -52 -70.5 -89.5t-73.5 -79.5t-89 -72t-98 -47l-4 -14q23 -40 27 -97t-16 -105q-10 -26 -29.5 -40t-38.5 -5.5t-24 44.5q-11 75 26 202zM568 711q-131 -110 -213 -400q112 45 202 143q90 95 109 199q12 66 -18.5 82.5t-79.5 -24.5zM140 523q-25 -55 -72 -194
q103 17 190 125.5t87 216.5q0 43 -15 57t-35.5 4.5t-45.5 -34.5q-54 -56 -109 -175zM-85 -216q-4 -28 3 -37.5t18.5 -1t21.5 27.5q37 83 -4 181q-33 -118 -39 -170zM-86 4q-10 11 -26.5 16t-31.5 -5q-8 -7 -7 -20t14 -18q19 -7 44 2z" />
    </font>
</defs>
</svg>
